<?xml version="1.0" encoding="utf-8" ?>
<svg xmlns="http://www.w3.org/2000/svg" xmlns:ev="http://www.w3.org/2001/xml-events" xmlns:xlink="http://www.w3.org/1999/xlink" baseProfile="full" version="1.1" viewBox="-8.707509662112944 -7.033293270338731 12.008409531288004 11.734143746641983">
  <defs/>
  <g stroke="none">
    <path d="M -4.354850 1.764161 C -3.913191 2.270637 -3.427174 2.736399 -2.928822 3.186363  L -2.739561 2.953597  C -3.252218 2.539889 -3.743561 2.099659 -4.204550 1.628652  Z" fill="black" stroke="black" stroke-width="0.005"/>
    <path d="M -4.443836 3.067481 C -3.823940 2.790194 -3.220948 2.476862 -2.638173 2.128706  L -2.835335 1.775240  C -3.429195 2.045647 -4.029538 2.306896 -4.652044 2.504764  Z" fill="white" stroke="white" stroke-width="0"/>
    <path d="M -4.495888 2.926802 C -3.875343 2.668891 -3.273089 2.369270 -2.687464 2.040340  L -2.786044 1.863607  C -3.377224 2.153663 -3.978116 2.427232 -4.599992 2.645444  Z" fill="black" stroke="black" stroke-width="0.005"/>
    <path d="M -5.956655 0.166119 C -5.953750 0.838110 -5.890661 1.508308 -5.807909 2.174623  L -5.512507 2.122301  C -5.629792 1.474060 -5.713606 0.819693 -5.754331 0.161894  Z" fill="black" stroke="black" stroke-width="0.005"/>
    <path d="M -4.814354 1.168215 C -5.443043 0.990898 -6.062111 0.781117 -6.665820 0.532046  L -6.876305 1.093914  C -6.224424 1.281659 -5.566754 1.456437 -4.896352 1.564557  Z" fill="white" stroke="white" stroke-width="0"/>
    <path d="M -4.834853 1.267300 C -5.474237 1.107465 -6.102398 0.905886 -6.718441 0.672513  L -6.823684 0.953447  C -6.183580 1.156157 -5.536078 1.340239 -4.875853 1.465471  Z" fill="black" stroke="black" stroke-width="0.005"/>
    <path d="M -6.123386 -2.090366 C -6.560649 -1.580090 -6.951210 -1.031812 -7.324355 -0.473613  L -7.066660 -0.320012  C -6.731459 -0.887121 -6.366932 -1.436976 -5.967561 -1.961249  Z" fill="black" stroke="black" stroke-width="0.005"/>
    <path d="M -7.425871 -1.989890 C -7.061832 -1.416623 -6.664572 -0.865297 -6.235778 -0.339012  L -5.914550 -0.585229  C -6.268015 -1.133730 -6.613357 -1.689969 -6.899190 -2.277305  Z" fill="white" stroke="white" stroke-width="0"/>
    <path d="M -7.294200 -2.061744 C -6.949240 -1.485032 -6.565654 -0.932452 -6.155471 -0.400566  L -5.994857 -0.523675  C -6.367377 -1.066680 -6.724989 -1.621680 -7.030860 -2.205452  Z" fill="black" stroke="black" stroke-width="0.005"/>
    <path d="M -4.773853 -3.906483 C -5.438356 -3.806404 -6.092380 -3.647034 -6.739717 -3.468769  L -6.645215 -3.184042  C -6.020757 -3.393862 -5.385397 -3.571450 -4.740406 -3.706898  Z" fill="black" stroke="black" stroke-width="0.005"/>
    <path d="M -5.600175 -2.631241 C -5.515664 -3.278968 -5.397637 -3.921869 -5.238513 -4.555257  L -5.824919 -4.682254  C -5.916394 -4.010071 -5.994202 -3.334036 -6.004210 -2.655046  Z" fill="white" stroke="white" stroke-width="0"/>
    <path d="M -5.701184 -2.637193 C -5.635518 -3.292972 -5.526923 -3.943685 -5.385114 -4.587007  L -5.678317 -4.650505  C -5.786304 -3.987812 -5.874789 -3.320491 -5.903201 -2.649095  Z" fill="black" stroke="black" stroke-width="0.005"/>
    <path d="M -2.565219 -4.397863 C -3.133378 -4.756715 -3.732385 -5.063859 -4.338689 -5.352336  L -4.453398 -5.075132  C -3.843767 -4.825490 -3.246966 -4.544334 -2.670437 -4.225000  Z" fill="black" stroke="black" stroke-width="0.005"/>
    <path d="M -2.853043 -5.672115 C -3.367622 -5.228981 -3.855686 -4.756149 -4.314410 -4.255738  L -4.024317 -3.973503  C -3.532714 -4.402593 -3.032279 -4.824762 -2.492466 -5.192548  Z" fill="white" stroke="white" stroke-width="0"/>
    <path d="M -2.762899 -5.552223 C -3.283646 -5.127468 -3.774928 -4.667986 -4.241887 -4.185179  L -4.096840 -4.044062  C -3.613431 -4.491210 -3.115997 -4.925342 -2.582610 -5.312440  Z" fill="black" stroke="black" stroke-width="0.005"/>
    <path d="M -0.572991 -3.325226 C -0.768138 -3.968264 -1.020437 -4.592356 -1.290465 -5.207099  L -1.558528 -5.072405  C -1.260586 -4.484865 -0.992960 -3.881875 -0.765639 -3.263261  Z" fill="black" stroke="black" stroke-width="0.005"/>
    <path d="M -1.954349 -3.958393 C -1.301210 -3.968464 -0.647997 -3.944675 0.001747 -3.878844  L 0.042584 -4.477453  C -0.635762 -4.470735 -1.315941 -4.449935 -1.989238 -4.361621  Z" fill="white" stroke="white" stroke-width="0"/>
    <path d="M -1.963071 -4.059200 C -1.304690 -4.089083 -0.645112 -4.075756 0.011956 -4.028497  L 0.032375 -4.327801  C -0.638970 -4.338792 -1.312071 -4.329818 -1.980516 -4.260814  Z" fill="black" stroke="black" stroke-width="0.005"/>
    <path d="M 0.241082 -1.208276 C 0.509056 -1.824316 0.723929 -2.461948 0.920603 -3.103782  L 0.629722 -3.177187  C 0.471355 -2.537234 0.281416 -1.905051 0.053066 -1.286326  Z" fill="black" stroke="black" stroke-width="0.005"/>
    <path d="M 1.555246 -1.971255 C 0.962197 -2.247850 0.397450 -2.581093 -0.160950 -2.921135  L -0.398254 -2.593267  C 0.138214 -2.178498 0.697655 -1.794311 1.276132 -1.440129  Z" fill="white" stroke="white" stroke-width="0"/>
    <path d="M 1.485467 -1.838474 C 0.896084 -2.134923 0.332710 -2.480235 -0.220276 -2.839168  L -0.338928 -2.675234  C 0.203081 -2.278937 0.763837 -1.908143 1.345910 -1.572910  Z" fill="black" stroke="black" stroke-width="0.005"/>
    <path d="M 0.655461 0.592066 C 1.318039 0.650283 1.795975 0.298024 2.121130 -0.245423  L 1.837087 -0.341961  C 1.564939 0.111190 1.246004 0.413098 0.680717 0.421396  Z" fill="black" stroke="black" stroke-width="0.005"/>
    <path d="M 1.520204 1.688106 C 1.714791 0.988085 1.460776 0.400006 0.932142 -0.056732  L 0.736206 0.227300  C 1.002582 0.607902 1.171115 0.979304 0.973128 1.441716  Z" fill="white" stroke="white" stroke-width="0"/>
    <path d="M 1.383435 1.626509 C 1.575388 0.992657 1.351059 0.445055 0.883158 0.014276  L 0.785190 0.156292  C 1.110275 0.569796 1.303738 0.970301 1.109897 1.503314  Z" fill="black" stroke="black" stroke-width="0.005"/>
    <path d="M -2.097979 1.925586 C -1.447111 2.033466 -0.803312 2.180142 -0.168134 2.357611  L -0.089000 2.068236  C -0.744464 1.923713 -1.405027 1.796400 -2.072894 1.724779  Z" fill="black" stroke="black" stroke-width="0.005"/>
    <path d="M -0.934110 0.941101 C -1.204783 1.536445 -1.504031 2.118370 -1.838482 2.680224  L -1.312970 2.969770  C -1.031960 2.352854 -0.761760 1.729011 -0.552680 1.083502  Z" fill="white" stroke="white" stroke-width="0"/>
    <path d="M -0.838752 0.976702 C -1.093897 1.584866 -1.386308 2.176667 -1.707104 2.752610  L -1.444348 2.897383  C -1.150277 2.293932 -0.872379 1.681137 -0.648037 1.047902  Z" fill="black" stroke="black" stroke-width="0.005"/>
    <path d="M 0.560353 -0.053291 C 0.168572 -0.045742 -0.122608 0.155886 -0.428558 0.367517  L -0.326901 0.460289  C -0.055100 0.261604 0.207030 0.073318 0.560353 0.053291  Z" fill="black" stroke="black" stroke-width="0.005"/>
    <path d="M 0.482415 0.304354 C 0.256113 0.057093 0.198820 -0.244364 0.143811 -0.558798  L -0.131423 -0.561840  C -0.059809 -0.179191 0.047018 0.179154 0.336991 0.460209  Z" fill="white" stroke="white" stroke-width="0"/>
    <path d="M 0.446059 0.343318 C 0.201388 0.087633 0.138184 -0.228862 0.075002 -0.559558  L -0.062615 -0.561079  C 0.016703 -0.197621 0.092046 0.148447 0.373347 0.421245  Z" fill="black" stroke="black" stroke-width="0.005"/>
  </g>
  <g fill="none" stroke="black">
    <path d="M -2.8342 3.07 C -2.4462 3.3854, -1.817 3.2629, -1.5757 2.825" stroke-width="0.305"/>
    <path d="M -4.5479 2.7861 C -5.0169 2.9596, -5.573 2.6408, -5.6602 2.1485" stroke-width="0.305"/>
    <path d="M -7.1955 -0.3968 C -7.4515 0.0327, -7.2393 0.6376, -6.7711 0.813" stroke-width="0.305"/>
    <path d="M -7.1625 -2.1336 C -7.402 -2.5725, -7.167 -3.1689, -6.6925 -3.3264" stroke-width="0.305"/>
    <path d="M -4.396 -5.2137 C -4.858 -5.4049, -5.4259 -5.1074, -5.5317 -4.6188" stroke-width="0.305"/>
    <path d="M -2.6728 -5.4323 C -2.2731 -5.7328, -1.649 -5.5865, -1.4245 -5.1398" stroke-width="0.305"/>
    <path d="M 0.7752 -3.1405 C 0.8975 -3.6253, 0.521 -4.1441, 0.0222 -4.1781" stroke-width="0.305"/>
    <path d="M 1.4157 -1.7057 C 1.8583 -1.4731, 2.14 -0.7671, 1.9791 -0.2937" stroke-width="0.305"/>
    <path d="M 1.2467 1.5649 C 1.0413 2.0208, 0.3537 2.3448, -0.1286 2.2129" stroke-width="0.305"/>
    <path d="M 0.560353 0.053291 C 0.647373 0.058517 0.712625 0.121500 0.785190 0.156292  L 0.883158 0.014276  C 0.777821 -0.010644 0.675425 -0.076423 0.560353 -0.053291  Z" fill="black" stroke="black" stroke-width="0.005"/>
    <path d="M -2.0854 1.8252 C -2.2586 1.8035, -2.5843 1.8669, -2.7368 1.952" stroke-width="0.2074"/>
    <path d="M -5.8555 0.164 C -5.8591 -0.0105, -5.969 -0.3236, -6.0752 -0.4621" stroke-width="0.2074"/>
    <path d="M -4.7571 -3.8067 C -4.585 -3.8355, -4.2911 -3.9895, -4.1694 -4.1146" stroke-width="0.2074"/>
    <path d="M -0.6693 -3.2942 C -0.6159 -3.1281, -0.421 -2.8595, -0.2796 -2.7572" stroke-width="0.2074"/>
    <path d="M 0.680717 0.421396 C 0.593925 0.427504 0.522651 0.370745 0.446059 0.343318  L 0.373347 0.421245  C 0.464266 0.479631 0.539203 0.575143 0.655461 0.592066  Z" fill="black" stroke="black" stroke-width="0.005"/>
    <path d="M 0.075002 -0.559558 C 0.087867 -0.786459 0.170217 -0.996336 0.241082 -1.208276  L 0.053066 -1.286326  C -0.003192 -1.047677 -0.074380 -0.810092 -0.062615 -0.561079  Z" fill="black" stroke="black" stroke-width="0.005"/>
    <path d="M -1.9718 -4.16 C -2.1457 -4.145, -2.4687 -4.2207, -2.6178 -4.3114" stroke-width="0.2074"/>
    <path d="M -5.8022 -2.6431 C -5.8125 -2.4689, -5.9341 -2.1602, -6.0455 -2.0258" stroke-width="0.2074"/>
    <path d="M -4.8554 1.3664 C -4.6844 1.4018, -4.3966 1.5668, -4.2797 1.6964" stroke-width="0.2074"/>
    <path d="M -0.648037 1.047902 C -0.581347 0.830982 -0.447744 0.648256 -0.326901 0.460289  L -0.428558 0.367517  C -0.580202 0.560218 -0.743372 0.746140 -0.838752 0.976702  Z" fill="black" stroke="black" stroke-width="0.005"/>
  </g>
</svg>
