<?xml version="1.0" encoding="utf-8" ?>
<svg xmlns="http://www.w3.org/2000/svg" xmlns:ev="http://www.w3.org/2001/xml-events" xmlns:xlink="http://www.w3.org/1999/xlink" baseProfile="full" version="1.1" viewBox="-8.190666675441314 -4.021528132559482 12.180772264985045 11.428168645491617">
  <defs/>
  <g stroke="none">
    <path d="M 1.099827 3.449805 C 0.891521 2.811340 0.645699 2.185810 0.372854 1.572420  L 0.178257 1.658259  C 0.416039 2.273492 0.638756 2.895771 0.811525 3.532764  Z" fill="black" stroke="black" stroke-width="0.005"/>
    <path d="M 0.017531 3.306685 C 0.550474 2.957386 1.123131 2.673430 1.720368 2.453758  L 1.506301 1.893245  C 0.893272 2.200530 0.294979 2.547145 -0.231384 2.990144  Z" fill="white" stroke="white" stroke-width="0"/>
    <path d="M -0.044698 3.227550 C 0.486551 2.854290 1.065896 2.556063 1.666851 2.313630  L 1.559818 2.033373  C 0.950990 2.319546 0.358789 2.649209 -0.169155 3.069279  Z" fill="black" stroke="black" stroke-width="0.005"/>
    <path d="M -0.569990 3.659433 C -0.785278 4.278969 -1.056368 4.877503 -1.365335 5.455410  L -1.101341 5.597915  C -0.818089 4.988317 -0.560362 4.364471 -0.376987 3.716783  Z" fill="black" stroke="black" stroke-width="0.005"/>
    <path d="M -1.774273 4.738257 C -1.099488 4.839832 -0.415113 4.855734 0.266101 4.848066  L 0.207782 4.250907  C -0.434842 4.330570 -1.083003 4.358861 -1.730549 4.337951  Z" fill="white" stroke="white" stroke-width="0"/>
    <path d="M -1.763342 4.638181 C -1.095176 4.719919 -0.420202 4.723873 0.251521 4.698777  L 0.222362 4.400197  C -0.430100 4.461274 -1.086912 4.479441 -1.741480 4.438028  Z" fill="black" stroke="black" stroke-width="0.005"/>
    <path d="M -4.176968 5.591877 C -3.543277 5.364782 -2.932672 5.078603 -2.343080 4.755097  L -2.440808 4.579062  C -3.031844 4.861285 -3.636852 5.119386 -4.265811 5.305334  Z" fill="black" stroke="black" stroke-width="0.005"/>
    <path d="M -4.056032 4.506878 C -3.645114 5.051670 -3.167388 5.541976 -2.675426 6.013235  L -2.299172 5.545867  C -2.813954 5.153041 -3.296740 4.719646 -3.744653 4.251536  Z" fill="white" stroke="white" stroke-width="0"/>
    <path d="M -3.978187 4.443042 C -3.558114 4.969032 -3.078743 5.444226 -2.581363 5.896393  L -2.393236 5.662709  C -2.902038 5.249722 -3.383917 4.803041 -3.822498 4.315371  Z" fill="black" stroke="black" stroke-width="0.005"/>
    <path d="M -4.420733 3.926701 C -5.044546 3.724139 -5.648504 3.465359 -6.232614 3.168286  L -6.369685 3.435141  C -5.754417 3.705856 -5.125426 3.950759 -4.474120 4.120838  Z" fill="black" stroke="black" stroke-width="0.005"/>
    <path d="M -5.523983 2.744753 C -5.611724 3.421476 -5.613613 4.106033 -5.592003 4.786948  L -4.996163 4.716418  C -5.088963 4.075559 -5.130516 3.428112 -5.122865 2.780274  Z" fill="white" stroke="white" stroke-width="0"/>
    <path d="M -5.423703 2.753634 C -5.491747 3.423333 -5.481884 4.098247 -5.443043 4.769315  L -5.145123 4.734050  C -5.219542 4.082975 -5.251150 3.426672 -5.223144 2.771394  Z" fill="black" stroke="black" stroke-width="0.005"/>
    <path d="M -6.426605 0.360035 C -6.186587 0.988945 -5.887969 1.593564 -5.552462 2.176411  L -5.378464 2.075099  C -5.672727 1.489965 -5.943157 0.890367 -6.141941 0.265345  Z" fill="black" stroke="black" stroke-width="0.005"/>
    <path d="M -5.339358 0.458736 C -5.875625 0.880720 -6.356050 1.368382 -6.817139 1.869887  L -6.342167 2.236495  C -5.959961 1.713781 -5.536539 1.222225 -5.077696 0.764824  Z" fill="white" stroke="white" stroke-width="0"/>
    <path d="M -5.273943 0.535258 C -5.791224 0.966010 -6.256506 1.455008 -6.698396 1.961539  L -6.460910 2.144843  C -6.058425 1.627694 -5.621701 1.136772 -5.143111 0.688302  Z" fill="black" stroke="black" stroke-width="0.005"/>
    <path d="M -4.766768 0.082236 C -4.577018 -0.545593 -4.330655 -1.154721 -4.045601 -1.744791  L -4.315206 -1.876370  C -4.573269 -1.255689 -4.805246 -0.621818 -4.961957 0.032834  Z" fill="black" stroke="black" stroke-width="0.005"/>
    <path d="M -3.607651 -1.044977 C -4.286029 -1.118847 -4.970481 -1.106724 -5.650810 -1.071180  L -5.568098 -0.476908  C -4.929273 -0.582807 -4.282813 -0.637605 -3.634954 -0.643216  Z" fill="white" stroke="white" stroke-width="0"/>
    <path d="M -3.614477 -0.944537 C -4.285429 -0.998857 -4.959999 -0.975182 -5.630132 -0.922612  L -5.588776 -0.625476  C -4.939361 -0.713207 -4.283843 -0.758243 -3.628128 -0.743656  Z" fill="black" stroke="black" stroke-width="0.005"/>
    <path d="M -2.935159 -0.913197 C -2.357186 -1.261235 -1.841492 -1.701053 -1.360746 -2.171637  L -1.585990 -2.369792  C -2.023001 -1.891312 -2.504747 -1.452564 -3.040011 -1.085084  Z" fill="black" stroke="black" stroke-width="0.005"/>
    <path d="M -1.269068 -0.974619 C -1.735517 -1.466439 -2.244211 -1.916128 -2.759439 -2.355771  L -3.116248 -1.873394  C -2.578661 -1.499854 -2.062726 -1.096221 -1.565836 -0.669866  Z" fill="white" stroke="white" stroke-width="0"/>
    <path d="M -1.343260 -0.898430 C -1.817299 -1.374142 -2.327943 -1.811731 -2.848641 -2.235176  L -3.027046 -1.993988  C -2.495158 -1.603580 -1.980913 -1.189040 -1.491644 -0.746054  Z" fill="black" stroke="black" stroke-width="0.005"/>
    <path d="M 0.602257 -1.233457 C 0.945843 -1.715487 1.427797 -1.886332 1.984758 -1.968236  L 1.997163 -2.267980  C 1.353292 -2.175886 0.781816 -1.899153 0.433064 -1.324575  Z" fill="black" stroke="black" stroke-width="0.005"/>
    <path d="M -0.039830 -2.319792 C 0.515744 -2.078685 0.927039 -1.646346 1.311152 -1.194454  L 1.631016 -1.369122  C 1.278457 -1.968129 0.817015 -2.494455 0.218792 -2.861193  Z" fill="white" stroke="white" stroke-width="0"/>
    <path d="M 0.024826 -2.455142 C 0.582521 -2.177962 1.027066 -1.735302 1.391118 -1.238121  L 1.551050 -1.325455  C 1.194734 -1.890882 0.738183 -2.387917 0.154136 -2.725843  Z" fill="black" stroke="black" stroke-width="0.005"/>
    <path d="M 2.608095 0.807352 C 2.495371 0.142072 2.189035 -0.459293 1.783612 -0.990614  L 1.645931 -0.871242  C 1.984703 -0.356503 2.244278 0.214626 2.309281 0.834003  Z" fill="black" stroke="black" stroke-width="0.005"/>
    <path d="M 2.394770 -1.219102 C 2.218850 -0.708071 1.816746 -0.445419 1.352960 -0.228841  L 1.405571 0.151878  C 2.088855 -0.011720 2.654444 -0.380340 2.965187 -1.033026  Z" fill="white" stroke="white" stroke-width="0"/>
    <path d="M 2.537375 -1.172583 C 2.322699 -0.620264 1.884683 -0.348967 1.366113 -0.133662  L 1.392418 0.056698  C 2.022178 -0.111998 2.545772 -0.468653 2.822583 -1.079545  Z" fill="black" stroke="black" stroke-width="0.005"/>
    <path d="M 0.819666 -0.082559 C 0.291284 -0.097717 -0.210384 -0.253792 -0.700687 -0.435323  L -0.780288 -0.267618  C -0.263301 -0.083597 0.264560 0.076183 0.819666 0.082559  Z" fill="black" stroke="black" stroke-width="0.005"/>
    <path d="M 0.255736 0.800571 C 0.215282 0.286896 0.316756 -0.216091 0.440930 -0.710421  L 0.131479 -0.825730  C -0.021318 -0.284962 -0.146226 0.265011 -0.114153 0.832637  Z" fill="white" stroke="white" stroke-width="0"/>
    <path d="M 0.163264 0.808587 C 0.125035 0.281423 0.232174 -0.233308 0.363567 -0.739248  L 0.208841 -0.796903  C 0.063141 -0.267744 -0.055726 0.270483 -0.021681 0.824620  Z" fill="black" stroke="black" stroke-width="0.005"/>
  </g>
  <g fill="none" stroke="black">
    <path d="M 2.4587 0.8207 C 2.5031 1.3187, 2.0804 1.9951, 1.6133 2.1735" stroke-width="0.305"/>
    <path d="M 0.9557 3.4913 C 1.0939 3.9718, 0.7346 4.5009, 0.2369 4.5495" stroke-width="0.305"/>
    <path d="M -1.2333 5.5267 C -1.4708 5.9667, -2.0978 6.0931, -2.4873 5.7796" stroke-width="0.305"/>
    <path d="M -4.2214 5.4486 C -4.699 5.5967, -5.2353 5.2482, -5.2941 4.7517" stroke-width="0.305"/>
    <path d="M -6.3011 3.3017 C -6.7459 3.0733, -6.8852 2.449, -6.5797 2.0532" stroke-width="0.305"/>
    <path d="M -6.2843 0.3127 C -6.4421 -0.1618, -6.1047 -0.7051, -5.6095 -0.774" stroke-width="0.305"/>
    <path d="M -4.1804 -1.8106 C -3.9611 -2.2599, -3.3398 -2.4119, -2.9378 -2.1146" stroke-width="0.305"/>
    <path d="M -1.4734 -2.2707 C -1.1431 -2.6461, -0.3617 -2.806, 0.0895 -2.5905" stroke-width="0.305"/>
    <path d="M 2.68 -1.1261 C 2.835 -1.6014, 2.4905 -2.0974, 1.991 -2.1181" stroke-width="0.305"/>
    <path d="M -1.491644 -0.746054 C -1.281231 -0.547864 -1.029542 -0.408346 -0.780288 -0.267618  L -0.700687 -0.435323  C -0.924030 -0.576356 -1.156460 -0.707263 -1.343260 -0.898430  Z" fill="black" stroke="black" stroke-width="0.005"/>
    <path d="M 0.819666 0.082559 C 1.011107 0.089090 1.201768 0.069290 1.392418 0.056698  L 1.366113 -0.133662  C 1.184390 -0.113076 1.003033 -0.085774 0.819666 -0.082559  Z" fill="black" stroke="black" stroke-width="0.005"/>
    <path d="M 0.433064 -1.324575 C 0.344792 -1.154528 0.280023 -0.974203 0.208841 -0.796903  L 0.363567 -0.739248  C 0.439711 -0.905543 0.509815 -1.075122 0.602257 -1.233457  Z" fill="black" stroke="black" stroke-width="0.005"/>
    <path d="M -0.021681 0.824620 C -0.001595 1.112902 0.090282 1.385927 0.178257 1.658259  L 0.372854 1.572420  C 0.287438 1.322458 0.189428 1.074703 0.163264 0.808587  Z" fill="black" stroke="black" stroke-width="0.005"/>
    <path d="M -1.7524 4.5381 C -1.9225 4.5195, -2.2423 4.584, -2.3919 4.6671" stroke-width="0.2063"/>
    <path d="M -5.3234 2.7625 C -5.3083 2.592, -5.3793 2.2737, -5.4655 2.1258" stroke-width="0.2063"/>
    <path d="M -3.6213 -0.8441 C -3.4506 -0.8325, -3.1337 -0.91, -2.9876 -0.9991" stroke-width="0.2063"/>
    <path d="M 1.4711 -1.2818 C 1.5226 -1.1875, 1.6444 -1.0121, 1.7148 -0.9309" stroke-width="0.1872"/>
    <path d="M -0.1069 3.1484 C -0.2415 3.2542, -0.4247 3.5241, -0.4735 3.6881" stroke-width="0.2063"/>
    <path d="M -3.9003 4.3792 C -4.0089 4.2469, -4.2824 4.0691, -4.4474 4.0238" stroke-width="0.2063"/>
    <path d="M -5.2085 0.6118 C -5.0784 0.5006, -4.9064 0.2234, -4.8644 0.0575" stroke-width="0.2063"/>
  </g>
</svg>
