<?xml version="1.0" encoding="utf-8" ?>
<svg xmlns="http://www.w3.org/2000/svg" xmlns:ev="http://www.w3.org/2001/xml-events" xmlns:xlink="http://www.w3.org/1999/xlink" baseProfile="full" version="1.1" viewBox="-2.5273777645204474 -6.152814142322848 10.151587997465914 9.974484212444786">
  <defs/>
  <g stroke="none">
    <path d="M 0.974106 1.903694 C 1.587821 1.642461 2.204246 1.387674 2.817616 1.125625  L 2.744765 0.940780  C 2.117556 1.167036 1.492723 1.399822 0.864868 1.624289  Z" fill="black" stroke="black" stroke-width="0.005"/>
    <path d="M 1.254645 0.573127 C 1.522338 1.209540 1.913342 1.783410 2.340859 2.321756  L 2.767399 1.899781  C 2.320344 1.455070 1.929308 0.955696 1.613411 0.408619  Z" fill="white" stroke="white" stroke-width="0"/>
    <path d="M 1.344336 0.532000 C 1.623758 1.146550 2.015787 1.700612 2.447494 2.216262  L 2.660764 2.005275  C 2.219304 1.536346 1.827234 1.019686 1.523720 0.449746  Z" fill="black" stroke="black" stroke-width="0.005"/>
    <path d="M -0.206145 0.133737 C -0.736697 0.179737 -0.991880 -0.080589 -1.190020 -0.528684  L -1.484550 -0.471656  C -1.235278 0.088819 -0.804138 0.427943 -0.162388 0.289927  Z" fill="black" stroke="black" stroke-width="0.005"/>
    <path d="M -0.361102 -0.157444 C -0.989104 0.227065 -1.060042 0.832252 -0.826506 1.475155  L -0.332550 1.134557  C -0.480409 0.744706 -0.548650 0.452772 -0.199411 0.123797  Z" fill="white" stroke="white" stroke-width="0"/>
    <path d="M -0.320679 -0.087133 C -0.868640 0.274296 -0.928514 0.819550 -0.703017 1.390006  L -0.456039 1.219706  C -0.637127 0.764453 -0.644236 0.399985 -0.239834 0.053487  Z" fill="black" stroke="black" stroke-width="0.005"/>
    <path d="M 0.746089 -1.402621 C 0.551823 -2.018423 0.457609 -2.660125 0.432055 -3.303653  L 0.132088 -3.299181  C 0.197823 -2.629894 0.318764 -1.962029 0.561745 -1.332181  Z" fill="black" stroke="black" stroke-width="0.005"/>
    <path d="M -0.492262 -1.618079 C 0.099314 -1.926876 0.698508 -2.220727 1.291193 -2.527377  L 1.129344 -2.890289  C 0.504953 -2.653513 -0.113888 -2.402520 -0.738139 -2.165385  Z" fill="white" stroke="white" stroke-width="0"/>
    <path d="M -0.553731 -1.754906 C 0.046207 -2.045871 0.649968 -2.328854 1.250731 -2.618105  L 1.169807 -2.799561  C 0.553186 -2.545255 -0.060390 -2.283682 -0.676670 -2.028559  Z" fill="black" stroke="black" stroke-width="0.005"/>
    <path d="M 2.942918 -4.669587 C 2.427021 -4.234290 1.986773 -3.719188 1.602322 -3.166689  L 1.768221 -3.057361  C 2.166386 -3.563754 2.606842 -4.042139 3.123788 -4.430242  Z" fill="black" stroke="black" stroke-width="0.005"/>
    <path d="M 1.198208 -3.828905 C 1.824572 -3.738748 2.425598 -3.526078 3.005255 -3.278429  L 3.202378 -3.623455  C 2.605457 -3.965786 1.971762 -4.244013 1.304495 -4.419416  Z" fill="white" stroke="white" stroke-width="0"/>
    <path d="M 1.224779 -3.976533 C 1.861332 -3.864022 2.470465 -3.636404 3.054536 -3.364686  L 3.153097 -3.537198  C 2.560418 -3.856243 1.934873 -4.116707 1.277923 -4.271788  Z" fill="black" stroke="black" stroke-width="0.005"/>
    <path d="M 3.714696 -3.206793 C 4.361049 -3.201203 5.001457 -3.095038 5.623280 -2.924529  L 5.709479 -3.211878  C 5.051695 -3.352203 4.378948 -3.441026 3.704856 -3.405232  Z" fill="black" stroke="black" stroke-width="0.005"/>
    <path d="M 4.000268 -4.122569 C 4.297681 -3.563993 4.481288 -2.953462 4.624049 -2.339498  L 5.018874 -2.384365  C 4.942293 -3.068207 4.792267 -3.743835 4.539451 -4.385782  Z" fill="white" stroke="white" stroke-width="0"/>
    <path d="M 4.135064 -4.188372 C 4.420465 -3.608368 4.596803 -2.982463 4.722755 -2.350715  L 4.920168 -2.373149  C 4.827308 -3.039808 4.667767 -3.698363 4.404655 -4.319979  Z" fill="black" stroke="black" stroke-width="0.005"/>
    <path d="M 6.168398 -0.118632 C 5.908950 -0.741786 5.550600 -1.316880 5.139766 -1.850052  L 4.985496 -1.724849  C 5.348235 -1.192504 5.671515 -0.628286 5.885650 -0.018364  Z" fill="black" stroke="black" stroke-width="0.005"/>
    <path d="M 5.092724 -0.186742 C 5.614344 -0.638421 6.040926 -1.185713 6.423986 -1.756219  L 5.893022 -2.035642  C 5.603604 -1.474225 5.246791 -0.948764 4.823211 -0.478739  Z" fill="white" stroke="white" stroke-width="0"/>
    <path d="M 5.025346 -0.259742 C 5.522988 -0.715847 5.930738 -1.258267 6.291245 -1.826075  L 6.025763 -1.965787  C 5.711987 -1.402509 5.339266 -0.871028 4.890589 -0.405740  Z" fill="black" stroke="black" stroke-width="0.005"/>
    <path d="M 4.540958 0.176067 C 4.340703 0.790641 4.046348 1.369215 3.696249 1.910665  L 3.944224 2.079510  C 4.276389 1.494670 4.563961 0.880031 4.733126 0.226530  Z" fill="black" stroke="black" stroke-width="0.005"/>
    <path d="M 3.363510 1.171499 C 4.036132 1.325382 4.729726 1.346095 5.416327 1.317980  L 5.327974 0.724521  C 4.704042 0.822807 4.069289 0.845477 3.439802 0.781525  Z" fill="white" stroke="white" stroke-width="0"/>
    <path d="M 3.382583 1.074005 C 4.044608 1.205930 4.723141 1.214330 5.394239 1.169615  L 5.350062 0.872885  C 4.710235 0.952621 4.061225 0.966015 3.420729 0.879019  Z" fill="black" stroke="black" stroke-width="0.005"/>
    <path d="M 0.136070 -0.013338 C 0.046510 -0.010953 -0.039708 -0.038083 -0.126944 -0.051635  L -0.135550 -0.020176  C -0.045429 -0.008122 0.043921 0.018042 0.136070 0.013338  Z" fill="black" stroke="black" stroke-width="0.005"/>
    <path d="M -0.037805 0.134720 C 0.000380 0.055147 0.063076 -0.008125 0.114337 -0.078446  L 0.076254 -0.115810  C 0.018738 -0.043721 -0.050666 0.020348 -0.094771 0.102943  Z" fill="white" stroke="white" stroke-width="0"/>
    <path d="M -0.052047 0.126776 C -0.012365 0.046456 0.051996 -0.017023 0.104816 -0.087787  L 0.085774 -0.106469  C 0.029827 -0.034821 -0.037889 0.029057 -0.080529 0.110887  Z" fill="black" stroke="black" stroke-width="0.005"/>
    <path d="M 0.403542 -0.109188 C 0.325658 -0.126312 0.245693 -0.128194 0.166832 -0.137018  L 0.165717 -0.112998  C 0.243175 -0.103363 0.321797 -0.100535 0.398178 -0.082730  Z" fill="black" stroke="black" stroke-width="0.005"/>
    <path d="M 0.326592 -0.233635 C 0.286582 -0.166939 0.234344 -0.108987 0.187754 -0.047167  L 0.223607 -0.015114  C 0.273319 -0.077802 0.328789 -0.136346 0.371878 -0.204233  Z" fill="white" stroke="white" stroke-width="0"/>
    <path d="M 0.337914 -0.226284 C 0.297130 -0.159293 0.244087 -0.101191 0.196717 -0.039154  L 0.214644 -0.023127  C 0.263574 -0.085598 0.318234 -0.143997 0.360556 -0.211584  Z" fill="black" stroke="black" stroke-width="0.005"/>
    <path d="M 1.143868 -0.074222 C 0.940207 -0.289770 0.703702 -0.287113 0.436864 -0.316000  L 0.449413 -0.246873  C 0.680059 -0.208510 0.891955 -0.200621 1.060153 -0.005382  Z" fill="black" stroke="black" stroke-width="0.005"/>
    <path d="M 0.551795 -0.061846 C 0.801912 -0.244280 0.851518 -0.489285 0.907961 -0.770295  L 0.692425 -0.747206  C 0.649080 -0.537637 0.656501 -0.332825 0.470684 -0.176586  Z" fill="white" stroke="white" stroke-width="0"/>
    <path d="M 0.531517 -0.090531 C 0.769945 -0.266663 0.793411 -0.503192 0.854077 -0.764523  L 0.746309 -0.752978  C 0.703574 -0.523056 0.689205 -0.312879 0.490962 -0.147901  Z" fill="black" stroke="black" stroke-width="0.005"/>
  </g>
  <g fill="none" stroke="black">
    <path d="M 2.5541 2.1108 C 2.9058 2.4662, 3.5388 2.4084, 3.8202 1.9951" stroke-width="0.305"/>
    <path d="M 0.9195 1.764 C 0.4538 1.9461, -0.2957 1.7165, -0.5795 1.3049" stroke-width="0.305"/>
    <path d="M -1.3373 -0.5002 C -1.4323 -0.9911, -1.0713 -1.6868, -0.6152 -1.8917" stroke-width="0.305"/>
    <path d="M 1.2514 -4.1242 C 0.7593 -4.2127, 0.2746 -3.8014, 0.2821 -3.3014" stroke-width="0.305"/>
    <path d="M 3.0334 -4.5499 C 3.4323 -4.8514, 4.0505 -4.7035, 4.2699 -4.2542" stroke-width="0.305"/>
    <path d="M 6.1585 -1.8959 C 6.3914 -2.3384, 6.1453 -2.9245, 5.6664 -3.0682" stroke-width="0.305"/>
    <path d="M 6.027 -0.0685 C 6.1941 0.4027, 5.8667 0.9476, 5.3722 1.0213" stroke-width="0.305"/>
    <path d="M 3.4017 0.9765 C 3.2424 0.9454, 2.9322 0.9737, 2.7812 1.0332" stroke-width="0.2037"/>
    <path d="M -0.239834 0.053487 C -0.227908 0.006935 -0.170284 0.001997 -0.135550 -0.020176  L -0.126944 -0.051635  C -0.188870 -0.065988 -0.250169 -0.116408 -0.320679 -0.087133  Z" fill="black" stroke="black" stroke-width="0.005"/>
    <path d="M 0.136070 0.013338 C 0.168635 0.016830 0.189628 -0.010390 0.214644 -0.023127  L 0.196717 -0.039154  C 0.177343 -0.030243 0.160372 -0.010549 0.136070 -0.013338  Z" fill="black" stroke="black" stroke-width="0.005"/>
    <path d="M 0.360556 -0.211584 C 0.383015 -0.239233 0.421014 -0.236470 0.449413 -0.246873  L 0.436864 -0.316000  C 0.403764 -0.288060 0.352133 -0.274725 0.337914 -0.226284  Z" fill="black" stroke="black" stroke-width="0.005"/>
    <path d="M 1.060153 -0.005382 C 1.180096 0.160265 1.256329 0.349700 1.344336 0.532000  L 1.523720 0.449746  C 1.405855 0.269069 1.295239 0.081729 1.143868 -0.074222  Z" fill="black" stroke="black" stroke-width="0.005"/>
    <path d="M 4.637 0.2013 C 4.6783 0.0443, 4.8387 -0.2227, 4.958 -0.3327" stroke-width="0.2037"/>
    <path d="M 3.7098 -3.306 C 3.5477 -3.298, 3.2447 -3.3704, 3.1038 -3.4509" stroke-width="0.2037"/>
    <path d="M 0.561745 -1.332181 C 0.651934 -1.148958 0.692447 -0.948212 0.746309 -0.752978  L 0.854077 -0.764523  C 0.828708 -0.978780 0.810979 -1.194946 0.746089 -1.402621  Z" fill="black" stroke="black" stroke-width="0.005"/>
    <path d="M 0.490962 -0.147901 C 0.470839 -0.118740 0.432346 -0.120866 0.403542 -0.109188  L 0.398178 -0.082730  C 0.441405 -0.083561 0.489688 -0.061954 0.531517 -0.090531  Z" fill="black" stroke="black" stroke-width="0.005"/>
    <path d="M 0.166832 -0.137018 C 0.134630 -0.142937 0.111674 -0.117314 0.085774 -0.106469  L 0.104816 -0.087787  C 0.124245 -0.096484 0.141427 -0.115956 0.165717 -0.112998  Z" fill="black" stroke="black" stroke-width="0.005"/>
    <path d="M -0.080529 0.110887 C -0.116034 0.145259 -0.170130 0.128271 -0.206145 0.133737  L -0.162388 0.289927  C -0.124809 0.238611 -0.052599 0.202521 -0.052047 0.126776  Z" fill="black" stroke="black" stroke-width="0.005"/>
    <path d="M 1.2103 -2.7088 C 1.3585 -2.7749, 1.596 -2.9765, 1.6853 -3.112" stroke-width="0.2037"/>
    <path d="M 4.8215 -2.3619 C 4.8398 -2.2007, 4.9604 -1.9135, 5.0626 -1.7875" stroke-width="0.2037"/>
  </g>
</svg>
