<?xml version="1.0" encoding="utf-8" ?>
<svg xmlns="http://www.w3.org/2000/svg" xmlns:ev="http://www.w3.org/2001/xml-events" xmlns:xlink="http://www.w3.org/1999/xlink" baseProfile="full" version="1.1" viewBox="-3.127333066669814 -2.6973338329557697 5.9567419960969765 5.664518292245282">
  <defs/>
  <g stroke="none">
    <path d="M -0.631916 -1.051561 C -1.013036 -0.504423 -1.009916 0.109399 -0.764533 0.705270  L -0.608120 0.614965  C -0.739426 0.086290 -0.766236 -0.394246 -0.408202 -0.851681  Z" fill="black" stroke="black" stroke-width="0.005"/>
    <path d="M -1.392110 0.817641 C -1.137951 0.360641 -0.715265 0.220137 -0.231944 0.143052  L -0.170171 -0.212846  C -0.869410 -0.260792 -1.493423 -0.049662 -1.921549 0.535339  Z" fill="white" stroke="white" stroke-width="0"/>
    <path d="M -1.524470 0.747066 C -1.218398 0.253351 -0.758046 0.112958 -0.216500 0.054077  L -0.185614 -0.123872  C -0.829545 -0.148933 -1.406860 0.059622 -1.789190 0.605915  Z" fill="black" stroke="black" stroke-width="0.005"/>
    <path d="M 0.204063 0.090305 C 0.777776 0.173735 1.102907 0.522142 1.374257 0.996762  L 1.659215 0.902960  C 1.341757 0.344539 0.871920 -0.053059 0.204063 -0.090305  Z" fill="black" stroke="black" stroke-width="0.005"/>
    <path d="M 0.420536 -0.689989 C 0.689229 -0.241380 0.599567 0.194928 0.424664 0.652040  L 0.701994 0.883485  C 1.093136 0.301900 1.222299 -0.344076 0.929736 -1.007345  Z" fill="white" stroke="white" stroke-width="0"/>
    <path d="M 0.547836 -0.769328 C 0.822369 -0.257404 0.713777 0.211469 0.493997 0.709901  L 0.632662 0.825624  C 0.976331 0.280494 1.084374 -0.323753 0.802436 -0.928006  Z" fill="black" stroke="black" stroke-width="0.005"/>
    <path d="M -1.179015 1.909878 C -0.514620 1.966368 0.015406 1.656755 0.408753 1.146311  L 0.252341 1.056007  C -0.139853 1.434058 -0.542604 1.697545 -1.117771 1.616196  Z" fill="black" stroke="black" stroke-width="0.005"/>
    <path d="M 0.819859 1.633624 C 0.297005 1.642015 -0.036018 1.346211 -0.344436 0.966185  L -0.683539 1.090637  C -0.375443 1.720169 0.119408 2.155016 0.840097 2.233282  Z" fill="white" stroke="white" stroke-width="0"/>
    <path d="M 0.824918 1.783538 C 0.244313 1.765330 -0.107447 1.436850 -0.429212 0.997298  L -0.598764 1.059524  C -0.298502 1.629715 0.170769 2.025407 0.835038 2.083368  Z" fill="black" stroke="black" stroke-width="0.005"/>
  </g>
  <g fill="none" stroke="black">
    <path d="M -1.6568 0.6765 C -1.8921 1.1177, -1.6379 1.661, -1.1484 1.763" stroke-width="0.305"/>
    <path d="M 0.6751 -0.8487 C 0.4107 -1.273, -0.1869 -1.3245, -0.5201 -0.9516" stroke-width="0.305"/>
    <path d="M 0.83 1.9335 C 1.3297 1.9166, 1.6731 1.4248, 1.5167 0.9499" stroke-width="0.305"/>
    <path d="M 0.2041 0.0 C 0.102 0.0, -0.1005 -0.0174, -0.2011 -0.0349" stroke-width="0.18560000000000001"/>
    <path d="M 0.3305 1.1012 C 0.3816 1.0128, 0.498 0.8461, 0.5633 0.7678" stroke-width="0.18560000000000001"/>
    <path d="M -0.6863 0.6601 C -0.6353 0.7485, -0.5491 0.9326, -0.514 1.0284" stroke-width="0.18560000000000001"/>
  </g>
</svg>
