<?xml version="1.0" encoding="utf-8" ?>
<svg xmlns="http://www.w3.org/2000/svg" xmlns:ev="http://www.w3.org/2001/xml-events" xmlns:xlink="http://www.w3.org/1999/xlink" baseProfile="full" version="1.1" viewBox="-2.9692860588442804 -2.7927847408072446 5.651893765914867 5.904067305553022">
  <defs/>
  <g stroke="none">
    <path d="M 1.153993 -0.794402 C 1.295190 -0.229652 1.075536 0.201287 0.742008 0.633793  L 0.847007 0.776647  C 1.311833 0.330221 1.563708 -0.230459 1.439857 -0.885405  Z" fill="black" stroke="black" stroke-width="0.005"/>
    <path d="M 1.941183 1.099779 C 1.800921 0.385369 1.305311 -0.012465 0.621940 -0.157826  L 0.588047 0.189582  C 0.996478 0.391022 1.310515 0.630372 1.341692 1.124481  Z" fill="white" stroke="white" stroke-width="0"/>
    <path d="M 1.791311 1.105955 C 1.678598 0.454282 1.228939 0.079990 0.613467 -0.070974  L 0.596520 0.102730  C 1.074432 0.306027 1.424575 0.560404 1.491565 1.118306  Z" fill="black" stroke="black" stroke-width="0.005"/>
    <path d="M 0.757294 1.703491 C 0.228406 1.513703 0.058571 1.115629 -0.032963 0.604403  L -0.206069 0.582163  C -0.196243 1.215803 0.068278 1.737642 0.678371 1.992923  Z" fill="black" stroke="black" stroke-width="0.005"/>
    <path d="M 0.394335 0.797607 C -0.061359 1.053966 -0.495637 1.004505 -0.955620 0.818466  L -1.260609 1.335169  C -0.597037 1.547162 0.064543 1.529226 0.625983 1.066062  Z" fill="white" stroke="white" stroke-width="0"/>
    <path d="M 0.452247 0.864721 C -0.037698 1.176969 -0.513969 1.127305 -1.031867 0.947641  L -1.184362 1.205993  C -0.577490 1.416603 0.038807 1.407628 0.568071 0.998948  Z" fill="black" stroke="black" stroke-width="0.005"/>
    <path d="M -1.302283 -0.191502 C -0.981372 -0.604765 -0.636959 -0.565099 -0.205172 -0.378179  L -0.093822 -0.500002  C -0.601845 -0.841047 -1.132065 -0.846210 -1.554622 -0.353752  Z" fill="black" stroke="black" stroke-width="0.005"/>
    <path d="M -0.048873 -1.735451 C -0.685121 -1.379301 -0.807038 -0.799007 -0.538260 -0.162344  L -0.251065 -0.325063  C -0.298600 -0.730312 -0.253286 -0.996882 0.154835 -1.171091  Z" fill="white" stroke="white" stroke-width="0"/>
    <path d="M 0.002054 -1.594361 C -0.572274 -1.292341 -0.685551 -0.774336 -0.466461 -0.203024  L -0.322864 -0.284384  C -0.408725 -0.746992 -0.370541 -1.091572 0.103908 -1.312181  Z" fill="black" stroke="black" stroke-width="0.005"/>
    <path d="M 0.278716 -0.033168 C 0.097112 -0.027922 -0.071063 -0.094154 -0.242133 -0.140933  L -0.265599 -0.089150  C -0.087044 -0.036827 0.087959 0.035783 0.278716 0.033168  Z" fill="black" stroke="black" stroke-width="0.005"/>
    <path d="M 0.002473 0.286490 C 0.047357 0.096376 0.013260 -0.094459 0.000218 -0.284455  L -0.111209 -0.261815  C -0.105633 -0.088885 -0.080922 0.085793 -0.126854 0.256887  Z" fill="white" stroke="white" stroke-width="0"/>
    <path d="M -0.029859 0.279090 C 0.015254 0.093726 -0.016476 -0.093067 -0.027639 -0.278795  L -0.083352 -0.267475  C -0.075923 -0.090280 -0.048887 0.088433 -0.094522 0.264288  Z" fill="black" stroke="black" stroke-width="0.005"/>
  </g>
  <g fill="none" stroke="black">
    <path d="M 1.2969 -0.8399 C 1.1453 -1.3163, 0.5233 -1.623, 0.053 -1.4533" stroke-width="0.305"/>
    <path d="M 1.6414 1.1121 C 1.662 1.6117, 1.2002 1.9797, 0.7178 1.8482" stroke-width="0.305"/>
    <path d="M -1.4285 -0.2726 C -1.6989 0.1479, -1.5387 0.8227, -1.1081 1.0768" stroke-width="0.305"/>
    <path d="M 0.5102 0.9318 C 0.579 0.8724, 0.7212 0.7591, 0.7945 0.7052" stroke-width="0.18230000000000002"/>
    <path d="M -0.466461 -0.203024 C -0.418246 -0.134690 -0.332242 -0.124227 -0.265599 -0.089150  L -0.242133 -0.140933  C -0.270107 -0.187182 -0.320766 -0.225923 -0.322864 -0.284384  Z" fill="black" stroke="black" stroke-width="0.005"/>
    <path d="M 0.278716 0.033168 C 0.385938 0.050363 0.490773 0.079548 0.596520 0.102730  L 0.613467 -0.070974  C 0.501829 -0.059121 0.389205 -0.053962 0.278716 -0.033168  Z" fill="black" stroke="black" stroke-width="0.005"/>
    <path d="M -0.032963 0.604403 C -0.040023 0.496081 -0.031669 0.387486 -0.029859 0.279090  L -0.094522 0.264288  C -0.131763 0.370059 -0.175094 0.474050 -0.206069 0.582163  Z" fill="black" stroke="black" stroke-width="0.005"/>
    <path d="M -0.027639 -0.278795 C -0.014396 -0.361140 -0.070079 -0.428266 -0.093822 -0.500002  L -0.205172 -0.378179  C -0.166101 -0.343927 -0.107231 -0.321456 -0.083352 -0.267475  Z" fill="black" stroke="black" stroke-width="0.005"/>
  </g>
</svg>
