<?xml version="1.0" encoding="utf-8" ?>
<svg xmlns="http://www.w3.org/2000/svg" xmlns:ev="http://www.w3.org/2001/xml-events" xmlns:xlink="http://www.w3.org/1999/xlink" baseProfile="full" version="1.1" viewBox="-4.133159967383828 -2.80753966115892 8.074411869955748 8.228389687055516">
  <defs/>
  <g stroke="none">
    <path d="M 0.117196 3.809643 C -0.425575 3.500816 -0.852378 3.038421 -1.199391 2.526503  L -1.371936 2.614281  C -1.031945 3.190928 -0.593847 3.706131 -0.026679 4.072893  Z" fill="black" stroke="black" stroke-width="0.005"/>
    <path d="M -1.823348 3.789867 C -1.127176 3.702319 -0.485916 3.419483 0.090567 3.030518  L -0.137011 2.717284  C -0.676819 2.968535 -1.233289 3.191641 -1.840328 3.190107  Z" fill="white" stroke="white" stroke-width="0"/>
    <path d="M -1.827593 3.639927 C -1.155693 3.571055 -0.531281 3.311295 0.033673 2.952209  L -0.080116 2.795592  C -0.621903 3.093830 -1.212248 3.311689 -1.836083 3.340047  Z" fill="black" stroke="black" stroke-width="0.005"/>
    <path d="M -2.499077 2.563283 C -2.373091 1.951644 -2.065215 1.402842 -1.685585 0.914622  L -1.822387 0.777646  C -2.265748 1.279191 -2.620355 1.855054 -2.793902 2.507798  Z" fill="black" stroke="black" stroke-width="0.005"/>
    <path d="M -1.538735 1.983960 C -1.990683 1.577825 -2.278906 1.058556 -2.514772 0.510119  L -3.079930 0.711605  C -2.754852 1.324774 -2.340431 1.892888 -1.766313 2.297194  Z" fill="white" stroke="white" stroke-width="0"/>
    <path d="M -1.595630 2.062269 C -2.068152 1.654501 -2.413457 1.130526 -2.656061 0.560491  L -2.938640 0.661233  C -2.640179 1.259514 -2.250122 1.813644 -1.709419 2.218886  Z" fill="black" stroke="black" stroke-width="0.005"/>
    <path d="M -2.122190 -0.310088 C -1.501555 -0.379274 -0.884475 -0.256056 -0.302838 -0.045875  L -0.214840 -0.218309  C -0.828844 -0.484985 -1.486102 -0.644285 -2.160527 -0.607628  Z" fill="black" stroke="black" stroke-width="0.005"/>
    <path d="M -0.540633 -1.434711 C -1.052389 -0.954684 -1.404931 -0.348941 -1.642689 0.304587  L -1.274460 0.424231  C -0.985428 -0.096327 -0.666372 -0.603908 -0.174366 -0.959476  Z" fill="white" stroke="white" stroke-width="0"/>
    <path d="M -0.449067 -1.315902 C -0.952163 -0.865251 -1.304639 -0.288080 -1.550632 0.334498  L -1.366517 0.394320  C -1.103503 -0.165413 -0.753958 -0.688661 -0.265933 -1.078285  Z" fill="black" stroke="black" stroke-width="0.005"/>
    <path d="M 0.727012 -0.839567 C 0.984599 -0.270688 1.058100 0.354266 1.037942 0.972386  L 1.229128 1.002792  C 1.293015 0.336433 1.241414 -0.337884 0.998143 -0.967973  Z" fill="black" stroke="black" stroke-width="0.005"/>
    <path d="M 0.290596 0.193589 C 0.894950 0.256512 1.433345 0.507196 1.946528 0.812252  L 2.285320 0.317055  C 1.661915 0.012067 0.992713 -0.203957 0.290596 -0.193589  Z" fill="white" stroke="white" stroke-width="0"/>
    <path d="M 0.290596 0.096795 C 0.912554 0.148944 1.499897 0.369884 2.031226 0.688453  L 2.200622 0.440854  C 1.607501 0.132267 0.966229 -0.086765 0.290596 -0.096795  Z" fill="black" stroke="black" stroke-width="0.005"/>
    <path d="M 2.111028 1.706567 C 1.649591 2.127340 1.077937 2.390365 0.483841 2.562203  L 0.514004 2.753428  C 1.167491 2.608272 1.792858 2.350821 2.316933 1.924748  Z" fill="black" stroke="black" stroke-width="0.005"/>
    <path d="M 1.492559 3.546022 C 1.624425 2.856869 1.553591 2.159594 1.361807 1.491129  L 0.993578 1.610774  C 1.065723 2.201803 1.105950 2.799981 0.916906 3.376836  Z" fill="white" stroke="white" stroke-width="0"/>
    <path d="M 1.348646 3.503725 C 1.490773 2.843428 1.436680 2.169307 1.269750 1.521040  L 1.085635 1.580862  C 1.201855 2.188293 1.226625 2.817066 1.060819 3.419132  Z" fill="black" stroke="black" stroke-width="0.005"/>
  </g>
  <g fill="none" stroke="black">
    <path d="M 0.0453 3.9413 C 0.484 4.1811, 1.0637 3.9411, 1.2047 3.4614" stroke-width="0.305"/>
    <path d="M -2.6465 2.5355 C -2.739 3.0269, -2.3316 3.5041, -1.8318 3.49" stroke-width="0.305"/>
    <path d="M -2.1414 -0.4589 C -2.6373 -0.395, -2.9653 0.1399, -2.7974 0.6109" stroke-width="0.305"/>
    <path d="M 0.8626 -0.9038 C 0.6486 -1.3557, 0.0385 -1.5023, -0.3575 -1.1971" stroke-width="0.305"/>
    <path d="M 2.214 1.8157 C 2.5776 1.4725, 2.5286 0.847, 2.1159 0.5647" stroke-width="0.305"/>
    <path d="M 0.2906 0.0 C 0.1453 0.0, -0.1294 -0.066, -0.2588 -0.1321" stroke-width="0.1986"/>
    <path d="M -1.6525 2.1406 C -1.535 2.226, -1.3515 2.4409, -1.2857 2.5704" stroke-width="0.1986"/>
    <path d="M 1.1777 1.551 C 1.1328 1.4128, 1.1107 1.1311, 1.1335 0.9876" stroke-width="0.1986"/>
    <path d="M -1.4586 0.3644 C -1.5035 0.5026, -1.6512 0.7435, -1.754 0.8461" stroke-width="0.1986"/>
    <path d="M -0.0232 2.8739 C 0.0943 2.7885, 0.3554 2.6805, 0.4989 2.6578" stroke-width="0.1986"/>
  </g>
</svg>
