<?xml version="1.0" encoding="utf-8" ?>
<svg xmlns="http://www.w3.org/2000/svg" xmlns:ev="http://www.w3.org/2001/xml-events" xmlns:xlink="http://www.w3.org/1999/xlink" baseProfile="full" version="1.1" viewBox="-3.263488424501283 -4.431651112764095 7.424783420440219 7.421160096996362">
  <defs/>
  <g stroke="none">
    <path d="M -1.499624 -0.706202 C -1.084361 -1.158842 -0.543962 -1.436183 0.039806 -1.603141  L 0.015135 -1.788378  C -0.635897 -1.649228 -1.247275 -1.374572 -1.727641 -0.901159  Z" fill="black" stroke="black" stroke-width="0.005"/>
    <path d="M -0.886577 -2.604910 C -1.058205 -1.910589 -0.905363 -1.239642 -0.561874 -0.629616  L -0.254728 -0.834793  C -0.423192 -1.349717 -0.530539 -1.863449 -0.326203 -2.390479  Z" fill="white" stroke="white" stroke-width="0"/>
    <path d="M -0.746483 -2.551302 C -0.921738 -1.902316 -0.791248 -1.263474 -0.485087 -0.680910  L -0.331515 -0.783499  C -0.535891 -1.328769 -0.663290 -1.869437 -0.466296 -2.444086  Z" fill="black" stroke="black" stroke-width="0.005"/>
    <path d="M 0.482891 -2.733919 C 0.968314 -2.367178 1.170143 -1.846458 1.311760 -1.280118  L 1.498603 -1.283462  C 1.418447 -1.937373 1.164246 -2.539540 0.655394 -2.979362  Z" fill="black" stroke="black" stroke-width="0.005"/>
    <path d="M 0.574383 -1.669987 C 1.114017 -1.842083 1.624779 -1.747340 2.135763 -1.553766  L 2.412821 -2.085968  C 1.743943 -2.285738 1.052947 -2.318541 0.408358 -2.004833  Z" fill="white" stroke="white" stroke-width="0"/>
    <path d="M 0.532877 -1.753699 C 1.103125 -1.965090 1.650141 -1.871990 2.205027 -1.686816  L 2.343556 -1.952917  C 1.718236 -2.156146 1.064393 -2.196966 0.449864 -1.921121  Z" fill="black" stroke="black" stroke-width="0.005"/>
    <path d="M 0.827757 0.117332 C 1.499317 0.165747 2.096165 -0.100534 2.608629 -0.511310  L 2.384503 -0.710729  C 1.932264 -0.341932 1.455389 -0.064338 0.848167 -0.066223  Z" fill="black" stroke="black" stroke-width="0.005"/>
    <path d="M 1.734106 1.175511 C 1.927261 0.495922 1.872423 -0.201157 1.668709 -0.868082  L 1.317086 -0.741405  C 1.386559 -0.168753 1.413900 0.406194 1.178072 0.950063  Z" fill="white" stroke="white" stroke-width="0"/>
    <path d="M 1.595097 1.119149 C 1.794351 0.474813 1.756854 -0.194375 1.580803 -0.836412  L 1.404992 -0.773074  C 1.525401 -0.177958 1.527851 0.429448 1.317081 1.006425  Z" fill="black" stroke="black" stroke-width="0.005"/>
    <path d="M -0.533118 0.361040 C -0.726083 0.991264 -0.436695 1.470099 0.087154 1.799565  L 0.186593 1.516525  C -0.234915 1.250379 -0.472024 0.951523 -0.375840 0.420209  Z" fill="black" stroke="black" stroke-width="0.005"/>
    <path d="M -0.262573 0.470849 C -0.661772 0.752641 -0.956368 0.631132 -1.329511 0.422945  L -1.740572 0.860013  C -1.138497 1.192489 -0.521741 1.227975 -0.012756 0.695663  Z" fill="white" stroke="white" stroke-width="0"/>
    <path d="M -0.200119 0.527052 C -0.627571 0.856946 -1.002016 0.783962 -1.432276 0.532212  L -1.637807 0.750746  C -1.104234 1.064218 -0.545941 1.100795 -0.075211 0.639459  Z" fill="black" stroke="black" stroke-width="0.005"/>
    <path d="M -0.006335 0.378682 C 0.027908 0.120296 -0.062201 -0.114878 -0.132946 -0.355606  L -0.213933 -0.313628  C -0.143329 -0.090226 -0.055279 0.128223 -0.080414 0.370100  Z" fill="black" stroke="black" stroke-width="0.005"/>
    <path d="M 0.376895 -0.091221 C 0.107342 -0.087250 -0.118936 0.039870 -0.354143 0.148976  L -0.270725 0.272616  C -0.061168 0.187846 0.142640 0.085584 0.376895 0.091221  Z" fill="white" stroke="white" stroke-width="0"/>
    <path d="M 0.376895 -0.045610 C 0.116184 -0.043958 -0.104491 0.076888 -0.333289 0.179886  L -0.291580 0.241706  C -0.075606 0.150876 0.133831 0.042466 0.376895 0.045610  Z" fill="black" stroke="black" stroke-width="0.005"/>
  </g>
  <g fill="none" stroke="black">
    <path d="M -1.6136 -0.8037 C -1.9386 -0.4237, -1.8993 0.2989, -1.535 0.6415" stroke-width="0.305"/>
    <path d="M -0.6064 -2.4977 C -0.4277 -2.9647, 0.1601 -3.1441, 0.5691 -2.8566" stroke-width="0.305"/>
    <path d="M 2.4966 -0.611 C 2.8289 -0.9846, 2.7178 -1.589, 2.2743 -1.8199" stroke-width="0.305"/>
    <path d="M 1.4561 1.0628 C 1.2682 1.5261, 0.6086 1.8238, 0.1369 1.658" stroke-width="0.305"/>
    <path d="M -0.375840 0.420209 C -0.375075 0.350443 -0.320852 0.299652 -0.291580 0.241706  L -0.333289 0.179886  C -0.400279 0.237211 -0.494041 0.272456 -0.533118 0.361040  Z" fill="black" stroke="black" stroke-width="0.005"/>
    <path d="M 0.376895 0.045610 C 0.528660 0.060239 0.677816 0.092073 0.827757 0.117332  L 0.848167 -0.066223  C 0.691028 -0.061720 0.533305 -0.063661 0.376895 -0.045610  Z" fill="black" stroke="black" stroke-width="0.005"/>
    <path d="M 0.4914 -1.8374 C 0.3813 -1.7828, 0.1493 -1.712, 0.0275 -1.6958" stroke-width="0.19190000000000002"/>
    <path d="M -0.075211 0.639459 C -0.014546 0.564001 -0.026401 0.464538 -0.006335 0.378682  L -0.080414 0.370100  C -0.118389 0.422754 -0.138530 0.494268 -0.200119 0.527052  Z" fill="black" stroke="black" stroke-width="0.005"/>
    <path d="M -0.132946 -0.355606 C -0.188896 -0.502778 -0.263201 -0.641915 -0.331515 -0.783499  L -0.485087 -0.680910  C -0.393662 -0.559413 -0.296760 -0.441637 -0.213933 -0.313628  Z" fill="black" stroke="black" stroke-width="0.005"/>
    <path d="M 1.4052 -1.2818 C 1.4074 -1.1589, 1.4512 -0.9204, 1.4929 -0.8047" stroke-width="0.19190000000000002"/>
  </g>
</svg>
