<?xml version="1.0" encoding="utf-8" ?>
<svg xmlns="http://www.w3.org/2000/svg" xmlns:ev="http://www.w3.org/2001/xml-events" xmlns:xlink="http://www.w3.org/1999/xlink" baseProfile="full" version="1.1" viewBox="-5.2596585788655 -3.3481401145807737 8.275968038979919 8.062154260977598">
  <defs/>
  <g stroke="none">
    <path d="M 0.841404 -1.419751 C 1.093765 -0.928147 0.933992 -0.550448 0.629553 -0.144909  L 0.727022 -0.005987  C 1.183231 -0.437523 1.365980 -0.978029 1.096155 -1.578187  Z" fill="black" stroke="black" stroke-width="0.005"/>
    <path d="M 2.046310 0.237978 C 1.749045 -0.426830 1.176896 -0.675203 0.483378 -0.610060  L 0.553232 -0.277918  C 0.986617 -0.204710 1.332620 -0.069399 1.466897 0.393802  Z" fill="white" stroke="white" stroke-width="0"/>
    <path d="M 1.901457 0.276934 C 1.647280 -0.330017 1.127628 -0.565613 0.500842 -0.527025  L 0.535768 -0.360953  C 1.039923 -0.306422 1.424949 -0.165218 1.611750 0.354846  Z" fill="black" stroke="black" stroke-width="0.005"/>
    <path d="M 1.026069 1.486332 C 0.424579 1.706949 -0.215265 1.791471 -0.852366 1.812919  L -0.864614 2.005069  C -0.192448 2.024329 0.482979 1.962219 1.129724 1.767856  Z" fill="black" stroke="black" stroke-width="0.005"/>
    <path d="M -0.091117 2.990856 C 0.191044 2.345764 0.254507 1.647951 0.180824 0.955343  L -0.197312 1.011824  C -0.232190 1.597338 -0.304274 2.181388 -0.613538 2.695769  Z" fill="white" stroke="white" stroke-width="0"/>
    <path d="M -0.221722 2.917084 C 0.062811 2.304908 0.138417 1.635241 0.086290 0.969463  L -0.102778 0.997704  C -0.094682 1.609167 -0.190372 2.224417 -0.482933 2.769541  Z" fill="black" stroke="black" stroke-width="0.005"/>
    <path d="M -1.486760 2.933284 C -1.938097 2.508989 -2.227467 1.956615 -2.418678 1.374742  L -2.607961 1.410007  C -2.440423 2.056769 -2.152459 2.666569 -1.687543 3.156188  Z" fill="black" stroke="black" stroke-width="0.005"/>
    <path d="M -1.476813 1.819703 C -2.055541 1.983929 -2.637480 1.936113 -3.215958 1.822856  L -3.373864 2.401705  C -2.683416 2.480631 -1.980858 2.449552 -1.331461 2.176297  Z" fill="white" stroke="white" stroke-width="0"/>
    <path d="M -1.440475 1.908851 C -2.032196 2.090657 -2.653945 2.089135 -3.255435 1.967569  L -3.334388 2.256993  C -2.673541 2.349047 -1.998027 2.330434 -1.367799 2.087149  Z" fill="black" stroke="black" stroke-width="0.005"/>
    <path d="M -2.458769 -0.426048 C -3.066866 -0.131781 -3.541758 0.348993 -3.925787 0.894624  L -3.660438 1.034588  C -3.338502 0.512166 -2.915035 0.056919 -2.378146 -0.251201  Z" fill="black" stroke="black" stroke-width="0.005"/>
    <path d="M -3.608058 -0.925258 C -3.550327 -0.223777 -3.277783 0.421936 -2.888485 0.999433  L -2.578446 0.771041  C -2.823398 0.236795 -3.035493 -0.313749 -3.008160 -0.914183  Z" fill="white" stroke="white" stroke-width="0"/>
    <path d="M -3.458083 -0.922489 C -3.417882 -0.248503 -3.169048 0.378283 -2.810976 0.942335  L -2.655956 0.828139  C -2.950459 0.291105 -3.156381 -0.297493 -3.158134 -0.916952  Z" fill="black" stroke="black" stroke-width="0.005"/>
    <path d="M -0.649298 -0.725063 C -1.079144 -1.246100 -1.659941 -1.590714 -2.282432 -1.830040  L -2.353022 -1.538463  C -1.768626 -1.354345 -1.225400 -1.053882 -0.799039 -0.606228  Z" fill="black" stroke="black" stroke-width="0.005"/>
    <path d="M -1.832090 -0.554190 C -1.393909 -1.003764 -0.865340 -1.335807 -0.317693 -1.630576  L -0.587450 -2.166516  C -1.161439 -1.784679 -1.705082 -1.347173 -2.129562 -0.798724  Z" fill="white" stroke="white" stroke-width="0"/>
    <path d="M -1.906458 -0.615324 C -1.467531 -1.081881 -0.945364 -1.458830 -0.385132 -1.764561  L -0.520011 -2.032531  C -1.089024 -1.675389 -1.626044 -1.259131 -2.055194 -0.737591  Z" fill="black" stroke="black" stroke-width="0.005"/>
    <path d="M 0.023382 0.442023 C 0.040337 0.160163 0.195641 -0.059129 0.331322 -0.291758  L 0.268779 -0.350221  C 0.106594 -0.106567 -0.053063 0.132362 -0.083442 0.434705  Z" fill="black" stroke="black" stroke-width="0.005"/>
    <path d="M 0.439391 -0.085613 C 0.168893 -0.095715 -0.046386 -0.237049 -0.273144 -0.360447  L -0.408347 -0.194376  C -0.139303 -0.052957 0.123623 0.088139 0.439391 0.085613  Z" fill="white" stroke="white" stroke-width="0"/>
    <path d="M 0.439391 -0.042806 C 0.156947 -0.048256 -0.068797 -0.193197 -0.306945 -0.318929  L -0.374546 -0.235894  C -0.116912 -0.097124 0.135595 0.040934 0.439391 0.042806  Z" fill="black" stroke="black" stroke-width="0.005"/>
  </g>
  <g fill="none" stroke="black">
    <path d="M 0.9688 -1.499 C 0.7047 -1.9236, -0.006 -2.1233, -0.4526 -1.8985" stroke-width="0.305"/>
    <path d="M 1.0779 1.6271 C 1.5471 1.4543, 1.8865 0.7987, 1.7566 0.3159" stroke-width="0.305"/>
    <path d="M -0.3523 2.8433 C -0.5982 3.2787, -1.2156 3.3794, -1.5872 3.0447" stroke-width="0.305"/>
    <path d="M -3.7931 0.9646 C -4.0264 1.4069, -3.7773 1.9807, -3.2949 2.1123" stroke-width="0.305"/>
    <path d="M -3.3081 -0.9197 C -3.2989 -1.4196, -2.8037 -1.8019, -2.3177 -1.6843" stroke-width="0.305"/>
    <path d="M -0.799039 -0.606228 C -0.672559 -0.465732 -0.519768 -0.354726 -0.374546 -0.235894  L -0.306945 -0.318929  C -0.425462 -0.450360 -0.552684 -0.575579 -0.649298 -0.725063  Z" fill="black" stroke="black" stroke-width="0.005"/>
    <path d="M 0.439391 0.042806 C 0.540392 0.068491 0.633139 0.012538 0.727022 -0.005987  L 0.629553 -0.144909  C 0.568658 -0.110843 0.515294 -0.051413 0.439391 -0.042806  Z" fill="black" stroke="black" stroke-width="0.005"/>
    <path d="M -1.9808 -0.6765 C -2.0709 -0.5669, -2.2897 -0.398, -2.4185 -0.3386" stroke-width="0.1975"/>
    <path d="M -1.4041 1.998 C -1.2728 1.9445, -1.0 1.9, -0.8585 1.909" stroke-width="0.1975"/>
    <path d="M 0.500842 -0.527025 C 0.399484 -0.502150 0.343085 -0.410147 0.268779 -0.350221  L 0.331322 -0.291758  C 0.397994 -0.316192 0.459920 -0.367517 0.535768 -0.360953  Z" fill="black" stroke="black" stroke-width="0.005"/>
    <path d="M -0.083442 0.434705 C -0.113831 0.621094 -0.102673 0.810008 -0.102778 0.997704  L 0.086290 0.969463  C 0.060009 0.794523 0.023628 0.620249 0.023382 0.442023  Z" fill="black" stroke="black" stroke-width="0.005"/>
    <path d="M -2.5133 1.3924 C -2.5393 1.253, -2.6494 0.9994, -2.7335 0.8852" stroke-width="0.1975"/>
  </g>
</svg>
