<?xml version="1.0" encoding="utf-8" ?>
<svg xmlns="http://www.w3.org/2000/svg" xmlns:ev="http://www.w3.org/2001/xml-events" xmlns:xlink="http://www.w3.org/1999/xlink" baseProfile="full" version="1.1" viewBox="-4.822007063933646 -4.637341617705302 8.382768810432829 8.003970293652499">
  <defs/>
  <g stroke="none">
    <path d="M 1.568040 1.907371 C 0.986317 1.846084 0.641664 1.493001 0.333057 1.036968  L 0.156066 1.096334  C 0.440211 1.678074 0.895205 2.101195 1.555291 2.207100  Z" fill="black" stroke="black" stroke-width="0.005"/>
    <path d="M 0.974789 1.085865 C 0.583004 1.521774 0.074984 1.744557 -0.474615 1.895364  L -0.369048 2.486004  C 0.283798 2.245381 0.879124 1.878891 1.274114 1.289180  Z" fill="white" stroke="white" stroke-width="0"/>
    <path d="M 1.049620 1.136693 C 0.662162 1.617707 0.121557 1.861816 -0.448223 2.043024  L -0.395440 2.338344  C 0.231726 2.125713 0.805873 1.785935 1.199283 1.238351  Z" fill="black" stroke="black" stroke-width="0.005"/>
    <path d="M -1.628397 1.380149 C -1.857765 0.784663 -1.941800 0.147043 -1.957520 -0.487208  L -2.145433 -0.502050  C -2.172321 0.169354 -2.111517 0.844840 -1.908051 1.488746  Z" fill="black" stroke="black" stroke-width="0.005"/>
    <path d="M -1.215345 0.054432 C -1.790486 0.130754 -2.310998 -0.035685 -2.816107 -0.284851  L -3.136116 0.222686  C -2.490491 0.487510 -1.802739 0.612599 -1.114288 0.428551  Z" fill="white" stroke="white" stroke-width="0"/>
    <path d="M -1.190081 0.147962 C -1.797241 0.254636 -2.351438 0.086792 -2.896109 -0.157967  L -3.056114 0.095802  C -2.449457 0.361185 -1.796419 0.490039 -1.139552 0.335021  Z" fill="black" stroke="black" stroke-width="0.005"/>
    <path d="M -2.999446 -1.152558 C -2.547077 -1.568521 -1.986466 -1.701089 -1.397917 -1.773705  L -1.381225 -1.961463  C -2.043049 -1.957393 -2.682613 -1.789247 -3.208203 -1.368013  Z" fill="black" stroke="black" stroke-width="0.005"/>
    <path d="M -2.096167 -2.959238 C -2.410392 -2.320377 -2.436568 -1.626270 -2.284492 -0.943569  L -1.922796 -1.049882  C -1.942213 -1.606342 -1.909572 -2.152679 -1.591806 -2.634244  Z" fill="white" stroke="white" stroke-width="0"/>
    <path d="M -1.970077 -2.877989 C -2.280168 -2.280055 -2.319746 -1.619942 -2.194068 -0.970148  L -2.013220 -1.023304  C -2.057324 -1.614673 -2.037165 -2.190393 -1.717896 -2.715493  Z" fill="black" stroke="black" stroke-width="0.005"/>
    <path d="M -0.722335 -2.809027 C -0.308789 -2.351846 -0.169633 -1.786575 -0.088077 -1.196005  L 0.105257 -1.183106  C 0.088183 -1.846108 -0.086408 -2.486977 -0.504834 -3.015651  Z" fill="black" stroke="black" stroke-width="0.005"/>
    <path d="M -0.835612 -1.733440 C -0.221839 -1.849280 0.396781 -1.806716 1.008499 -1.719490  L 1.111901 -2.310513  C 0.422542 -2.342146 -0.275584 -2.304916 -0.938357 -2.096166  Z" fill="white" stroke="white" stroke-width="0"/>
    <path d="M -0.861298 -1.824122 C -0.236658 -1.953969 0.404951 -1.953605 1.034350 -1.867246  L 1.086050 -2.162757  C 0.416596 -2.211770 -0.262492 -2.188358 -0.912671 -2.005484  Z" fill="black" stroke="black" stroke-width="0.005"/>
    <path d="M 1.915607 -0.839822 C 1.903337 -0.231519 1.669071 0.317804 1.320313 0.806566  L 1.449323 0.933410  C 1.872540 0.422563 2.167482 -0.174090 2.215545 -0.845923  Z" fill="black" stroke="black" stroke-width="0.005"/>
    <path d="M 2.614759 1.057099 C 2.348498 0.382996 1.801075 0.005084 1.117432 -0.154358  L 1.070356 0.216026  C 1.519134 0.429839 1.896626 0.688420 2.031916 1.199554  Z" fill="white" stroke="white" stroke-width="0"/>
    <path d="M 2.469048 1.092713 C 2.235866 0.466171 1.731800 0.102896 1.105663 -0.061762  L 1.082125 0.123430  C 1.589785 0.336706 2.003551 0.605500 2.177626 1.163940  Z" fill="black" stroke="black" stroke-width="0.005"/>
    <path d="M 0.606751 -0.063847 C 0.198932 -0.062636 -0.205916 -0.012102 -0.608787 0.045461  L -0.583976 0.177934  C -0.189455 0.119104 0.207070 0.067906 0.606751 0.063847  Z" fill="black" stroke="black" stroke-width="0.005"/>
    <path d="M 0.244100 0.569972 C 0.171981 0.180953 0.145607 -0.213900 0.127451 -0.608332  L -0.142082 -0.605082  C -0.118167 -0.194770 -0.087232 0.216146 -0.006340 0.620010  Z" fill="white" stroke="white" stroke-width="0"/>
    <path d="M 0.181490 0.582482 C 0.107161 0.189752 0.079676 -0.209119 0.060068 -0.607520  L -0.074699 -0.605895  C -0.052212 -0.199554 -0.022445 0.207349 0.056270 0.607501  Z" fill="black" stroke="black" stroke-width="0.005"/>
  </g>
  <g fill="none" stroke="black">
    <path d="M 2.3233 1.1283 C 2.442 1.614, 2.0612 2.0785, 1.5617 2.0572" stroke-width="0.305"/>
    <path d="M -1.7682 1.4344 C -1.5872 1.9005, -0.914 2.2787, -0.4218 2.1907" stroke-width="0.305"/>
    <path d="M -3.1038 -1.2603 C -3.4629 -0.9124, -3.3991 -0.2978, -2.9761 -0.0311" stroke-width="0.305"/>
    <path d="M -0.6136 -2.9123 C -0.958 -3.2748, -1.5732 -3.217, -1.844 -2.7967" stroke-width="0.305"/>
    <path d="M 2.0656 -0.8429 C 2.0554 -1.3428, 1.5527 -1.9288, 1.0602 -2.015" stroke-width="0.305"/>
    <path d="M 1.1245 1.1875 C 1.1824 1.1023, 1.3126 0.9435, 1.3848 0.87" stroke-width="0.1859"/>
    <path d="M -0.887 -1.9148 C -1.0105 -1.8798, -1.2617 -1.8562, -1.3896 -1.8676" stroke-width="0.1935"/>
    <path d="M -1.139552 0.335021 C -0.956940 0.273917 -0.769793 0.227955 -0.583976 0.177934  L -0.608787 0.045461  C -0.802876 0.077536 -0.997767 0.105573 -1.190081 0.147962  Z" fill="black" stroke="black" stroke-width="0.005"/>
    <path d="M 0.606751 0.063847 C 0.766607 0.072277 0.924020 0.101702 1.082125 0.123430  L 1.105663 -0.061762  C 0.939440 -0.065052 0.772933 -0.076180 0.606751 -0.063847  Z" fill="black" stroke="black" stroke-width="0.005"/>
    <path d="M 0.333057 1.036968 C 0.270765 0.889594 0.229624 0.734703 0.181490 0.582482  L 0.056270 0.607501  C 0.087472 0.770752 0.110825 0.935881 0.156066 1.096334  Z" fill="black" stroke="black" stroke-width="0.005"/>
    <path d="M 0.060068 -0.607520 C 0.067104 -0.800015 0.088174 -0.991448 0.105257 -1.183106  L -0.088077 -1.196005  C -0.086097 -0.999280 -0.088467 -0.802288 -0.074699 -0.605895  Z" fill="black" stroke="black" stroke-width="0.005"/>
    <path d="M -2.1036 -0.9967 C -2.0675 -0.8736, -2.0414 -0.6226, -2.0515 -0.4946" stroke-width="0.1935"/>
  </g>
</svg>
