<?xml version="1.0" encoding="utf-8" ?>
<svg xmlns="http://www.w3.org/2000/svg" xmlns:ev="http://www.w3.org/2001/xml-events" xmlns:xlink="http://www.w3.org/1999/xlink" baseProfile="full" version="1.1" viewBox="-3.423253222109218 -4.79607650254602 6.692364513513091 7.576800532711077">
  <defs/>
  <g stroke="none">
    <path d="M -1.656272 -2.840403 C -1.698470 -2.174903 -1.373888 -1.656543 -0.849923 -1.282338  L -0.764156 -1.445138  C -1.154576 -1.821023 -1.428365 -2.210776 -1.361336 -2.785512  Z" fill="black" stroke="black" stroke-width="0.005"/>
    <path d="M -1.778297 -0.789400 C -1.576236 -1.337304 -1.153841 -1.703377 -0.696830 -2.035775  L -0.830850 -2.369406  C -1.462702 -2.073209 -2.002108 -1.633906 -2.336727 -1.008844  Z" fill="white" stroke="white" stroke-width="0"/>
    <path d="M -1.917905 -0.844261 C -1.672398 -1.399244 -1.243234 -1.810464 -0.730335 -2.119182  L -0.797345 -2.285998  C -1.388574 -1.986502 -1.893543 -1.554981 -2.197120 -0.953983  Z" fill="black" stroke="black" stroke-width="0.005"/>
    <path d="M -0.363003 -2.299565 C 0.190969 -2.547456 0.737264 -2.485043 1.298498 -2.327581  L 1.424412 -2.599878  C 0.790954 -2.770240 0.138703 -2.772952 -0.454034 -2.454585  Z" fill="black" stroke="black" stroke-width="0.005"/>
    <path d="M -0.572914 -3.072815 C -0.117105 -2.827105 0.019097 -2.412247 0.090665 -1.934145  L 0.447927 -1.867078  C 0.503373 -2.565935 0.293236 -3.186804 -0.299124 -3.606705  Z" fill="white" stroke="white" stroke-width="0"/>
    <path d="M -0.504466 -3.206287 C -0.009670 -2.908246 0.126877 -2.455214 0.179980 -1.917378  L 0.358611 -1.883845  C 0.390721 -2.526023 0.183909 -3.099362 -0.367571 -3.473233  Z" fill="black" stroke="black" stroke-width="0.005"/>
    <path d="M 1.509566 0.853718 C 1.603650 0.193479 1.327755 -0.356999 0.845163 -0.784911  L 0.744942 -0.636529  C 1.096451 -0.217626 1.334876 0.204944 1.219806 0.776003  Z" fill="black" stroke="black" stroke-width="0.005"/>
    <path d="M 0.654820 0.151898 C 1.369712 0.049161 1.871035 -0.403902 2.230376 -1.000703  L 1.662472 -1.194315  C 1.430809 -0.728306 1.127575 -0.362288 0.609519 -0.194718  Z" fill="white" stroke="white" stroke-width="0"/>
    <path d="M 0.643495 0.065244 C 1.303708 -0.052355 1.768132 -0.484718 2.088400 -1.049106  L 1.804448 -1.145912  C 1.528601 -0.652050 1.195411 -0.260651 0.620844 -0.108064  Z" fill="black" stroke="black" stroke-width="0.005"/>
    <path d="M -0.195325 0.428799 C -0.638217 0.767943 -1.055021 0.715808 -1.529498 0.504566  L -1.707601 0.745977  C -1.133721 1.000848 -0.551827 1.000187 -0.073419 0.541695  Z" fill="black" stroke="black" stroke-width="0.005"/>
    <path d="M -0.584273 0.231232 C -0.847045 0.921498 -0.526564 1.436904 0.061629 1.787758  L 0.230162 1.211914  C -0.122240 1.005077 -0.349977 0.826242 -0.273804 0.360669  Z" fill="white" stroke="white" stroke-width="0"/>
    <path d="M -0.506656 0.263591 C -0.720504 0.884117 -0.430238 1.344401 0.103762 1.643797  L 0.188028 1.355875  C -0.233934 1.118355 -0.460626 0.844284 -0.351422 0.328310  Z" fill="black" stroke="black" stroke-width="0.005"/>
    <path d="M 0.303141 -0.035126 C 0.095307 -0.038719 -0.093620 0.043569 -0.286951 0.102793  L -0.259344 0.160151  C -0.074900 0.106102 0.105794 0.030044 0.303141 0.035126  Z" fill="black" stroke="black" stroke-width="0.005"/>
    <path d="M 0.015774 0.308939 C 0.052635 0.104611 0.038913 -0.102650 0.038956 -0.308501  L -0.098867 -0.294814  C -0.094244 -0.099850 -0.076733 0.096077 -0.106098 0.290578  Z" fill="white" stroke="white" stroke-width="0"/>
    <path d="M -0.014694 0.304348 C 0.020299 0.102477 0.005626 -0.101950 0.004500 -0.305079  L -0.064411 -0.298236  C -0.060953 -0.100550 -0.044384 0.098210 -0.075630 0.295168  Z" fill="black" stroke="black" stroke-width="0.005"/>
    <path d="M 0.121635 -1.504256 C 0.035763 -1.215492 -0.015668 -0.918696 -0.068519 -0.622756  L 0.021649 -0.610012  C 0.076358 -0.900680 0.129330 -1.192323 0.216441 -1.475621  Z" fill="black" stroke="black" stroke-width="0.005"/>
    <path d="M 0.491226 -0.981225 C 0.212207 -1.096467 -0.074211 -1.191956 -0.359981 -1.288601  L -0.419237 -1.094868  C -0.137929 -1.003259 0.143800 -0.912307 0.418809 -0.802669  Z" fill="white" stroke="white" stroke-width="0"/>
    <path d="M 0.473122 -0.936586 C 0.195106 -1.050431 -0.090141 -1.144780 -0.374795 -1.240167  L -0.404423 -1.143301  C -0.122000 -1.050432 0.160902 -0.958351 0.436913 -0.847308  Z" fill="black" stroke="black" stroke-width="0.005"/>
  </g>
  <g fill="none" stroke="black">
    <path d="M -2.0575 -0.8991 C -2.2404 -0.4338, -2.0209 0.3284, -1.6185 0.6253" stroke-width="0.305"/>
    <path d="M -0.436 -3.3398 C -0.8809 -3.5679, -1.4173 -3.3045, -1.5088 -2.813" stroke-width="0.305"/>
    <path d="M 1.9464 -1.0975 C 2.1078 -1.5708, 1.8153 -2.2539, 1.3615 -2.4637" stroke-width="0.305"/>
    <path d="M 1.3647 0.8149 C 1.2352 1.2978, 0.6258 1.6403, 0.1459 1.4998" stroke-width="0.305"/>
    <path d="M -0.351422 0.328310 C -0.352323 0.258790 -0.291134 0.214151 -0.259344 0.160151  L -0.286951 0.102793  C -0.360166 0.152480 -0.463186 0.172543 -0.506656 0.263591  Z" fill="black" stroke="black" stroke-width="0.005"/>
    <path d="M 0.303141 0.035126 C 0.415407 0.055931 0.530022 0.056088 0.643495 0.065244  L 0.620844 -0.108064  C 0.515228 -0.083638 0.410903 -0.051138 0.303141 -0.035126  Z" fill="black" stroke="black" stroke-width="0.005"/>
    <path d="M -0.4085 -2.3771 C -0.4941 -2.3268, -0.6718 -2.2396, -0.7638 -2.2026" stroke-width="0.1848"/>
    <path d="M -0.073419 0.541695 C -0.019967 0.472269 -0.031671 0.382433 -0.014694 0.304348  L -0.075630 0.295168  C -0.113739 0.340249 -0.137082 0.404050 -0.195325 0.428799  Z" fill="black" stroke="black" stroke-width="0.005"/>
    <path d="M 0.004500 -0.305079 C -0.005287 -0.407331 0.015155 -0.508737 0.021649 -0.610012  L -0.068519 -0.622756  C -0.068195 -0.514847 -0.082935 -0.405834 -0.064411 -0.298236  Z" fill="black" stroke="black" stroke-width="0.005"/>
    <path d="M 0.216441 -1.475621 C 0.273601 -1.608120 0.312682 -1.747310 0.358611 -1.883845  L 0.179980 -1.917378  C 0.161223 -1.779718 0.149747 -1.640718 0.121635 -1.504256  Z" fill="black" stroke="black" stroke-width="0.005"/>
    <path d="M -0.849923 -1.282338 C -0.706628 -1.219614 -0.553594 -1.186747 -0.404423 -1.143301  L -0.374795 -1.240167  C -0.506066 -1.305396 -0.642694 -1.361825 -0.764156 -1.445138  Z" fill="black" stroke="black" stroke-width="0.005"/>
    <path d="M 0.436913 -0.847308 C 0.548581 -0.790502 0.642995 -0.707080 0.744942 -0.636529  L 0.845163 -0.784911  C 0.722230 -0.837677 0.603695 -0.903153 0.473122 -0.936586  Z" fill="black" stroke="black" stroke-width="0.005"/>
  </g>
</svg>
