<?xml version="1.0" encoding="utf-8" ?>
<svg xmlns="http://www.w3.org/2000/svg" xmlns:ev="http://www.w3.org/2001/xml-events" xmlns:xlink="http://www.w3.org/1999/xlink" baseProfile="full" version="1.1" viewBox="-5.825310393556683 -2.84218196143297 10.060612031638485 10.14525540989213">
  <defs/>
  <g stroke="none">
    <path d="M 0.649194 5.517163 C 0.961058 4.918887 1.183542 4.279516 1.346576 3.626410  L 1.152227 3.582051  C 0.959469 4.199743 0.722785 4.807605 0.390607 5.365069  Z" fill="black" stroke="black" stroke-width="0.005"/>
    <path d="M 1.959129 4.109144 C 1.336761 4.243632 0.696227 4.264467 0.061737 4.250165  L 0.009359 4.645404  C 0.689551 4.740124 1.379078 4.767833 2.063903 4.699925  Z" fill="white" stroke="white" stroke-width="0"/>
    <path d="M 1.985322 4.256839 C 1.347021 4.373799 0.694781 4.383685 0.048642 4.348974  L 0.022453 4.546594  C 0.691419 4.621511 1.368240 4.635920 2.037710 4.552230  Z" fill="black" stroke="black" stroke-width="0.005"/>
    <path d="M -0.630230 4.457501 C -1.229463 4.706491 -1.859823 4.870286 -2.499112 4.973736  L -2.456798 5.270737  C -1.799966 5.125569 -1.149893 4.933408 -0.543737 4.637107  Z" fill="black" stroke="black" stroke-width="0.005"/>
    <path d="M -0.539233 5.417000 C -1.032420 5.014265 -1.448076 4.526466 -1.832492 4.021484  L -2.174160 4.226961  C -1.824122 4.817813 -1.415873 5.374184 -0.935799 5.867262  Z" fill="white" stroke="white" stroke-width="0"/>
    <path d="M -0.638375 5.529565 C -1.127792 5.103444 -1.542186 4.599666 -1.917909 4.072853  L -2.088743 4.175591  C -1.730222 4.745320 -1.319497 5.283464 -0.836657 5.754696  Z" fill="black" stroke="black" stroke-width="0.005"/>
    <path d="M -4.200688 2.688731 C -3.686809 3.125904 -3.112975 3.485084 -2.512523 3.789360  L -2.426029 3.609755  C -2.985342 3.284380 -3.525296 2.918368 -3.994867 2.470471  Z" fill="black" stroke="black" stroke-width="0.005"/>
    <path d="M -3.119459 4.279136 C -3.112086 3.642446 -2.989866 3.013336 -2.834735 2.397936  L -3.208409 2.258922  C -3.452111 2.900983 -3.632561 3.567057 -3.718743 4.249822  Z" fill="white" stroke="white" stroke-width="0"/>
    <path d="M -3.269280 4.271808 C -3.241272 3.623484 -3.105773 2.985397 -2.928154 2.363182  L -3.114991 2.293676  C -3.336888 2.929198 -3.501543 3.585844 -3.568922 4.257151  Z" fill="black" stroke="black" stroke-width="0.005"/>
    <path d="M -2.882896 1.677181 C -2.992302 1.037566 -3.011721 0.386563 -2.970323 -0.259717  L -3.269293 -0.284553  C -3.273923 0.388114 -3.231235 1.064649 -3.077245 1.721540  Z" fill="black" stroke="black" stroke-width="0.005"/>
    <path d="M -3.838587 1.552388 C -3.336205 1.161183 -2.768144 0.864494 -2.190282 0.602085  L -2.314579 0.223261  C -2.968508 0.433046 -3.601774 0.707255 -4.189315 1.065572  Z" fill="white" stroke="white" stroke-width="0"/>
    <path d="M -3.926269 1.430684 C -3.401926 1.048358 -2.818567 0.756455 -2.221356 0.507379  L -2.283505 0.317967  C -2.918727 0.540723 -3.534774 0.821402 -4.101633 1.187276  Z" fill="black" stroke="black" stroke-width="0.005"/>
    <path d="M -0.363971 -1.410170 C -0.904533 -1.006454 -1.382396 -0.526933 -1.812657 -0.009243  L -1.656801 0.115048  C -1.215125 -0.357839 -0.738139 -0.802810 -0.196983 -1.160941  Z" fill="black" stroke="black" stroke-width="0.005"/>
    <path d="M -2.155098 -0.709948 C -1.536011 -0.561083 -0.949870 -0.301937 -0.384420 -0.013756  L -0.165741 -0.347128  C -0.737475 -0.727592 -1.346695 -1.051732 -1.993166 -1.287683  Z" fill="white" stroke="white" stroke-width="0"/>
    <path d="M -2.114615 -0.854382 C -1.488778 -0.682810 -0.896840 -0.408721 -0.329750 -0.097099  L -0.220411 -0.263785  C -0.790623 -0.621536 -1.394166 -0.928180 -2.033649 -1.143249  Z" fill="black" stroke="black" stroke-width="0.005"/>
    <path d="M 0.328981 0.099674 C 0.976904 0.135339 1.615907 0.261268 2.236771 0.445440  L 2.327511 0.159492  C 1.672740 0.005295 1.003669 -0.103630 0.328981 -0.099674  Z" fill="black" stroke="black" stroke-width="0.005"/>
    <path d="M 0.663306 -0.804287 C 0.932913 -0.227450 1.095757 0.392389 1.223001 1.014154  L 1.619985 0.977270  C 1.560974 0.293054 1.434554 -0.385351 1.215961 -1.037895  Z" fill="white" stroke="white" stroke-width="0"/>
    <path d="M 0.801470 -0.862689 C 1.057533 -0.266417 1.212308 0.367271 1.322247 1.004933  L 1.520739 0.986491  C 1.444919 0.317627 1.308360 -0.345432 1.077797 -0.979493  Z" fill="black" stroke="black" stroke-width="0.005"/>
    <path d="M 2.778412 3.242445 C 2.505105 2.625601 2.143941 2.053014 1.734972 1.518344  L 1.579116 1.642635  C 1.941865 2.178464 2.269540 2.742507 2.498273 3.349787  Z" fill="black" stroke="black" stroke-width="0.005"/>
    <path d="M 2.494309 1.340411 C 2.211417 1.910850 1.828340 2.424630 1.421559 2.911777  L 1.697912 3.199155  C 2.196060 2.726417 2.647638 2.204599 3.021526 1.626841  Z" fill="white" stroke="white" stroke-width="0"/>
    <path d="M 2.626114 1.412019 C 2.319582 1.983986 1.920646 2.500092 1.490648 2.983621  L 1.628824 3.127310  C 2.104490 2.651002 2.537747 2.130826 2.889722 1.555234  Z" fill="black" stroke="black" stroke-width="0.005"/>
  </g>
  <g fill="none" stroke="black">
    <path d="M 2.0115 4.4045 C 2.5038 4.3172, 2.8172 3.763, 2.6383 3.2961" stroke-width="0.305"/>
    <path d="M -0.7375 5.6421 C -0.3623 5.9726, 0.2664 5.8721, 0.5199 5.4411" stroke-width="0.305"/>
    <path d="M -3.4191 4.2645 C -3.4435 4.7639, -2.973 5.1928, -2.478 5.1222" stroke-width="0.305"/>
    <path d="M -4.014 1.309 C -4.4196 1.6013, -4.4615 2.2366, -4.0978 2.5796" stroke-width="0.305"/>
    <path d="M -2.0741 -0.9988 C -2.5556 -1.1338, -3.0784 -0.7704, -3.1198 -0.2721" stroke-width="0.305"/>
    <path d="M 0.9396 -0.9211 C 0.745 -1.3816, 0.1349 -1.5639, -0.2805 -1.2856" stroke-width="0.305"/>
    <path d="M 2.7579 1.4836 C 2.9966 1.0443, 2.7587 0.4537, 2.2821 0.3025" stroke-width="0.305"/>
    <path d="M 0.329 0.0 C 0.1645 0.0, -0.1375 -0.0902, -0.2751 -0.1804" stroke-width="0.2043"/>
    <path d="M -2.9801 1.6994 C -2.9435 1.8597, -2.9642 2.1743, -3.0216 2.3284" stroke-width="0.2043"/>
    <path d="M -0.587 4.5473 C -0.4388 4.4759, -0.1275 4.4262, 0.0355 4.4478" stroke-width="0.2043"/>
    <path d="M 1.657 1.5805 C 1.5545 1.4519, 1.4367 1.1595, 1.4215 0.9957" stroke-width="0.2043"/>
    <path d="M -1.7347 0.0529 C -1.8373 0.1815, -2.0961 0.3614, -2.2524 0.4127" stroke-width="0.2043"/>
    <path d="M -2.4693 3.6996 C -2.3211 3.7709, -2.0881 3.9833, -2.0033 4.1242" stroke-width="0.2043"/>
    <path d="M 1.2494 3.6042 C 1.286 3.4439, 1.4412 3.1695, 1.5597 3.0555" stroke-width="0.2043"/>
  </g>
</svg>
