<?xml version="1.0" encoding="utf-8" ?>
<svg xmlns="http://www.w3.org/2000/svg" xmlns:ev="http://www.w3.org/2001/xml-events" xmlns:xlink="http://www.w3.org/1999/xlink" baseProfile="full" version="1.1" viewBox="-6.370570594184916 -3.694415744052404 9.493801435856117 8.696808439822899">
  <defs/>
  <g stroke="none">
    <path d="M -0.051732 1.105766 C 0.057494 1.732379 0.030179 2.371592 -0.085101 2.994123  L 0.207345 3.061020  C 0.290338 2.394936 0.297453 1.715296 0.138166 1.058633  Z" fill="black" stroke="black" stroke-width="0.005"/>
    <path d="M 1.085786 1.383933 C 0.502350 1.666106 -0.115193 1.870533 -0.734960 2.056247  L -0.658045 2.441157  C 0.013640 2.324013 0.676289 2.157528 1.321556 1.935669  Z" fill="white" stroke="white" stroke-width="0"/>
    <path d="M 1.144728 1.521867 C 0.545391 1.788450 -0.082731 1.984036 -0.715731 2.152475  L -0.677274 2.344930  C -0.018327 2.210786 0.632401 2.034152 1.262613 1.797735  Z" fill="black" stroke="black" stroke-width="0.005"/>
    <path d="M -2.910814 3.571961 C -2.269532 3.359401 -1.689235 3.007817 -1.165796 2.586429  L -1.295354 2.439009  C -1.811243 2.805237 -2.372424 3.116159 -2.987022 3.281801  Z" fill="black" stroke="black" stroke-width="0.005"/>
    <path d="M -0.947363 3.314646 C -1.516010 3.071771 -2.009190 2.692216 -2.456958 2.271375  L -2.762430 2.517867  C -2.319130 3.049470 -1.801765 3.517871 -1.196224 3.860602  Z" fill="white" stroke="white" stroke-width="0"/>
    <path d="M -1.009578 3.451135 C -1.587065 3.183412 -2.087214 2.781605 -2.533326 2.332998  L -2.686062 2.456244  C -2.241888 2.960492 -1.729815 3.405618 -1.134009 3.724113  Z" fill="black" stroke="black" stroke-width="0.005"/>
    <path d="M -3.055794 1.952089 C -3.632039 1.682045 -4.140948 1.293783 -4.586432 0.843402  L -4.808263 1.045369  C -4.308941 1.494082 -3.755602 1.888807 -3.126412 2.135203  Z" fill="black" stroke="black" stroke-width="0.005"/>
    <path d="M -3.670558 2.666164 C -3.718777 2.049705 -3.610909 1.436799 -3.445412 0.845010  L -3.805379 0.688502  C -4.071103 1.327648 -4.246503 2.003149 -4.269682 2.698567  Z" fill="white" stroke="white" stroke-width="0"/>
    <path d="M -3.820339 2.674265 C -3.850634 2.038459 -3.726274 1.409069 -3.535404 0.805883  L -3.715387 0.727629  C -3.956464 1.354876 -4.113690 2.014903 -4.119901 2.690466  Z" fill="black" stroke="black" stroke-width="0.005"/>
    <path d="M -3.448293 -1.806728 C -3.639727 -1.158827 -3.682197 -0.481661 -3.634897 0.188652  L -3.439903 0.166396  C -3.446217 -0.466237 -3.381267 -1.104499 -3.166535 -1.703713  Z" fill="black" stroke="black" stroke-width="0.005"/>
    <path d="M -4.357539 -0.047574 C -3.833573 -0.375914 -3.240440 -0.564282 -2.639322 -0.691797  L -2.667398 -1.083311  C -3.356920 -1.022676 -4.036812 -0.865154 -4.663830 -0.563506  Z" fill="white" stroke="white" stroke-width="0"/>
    <path d="M -4.434112 -0.176557 C -3.884696 -0.497976 -3.269314 -0.679366 -2.646341 -0.789675  L -2.660379 -0.985432  C -3.327937 -0.908469 -3.985696 -0.742009 -4.587257 -0.434523  Z" fill="black" stroke="black" stroke-width="0.005"/>
    <path d="M -2.035382 -1.001319 C -1.475552 -1.343182 -0.886078 -1.633603 -0.280231 -1.883601  L -0.393941 -2.161216  C -0.999080 -1.868717 -1.593641 -1.549249 -2.145446 -1.163812  Z" fill="black" stroke="black" stroke-width="0.005"/>
    <path d="M -2.270905 -1.913661 C -1.737555 -1.601667 -1.297026 -1.162748 -0.907251 -0.688333  L -0.573499 -0.892638  C -0.944561 -1.477056 -1.397886 -2.007823 -1.955593 -2.424129  Z" fill="white" stroke="white" stroke-width="0"/>
    <path d="M -2.192077 -2.041278 C -1.653009 -1.703386 -1.208356 -1.241320 -0.823813 -0.739409  L -0.656937 -0.841562  C -1.032391 -1.398780 -1.483411 -1.905623 -2.034421 -2.296512  Z" fill="black" stroke="black" stroke-width="0.005"/>
    <path d="M 1.983216 0.265404 C 1.714178 -0.336989 1.187453 -0.577147 0.556799 -0.551866  L 0.588046 -0.383973  C 1.098508 -0.319386 1.495083 -0.170596 1.695555 0.350558  Z" fill="black" stroke="black" stroke-width="0.005"/>
    <path d="M 0.809336 -1.381079 C 1.038064 -0.947268 0.889038 -0.591580 0.637449 -0.219297  L 0.832715 0.060931  C 1.356791 -0.399267 1.583387 -0.987446 1.334502 -1.671253  Z" fill="white" stroke="white" stroke-width="0"/>
    <path d="M 0.940627 -1.453623 C 1.171047 -0.945000 0.998614 -0.558119 0.686265 -0.149240  L 0.783899 -0.009126  C 1.244625 -0.440514 1.443353 -0.984225 1.203210 -1.598709  Z" fill="black" stroke="black" stroke-width="0.005"/>
    <path d="M 0.482942 -0.046608 C 0.176483 -0.060444 -0.067552 -0.212663 -0.316838 -0.369234  L -0.396468 -0.282017  C -0.120352 -0.117845 0.147636 0.043035 0.482942 0.046608  Z" fill="black" stroke="black" stroke-width="0.005"/>
    <path d="M 0.099545 0.487106 C 0.111151 0.194928 0.257927 -0.039447 0.405414 -0.278500  L 0.272640 -0.409377  C 0.079562 -0.135683 -0.106691 0.129482 -0.136484 0.478072  Z" fill="white" stroke="white" stroke-width="0"/>
    <path d="M 0.040538 0.484847 C 0.056880 0.178623 0.213347 -0.063505 0.372220 -0.311220  L 0.305834 -0.376658  C 0.124165 -0.111625 -0.052061 0.145903 -0.077477 0.480331  Z" fill="black" stroke="black" stroke-width="0.005"/>
  </g>
  <g fill="none" stroke="black">
    <path d="M 1.8394 0.308 C 1.9813 0.7874, 1.6635 1.4633, 1.2037 1.6598" stroke-width="0.305"/>
    <path d="M -1.0718 3.5876 C -0.6168 3.795, -0.0504 3.515, 0.0611 3.0276" stroke-width="0.305"/>
    <path d="M -2.9489 3.4269 C -3.4325 3.5539, -3.9431 3.1816, -3.9701 2.6824" stroke-width="0.305"/>
    <path d="M -4.5107 -0.3055 C -4.9406 -0.0503, -5.034 0.5747, -4.6973 0.9444" stroke-width="0.305"/>
    <path d="M -3.3074 -1.7552 C -3.1357 -2.2248, -2.5386 -2.4317, -2.1132 -2.1689" stroke-width="0.305"/>
    <path d="M 1.0719 -1.5262 C 0.8301 -1.9638, 0.1256 -2.2119, -0.3371 -2.0224" stroke-width="0.305"/>
    <path d="M 0.482942 0.046608 C 0.589260 0.071361 0.685673 0.011764 0.783899 -0.009126  L 0.686265 -0.149240  C 0.620933 -0.114828 0.563068 -0.054019 0.482942 -0.046608  Z" fill="black" stroke="black" stroke-width="0.005"/>
    <path d="M -2.0904 -1.0826 C -2.2181 -0.9961, -2.4996 -0.8986, -2.6534 -0.8876" stroke-width="0.2013"/>
    <path d="M -3.0911 2.0436 C -2.9472 2.0991, -2.7065 2.2746, -2.6097 2.3946" stroke-width="0.2013"/>
    <path d="M 0.138166 1.058633 C 0.074814 0.873312 0.064921 0.677218 0.040538 0.484847  L -0.077477 0.480331  C -0.077611 0.688833 -0.093290 0.898884 -0.051732 1.105766  Z" fill="black" stroke="black" stroke-width="0.005"/>
    <path d="M 0.372220 -0.311220 C 0.433747 -0.363081 0.517675 -0.361603 0.588046 -0.383973  L 0.556799 -0.551866  C 0.472966 -0.496577 0.362841 -0.469751 0.305834 -0.376658  Z" fill="black" stroke="black" stroke-width="0.005"/>
    <path d="M -0.6965 2.2487 C -0.8477 2.2789, -1.1147 2.4109, -1.2306 2.5127" stroke-width="0.2013"/>
    <path d="M -3.6254 0.7668 C -3.5639 0.6253, -3.5199 0.3307, -3.5374 0.1775" stroke-width="0.2013"/>
    <path d="M -0.823813 -0.739409 C -0.705651 -0.564581 -0.545052 -0.428290 -0.396468 -0.282017  L -0.316838 -0.369234  C -0.436722 -0.521645 -0.569430 -0.666348 -0.656937 -0.841562  Z" fill="black" stroke="black" stroke-width="0.005"/>
  </g>
</svg>
