<?xml version="1.0" encoding="utf-8" ?>
<svg xmlns="http://www.w3.org/2000/svg" xmlns:ev="http://www.w3.org/2001/xml-events" xmlns:xlink="http://www.w3.org/1999/xlink" baseProfile="full" version="1.1" viewBox="-5.34441700528813 -4.503932894446423 8.29529678035653 7.883095142190519">
  <defs/>
  <g stroke="none">
    <path d="M 1.510095 1.469406 C 1.739881 0.859385 1.495615 0.372438 0.972015 0.045020  L 0.906736 0.194891  C 1.264938 0.521372 1.460720 0.835773 1.246563 1.326050  Z" fill="black" stroke="black" stroke-width="0.005"/>
    <path d="M 1.603867 -0.493795 C 1.556414 -0.035559 1.298687 0.114008 0.887218 0.222922  L 0.843285 0.546897  C 1.535662 0.561118 2.050530 0.246484 2.203194 -0.465386  Z" fill="white" stroke="white" stroke-width="0"/>
    <path d="M 1.753699 -0.486693 C 1.682357 0.043539 1.351850 0.210705 0.876235 0.303916  L 0.854268 0.465904  C 1.471757 0.457719 1.933244 0.168214 2.053362 -0.472488  Z" fill="black" stroke="black" stroke-width="0.005"/>
    <path d="M -0.596116 0.686452 C -0.929989 1.215601 -1.433265 1.561217 -1.967147 1.857132  L -1.852097 2.134195  C -1.276009 1.799490 -0.760664 1.364585 -0.428854 0.776392  Z" fill="black" stroke="black" stroke-width="0.005"/>
    <path d="M 0.056799 1.661183 C -0.542579 1.474012 -1.091092 1.157142 -1.607598 0.805521  L -1.862389 1.093472  C -1.345143 1.549426 -0.773185 1.942840 -0.142402 2.227150  Z" fill="white" stroke="white" stroke-width="0"/>
    <path d="M 0.006999 1.802675 C -0.599961 1.589995 -1.154559 1.255671 -1.671296 0.877509  L -1.798691 1.021484  C -1.281611 1.451791 -0.715207 1.824491 -0.092602 2.085658  Z" fill="black" stroke="black" stroke-width="0.005"/>
    <path d="M -3.882924 -0.315665 C -3.446963 0.199799 -2.870176 0.547972 -2.243150 0.777505  L -2.190082 0.592729  C -2.751395 0.345258 -3.263003 0.001724 -3.639253 -0.490663  Z" fill="black" stroke="black" stroke-width="0.005"/>
    <path d="M -2.709949 1.342428 C -2.828490 0.754905 -2.699039 0.182160 -2.533450 -0.379484  L -2.871766 -0.562177  C -3.175725 0.064748 -3.351320 0.743147 -3.300975 1.445807  Z" fill="white" stroke="white" stroke-width="0"/>
    <path d="M -2.857705 1.368273 C -2.946323 0.754956 -2.833884 0.149056 -2.618029 -0.425157  L -2.787187 -0.516504  C -3.061830 0.092116 -3.216554 0.747836 -3.153219 1.419962  Z" fill="black" stroke="black" stroke-width="0.005"/>
    <path d="M -2.458586 -0.995084 C -2.384788 -1.617400 -2.082682 -2.150385 -1.732840 -2.652530  L -1.958631 -2.850061  C -2.328914 -2.295501 -2.603242 -1.678615 -2.650587 -1.004776  Z" fill="black" stroke="black" stroke-width="0.005"/>
    <path d="M -3.306805 -1.330992 C -2.761589 -1.579939 -2.174411 -1.584023 -1.589832 -1.550391  L -1.488796 -1.921371  C -2.168391 -2.074918 -2.868944 -2.091763 -3.541782 -1.883066  Z" fill="white" stroke="white" stroke-width="0"/>
    <path d="M -3.365549 -1.469011 C -2.788415 -1.694678 -2.172814 -1.722863 -1.564573 -1.643136  L -1.514055 -1.828626  C -2.169162 -1.957784 -2.842887 -1.959457 -3.483038 -1.745048  Z" fill="black" stroke="black" stroke-width="0.005"/>
    <path d="M 1.003109 -1.830933 C 0.335366 -1.930755 -0.342210 -1.906073 -1.007515 -1.806553  L -0.973325 -1.617371  C -0.335371 -1.672496 0.312200 -1.670500 0.941408 -1.537347  Z" fill="black" stroke="black" stroke-width="0.005"/>
    <path d="M -0.838949 -2.519732 C -0.473437 -2.046590 -0.341702 -1.477074 -0.248196 -0.901084  L 0.131106 -0.881264  C 0.136427 -1.578052 0.000305 -2.265069 -0.354713 -2.874013  Z" fill="white" stroke="white" stroke-width="0"/>
    <path d="M -0.717890 -2.608302 C -0.368199 -2.098242 -0.206119 -1.505812 -0.153371 -0.896129  L 0.036280 -0.886219  C 0.022608 -1.553278 -0.122646 -2.210302 -0.475772 -2.785443  Z" fill="black" stroke="black" stroke-width="0.005"/>
    <path d="M 0.327678 0.160872 C 0.130634 0.033964 0.089430 -0.171488 0.005087 -0.366605  L -0.088734 -0.355741  C 0.006274 -0.135086 0.071946 0.081061 0.293931 0.216465  Z" fill="black" stroke="black" stroke-width="0.005"/>
    <path d="M 0.363587 -0.065033 C 0.089226 -0.070287 -0.089119 0.085490 -0.297731 0.229067  L -0.148605 0.345010  C 0.011922 0.225751 0.143418 0.077310 0.363587 0.065033  Z" fill="white" stroke="white" stroke-width="0"/>
    <path d="M 0.363587 -0.032517 C 0.103565 -0.031959 -0.064734 0.118731 -0.260450 0.258053  L -0.185887 0.316025  C -0.012540 0.192999 0.129294 0.038754 0.363587 0.032517  Z" fill="black" stroke="black" stroke-width="0.005"/>
    <path d="M 0.734118 0.291118 C 0.660725 0.200650 0.575926 0.120532 0.496410 0.035765  L 0.470895 0.061931  C 0.548791 0.146390 0.631945 0.226297 0.703705 0.316358  Z" fill="black" stroke="black" stroke-width="0.005"/>
    <path d="M 0.447020 0.244823 C 0.561789 0.221250 0.672565 0.182559 0.785059 0.150763  L 0.759259 0.076049  C 0.649874 0.108950 0.542260 0.148508 0.430556 0.173608  Z" fill="white" stroke="white" stroke-width="0"/>
    <path d="M 0.442904 0.227019 C 0.556908 0.203065 0.666893 0.164158 0.778609 0.132085  L 0.765709 0.094728  C 0.655547 0.127353 0.547143 0.166693 0.434672 0.191412  Z" fill="black" stroke="black" stroke-width="0.005"/>
  </g>
  <g fill="none" stroke="black">
    <path d="M 1.9035 -0.4796 C 1.9272 -0.979, 1.4616 -1.5813, 0.9723 -1.6841" stroke-width="0.305"/>
    <path d="M -0.0428 1.9442 C 0.4288 2.1102, 1.1394 1.8369, 1.3783 1.3977" stroke-width="0.305"/>
    <path d="M -3.0055 1.3941 C -2.9193 1.8866, -2.3714 2.1874, -1.9096 1.9957" stroke-width="0.305"/>
    <path d="M -3.4243 -1.607 C -3.8844 -1.4112, -4.0528 -0.8093, -3.7611 -0.4032" stroke-width="0.305"/>
    <path d="M -0.5968 -2.6969 C -0.8921 -3.1004, -1.5165 -3.1276, -1.8457 -2.7513" stroke-width="0.305"/>
    <path d="M -2.5546 -0.9999 C -2.5617 -0.8593, -2.6357 -0.5947, -2.7026 -0.4708" stroke-width="0.19720000000000001"/>
    <path d="M -0.428854 0.776392 C -0.363459 0.615136 -0.270892 0.467217 -0.185887 0.316025  L -0.260450 0.258053  C -0.375638 0.398066 -0.497438 0.533335 -0.596116 0.686452  Z" fill="black" stroke="black" stroke-width="0.005"/>
    <path d="M 0.363587 0.032517 C 0.403173 0.023416 0.436205 0.051379 0.470895 0.061931  L 0.496410 0.035765  C 0.454054 0.012098 0.419108 -0.034166 0.363587 -0.032517  Z" fill="black" stroke="black" stroke-width="0.005"/>
    <path d="M 0.703705 0.316358 C 0.723087 0.393783 0.803760 0.419105 0.854268 0.465904  L 0.876235 0.303916  C 0.833557 0.301147 0.777802 0.322056 0.734118 0.291118  Z" fill="black" stroke="black" stroke-width="0.005"/>
    <path d="M -0.9904 -1.712 C -1.129 -1.6869, -1.4034 -1.6989, -1.5393 -1.7359" stroke-width="0.19720000000000001"/>
    <path d="M -2.2166 0.6851 C -2.0813 0.724, -1.8405 0.8562, -1.735 0.9495" stroke-width="0.19720000000000001"/>
    <path d="M 0.972015 0.045020 C 0.895234 0.021626 0.831787 0.075902 0.765709 0.094728  L 0.778609 0.132085  C 0.821049 0.150798 0.881622 0.148752 0.906736 0.194891  Z" fill="black" stroke="black" stroke-width="0.005"/>
    <path d="M 0.434672 0.191412 C 0.394732 0.199296 0.361858 0.171555 0.327678 0.160872  L 0.293931 0.216465  C 0.342264 0.221498 0.392701 0.250572 0.442904 0.227019  Z" fill="black" stroke="black" stroke-width="0.005"/>
    <path d="M 0.005087 -0.366605 C -0.000134 -0.540749 0.021912 -0.713424 0.036280 -0.886219  L -0.153371 -0.896129  C -0.136641 -0.715551 -0.128343 -0.533361 -0.088734 -0.355741  Z" fill="black" stroke="black" stroke-width="0.005"/>
  </g>
</svg>
