<?xml version="1.0" encoding="utf-8" ?>
<svg xmlns="http://www.w3.org/2000/svg" xmlns:ev="http://www.w3.org/2001/xml-events" xmlns:xlink="http://www.w3.org/1999/xlink" baseProfile="full" version="1.1" viewBox="-4.899787913783063 -4.950322141494573 9.7995758275412 9.900644283034833">
  <defs/>
  <g stroke="none">
    <path d="M -0.771628 -2.096834 C -0.129144 -2.176433 0.520644 -2.159036 1.161211 -2.076145  L 1.205531 -2.372853  C 0.534612 -2.417053 -0.143590 -2.410482 -0.806131 -2.282820  Z" fill="black" stroke="black" stroke-width="0.005"/>
    <path d="M -0.656705 -2.976976 C -0.290979 -2.519132 -0.179487 -1.965406 -0.113468 -1.400406  L 0.280037 -1.356431  C 0.315225 -2.054745 0.191519 -2.743013 -0.183278 -3.345578  Z" fill="white" stroke="white" stroke-width="0"/>
    <path d="M -0.538348 -3.069127 C -0.185121 -2.572492 -0.037612 -1.990924 -0.015092 -1.389412  L 0.181661 -1.367425  C 0.197981 -2.032352 0.066149 -2.687550 -0.301635 -3.253427  Z" fill="black" stroke="black" stroke-width="0.005"/>
    <path d="M 3.236563 0.447701 C 2.687805 0.054830 2.039201 -0.106345 1.374213 -0.119957  L 1.387326 0.077586  C 1.987216 0.127145 2.561559 0.300670 3.041799 0.675883  Z" fill="black" stroke="black" stroke-width="0.005"/>
    <path d="M 2.336364 0.929437 C 2.517648 0.264563 2.568848 -0.426619 2.573888 -1.113019  L 1.977084 -1.051167  C 2.052217 -0.422074 2.051249 0.214722 1.967873 0.843765  Z" fill="white" stroke="white" stroke-width="0"/>
    <path d="M 2.244241 0.908019 C 2.401581 0.251892 2.438657 -0.425327 2.424687 -1.097556  L 2.126285 -1.066630  C 2.180274 -0.422982 2.168419 0.226931 2.059995 0.865183  Z" fill="black" stroke="black" stroke-width="0.005"/>
    <path d="M 2.038727 1.413198 C 2.075609 2.029047 1.846167 2.561325 1.541221 3.075360  L 1.775625 3.262589  C 2.106071 2.689094 2.306617 2.054520 2.225739 1.384770  Z" fill="black" stroke="black" stroke-width="0.005"/>
    <path d="M 1.264826 2.378557 C 1.963204 2.517103 2.640945 2.347385 3.267647 2.041906  L 2.914660 1.556725  C 2.427233 1.841003 1.918549 2.043180 1.338451 2.007471  Z" fill="white" stroke="white" stroke-width="0"/>
    <path d="M 1.283232 2.285786 C 1.948665 2.396714 2.591619 2.224921 3.179400 1.920611  L 3.002907 1.678020  C 2.475672 1.959531 1.933611 2.164794 1.320045 2.100243  Z" fill="black" stroke="black" stroke-width="0.005"/>
    <path d="M -1.205531 2.372853 C -0.533720 2.435168 0.142053 2.391549 0.806131 2.282820  L 0.771628 2.096834  C 0.129483 2.160303 -0.521545 2.176150 -1.161211 2.076145  Z" fill="black" stroke="black" stroke-width="0.005"/>
    <path d="M -0.280037 1.356431 C -0.358401 2.062739 -0.149202 2.732313 0.183278 3.345578  L 0.656705 2.976976  C 0.351744 2.494480 0.119941 1.986637 0.113468 1.400406  Z" fill="white" stroke="white" stroke-width="0"/>
    <path d="M -0.181661 1.367425 C -0.237019 2.040601 -0.027965 2.676810 0.301635 3.253427  L 0.538348 3.069127  C 0.235382 2.551825 -0.007658 2.007247 0.015092 1.389412  Z" fill="black" stroke="black" stroke-width="0.005"/>
    <path d="M -1.387326 -0.077586 C -2.005559 -0.082656 -2.538651 -0.349950 -3.041799 -0.675883  L -3.236563 -0.447701  C -2.675358 -0.092493 -2.049198 0.144972 -1.374213 0.119957  Z" fill="black" stroke="black" stroke-width="0.005"/>
    <path d="M -1.977084 1.051167 C -2.068856 0.423205 -2.036736 -0.215325 -1.967873 -0.843765  L -2.336364 -0.929437  C -2.497631 -0.261191 -2.587402 0.424066 -2.573888 1.113019  Z" fill="white" stroke="white" stroke-width="0"/>
    <path d="M -2.126285 1.066630 C -2.197411 0.423112 -2.152290 -0.226544 -2.059995 -0.865183  L -2.244241 -0.908019  C -2.382736 -0.249505 -2.456714 0.423621 -2.424687 1.097556  Z" fill="black" stroke="black" stroke-width="0.005"/>
    <path d="M -1.775625 -3.262589 C -2.146376 -2.699840 -2.265481 -2.046566 -2.225739 -1.384770  L -2.038727 -1.413198  C -2.006522 -2.009010 -1.915175 -2.584647 -1.541221 -3.075360  Z" fill="black" stroke="black" stroke-width="0.005"/>
    <path d="M -2.914660 -1.556725 C -2.449509 -1.904917 -1.899818 -1.980620 -1.338451 -2.007471  L -1.264826 -2.378557  C -1.957696 -2.471257 -2.649534 -2.392604 -3.267647 -2.041906  Z" fill="white" stroke="white" stroke-width="0"/>
    <path d="M -3.002907 -1.678020 C -2.495866 -2.029518 -1.916702 -2.094876 -1.320045 -2.100243  L -1.283232 -2.285786  C -1.942570 -2.355262 -2.600541 -2.265668 -3.179400 -1.920611  Z" fill="black" stroke="black" stroke-width="0.005"/>
    <path d="M 0.046169 0.744604 C 0.068417 0.250589 0.090665 -0.243425 0.112913 -0.737440  L -0.046169 -0.744604  C -0.068417 -0.250589 -0.090665 0.243425 -0.112913 0.737440  Z" fill="black" stroke="black" stroke-width="0.005"/>
    <path d="M 0.741773 -0.159243 C 0.247258 -0.159243 -0.247258 -0.159243 -0.741773 -0.159243  L -0.741773 0.159243  C -0.247258 0.159243 0.247258 0.159243 0.741773 0.159243  Z" fill="white" stroke="white" stroke-width="0"/>
    <path d="M 0.741773 -0.079622 C 0.247258 -0.079622 -0.247258 -0.079622 -0.741773 -0.079622  L -0.741773 0.079622  C -0.247258 0.079622 0.247258 0.079622 0.741773 0.079622  Z" fill="black" stroke="black" stroke-width="0.005"/>
  </g>
  <g fill="none" stroke="black">
    <path d="M -1.6584 -3.169 C -1.3464 -3.5596, -0.7272 -3.5558, -0.42 -3.1613" stroke-width="0.305"/>
    <path d="M 2.2755 -1.0821 C 2.2239 -1.5794, 1.6779 -2.1506, 1.1834 -2.2245" stroke-width="0.305"/>
    <path d="M 3.1392 0.5618 C 3.5195 0.8864, 3.4955 1.5052, 3.0912 1.7993" stroke-width="0.305"/>
    <path d="M 0.42 3.1613 C 0.7272 3.5558, 1.3464 3.5596, 1.6584 3.169" stroke-width="0.305"/>
    <path d="M -1.1834 2.2245 C -1.6779 2.1506, -2.2239 1.5794, -2.2755 1.0821" stroke-width="0.305"/>
    <path d="M -3.0912 -1.7993 C -3.4955 -1.5052, -3.5195 -0.8864, -3.1392 -0.5618" stroke-width="0.305"/>
    <path d="M -0.7889 -2.1898 C -0.9172 -2.166, -1.1736 -2.1676, -1.3016 -2.193" stroke-width="0.1942"/>
    <path d="M -1.374213 0.119957 C -1.163972 0.098587 -0.952726 0.090450 -0.741773 0.079622  L -0.741773 -0.079622  C -0.956943 -0.081632 -1.172168 -0.085541 -1.387326 -0.077586  Z" fill="black" stroke="black" stroke-width="0.005"/>
    <path d="M 0.741773 0.079622 C 0.956918 0.087040 1.172178 0.080950 1.387326 0.077586  L 1.374213 -0.119957  C 1.163589 -0.103895 0.953035 -0.086022 0.741773 -0.079622  Z" fill="black" stroke="black" stroke-width="0.005"/>
    <path d="M 1.3016 2.193 C 1.1736 2.1676, 0.9172 2.166, 0.7889 2.1898" stroke-width="0.1942"/>
    <path d="M -2.1521 -0.8866 C -2.1226 -1.0137, -2.1126 -1.2699, -2.1322 -1.399" stroke-width="0.1942"/>
    <path d="M -0.015092 -1.389412 C -0.032719 -1.174830 -0.038497 -0.959647 -0.046169 -0.744604  L 0.112913 -0.737440  C 0.133221 -0.947692 0.150854 -1.158358 0.181661 -1.367425  Z" fill="black" stroke="black" stroke-width="0.005"/>
    <path d="M -0.112913 0.737440 C -0.128811 0.948200 -0.156139 1.157736 -0.181661 1.367425  L 0.015092 1.389412  C 0.028132 1.174633 0.043900 0.959865 0.046169 0.744604  Z" fill="black" stroke="black" stroke-width="0.005"/>
    <path d="M 2.1322 1.399 C 2.1126 1.2699, 2.1226 1.0137, 2.1521 0.8866" stroke-width="0.1942"/>
  </g>
</svg>
