<?xml version="1.0" encoding="utf-8" ?>
<svg xmlns="http://www.w3.org/2000/svg" xmlns:ev="http://www.w3.org/2001/xml-events" xmlns:xlink="http://www.w3.org/1999/xlink" baseProfile="full" version="1.1" viewBox="-3.1961442624810856 -4.451842958219321 7.371232493161955 7.388118656807525">
  <defs/>
  <g stroke="none">
    <path d="M -0.537014 -2.579384 C -0.726868 -1.933571 -0.643052 -1.277248 -0.400207 -0.661684  L -0.237958 -0.743589  C -0.388510 -1.318815 -0.474437 -1.891044 -0.258538 -2.467798  Z" fill="black" stroke="black" stroke-width="0.005"/>
    <path d="M -1.272650 -0.680424 C -0.868784 -1.087326 -0.345166 -1.216312 0.200901 -1.294329  L 0.244840 -1.653469  C -0.453116 -1.691400 -1.128251 -1.542384 -1.693222 -1.108349  Z" fill="white" stroke="white" stroke-width="0"/>
    <path d="M -1.377793 -0.787406 C -0.929352 -1.204149 -0.374280 -1.325656 0.211886 -1.384114  L 0.233856 -1.563684  C -0.425878 -1.579676 -1.064187 -1.423119 -1.588079 -1.001368  Z" fill="black" stroke="black" stroke-width="0.005"/>
    <path d="M 1.306456 -2.076574 C 1.712845 -2.400655 2.040380 -2.313781 2.419206 -2.026183  L 2.649540 -2.218397  C 2.165322 -2.583662 1.636560 -2.652338 1.183019 -2.181851  Z" fill="black" stroke="black" stroke-width="0.005"/>
    <path d="M 0.849651 -2.883034 C 1.269312 -2.734964 1.331143 -2.470937 1.309359 -2.062473  L 1.600971 -1.920195  C 1.830948 -2.571100 1.673850 -3.142175 1.018183 -3.458878  Z" fill="white" stroke="white" stroke-width="0"/>
    <path d="M 0.891784 -3.026995 C 1.379677 -2.836367 1.439102 -2.494402 1.382262 -2.026904  L 1.528068 -1.955765  C 1.712002 -2.538934 1.567219 -3.048630 0.976050 -3.314917  Z" fill="black" stroke="black" stroke-width="0.005"/>
    <path d="M 1.552150 1.056202 C 1.729657 0.407490 1.618342 -0.240243 1.340274 -0.838726  L 1.184409 -0.746888  C 1.364847 -0.186130 1.475063 0.371294 1.272022 0.948831  Z" fill="black" stroke="black" stroke-width="0.005"/>
    <path d="M 0.761287 0.193469 C 1.472176 0.235416 2.115145 -0.033186 2.686029 -0.432112  L 2.259048 -0.853642  C 1.826337 -0.495160 1.359319 -0.218723 0.781914 -0.169446  Z" fill="white" stroke="white" stroke-width="0"/>
    <path d="M 0.766443 0.102740 C 1.440169 0.120532 2.047763 -0.145354 2.579284 -0.537494  L 2.365793 -0.748259  C 1.892038 -0.387127 1.392074 -0.102803 0.776757 -0.078717  Z" fill="black" stroke="black" stroke-width="0.005"/>
    <path d="M -0.203584 0.484877 C -0.636127 0.799178 -0.995542 0.710159 -1.403909 0.434946  L -1.623141 0.639732  C -1.112897 0.984553 -0.563840 1.047975 -0.082224 0.599931  Z" fill="black" stroke="black" stroke-width="0.005"/>
    <path d="M -0.594180 0.282250 C -0.861479 0.969296 -0.557832 1.501600 0.011415 1.884958  L 0.211864 1.319431  C -0.137557 1.087347 -0.369288 0.887421 -0.286299 0.412911  Z" fill="white" stroke="white" stroke-width="0"/>
    <path d="M -0.517210 0.314915 C -0.735703 0.935365 -0.458338 1.413440 0.061527 1.743576  L 0.161751 1.460813  C -0.253618 1.196289 -0.478735 0.902306 -0.363270 0.380246  Z" fill="black" stroke="black" stroke-width="0.005"/>
    <path d="M 0.348603 -0.042020 C 0.108373 -0.041100 -0.100671 0.063696 -0.315518 0.152253  L -0.279241 0.211558  C -0.075627 0.133111 0.123343 0.038759 0.348603 0.042020  Z" fill="black" stroke="black" stroke-width="0.005"/>
    <path d="M 0.020811 0.354858 C 0.062181 0.110699 -0.009069 -0.119611 -0.062132 -0.353167  L -0.216236 -0.286058  C -0.166459 -0.081590 -0.088202 0.118685 -0.116902 0.335695  Z" fill="white" stroke="white" stroke-width="0"/>
    <path d="M -0.013617 0.350067 C 0.023682 0.112811 -0.047199 -0.110244 -0.100658 -0.336389  L -0.177710 -0.302835  C -0.123437 -0.091490 -0.053366 0.117010 -0.082474 0.340486  Z" fill="black" stroke="black" stroke-width="0.005"/>
    <path d="M 1.073821 -1.743957 C 1.162171 -1.794311 1.257757 -1.829677 1.349903 -1.871836  L 1.337028 -1.904670  C 1.243994 -1.860932 1.147385 -1.824082 1.058353 -1.771966  Z" fill="black" stroke="black" stroke-width="0.005"/>
    <path d="M 1.217973 -1.676316 C 1.230878 -1.779415 1.226567 -1.883468 1.230071 -1.986951  L 1.159583 -1.984341  C 1.158266 -1.883748 1.164480 -1.782756 1.154261 -1.682313  Z" fill="white" stroke="white" stroke-width="0"/>
    <path d="M 1.202045 -1.677815 C 1.214280 -1.780251 1.209493 -1.883538 1.212449 -1.986298  L 1.177205 -1.984993  C 1.175342 -1.883678 1.181081 -1.781921 1.170189 -1.680814  Z" fill="black" stroke="black" stroke-width="0.005"/>
    <path d="M 0.628562 -1.390951 C 0.830900 -1.371351 0.981839 -1.481398 1.151349 -1.561600  L 1.118100 -1.601261  C 0.960800 -1.540780 0.818873 -1.435192 0.636169 -1.464257  Z" fill="black" stroke="black" stroke-width="0.005"/>
    <path d="M 0.947225 -1.686411 C 0.876367 -1.485633 0.952160 -1.305749 0.992229 -1.113520  L 1.120574 -1.186007  C 1.081971 -1.341131 0.999324 -1.487796 1.046500 -1.657112  Z" fill="white" stroke="white" stroke-width="0"/>
    <path d="M 0.972044 -1.679086 C 0.908324 -1.486152 0.983245 -1.314657 1.024315 -1.131642  L 1.088488 -1.167885  C 1.051094 -1.332056 0.967251 -1.487491 1.021681 -1.664437  Z" fill="black" stroke="black" stroke-width="0.005"/>
  </g>
  <g fill="none" stroke="black">
    <path d="M -1.4829 -0.8944 C -1.8395 -0.5439, -1.8548 0.172, -1.5135 0.5373" stroke-width="0.305"/>
    <path d="M -0.3978 -2.5236 C -0.2118 -2.9877, 0.454 -3.3114, 0.9339 -3.171" stroke-width="0.305"/>
    <path d="M 2.4725 -0.6429 C 2.8238 -0.9987, 2.8547 -1.7384, 2.5344 -2.1223" stroke-width="0.305"/>
    <path d="M 1.4121 1.0025 C 1.2331 1.4694, 0.5829 1.7692, 0.1116 1.6022" stroke-width="0.305"/>
    <path d="M -0.363270 0.380246 C -0.361818 0.313567 -0.308400 0.266234 -0.279241 0.211558  L -0.315518 0.152253  C -0.382939 0.203451 -0.475147 0.231747 -0.517210 0.314915  Z" fill="black" stroke="black" stroke-width="0.005"/>
    <path d="M 0.348603 0.042020 C 0.488498 0.057992 0.627262 0.082405 0.766443 0.102740  L 0.776757 -0.078717  C 0.633970 -0.067547 0.490727 -0.060090 0.348603 -0.042020  Z" fill="black" stroke="black" stroke-width="0.005"/>
    <path d="M 1.183019 -2.181851 C 1.142409 -2.118853 1.176354 -2.048699 1.177205 -1.984993  L 1.212449 -1.986298  C 1.241614 -2.016898 1.258523 -2.071288 1.306456 -2.076574  Z" fill="black" stroke="black" stroke-width="0.005"/>
    <path d="M 1.170189 -1.680814 C 1.166572 -1.646191 1.135538 -1.626478 1.118100 -1.601261  L 1.151349 -1.561600  C 1.169088 -1.598835 1.206724 -1.630921 1.202045 -1.677815  Z" fill="black" stroke="black" stroke-width="0.005"/>
    <path d="M 0.636169 -1.464257 C 0.501891 -1.496602 0.367988 -1.530877 0.233856 -1.563684  L 0.211886 -1.384114  C 0.350758 -1.385691 0.489762 -1.386266 0.628562 -1.390951  Z" fill="black" stroke="black" stroke-width="0.005"/>
    <path d="M -0.082224 0.599931 C -0.022766 0.528160 -0.033639 0.432322 -0.013617 0.350067  L -0.082474 0.340486  C -0.120961 0.389049 -0.143030 0.456923 -0.203584 0.484877  Z" fill="black" stroke="black" stroke-width="0.005"/>
    <path d="M -0.100658 -0.336389 C -0.140836 -0.473909 -0.191190 -0.608217 -0.237958 -0.743589  L -0.400207 -0.661684  C -0.325994 -0.542196 -0.248207 -0.424719 -0.177710 -0.302835  Z" fill="black" stroke="black" stroke-width="0.005"/>
    <path d="M 1.382262 -2.026904 C 1.396554 -1.980846 1.353438 -1.943628 1.337028 -1.904670  L 1.349903 -1.871836  C 1.408651 -1.896491 1.486523 -1.893379 1.528068 -1.955765  Z" fill="black" stroke="black" stroke-width="0.005"/>
    <path d="M 1.058353 -1.771966 C 1.013491 -1.757534 0.999100 -1.710216 0.972044 -1.679086  L 1.021681 -1.664437  C 1.037839 -1.690493 1.043521 -1.726817 1.073821 -1.743957  Z" fill="black" stroke="black" stroke-width="0.005"/>
    <path d="M 1.024315 -1.131642 C 1.075437 -1.002515 1.130409 -0.874841 1.184409 -0.746888  L 1.340274 -0.838726  C 1.256641 -0.948605 1.171755 -1.057687 1.088488 -1.167885  Z" fill="black" stroke="black" stroke-width="0.005"/>
  </g>
</svg>
