<?xml version="1.0" encoding="utf-8" ?>
<svg xmlns="http://www.w3.org/2000/svg" xmlns:ev="http://www.w3.org/2001/xml-events" xmlns:xlink="http://www.w3.org/1999/xlink" baseProfile="full" version="1.1" viewBox="-3.4632060249473393 -3.678764398889995 8.27761144836401 8.210379283480734">
  <defs/>
  <g stroke="none">
    <path d="M 1.898157 2.732722 C 2.166508 2.116083 2.133925 1.463688 1.921326 0.840317  L 1.752172 0.918516  C 1.870967 1.489676 1.915348 2.045574 1.636482 2.586005  Z" fill="black" stroke="black" stroke-width="0.005"/>
    <path d="M 2.847290 0.926402 C 2.392310 1.313729 1.829790 1.469521 1.258899 1.587229  L 1.254026 1.960921  C 1.950350 1.939456 2.630803 1.775279 3.223493 1.393810  Z" fill="white" stroke="white" stroke-width="0"/>
    <path d="M 2.941340 1.043254 C 2.448340 1.415910 1.864149 1.602987 1.257681 1.680652  L 1.255244 1.867498  C 1.920918 1.827684 2.570834 1.655316 3.129442 1.276958  Z" fill="black" stroke="black" stroke-width="0.005"/>
    <path d="M 0.748141 1.758070 C 0.134655 1.905227 -0.499939 1.900104 -1.118270 1.794975  L -1.182737 2.087966  C -0.516600 2.157610 0.162069 2.139848 0.805964 1.935761  Z" fill="black" stroke="black" stroke-width="0.005"/>
    <path d="M 0.758487 2.626168 C 0.343551 2.235844 0.202723 1.720323 0.114109 1.179645  L -0.268266 1.142462  C -0.283710 1.842854 -0.112233 2.513394 0.345910 3.061806  Z" fill="white" stroke="white" stroke-width="0"/>
    <path d="M 0.655342 2.735077 C 0.226204 2.301118 0.090561 1.752823 0.018515 1.170350  L -0.172672 1.151758  C -0.169343 1.812045 0.007078 2.444897 0.449054 2.952896  Z" fill="black" stroke="black" stroke-width="0.005"/>
    <path d="M -2.414239 -1.223817 C -2.208093 -0.587664 -1.720883 -0.199893 -1.103537 -0.003281  L -1.070397 -0.187055  C -1.567800 -0.426257 -1.970096 -0.716264 -2.120061 -1.282634  Z" fill="black" stroke="black" stroke-width="0.005"/>
    <path d="M -1.799236 0.735382 C -1.795775 0.149112 -1.526844 -0.345894 -1.215592 -0.821199  L -1.462358 -1.086420  C -1.946544 -0.584077 -2.297967 0.017470 -2.399000 0.718568  Z" fill="white" stroke="white" stroke-width="0"/>
    <path d="M -1.949177 0.731178 C -1.907711 0.123809 -1.647969 -0.414639 -1.277284 -0.887504  L -1.400667 -1.020114  C -1.846493 -0.528690 -2.168791 0.053973 -2.249059 0.722771  Z" fill="black" stroke="black" stroke-width="0.005"/>
    <path d="M -0.990934 -1.208446 C -0.578038 -1.674323 -0.047993 -2.006546 0.527767 -2.230045  L 0.435994 -2.515663  C -0.168391 -2.232659 -0.728799 -1.853878 -1.136697 -1.315973  Z" fill="black" stroke="black" stroke-width="0.005"/>
    <path d="M -1.491724 -1.851427 C -0.962817 -1.796782 -0.639452 -1.464400 -0.348651 -1.056410  L 0.012808 -1.171025  C -0.266676 -1.815484 -0.734105 -2.293149 -1.441662 -2.449335  Z" fill="white" stroke="white" stroke-width="0"/>
    <path d="M -1.479209 -2.000904 C -0.898350 -1.916373 -0.558799 -1.550013 -0.258286 -1.085064  L -0.077557 -1.142371  C -0.351878 -1.730412 -0.797919 -2.168221 -1.454177 -2.299858  Z" fill="black" stroke="black" stroke-width="0.005"/>
    <path d="M 3.369105 -0.374760 C 2.926006 -0.862117 2.356072 -0.912386 1.775858 -0.670092  L 1.864708 -0.522488  C 2.359463 -0.637477 2.771339 -0.631602 3.122338 -0.204155  Z" fill="black" stroke="black" stroke-width="0.005"/>
    <path d="M 1.820477 -1.708924 C 2.140999 -1.296140 2.096318 -0.856703 1.968842 -0.385876  L 2.248143 -0.192848  C 2.586614 -0.804154 2.651226 -1.455265 2.290502 -2.081854  Z" fill="white" stroke="white" stroke-width="0"/>
    <path d="M 1.937983 -1.802157 C 2.268988 -1.325784 2.208466 -0.853232 2.038667 -0.337619  L 2.178318 -0.241105  C 2.470967 -0.812684 2.518164 -1.420318 2.172996 -1.988621  Z" fill="black" stroke="black" stroke-width="0.005"/>
    <path d="M 0.032073 0.605368 C 0.052363 0.201223 0.031072 -0.202991 0.003373 -0.606073  L -0.125939 -0.592853  C -0.099650 -0.196625 -0.079517 0.200716 -0.100193 0.597880  Z" fill="black" stroke="black" stroke-width="0.005"/>
    <path d="M 0.602587 -0.126918 C 0.203533 -0.127832 -0.195203 -0.144539 -0.593709 -0.163651  L -0.609220 0.090128  C -0.205544 0.109354 0.198362 0.126205 0.602587 0.126918  Z" fill="white" stroke="white" stroke-width="0"/>
    <path d="M 0.602587 -0.063459 C 0.202240 -0.064323 -0.197788 -0.081066 -0.597587 -0.100206  L -0.605342 0.026684  C -0.202959 0.045881 0.199654 0.062696 0.602587 0.063459  Z" fill="black" stroke="black" stroke-width="0.005"/>
    <path d="M 1.895791 -0.170676 C 1.637302 -0.071795 1.363575 -0.056977 1.091513 -0.040241  L 1.087395 0.060193  C 1.372048 0.037130 1.658723 0.017196 1.927060 -0.092988  Z" fill="black" stroke="black" stroke-width="0.005"/>
    <path d="M 1.750366 0.397550 C 1.660461 0.149702 1.705620 -0.100096 1.729277 -0.351762  L 1.565139 -0.404958  C 1.517448 -0.114157 1.469501 0.172246 1.560775 0.463358  Z" fill="white" stroke="white" stroke-width="0"/>
    <path d="M 1.702968 0.414002 C 1.611272 0.155198 1.660768 -0.103521 1.688243 -0.365061  L 1.606174 -0.391659  C 1.562653 -0.110675 1.518595 0.166675 1.608173 0.446906  Z" fill="black" stroke="black" stroke-width="0.005"/>
  </g>
  <g fill="none" stroke="black">
    <path d="M 3.0354 1.1601 C 3.4249 0.8466, 3.5301 0.1218, 3.2457 -0.2895" stroke-width="0.305"/>
    <path d="M 1.7673 2.6594 C 1.5228 3.0955, 0.9152 3.1878, 0.5522 2.844" stroke-width="0.305"/>
    <path d="M -2.0991 0.727 C -2.1131 1.2268, -1.6388 1.834, -1.1505 1.9415" stroke-width="0.305"/>
    <path d="M -1.4667 -2.1504 C -1.9649 -2.1921, -2.3652 -1.7435, -2.2672 -1.2532" stroke-width="0.305"/>
    <path d="M 2.0555 -1.8954 C 1.7447 -2.2871, 0.9579 -2.5258, 0.4819 -2.3729" stroke-width="0.305"/>
    <path d="M 0.602587 0.063459 C 0.764139 0.058235 0.925794 0.060430 1.087395 0.060193  L 1.091513 -0.040241  C 0.928581 -0.048587 0.765740 -0.059508 0.602587 -0.063459  Z" fill="black" stroke="black" stroke-width="0.005"/>
    <path d="M 1.927060 -0.092988 C 2.029652 -0.106784 2.097060 -0.190358 2.178318 -0.241105  L 2.038667 -0.337619  C 1.993263 -0.282769 1.963712 -0.207735 1.895791 -0.170676  Z" fill="black" stroke="black" stroke-width="0.005"/>
    <path d="M -1.0638 -1.2622 C -1.1254 -1.1787, -1.263 -1.0245, -1.339 -0.9538" stroke-width="0.18610000000000002"/>
    <path d="M 0.7771 1.8469 C 0.8939 1.8089, 1.1336 1.7725, 1.2565 1.7741" stroke-width="0.19190000000000002"/>
    <path d="M 1.775858 -0.670092 C 1.673725 -0.607657 1.658417 -0.484100 1.606174 -0.391659  L 1.688243 -0.365061  C 1.744553 -0.418129 1.782257 -0.500922 1.864708 -0.522488  Z" fill="black" stroke="black" stroke-width="0.005"/>
    <path d="M 1.608173 0.446906 C 1.646161 0.607000 1.702080 0.762000 1.752172 0.918516  L 1.921326 0.840317  C 1.847426 0.698901 1.767928 0.560116 1.702968 0.414002  Z" fill="black" stroke="black" stroke-width="0.005"/>
    <path d="M 0.018515 1.170350 C 0.026872 0.982106 0.028491 0.793699 0.032073 0.605368  L -0.100193 0.597880  C -0.123056 0.782661 -0.143761 0.967800 -0.172672 1.151758  Z" fill="black" stroke="black" stroke-width="0.005"/>
    <path d="M 0.003373 -0.606073 C -0.002131 -0.787718 -0.044952 -0.964621 -0.077557 -1.142371  L -0.258286 -1.085064  C -0.210888 -0.922151 -0.150612 -0.762006 -0.125939 -0.592853  Z" fill="black" stroke="black" stroke-width="0.005"/>
    <path d="M -1.103537 -0.003281 C -0.938188 0.018007 -0.771421 0.018607 -0.605342 0.026684  L -0.597587 -0.100206  C -0.755557 -0.126835 -0.915066 -0.146671 -1.070397 -0.187055  Z" fill="black" stroke="black" stroke-width="0.005"/>
  </g>
</svg>
