<?xml version="1.0" encoding="utf-8" ?>
<svg xmlns="http://www.w3.org/2000/svg" xmlns:ev="http://www.w3.org/2001/xml-events" xmlns:xlink="http://www.w3.org/1999/xlink" baseProfile="full" version="1.1" viewBox="-4.022455887090734 -5.552217942480225 7.51521596916741 8.824890009586557">
  <defs/>
  <g stroke="none">
    <path d="M 0.241042 -3.621626 C 0.514306 -3.105632 0.412026 -2.625443 0.203017 -2.117454  L 0.351311 -2.001764  C 0.678812 -2.559908 0.777899 -3.172160 0.496666 -3.778649  Z" fill="black" stroke="black" stroke-width="0.005"/>
    <path d="M -0.108967 -2.674454 C 0.491753 -2.600590 1.016334 -2.333992 1.512612 -2.008314  L 1.872413 -2.488462  C 1.259484 -2.812809 0.596184 -3.044087 -0.106455 -3.035572  Z" fill="white" stroke="white" stroke-width="0"/>
    <path d="M -0.108339 -2.764734 C 0.510100 -2.704031 1.087776 -2.467301 1.602562 -2.128351  L 1.782463 -2.368425  C 1.201718 -2.696540 0.567778 -2.931165 -0.107083 -2.945293  Z" fill="black" stroke="black" stroke-width="0.005"/>
    <path d="M 1.276500 0.989653 C 1.794010 0.556270 2.141605 -0.023476 2.389201 -0.642848  L 2.098637 -0.717500  C 1.909267 -0.130959 1.606872 0.415217 1.162517 0.849613  Z" fill="black" stroke="black" stroke-width="0.005"/>
    <path d="M 2.417770 1.243007 C 2.230165 0.542296 1.728064 0.107090 1.065138 -0.124652  L 0.978627 0.241430  C 1.400522 0.500606 1.745720 0.796676 1.822479 1.318035  Z" fill="white" stroke="white" stroke-width="0"/>
    <path d="M 2.268947 1.261764 C 2.108719 0.612727 1.648258 0.197221 1.043510 -0.033132  L 1.000255 0.149910  C 1.481196 0.415303 1.861496 0.725810 1.971302 1.299278  Z" fill="black" stroke="black" stroke-width="0.005"/>
    <path d="M 0.003195 0.987613 C 0.158017 1.639070 0.630523 2.038156 1.234038 2.262253  L 1.281594 1.966046  C 0.767897 1.772992 0.366659 1.507074 0.184494 0.955081  Z" fill="black" stroke="black" stroke-width="0.005"/>
    <path d="M 0.791481 1.083193 C 0.353754 1.457041 -0.165719 1.585950 -0.721238 1.629232  L -0.737138 2.229021  C -0.049400 2.118278 0.595153 1.858417 1.063692 1.320499  Z" fill="white" stroke="white" stroke-width="0"/>
    <path d="M 0.859534 1.142519 C 0.412265 1.562413 -0.137104 1.708745 -0.725213 1.779179  L -0.733163 2.079074  C -0.079779 1.991076 0.536779 1.754360 0.995639 1.261172  Z" fill="black" stroke="black" stroke-width="0.005"/>
    <path d="M -1.693472 0.892057 C -1.744626 0.283224 -1.495786 -0.224202 -1.176452 -0.717212  L -1.304339 -0.848290  C -1.728273 -0.342966 -2.001408 0.253633 -1.991528 0.926156  Z" fill="black" stroke="black" stroke-width="0.005"/>
    <path d="M -0.943142 -0.169988 C -1.496886 -0.309401 -1.891476 -0.658999 -2.235503 -1.090380  L -2.743117 -0.770492  C -2.267464 -0.260672 -1.690056 0.123081 -0.978558 0.194556  Z" fill="white" stroke="white" stroke-width="0"/>
    <path d="M -0.951996 -0.078852 C -1.550656 -0.200079 -1.976882 -0.565668 -2.362406 -1.010408  L -2.616213 -0.850464  C -2.179302 -0.358039 -1.637393 0.014653 -0.969704 0.103420  Z" fill="black" stroke="black" stroke-width="0.005"/>
    <path d="M -2.162429 -2.308299 C -1.684095 -2.692605 -1.118639 -2.779762 -0.527964 -2.803560  L -0.496069 -2.981284  C -1.154387 -3.035608 -1.802988 -2.919830 -2.356319 -2.537223  Z" fill="black" stroke="black" stroke-width="0.005"/>
    <path d="M -1.047898 -4.011901 C -1.455070 -3.411821 -1.449649 -2.750340 -1.179791 -2.102753  L -0.856265 -2.278941  C -0.941455 -2.763650 -0.947492 -3.213473 -0.602952 -3.609380  Z" fill="white" stroke="white" stroke-width="0"/>
    <path d="M -0.936662 -3.911271 C -1.322707 -3.366565 -1.330121 -2.749713 -1.098910 -2.146800  L -0.937147 -2.234894  C -1.057723 -2.768349 -1.076192 -3.253890 -0.714188 -3.710010  Z" fill="black" stroke="black" stroke-width="0.005"/>
    <path d="M 0.520916 -0.058110 C 0.172801 -0.057281 -0.175074 -0.044361 -0.522903 -0.031952  L -0.517857 0.079201  C -0.171692 0.068555 0.174525 0.057156 0.520916 0.058110  Z" fill="black" stroke="black" stroke-width="0.005"/>
    <path d="M 0.149315 0.511543 C 0.123529 0.160032 0.058437 -0.186335 -0.004701 -0.532399  L -0.219696 -0.484979  C -0.160079 -0.149239 -0.098423 0.186805 -0.074774 0.527618  Z" fill="white" stroke="white" stroke-width="0"/>
    <path d="M 0.093293 0.515562 C 0.068038 0.166725 0.003809 -0.177061 -0.058450 -0.520544  L -0.165948 -0.496834  C -0.105449 -0.158513 -0.042938 0.180112 -0.018751 0.523599  Z" fill="black" stroke="black" stroke-width="0.005"/>
    <path d="M -0.825622 -1.771162 C -0.629514 -1.488124 -0.466339 -1.184894 -0.301786 -0.883161  L -0.203105 -0.931946  C -0.369516 -1.238807 -0.534581 -1.547138 -0.733204 -1.835016  Z" fill="black" stroke="black" stroke-width="0.005"/>
    <path d="M -0.149754 -1.791182 C -0.418089 -1.573490 -0.694132 -1.365628 -0.969582 -1.157116  L -0.838323 -0.977414  C -0.558071 -1.185260 -0.277537 -1.392825 -0.004281 -1.609892  Z" fill="white" stroke="white" stroke-width="0"/>
    <path d="M -0.113386 -1.745860 C -0.382953 -1.528325 -0.660116 -1.320536 -0.936767 -1.112190  L -0.871137 -1.022340  C -0.592085 -1.230352 -0.312677 -1.437993 -0.040649 -1.655215  Z" fill="black" stroke="black" stroke-width="0.005"/>
  </g>
  <g fill="none" stroke="black">
    <path d="M -0.8254 -3.8106 C -0.49 -4.1814, 0.1071 -4.1262, 0.3689 -3.7001" stroke-width="0.305"/>
    <path d="M 2.2439 -0.6802 C 2.3683 -1.1644, 2.0926 -1.9486, 1.6925 -2.2484" stroke-width="0.305"/>
    <path d="M 2.1201 1.2805 C 2.1826 1.7766, 1.7515 2.1934, 1.2578 2.1141" stroke-width="0.305"/>
    <path d="M -1.8425 0.9091 C -1.7857 1.4059, -1.229 1.9159, -0.7292 1.9291" stroke-width="0.305"/>
    <path d="M -2.2594 -2.4228 C -2.6409 -2.0996, -2.7559 -1.3534, -2.4893 -0.9304" stroke-width="0.305"/>
    <path d="M -0.1077 -2.855 C -0.2096 -2.8557, -0.4117 -2.8744, -0.512 -2.8924" stroke-width="0.18560000000000001"/>
    <path d="M -0.969704 0.103420 C -0.818463 0.107808 -0.668223 0.089362 -0.517857 0.079201  L -0.522903 -0.031952  C -0.666056 -0.045735 -0.810656 -0.049976 -0.951996 -0.078852  Z" fill="black" stroke="black" stroke-width="0.005"/>
    <path d="M 0.520916 0.058110 C 0.684637 0.067343 0.841503 0.115706 1.000255 0.149910  L 1.043510 -0.033132  C 0.869803 -0.047714 0.695808 -0.073508 0.520916 -0.058110  Z" fill="black" stroke="black" stroke-width="0.005"/>
    <path d="M 0.184494 0.955081 C 0.144295 0.810774 0.121630 0.662448 0.093293 0.515562  L -0.018751 0.523599  C -0.012949 0.678251 -0.013507 0.833400 0.003195 0.987613  Z" fill="black" stroke="black" stroke-width="0.005"/>
    <path d="M -0.058450 -0.520544 C -0.085785 -0.664654 -0.152507 -0.795970 -0.203105 -0.931946  L -0.301786 -0.883161  C -0.254381 -0.755436 -0.191955 -0.632041 -0.165948 -0.496834  Z" fill="black" stroke="black" stroke-width="0.005"/>
    <path d="M -0.733204 -1.835016 C -0.809107 -1.964261 -0.870433 -2.101067 -0.937147 -2.234894  L -1.098910 -2.146800  C -1.009579 -2.020362 -0.925024 -1.890147 -0.825622 -1.771162  Z" fill="black" stroke="black" stroke-width="0.005"/>
    <path d="M 0.203017 -2.117454 C 0.115344 -1.979094 -0.004662 -1.866686 -0.113386 -1.745860  L -0.040649 -1.655215  C 0.093768 -1.766134 0.235783 -1.869337 0.351311 -2.001764  Z" fill="black" stroke="black" stroke-width="0.005"/>
    <path d="M -0.936767 -1.112190 C -1.066944 -1.035259 -1.183458 -0.938410 -1.304339 -0.848290  L -1.176452 -0.717212  C -1.075606 -0.819573 -0.981475 -0.929286 -0.871137 -1.022340  Z" fill="black" stroke="black" stroke-width="0.005"/>
    <path d="M 0.9276 1.2018 C 0.9945 1.1251, 1.1405 0.9839, 1.2195 0.9196" stroke-width="0.18560000000000001"/>
  </g>
</svg>
