<?xml version="1.0" encoding="utf-8" ?>
<svg xmlns="http://www.w3.org/2000/svg" xmlns:ev="http://www.w3.org/2001/xml-events" xmlns:xlink="http://www.w3.org/1999/xlink" baseProfile="full" version="1.1" viewBox="-4.131232293242199 -6.935498249761751 10.035072298201829 10.155753039407124">
  <defs/>
  <g stroke="none">
    <path d="M 1.119270 0.198730 C 1.757800 0.417412 2.428428 0.519622 3.099155 0.570220  L 3.097888 0.270222  C 2.452277 0.258596 1.806947 0.181963 1.182936 0.010215  Z" fill="black" stroke="black" stroke-width="0.005"/>
    <path d="M 1.927716 1.454404 C 2.185345 0.833653 2.439078 0.211333 2.670223 -0.419788  L 2.303677 -0.574293  C 2.006074 0.017574 1.713077 0.612337 1.388972 1.190293  Z" fill="white" stroke="white" stroke-width="0"/>
    <path d="M 1.793030 1.388376 C 2.067207 0.778065 2.330814 0.163070 2.578587 -0.458414  L 2.395313 -0.535667  C 2.114303 0.066190 1.831087 0.667401 1.523658 1.256320  Z" fill="black" stroke="black" stroke-width="0.005"/>
    <path d="M -0.579336 0.588309 C -0.661813 1.247123 -0.319607 1.723557 0.222111 2.045923  L 0.317095 1.761357  C -0.131261 1.493318 -0.421261 1.179973 -0.410733 0.619856  Z" fill="black" stroke="black" stroke-width="0.005"/>
    <path d="M -0.234294 0.675047 C -0.603556 0.999689 -0.985406 1.003931 -1.422779 0.854413  L -1.703218 1.384842  C -1.031338 1.553506 -0.400168 1.458262 0.044207 0.875362  Z" fill="white" stroke="white" stroke-width="0"/>
    <path d="M -0.164669 0.725126 C -0.562505 1.119547 -0.989402 1.126193 -1.492889 0.987020  L -1.633108 1.252235  C -1.025855 1.421414 -0.444951 1.339899 -0.025418 0.825283  Z" fill="black" stroke="black" stroke-width="0.005"/>
    <path d="M -1.960850 -0.234400 C -1.747216 -0.863446 -1.507972 -1.483468 -1.266737 -2.102342  L -1.449175 -2.181546  C -1.727559 -1.573158 -1.990314 -0.957799 -2.242383 -0.338029  Z" fill="black" stroke="black" stroke-width="0.005"/>
    <path d="M -0.778113 -0.936625 C -1.310737 -1.280582 -1.795190 -1.693165 -2.225861 -2.157079  L -2.661558 -1.744565  C -2.139657 -1.298165 -1.583538 -0.884290 -0.962869 -0.584161  Z" fill="white" stroke="white" stroke-width="0"/>
    <path d="M -0.824302 -0.848509 C -1.379450 -1.181221 -1.880528 -1.595038 -2.334785 -2.053950  L -2.552634 -1.847693  C -2.052847 -1.397529 -1.515800 -0.983080 -0.916680 -0.672277  Z" fill="black" stroke="black" stroke-width="0.005"/>
    <path d="M -2.206696 -3.086537 C -1.661752 -3.435702 -1.060285 -3.684572 -0.447396 -3.885846  L -0.493782 -4.079251  C -1.144441 -3.906800 -1.779498 -3.670990 -2.367547 -3.339771  Z" fill="black" stroke="black" stroke-width="0.005"/>
    <path d="M -1.571842 -4.785375 C -1.633452 -4.098734 -1.590824 -3.408572 -1.477235 -2.730311  L -1.084712 -2.794767  C -1.115867 -3.425695 -1.108435 -4.064243 -0.980264 -4.685200  Z" fill="white" stroke="white" stroke-width="0"/>
    <path d="M -1.423948 -4.760331 C -1.501266 -4.089861 -1.472410 -3.413051 -1.379104 -2.746425  L -1.182843 -2.778653  C -1.234937 -3.421639 -1.238730 -4.072549 -1.128159 -4.710244  Z" fill="black" stroke="black" stroke-width="0.005"/>
    <path d="M -0.226001 -5.228660 C 0.380631 -5.003100 0.941097 -4.672077 1.470397 -4.303313  L 1.597062 -4.456652  C 1.068089 -4.872927 0.497866 -5.238644 -0.120341 -5.509437  Z" fill="black" stroke="black" stroke-width="0.005"/>
    <path d="M 0.215359 -4.156662 C 0.693220 -4.573271 1.223782 -4.924485 1.788818 -5.209692  L 1.513223 -5.742652  C 0.939694 -5.364837 0.387987 -4.945042 -0.072126 -4.431581  Z" fill="white" stroke="white" stroke-width="0"/>
    <path d="M 0.143487 -4.225392 C 0.616777 -4.666788 1.153144 -5.033650 1.719919 -5.342932  L 1.582121 -5.609412  C 1.011116 -5.253911 0.464151 -4.852622 -0.000255 -4.362852  Z" fill="black" stroke="black" stroke-width="0.005"/>
    <path d="M 3.155627 -3.012722 C 3.189146 -3.686832 3.101655 -4.359549 2.964447 -5.018034  L 2.676553 -4.933671  C 2.844268 -4.310164 2.949339 -3.668886 2.956943 -3.021757  Z" fill="black" stroke="black" stroke-width="0.005"/>
    <path d="M 4.132882 -3.852840 C 3.490217 -4.102345 2.815277 -4.252671 2.132106 -4.331517  L 2.085245 -3.936508  C 2.700091 -3.791576 3.311563 -3.607455 3.872670 -3.312202  Z" fill="white" stroke="white" stroke-width="0"/>
    <path d="M 4.067829 -3.717680 C 3.445054 -3.977796 2.786762 -4.137655 2.120390 -4.232765  L 2.096960 -4.035260  C 2.729195 -3.907105 3.355657 -3.730343 3.937723 -3.447361  Z" fill="black" stroke="black" stroke-width="0.005"/>
    <path d="M 2.938748 -0.899189 C 3.497588 -1.277667 3.982566 -1.752007 4.426282 -2.257522  L 4.185789 -2.436863  C 3.788365 -1.927999 3.339079 -1.458510 2.826522 -1.063391  Z" fill="black" stroke="black" stroke-width="0.005"/>
    <path d="M 3.033461 -2.309908 C 3.301306 -1.735300 3.491711 -1.128181 3.609140 -0.506233  L 4.197605 -0.623317  C 3.993549 -1.279092 3.743110 -1.925536 3.377289 -2.509933  Z" fill="white" stroke="white" stroke-width="0"/>
    <path d="M 3.119418 -2.359914 C 3.412346 -1.782829 3.616177 -1.165796 3.756256 -0.535504  L 4.050488 -0.594046  C 3.867173 -1.241213 3.633202 -1.877970 3.291332 -2.459927  Z" fill="black" stroke="black" stroke-width="0.005"/>
    <path d="M 0.040613 0.516021 C 0.041647 0.157174 -0.131471 -0.124136 -0.310164 -0.416257  L -0.401485 -0.329061  C -0.231961 -0.066970 -0.068924 0.188027 -0.058190 0.514336  Z" fill="black" stroke="black" stroke-width="0.005"/>
    <path d="M 0.515253 -0.126264 C 0.140439 -0.106890 -0.142035 0.087625 -0.435986 0.291833  L -0.297085 0.432425  C -0.042849 0.279038 0.205028 0.127664 0.515253 0.126264  Z" fill="white" stroke="white" stroke-width="0"/>
    <path d="M 0.515253 -0.063132 C 0.156655 -0.048060 -0.117241 0.135499 -0.401261 0.326981  L -0.331811 0.397277  C -0.067645 0.231205 0.188944 0.069241 0.515253 0.063132  Z" fill="black" stroke="black" stroke-width="0.005"/>
  </g>
  <g fill="none" stroke="black">
    <path d="M 3.0985 0.4202 C 3.5985 0.4181, 4.0009 -0.0744, 3.9034 -0.5648" stroke-width="0.305"/>
    <path d="M 1.6583 1.3223 C 1.4383 1.7713, 0.7439 2.0619, 0.2696 1.9036" stroke-width="0.305"/>
    <path d="M -1.563 1.1196 C -2.005 0.8859, -2.2743 0.183, -2.1016 -0.2862" stroke-width="0.305"/>
    <path d="M -2.2871 -3.2132 C -2.7092 -2.9451, -2.7875 -2.3139, -2.4437 -1.9508" stroke-width="0.305"/>
    <path d="M -1.2761 -4.7353 C -1.1926 -5.2283, -0.6411 -5.5451, -0.1732 -5.369" stroke-width="0.305"/>
    <path d="M 2.8205 -4.9759 C 2.6799 -5.4557, 2.0952 -5.7058, 1.651 -5.4762" stroke-width="0.305"/>
    <path d="M 4.0028 -3.5825 C 4.4533 -3.3657, 4.6049 -2.748, 4.306 -2.3472" stroke-width="0.305"/>
    <path d="M 2.8826 -0.9813 C 2.7481 -0.8893, 2.5502 -0.6472, 2.4869 -0.497" stroke-width="0.2039"/>
    <path d="M -0.410733 0.619856 C -0.415492 0.536842 -0.359480 0.469877 -0.331811 0.397277  L -0.401261 0.326981  C -0.461849 0.410972 -0.557479 0.477650 -0.579336 0.588309  Z" fill="black" stroke="black" stroke-width="0.005"/>
    <path d="M 0.515253 0.063132 C 0.724404 0.072415 0.920454 0.144226 1.119270 0.198730  L 1.182936 0.010215  C 0.962192 -0.028060 0.741478 -0.078491 0.515253 -0.063132  Z" fill="black" stroke="black" stroke-width="0.005"/>
    <path d="M 3.2054 -2.4099 C 3.1234 -2.5508, 3.0489 -2.8544, 3.0563 -3.0172" stroke-width="0.2039"/>
    <path d="M 0.0716 -4.2941 C -0.041 -4.1763, -0.3121 -4.0206, -0.4706 -3.9825" stroke-width="0.2039"/>
    <path d="M -0.916680 -0.672277 C -0.724446 -0.590110 -0.567379 -0.451628 -0.401485 -0.329061  L -0.310164 -0.416257  C -0.472258 -0.570950 -0.628241 -0.734158 -0.824302 -0.848509  Z" fill="black" stroke="black" stroke-width="0.005"/>
    <path d="M -0.058190 0.514336 C -0.066113 0.597306 -0.128902 0.657280 -0.164669 0.725126  L -0.025418 0.825283  C -0.001096 0.724401 0.062804 0.626488 0.040613 0.516021  Z" fill="black" stroke="black" stroke-width="0.005"/>
    <path d="M -1.358 -2.1419 C -1.2931 -2.2914, -1.2546 -2.6017, -1.281 -2.7625" stroke-width="0.2039"/>
    <path d="M 1.5337 -4.38 C 1.6594 -4.2762, 1.9468 -4.1532, 2.1087 -4.134" stroke-width="0.2039"/>
  </g>
</svg>
