<?xml version="1.0" encoding="utf-8" ?>
<svg xmlns="http://www.w3.org/2000/svg" xmlns:ev="http://www.w3.org/2001/xml-events" xmlns:xlink="http://www.w3.org/1999/xlink" baseProfile="full" version="1.1" viewBox="-3.811309144968161 -2.886118981144388 7.7317629623835025 8.784073835711027">
  <defs/>
  <g stroke="none">
    <path d="M -1.865645 3.844244 C -1.196635 3.927668 -0.553162 3.754434 0.031612 3.439861  L -0.072494 3.281192  C -0.618900 3.529551 -1.202924 3.653945 -1.802204 3.551028  Z" fill="black" stroke="black" stroke-width="0.005"/>
    <path d="M -1.296907 2.991451 C -1.115668 3.678602 -0.673732 4.221485 -0.135647 4.664296  L 0.161008 4.142764  C -0.304247 3.815291 -0.707818 3.435061 -0.930105 2.893920  Z" fill="white" stroke="white" stroke-width="0"/>
    <path d="M -1.205207 2.967068 C -1.013260 3.614029 -0.583447 4.125180 -0.061483 4.533913  L 0.086844 4.273147  C -0.388817 3.911348 -0.816854 3.500514 -1.021805 2.918303  Z" fill="black" stroke="black" stroke-width="0.005"/>
    <path d="M -1.267256 2.418133 C -1.624603 1.882587 -1.886300 1.290959 -2.076953 0.678035  L -2.365687 0.759476  C -2.126337 1.387518 -1.829713 1.998300 -1.418041 2.533365  Z" fill="black" stroke="black" stroke-width="0.005"/>
    <path d="M -1.066735 1.175065 C -1.738845 1.405836 -2.248404 1.885888 -2.651325 2.454466  L -2.109836 2.712903  C -1.816588 2.225207 -1.466334 1.795099 -0.942664 1.534085  Z" fill="white" stroke="white" stroke-width="0"/>
    <path d="M -1.035717 1.264820 C -1.667012 1.503334 -2.145826 1.969011 -2.515953 2.519076  L -2.245209 2.648294  C -1.918510 2.147747 -1.539522 1.691070 -0.973682 1.444330  Z" fill="black" stroke="black" stroke-width="0.005"/>
    <path d="M -0.378116 -0.384445 C -0.463718 -0.914272 -0.221532 -1.200681 0.206587 -1.448746  L 0.118386 -1.735487  C -0.416754 -1.427414 -0.718975 -0.960839 -0.537821 -0.327596  Z" fill="black" stroke="black" stroke-width="0.005"/>
    <path d="M -1.484890 -0.515983 C -1.054407 -0.774190 -0.668520 -0.653155 -0.260210 -0.435649  L -0.008288 -0.656414  C -0.521201 -1.128941 -1.132977 -1.308486 -1.801216 -1.025823  Z" fill="white" stroke="white" stroke-width="0"/>
    <path d="M -1.563971 -0.643443 C -1.062237 -0.905585 -0.644920 -0.763506 -0.197230 -0.490840  L -0.071269 -0.601223  C -0.551801 -1.015522 -1.119635 -1.170460 -1.722135 -0.898363  Z" fill="black" stroke="black" stroke-width="0.005"/>
    <path d="M 2.451442 0.733526 C 2.001983 0.233789 1.396002 -0.013217 0.741413 -0.087375  L 0.739205 0.092230  C 1.308418 0.231002 1.834303 0.429271 2.209245 0.910559  Z" fill="black" stroke="black" stroke-width="0.005"/>
    <path d="M 1.242653 0.900818 C 1.695655 0.342600 1.795401 -0.336160 1.714388 -1.028991  L 1.144136 -0.842408  C 1.246940 -0.315599 1.244153 0.187375 0.963645 0.670209  Z" fill="white" stroke="white" stroke-width="0"/>
    <path d="M 1.172901 0.843166 C 1.579546 0.307568 1.664006 -0.334578 1.571825 -0.982345  L 1.286699 -0.889054  C 1.372654 -0.317702 1.361771 0.221875 1.033397 0.727862  Z" fill="black" stroke="black" stroke-width="0.005"/>
    <path d="M 0.859711 2.161784 C 1.125867 2.717253 1.107629 3.307182 1.019061 3.896113  L 1.306963 3.980446  C 1.395817 3.324309 1.343785 2.660035 1.021161 2.067651  Z" fill="black" stroke="black" stroke-width="0.005"/>
    <path d="M 0.497214 3.351937 C 1.187133 3.235269 1.812895 2.916421 2.384674 2.525434  L 1.979902 2.082535  C 1.513924 2.465648 1.014291 2.806323 0.426275 2.979077  Z" fill="white" stroke="white" stroke-width="0"/>
    <path d="M 0.479479 3.258722 C 1.141843 3.125745 1.740891 2.806853 2.283481 2.414709  L 2.081095 2.193260  C 1.598551 2.590206 1.050312 2.905585 0.444010 3.072292  Z" fill="black" stroke="black" stroke-width="0.005"/>
    <path d="M -0.041364 0.345123 C 0.013202 0.116947 -0.003825 -0.115864 -0.008565 -0.347034  L -0.077321 -0.338419  C -0.075724 -0.115940 -0.062196 0.108405 -0.117142 0.327260  Z" fill="black" stroke="black" stroke-width="0.005"/>
    <path d="M 0.345407 -0.081430 C 0.128730 -0.077274 -0.066962 -0.161979 -0.265925 -0.231685  L -0.335949 -0.107387  C -0.114916 -0.021581 0.101154 0.080255 0.345407 0.081430  Z" fill="white" stroke="white" stroke-width="0"/>
    <path d="M 0.345407 -0.040715 C 0.121845 -0.037924 -0.078955 -0.126890 -0.283431 -0.200610  L -0.318443 -0.138462  C -0.102929 -0.056689 0.108056 0.040837 0.345407 0.040715  Z" fill="black" stroke="black" stroke-width="0.005"/>
    <path d="M 0.178839 1.022784 C -0.063391 0.998749 -0.293230 1.069032 -0.524710 1.123227  L -0.489224 1.209471  C -0.271744 1.150052 -0.056258 1.076326 0.174186 1.089098  Z" fill="black" stroke="black" stroke-width="0.005"/>
    <path d="M 0.120603 1.235563 C -0.028412 1.077811 -0.023775 0.881017 -0.059594 0.686592  L -0.217355 0.668870  C -0.176343 0.911409 -0.162934 1.142250 0.023503 1.331749  Z" fill="white" stroke="white" stroke-width="0"/>
    <path d="M 0.096328 1.259610 C -0.063695 1.094639 -0.059793 0.887630 -0.099034 0.682161  L -0.177914 0.673301  C -0.140016 0.904531 -0.127925 1.125664 0.047778 1.307702  Z" fill="black" stroke="black" stroke-width="0.005"/>
    <path d="M 0.242768 1.387595 C 0.489580 1.385582 0.665610 1.247683 0.860949 1.124144  L 0.800018 1.067198  C 0.622388 1.175953 0.467828 1.316751 0.242202 1.320179  Z" fill="black" stroke="black" stroke-width="0.005"/>
    <path d="M 0.806460 1.640837 C 0.708541 1.415598 0.534592 1.247769 0.373018 1.070801  L 0.286354 1.169191  C 0.419999 1.338530 0.566791 1.500508 0.641065 1.708240  Z" fill="white" stroke="white" stroke-width="0"/>
    <path d="M 0.765112 1.657688 C 0.672979 1.436885 0.505923 1.270484 0.351352 1.095399  L 0.308020 1.144593  C 0.448625 1.315865 0.602093 1.479337 0.682414 1.691389  Z" fill="black" stroke="black" stroke-width="0.005"/>
  </g>
  <g fill="none" stroke="black">
    <path d="M 1.163 3.9383 C 1.0225 4.4181, 0.4473 4.6507, 0.0127 4.4035" stroke-width="0.305"/>
    <path d="M -1.8339 3.6976 C -2.3226 3.5919, -2.5959 3.0349, -2.3806 2.5837" stroke-width="0.305"/>
    <path d="M -2.2213 0.7188 C -2.3571 0.2375, -2.0679 -0.5073, -1.6431 -0.7709" stroke-width="0.305"/>
    <path d="M 1.4293 -0.9357 C 1.2738 -1.4109, 0.6404 -1.7391, 0.1625 -1.5921" stroke-width="0.305"/>
    <path d="M 2.3303 0.822 C 2.6254 1.2257, 2.5514 1.9667, 2.1823 2.304" stroke-width="0.305"/>
    <path d="M -0.537821 -0.327596 C -0.498459 -0.228409 -0.391875 -0.197531 -0.318443 -0.138462  L -0.283431 -0.200610  C -0.316161 -0.259822 -0.379349 -0.309782 -0.378116 -0.384445  Z" fill="black" stroke="black" stroke-width="0.005"/>
    <path d="M 0.345407 0.040715 C 0.476690 0.057581 0.607936 0.075416 0.739205 0.092230  L 0.741413 -0.087375  C 0.609371 -0.072413 0.477162 -0.058011 0.345407 -0.040715  Z" fill="black" stroke="black" stroke-width="0.005"/>
    <path d="M 0.4617 3.1655 C 0.3315 3.1903, 0.0904 3.2878, -0.0204 3.3605" stroke-width="0.1948"/>
    <path d="M -0.973682 1.444330 C -0.809931 1.370669 -0.650130 1.288858 -0.489224 1.209471  L -0.524710 1.123227  C -0.694524 1.172183 -0.863699 1.224100 -1.035717 1.264820  Z" fill="black" stroke="black" stroke-width="0.005"/>
    <path d="M 0.174186 1.089098 C 0.225628 1.088641 0.264642 1.125504 0.308020 1.144593  L 0.351352 1.095399  C 0.295561 1.070084 0.246032 1.020941 0.178839 1.022784  Z" fill="black" stroke="black" stroke-width="0.005"/>
    <path d="M 0.682414 1.691389 C 0.727411 1.853212 0.797769 2.006152 0.859711 2.161784  L 1.021161 2.067651  C 0.934205 1.932219 0.839560 1.801133 0.765112 1.657688  Z" fill="black" stroke="black" stroke-width="0.005"/>
    <path d="M -1.1135 2.9427 C -1.1476 2.8146, -1.2621 2.5811, -1.3426 2.4757" stroke-width="0.1948"/>
    <path d="M -0.197230 -0.490840 C -0.136720 -0.459157 -0.115433 -0.389636 -0.077321 -0.338419  L -0.008565 -0.347034  C -0.026774 -0.430711 -0.014785 -0.526646 -0.071269 -0.601223  Z" fill="black" stroke="black" stroke-width="0.005"/>
    <path d="M -0.117142 0.327260 C -0.146375 0.440939 -0.158191 0.557943 -0.177914 0.673301  L -0.099034 0.682161  C -0.080306 0.569814 -0.069238 0.455903 -0.041364 0.345123  Z" fill="black" stroke="black" stroke-width="0.005"/>
    <path d="M 0.047778 1.307702 C 0.096354 1.369598 0.178559 1.363838 0.242768 1.387595  L 0.242202 1.320179  C 0.194402 1.301803 0.133149 1.304332 0.096328 1.259610  Z" fill="black" stroke="black" stroke-width="0.005"/>
    <path d="M 0.860949 1.124144 C 0.968953 1.035096 1.069665 0.937621 1.172901 0.843166  L 1.033397 0.727862  C 0.955767 0.840976 0.881556 0.956668 0.800018 1.067198  Z" fill="black" stroke="black" stroke-width="0.005"/>
  </g>
</svg>
