<?xml version="1.0" encoding="utf-8" ?>
<svg xmlns="http://www.w3.org/2000/svg" xmlns:ev="http://www.w3.org/2001/xml-events" xmlns:xlink="http://www.w3.org/1999/xlink" baseProfile="full" version="1.1" viewBox="-6.125100064164193 -4.238874844509388 8.888307414732388 7.443487924437169">
  <defs/>
  <g stroke="none">
    <path d="M -4.135421 -1.725224 C -3.576708 -1.892980 -3.128322 -1.697938 -2.673292 -1.391820  L -2.531830 -1.512047  C -3.011637 -1.945313 -3.590569 -2.163790 -4.239841 -2.006464  Z" fill="black" stroke="black" stroke-width="0.005"/>
    <path d="M -3.273114 -1.197984 C -3.078224 -1.746261 -2.692556 -2.134005 -2.237719 -2.468784  L -2.545208 -2.984003  C -3.069241 -2.525765 -3.487734 -1.967675 -3.627135 -1.270234  Z" fill="white" stroke="white" stroke-width="0"/>
    <path d="M -3.361619 -1.216047 C -3.181869 -1.806454 -2.781121 -2.224020 -2.314591 -2.597589  L -2.468336 -2.855199  C -2.977139 -2.433177 -3.384889 -1.908414 -3.538630 -1.252172  Z" fill="black" stroke="black" stroke-width="0.005"/>
    <path d="M -0.990543 -2.385355 C -0.587715 -1.907852 -0.348925 -1.325368 -0.202119 -0.724501  L -0.020248 -0.744736  C -0.133758 -1.403909 -0.362176 -2.039764 -0.763985 -2.582005  Z" fill="black" stroke="black" stroke-width="0.005"/>
    <path d="M -0.955404 -1.022714 C -0.421165 -1.287595 0.151684 -1.333052 0.734013 -1.308377  L 0.807431 -1.903868  C 0.112340 -1.878293 -0.575106 -1.733035 -1.163605 -1.342122  Z" fill="white" stroke="white" stroke-width="0"/>
    <path d="M -1.007454 -1.102566 C -0.461620 -1.405762 0.143894 -1.461367 0.752367 -1.457250  L 0.789076 -1.754995  C 0.123281 -1.746948 -0.537948 -1.618667 -1.111554 -1.262270  Z" fill="black" stroke="black" stroke-width="0.005"/>
    <path d="M 1.603036 -0.485338 C 1.551647 0.038820 1.235622 0.196006 0.768292 0.277719  L 0.742583 0.438213  C 1.355581 0.444599 1.806873 0.159829 1.903020 -0.482284  Z" fill="black" stroke="black" stroke-width="0.005"/>
    <path d="M 1.460152 1.521166 C 1.744155 0.850677 1.490006 0.312620 0.894371 -0.037491  L 0.762708 0.259734  C 1.045832 0.560755 1.173035 0.807852 0.953609 1.199585  Z" fill="white" stroke="white" stroke-width="0"/>
    <path d="M 1.333516 1.440770 C 1.602527 0.849850 1.379078 0.365258 0.861455 0.036815  L 0.795623 0.185428  C 1.143096 0.508441 1.322565 0.812365 1.080245 1.279980  Z" fill="black" stroke="black" stroke-width="0.005"/>
    <path d="M -0.162483 1.631942 C -0.707940 1.343871 -1.122304 0.893813 -1.445375 0.376171  L -1.619653 0.453435  C -1.304415 1.041003 -0.874324 1.557499 -0.293826 1.901662  Z" fill="black" stroke="black" stroke-width="0.005"/>
    <path d="M -0.634802 0.439603 C -1.070042 0.864925 -1.607205 1.118900 -2.171185 1.317151  L -2.005304 1.893765  C -1.375592 1.604139 -0.785398 1.223018 -0.351755 0.671617  Z" fill="white" stroke="white" stroke-width="0"/>
    <path d="M -0.564040 0.497606 C -1.000369 0.944174 -1.544916 1.256219 -2.129714 1.461305  L -2.046774 1.749612  C -1.432540 1.487135 -0.856895 1.130554 -0.422517 0.613613  Z" fill="black" stroke="black" stroke-width="0.005"/>
    <path d="M -3.355813 0.918324 C -3.616529 0.358909 -3.580273 -0.222191 -3.481699 -0.810571  L -3.649836 -0.876660  C -3.836173 -0.241167 -3.863850 0.421227 -3.625042 1.050672  Z" fill="black" stroke="black" stroke-width="0.005"/>
    <path d="M -4.769071 -0.536326 C -4.260493 -0.019463 -3.609917 0.108894 -2.920314 -0.021520  L -3.026677 -0.377261  C -3.520540 -0.392687 -3.965343 -0.478247 -4.287617 -0.894380  Z" fill="white" stroke="white" stroke-width="0"/>
    <path d="M -4.648707 -0.625839 C -4.189807 -0.140333 -3.585266 -0.008330 -2.946905 -0.110455  L -3.000087 -0.288326  C -3.548430 -0.279352 -4.030716 -0.359924 -4.407981 -0.804866  Z" fill="black" stroke="black" stroke-width="0.005"/>
    <path d="M 0.303321 -0.027415 C 0.086593 -0.033917 -0.061704 0.096936 -0.234020 0.196922  L -0.176195 0.249998  C -0.023764 0.154155 0.107632 0.030818 0.303321 0.027415  Z" fill="black" stroke="black" stroke-width="0.005"/>
    <path d="M 0.284264 0.119180 C 0.129673 0.014931 0.099849 -0.160074 0.027052 -0.312142  L -0.127752 -0.286084  C -0.030433 -0.101207 0.027633 0.096999 0.224550 0.211157  Z" fill="white" stroke="white" stroke-width="0"/>
    <path d="M 0.269335 0.142174 C 0.107057 0.032762 0.064010 -0.142236 -0.011649 -0.305627  L -0.089051 -0.292598  C 0.001032 -0.114904 0.054160 0.075600 0.239478 0.188163  Z" fill="black" stroke="black" stroke-width="0.005"/>
    <path d="M 0.370857 0.202794 C 0.475595 0.183953 0.576303 0.148891 0.678719 0.121246  L 0.667085 0.086850  C 0.566335 0.115114 0.467331 0.150646 0.364224 0.170363  Z" fill="black" stroke="black" stroke-width="0.005"/>
    <path d="M 0.649535 0.256635 C 0.583791 0.172029 0.505533 0.098531 0.433092 0.020059  L 0.386646 0.067236  C 0.455603 0.144999 0.530302 0.218037 0.592559 0.301663  Z" fill="white" stroke="white" stroke-width="0"/>
    <path d="M 0.635291 0.267892 C 0.570416 0.183533 0.493050 0.110149 0.421481 0.031853  L 0.398257 0.055442  C 0.468085 0.133382 0.543671 0.206537 0.606803 0.290406  Z" fill="black" stroke="black" stroke-width="0.005"/>
    <path d="M -2.503796 -0.307683 C -2.152951 -0.463021 -1.817186 -0.648974 -1.484312 -0.838931  L -1.550426 -0.946689  C -1.878842 -0.760291 -2.206899 -0.572028 -2.552733 -0.418823  Z" fill="black" stroke="black" stroke-width="0.005"/>
    <path d="M -2.419923 -1.005482 C -2.215635 -0.690474 -2.044892 -0.356127 -1.872971 -0.023045  L -1.644711 -0.131805  C -1.822515 -0.474481 -2.004757 -0.815475 -2.216791 -1.138622  Z" fill="white" stroke="white" stroke-width="0"/>
    <path d="M -2.369140 -1.038767 C -2.162500 -0.721950 -1.989862 -0.385409 -1.815906 -0.050235  L -1.701776 -0.104615  C -1.877532 -0.445201 -2.057894 -0.784002 -2.267574 -1.105337  Z" fill="black" stroke="black" stroke-width="0.005"/>
  </g>
  <g fill="none" stroke="black">
    <path d="M -4.5283 -0.7154 C -4.8267 -1.1166, -4.6564 -1.6918, -4.1876 -1.8658" stroke-width="0.305"/>
    <path d="M -0.8773 -2.4837 C -1.205 -2.8613, -1.9621 -2.9826, -2.3915 -2.7264" stroke-width="0.305"/>
    <path d="M 1.753 -0.4838 C 1.7581 -0.9838, 1.267 -1.5449, 0.7707 -1.6061" stroke-width="0.305"/>
    <path d="M -0.2282 1.7668 C 0.2214 1.9857, 0.9389 1.7825, 1.2069 1.3604" stroke-width="0.305"/>
    <path d="M -3.4904 0.9845 C -3.2698 1.4332, -2.5688 1.7437, -2.0882 1.6055" stroke-width="0.305"/>
    <path d="M -3.4501 -1.2341 C -3.4706 -1.134, -3.5284 -0.9387, -3.5658 -0.8436" stroke-width="0.1857"/>
    <path d="M -0.422517 0.613613 C -0.345252 0.489265 -0.259466 0.370372 -0.176195 0.249998  L -0.234020 0.196922  C -0.344281 0.296772 -0.456947 0.394172 -0.564040 0.497606  Z" fill="black" stroke="black" stroke-width="0.005"/>
    <path d="M 0.303321 0.027415 C 0.338726 0.020045 0.367600 0.045466 0.398257 0.055442  L 0.421481 0.031853  C 0.383783 0.011281 0.352469 -0.029442 0.303321 -0.027415  Z" fill="black" stroke="black" stroke-width="0.005"/>
    <path d="M 0.606803 0.290406 C 0.621198 0.364807 0.696907 0.391878 0.742583 0.438213  L 0.768292 0.277719  C 0.729091 0.275834 0.676413 0.297048 0.635291 0.267892  Z" fill="black" stroke="black" stroke-width="0.005"/>
    <path d="M -1.111554 -1.262270 C -1.255852 -1.154362 -1.403596 -1.051113 -1.550426 -0.946689  L -1.484312 -0.838931  C -1.325116 -0.926338 -1.165303 -1.012678 -1.007454 -1.102566  Z" fill="black" stroke="black" stroke-width="0.005"/>
    <path d="M -2.552733 -0.418823 C -2.698755 -0.364804 -2.850585 -0.330085 -3.000087 -0.288326  L -2.946905 -0.110455  C -2.798239 -0.173872 -2.646248 -0.230577 -2.503796 -0.307683  Z" fill="black" stroke="black" stroke-width="0.005"/>
    <path d="M -2.673292 -1.391820 C -2.562939 -1.282112 -2.468643 -1.157988 -2.369140 -1.038767  L -2.267574 -1.105337  C -2.353956 -1.241881 -2.433996 -1.382856 -2.531830 -1.512047  Z" fill="black" stroke="black" stroke-width="0.005"/>
    <path d="M -1.815906 -0.050235 C -1.748395 0.116846 -1.684584 0.285372 -1.619653 0.453435  L -1.445375 0.376171  C -1.530006 0.215476 -1.613345 0.054030 -1.701776 -0.104615  Z" fill="black" stroke="black" stroke-width="0.005"/>
    <path d="M 0.861455 0.036815 C 0.788343 0.015144 0.729235 0.068009 0.667085 0.086850  L 0.678719 0.121246  C 0.717523 0.140417 0.775354 0.140519 0.795623 0.185428  Z" fill="black" stroke="black" stroke-width="0.005"/>
    <path d="M 0.364224 0.170363 C 0.328618 0.177068 0.299679 0.152027 0.269335 0.142174  L 0.239478 0.188163  C 0.282037 0.194338 0.325605 0.221898 0.370857 0.202794  Z" fill="black" stroke="black" stroke-width="0.005"/>
    <path d="M -0.011649 -0.305627 C -0.018688 -0.451920 -0.017780 -0.598433 -0.020248 -0.744736  L -0.202119 -0.724501  C -0.165812 -0.580203 -0.132341 -0.434992 -0.089051 -0.292598  Z" fill="black" stroke="black" stroke-width="0.005"/>
  </g>
</svg>
