<?xml version="1.0" encoding="utf-8" ?>
<svg xmlns="http://www.w3.org/2000/svg" xmlns:ev="http://www.w3.org/2001/xml-events" xmlns:xlink="http://www.w3.org/1999/xlink" baseProfile="full" version="1.1" viewBox="-3.232002925052968 -5.781278281785964 7.803411548177611 8.744983263602373">
  <defs/>
  <g stroke="none">
    <path d="M -0.285056 -0.765110 C -0.556049 -1.331139 -0.672571 -1.951390 -0.680811 -2.574725  L -0.980580 -2.586499  C -0.927414 -1.919830 -0.779111 -1.258187 -0.443128 -0.672415  Z" fill="black" stroke="black" stroke-width="0.005"/>
    <path d="M -1.331297 -0.644818 C -0.940217 -1.080761 -0.411723 -1.274971 0.135594 -1.426035  L 0.123475 -1.801285  C -0.572067 -1.738656 -1.233049 -1.515701 -1.770651 -1.053435  Z" fill="white" stroke="white" stroke-width="0"/>
    <path d="M -1.441135 -0.746972 C -1.008353 -1.174930 -0.457860 -1.408538 0.132564 -1.519848  L 0.126505 -1.707473  C -0.532889 -1.629120 -1.159560 -1.401986 -1.660812 -0.951281  Z" fill="black" stroke="black" stroke-width="0.005"/>
    <path d="M 2.028600 -4.558876 C 1.443170 -4.243077 1.193952 -3.693924 1.184685 -3.053331  L 1.364275 -3.075707  C 1.452535 -3.602980 1.619210 -4.033805 2.137264 -4.279248  Z" fill="black" stroke="black" stroke-width="0.005"/>
    <path d="M 0.251247 -3.527001 C 0.809949 -3.674255 1.336956 -3.526471 1.856988 -3.326529  L 2.066407 -3.616682  C 1.475744 -3.989292 0.813914 -4.194882 0.108145 -4.109686  Z" fill="white" stroke="white" stroke-width="0"/>
    <path d="M 0.215471 -3.672672 C 0.815858 -3.805023 1.365495 -3.635161 1.909343 -3.399067  L 2.014052 -3.544144  C 1.444491 -3.879492 0.809746 -4.060298 0.143921 -3.964015  Z" fill="black" stroke="black" stroke-width="0.005"/>
    <path d="M 2.244299 -3.187847 C 2.752070 -2.841369 3.018942 -2.335818 3.221215 -1.777281  L 3.514948 -1.838279  C 3.280185 -2.454776 2.910993 -3.003789 2.330083 -3.344858  Z" fill="black" stroke="black" stroke-width="0.005"/>
    <path d="M 2.790732 -3.761625 C 2.817571 -3.251076 2.533630 -2.935064 2.158821 -2.642487  L 2.273237 -2.299088  C 2.910014 -2.591658 3.338068 -3.081242 3.389048 -3.806544  Z" fill="white" stroke="white" stroke-width="0"/>
    <path d="M 2.940311 -3.772855 C 2.942104 -3.199602 2.625177 -2.863523 2.187425 -2.556637  L 2.244633 -2.384938  C 2.818686 -2.669384 3.206812 -3.130942 3.239469 -3.795314  Z" fill="black" stroke="black" stroke-width="0.005"/>
    <path d="M 1.574176 1.088670 C 1.764845 0.442115 1.699720 -0.221260 1.486237 -0.850039  L 1.314320 -0.774644  C 1.468339 -0.193896 1.494792 0.403528 1.295139 0.978495  Z" fill="black" stroke="black" stroke-width="0.005"/>
    <path d="M 0.789981 0.201358 C 1.485928 0.276484 2.173289 0.132793 2.826477 -0.097179  L 2.546839 -0.628029  C 1.999916 -0.375067 1.433247 -0.176983 0.821019 -0.163817  Z" fill="white" stroke="white" stroke-width="0"/>
    <path d="M 0.797741 0.110064 C 1.471120 0.160787 2.132078 0.009454 2.756568 -0.229892  L 2.616748 -0.495317  C 2.050724 -0.234108 1.440815 -0.071937 0.813260 -0.072523  Z" fill="black" stroke="black" stroke-width="0.005"/>
    <path d="M -0.202003 0.506437 C -0.632010 0.828799 -0.999298 0.747914 -1.419178 0.484641  L -1.631432 0.696650  C -1.108866 1.025447 -0.554858 1.075073 -0.078804 0.620136  Z" fill="black" stroke="black" stroke-width="0.005"/>
    <path d="M -0.603472 0.307292 C -0.855859 0.999565 -0.546213 1.531366 0.024568 1.913835  L 0.224232 1.348031  C -0.128849 1.114127 -0.366613 0.911192 -0.292083 0.431629  Z" fill="white" stroke="white" stroke-width="0"/>
    <path d="M -0.525624 0.338376 C -0.730972 0.964017 -0.447425 1.442545 0.074484 1.772384  L 0.174316 1.489482  C -0.244212 1.224064 -0.475493 0.927497 -0.369930 0.400545  Z" fill="black" stroke="black" stroke-width="0.005"/>
    <path d="M 0.363018 -0.043849 C 0.112372 -0.042579 -0.102721 0.070357 -0.324744 0.166201  L -0.285714 0.226824  C -0.075732 0.142118 0.128685 0.040629 0.363018 0.043849  Z" fill="black" stroke="black" stroke-width="0.005"/>
    <path d="M 0.025747 0.369212 C 0.065896 0.113619 -0.015351 -0.123615 -0.077318 -0.365370  L -0.235589 -0.289777  C -0.172901 -0.080180 -0.094494 0.125726 -0.117302 0.351028  Z" fill="white" stroke="white" stroke-width="0"/>
    <path d="M -0.010015 0.364666 C 0.025827 0.116660 -0.054752 -0.112767 -0.116885 -0.346471  L -0.196021 -0.308675  C -0.133528 -0.091048 -0.054365 0.122712 -0.081540 0.355574  Z" fill="black" stroke="black" stroke-width="0.005"/>
    <path d="M 1.304935 -1.883930 C 1.104231 -1.735425 0.867239 -1.711636 0.632658 -1.668219  L 0.632081 -1.572314  C 0.884043 -1.626131 1.138675 -1.657670 1.349614 -1.826067  Z" fill="black" stroke="black" stroke-width="0.005"/>
    <path d="M 1.275820 -1.310781 C 1.165283 -1.523143 1.179461 -1.752701 1.173319 -1.981770  L 1.030382 -2.012527  C 1.019820 -1.745433 0.987347 -1.482346 1.103235 -1.227075  Z" fill="white" stroke="white" stroke-width="0"/>
    <path d="M 1.232674 -1.289855 C 1.120949 -1.512983 1.139600 -1.750897 1.137585 -1.989459  L 1.066116 -2.004838  C 1.059776 -1.747264 1.031970 -1.492573 1.146382 -1.248002  Z" fill="black" stroke="black" stroke-width="0.005"/>
    <path d="M 1.810351 -2.423553 C 1.580284 -2.397408 1.385664 -2.280664 1.185143 -2.178524  L 1.222927 -2.125009  C 1.414770 -2.216556 1.601672 -2.322573 1.819234 -2.342471  Z" fill="black" stroke="black" stroke-width="0.005"/>
    <path d="M 1.291205 -2.637700 C 1.370402 -2.440296 1.351070 -2.230611 1.358183 -2.024873  L 1.487330 -2.002813  C 1.496004 -2.233973 1.520707 -2.465714 1.445193 -2.691559  Z" fill="white" stroke="white" stroke-width="0"/>
    <path d="M 1.329702 -2.651165 C 1.405512 -2.446269 1.390398 -2.231925 1.390470 -2.019358  L 1.455044 -2.008328  C 1.460790 -2.233290 1.482258 -2.459222 1.406696 -2.678094  Z" fill="black" stroke="black" stroke-width="0.005"/>
  </g>
  <g fill="none" stroke="black">
    <path d="M -1.5253 0.5906 C -1.8787 0.2369, -1.8915 -0.483, -1.551 -0.8491" stroke-width="0.305"/>
    <path d="M 0.1797 -3.8183 C -0.3059 -3.6991, -0.8111 -3.0802, -0.8307 -2.5806" stroke-width="0.305"/>
    <path d="M 2.0829 -4.4191 C 2.549 -4.6002, 3.0525 -4.2827, 3.0899 -3.7841" stroke-width="0.305"/>
    <path d="M 2.6867 -0.3626 C 3.129 -0.5956, 3.4697 -1.3182, 3.3681 -1.8078" stroke-width="0.305"/>
    <path d="M 1.4347 1.0336 C 1.251 1.4986, 0.5959 1.7973, 0.1244 1.6309" stroke-width="0.305"/>
    <path d="M -0.369930 0.400545 C -0.368803 0.332276 -0.314953 0.283177 -0.285714 0.226824  L -0.324744 0.166201  C -0.391992 0.220550 -0.485053 0.252408 -0.525624 0.338376  Z" fill="black" stroke="black" stroke-width="0.005"/>
    <path d="M 0.363018 0.043849 C 0.508951 0.059243 0.653064 0.087118 0.797741 0.110064  L 0.813260 -0.072523  C 0.663099 -0.064828 0.512422 -0.061792 0.363018 -0.043849  Z" fill="black" stroke="black" stroke-width="0.005"/>
    <path d="M 2.2872 -3.2664 C 2.2026 -3.3126, 2.0399 -3.4152, 1.9617 -3.4716" stroke-width="0.1839"/>
    <path d="M -0.443128 -0.672415 C -0.354024 -0.555933 -0.276833 -0.430928 -0.196021 -0.308675  L -0.116885 -0.346471  C -0.171984 -0.486310 -0.222426 -0.628198 -0.285056 -0.765110  Z" fill="black" stroke="black" stroke-width="0.005"/>
    <path d="M -0.081540 0.355574 C -0.100627 0.421493 -0.162520 0.458713 -0.202003 0.506437  L -0.078804 0.620136  C -0.053958 0.537057 0.005681 0.458238 -0.010015 0.364666  Z" fill="black" stroke="black" stroke-width="0.005"/>
    <path d="M 0.132564 -1.519848 C 0.298527 -1.541859 0.465477 -1.555982 0.632081 -1.572314  L 0.632658 -1.668219  C 0.464004 -1.681586 0.295476 -1.697625 0.126505 -1.707473  Z" fill="black" stroke="black" stroke-width="0.005"/>
    <path d="M 1.349614 -1.826067 C 1.415067 -1.867423 1.422614 -1.947887 1.455044 -2.008328  L 1.390470 -2.019358  C 1.363727 -1.974579 1.354413 -1.914189 1.304935 -1.883930  Z" fill="black" stroke="black" stroke-width="0.005"/>
    <path d="M 1.406696 -2.678094 C 1.375649 -2.808711 1.376813 -2.943414 1.364275 -3.075707  L 1.184685 -3.053331  C 1.230418 -2.918528 1.262702 -2.778007 1.329702 -2.651165  Z" fill="black" stroke="black" stroke-width="0.005"/>
    <path d="M 2.187425 -2.556637 C 2.068432 -2.494828 1.936751 -2.465427 1.810351 -2.423553  L 1.819234 -2.342471  C 1.960864 -2.354658 2.104852 -2.352134 2.244633 -2.384938  Z" fill="black" stroke="black" stroke-width="0.005"/>
    <path d="M 1.185143 -2.178524 C 1.116710 -2.142357 1.103089 -2.062638 1.066116 -2.004838  L 1.137585 -1.989459  C 1.164234 -2.034169 1.173587 -2.094488 1.222927 -2.125009  Z" fill="black" stroke="black" stroke-width="0.005"/>
    <path d="M 1.146382 -1.248002 C 1.205341 -1.091272 1.258598 -0.932473 1.314320 -0.774644  L 1.486237 -0.850039  C 1.402726 -0.997203 1.321126 -1.145590 1.232674 -1.289855  Z" fill="black" stroke="black" stroke-width="0.005"/>
  </g>
</svg>
