<?xml version="1.0" encoding="utf-8" ?>
<svg xmlns="http://www.w3.org/2000/svg" xmlns:ev="http://www.w3.org/2001/xml-events" xmlns:xlink="http://www.w3.org/1999/xlink" baseProfile="full" version="1.1" viewBox="-4.94607637665414 -3.6161382718935364 10.708271069337151 8.05142065303169">
  <defs/>
  <g stroke="none">
    <path d="M -3.476928 0.856662 C -3.030807 1.361608 -2.430683 1.643787 -1.780719 1.772624  L -1.761202 1.584695  C -2.328185 1.402737 -2.859299 1.168147 -3.234758 0.679593  Z" fill="black" stroke="black" stroke-width="0.005"/>
    <path d="M -2.491476 0.595285 C -2.806963 1.234092 -2.815231 1.932173 -2.676941 2.615619  L -2.118964 2.395024  C -2.271085 1.853401 -2.337083 1.312609 -2.152789 0.762866  Z" fill="white" stroke="white" stroke-width="0"/>
    <path d="M -2.406804 0.637180 C -2.686791 1.250858 -2.684258 1.915478 -2.537446 2.560470  L -2.258458 2.450173  C -2.397938 1.870226 -2.458591 1.296057 -2.237460 0.720971  Z" fill="black" stroke="black" stroke-width="0.005"/>
    <path d="M -2.090835 0.195763 C -1.993559 -0.438120 -1.779131 -1.046084 -1.493608 -1.617799  L -1.757701 -1.760118  C -2.019400 -1.141418 -2.222484 -0.493167 -2.279092 0.179720  Z" fill="black" stroke="black" stroke-width="0.005"/>
    <path d="M -1.103714 -0.595567 C -1.758441 -0.874084 -2.458566 -0.856904 -3.138496 -0.700780  L -2.907633 -0.146973  C -2.364734 -0.311634 -1.818368 -0.395628 -1.256960 -0.236556  Z" fill="white" stroke="white" stroke-width="0"/>
    <path d="M -1.142025 -0.505814 C -1.770739 -0.751886 -2.438001 -0.725550 -3.080780 -0.562328  L -2.965349 -0.285425  C -2.388672 -0.438448 -1.802613 -0.523732 -1.218648 -0.326308  Z" fill="black" stroke="black" stroke-width="0.005"/>
    <path d="M 1.669177 -2.448824 C 1.050604 -2.181883 0.593564 -1.700727 0.265420 -1.124928  L 0.435614 -1.047435  C 0.788655 -1.528171 1.180100 -1.959270 1.762156 -2.163596  Z" fill="black" stroke="black" stroke-width="0.005"/>
    <path d="M -0.279123 -1.995350 C 0.287456 -1.838940 0.701735 -1.452558 1.086367 -1.031489  L 1.409985 -1.210130  C 1.040155 -1.801913 0.544237 -2.292713 -0.107227 -2.570200  Z" fill="white" stroke="white" stroke-width="0"/>
    <path d="M -0.236149 -2.139063 C 0.341117 -1.941382 0.799094 -1.553059 1.167271 -1.076149  L 1.329081 -1.165469  C 0.960702 -1.718253 0.475790 -2.176688 -0.150201 -2.426487  Z" fill="black" stroke="black" stroke-width="0.005"/>
    <path d="M 2.636385 -0.464937 C 3.213522 -0.548351 3.637065 -0.309220 4.046114 0.060225  L 4.287101 -0.118451  C 3.810168 -0.552521 3.237610 -0.793717 2.584805 -0.642791  Z" fill="black" stroke="black" stroke-width="0.005"/>
    <path d="M 3.369940 0.163730 C 3.634578 -0.497225 3.583477 -1.192142 3.386284 -1.859960  L 2.851163 -1.588582  C 3.054555 -1.064408 3.169239 -0.533575 3.033752 0.030184  Z" fill="white" stroke="white" stroke-width="0"/>
    <path d="M 3.285893 0.130343 C 3.515755 -0.503153 3.455909 -1.163719 3.252503 -1.792115  L 2.984943 -1.656426  C 3.177646 -1.092544 3.289264 -0.528031 3.117799 0.063571  Z" fill="black" stroke="black" stroke-width="0.005"/>
    <path d="M 2.303908 2.296167 C 2.732955 1.775166 3.006312 1.156250 3.173780 0.507857  L 2.996488 0.472057  C 2.798902 1.062836 2.517312 1.630415 2.087233 2.088677  Z" fill="black" stroke="black" stroke-width="0.005"/>
    <path d="M 2.075692 0.855790 C 2.577834 1.383100 3.236611 1.502539 3.929099 1.403424  L 3.720300 0.840927  C 3.227864 0.941974 2.777553 0.921340 2.357214 0.601191  Z" fill="white" stroke="white" stroke-width="0"/>
    <path d="M 2.146072 0.792140 C 2.622764 1.264198 3.238983 1.368651 3.876899 1.262800  L 3.772500 0.981551  C 3.225660 1.069117 2.733919 1.042179 2.286834 0.664840  Z" fill="black" stroke="black" stroke-width="0.005"/>
    <path d="M -0.306994 1.283639 C -0.466195 1.881006 -0.857867 2.330916 -1.298581 2.737359  L -1.126014 2.982758  C -0.641868 2.527798 -0.255399 1.980627 -0.110299 1.320802  Z" fill="black" stroke="black" stroke-width="0.005"/>
    <path d="M -1.369147 1.992647 C -0.782987 2.335673 -0.162866 2.616427 0.460342 2.884488  L 0.649293 2.315017  C 0.021378 2.134401 -0.593132 1.910890 -1.195339 1.657112  Z" fill="white" stroke="white" stroke-width="0"/>
    <path d="M -1.325695 1.908763 C -0.735398 2.229817 -0.116790 2.495376 0.507580 2.742121  L 0.602055 2.457385  C -0.024697 2.254345 -0.640452 2.017430 -1.238791 1.740996  Z" fill="black" stroke="black" stroke-width="0.005"/>
    <path d="M 0.650008 -0.066672 C 0.226266 -0.074106 -0.187118 -0.165674 -0.594986 -0.271278  L -0.639660 -0.135775  C -0.216853 -0.029568 0.211402 0.063274 0.650008 0.066672  Z" fill="black" stroke="black" stroke-width="0.005"/>
    <path d="M 0.049276 0.664748 C 0.109921 0.242322 0.207542 -0.173347 0.309225 -0.587352  L 0.050728 -0.661838  C -0.063249 -0.238219 -0.170794 0.187582 -0.242786 0.620785  Z" fill="white" stroke="white" stroke-width="0"/>
    <path d="M -0.023740 0.653757 C 0.039769 0.228637 0.139832 -0.189564 0.244600 -0.605974  L 0.115352 -0.643216  C 0.004436 -0.222001 -0.100589 0.201268 -0.169770 0.631776  Z" fill="black" stroke="black" stroke-width="0.005"/>
    <path d="M 1.968912 0.268580 C 1.797083 -0.054722 1.650456 -0.390238 1.502573 -0.724824  L 1.393621 -0.680362  C 1.541509 -0.341473 1.688325 -0.001762 1.860466 0.325844  Z" fill="black" stroke="black" stroke-width="0.005"/>
    <path d="M 2.123569 -0.509189 C 1.788024 -0.372533 1.439507 -0.273537 1.092145 -0.172915  L 1.149507 0.057434  C 1.507631 -0.046686 1.867003 -0.148984 2.212767 -0.290626  Z" fill="white" stroke="white" stroke-width="0"/>
    <path d="M 2.145868 -0.454548 C 1.807769 -0.316645 1.456538 -0.216825 1.106485 -0.115328  L 1.135166 -0.000153  C 1.490600 -0.103399 1.847259 -0.204870 2.190467 -0.345267  Z" fill="black" stroke="black" stroke-width="0.005"/>
  </g>
  <g fill="none" stroke="black">
    <path d="M -2.398 2.5053 C -2.2141 2.9703, -1.6213 3.1477, -1.2123 2.8601" stroke-width="0.305"/>
    <path d="M -3.3558 0.7681 C -3.651 0.3645, -3.4846 -0.2315, -3.0231 -0.4239" stroke-width="0.305"/>
    <path d="M -0.1932 -2.2828 C -0.6722 -2.426, -1.3885 -2.1291, -1.6257 -1.689" stroke-width="0.305"/>
    <path d="M 1.7157 -2.3062 C 2.191 -2.4612, 2.8926 -2.1702, 3.1187 -1.7243" stroke-width="0.305"/>
    <path d="M 4.1666 -0.0291 C 4.4644 0.3725, 4.2934 0.9482, 3.8247 1.1222" stroke-width="0.305"/>
    <path d="M 2.1956 2.1924 C 1.8498 2.5535, 1.0294 2.7572, 0.5548 2.5998" stroke-width="0.305"/>
    <path d="M 3.2018 0.097 C 3.1639 0.1926, 3.1055 0.3891, 3.0851 0.49" stroke-width="0.1859"/>
    <path d="M -1.2822 1.8249 C -1.3975 1.7652, -1.6419 1.6921, -1.771 1.6787" stroke-width="0.19390000000000002"/>
    <path d="M -1.218648 -0.326308 C -1.028604 -0.253860 -0.833361 -0.196991 -0.639660 -0.135775  L -0.594986 -0.271278  C -0.778340 -0.347005 -0.963725 -0.418473 -1.142025 -0.505814  Z" fill="black" stroke="black" stroke-width="0.005"/>
    <path d="M 0.650008 0.066672 C 0.814673 0.067932 0.974310 0.026435 1.135166 -0.000153  L 1.106485 -0.115328  C 0.954990 -0.095067 0.804163 -0.060936 0.650008 -0.066672  Z" fill="black" stroke="black" stroke-width="0.005"/>
    <path d="M 2.190467 -0.345267 C 2.336732 -0.393962 2.487468 -0.426453 2.636385 -0.464937  L 2.584805 -0.642791  C 2.437684 -0.582049 2.287895 -0.526925 2.145868 -0.454548  Z" fill="black" stroke="black" stroke-width="0.005"/>
    <path d="M 2.286834 0.664840 C 2.161320 0.549134 2.070917 0.403545 1.968912 0.268580  L 1.860466 0.325844  C 1.949817 0.484562 2.029183 0.650195 2.146072 0.792140  Z" fill="black" stroke="black" stroke-width="0.005"/>
    <path d="M 1.502573 -0.724824 C 1.455567 -0.875791 1.389078 -1.019502 1.329081 -1.165469  L 1.167271 -1.076149  C 1.244055 -0.945110 1.326905 -0.817266 1.393621 -0.680362  Z" fill="black" stroke="black" stroke-width="0.005"/>
    <path d="M -2.185 0.1877 C -2.196 0.3171, -2.2646 0.5627, -2.3221 0.6791" stroke-width="0.19390000000000002"/>
    <path d="M -0.110299 1.320802 C -0.077533 1.098951 -0.051028 0.876300 -0.023740 0.653757  L -0.169770 0.631776  C -0.213987 0.849371 -0.256326 1.067428 -0.306994 1.283639  Z" fill="black" stroke="black" stroke-width="0.005"/>
    <path d="M 0.244600 -0.605974 C 0.295852 -0.758434 0.369904 -0.901319 0.435614 -1.047435  L 0.265420 -1.124928  C 0.212591 -0.965332 0.150839 -0.808096 0.115352 -0.643216  Z" fill="black" stroke="black" stroke-width="0.005"/>
  </g>
</svg>
