<?xml version="1.0" encoding="utf-8" ?>
<svg xmlns="http://www.w3.org/2000/svg" xmlns:ev="http://www.w3.org/2001/xml-events" xmlns:xlink="http://www.w3.org/1999/xlink" baseProfile="full" version="1.1" viewBox="-3.7389976571378027 -3.3134744470851816 7.344344020252679 9.040477583824071">
  <defs/>
  <g stroke="none">
    <path d="M -0.794072 -1.699243 C -0.183161 -1.733044 0.319718 -1.470786 0.806214 -1.139584  L 0.938134 -1.262692  C 0.443014 -1.698668 -0.146747 -1.987574 -0.819128 -1.998195  Z" fill="black" stroke="black" stroke-width="0.005"/>
    <path d="M 0.236544 -0.916616 C 0.406041 -1.409738 0.763183 -1.660864 1.228756 -1.828358  L 1.114385 -2.417357  C 0.474971 -2.137456 -0.010214 -1.685790 -0.127067 -0.966220  Z" fill="white" stroke="white" stroke-width="0"/>
    <path d="M 0.145641 -0.929017 C 0.304955 -1.487096 0.694305 -1.765899 1.200163 -1.975608  L 1.142978 -2.270107  C 0.547870 -2.026088 0.091328 -1.610930 -0.036164 -0.953819  Z" fill="black" stroke="black" stroke-width="0.005"/>
    <path d="M 1.910436 -1.331869 C 1.818687 -0.755706 1.448432 -0.435057 0.975652 -0.156586  L 1.023986 0.025432  C 1.621891 -0.221648 2.069507 -0.650109 2.209123 -1.303833  Z" fill="black" stroke="black" stroke-width="0.005"/>
    <path d="M 2.570110 0.529501 C 2.279139 -0.107386 1.821651 -0.636759 1.281435 -1.072885  L 1.062271 -0.786177  C 1.456376 -0.336489 1.830049 0.136357 2.001560 0.721208  Z" fill="white" stroke="white" stroke-width="0"/>
    <path d="M 2.427972 0.577428 C 2.163796 -0.043521 1.733965 -0.565066 1.226644 -1.001208  L 1.117062 -0.857854  C 1.557503 -0.421646 1.936423 0.082698 2.143697 0.673282  Z" fill="black" stroke="black" stroke-width="0.005"/>
    <path d="M 0.183245 3.133742 C 0.855004 3.070890 1.458900 2.773439 1.994282 2.378605  L 1.784793 2.163862  C 1.303617 2.538046 0.788288 2.862464 0.169828 2.955099  Z" fill="black" stroke="black" stroke-width="0.005"/>
    <path d="M 0.326710 2.407230 C 0.615825 2.829444 0.593798 3.248557 0.432801 3.705074  L 0.960043 3.991458  C 1.147520 3.319581 1.092881 2.665639 0.581304 2.143301  Z" fill="white" stroke="white" stroke-width="0"/>
    <path d="M 0.390359 2.341248 C 0.739839 2.796747 0.718780 3.259438 0.564611 3.776670  L 0.828232 3.919862  C 1.014611 3.307605 0.970551 2.700694 0.517656 2.209283  Z" fill="black" stroke="black" stroke-width="0.005"/>
    <path d="M -0.753513 2.397795 C -1.060067 2.991000 -0.937840 3.584767 -0.590247 4.120842  L -0.376781 3.910053  C -0.667413 3.457146 -0.812847 3.021208 -0.597969 2.490116  Z" fill="black" stroke="black" stroke-width="0.005"/>
    <path d="M -2.151633 2.906612 C -1.548519 3.284632 -0.862349 3.372537 -0.170659 3.274157  L -0.244135 2.923480  C -0.796806 2.892466 -1.332458 2.809568 -1.773508 2.440756  Z" fill="white" stroke="white" stroke-width="0"/>
    <path d="M -2.057102 2.790148 C -1.495702 3.160454 -0.845158 3.259444 -0.189028 3.186488  L -0.225766 3.011149  C -0.816073 3.003348 -1.382004 2.930955 -1.868040 2.557220  Z" fill="black" stroke="black" stroke-width="0.005"/>
    <path d="M -0.924897 -0.046521 C -1.580549 0.105985 -2.075649 0.534489 -2.449945 1.074484  L -2.178365 1.201937  C -1.850250 0.716987 -1.472151 0.310371 -0.890389 0.131216  Z" fill="black" stroke="black" stroke-width="0.005"/>
    <path d="M -0.961833 0.647518 C -1.364214 0.261671 -1.503486 -0.219326 -1.546488 -0.753197  L -2.145930 -0.779058  C -2.035814 -0.090531 -1.754294 0.534009 -1.163421 0.943698  Z" fill="white" stroke="white" stroke-width="0"/>
    <path d="M -1.012230 0.721563 C -1.467504 0.326800 -1.624618 -0.187279 -1.696348 -0.759662  L -1.996070 -0.772593  C -1.909205 -0.124666 -1.652593 0.468725 -1.113024 0.869653  Z" fill="black" stroke="black" stroke-width="0.005"/>
    <path d="M -0.072205 0.494706 C 0.010840 0.170303 0.039621 -0.163199 0.070966 -0.495228  L -0.037064 -0.498912  C -0.065616 -0.174077 -0.092052 0.152084 -0.170745 0.469887  Z" fill="black" stroke="black" stroke-width="0.005"/>
    <path d="M 0.497359 -0.112930 C 0.165639 -0.110298 -0.166076 -0.107115 -0.497788 -0.103622  L -0.496922 0.107697  C -0.165494 0.109202 0.165938 0.110286 0.497359 0.112930  Z" fill="white" stroke="white" stroke-width="0"/>
    <path d="M 0.497359 -0.056465 C 0.165712 -0.055152 -0.165930 -0.053036 -0.497572 -0.050792  L -0.497139 0.054867  C -0.165639 0.055122 0.165862 0.055140 0.497359 0.056465  Z" fill="black" stroke="black" stroke-width="0.005"/>
    <path d="M -0.734563 1.010633 C -0.536922 1.079297 -0.396723 1.230720 -0.241518 1.359839  L -0.192544 1.320105  C -0.351225 1.175310 -0.500377 1.018411 -0.706821 0.938321  Z" fill="black" stroke="black" stroke-width="0.005"/>
    <path d="M -0.391987 1.416711 C -0.369493 1.212747 -0.270095 1.034638 -0.191791 0.850354  L -0.321666 0.774002  C -0.403552 0.978408 -0.499186 1.179430 -0.515835 1.403586  Z" fill="white" stroke="white" stroke-width="0"/>
    <path d="M -0.422949 1.413429 C -0.402621 1.204228 -0.302552 1.020825 -0.224260 0.831266  L -0.289197 0.793090  C -0.371044 0.992200 -0.466124 1.187959 -0.484873 1.406867  Z" fill="black" stroke="black" stroke-width="0.005"/>
    <path d="M 0.117433 1.979147 C -0.082056 1.878839 -0.227887 1.712842 -0.382398 1.558507  L -0.435325 1.597140  C -0.277695 1.764311 -0.129514 1.942859 0.077629 2.054166  Z" fill="black" stroke="black" stroke-width="0.005"/>
    <path d="M -0.372444 2.167524 C -0.212284 1.980497 -0.165492 1.748969 -0.100560 1.521684  L -0.232313 1.506356  C -0.303709 1.698443 -0.346815 1.903714 -0.495869 2.058173  Z" fill="white" stroke="white" stroke-width="0"/>
    <path d="M -0.403301 2.140186 C -0.246858 1.960791 -0.198945 1.736939 -0.133498 1.517852  L -0.199375 1.510188  C -0.265809 1.712905 -0.315860 1.921455 -0.465013 2.085511  Z" fill="black" stroke="black" stroke-width="0.005"/>
  </g>
  <g fill="none" stroke="black">
    <path d="M -1.8462 -0.7661 C -1.8247 -1.2657, -1.3049 -1.807, -0.8066 -1.8487" stroke-width="0.305"/>
    <path d="M 2.0598 -1.3179 C 2.1065 -1.8157, 1.6624 -2.2182, 1.1716 -2.1229" stroke-width="0.305"/>
    <path d="M 2.2858 0.6254 C 2.4456 1.0991, 2.2474 1.9221, 1.8895 2.2712" stroke-width="0.305"/>
    <path d="M 0.6964 3.8483 C 0.4578 4.2876, -0.1322 4.3712, -0.4835 4.0154" stroke-width="0.305"/>
    <path d="M -1.9626 2.6737 C -2.3508 2.3586, -2.5266 1.5908, -2.3142 1.1382" stroke-width="0.305"/>
    <path d="M 0.1765 3.0444 C 0.0797 3.0517, -0.1123 3.0789, -0.2074 3.0988" stroke-width="0.1841"/>
    <path d="M -0.890389 0.131216 C -0.762762 0.089867 -0.628516 0.078130 -0.497139 0.054867  L -0.497572 -0.050792  C -0.639762 -0.051100 -0.782754 -0.064418 -0.924897 -0.046521  Z" fill="black" stroke="black" stroke-width="0.005"/>
    <path d="M 0.497359 0.056465 C 0.673962 0.072822 0.849081 0.042820 1.023986 0.025432  L 0.975652 -0.156586  C 0.817473 -0.119174 0.661601 -0.065972 0.497359 -0.056465  Z" fill="black" stroke="black" stroke-width="0.005"/>
    <path d="M -0.036164 -0.953819 C -0.045238 -0.802209 -0.038147 -0.650462 -0.037064 -0.498912  L 0.070966 -0.495228  C 0.093866 -0.640122 0.111404 -0.786190 0.145641 -0.929017  Z" fill="black" stroke="black" stroke-width="0.005"/>
    <path d="M -0.170745 0.469887 C -0.190060 0.584455 -0.248674 0.686150 -0.289197 0.793090  L -0.224260 0.831266  C -0.172618 0.720075 -0.101896 0.615880 -0.072205 0.494706  Z" fill="black" stroke="black" stroke-width="0.005"/>
    <path d="M -0.484873 1.406867 C -0.500860 1.477187 -0.453412 1.535652 -0.435325 1.597140  L -0.382398 1.558507  C -0.396734 1.511646 -0.432632 1.467025 -0.422949 1.413429  Z" fill="black" stroke="black" stroke-width="0.005"/>
    <path d="M 0.077629 2.054166 C 0.197870 2.132071 0.288187 2.244227 0.390359 2.341248  L 0.517656 2.209283  C 0.387088 2.128142 0.263661 2.032325 0.117433 1.979147  Z" fill="black" stroke="black" stroke-width="0.005"/>
    <path d="M -0.597969 2.490116 C -0.547931 2.365704 -0.470188 2.255571 -0.403301 2.140186  L -0.465013 2.085511  C -0.562191 2.188252 -0.669569 2.282567 -0.753513 2.397795  Z" fill="black" stroke="black" stroke-width="0.005"/>
    <path d="M -0.133498 1.517852 C -0.116295 1.442777 -0.171163 1.383652 -0.192544 1.320105  L -0.241518 1.359839  C -0.226550 1.408223 -0.187113 1.454247 -0.199375 1.510188  Z" fill="black" stroke="black" stroke-width="0.005"/>
    <path d="M -0.706821 0.938321 C -0.818918 0.880937 -0.911306 0.794063 -1.012230 0.721563  L -1.113024 0.869653  C -0.988030 0.919183 -0.867451 0.983153 -0.734563 1.010633  Z" fill="black" stroke="black" stroke-width="0.005"/>
    <path d="M 0.8722 -1.2011 C 0.9414 -1.127, 1.0912 -0.9912, 1.1719 -0.9295" stroke-width="0.1854"/>
  </g>
</svg>
