<?xml version="1.0" encoding="utf-8" ?>
<svg xmlns="http://www.w3.org/2000/svg" xmlns:ev="http://www.w3.org/2001/xml-events" xmlns:xlink="http://www.w3.org/1999/xlink" baseProfile="full" version="1.1" viewBox="-3.25455967423741 -4.314133133121936 7.8787639788022865 8.541314089206441">
  <defs/>
  <g stroke="none">
    <path d="M 0.475594 -1.689805 C -0.188641 -1.809462 -0.847497 -1.676933 -1.463758 -1.427474  L -1.313666 -1.167720  C -0.756600 -1.406556 -0.179304 -1.586465 0.438675 -1.507998  Z" fill="black" stroke="black" stroke-width="0.005"/>
    <path d="M -0.098177 -2.751655 C -0.493902 -2.153194 -0.555693 -1.472040 -0.405073 -0.787724  L -0.050932 -0.897006  C -0.059475 -1.429284 -0.006436 -1.937170 0.356691 -2.360382  Z" fill="white" stroke="white" stroke-width="0"/>
    <path d="M 0.015540 -2.653837 C -0.366518 -2.101515 -0.439108 -1.459484 -0.316537 -0.815045  L -0.139467 -0.869685  C -0.173608 -1.444357 -0.130926 -1.985245 0.242974 -2.458201  Z" fill="black" stroke="black" stroke-width="0.005"/>
    <path d="M 1.629650 -0.708659 C 1.857294 -1.342198 1.750032 -1.982920 1.474142 -2.577533  L 1.227537 -2.406695  C 1.473461 -1.882850 1.620032 -1.360499 1.455559 -0.779672  Z" fill="black" stroke="black" stroke-width="0.005"/>
    <path d="M 0.942633 -1.389765 C 1.545852 -1.378896 2.091635 -1.165910 2.615166 -0.890891  L 2.929338 -1.402062  C 2.288892 -1.669715 1.606389 -1.837287 0.907139 -1.759099  Z" fill="white" stroke="white" stroke-width="0"/>
    <path d="M 0.933760 -1.482099 C 1.553824 -1.485434 2.150434 -1.306562 2.693709 -1.018683  L 2.850795 -1.274269  C 2.242343 -1.547563 1.589093 -1.720469 0.916012 -1.666766  Z" fill="black" stroke="black" stroke-width="0.005"/>
    <path d="M 2.052906 1.817444 C 2.628125 1.463829 3.053677 0.938911 3.383842 0.359348  L 3.106243 0.245599  C 2.837312 0.798500 2.461020 1.294829 1.958321 1.657849  Z" fill="black" stroke="black" stroke-width="0.005"/>
    <path d="M 1.916056 0.862861 C 2.339483 1.227542 2.509838 1.703621 2.590934 2.234981  L 3.190747 2.220004  C 3.038378 1.538163 2.721261 0.927647 2.113462 0.542810  Z" fill="white" stroke="white" stroke-width="0"/>
    <path d="M 1.965407 0.782848 C 2.440800 1.154887 2.630519 1.663160 2.740888 2.231237  L 3.040794 2.223748  C 2.912885 1.580849 2.621606 1.000171 2.064111 0.622823  Z" fill="black" stroke="black" stroke-width="0.005"/>
    <path d="M 0.555216 1.856597 C 0.801152 2.482840 1.305929 2.888588 1.907906 3.145652  L 1.976184 2.853525  C 1.444342 2.629722 0.990148 2.339963 0.730436 1.796286  Z" fill="black" stroke="black" stroke-width="0.005"/>
    <path d="M 0.005988 3.176940 C 0.695743 3.026000 1.285478 2.650300 1.779357 2.158331  L 1.505269 1.908244  C 1.030401 2.237854 0.533825 2.532081 -0.058004 2.580362  Z" fill="white" stroke="white" stroke-width="0"/>
    <path d="M -0.010010 3.027795 C 0.651993 2.899076 1.225573 2.551756 1.710835 2.095809  L 1.573791 1.970766  C 1.103176 2.355670 0.566917 2.643306 -0.042006 2.729506  Z" fill="black" stroke="black" stroke-width="0.005"/>
    <path d="M -0.726006 0.326804 C -1.224436 0.776279 -1.395856 1.389641 -1.377905 2.039461  L -1.084657 1.976168  C -1.103346 1.409174 -1.021705 0.897719 -0.612804 0.464671  Z" fill="black" stroke="black" stroke-width="0.005"/>
    <path d="M -0.433760 0.908853 C -0.964799 0.781643 -1.300504 0.439540 -1.574267 -0.005328  L -2.122550 0.238363  C -1.712687 0.802517 -1.174377 1.214318 -0.453964 1.265053  Z" fill="white" stroke="white" stroke-width="0"/>
    <path d="M -0.438811 0.997903 C -1.024431 0.889365 -1.392016 0.524492 -1.711338 0.055595  L -1.985480 0.177440  C -1.616712 0.712789 -1.116521 1.107005 -0.448913 1.176003  Z" fill="black" stroke="black" stroke-width="0.005"/>
    <path d="M 0.153729 0.373671 C 0.079218 0.116778 0.013492 -0.142491 -0.053723 -0.401334  L -0.146338 -0.377545  C -0.073743 -0.118948 -0.002969 0.140222 0.077254 0.396604  Z" fill="black" stroke="black" stroke-width="0.005"/>
    <path d="M 0.402081 -0.084796 C 0.120488 -0.084955 -0.138218 0.013514 -0.397070 0.108958  L -0.314376 0.265902  C -0.081177 0.183797 0.148539 0.085309 0.402081 0.084796  Z" fill="white" stroke="white" stroke-width="0"/>
    <path d="M 0.402081 -0.042398 C 0.126621 -0.045489 -0.122813 0.060398 -0.376397 0.148194  L -0.335050 0.226666  C -0.095059 0.142665 0.141235 0.041698 0.402081 0.042398  Z" fill="black" stroke="black" stroke-width="0.005"/>
    <path d="M 1.615619 0.386459 C 1.342084 0.213511 1.037526 0.106620 0.735470 -0.002211  L 0.709430 0.090492  C 1.000203 0.200277 1.293812 0.307762 1.556191 0.478816  Z" fill="black" stroke="black" stroke-width="0.005"/>
    <path d="M 0.963206 0.609472 C 1.170263 0.354086 1.312939 0.058582 1.458110 -0.233497  L 1.253184 -0.312562  C 1.124883 -0.035024 0.997630 0.244683 0.811796 0.490463  Z" fill="white" stroke="white" stroke-width="0"/>
    <path d="M 0.925353 0.579720 C 1.127128 0.326749 1.265910 0.035171 1.406879 -0.253263  L 1.304415 -0.292796  C 1.171881 -0.011632 1.040813 0.272048 0.849648 0.520215  Z" fill="black" stroke="black" stroke-width="0.005"/>
    <path d="M 0.629815 0.740329 C 0.419582 0.894741 0.169212 0.952572 -0.074136 1.026283  L -0.061242 1.114040  C 0.195321 1.035376 0.459203 0.973768 0.679827 0.808806  Z" fill="black" stroke="black" stroke-width="0.005"/>
    <path d="M 0.120949 0.659166 C 0.204922 0.914994 0.298558 1.167486 0.390211 1.420618  L 0.567855 1.349790  C 0.467224 1.102607 0.365316 0.855911 0.271514 0.605995  Z" fill="white" stroke="white" stroke-width="0"/>
    <path d="M 0.158591 0.645874 C 0.245021 0.900230 0.340726 1.151265 0.434622 1.402911  L 0.523444 1.367497  C 0.425058 1.118826 0.325217 0.870688 0.233873 0.619288  Z" fill="black" stroke="black" stroke-width="0.005"/>
  </g>
  <g fill="none" stroke="black">
    <path d="M -1.8484 0.1165 C -2.0515 -0.3404, -1.8216 -1.0474, -1.3887 -1.2976" stroke-width="0.305"/>
    <path d="M 0.1293 -2.556 C 0.4553 -2.9351, 1.0661 -2.9031, 1.3508 -2.4921" stroke-width="0.305"/>
    <path d="M 2.7723 -1.1465 C 3.1982 -0.8847, 3.4346 -0.1602, 3.245 0.3025" stroke-width="0.305"/>
    <path d="M 2.8908 2.2275 C 2.9033 2.7273, 2.4289 3.1134, 1.942 2.9996" stroke-width="0.305"/>
    <path d="M -0.026 2.8787 C -0.5232 2.932, -1.1258 2.4966, -1.2313 2.0078" stroke-width="0.305"/>
    <path d="M 2.0056 1.7376 C 1.9038 1.798, 1.7221 1.9458, 1.6423 2.0333" stroke-width="0.1905"/>
    <path d="M -0.612804 0.464671 C -0.531698 0.372644 -0.428308 0.304971 -0.335050 0.226666  L -0.376397 0.148194  C -0.493428 0.206086 -0.617047 0.252719 -0.726006 0.326804  Z" fill="black" stroke="black" stroke-width="0.005"/>
    <path d="M 0.402081 0.042398 C 0.506967 0.040441 0.607525 0.073570 0.709430 0.090492  L 0.735470 -0.002211  C 0.624875 -0.016753 0.515181 -0.049144 0.402081 -0.042398  Z" fill="black" stroke="black" stroke-width="0.005"/>
    <path d="M 1.556191 0.478816 C 1.691068 0.582165 1.828577 0.682101 1.965407 0.782848  L 2.064111 0.622823  C 1.914648 0.544023 1.764484 0.466437 1.615619 0.386459  Z" fill="black" stroke="black" stroke-width="0.005"/>
    <path d="M 0.730436 1.796286 C 0.664995 1.651634 0.592805 1.510198 0.523444 1.367497  L 0.434622 1.402911  C 0.476043 1.553789 0.520062 1.704112 0.555216 1.856597  Z" fill="black" stroke="black" stroke-width="0.005"/>
    <path d="M 0.233873 0.619288 C 0.204614 0.538257 0.180297 0.455581 0.153729 0.373671  L 0.077254 0.396604  C 0.104215 0.479732 0.128885 0.563641 0.158591 0.645874  Z" fill="black" stroke="black" stroke-width="0.005"/>
    <path d="M -0.053723 -0.401334 C -0.077139 -0.558319 -0.109643 -0.713818 -0.139467 -0.869685  L -0.316537 -0.815045  C -0.259464 -0.669400 -0.199505 -0.524770 -0.146338 -0.377545  Z" fill="black" stroke="black" stroke-width="0.005"/>
    <path d="M 1.455559 -0.779672 C 1.403865 -0.617791 1.354805 -0.455060 1.304415 -0.292796  L 1.406879 -0.253263  C 1.480466 -0.405372 1.553142 -0.557998 1.629650 -0.708659  Z" fill="black" stroke="black" stroke-width="0.005"/>
    <path d="M 0.849648 0.520215 C 0.789670 0.606270 0.703580 0.667944 0.629815 0.740329  L 0.679827 0.808806  C 0.762141 0.733574 0.857509 0.670472 0.925353 0.579720  Z" fill="black" stroke="black" stroke-width="0.005"/>
    <path d="M -0.074136 1.026283 C -0.196731 1.032150 -0.317729 1.007917 -0.438811 0.997903  L -0.448913 1.176003  C -0.319464 1.157721 -0.187321 1.151931 -0.061242 1.114040  Z" fill="black" stroke="black" stroke-width="0.005"/>
    <path d="M 0.4571 -1.5989 C 0.5732 -1.5753, 0.807 -1.5631, 0.9249 -1.5744" stroke-width="0.1905"/>
  </g>
</svg>
