<?xml version="1.0" encoding="utf-8" ?>
<svg xmlns="http://www.w3.org/2000/svg" xmlns:ev="http://www.w3.org/2001/xml-events" xmlns:xlink="http://www.w3.org/1999/xlink" baseProfile="full" version="1.1" viewBox="-3.654097343588497 -4.302027643343294 6.48203766440516 7.039333530328373">
  <defs/>
  <g stroke="none">
    <path d="M -0.289449 0.468666 C -0.682228 0.884755 -1.135319 0.930357 -1.665841 0.847444  L -1.772158 1.127973  C -1.143031 1.225995 -0.555084 1.093106 -0.147836 0.565704  Z" fill="black" stroke="black" stroke-width="0.005"/>
    <path d="M 0.255661 1.245617 C -0.232585 1.138244 -0.427849 0.787158 -0.572615 0.349963  L -0.912765 0.335933  C -0.865674 1.032258 -0.544562 1.582661 0.137099 1.833787  Z" fill="white" stroke="white" stroke-width="0"/>
    <path d="M 0.226021 1.392660 C -0.317751 1.239677 -0.521791 0.851337 -0.657652 0.346455  L -0.827728 0.339440  C -0.764596 0.970676 -0.458973 1.472761 0.166740 1.686744  Z" fill="black" stroke="black" stroke-width="0.005"/>
    <path d="M -2.242484 -2.318616 C -2.222168 -1.650498 -1.869760 -1.132281 -1.341875 -0.755140  L -1.256967 -0.912095  C -1.659821 -1.297248 -1.961793 -1.702871 -1.943594 -2.292837  Z" fill="black" stroke="black" stroke-width="0.005"/>
    <path d="M -2.125122 -0.266785 C -1.995439 -0.826689 -1.619190 -1.217244 -1.198080 -1.576571  L -1.356332 -1.906735  C -1.965145 -1.563114 -2.457375 -1.075987 -2.707946 -0.409323  Z" fill="white" stroke="white" stroke-width="0"/>
    <path d="M -2.270828 -0.302419 C -2.109096 -0.893793 -1.702430 -1.294814 -1.237643 -1.659112  L -1.316769 -1.824194  C -1.882221 -1.482663 -2.339637 -1.008688 -2.562240 -0.373688  Z" fill="black" stroke="black" stroke-width="0.005"/>
    <path d="M -0.849660 -1.905044 C -0.338032 -2.242625 0.227339 -2.292274 0.818137 -2.260297  L 0.878094 -2.554245  C 0.219315 -2.581303 -0.428644 -2.454609 -0.965190 -2.047051  Z" fill="black" stroke="black" stroke-width="0.005"/>
    <path d="M -1.173643 -2.673269 C -0.669263 -2.480647 -0.429054 -2.068942 -0.237158 -1.596263  L 0.124967 -1.623723  C 0.006609 -2.314568 -0.328701 -2.896092 -0.965173 -3.235888  Z" fill="white" stroke="white" stroke-width="0"/>
    <path d="M -1.121525 -2.813924 C -0.578532 -2.578586 -0.332524 -2.131068 -0.146627 -1.603128  L 0.034436 -1.616858  C -0.094163 -2.254031 -0.420455 -2.792646 -1.017291 -3.095234  Z" fill="black" stroke="black" stroke-width="0.005"/>
    <path d="M 1.516907 0.785080 C 1.562862 0.121957 1.234610 -0.385348 0.701530 -0.740734  L 0.624916 -0.582940  C 1.020634 -0.220123 1.294514 0.156395 1.222551 0.727160  Z" fill="black" stroke="black" stroke-width="0.005"/>
    <path d="M 1.398016 -1.256010 C 1.322430 -0.734570 0.974181 -0.448850 0.548231 -0.199890  L 0.615750 0.139737  C 1.285123 -0.063310 1.794340 -0.481368 1.992720 -1.176467  Z" fill="white" stroke="white" stroke-width="0"/>
    <path d="M 1.546692 -1.236124 C 1.434063 -0.664037 1.051166 -0.366194 0.565111 -0.114983  L 0.598870 0.054831  C 1.209176 -0.151565 1.675863 -0.551808 1.844044 -1.196353  Z" fill="black" stroke="black" stroke-width="0.005"/>
    <path d="M 0.276461 -0.032303 C 0.093828 -0.028702 -0.087121 -0.054541 -0.268253 -0.072261  L -0.277218 -0.018204  C -0.093187 0.003078 0.090487 0.032587 0.276461 0.032303  Z" fill="black" stroke="black" stroke-width="0.005"/>
    <path d="M -0.030267 0.281959 C 0.033850 0.101850 0.038735 -0.088932 0.059531 -0.276117  L -0.056291 -0.276796  C -0.079146 -0.103051 -0.087320 0.074421 -0.149671 0.240865  Z" fill="white" stroke="white" stroke-width="0"/>
    <path d="M -0.060118 0.271686 C 0.003546 0.094989 0.009260 -0.092462 0.030576 -0.276286  L -0.027336 -0.276626  C -0.049680 -0.099522 -0.057040 0.081274 -0.119820 0.251138  Z" fill="black" stroke="black" stroke-width="0.005"/>
    <path d="M -0.064899 -1.186799 C -0.042860 -0.957101 -0.038821 -0.726336 -0.031400 -0.495897  L 0.037215 -0.495493  C 0.034801 -0.728245 0.035479 -0.961205 0.018582 -1.193568  Z" fill="black" stroke="black" stroke-width="0.005"/>
    <path d="M 0.361300 -0.846976 C 0.122033 -0.897972 -0.113064 -0.848740 -0.348903 -0.815848  L -0.309997 -0.679844  C -0.097557 -0.704478 0.115161 -0.744041 0.328996 -0.695211  Z" fill="white" stroke="white" stroke-width="0"/>
    <path d="M 0.353224 -0.809034 C 0.120315 -0.859467 -0.109189 -0.812670 -0.339176 -0.781847  L -0.319723 -0.713845  C -0.101435 -0.740539 0.116878 -0.782500 0.337072 -0.733152  Z" fill="black" stroke="black" stroke-width="0.005"/>
    <path d="M -0.759854 -0.323314 C -0.760390 -0.472302 -0.619147 -0.536001 -0.546223 -0.633619  L -0.570433 -0.680512  C -0.658071 -0.568385 -0.800079 -0.496109 -0.802626 -0.327121  Z" fill="black" stroke="black" stroke-width="0.005"/>
    <path d="M -0.602913 -0.382788 C -0.678541 -0.527266 -0.817962 -0.609522 -0.935259 -0.712420  L -0.992543 -0.600945  C -0.883787 -0.517800 -0.750950 -0.459030 -0.673201 -0.337805  Z" fill="white" stroke="white" stroke-width="0"/>
    <path d="M -0.620485 -0.371542 C -0.697145 -0.509798 -0.833870 -0.587034 -0.949580 -0.684551  L -0.978222 -0.628813  C -0.867951 -0.540285 -0.732324 -0.476441 -0.655629 -0.349051  Z" fill="black" stroke="black" stroke-width="0.005"/>
    <path d="M -0.668502 0.089855 C -0.623640 -0.024402 -0.619939 -0.148199 -0.597589 -0.266910  L -0.632111 -0.269522  C -0.657779 -0.155272 -0.665592 -0.035511 -0.712939 0.073558  Z" fill="black" stroke="black" stroke-width="0.005"/>
    <path d="M -0.774843 -0.199936 C -0.698055 -0.090081 -0.560011 -0.081610 -0.452967 -0.028852  L -0.444502 -0.109284  C -0.535585 -0.151793 -0.653465 -0.157594 -0.721056 -0.247309  Z" fill="white" stroke="white" stroke-width="0"/>
    <path d="M -0.761396 -0.211779 C -0.686756 -0.107003 -0.553991 -0.099190 -0.450851 -0.048960  L -0.446619 -0.089176  C -0.541563 -0.134178 -0.664874 -0.140646 -0.734503 -0.235466  Z" fill="black" stroke="black" stroke-width="0.005"/>
  </g>
  <g fill="none" stroke="black">
    <path d="M 0.1964 1.5397 C 0.6865 1.6385, 1.2732 1.2467, 1.3697 0.7561" stroke-width="0.305"/>
    <path d="M -2.4165 -0.3381 C -2.5353 0.1476, -2.1865 0.8105, -1.719 0.9877" stroke-width="0.305"/>
    <path d="M -1.0694 -2.9546 C -1.5383 -3.1283, -2.0501 -2.8039, -2.093 -2.3057" stroke-width="0.305"/>
    <path d="M 1.6954 -1.2162 C 1.7617 -1.7118, 1.338 -2.3073, 0.8481 -2.4073" stroke-width="0.305"/>
    <path d="M 0.276461 0.032303 C 0.382461 0.055015 0.491463 0.048460 0.598870 0.054831  L 0.565111 -0.114983  C 0.469429 -0.087197 0.375943 -0.048070 0.276461 -0.032303  Z" fill="black" stroke="black" stroke-width="0.005"/>
    <path d="M -0.9074 -1.976 C -0.9929 -1.9065, -1.1778 -1.7893, -1.2772 -1.7417" stroke-width="0.18810000000000002"/>
    <path d="M -0.147836 0.565704 C -0.101058 0.473232 -0.088313 0.369392 -0.060118 0.271686  L -0.119820 0.251138  C -0.175183 0.324293 -0.219215 0.407783 -0.289449 0.468666  Z" fill="black" stroke="black" stroke-width="0.005"/>
    <path d="M 0.030576 -0.276286 C 0.032880 -0.349352 0.035037 -0.422424 0.037215 -0.495493  L -0.031400 -0.495897  C -0.030080 -0.422807 -0.028783 -0.349714 -0.027336 -0.276626  Z" fill="black" stroke="black" stroke-width="0.005"/>
    <path d="M 0.018582 -1.193568 C 0.024122 -1.334630 0.029570 -1.475782 0.034436 -1.616858  L -0.146627 -1.603128  C -0.119906 -1.464280 -0.093302 -1.325313 -0.064899 -1.186799  Z" fill="black" stroke="black" stroke-width="0.005"/>
    <path d="M -1.341875 -0.755140 C -1.220982 -0.712173 -1.099268 -0.671223 -0.978222 -0.628813  L -0.949580 -0.684551  C -1.052305 -0.759992 -1.156228 -0.834023 -1.256967 -0.912095  Z" fill="black" stroke="black" stroke-width="0.005"/>
    <path d="M -0.655629 -0.349051 C -0.636930 -0.326359 -0.639243 -0.295743 -0.632111 -0.269522  L -0.597589 -0.266910  C -0.604143 -0.301349 -0.597650 -0.340651 -0.620485 -0.371542  Z" fill="black" stroke="black" stroke-width="0.005"/>
    <path d="M -0.712939 0.073558 C -0.771068 0.152721 -0.791005 0.250559 -0.827728 0.339440  L -0.657652 0.346455  C -0.661834 0.261922 -0.682188 0.175845 -0.668502 0.089855  Z" fill="black" stroke="black" stroke-width="0.005"/>
    <path d="M 0.701530 -0.740734 C 0.589285 -0.781836 0.469010 -0.787272 0.353224 -0.809034  L 0.337072 -0.733152  C 0.433445 -0.684343 0.538029 -0.649042 0.624916 -0.582940  Z" fill="black" stroke="black" stroke-width="0.005"/>
    <path d="M -0.339176 -0.781847 C -0.420447 -0.758001 -0.493750 -0.714750 -0.570433 -0.680512  L -0.546223 -0.633619  C -0.471058 -0.660912 -0.398515 -0.696976 -0.319723 -0.713845  Z" fill="black" stroke="black" stroke-width="0.005"/>
    <path d="M -0.802626 -0.327121 C -0.810876 -0.281939 -0.776097 -0.248721 -0.761396 -0.211779  L -0.734503 -0.235466  C -0.743504 -0.263730 -0.767145 -0.290478 -0.759854 -0.323314  Z" fill="black" stroke="black" stroke-width="0.005"/>
    <path d="M -0.450851 -0.048960 C -0.392607 -0.040815 -0.335065 -0.028532 -0.277218 -0.018204  L -0.268253 -0.072261  C -0.327685 -0.078075 -0.386952 -0.085961 -0.446619 -0.089176  Z" fill="black" stroke="black" stroke-width="0.005"/>
  </g>
</svg>
