<?xml version="1.0" encoding="utf-8" ?>
<svg xmlns="http://www.w3.org/2000/svg" xmlns:ev="http://www.w3.org/2001/xml-events" xmlns:xlink="http://www.w3.org/1999/xlink" baseProfile="full" version="1.1" viewBox="-2.6116876739608834 -3.501489127643082 6.146543565371486 6.146543565113108">
  <defs/>
  <g stroke="none">
    <path d="M 2.363520 -1.355051 C 2.314426 -0.775468 1.966860 -0.441747 1.510171 -0.143670  L 1.561246 0.023598  C 2.147100 -0.243428 2.568037 -0.689430 2.663452 -1.348640  Z" fill="black" stroke="black" stroke-width="0.005"/>
    <path d="M 2.738119 0.662560 C 2.672252 -0.058030 2.247160 -0.560015 1.623725 -0.877893  L 1.496808 -0.551947  C 1.870629 -0.233963 2.160189 0.106272 2.138981 0.630420  Z" fill="white" stroke="white" stroke-width="0"/>
    <path d="M 2.588335 0.654525 C 2.542558 -0.009980 2.156205 -0.486255 1.591996 -0.796407  L 1.528537 -0.633434  C 1.961619 -0.301991 2.283215 0.056823 2.288765 0.638455  Z" fill="black" stroke="black" stroke-width="0.005"/>
    <path d="M 1.388418 1.473719 C 0.808835 1.424624 0.475114 1.077058 0.177037 0.620370  L 0.009769 0.671445  C 0.276795 1.257298 0.722796 1.678235 1.382007 1.773650  Z" fill="black" stroke="black" stroke-width="0.005"/>
    <path d="M -0.629193 1.848318 C 0.091397 1.782450 0.593382 1.357358 0.911260 0.733924  L 0.585314 0.607006  C 0.267329 0.980828 -0.072905 1.270388 -0.597054 1.249179  Z" fill="white" stroke="white" stroke-width="0"/>
    <path d="M -0.621158 1.698533 C 0.043347 1.652756 0.519621 1.266404 0.829773 0.702194  L 0.666800 0.638736  C 0.335358 1.071817 -0.023456 1.393414 -0.605088 1.398964  Z" fill="black" stroke="black" stroke-width="0.005"/>
    <path d="M -1.440352 0.498617 C -1.391257 -0.080967 -1.043691 -0.414688 -0.587003 -0.712765  L -0.638078 -0.880032  C -1.223931 -0.613007 -1.644868 -0.167005 -1.740283 0.492206  Z" fill="black" stroke="black" stroke-width="0.005"/>
    <path d="M -0.573639 -0.304488 C -1.012358 -0.587740 -1.169236 -0.993647 -1.215812 -1.486855  L -1.814951 -1.518995  C -1.695666 -0.833272 -1.372838 -0.256939 -0.700557 0.021458  Z" fill="white" stroke="white" stroke-width="0"/>
    <path d="M -0.605369 -0.223001 C -1.109835 -0.510137 -1.286036 -0.953277 -1.365597 -1.494890  L -1.665166 -1.510960  C -1.571229 -0.876208 -1.277546 -0.335837 -0.668828 -0.060028  Z" fill="black" stroke="black" stroke-width="0.005"/>
    <path d="M -0.465250 -2.330153 C 0.114334 -2.281059 0.448054 -1.933493 0.746131 -1.476805  L 0.913399 -1.527880  C 0.646373 -2.113733 0.200372 -2.534670 -0.458839 -2.630085  Z" fill="black" stroke="black" stroke-width="0.005"/>
    <path d="M 1.552361 -2.704753 C 0.831771 -2.638885 0.329786 -2.213793 0.011908 -1.590359  L 0.337854 -1.463441  C 0.655839 -1.837262 0.996073 -2.126823 1.520222 -2.105614  Z" fill="white" stroke="white" stroke-width="0"/>
    <path d="M 1.544326 -2.554968 C 0.879821 -2.509191 0.403547 -2.122839 0.093395 -1.558629  L 0.256368 -1.495170  C 0.587810 -1.928252 0.946624 -2.249849 1.528257 -2.255399  Z" fill="black" stroke="black" stroke-width="0.005"/>
    <path d="M 0.323317 -0.033414 C 0.109801 -0.033424 -0.101425 -0.064460 -0.312725 -0.089911  L -0.324920 -0.017542  C -0.109505 0.006228 0.105910 0.035867 0.323317 0.033414  Z" fill="black" stroke="black" stroke-width="0.005"/>
    <path d="M 0.102777 0.315210 C 0.079924 0.104904 0.088258 -0.106538 0.090855 -0.317404  L -0.042427 -0.327414  C -0.049648 -0.108851 -0.062575 0.110124 -0.043382 0.328692  Z" fill="white" stroke="white" stroke-width="0"/>
    <path d="M 0.066237 0.318580 C 0.044310 0.106207 0.053782 -0.107115 0.057535 -0.319907  L -0.009106 -0.324912  C -0.015171 -0.108272 -0.026940 0.108817 -0.006842 0.325321  Z" fill="black" stroke="black" stroke-width="0.005"/>
    <path d="M 0.872260 0.358287 C 0.908516 0.143896 0.913038 -0.073465 0.923216 -0.289951  L 0.856387 -0.289951  C 0.844193 -0.077476 0.837662 0.135957 0.799891 0.346091  Z" fill="black" stroke="black" stroke-width="0.005"/>
    <path d="M 1.205011 -0.069410 C 0.994705 -0.046557 0.783264 -0.054891 0.572397 -0.057489  L 0.562387 0.075794  C 0.780950 0.083015 0.999925 0.095941 1.218493 0.076748  Z" fill="white" stroke="white" stroke-width="0"/>
    <path d="M 1.208382 -0.032871 C 0.996008 -0.010943 0.782686 -0.020415 0.569895 -0.024168  L 0.564890 0.042473  C 0.781529 0.048537 0.998618 0.060307 1.215123 0.040209  Z" fill="black" stroke="black" stroke-width="0.005"/>
    <path d="M 0.066781 -0.566484 C 0.066790 -0.780001 0.097827 -0.991227 0.123278 -1.202526  L 0.050908 -1.214721  C 0.027139 -0.999306 -0.002500 -0.783892 -0.000048 -0.566484  Z" fill="black" stroke="black" stroke-width="0.005"/>
    <path d="M -0.281843 -0.787024 C -0.071537 -0.809877 0.139904 -0.801544 0.350771 -0.798946  L 0.360781 -0.932229  C 0.142218 -0.939449 -0.076757 -0.952376 -0.295325 -0.933183  Z" fill="white" stroke="white" stroke-width="0"/>
    <path d="M -0.285213 -0.823564 C -0.072840 -0.845492 0.140482 -0.836019 0.353274 -0.832267  L 0.358279 -0.898908  C 0.141639 -0.904972 -0.075450 -0.916741 -0.291954 -0.896643  Z" fill="black" stroke="black" stroke-width="0.005"/>
    <path d="M 0.599851 -0.823020 C 0.813368 -0.823011 1.024594 -0.791975 1.235893 -0.766524  L 1.248088 -0.838893  C 1.032673 -0.862662 0.817259 -0.892302 0.599851 -0.889849  Z" fill="black" stroke="black" stroke-width="0.005"/>
    <path d="M 0.820391 -1.171644 C 0.843244 -0.961338 0.834911 -0.749897 0.832313 -0.539030  L 0.965595 -0.529020  C 0.972816 -0.747583 0.985743 -0.966559 0.966550 -1.185126  Z" fill="white" stroke="white" stroke-width="0"/>
    <path d="M 0.856931 -1.175015 C 0.878859 -0.962641 0.869386 -0.749319 0.865633 -0.536528  L 0.932275 -0.531523  C 0.938339 -0.748162 0.950108 -0.965252 0.930010 -1.181756  Z" fill="black" stroke="black" stroke-width="0.005"/>
  </g>
  <g fill="none" stroke="black">
    <path d="M 2.5135 -1.3518 C 2.5242 -1.8517, 2.0356 -2.3784, 1.5363 -2.4052" stroke-width="0.305"/>
    <path d="M 1.3852 1.6237 C 1.8851 1.6344, 2.4118 1.1458, 2.4385 0.6465" stroke-width="0.305"/>
    <path d="M -1.5903 0.4954 C -1.601 0.9953, -1.1124 1.522, -0.6131 1.5487" stroke-width="0.305"/>
    <path d="M -0.462 -2.4801 C -0.9619 -2.4908, -1.4886 -2.0022, -1.5154 -1.5029" stroke-width="0.305"/>
    <path d="M -0.668828 -0.060028 C -0.556228 -0.030712 -0.439251 -0.030967 -0.324920 -0.017542  L -0.312725 -0.089911  C -0.410634 -0.133144 -0.514730 -0.164621 -0.605369 -0.223001  Z" fill="black" stroke="black" stroke-width="0.005"/>
    <path d="M 0.323317 0.033414 C 0.403964 0.032534 0.484396 0.039235 0.564890 0.042473  L 0.569895 -0.024168  C 0.487734 -0.027478 0.405635 -0.034338 0.323317 -0.033414  Z" fill="black" stroke="black" stroke-width="0.005"/>
    <path d="M 1.215123 0.040209 C 1.330872 0.051418 1.446100 0.030324 1.561246 0.023598  L 1.510171 -0.143670  C 1.410166 -0.106464 1.313556 -0.056948 1.208382 -0.032871  Z" fill="black" stroke="black" stroke-width="0.005"/>
    <path d="M 0.093395 -1.558629 C 0.064078 -1.446030 0.064333 -1.329053 0.050908 -1.214721  L 0.123278 -1.202526  C 0.166511 -1.300435 0.197988 -1.404532 0.256368 -1.495170  Z" fill="black" stroke="black" stroke-width="0.005"/>
    <path d="M -0.000048 -0.566484 C 0.000833 -0.485838 -0.005868 -0.405405 -0.009106 -0.324912  L 0.057535 -0.319907  C 0.060845 -0.402068 0.067705 -0.484166 0.066781 -0.566484  Z" fill="black" stroke="black" stroke-width="0.005"/>
    <path d="M -0.006842 0.325321 C -0.018051 0.441071 0.003043 0.556299 0.009769 0.671445  L 0.177037 0.620370  C 0.139830 0.520365 0.090314 0.423755 0.066237 0.318580  Z" fill="black" stroke="black" stroke-width="0.005"/>
    <path d="M 1.591996 -0.796407 C 1.479397 -0.825723 1.362419 -0.825468 1.248088 -0.838893  L 1.235893 -0.766524  C 1.333802 -0.723290 1.437898 -0.691814 1.528537 -0.633434  Z" fill="black" stroke="black" stroke-width="0.005"/>
    <path d="M 0.599851 -0.889849 C 0.519204 -0.888969 0.438772 -0.895670 0.358279 -0.898908  L 0.353274 -0.832267  C 0.435434 -0.828956 0.517533 -0.822097 0.599851 -0.823020  Z" fill="black" stroke="black" stroke-width="0.005"/>
    <path d="M -0.291954 -0.896643 C -0.407704 -0.907852 -0.522932 -0.886759 -0.638078 -0.880032  L -0.587003 -0.712765  C -0.486998 -0.749971 -0.390388 -0.799487 -0.285213 -0.823564  Z" fill="black" stroke="black" stroke-width="0.005"/>
    <path d="M 0.829773 0.702194 C 0.859090 0.589595 0.858835 0.472618 0.872260 0.358287  L 0.799891 0.346091  C 0.756657 0.444001 0.725181 0.548097 0.666800 0.638736  Z" fill="black" stroke="black" stroke-width="0.005"/>
    <path d="M 0.923216 -0.289951 C 0.922335 -0.370597 0.929036 -0.451029 0.932275 -0.531523  L 0.865633 -0.536528  C 0.862323 -0.454367 0.855464 -0.372269 0.856387 -0.289951  Z" fill="black" stroke="black" stroke-width="0.005"/>
    <path d="M 0.930010 -1.181756 C 0.941219 -1.297505 0.920126 -1.412734 0.913399 -1.527880  L 0.746131 -1.476805  C 0.783338 -1.376799 0.832854 -1.280190 0.856931 -1.175015  Z" fill="black" stroke="black" stroke-width="0.005"/>
  </g>
</svg>
