<?xml version="1.0" encoding="utf-8" ?>
<svg xmlns="http://www.w3.org/2000/svg" xmlns:ev="http://www.w3.org/2001/xml-events" xmlns:xlink="http://www.w3.org/1999/xlink" baseProfile="full" version="1.1" viewBox="-6.589547820219706 -5.795773176261666 10.43232223372416 9.611404523910057">
  <defs/>
  <g stroke="none">
    <path d="M 1.840742 1.949531 C 1.251139 1.923875 0.863770 1.594842 0.504253 1.168056  L 0.331954 1.248923  C 0.680460 1.798228 1.178211 2.183904 1.845010 2.249500  Z" fill="black" stroke="black" stroke-width="0.005"/>
    <path d="M 1.192670 1.159400 C 0.829074 1.636535 0.334860 1.939153 -0.198703 2.183768  L 0.011864 2.745605  C 0.614370 2.400574 1.158369 1.956514 1.506200 1.343555  Z" fill="white" stroke="white" stroke-width="0"/>
    <path d="M 1.271052 1.205439 C 0.915967 1.721504 0.399416 2.048380 -0.146061 2.324227  L -0.040778 2.605146  C 0.545745 2.289913 1.075712 1.873296 1.427818 1.297516  Z" fill="black" stroke="black" stroke-width="0.005"/>
    <path d="M -1.478019 1.909202 C -1.878202 1.373429 -2.284889 0.842557 -2.703846 0.321337  L -2.860077 0.441455  C -2.474623 0.983010 -2.089435 1.525084 -1.724239 2.080596  Z" fill="black" stroke="black" stroke-width="0.005"/>
    <path d="M -1.468712 0.434458 C -2.015475 0.745168 -2.605361 0.971116 -3.215052 1.119726  L -3.072845 1.702630  C -2.425163 1.469038 -1.791477 1.181819 -1.233713 0.772680  Z" fill="white" stroke="white" stroke-width="0"/>
    <path d="M -1.409962 0.519013 C -1.959422 0.854948 -2.560513 1.094601 -3.179500 1.265452  L -3.108397 1.556904  C -2.470442 1.343652 -1.847405 1.073217 -1.292463 0.688124  Z" fill="black" stroke="black" stroke-width="0.005"/>
    <path d="M -4.005391 0.643010 C -4.028833 0.003483 -3.909569 -0.630102 -3.729895 -1.240900  L -3.912679 -1.314566  C -4.140651 -0.681884 -4.291506 -0.020396 -4.305153 0.654955  Z" fill="black" stroke="black" stroke-width="0.005"/>
    <path d="M -5.107373 -0.857904 C -4.583282 -0.403093 -3.977467 -0.059950 -3.337500 0.200573  L -3.192646 -0.165985  C -3.734851 -0.466716 -4.255063 -0.817627 -4.677264 -1.276241  Z" fill="white" stroke="white" stroke-width="0"/>
    <path d="M -4.999846 -0.962488 C -4.500671 -0.507393 -3.917082 -0.161350 -3.301286 0.108933  L -3.228859 -0.074345  C -3.795531 -0.364588 -4.337133 -0.714330 -4.784791 -1.171657  Z" fill="black" stroke="black" stroke-width="0.005"/>
    <path d="M -4.667557 -2.199171 C -4.128388 -2.543906 -3.521924 -2.762660 -2.904436 -2.917796  L -2.933717 -3.112679  C -3.594569 -2.988054 -4.241109 -2.782362 -4.829968 -2.451407  Z" fill="black" stroke="black" stroke-width="0.005"/>
    <path d="M -3.558030 -1.909384 C -3.604019 -2.534347 -3.499625 -3.148566 -3.354738 -3.752054  L -3.933472 -3.910377  C -4.035069 -3.228043 -4.073203 -2.530773 -3.947391 -1.848187  Z" fill="white" stroke="white" stroke-width="0"/>
    <path d="M -3.655370 -1.894084 C -3.712742 -2.531361 -3.645652 -3.171215 -3.499422 -3.791635  L -3.788789 -3.870796  C -3.904531 -3.208953 -3.953437 -2.531106 -3.850050 -1.863486  Z" fill="black" stroke="black" stroke-width="0.005"/>
    <path d="M -2.554547 -4.212042 C -1.983890 -3.922394 -1.487638 -3.510828 -1.040610 -3.057481  L -0.887543 -3.181607  C -1.330286 -3.687804 -1.835620 -4.140530 -2.419619 -4.479987  Z" fill="black" stroke="black" stroke-width="0.005"/>
    <path d="M -0.707525 -4.447872 C -1.359438 -4.210103 -1.953327 -3.846711 -2.491524 -3.413382  L -2.241206 -3.108934  C -1.715256 -3.437268 -1.156089 -3.722031 -0.550262 -3.868848  Z" fill="white" stroke="white" stroke-width="0"/>
    <path d="M -0.668210 -4.303116 C -1.308287 -4.087276 -1.893934 -3.744726 -2.428945 -3.337270  L -2.303786 -3.185046  C -1.775143 -3.539863 -1.206624 -3.843900 -0.589578 -4.013604  Z" fill="black" stroke="black" stroke-width="0.005"/>
    <path d="M 0.252164 -3.412771 C 0.293633 -2.770036 0.209360 -2.127322 0.071612 -1.500747  L 0.268205 -1.439458  C 0.448273 -2.088083 0.559719 -2.757106 0.551516 -3.432479  Z" fill="black" stroke="black" stroke-width="0.005"/>
    <path d="M -0.539347 -2.582988 C 0.077346 -2.317633 0.706217 -2.081733 1.332420 -1.840002  L 1.511494 -2.412656  C 0.868806 -2.577832 0.232489 -2.765791 -0.404039 -2.953176  Z" fill="white" stroke="white" stroke-width="0"/>
    <path d="M -0.505520 -2.675535 C 0.116308 -2.429524 0.746750 -2.205949 1.377189 -1.983165  L 1.466726 -2.269492  C 0.828034 -2.453994 0.193888 -2.653612 -0.437866 -2.860629  Z" fill="black" stroke="black" stroke-width="0.005"/>
    <path d="M 2.173071 -0.837334 C 2.122785 -0.220160 1.874541 0.342654 1.531518 0.850359  L 1.666425 0.972235  C 2.077738 0.447313 2.380775 -0.153113 2.472641 -0.821277  Z" fill="black" stroke="black" stroke-width="0.005"/>
    <path d="M 2.843457 1.041258 C 2.546906 0.381287 1.987087 0.009548 1.303657 -0.152764  L 1.252879 0.224499  C 1.711819 0.440294 2.105938 0.701827 2.268649 1.213291  Z" fill="white" stroke="white" stroke-width="0"/>
    <path d="M 2.699755 1.084267 C 2.436933 0.467949 1.919575 0.109001 1.290963 -0.058448  L 1.265574 0.130183  C 1.780629 0.344931 2.210809 0.615603 2.412351 1.170283  Z" fill="black" stroke="black" stroke-width="0.005"/>
    <path d="M 0.742903 -0.075884 C 0.240948 -0.071945 -0.245801 0.046362 -0.725145 0.181858  L -0.666520 0.338613  C -0.206881 0.203355 0.260356 0.086406 0.742903 0.075884  Z" fill="black" stroke="black" stroke-width="0.005"/>
    <path d="M 0.367872 0.663030 C 0.239109 0.207853 0.212501 -0.263407 0.206375 -0.733024  L -0.127877 -0.750707  C -0.110361 -0.243356 -0.074637 0.265943 0.078348 0.754188  Z" fill="white" stroke="white" stroke-width="0"/>
    <path d="M 0.295491 0.685820 C 0.160608 0.222387 0.131836 -0.258403 0.122812 -0.737445  L -0.044314 -0.746287  C -0.029597 -0.248378 0.003738 0.251433 0.150729 0.731399  Z" fill="black" stroke="black" stroke-width="0.005"/>
  </g>
  <g fill="none" stroke="black">
    <path d="M 2.5561 1.1273 C 2.6994 1.6063, 2.3428 2.0924, 1.8429 2.0995" stroke-width="0.305"/>
    <path d="M -1.6011 1.9949 C -1.3155 2.4053, -0.5616 2.6402, -0.0934 2.4647" stroke-width="0.305"/>
    <path d="M -4.1553 0.649 C -4.1354 1.1486, -3.6297 1.5297, -3.1439 1.4112" stroke-width="0.305"/>
    <path d="M -4.7488 -2.3253 C -5.1692 -2.0546, -5.2409 -1.4255, -4.8923 -1.0671" stroke-width="0.305"/>
    <path d="M -2.4871 -4.346 C -2.9337 -4.5709, -3.5122 -4.3135, -3.6441 -3.8312" stroke-width="0.305"/>
    <path d="M 0.4018 -3.4226 C 0.369 -3.9215, -0.1464 -4.2894, -0.6289 -4.1584" stroke-width="0.305"/>
    <path d="M 2.3229 -0.8293 C 2.3496 -1.3286, 1.8992 -1.9771, 1.422 -2.1263" stroke-width="0.305"/>
    <path d="M 1.3494 1.2515 C 1.4031 1.1601, 1.5279 0.99, 1.599 0.9113" stroke-width="0.1868"/>
    <path d="M -0.4717 -2.7681 C -0.6191 -2.8219, -0.8653 -2.9977, -0.9641 -3.1195" stroke-width="0.2021"/>
    <path d="M -3.7527 -1.8788 C -3.7283 -1.7238, -3.7626 -1.4233, -3.8213 -1.2777" stroke-width="0.2021"/>
    <path d="M -1.292463 0.688124 C -1.099847 0.543975 -0.880337 0.445303 -0.666520 0.338613  L -0.725145 0.181858  C -0.958523 0.283269 -1.196889 0.376454 -1.409962 0.519013  Z" fill="black" stroke="black" stroke-width="0.005"/>
    <path d="M 0.742903 0.075884 C 0.918404 0.081210 1.091780 0.108814 1.265574 0.130183  L 1.290963 -0.058448  C 1.108476 -0.068006 0.925876 -0.084316 0.742903 -0.075884  Z" fill="black" stroke="black" stroke-width="0.005"/>
    <path d="M 0.504253 1.168056 C 0.422290 1.012855 0.361786 0.847906 0.295491 0.685820  L 0.150729 0.731399  C 0.207775 0.904989 0.258688 1.080984 0.331954 1.248923  Z" fill="black" stroke="black" stroke-width="0.005"/>
    <path d="M 0.122812 -0.737445 C 0.140864 -0.977480 0.208888 -1.207966 0.268205 -1.439458  L 0.071612 -1.500747  C 0.021099 -1.251365 -0.039869 -1.002513 -0.044314 -0.746287  Z" fill="black" stroke="black" stroke-width="0.005"/>
    <path d="M -2.3664 -3.2612 C -2.4876 -3.1615, -2.7639 -3.0386, -2.9191 -3.0152" stroke-width="0.2021"/>
    <path d="M -3.2651 0.0173 C -3.1192 0.075, -2.8776 0.257, -2.782 0.3814" stroke-width="0.2021"/>
  </g>
</svg>
