<?xml version="1.0" encoding="utf-8" ?>
<svg xmlns="http://www.w3.org/2000/svg" xmlns:ev="http://www.w3.org/2001/xml-events" xmlns:xlink="http://www.w3.org/1999/xlink" baseProfile="full" version="1.1" viewBox="-3.476963772406041 -5.048871330524452 8.504339410799748 8.533087837486185">
  <defs/>
  <g stroke="none">
    <path d="M -1.384045 -3.118410 C -1.474132 -2.456579 -1.196082 -1.904894 -0.713678 -1.475026  L -0.609494 -1.628837  C -0.962291 -2.047450 -1.203003 -2.470927 -1.093625 -3.043201  Z" fill="black" stroke="black" stroke-width="0.005"/>
    <path d="M -0.589973 -2.585360 C -1.267069 -2.379767 -1.803262 -1.928665 -2.244135 -1.391231  L -1.722361 -1.095002  C -1.397022 -1.571755 -1.018498 -1.991783 -0.481510 -2.241066  Z" fill="white" stroke="white" stroke-width="0"/>
    <path d="M -0.562857 -2.499286 C -1.201454 -2.282126 -1.706566 -1.841409 -2.113691 -1.317174  L -1.852804 -1.169059  C -1.493096 -1.653758 -1.085078 -2.095074 -0.508626 -2.327140  Z" fill="black" stroke="black" stroke-width="0.005"/>
    <path d="M -0.119853 -2.486702 C 0.457358 -2.732610 1.070445 -2.736152 1.680763 -2.682111  L 1.738951 -2.976413  C 1.074091 -3.017621 0.403360 -2.945270 -0.202194 -2.647312  Z" fill="black" stroke="black" stroke-width="0.005"/>
    <path d="M 0.723626 -2.005899 C 0.842561 -2.725000 0.532777 -3.314256 0.024202 -3.793594  L -0.283494 -3.278498  C 0.099513 -2.960661 0.356057 -2.600519 0.356343 -2.076536  Z" fill="white" stroke="white" stroke-width="0"/>
    <path d="M 0.631805 -2.023558 C 0.721357 -2.687639 0.426401 -3.233424 -0.052722 -3.664820  L -0.206570 -3.407272  C 0.200232 -3.037134 0.477825 -2.640270 0.448164 -2.058877  Z" fill="black" stroke="black" stroke-width="0.005"/>
    <path d="M 2.067778 -0.405114 C 2.649664 -0.422639 3.040651 -0.136828 3.402221 0.277607  L 3.662923 0.129166  C 3.241616 -0.358852 2.702103 -0.665130 2.036298 -0.589452  Z" fill="black" stroke="black" stroke-width="0.005"/>
    <path d="M 2.721946 0.300214 C 3.066404 -0.313891 3.169290 -1.008582 3.159770 -1.702496  L 2.568864 -1.598425  C 2.631219 -1.012818 2.624679 -0.430773 2.404232 0.128868  Z" fill="white" stroke="white" stroke-width="0"/>
    <path d="M 2.642518 0.257378 C 2.953044 -0.341828 3.039372 -1.010903 3.012044 -1.676478  L 2.716591 -1.624443  C 2.757888 -1.013130 2.741556 -0.400251 2.483661 0.171704  Z" fill="black" stroke="black" stroke-width="0.005"/>
    <path d="M 1.272792 2.140710 C 1.835046 1.769193 2.225150 1.225993 2.487000 0.614875  L 2.316022 0.557064  C 2.038137 1.095192 1.658943 1.566647 1.130152 1.876790  Z" fill="black" stroke="black" stroke-width="0.005"/>
    <path d="M 1.381841 0.794770 C 1.793583 1.396219 2.424923 1.604573 3.123424 1.594763  L 2.985157 1.010912  C 2.489845 1.049939 2.056733 0.969718 1.693743 0.592866  Z" fill="white" stroke="white" stroke-width="0"/>
    <path d="M 1.459816 0.744294 C 1.854703 1.285377 2.445065 1.472679 3.088857 1.448800  L 3.019724 1.156875  C 2.470736 1.174648 1.996933 1.082658 1.615767 0.643342  Z" fill="black" stroke="black" stroke-width="0.005"/>
    <path d="M -0.595820 0.190105 C -0.936965 0.761032 -0.831436 1.346953 -0.489310 1.880311  L -0.276431 1.668929  C -0.563101 1.222364 -0.694554 0.799715 -0.455342 0.285527  Z" fill="black" stroke="black" stroke-width="0.005"/>
    <path d="M -0.341200 0.378068 C -0.812050 0.552620 -1.189513 0.423790 -1.566444 0.137342  L -1.997999 0.554188  C -1.412480 0.925411 -0.778906 1.045672 -0.156258 0.662943  Z" fill="white" stroke="white" stroke-width="0"/>
    <path d="M -0.294964 0.449286 C -0.814031 0.677719 -1.233846 0.537477 -1.674332 0.241553  L -1.890110 0.449976  C -1.364005 0.803155 -0.780413 0.920884 -0.202494 0.591724  Z" fill="black" stroke="black" stroke-width="0.005"/>
    <path d="M -0.065423 0.332584 C 0.004321 0.115508 0.019759 -0.111654 0.044719 -0.336266  L -0.030653 -0.337839  C -0.053359 -0.119752 -0.066989 0.100693 -0.132705 0.311900  Z" fill="black" stroke="black" stroke-width="0.005"/>
    <path d="M 0.337126 -0.075389 C 0.105680 -0.075792 -0.118662 -0.020661 -0.343515 0.024620  L -0.304963 0.160019  C -0.092657 0.120775 0.119390 0.072126 0.337126 0.075389  Z" fill="white" stroke="white" stroke-width="0"/>
    <path d="M 0.337126 -0.037694 C 0.109108 -0.038801 -0.112160 0.014698 -0.333877 0.058470  L -0.314601 0.126170  C -0.099158 0.085416 0.115963 0.035158 0.337126 0.037694  Z" fill="black" stroke="black" stroke-width="0.005"/>
    <path d="M 1.367157 0.252457 C 1.240442 -0.050039 1.065029 -0.326887 0.892237 -0.603969  L 0.809500 -0.545895  C 0.975929 -0.273902 1.145224 -0.002211 1.266645 0.294102  Z" fill="black" stroke="black" stroke-width="0.005"/>
    <path d="M 1.538823 -0.463564 C 1.244317 -0.337466 0.939320 -0.239119 0.635416 -0.138959  L 0.688356 0.049430  C 1.002517 -0.045129 1.317275 -0.138911 1.622608 -0.260077  Z" fill="white" stroke="white" stroke-width="0"/>
    <path d="M 1.559769 -0.412692 C 1.262547 -0.287842 0.955122 -0.190619 0.648651 -0.091862  L 0.675121 0.002333  C 0.986720 -0.093625 1.299026 -0.188564 1.601662 -0.310949  Z" fill="black" stroke="black" stroke-width="0.005"/>
    <path d="M 0.344295 -1.594826 C 0.215623 -1.294809 0.114189 -0.984552 0.011752 -0.675023  L 0.105374 -0.646593  C 0.210504 -0.950937 0.314118 -1.256267 0.445142 -1.550820  Z" fill="black" stroke="black" stroke-width="0.005"/>
    <path d="M -0.289480 -1.222694 C 0.001207 -1.097847 0.266785 -0.926011 0.532770 -0.757182  L 0.652345 -0.920196  C 0.376450 -1.101961 0.100815 -1.286245 -0.202014 -1.421937  Z" fill="white" stroke="white" stroke-width="0"/>
    <path d="M -0.267613 -1.272505 C 0.026103 -1.144929 0.294202 -0.970003 0.562664 -0.797936  L 0.622451 -0.879442  C 0.349035 -1.057978 0.075907 -1.239128 -0.223881 -1.372126  Z" fill="black" stroke="black" stroke-width="0.005"/>
  </g>
  <g fill="none" stroke="black">
    <path d="M -1.7822 0.3458 C -2.1296 -0.0139, -2.2301 -0.8083, -1.9832 -1.2431" stroke-width="0.305"/>
    <path d="M -1.2388 -3.0808 C -1.1135 -3.5648, -0.5589 -3.7925, -0.1296 -3.536" stroke-width="0.305"/>
    <path d="M 1.7099 -2.8293 C 2.2004 -2.7323, 2.7776 -2.1429, 2.8643 -1.6505" stroke-width="0.305"/>
    <path d="M 3.5326 0.2034 C 3.78 0.6379, 3.5408 1.1876, 3.0543 1.3028" stroke-width="0.305"/>
    <path d="M 1.2015 2.0087 C 0.7616 2.2465, -0.0306 2.1294, -0.3829 1.7746" stroke-width="0.305"/>
    <path d="M 2.5631 0.2145 C 2.5149 0.304, 2.4341 0.4897, 2.4015 0.586" stroke-width="0.1855"/>
    <path d="M -0.455342 0.285527 C -0.436849 0.211330 -0.362177 0.177014 -0.314601 0.126170  L -0.333877 0.058470  C -0.420532 0.098509 -0.532015 0.103716 -0.595820 0.190105  Z" fill="black" stroke="black" stroke-width="0.005"/>
    <path d="M 0.337126 0.037694 C 0.451454 0.046423 0.562968 0.015315 0.675121 0.002333  L 0.648651 -0.091862  C 0.545398 -0.072944 0.443763 -0.037567 0.337126 -0.037694  Z" fill="black" stroke="black" stroke-width="0.005"/>
    <path d="M 1.601662 -0.310949 C 1.752923 -0.362087 1.912034 -0.377149 2.067778 -0.405114  L 2.036298 -0.589452  C 1.876070 -0.534838 1.710156 -0.493142 1.559769 -0.412692  Z" fill="black" stroke="black" stroke-width="0.005"/>
    <path d="M 1.615767 0.643342 C 1.518464 0.522652 1.447052 0.384495 1.367157 0.252457  L 1.266645 0.294102  C 1.328175 0.445162 1.379457 0.601186 1.459816 0.744294  Z" fill="black" stroke="black" stroke-width="0.005"/>
    <path d="M 0.8509 -0.5749 C 0.7971 -0.6515, 0.668 -0.7834, 0.5926 -0.8387" stroke-width="0.1061"/>
    <path d="M -0.223881 -1.372126 C -0.361262 -1.444293 -0.482626 -1.541172 -0.609494 -1.628837  L -0.713678 -1.475026  C -0.566619 -1.404257 -0.423613 -1.323110 -0.267613 -1.272505  Z" fill="black" stroke="black" stroke-width="0.005"/>
    <path d="M 0.448164 -2.058877 C 0.434597 -1.899970 0.382975 -1.748416 0.344295 -1.594826  L 0.445142 -1.550820  C 0.510914 -1.706683 0.590255 -1.857994 0.631805 -2.023558  Z" fill="black" stroke="black" stroke-width="0.005"/>
    <path d="M 0.011752 -0.675023 C -0.022432 -0.565560 -0.017702 -0.449928 -0.030653 -0.337839  L 0.044719 -0.336266  C 0.063792 -0.439584 0.066768 -0.547212 0.105374 -0.646593  Z" fill="black" stroke="black" stroke-width="0.005"/>
    <path d="M -0.132705 0.311900 C -0.164706 0.381771 -0.242238 0.406517 -0.294964 0.449286  L -0.202494 0.591724  C -0.155177 0.508532 -0.066480 0.439721 -0.065423 0.332584  Z" fill="black" stroke="black" stroke-width="0.005"/>
    <path d="M -0.5357 -2.4132 C -0.4388 -2.4437, -0.2515 -2.5206, -0.161 -2.567" stroke-width="0.1855"/>
  </g>
</svg>
