<?xml version="1.0" encoding="utf-8" ?>
<svg xmlns="http://www.w3.org/2000/svg" xmlns:ev="http://www.w3.org/2001/xml-events" xmlns:xlink="http://www.w3.org/1999/xlink" baseProfile="full" version="1.1" viewBox="-2.413501206339289 -3.067187494421633 8.279268442296374 7.967311363227701">
  <defs/>
  <g stroke="none">
    <path d="M 0.898557 -1.488100 C 1.475982 -1.203024 1.988495 -0.806038 2.459679 -0.371035  L 2.602303 -0.499778  C 2.137348 -0.986037 1.618199 -1.421979 1.031979 -1.756798  Z" fill="black" stroke="black" stroke-width="0.005"/>
    <path d="M 2.738751 -1.742891 C 2.085241 -1.477956 1.559495 -1.015470 1.141329 -0.457953  L 1.454383 -0.244654  C 1.877510 -0.644786 2.327192 -1.015850 2.904897 -1.166354  Z" fill="white" stroke="white" stroke-width="0"/>
    <path d="M 2.780287 -1.598757 C 2.149276 -1.359565 1.634689 -0.926663 1.219593 -0.404629  L 1.376119 -0.297979  C 1.787268 -0.750118 2.275484 -1.120883 2.863361 -1.310488  Z" fill="black" stroke="black" stroke-width="0.005"/>
    <path d="M 3.692601 -0.724370 C 3.710799 -0.105455 3.528930 0.482527 3.247096 1.026748  L 3.404111 1.137485  C 3.748634 0.565688 3.978566 -0.067317 3.992067 -0.742254  Z" fill="black" stroke="black" stroke-width="0.005"/>
    <path d="M 2.904823 0.058374 C 3.428570 0.349497 3.799899 0.794882 4.120991 1.285703  L 4.646724 0.996558  C 4.221448 0.446518 3.706385 -0.032046 3.052362 -0.296446  Z" fill="white" stroke="white" stroke-width="0"/>
    <path d="M 2.941708 -0.030331 C 3.502280 0.248900 3.900129 0.713749 4.252425 1.213417  L 4.515291 1.068844  C 4.120575 0.531595 3.633843 0.064094 3.015477 -0.207741  Z" fill="black" stroke="black" stroke-width="0.005"/>
    <path d="M 3.863512 2.151458 C 3.263832 2.305635 2.650224 2.257848 2.057264 2.102909  L 1.983862 2.280471  C 2.617537 2.490479 3.285656 2.575223 3.946968 2.439616  Z" fill="black" stroke="black" stroke-width="0.005"/>
    <path d="M 2.395231 3.461456 C 2.872302 2.942814 3.155491 2.301892 3.304986 1.621294  L 2.926372 1.555597  C 2.708658 2.098281 2.455404 2.626875 1.997311 3.012391  Z" fill="white" stroke="white" stroke-width="0"/>
    <path d="M 2.295751 3.349189 C 2.763779 2.862700 3.049197 2.252699 3.210333 1.604870  L 3.021025 1.572021  C 2.835103 2.156007 2.547578 2.700184 2.096791 3.124657  Z" fill="black" stroke="black" stroke-width="0.005"/>
    <path d="M 1.096095 2.952082 C 0.814838 2.402133 0.732189 1.794687 0.761577 1.184270  L 0.575507 1.148879  C 0.499452 1.811480 0.556769 2.481494 0.833421 3.097004  Z" fill="black" stroke="black" stroke-width="0.005"/>
    <path d="M 1.470727 1.906648 C 0.842450 1.875740 0.223210 1.750334 -0.370064 1.545207  L -0.561750 2.113763  C 0.111221 2.257176 0.800997 2.347871 1.490103 2.290431  Z" fill="white" stroke="white" stroke-width="0"/>
    <path d="M 1.475571 2.002593 C 0.831729 1.994349 0.195674 1.875909 -0.417986 1.687346  L -0.513829 1.971624  C 0.139584 2.129400 0.811057 2.230374 1.485259 2.194485  Z" fill="black" stroke="black" stroke-width="0.005"/>
    <path d="M -1.125595 0.540673 C -1.006749 0.025490 -0.670502 -0.093950 -0.194456 -0.120691  L -0.150518 -0.276086  C -0.759359 -0.354173 -1.244044 -0.125701 -1.422667 0.498862  Z" fill="black" stroke="black" stroke-width="0.005"/>
    <path d="M -0.772084 -1.449485 C -1.108671 -0.804284 -0.901834 -0.244763 -0.341166 0.159039  L -0.183356 -0.122756  C -0.439112 -0.451273 -0.545331 -0.713053 -0.293069 -1.088175  Z" fill="white" stroke="white" stroke-width="0"/>
    <path d="M -0.652330 -1.359158 C -0.968033 -0.791428 -0.787196 -0.287030 -0.301713 0.088590  L -0.222808 -0.052307  C -0.540279 -0.408041 -0.693373 -0.730362 -0.412823 -1.178503  Z" fill="black" stroke="black" stroke-width="0.005"/>
    <path d="M 0.126607 -0.012371 C 0.040810 -0.016913 -0.042182 0.008334 -0.125949 0.019961  L -0.117615 0.049278  C -0.036642 0.036222 0.043310 0.010077 0.126607 0.012371  Z" fill="black" stroke="black" stroke-width="0.005"/>
    <path d="M 0.106972 0.072100 C 0.048169 0.014875 0.011563 -0.059420 -0.034927 -0.125452  L -0.088192 -0.095814  C -0.035733 -0.027846 0.006440 0.049481 0.071958 0.107068  Z" fill="white" stroke="white" stroke-width="0"/>
    <path d="M 0.098219 0.080842 C 0.037735 0.023524 -0.000262 -0.051523 -0.048243 -0.118043  L -0.074876 -0.103223  C -0.023910 -0.035736 0.016870 0.040828 0.080712 0.098326  Z" fill="black" stroke="black" stroke-width="0.005"/>
    <path d="M 0.155454 0.125456 C 0.227437 0.123337 0.298111 0.108566 0.369270 0.099567  L 0.364545 0.075782  C 0.294556 0.085418 0.225103 0.100708 0.154229 0.103668  Z" fill="black" stroke="black" stroke-width="0.005"/>
    <path d="M 0.341475 0.184196 C 0.301753 0.123476 0.251905 0.070499 0.206760 0.014078  L 0.174196 0.043138  C 0.216769 0.098859 0.263966 0.151341 0.301140 0.211124  Z" fill="white" stroke="white" stroke-width="0"/>
    <path d="M 0.331391 0.190928 C 0.292303 0.130444 0.243120 0.077590 0.198619 0.021343  L 0.182337 0.035873  C 0.225552 0.091769 0.273410 0.144376 0.311224 0.204392  Z" fill="black" stroke="black" stroke-width="0.005"/>
    <path d="M 0.938053 0.027549 C 0.791758 0.189544 0.601824 0.183545 0.410163 0.222698  L 0.400580 0.280991  C 0.623399 0.257497 0.827560 0.258821 1.004216 0.089009  Z" fill="black" stroke="black" stroke-width="0.005"/>
    <path d="M 0.817719 0.649353 C 0.808185 0.389458 0.652746 0.242106 0.499125 0.060895  L 0.430175 0.156840  C 0.526074 0.312662 0.653494 0.439576 0.637237 0.642583  Z" fill="white" stroke="white" stroke-width="0"/>
    <path d="M 0.772599 0.647661 C 0.767922 0.402667 0.622716 0.259144 0.481888 0.084881  L 0.447413 0.132854  C 0.555144 0.296134 0.693604 0.426289 0.682358 0.644275  Z" fill="black" stroke="black" stroke-width="0.005"/>
  </g>
  <g fill="none" stroke="black">
    <path d="M 0.9653 -1.6224 C 0.5174 -1.8448, -0.2315 -1.668, -0.5326 -1.2688" stroke-width="0.305"/>
    <path d="M 2.8218 -1.4546 C 3.3023 -1.5931, 3.8125 -1.2324, 3.8423 -0.7333" stroke-width="0.305"/>
    <path d="M 3.9052 2.2955 C 4.3855 2.1564, 4.6248 1.5792, 4.3839 1.1411" stroke-width="0.305"/>
    <path d="M 2.1963 3.2369 C 1.8221 3.5685, 1.2063 3.4623, 0.9648 3.0245" stroke-width="0.305"/>
    <path d="M -1.2741 0.5198 C -1.3438 1.0149, -0.9397 1.6697, -0.4659 1.8295" stroke-width="0.305"/>
    <path d="M 1.4804 2.0985 C 1.6207 2.0915, 1.8908 2.138, 2.0206 2.1917" stroke-width="0.1971"/>
    <path d="M 2.9786 -0.119 C 2.8489 -0.173, 2.6251 -0.3311, 2.531 -0.4354" stroke-width="0.1971"/>
    <path d="M -0.301713 0.088590 C -0.233418 0.115162 -0.176333 0.064780 -0.117615 0.049278  L -0.125949 0.019961  C -0.158277 -0.001750 -0.213895 -0.007475 -0.222808 -0.052307  Z" fill="black" stroke="black" stroke-width="0.005"/>
    <path d="M 0.126607 0.012371 C 0.148901 0.009715 0.164530 0.027754 0.182337 0.035873  L 0.198619 0.021343  C 0.175699 0.009573 0.156518 -0.015494 0.126607 -0.012371  Z" fill="black" stroke="black" stroke-width="0.005"/>
    <path d="M 0.311224 0.204392 C 0.324973 0.246690 0.370739 0.257191 0.400580 0.280991  L 0.410163 0.222698  C 0.384896 0.213293 0.351225 0.215554 0.331391 0.190928  Z" fill="black" stroke="black" stroke-width="0.005"/>
    <path d="M 1.004216 0.089009 C 1.139719 -0.028474 1.255349 -0.166059 1.376119 -0.297979  L 1.219593 -0.404629  C 1.127827 -0.259462 1.044204 -0.108462 0.938053 0.027549  Z" fill="black" stroke="black" stroke-width="0.005"/>
    <path d="M 3.3256 1.0821 C 3.2447 1.1969, 3.1397 1.4501, 3.1157 1.5884" stroke-width="0.1971"/>
    <path d="M 0.761577 1.184270 C 0.779998 1.005709 0.772704 0.826471 0.772599 0.647661  L 0.682358 0.644275  C 0.650832 0.813230 0.626398 0.984259 0.575507 1.148879  Z" fill="black" stroke="black" stroke-width="0.005"/>
    <path d="M 0.481888 0.084881 C 0.445520 0.059034 0.402618 0.077250 0.364545 0.075782  L 0.369270 0.099567  C 0.394993 0.109590 0.429029 0.107305 0.447413 0.132854  Z" fill="black" stroke="black" stroke-width="0.005"/>
    <path d="M 0.154229 0.103668 C 0.131949 0.106513 0.116085 0.088722 0.098219 0.080842  L 0.080712 0.098326  C 0.104605 0.107989 0.125959 0.131272 0.155454 0.125456  Z" fill="black" stroke="black" stroke-width="0.005"/>
    <path d="M -0.048243 -0.118043 C -0.046785 -0.190689 -0.115615 -0.226381 -0.150518 -0.276086  L -0.194456 -0.120691  C -0.160949 -0.116824 -0.109371 -0.135430 -0.074876 -0.103223  Z" fill="black" stroke="black" stroke-width="0.005"/>
  </g>
</svg>
