<?xml version="1.0" encoding="utf-8" ?>
<svg xmlns="http://www.w3.org/2000/svg" xmlns:ev="http://www.w3.org/2001/xml-events" xmlns:xlink="http://www.w3.org/1999/xlink" baseProfile="full" version="1.1" viewBox="-4.902513684078144 -5.440301985620793 10.341312734498214 10.574539968534706">
  <defs/>
  <g stroke="none">
    <path d="M -1.599935 -1.993807 C -0.977574 -2.228321 -0.347487 -2.441717 0.282181 -2.655630  L 0.226553 -2.841605  C -0.418237 -2.665003 -1.058932 -2.474079 -1.697872 -2.277370  Z" fill="black" stroke="black" stroke-width="0.005"/>
    <path d="M -0.160904 -1.597418 C -0.327414 -2.190989 -0.317516 -2.801560 -0.259900 -3.407057  L -0.853377 -3.495289  C -0.868145 -2.802667 -0.800624 -2.103930 -0.545696 -1.453464  Z" fill="white" stroke="white" stroke-width="0"/>
    <path d="M -0.257102 -1.561430 C -0.435907 -2.167934 -0.469434 -2.803227 -0.408269 -3.429115  L -0.705008 -3.473231  C -0.734469 -2.802846 -0.679494 -2.125297 -0.449498 -1.489453  Z" fill="black" stroke="black" stroke-width="0.005"/>
    <path d="M 0.473678 -3.948016 C 1.057147 -3.718623 1.552537 -3.326290 1.980141 -2.875455  L 2.136071 -2.991070  C 1.706238 -3.505036 1.192884 -3.946423 0.579242 -4.228830  Z" fill="black" stroke="black" stroke-width="0.005"/>
    <path d="M 2.383081 -4.229027 C 1.712745 -4.025564 1.123418 -3.646696 0.611128 -3.177225  L 0.882220 -2.899316  C 1.381301 -3.230965 1.900637 -3.539483 2.502151 -3.640961  Z" fill="white" stroke="white" stroke-width="0"/>
    <path d="M 2.412848 -4.082011 C 1.762088 -3.900847 1.185039 -3.546769 0.678901 -3.107748  L 0.814447 -2.968793  C 1.308340 -3.345843 1.859848 -3.654350 2.472384 -3.787978  Z" fill="black" stroke="black" stroke-width="0.005"/>
    <path d="M 3.260525 -3.135351 C 3.243459 -2.508641 3.043200 -1.909280 2.764857 -1.353742  L 2.926650 -1.246484  C 3.263593 -1.825608 3.503861 -2.458560 3.560503 -3.131688  Z" fill="black" stroke="black" stroke-width="0.005"/>
    <path d="M 2.413538 -2.394210 C 2.933813 -2.074582 3.320130 -1.617248 3.662346 -1.123505  L 4.174755 -1.435654  C 3.734204 -1.971238 3.218599 -2.448996 2.582562 -2.743717  Z" fill="white" stroke="white" stroke-width="0"/>
    <path d="M 2.455794 -2.481587 C 2.996018 -2.164022 3.437241 -1.713991 3.790448 -1.201542  L 4.046653 -1.357617  C 3.634481 -1.884848 3.144802 -2.354294 2.540306 -2.656341  Z" fill="black" stroke="black" stroke-width="0.005"/>
    <path d="M 3.445102 -0.238306 C 2.845187 -0.037944 2.208799 0.001018 1.581985 -0.038561  L 1.547146 0.163882  C 2.214105 0.243330 2.892529 0.226307 3.543776 0.045003  Z" fill="black" stroke="black" stroke-width="0.005"/>
    <path d="M 2.702450 1.265113 C 2.756566 0.596319 2.812502 -0.072280 2.846066 -0.742455  L 2.459894 -0.782405  C 2.347399 -0.128031 2.243300 0.528121 2.108746 1.178425  Z" fill="white" stroke="white" stroke-width="0"/>
    <path d="M 2.554024 1.243441 C 2.628143 0.579028 2.696250 -0.086032 2.749523 -0.752443  L 2.556437 -0.772418  C 2.463688 -0.113905 2.371524 0.544922 2.257172 1.200097  Z" fill="black" stroke="black" stroke-width="0.005"/>
    <path d="M -0.723729 2.453319 C -0.056311 2.547130 0.620356 2.541813 1.291322 2.497626  L 1.249988 2.200487  C 0.604154 2.283917 -0.049184 2.313293 -0.699563 2.265341  Z" fill="black" stroke="black" stroke-width="0.005"/>
    <path d="M -0.057817 1.524583 C -0.044277 2.114038 -0.253918 2.638248 -0.533943 3.140430  L -0.039722 3.480644  C 0.259267 2.850583 0.438270 2.171203 0.339164 1.468650  Z" fill="white" stroke="white" stroke-width="0"/>
    <path d="M 0.041429 1.510599 C 0.084010 2.129564 -0.134138 2.689639 -0.410388 3.225483  L -0.163277 3.395590  C 0.135136 2.801047 0.315650 2.154092 0.239919 1.482633  Z" fill="black" stroke="black" stroke-width="0.005"/>
    <path d="M -2.216947 1.645625 C -2.245583 2.319766 -2.001570 2.940448 -1.635370 3.492571  L -1.412711 3.291515  C -1.748891 2.799225 -2.023064 2.275463 -2.027910 1.659232  Z" fill="black" stroke="black" stroke-width="0.005"/>
    <path d="M -3.204380 2.386056 C -2.560647 2.685456 -1.864127 2.714470 -1.179069 2.576510  L -1.276303 2.210142  C -1.841056 2.221359 -2.398806 2.184384 -2.892358 1.873569  Z" fill="white" stroke="white" stroke-width="0"/>
    <path d="M -3.126374 2.257934 C -2.521441 2.555314 -1.857330 2.597691 -1.203377 2.484918  L -1.251995 2.301734  C -1.847621 2.363651 -2.438549 2.293982 -2.970364 2.001691  Z" fill="black" stroke="black" stroke-width="0.005"/>
    <path d="M -1.501366 0.040750 C -2.175170 0.091552 -2.777119 0.389535 -3.305591 0.793577  L -3.092389 1.004634  C -2.617454 0.633313 -2.107880 0.314555 -1.491831 0.240974  Z" fill="black" stroke="black" stroke-width="0.005"/>
    <path d="M -2.005077 1.080307 C -2.148847 0.454577 -2.229241 -0.183900 -2.245156 -0.825147  L -2.844426 -0.795552  C -2.741936 -0.119456 -2.605707 0.555726 -2.365428 1.197894  Z" fill="white" stroke="white" stroke-width="0"/>
    <path d="M -2.095165 1.109703 C -2.263550 0.479673 -2.356514 -0.167684 -2.394974 -0.817748  L -2.694609 -0.802951  C -2.612909 -0.135513 -2.491957 0.530277 -2.275340 1.168497  Z" fill="black" stroke="black" stroke-width="0.005"/>
    <path d="M 0.154005 0.821284 C 0.108265 0.266345 0.023624 -0.284133 -0.066498 -0.833213  L -0.243409 -0.799636  C -0.152600 -0.257092 -0.067705 0.286897 -0.020530 0.835346  Z" fill="black" stroke="black" stroke-width="0.005"/>
    <path d="M 0.830999 -0.180069 C 0.271007 -0.176319 -0.287472 -0.133880 -0.844961 -0.085210  L -0.807502 0.262982  C -0.262363 0.218988 0.283706 0.180297 0.830999 0.180069  Z" fill="white" stroke="white" stroke-width="0"/>
    <path d="M 0.830999 -0.090034 C 0.274181 -0.087158 -0.281194 -0.045667 -0.835596 0.001838  L -0.816867 0.175934  C -0.268640 0.130767 0.280531 0.091150 0.830999 0.090034  Z" fill="black" stroke="black" stroke-width="0.005"/>
  </g>
  <g fill="none" stroke="black">
    <path d="M -2.5448 -0.8103 C -2.5695 -1.3097, -2.1215 -1.9724, -1.6489 -2.1356" stroke-width="0.305"/>
    <path d="M 0.5265 -4.0884 C 0.0584 -4.2644, -0.4831 -3.9457, -0.5566 -3.4512" stroke-width="0.305"/>
    <path d="M 2.4426 -3.935 C 2.9327 -4.0342, 3.4166 -3.6335, 3.4105 -3.1335" stroke-width="0.305"/>
    <path d="M 3.4944 -0.0967 C 3.9666 -0.2611, 4.1787 -0.8526, 3.9186 -1.2796" stroke-width="0.305"/>
    <path d="M 2.4056 1.2218 C 2.3334 1.7165, 1.7659 2.2802, 1.2707 2.3491" stroke-width="0.305"/>
    <path d="M -0.2868 3.3105 C -0.5703 3.7224, -1.1889 3.7631, -1.524 3.392" stroke-width="0.305"/>
    <path d="M -3.0484 2.1298 C -3.4754 1.8698, -3.5508 1.2544, -3.199 0.8991" stroke-width="0.305"/>
    <path d="M -0.7116 2.3593 C -0.8423 2.3425, -1.1003 2.3595, -1.2277 2.3933" stroke-width="0.1945"/>
    <path d="M -1.491831 0.240974 C -1.266183 0.226243 -1.041593 0.200135 -0.816867 0.175934  L -0.835596 0.001838  C -1.057353 0.017281 -1.279060 0.035151 -1.501366 0.040750  Z" fill="black" stroke="black" stroke-width="0.005"/>
    <path d="M 0.830999 0.090034 C 1.071757 0.093318 1.309359 0.131686 1.547146 0.163882  L 1.581985 -0.038561  C 1.332368 -0.063776 1.082649 -0.096132 0.830999 -0.090034  Z" fill="black" stroke="black" stroke-width="0.005"/>
    <path d="M 2.498 -2.569 C 2.3657 -2.633, 2.1457 -2.8151, 2.0581 -2.9333" stroke-width="0.1991"/>
    <path d="M -0.449498 -1.489453 C -0.359765 -1.266082 -0.304759 -1.031610 -0.243409 -0.799636  L -0.066498 -0.833213  C -0.122157 -1.077856 -0.171568 -1.324630 -0.257102 -1.561430  Z" fill="black" stroke="black" stroke-width="0.005"/>
    <path d="M -0.020530 0.835346 C -0.007369 1.061071 0.018255 1.285768 0.041429 1.510599  L 0.239919 1.482633  C 0.208825 1.262521 0.175895 1.042601 0.154005 0.821284  Z" fill="black" stroke="black" stroke-width="0.005"/>
    <path d="M -2.1224 1.6524 C -2.113 1.521, -2.1444 1.2644, -2.1853 1.1391" stroke-width="0.1945"/>
    <path d="M 0.2544 -2.7486 C 0.3953 -2.7908, 0.6414 -2.9356, 0.7467 -3.0383" stroke-width="0.1991"/>
    <path d="M 2.8458 -1.3001 C 2.7645 -1.1775, 2.6681 -0.9087, 2.653 -0.7624" stroke-width="0.1991"/>
  </g>
</svg>
