<?xml version="1.0" encoding="utf-8" ?>
<svg xmlns="http://www.w3.org/2000/svg" xmlns:ev="http://www.w3.org/2001/xml-events" xmlns:xlink="http://www.w3.org/1999/xlink" baseProfile="full" version="1.1" viewBox="-3.6061363669555853 -4.807980789005857 8.251166360622898 10.02536388558632">
  <defs/>
  <g stroke="none">
    <path d="M -0.205516 -1.029839 C -0.397919 -1.621945 -0.329305 -2.222686 -0.199712 -2.814490  L -0.482911 -2.913476  C -0.614534 -2.261286 -0.623226 -1.588854 -0.384016 -0.957297  Z" fill="black" stroke="black" stroke-width="0.005"/>
    <path d="M 0.296540 -2.235936 C -0.391933 -2.171325 -1.054873 -1.960235 -1.691891 -1.700166  L -1.402345 -1.174653  C -0.855104 -1.482106 -0.267958 -1.715339 0.344862 -1.857066  Z" fill="white" stroke="white" stroke-width="0"/>
    <path d="M 0.308621 -2.141218 C -0.361339 -2.057803 -1.004372 -1.839704 -1.619504 -1.568788  L -1.474731 -1.306031  C -0.904379 -1.600587 -0.299413 -1.829840 0.332781 -1.951783  Z" fill="black" stroke="black" stroke-width="0.005"/>
    <path d="M 2.690721 -2.701444 C 2.019669 -2.771358 1.370755 -2.603161 0.775691 -2.304306  L 0.874696 -2.141005  C 1.433543 -2.377135 2.027890 -2.499413 2.634620 -2.406736  Z" fill="black" stroke="black" stroke-width="0.005"/>
    <path d="M 2.135651 -1.830523 C 1.947466 -2.513083 1.515072 -3.066113 0.994509 -3.528286  L 0.674442 -3.020785  C 1.134850 -2.671470 1.539428 -2.273200 1.768063 -1.726808  Z" fill="white" stroke="white" stroke-width="0"/>
    <path d="M 2.043754 -1.804594 C 1.844672 -2.449777 1.422330 -2.972212 0.914493 -3.401411  L 0.754459 -3.147661  C 1.222789 -2.765144 1.647768 -2.337288 1.859960 -1.752737  Z" fill="black" stroke="black" stroke-width="0.005"/>
    <path d="M 2.127098 -1.244688 C 2.506142 -0.724240 2.792070 -0.143908 3.008140 0.460558  L 3.293247 0.367206  C 3.028308 -0.250524 2.706937 -0.848671 2.273997 -1.366712  Z" fill="black" stroke="black" stroke-width="0.005"/>
    <path d="M 2.013256 0.058851 C 2.657097 -0.234960 3.137873 -0.747013 3.516868 -1.330954  L 2.967683 -1.572606  C 2.689922 -1.064256 2.356142 -0.602400 1.851211 -0.290776  Z" fill="white" stroke="white" stroke-width="0"/>
    <path d="M 1.972745 -0.028556 C 2.578498 -0.327134 3.030881 -0.824718 3.379572 -1.391367  L 3.104980 -1.512193  C 2.796000 -0.991081 2.436338 -0.505034 1.891722 -0.203369  Z" fill="black" stroke="black" stroke-width="0.005"/>
    <path d="M 1.244410 1.439242 C 1.436813 2.031348 1.368199 2.632088 1.238605 3.223893  L 1.521805 3.322878  C 1.653427 2.670688 1.662120 1.998257 1.422909 1.366699  Z" fill="black" stroke="black" stroke-width="0.005"/>
    <path d="M 0.742353 2.645338 C 1.430827 2.580727 2.093766 2.369637 2.730784 2.109568  L 2.441238 1.584056  C 1.893998 1.891508 1.306852 2.124741 0.694032 2.266468  Z" fill="white" stroke="white" stroke-width="0"/>
    <path d="M 0.730273 2.550621 C 1.400232 2.467205 2.043266 2.249106 2.658398 1.978190  L 2.513625 1.715434  C 1.943273 2.009989 1.338307 2.239242 0.706112 2.361186  Z" fill="black" stroke="black" stroke-width="0.005"/>
    <path d="M -1.651827 3.110846 C -0.980775 3.180760 -0.331861 3.012563 0.263203 2.713709  L 0.164197 2.550408  C -0.394650 2.786538 -0.988996 2.908815 -1.595727 2.816138  Z" fill="black" stroke="black" stroke-width="0.005"/>
    <path d="M -1.096757 2.239925 C -0.908572 2.922486 -0.476179 3.475515 0.044384 3.937689  L 0.364451 3.430188  C -0.095957 3.080872 -0.500535 2.682602 -0.729170 2.136211  Z" fill="white" stroke="white" stroke-width="0"/>
    <path d="M -1.004860 2.213996 C -0.805778 2.859179 -0.383436 3.381614 0.124401 3.810813  L 0.284434 3.557063  C -0.183896 3.174546 -0.608874 2.746691 -0.821067 2.162139  Z" fill="black" stroke="black" stroke-width="0.005"/>
    <path d="M -1.088204 1.654090 C -1.467248 1.133642 -1.753177 0.553310 -1.969247 -0.051155  L -2.254353 0.042196  C -1.989415 0.659926 -1.668044 1.258074 -1.235103 1.776114  Z" fill="black" stroke="black" stroke-width="0.005"/>
    <path d="M -0.974362 0.350551 C -1.618204 0.644363 -2.098979 1.156416 -2.477975 1.740356  L -1.928790 1.982009  C -1.651028 1.473659 -1.317248 1.011802 -0.812317 0.700178  Z" fill="white" stroke="white" stroke-width="0"/>
    <path d="M -0.933851 0.437958 C -1.539605 0.736536 -1.991987 1.234120 -2.340679 1.800769  L -2.066086 1.921595  C -1.757106 1.400483 -1.397445 0.914437 -0.852829 0.612772  Z" fill="black" stroke="black" stroke-width="0.005"/>
    <path d="M 0.469209 -0.045009 C 0.147495 -0.045804 -0.138346 0.080860 -0.425858 0.204932  L -0.365000 0.300213  C -0.098183 0.177420 0.167844 0.053691 0.469209 0.045009  Z" fill="black" stroke="black" stroke-width="0.005"/>
    <path d="M 0.404477 0.254281 C 0.200774 0.045762 0.096814 -0.218255 -0.007316 -0.482582  L -0.226313 -0.426288  C -0.093653 -0.131854 0.035253 0.163496 0.281656 0.385914  Z" fill="white" stroke="white" stroke-width="0"/>
    <path d="M 0.373772 0.287189 C 0.159349 0.075247 0.049250 -0.196703 -0.062066 -0.468509  L -0.171564 -0.440362  C -0.045989 -0.153502 0.076595 0.134113 0.312361 0.353006  Z" fill="black" stroke="black" stroke-width="0.005"/>
    <path d="M 0.569685 0.454411 C 0.891398 0.455207 1.177239 0.328542 1.464752 0.204470  L 1.403893 0.109189  C 1.137076 0.231983 0.871050 0.355711 0.569685 0.364394  Z" fill="black" stroke="black" stroke-width="0.005"/>
    <path d="M 1.265207 0.835690 C 1.171899 0.516999 0.964494 0.271296 0.757238 0.023488  L 0.634417 0.155122  C 0.804194 0.382725 0.977184 0.609025 1.046210 0.891985  Z" fill="white" stroke="white" stroke-width="0"/>
    <path d="M 1.210458 0.849764 C 1.123082 0.540061 0.924427 0.299159 0.726532 0.056396  L 0.665122 0.122213  C 0.844278 0.354875 1.025712 0.586073 1.100959 0.877911  Z" fill="black" stroke="black" stroke-width="0.005"/>
  </g>
  <g fill="none" stroke="black">
    <path d="M -2.1118 -0.0045 C -2.2674 -0.4797, -1.985 -1.1961, -1.5471 -1.4374" stroke-width="0.305"/>
    <path d="M -0.3413 -2.864 C -0.1763 -3.336, 0.4116 -3.5413, 0.8345 -3.2745" stroke-width="0.305"/>
    <path d="M 2.6627 -2.5541 C 3.1539 -2.4606, 3.4437 -1.9094, 3.2423 -1.4518" stroke-width="0.305"/>
    <path d="M 3.1507 0.4139 C 3.3063 0.8891, 3.0239 1.6055, 2.586 1.8468" stroke-width="0.305"/>
    <path d="M 1.3802 3.2734 C 1.2152 3.7454, 0.6273 3.9507, 0.2044 3.6839" stroke-width="0.305"/>
    <path d="M -1.6238 2.9635 C -2.115 2.87, -2.4048 2.3188, -2.2034 1.8612" stroke-width="0.305"/>
    <path d="M 0.7182 2.4559 C 0.5827 2.4732, 0.3305 2.5613, 0.2137 2.6321" stroke-width="0.196"/>
    <path d="M -0.852829 0.612772 C -0.682553 0.520592 -0.525546 0.407414 -0.365000 0.300213  L -0.425858 0.204932  C -0.593460 0.286161 -0.758526 0.373968 -0.933851 0.437958  Z" fill="black" stroke="black" stroke-width="0.005"/>
    <path d="M 0.4692 0.0 C 0.5347 0.0, 0.648 0.0447, 0.6958 0.0893" stroke-width="0.095"/>
    <path d="M 1.100959 0.877911 C 1.133698 1.068626 1.192634 1.253237 1.244410 1.439242  L 1.422909 1.366699  C 1.348968 1.195797 1.268814 1.027190 1.210458 0.849764  Z" fill="black" stroke="black" stroke-width="0.005"/>
    <path d="M -0.913 2.1881 C -0.95 2.0566, -1.0744 1.8202, -1.1617 1.7151" stroke-width="0.196"/>
    <path d="M 0.3207 -2.0465 C 0.4562 -2.0638, 0.7084 -2.1519, 0.8252 -2.2227" stroke-width="0.196"/>
    <path d="M 1.891722 -0.203369 C 1.721446 -0.111190 1.564439 0.001988 1.403893 0.109189  L 1.464752 0.204470  C 1.632354 0.123242 1.797420 0.035434 1.972745 -0.028556  Z" fill="black" stroke="black" stroke-width="0.005"/>
    <path d="M 0.5697 0.4094 C 0.5042 0.4094, 0.3909 0.3647, 0.3431 0.3201" stroke-width="0.095"/>
    <path d="M -0.062066 -0.468509 C -0.094804 -0.659224 -0.153740 -0.843834 -0.205516 -1.029839  L -0.384016 -0.957297  C -0.310075 -0.786395 -0.229921 -0.617788 -0.171564 -0.440362  Z" fill="black" stroke="black" stroke-width="0.005"/>
    <path d="M 1.9519 -1.7787 C 1.9889 -1.6472, 2.1133 -1.4107, 2.2005 -1.3057" stroke-width="0.196"/>
  </g>
</svg>
