<?xml version="1.0" encoding="utf-8" ?>
<svg xmlns="http://www.w3.org/2000/svg" xmlns:ev="http://www.w3.org/2001/xml-events" xmlns:xlink="http://www.w3.org/1999/xlink" baseProfile="full" version="1.1" viewBox="-5.365110313994974 -4.546983491665754 8.336804724489449 7.870989305084944">
  <defs/>
  <g stroke="none">
    <path d="M -3.371754 -0.108164 C -3.949551 0.202458 -4.051813 0.738343 -3.868697 1.322540  L -3.610029 1.170583  C -3.756366 0.706207 -3.734962 0.347569 -3.303445 0.040146  Z" fill="black" stroke="black" stroke-width="0.005"/>
    <path d="M -4.604965 -0.596002 C -4.443383 0.113933 -3.924169 0.418082 -3.232648 0.387054  L -3.284410 0.064613  C -3.695931 -0.034148 -3.953237 -0.176419 -4.006032 -0.631769  Z" fill="white" stroke="white" stroke-width="0"/>
    <path d="M -4.455232 -0.604944 C -4.327267 0.033724 -3.862214 0.313229 -3.245589 0.306444  L -3.271469 0.145224  C -3.747172 0.063599 -4.077999 -0.095143 -4.155766 -0.622827  Z" fill="black" stroke="black" stroke-width="0.005"/>
    <path d="M -1.416021 -1.878075 C -2.071645 -2.040784 -2.751206 -2.040884 -3.418406 -1.967424  L -3.355820 -1.674025  C -2.730654 -1.782304 -2.090093 -1.804027 -1.462600 -1.692850  Z" fill="black" stroke="black" stroke-width="0.005"/>
    <path d="M -2.181281 -1.037573 C -2.130983 -1.626215 -1.865657 -2.124599 -1.530170 -2.592773  L -1.985462 -2.983553  C -2.344947 -2.387500 -2.590237 -1.730404 -2.557895 -1.022675  Z" fill="white" stroke="white" stroke-width="0"/>
    <path d="M -2.275434 -1.033849 C -2.253283 -1.654302 -1.976942 -2.187666 -1.643993 -2.690468  L -1.871639 -2.885858  C -2.228739 -2.325725 -2.473696 -1.701309 -2.463741 -1.026399  Z" fill="black" stroke="black" stroke-width="0.005"/>
    <path d="M 0.066889 -0.932680 C 0.122862 -1.605419 -0.077076 -2.246101 -0.392443 -2.831023  L -0.633931 -2.653024  C -0.338356 -2.126647 -0.100796 -1.573921 -0.121370 -0.953013  Z" fill="black" stroke="black" stroke-width="0.005"/>
    <path d="M 1.123365 -1.895977 C 0.445868 -2.060610 -0.252957 -2.059536 -0.937795 -1.953822  L -0.872320 -1.577493  C -0.262902 -1.592863 0.352647 -1.541637 0.928473 -1.328511  Z" fill="white" stroke="white" stroke-width="0"/>
    <path d="M 1.074642 -1.754110 C 0.422482 -1.929904 -0.255432 -1.943289 -0.921426 -1.859740  L -0.888689 -1.671575  C -0.260926 -1.709952 0.376494 -1.671282 0.977196 -1.470377  Z" fill="black" stroke="black" stroke-width="0.005"/>
    <path d="M 0.478270 0.516530 C 1.131282 0.618536 1.583851 0.273143 1.867614 -0.281607  L 1.577089 -0.356410  C 1.345129 0.094642 1.061721 0.373823 0.514747 0.351253  Z" fill="black" stroke="black" stroke-width="0.005"/>
    <path d="M 1.177454 1.650730 C 1.474426 0.985576 1.272574 0.398396 0.752640 -0.064536  L 0.557818 0.212290  C 0.796441 0.576351 0.929084 0.916882 0.675074 1.322683  Z" fill="white" stroke="white" stroke-width="0"/>
    <path d="M 1.051859 1.568718 C 1.334181 0.975180 1.158215 0.436215 0.703934 0.004670  L 0.606523 0.143083  C 0.907614 0.547097 1.062123 0.920740 0.800669 1.404695  Z" fill="black" stroke="black" stroke-width="0.005"/>
    <path d="M -1.980008 0.563253 C -1.622035 1.136131 -1.119306 1.592690 -0.570098 1.976549  L -0.426362 1.713224  C -0.963069 1.386601 -1.447786 0.975486 -1.819470 0.464548  Z" fill="black" stroke="black" stroke-width="0.005"/>
    <path d="M -0.856428 0.490598 C -1.308769 0.918308 -1.853060 1.209946 -2.415862 1.458748  L -2.192956 2.015806  C -1.590225 1.678655 -1.018332 1.275234 -0.572434 0.741132  Z" fill="white" stroke="white" stroke-width="0"/>
    <path d="M -0.785429 0.553232 C -1.239908 0.998734 -1.781786 1.339482 -2.360136 1.598013  L -2.248683 1.876541  C -1.654481 1.564810 -1.092052 1.183494 -0.643433 0.678498  Z" fill="black" stroke="black" stroke-width="0.005"/>
    <path d="M 0.421893 -0.041269 C 0.130696 -0.039969 -0.115067 0.088989 -0.364920 0.217855  L -0.302052 0.298985  C -0.070452 0.181778 0.150440 0.045913 0.421893 0.041269  Z" fill="black" stroke="black" stroke-width="0.005"/>
    <path d="M 0.345512 0.255789 C 0.176479 0.057434 0.132110 -0.187903 0.068134 -0.428820  L -0.136467 -0.412196  C -0.057542 -0.131492 0.017695 0.145931 0.223644 0.367137  Z" fill="white" stroke="white" stroke-width="0"/>
    <path d="M 0.315045 0.283626 C 0.135371 0.080092 0.086675 -0.174625 0.016984 -0.424664  L -0.085317 -0.416352  C -0.011919 -0.144974 0.058650 0.123447 0.254111 0.339300  Z" fill="black" stroke="black" stroke-width="0.005"/>
    <path d="M -2.431861 -0.523858 C -2.451012 -0.298654 -2.608263 -0.168493 -2.735853 -0.006941  L -2.701857 0.045963  C -2.543238 -0.123251 -2.378065 -0.266394 -2.341290 -0.514222  Z" fill="black" stroke="black" stroke-width="0.005"/>
    <path d="M -2.773240 -0.100396 C -2.560233 -0.093193 -2.427496 0.046642 -2.268384 0.157362  L -2.128682 0.040457  C -2.334072 -0.091622 -2.511919 -0.236864 -2.775710 -0.226142  Z" fill="white" stroke="white" stroke-width="0"/>
    <path d="M -2.773858 -0.131832 C -2.547654 -0.130700 -2.404834 0.014282 -2.233459 0.128136  L -2.163607 0.069683  C -2.356649 -0.058812 -2.524704 -0.199568 -2.775093 -0.194705  Z" fill="black" stroke="black" stroke-width="0.005"/>
    <path d="M -3.100946 0.154335 C -3.032709 0.064146 -2.952645 -0.015983 -2.878039 -0.100615  L -2.903588 -0.125760  C -2.979835 -0.040778 -3.061570 0.039599 -3.131456 0.130244  Z" fill="black" stroke="black" stroke-width="0.005"/>
    <path d="M -3.184779 -0.006903 C -3.075438 0.029181 -2.962022 0.050042 -2.850582 0.077836  L -2.836159 0.007608  C -2.944482 -0.021433 -3.054846 -0.043744 -3.160941 -0.080907  Z" fill="white" stroke="white" stroke-width="0"/>
    <path d="M -3.178819 -0.025404 C -3.070289 0.010948 -2.957636 0.032173 -2.846976 0.060279  L -2.839764 0.025165  C -2.948867 -0.003565 -3.059993 -0.025515 -3.166901 -0.062406  Z" fill="black" stroke="black" stroke-width="0.005"/>
  </g>
  <g fill="none" stroke="black">
    <path d="M -3.7394 1.2466 C -3.4861 1.6777, -2.7686 1.923, -2.3044 1.7373" stroke-width="0.305"/>
    <path d="M -4.3055 -0.6139 C -4.3353 -1.113, -3.8761 -1.7164, -3.3871 -1.8207" stroke-width="0.305"/>
    <path d="M -0.5132 -2.742 C -0.8099 -3.1445, -1.4322 -3.1676, -1.7578 -2.7882" stroke-width="0.305"/>
    <path d="M 1.0259 -1.6122 C 1.4988 -1.4498, 1.847 -0.8032, 1.7224 -0.319" stroke-width="0.305"/>
    <path d="M 0.9263 1.4867 C 0.6529 1.9054, -0.0594 2.0844, -0.4982 1.8449" stroke-width="0.305"/>
    <path d="M 0.421893 0.041269 C 0.496022 0.050348 0.547497 0.109189 0.606523 0.143083  L 0.703934 0.004670  C 0.611875 -0.012882 0.520668 -0.067333 0.421893 -0.041269  Z" fill="black" stroke="black" stroke-width="0.005"/>
    <path d="M -1.819470 0.464548 C -1.923706 0.323798 -2.046301 0.198875 -2.163607 0.069683  L -2.233459 0.128136  C -2.146283 0.271496 -2.051007 0.410724 -1.980008 0.563253  Z" fill="black" stroke="black" stroke-width="0.005"/>
    <path d="M -2.775093 -0.194705 C -2.829329 -0.195376 -2.862645 -0.149593 -2.903588 -0.125760  L -2.878039 -0.100615  C -2.844387 -0.111723 -2.812759 -0.139802 -2.773858 -0.131832  Z" fill="black" stroke="black" stroke-width="0.005"/>
    <path d="M -3.131456 0.130244 C -3.174009 0.161665 -3.229544 0.141801 -3.271469 0.145224  L -3.245589 0.306444  C -3.196976 0.258760 -3.117814 0.231515 -3.100946 0.154335  Z" fill="black" stroke="black" stroke-width="0.005"/>
    <path d="M -1.4393 -1.7855 C -1.3068 -1.7521, -1.0397 -1.7422, -0.9051 -1.7657" stroke-width="0.196"/>
    <path d="M 0.514747 0.351253 C 0.440644 0.357971 0.380155 0.307533 0.315045 0.283626  L 0.254111 0.339300  C 0.325796 0.399297 0.379306 0.490574 0.478270 0.516530  Z" fill="black" stroke="black" stroke-width="0.005"/>
    <path d="M 0.016984 -0.424664 C 0.015293 -0.595723 0.047224 -0.763909 0.066889 -0.932680  L -0.121370 -0.953013  C -0.114670 -0.773917 -0.117366 -0.593514 -0.085317 -0.416352  Z" fill="black" stroke="black" stroke-width="0.005"/>
    <path d="M -2.463741 -1.026399 C -2.437744 -0.860176 -2.439317 -0.691477 -2.431861 -0.523858  L -2.341290 -0.514222  C -2.315830 -0.686858 -2.283600 -0.858894 -2.275434 -1.033849  Z" fill="black" stroke="black" stroke-width="0.005"/>
    <path d="M -2.735853 -0.006941 C -2.763721 0.021346 -2.805629 0.015645 -2.839764 0.025165  L -2.846976 0.060279  C -2.799698 0.057266 -2.746527 0.076731 -2.701857 0.045963  Z" fill="black" stroke="black" stroke-width="0.005"/>
    <path d="M -3.166901 -0.062406 C -3.223901 -0.117108 -3.304820 -0.095641 -3.371754 -0.108164  L -3.303445 0.040146  C -3.266719 0.019635 -3.231662 -0.027796 -3.178819 -0.025404  Z" fill="black" stroke="black" stroke-width="0.005"/>
    <path d="M -0.643433 0.678498 C -0.544663 0.539044 -0.418673 0.422747 -0.302052 0.298985  L -0.364920 0.217855  C -0.507984 0.325729 -0.657022 0.426786 -0.785429 0.553232  Z" fill="black" stroke="black" stroke-width="0.005"/>
  </g>
</svg>
