<?xml version="1.0" encoding="utf-8" ?>
<svg xmlns="http://www.w3.org/2000/svg" xmlns:ev="http://www.w3.org/2001/xml-events" xmlns:xlink="http://www.w3.org/1999/xlink" baseProfile="full" version="1.1" viewBox="-2.969520069298254 -4.019506488126332 10.187150191247778 8.614238784715257">
  <defs/>
  <g stroke="none">
    <path d="M -0.990229 -1.169868 C -0.431404 -1.373397 0.066449 -1.224776 0.575037 -0.980890  L 0.694661 -1.122009  C 0.150089 -1.480495 -0.464984 -1.637391 -1.107254 -1.446102  Z" fill="black" stroke="black" stroke-width="0.005"/>
    <path d="M 0.424456 -2.583979 C -0.047908 -2.051466 -0.245139 -1.389164 -0.257440 -0.690768  L 0.096688 -0.707639  C 0.216064 -1.247126 0.384123 -1.760760 0.820887 -2.133598  Z" fill="white" stroke="white" stroke-width="0"/>
    <path d="M 0.523564 -2.471384 C 0.065700 -1.979113 -0.136827 -1.353954 -0.168908 -0.694985  L 0.008156 -0.703421  C 0.110356 -1.284071 0.272814 -1.829318 0.721779 -2.246193  Z" fill="black" stroke="black" stroke-width="0.005"/>
    <path d="M 3.724667 -1.153164 C 3.277428 -1.655566 2.778230 -2.108747 2.264441 -2.541618  L 2.085011 -2.301192  C 2.612021 -1.909039 3.115184 -1.484592 3.582234 -1.022037  Z" fill="black" stroke="black" stroke-width="0.005"/>
    <path d="M 3.841725 -2.407061 C 3.194695 -2.138625 2.643318 -1.705925 2.175125 -1.192282  L 2.478680 -0.933163  C 2.944165 -1.312071 3.431942 -1.670210 4.020120 -1.834195  Z" fill="white" stroke="white" stroke-width="0"/>
    <path d="M 3.886324 -2.263845 C 3.256602 -2.018656 2.715340 -1.611137 2.251014 -1.127503  L 2.402791 -0.997943  C 2.859597 -1.420523 3.379284 -1.781342 3.975521 -1.977412  Z" fill="black" stroke="black" stroke-width="0.005"/>
    <path d="M 4.655405 0.493665 C 4.977552 -0.100309 5.100864 -0.766660 5.122632 -1.434915  L 4.823783 -1.408662  C 4.841002 -0.789320 4.745779 -0.168997 4.486606 0.398856  Z" fill="black" stroke="black" stroke-width="0.005"/>
    <path d="M 4.055707 -0.591265 C 4.600703 -0.322438 5.018817 0.099497 5.394459 0.563625  L 5.883887 0.216551  C 5.404889 -0.285641 4.852165 -0.720367 4.190143 -0.954382  Z" fill="white" stroke="white" stroke-width="0"/>
    <path d="M 4.089316 -0.682044 C 4.654548 -0.417207 5.128838 -0.006211 5.516816 0.476857  L 5.761530 0.303320  C 5.312169 -0.191769 4.786667 -0.619645 4.156534 -0.863603  Z" fill="black" stroke="black" stroke-width="0.005"/>
    <path d="M 3.377890 1.888753 C 4.042437 2.011063 4.714210 1.921897 5.356339 1.735591  L 5.238805 1.459574  C 4.655259 1.667797 4.035951 1.769412 3.415747 1.698889  Z" fill="black" stroke="black" stroke-width="0.005"/>
    <path d="M 4.223689 0.982478 C 4.136906 1.583941 3.865242 2.112191 3.540304 2.613127  L 4.021914 2.970970  C 4.351027 2.359970 4.593157 1.699770 4.610589 0.997821  Z" fill="white" stroke="white" stroke-width="0"/>
    <path d="M 4.320414 0.986314 C 4.243692 1.605782 3.999831 2.184055 3.660707 2.702588  L 3.901512 2.881509  C 4.233052 2.300889 4.477100 1.668694 4.513864 0.993985  Z" fill="black" stroke="black" stroke-width="0.005"/>
    <path d="M 1.596021 1.120682 C 1.722182 1.784934 2.031406 2.389709 2.414175 2.939916  L 2.640208 2.742662  C 2.255583 2.249884 1.951576 1.694871 1.795863 1.085426  Z" fill="black" stroke="black" stroke-width="0.005"/>
    <path d="M 0.973644 2.623685 C 1.611352 2.418574 2.251102 2.220032 2.884649 2.002311  L 2.779389 1.629689  C 2.128792 1.768521 1.480331 1.918109 0.826656 2.041968  Z" fill="white" stroke="white" stroke-width="0"/>
    <path d="M 0.936897 2.478256 C 1.578795 2.293309 2.220356 2.107234 2.858334 1.909156  L 2.805704 1.722845  C 2.159196 1.881468 1.513294 2.043087 0.863403 2.187398  Z" fill="black" stroke="black" stroke-width="0.005"/>
    <path d="M -0.583598 0.136636 C -1.006823 0.650277 -1.000736 1.250495 -0.758559 1.837854  L -0.511127 1.668215  C -0.716655 1.173614 -0.776830 0.725824 -0.460604 0.250145  Z" fill="black" stroke="black" stroke-width="0.005"/>
    <path d="M -0.371117 0.344008 C -0.841952 0.449349 -1.055889 0.226406 -1.307990 -0.110201  L -1.861838 0.120563  C -1.448468 0.669895 -0.900119 0.947377 -0.224617 0.650887  Z" fill="white" stroke="white" stroke-width="0"/>
    <path d="M -0.334492 0.420728 C -0.851658 0.560124 -1.158880 0.348634 -1.446452 -0.052510  L -1.723376 0.062872  C -1.365449 0.565490 -0.872313 0.819548 -0.261242 0.574167  Z" fill="black" stroke="black" stroke-width="0.005"/>
    <path d="M -0.094456 0.329403 C -0.003974 0.113327 -0.014215 -0.115725 -0.007956 -0.342981  L -0.085602 -0.332222  C -0.089573 -0.117989 -0.078321 0.098025 -0.160446 0.302797  Z" fill="black" stroke="black" stroke-width="0.005"/>
    <path d="M 0.340827 -0.080041 C 0.107708 -0.077937 -0.119617 -0.027555 -0.347346 0.014306  L -0.314854 0.147380  C -0.097527 0.115202 0.119802 0.074476 0.340827 0.080041  Z" fill="white" stroke="white" stroke-width="0"/>
    <path d="M 0.340827 -0.040021 C 0.110729 -0.039804 -0.114092 0.008138 -0.339223 0.047575  L -0.322977 0.114111  C -0.103047 0.079516 0.116776 0.036403 0.340827 0.040021  Z" fill="black" stroke="black" stroke-width="0.005"/>
    <path d="M 1.808433 -0.662776 C 1.478969 -0.405988 1.094551 -0.247331 0.705548 -0.107548  L 0.735881 0.014678  C 1.146031 -0.124304 1.550517 -0.284309 1.899818 -0.548181  Z" fill="black" stroke="black" stroke-width="0.005"/>
    <path d="M 1.677288 0.374554 C 1.537890 -0.049102 1.306034 -0.428315 1.059584 -0.795777  L 0.850078 -0.635092  C 1.066591 -0.289219 1.271949 0.066561 1.389951 0.460411  Z" fill="white" stroke="white" stroke-width="0"/>
    <path d="M 1.605453 0.396018 C 1.471313 -0.020156 1.246215 -0.393552 1.007207 -0.755606  L 0.902454 -0.675263  C 1.126496 -0.324004 1.338338 0.037675 1.461785 0.438947  Z" fill="black" stroke="black" stroke-width="0.005"/>
  </g>
  <g fill="none" stroke="black">
    <path d="M -1.0487 -1.308 C -1.5091 -1.1129, -1.7772 -0.4564, -1.5849 0.0052" stroke-width="0.305"/>
    <path d="M 0.6227 -2.3588 C 0.998 -2.6891, 1.774 -2.7205, 2.1747 -2.4214" stroke-width="0.305"/>
    <path d="M 3.9309 -2.1206 C 4.4083 -2.2693, 4.9295 -1.9199, 4.9732 -1.4218" stroke-width="0.305"/>
    <path d="M 5.6392 0.3901 C 5.9284 0.7979, 5.7576 1.4017, 5.2976 1.5976" stroke-width="0.305"/>
    <path d="M 3.7811 2.792 C 3.4829 3.1934, 2.8559 3.218, 2.5272 2.8413" stroke-width="0.305"/>
    <path d="M 0.9001 2.3328 C 0.4154 2.4553, -0.3521 2.1654, -0.6348 1.753" stroke-width="0.305"/>
    <path d="M 3.3968 1.7938 C 3.2543 1.7654, 2.9719 1.7765, 2.832 1.816" stroke-width="0.1986"/>
    <path d="M -0.460604 0.250145 C -0.435732 0.186808 -0.369481 0.157683 -0.322977 0.114111  L -0.339223 0.047575  C -0.419943 0.074538 -0.515747 0.073388 -0.583598 0.136636  Z" fill="black" stroke="black" stroke-width="0.005"/>
    <path d="M 0.340827 0.040021 C 0.473420 0.052046 0.604601 0.025694 0.735881 0.014678  L 0.705548 -0.107548  C 0.584579 -0.084212 0.465572 -0.043792 0.340827 -0.040021  Z" fill="black" stroke="black" stroke-width="0.005"/>
    <path d="M 1.899818 -0.548181 C 2.083016 -0.680188 2.240692 -0.842073 2.402791 -0.997943  L 2.251014 -1.127503  C 2.109140 -0.967429 1.971160 -0.803070 1.808433 -0.662776  Z" fill="black" stroke="black" stroke-width="0.005"/>
    <path d="M 4.571 0.4463 C 4.4998 0.573, 4.4229 0.8449, 4.4171 0.9901" stroke-width="0.1986"/>
    <path d="M 1.795863 1.085426 C 1.746226 0.851841 1.673937 0.624362 1.605453 0.396018  L 1.461785 0.438947  C 1.511431 0.665143 1.565982 0.890732 1.596021 1.120682  Z" fill="black" stroke="black" stroke-width="0.005"/>
    <path d="M 1.007207 -0.755606 C 0.919180 -0.891057 0.801805 -1.002638 0.694661 -1.122009  L 0.575037 -0.980890  C 0.686153 -0.881499 0.805923 -0.790452 0.902454 -0.675263  Z" fill="black" stroke="black" stroke-width="0.005"/>
    <path d="M -0.261242 0.574167 C -0.163480 0.523886 -0.145797 0.410814 -0.094456 0.329403  L -0.160446 0.302797  C -0.216123 0.343005 -0.258393 0.414022 -0.334492 0.420728  Z" fill="black" stroke="black" stroke-width="0.005"/>
    <path d="M -0.007956 -0.342981 C -0.008888 -0.463388 0.002721 -0.583430 0.008156 -0.703421  L -0.168908 -0.694985  C -0.141856 -0.573928 -0.121401 -0.451151 -0.085602 -0.332222  Z" fill="black" stroke="black" stroke-width="0.005"/>
    <path d="M 3.6535 -1.0876 C 3.7519 -0.9807, 3.9866 -0.8233, 4.1229 -0.7728" stroke-width="0.1986"/>
  </g>
</svg>
