<?xml version="1.0" encoding="utf-8" ?>
<svg xmlns="http://www.w3.org/2000/svg" xmlns:ev="http://www.w3.org/2001/xml-events" xmlns:xlink="http://www.w3.org/1999/xlink" baseProfile="full" version="1.1" viewBox="-3.505355335738729 -5.119604616938048 8.952913953327371 8.989303675963285">
  <defs/>
  <g stroke="none">
    <path d="M -1.514150 -2.630754 C -1.395410 -1.965952 -1.080203 -1.368868 -0.666233 -0.843795  L -0.522452 -0.973659  C -0.871748 -1.479369 -1.140975 -2.044108 -1.215662 -2.660839  Z" fill="black" stroke="black" stroke-width="0.005"/>
    <path d="M -1.649694 -0.680417 C -1.276782 -1.190530 -0.804275 -1.617573 -0.310941 -2.008144  L -0.512136 -2.337088  C -1.100445 -1.979709 -1.648718 -1.556741 -2.120281 -1.052637  Z" fill="white" stroke="white" stroke-width="0"/>
    <path d="M -1.767341 -0.773472 C -1.368773 -1.281511 -0.878737 -1.708191 -0.361239 -2.090380  L -0.461837 -2.254852  C -1.026798 -1.889277 -1.554822 -1.464587 -2.002634 -0.959582  Z" fill="black" stroke="black" stroke-width="0.005"/>
    <path d="M 0.066215 -2.510637 C 0.443369 -3.003100 0.949621 -3.366560 1.508782 -3.622875  L 1.401805 -3.903154  C 0.812989 -3.588583 0.275767 -3.177780 -0.096525 -2.614013  Z" fill="black" stroke="black" stroke-width="0.005"/>
    <path d="M -0.507229 -3.225656 C 0.092896 -3.171832 0.614045 -2.890173 1.114949 -2.579119  L 1.379951 -2.859222  C 0.855447 -3.317060 0.249881 -3.670046 -0.436930 -3.821523  Z" fill="white" stroke="white" stroke-width="0"/>
    <path d="M -0.489655 -3.374623 C 0.125177 -3.289418 0.683796 -3.009071 1.181199 -2.649144  L 1.313700 -2.789196  C 0.798236 -3.214770 0.208021 -3.542086 -0.454505 -3.672557  Z" fill="black" stroke="black" stroke-width="0.005"/>
    <path d="M 3.635217 -1.803771 C 3.027896 -2.092976 2.397667 -2.330850 1.755785 -2.530332  L 1.698487 -2.346246  C 2.312294 -2.113478 2.919483 -1.857613 3.494294 -1.538930  Z" fill="black" stroke="black" stroke-width="0.005"/>
    <path d="M 2.238977 -3.086490 C 2.343822 -2.488675 2.221879 -1.901528 2.069095 -1.325873  L 2.430639 -1.152650  C 2.707513 -1.791010 2.870384 -2.473250 2.832530 -3.174209  Z" fill="white" stroke="white" stroke-width="0"/>
    <path d="M 2.387366 -3.108420 C 2.467083 -2.488833 2.356888 -1.869061 2.159481 -1.282568  L 2.340253 -1.195956  C 2.590992 -1.817103 2.734972 -2.478424 2.684142 -3.152279  Z" fill="black" stroke="black" stroke-width="0.005"/>
    <path d="M 2.966850 0.469649 C 3.487133 0.746163 3.708922 1.198016 3.849070 1.739391  L 4.148487 1.720697  C 3.988276 1.092148 3.648822 0.560688 3.033379 0.292202  Z" fill="black" stroke="black" stroke-width="0.005"/>
    <path d="M 3.219176 1.452093 C 3.803928 1.056818 4.196962 0.475323 4.482052 -0.158146  L 3.901974 -0.311473  C 3.710715 0.239798 3.456338 0.755094 3.011602 1.153514  Z" fill="white" stroke="white" stroke-width="0"/>
    <path d="M 3.167283 1.377448 C 3.713697 0.981472 4.080346 0.417187 4.337032 -0.196478  L 4.046993 -0.273141  C 3.825468 0.293694 3.548820 0.834884 3.063496 1.228159  Z" fill="black" stroke="black" stroke-width="0.005"/>
    <path d="M 1.190227 2.730259 C 1.822275 2.493164 2.376728 2.104009 2.861103 1.640358  L 2.729221 1.515192  C 2.247301 1.916516 1.710086 2.259283 1.105238 2.442549  Z" fill="black" stroke="black" stroke-width="0.005"/>
    <path d="M 1.697482 1.370564 C 1.874995 2.074834 2.381092 2.522803 3.020179 2.808754  L 3.147676 2.222457  C 2.668726 2.040661 2.281571 1.780053 2.073425 1.285248  Z" fill="white" stroke="white" stroke-width="0"/>
    <path d="M 1.791468 1.349235 C 1.974438 1.995836 2.453304 2.409806 3.052053 2.662179  L 3.115802 2.369031  C 2.600006 2.148590 2.181929 1.861172 1.979439 1.306577  Z" fill="black" stroke="black" stroke-width="0.005"/>
    <path d="M -0.338150 0.679103 C -0.840544 0.930603 -1.253619 0.805894 -1.694349 0.521745  L -1.907243 0.733113  C -1.377403 1.077426 -0.796342 1.177428 -0.235603 0.820420  Z" fill="black" stroke="black" stroke-width="0.005"/>
    <path d="M -0.787319 0.370599 C -1.111603 1.018162 -1.003038 1.677905 -0.683662 2.296127  L -0.223875 1.910646  C -0.494639 1.478603 -0.633444 1.042640 -0.482522 0.529078  Z" fill="white" stroke="white" stroke-width="0"/>
    <path d="M -0.711120 0.410219 C -0.990283 1.018534 -0.879855 1.634343 -0.568716 2.199757  L -0.338822 2.007017  C -0.610610 1.519891 -0.755699 1.044137 -0.558721 0.489458  Z" fill="black" stroke="black" stroke-width="0.005"/>
    <path d="M 0.507334 -0.060758 C 0.160613 -0.053939 -0.152308 0.077749 -0.465729 0.207072  L -0.417566 0.292268  C -0.118670 0.177939 0.180298 0.060060 0.507334 0.060758  Z" fill="black" stroke="black" stroke-width="0.005"/>
    <path d="M -0.018453 0.516903 C 0.064513 0.158458 -0.041502 -0.164706 -0.149424 -0.499423  L -0.357113 -0.379765  C -0.257254 -0.102847 -0.161598 0.168356 -0.214482 0.470666  Z" fill="white" stroke="white" stroke-width="0"/>
    <path d="M -0.067460 0.505344 C 0.008068 0.160981 -0.095503 -0.149278 -0.201346 -0.469509  L -0.305191 -0.409679  C -0.203386 -0.118348 -0.104978 0.165930 -0.165475 0.482225  Z" fill="black" stroke="black" stroke-width="0.005"/>
    <path d="M 1.894060 0.764342 C 1.897101 0.305108 1.984318 -0.145584 2.085367 -0.591233  L 1.935680 -0.634815  C 1.833885 -0.174202 1.745373 0.291431 1.745861 0.765599  Z" fill="black" stroke="black" stroke-width="0.005"/>
    <path d="M 2.531415 0.085809 C 2.068018 -0.025426 1.594694 -0.082587 1.121604 -0.131928  L 1.103013 0.169239  C 1.559379 0.212805 2.015777 0.265171 2.463468 0.367657  Z" fill="white" stroke="white" stroke-width="0"/>
    <path d="M 2.514428 0.156271 C 2.054959 0.047210 1.585864 -0.008731 1.116956 -0.056636  L 1.107661 0.093947  C 1.568206 0.138966 2.028839 0.192509 2.480455 0.297195  Z" fill="black" stroke="black" stroke-width="0.005"/>
  </g>
  <g fill="none" stroke="black">
    <path d="M -1.885 -0.8665 C -2.1952 -0.4744, -2.1531 0.2726, -1.8008 0.6274" stroke-width="0.305"/>
    <path d="M -1.3649 -2.6458 C -1.415 -3.1433, -0.9686 -3.5822, -0.4721 -3.5236" stroke-width="0.305"/>
    <path d="M 2.5358 -3.1303 C 2.4627 -3.625, 1.9224 -3.9413, 1.4553 -3.763" stroke-width="0.305"/>
    <path d="M 3.5648 -1.6714 C 4.0062 -1.4365, 4.3198 -0.7182, 4.192 -0.2348" stroke-width="0.305"/>
    <path d="M 3.9988 1.73 C 4.0299 2.2291, 3.5725 2.6219, 3.0839 2.5156" stroke-width="0.305"/>
    <path d="M 1.1477 2.5864 C 0.6682 2.7281, -0.1325 2.4865, -0.4538 2.1034" stroke-width="0.305"/>
    <path d="M 3.1154 1.3028 C 3.0283 1.3634, 2.8682 1.5008, 2.7952 1.5778" stroke-width="0.1868"/>
    <path d="M -0.558721 0.489458 C -0.538411 0.406970 -0.465518 0.356159 -0.417566 0.292268  L -0.465729 0.207072  C -0.547843 0.271645 -0.657432 0.310947 -0.711120 0.410219  Z" fill="black" stroke="black" stroke-width="0.005"/>
    <path d="M 0.507334 0.060758 C 0.707806 0.065100 0.907671 0.081171 1.107661 0.093947  L 1.116956 -0.056636  C 0.913783 -0.059953 0.710542 -0.066747 0.507334 -0.060758  Z" fill="black" stroke="black" stroke-width="0.005"/>
    <path d="M 2.480455 0.297195 C 2.646578 0.343273 2.805503 0.410264 2.966850 0.469649  L 3.033379 0.292202  C 2.861317 0.243640 2.690512 0.189148 2.514428 0.156271  Z" fill="black" stroke="black" stroke-width="0.005"/>
    <path d="M 1.979439 1.306577 C 1.928878 1.129694 1.916695 0.945823 1.894060 0.764342  L 1.745861 0.765599  C 1.754898 0.960417 1.752781 1.156711 1.791468 1.349235  Z" fill="black" stroke="black" stroke-width="0.005"/>
    <path d="M 2.085367 -0.591233 C 2.153242 -0.799915 2.249173 -0.997095 2.340253 -1.195956  L 2.159481 -1.282568  C 2.078250 -1.069089 1.990726 -0.857199 1.935680 -0.634815  Z" fill="black" stroke="black" stroke-width="0.005"/>
    <path d="M -0.0152 -2.5623 C -0.0916 -2.4419, -0.2898 -2.2471, -0.4115 -2.1726" stroke-width="0.1978"/>
    <path d="M -0.235603 0.820420 C -0.128880 0.744359 -0.119193 0.610229 -0.067460 0.505344  L -0.165475 0.482225  C -0.220276 0.548084 -0.251117 0.643108 -0.338150 0.679103  Z" fill="black" stroke="black" stroke-width="0.005"/>
    <path d="M -0.201346 -0.469509 C -0.287307 -0.650469 -0.410017 -0.809275 -0.522452 -0.973659  L -0.666233 -0.843795  C -0.541717 -0.702857 -0.408754 -0.568228 -0.305191 -0.409679  Z" fill="black" stroke="black" stroke-width="0.005"/>
    <path d="M 1.2474 -2.7192 C 1.3511 -2.6211, 1.5909 -2.4807, 1.7271 -2.4383" stroke-width="0.1978"/>
  </g>
</svg>
