<?xml version="1.0" encoding="utf-8" ?>
<svg xmlns="http://www.w3.org/2000/svg" xmlns:ev="http://www.w3.org/2001/xml-events" xmlns:xlink="http://www.w3.org/1999/xlink" baseProfile="full" version="1.1" viewBox="-4.79770286961314 -4.54093067992099 8.121022848842792 8.312563892577032">
  <defs/>
  <g stroke="none">
    <path d="M -1.691758 1.543747 C -1.855500 0.914755 -1.915424 0.264244 -1.932856 -0.383691  L -2.120982 -0.393636  C -2.145979 0.278837 -2.111002 0.954431 -1.982808 1.616476  Z" fill="black" stroke="black" stroke-width="0.005"/>
    <path d="M -3.092301 0.355659 C -2.445211 0.651136 -1.748155 0.669749 -1.064740 0.519495  L -1.173817 0.143356  C -1.735068 0.167796 -2.289291 0.142172 -2.785112 -0.159739  Z" fill="white" stroke="white" stroke-width="0"/>
    <path d="M -3.015504 0.226810 C -2.407722 0.519125 -1.743612 0.550867 -1.092010 0.425461  L -1.146548 0.237391  C -1.741389 0.285235 -2.324543 0.271882 -2.861909 -0.030889  Z" fill="black" stroke="black" stroke-width="0.005"/>
    <path d="M -2.989797 -1.022124 C -2.547810 -1.448516 -1.991224 -1.592564 -1.404856 -1.676864  L -1.391730 -1.864794  C -2.053152 -1.847766 -2.688518 -1.666126 -3.203769 -1.232400  Z" fill="black" stroke="black" stroke-width="0.005"/>
    <path d="M -1.911901 -0.945364 C -2.009012 -1.513433 -1.855967 -2.029444 -1.614362 -2.532785  L -2.124491 -2.848647  C -2.379356 -2.199329 -2.486379 -1.510938 -2.270783 -0.830628  Z" fill="white" stroke="white" stroke-width="0"/>
    <path d="M -2.001622 -0.916680 C -2.131818 -1.516783 -1.977998 -2.067281 -1.741894 -2.611751  L -1.996959 -2.769682  C -2.253031 -2.160865 -2.364884 -1.508081 -2.181063 -0.859312  Z" fill="black" stroke="black" stroke-width="0.005"/>
    <path d="M -0.748639 -2.722856 C -0.328278 -2.273219 -0.184934 -1.711889 -0.099956 -1.123311  L 0.091777 -1.111079  C 0.071900 -1.773428 -0.108124 -2.411489 -0.534774 -2.933241  Z" fill="black" stroke="black" stroke-width="0.005"/>
    <path d="M 1.099440 -2.208359 C 0.406895 -2.283960 -0.285930 -2.195997 -0.952268 -2.007184  L -0.843618 -1.646413  C -0.239024 -1.734917 0.379633 -1.759823 0.979019 -1.620568  Z" fill="white" stroke="white" stroke-width="0"/>
    <path d="M 1.069335 -2.061411 C 0.400092 -2.151923 -0.274218 -2.081138 -0.925105 -1.916991  L -0.870780 -1.736605  C -0.251255 -1.850535 0.386940 -1.890755 1.009124 -1.767516  Z" fill="black" stroke="black" stroke-width="0.005"/>
    <path d="M 1.114728 0.848592 C 1.687457 0.497537 1.992507 -0.071041 2.131997 -0.708920  L 1.832200 -0.719955  C 1.715146 -0.155680 1.516872 0.342030 1.029527 0.695949  Z" fill="black" stroke="black" stroke-width="0.005"/>
    <path d="M 2.428910 1.210161 C 2.197959 0.526489 1.678819 0.101390 1.016092 -0.126897  L 0.930626 0.226341  C 1.365633 0.491735 1.732318 0.794935 1.839724 1.323563  Z" fill="white" stroke="white" stroke-width="0"/>
    <path d="M 2.281614 1.238512 C 2.080902 0.600206 1.602690 0.191065 0.994725 -0.038588  L 0.951992 0.138031  C 1.442646 0.406522 1.843763 0.721320 1.987021 1.295212  Z" fill="black" stroke="black" stroke-width="0.005"/>
    <path d="M 0.201526 1.786684 C 0.313263 2.431349 0.789655 2.676989 1.397298 2.655021  L 1.318879 2.365451  C 0.841512 2.383457 0.518854 2.266993 0.364646 1.768669  Z" fill="black" stroke="black" stroke-width="0.005"/>
    <path d="M 0.396255 1.758466 C 0.207503 2.198727 -0.119396 2.344575 -0.567796 2.362800  L -0.634202 2.959114  C 0.047653 2.864139 0.578769 2.531910 0.717542 1.811894  Z" fill="white" stroke="white" stroke-width="0"/>
    <path d="M 0.476577 1.771823 C 0.292225 2.291051 -0.076196 2.456477 -0.584398 2.511879  L -0.617601 2.810036  C 0.002084 2.741103 0.489961 2.442563 0.637220 1.798537  Z" fill="black" stroke="black" stroke-width="0.005"/>
    <path d="M 0.556421 -0.057589 C 0.180333 -0.060029 -0.186313 0.020613 -0.551683 0.097101  L -0.514730 0.220988  C -0.161851 0.142459 0.192252 0.060791 0.556421 0.057589  Z" fill="black" stroke="black" stroke-width="0.005"/>
    <path d="M 0.314270 0.471719 C 0.184929 0.140856 0.148879 -0.210448 0.110943 -0.559524  L -0.140142 -0.552934  C -0.094100 -0.175660 -0.034236 0.201973 0.114834 0.555065  Z" fill="white" stroke="white" stroke-width="0"/>
    <path d="M 0.264411 0.492555 C 0.128926 0.156311 0.089847 -0.202032 0.048172 -0.557877  L -0.077371 -0.554581  C -0.028275 -0.185182 0.017004 0.187198 0.164693 0.534229  Z" fill="black" stroke="black" stroke-width="0.005"/>
    <path d="M 0.542784 1.617597 C 0.482321 1.526222 0.451977 1.420067 0.408102 1.321123  L 0.375151 1.331271  C 0.419190 1.433338 0.449203 1.542710 0.510448 1.637155  Z" fill="black" stroke="black" stroke-width="0.005"/>
    <path d="M 0.511629 1.331013 C 0.445920 1.419305 0.373065 1.501883 0.303538 1.587061  L 0.363256 1.637402  C 0.431159 1.548844 0.502559 1.462858 0.566262 1.371111  Z" fill="white" stroke="white" stroke-width="0"/>
    <path d="M 0.525287 1.341037 C 0.460080 1.430195 0.387589 1.513624 0.318467 1.599646  L 0.348326 1.624817  C 0.416636 1.537104 0.488399 1.451971 0.552603 1.361086  Z" fill="black" stroke="black" stroke-width="0.005"/>
    <path d="M 0.354064 0.813401 C 0.461918 0.937625 0.488911 1.099082 0.543325 1.246883  L 0.589766 1.240851  C 0.537150 1.082216 0.514191 0.910284 0.403354 0.774972  Z" fill="black" stroke="black" stroke-width="0.005"/>
    <path d="M 0.750832 0.849434 C 0.575282 0.909164 0.484332 1.063318 0.364504 1.186555  L 0.446118 1.234886  C 0.554943 1.136997 0.641877 1.010028 0.792981 0.967538  Z" fill="white" stroke="white" stroke-width="0"/>
    <path d="M 0.761370 0.878960 C 0.591993 0.934444 0.502000 1.081795 0.384908 1.198638  L 0.425715 1.222803  C 0.537307 1.118637 0.625291 0.984887 0.782444 0.938012  Z" fill="black" stroke="black" stroke-width="0.005"/>
  </g>
  <g fill="none" stroke="black">
    <path d="M -1.8373 1.5801 C -1.7161 2.0652, -1.0979 2.6056, -0.601 2.661" stroke-width="0.305"/>
    <path d="M -3.0968 -1.1273 C -3.4472 -0.7706, -3.3682 -0.158, -2.9387 0.098" stroke-width="0.305"/>
    <path d="M -0.6417 -2.828 C -0.9923 -3.1845, -1.6062 -3.1158, -1.8694 -2.6907" stroke-width="0.305"/>
    <path d="M 1.9821 -0.7144 C 2.0005 -1.2141, 1.5291 -1.8141, 1.0392 -1.9145" stroke-width="0.305"/>
    <path d="M 2.1343 1.2669 C 2.2288 1.7579, 1.8407 2.3795, 1.3581 2.5102" stroke-width="0.305"/>
    <path d="M 0.556421 0.057589 C 0.691919 0.065531 0.820916 0.109395 0.951992 0.138031  L 0.994725 -0.038588  C 0.848994 -0.047790 0.703033 -0.073637 0.556421 -0.057589  Z" fill="black" stroke="black" stroke-width="0.005"/>
    <path d="M 0.364646 1.768669 C 0.326647 1.729818 0.351655 1.671510 0.348326 1.624817  L 0.318467 1.599646  C 0.278019 1.658263 0.200410 1.701383 0.201526 1.786684  Z" fill="black" stroke="black" stroke-width="0.005"/>
    <path d="M 0.552603 1.361086 C 0.585866 1.328584 0.578941 1.280371 0.589766 1.240851  L 0.543325 1.246883  C 0.538246 1.277500 0.546544 1.313339 0.525287 1.341037  Z" fill="black" stroke="black" stroke-width="0.005"/>
    <path d="M 0.403354 0.774972 C 0.341296 0.688917 0.309755 0.586649 0.264411 0.492555  L 0.164693 0.534229  C 0.226581 0.627717 0.274562 0.732059 0.354064 0.813401  Z" fill="black" stroke="black" stroke-width="0.005"/>
    <path d="M 0.048172 -0.557877 C 0.053897 -0.742977 0.075026 -0.926911 0.091777 -1.111079  L -0.099956 -1.123311  C -0.095168 -0.933669 -0.095179 -0.743624 -0.077371 -0.554581  Z" fill="black" stroke="black" stroke-width="0.005"/>
    <path d="M -2.0913 -0.888 C -2.0524 -0.7661, -2.0202 -0.5164, -2.0269 -0.3887" stroke-width="0.19340000000000002"/>
    <path d="M 0.637220 1.798537 C 0.639775 1.722082 0.575682 1.674992 0.542784 1.617597  L 0.510448 1.637155  C 0.501212 1.681425 0.514662 1.738322 0.476577 1.771823  Z" fill="black" stroke="black" stroke-width="0.005"/>
    <path d="M 0.408102 1.321123 C 0.396107 1.286091 0.419164 1.254313 0.425715 1.222803  L 0.384908 1.198638  C 0.380212 1.241515 0.352570 1.286460 0.375151 1.331271  Z" fill="black" stroke="black" stroke-width="0.005"/>
    <path d="M 0.782444 0.938012 C 0.896476 0.921663 1.004341 0.879402 1.114728 0.848592  L 1.029527 0.695949  C 0.940615 0.756989 0.856939 0.827157 0.761370 0.878960  Z" fill="black" stroke="black" stroke-width="0.005"/>
    <path d="M -0.8979 -1.8268 C -1.0205 -1.7899, -1.2706 -1.7619, -1.3983 -1.7708" stroke-width="0.19340000000000002"/>
    <path d="M -1.092010 0.425461 C -0.899480 0.357603 -0.707142 0.289155 -0.514730 0.220988  L -0.551683 0.097101  C -0.749860 0.144298 -0.947938 0.192051 -1.146548 0.237391  Z" fill="black" stroke="black" stroke-width="0.005"/>
  </g>
</svg>
