<?xml version="1.0" encoding="utf-8" ?>
<svg xmlns="http://www.w3.org/2000/svg" xmlns:ev="http://www.w3.org/2001/xml-events" xmlns:xlink="http://www.w3.org/1999/xlink" baseProfile="full" version="1.1" viewBox="-6.924262615333774 -2.859025871594769 11.959262913687947 11.86068296968353">
  <defs/>
  <g stroke="none">
    <path d="M 2.514526 5.715260 C 2.466946 5.045250 2.378199 4.378885 2.258414 3.718229  L 2.058883 3.753412  C 2.140356 4.407645 2.205095 5.065263 2.214683 5.724953  Z" fill="black" stroke="black" stroke-width="0.005"/>
    <path d="M 3.026270 3.940628 C 2.486001 4.309905 1.911515 4.626117 1.334418 4.933440  L 1.495949 5.305072  C 2.126052 5.054540 2.741573 4.768767 3.341027 4.451439  Z" fill="white" stroke="white" stroke-width="0"/>
    <path d="M 3.104959 4.068331 C 2.549514 4.424369 1.965363 4.733271 1.374801 5.026348  L 1.455567 5.212164  C 2.072626 4.947492 2.677320 4.653786 3.262338 4.323736  Z" fill="black" stroke="black" stroke-width="0.005"/>
    <path d="M 0.830427 5.512156 C 0.478031 6.069931 0.092739 6.606183 -0.317505 7.122590  L -0.081582 7.307901  C 0.306239 6.760081 0.680229 6.200918 1.005892 5.613461  Z" fill="black" stroke="black" stroke-width="0.005"/>
    <path d="M 1.451149 6.277396 C 0.799912 6.213000 0.156573 6.085960 -0.483053 5.950433  L -0.598193 6.338950  C 0.045532 6.552054 0.700740 6.728787 1.363923 6.871022  Z" fill="white" stroke="white" stroke-width="0"/>
    <path d="M 1.429342 6.425803 C 0.774989 6.341510 0.128946 6.202658 -0.511838 6.047562  L -0.569408 6.241821  C 0.073415 6.435709 0.725429 6.599406 1.385730 6.722616  Z" fill="black" stroke="black" stroke-width="0.005"/>
    <path d="M -3.094045 6.859188 C -2.442476 6.695985 -1.801645 6.492873 -1.171827 6.260186  L -1.241124 6.069796  C -1.871270 6.263638 -2.507655 6.441587 -3.155658 6.565583  Z" fill="black" stroke="black" stroke-width="0.005"/>
    <path d="M -1.257510 7.054996 C -1.714993 6.587059 -2.126160 6.076210 -2.529027 5.561247  L -2.866963 5.784858  C -2.510821 6.361883 -2.122505 6.918429 -1.705904 7.453672  Z" fill="white" stroke="white" stroke-width="0"/>
    <path d="M -1.369609 7.154665 C -1.816690 6.669484 -2.222335 6.147848 -2.613511 5.617150  L -2.782479 5.728955  C -2.414676 6.290680 -2.020428 6.835186 -1.593805 7.354003  Z" fill="black" stroke="black" stroke-width="0.005"/>
    <path d="M -3.186467 5.165406 C -3.796962 4.915220 -4.391971 4.628901 -4.971771 4.314562  L -5.113299 4.579080  C -4.506458 4.865881 -3.890847 5.137092 -3.255764 5.355796  Z" fill="black" stroke="black" stroke-width="0.005"/>
    <path d="M -3.832294 5.909580 C -3.881963 5.257054 -3.868567 4.601429 -3.846169 3.947987  L -4.248777 3.902061  C -4.346862 4.573012 -4.407135 5.248955 -4.432048 5.926762  Z" fill="white" stroke="white" stroke-width="0"/>
    <path d="M -3.982233 5.913875 C -4.012849 5.254826 -3.988290 4.594486 -3.946821 3.936505  L -4.148125 3.913542  C -4.227443 4.580268 -4.275432 5.250802 -4.282110 5.922466  Z" fill="black" stroke="black" stroke-width="0.005"/>
    <path d="M -5.194512 1.534465 C -4.920644 2.147795 -4.609339 2.743620 -4.270821 3.323465  L -4.095356 3.222160  C -4.395677 2.635247 -4.681430 2.039431 -4.916067 1.422804  Z" fill="black" stroke="black" stroke-width="0.005"/>
    <path d="M -5.068434 3.377100 C -4.687047 2.845311 -4.255358 2.351683 -3.818175 1.865514  L -4.097071 1.571542  C -4.603487 2.022472 -5.084147 2.501532 -5.538917 3.004748  Z" fill="white" stroke="white" stroke-width="0"/>
    <path d="M -5.186055 3.284012 C -4.785879 2.759472 -4.342608 2.269409 -3.887899 1.792021  L -4.027347 1.645035  C -4.516670 2.104792 -4.984443 2.587604 -5.421296 3.097836  Z" fill="black" stroke="black" stroke-width="0.005"/>
    <path d="M -3.542511 1.149325 C -3.402138 0.504661 -3.223490 -0.131028 -3.014609 -0.756604  L -3.299684 -0.850049  C -3.476751 -0.202625 -3.636942 0.450729 -3.742042 1.114142  Z" fill="black" stroke="black" stroke-width="0.005"/>
    <path d="M -4.387526 0.642533 C -3.753539 0.480310 -3.105548 0.379653 -2.458143 0.288242  L -2.482828 -0.116224  C -3.160617 -0.096309 -3.836758 -0.038290 -4.508593 0.054875  Z" fill="white" stroke="white" stroke-width="0"/>
    <path d="M -4.417793 0.495619 C -3.774073 0.351026 -3.119500 0.260544 -2.464315 0.187126  L -2.476657 -0.015108  C -3.147027 0.022556 -3.815707 0.091732 -4.478326 0.201789  Z" fill="black" stroke="black" stroke-width="0.005"/>
    <path d="M -0.315426 -1.458720 C -0.871882 -1.082509 -1.404597 -0.672469 -1.916849 -0.238405  L -1.786614 -0.083197  C -1.260769 -0.480872 -0.723625 -0.865746 -0.157110 -1.203894  Z" fill="black" stroke="black" stroke-width="0.005"/>
    <path d="M -2.108174 -1.014587 C -1.518237 -0.731338 -0.957146 -0.391925 -0.402448 -0.045807  L -0.161371 -0.371513  C -0.693389 -0.791932 -1.248637 -1.182102 -1.823177 -1.542580  Z" fill="white" stroke="white" stroke-width="0"/>
    <path d="M -2.036925 -1.146585 C -1.450864 -0.843575 -0.891273 -0.492137 -0.342178 -0.127233  L -0.221640 -0.290086  C -0.759383 -0.692140 -1.316087 -1.068967 -1.894427 -1.410582  Z" fill="black" stroke="black" stroke-width="0.005"/>
    <path d="M 0.350730 0.101305 C 1.009976 0.127601 1.667029 0.193148 2.319373 0.290226  L 2.361895 -0.006745  C 1.693559 -0.068698 1.022315 -0.113001 0.350730 -0.101305  Z" fill="black" stroke="black" stroke-width="0.005"/>
    <path d="M 0.703087 -0.818876 C 0.972937 -0.222690 1.184586 0.397977 1.387029 1.019673  L 1.781065 0.925129  C 1.643755 0.261094 1.469207 -0.394699 1.260795 -1.040150  Z" fill="white" stroke="white" stroke-width="0"/>
    <path d="M 0.842514 -0.874195 C 1.096691 -0.265362 1.299463 0.363554 1.485538 0.996037  L 1.682556 0.948765  C 1.529056 0.295119 1.344816 -0.351389 1.121368 -0.984831  Z" fill="black" stroke="black" stroke-width="0.005"/>
    <path d="M 3.479530 2.826481 C 3.012407 2.343808 2.516092 1.890388 1.999670 1.461292  L 1.869436 1.616500  C 2.352381 2.065302 2.824682 2.527453 3.256067 3.026641  Z" fill="black" stroke="black" stroke-width="0.005"/>
    <path d="M 2.730837 1.138091 C 2.554333 1.768252 2.317509 2.379757 2.072971 2.986131  L 2.435591 3.166987  C 2.757240 2.570047 3.045064 1.955482 3.300298 1.327073  Z" fill="white" stroke="white" stroke-width="0"/>
    <path d="M 2.873202 1.185337 C 2.676564 1.815111 2.427637 2.427228 2.163626 3.031345  L 2.344936 3.121773  C 2.647504 2.522384 2.921935 1.908702 3.157933 1.279828  Z" fill="black" stroke="black" stroke-width="0.005"/>
  </g>
  <g fill="none" stroke="black">
    <path d="M 3.1836 4.196 C 3.6093 3.9337, 3.7014 3.299, 3.3678 2.9266" stroke-width="0.305"/>
    <path d="M 1.4075 6.5742 C 1.9022 6.6469, 2.3808 6.2198, 2.3646 5.7201" stroke-width="0.305"/>
    <path d="M -1.4817 7.2543 C -1.1495 7.628, -0.5084 7.6085, -0.1995 7.2152" stroke-width="0.305"/>
    <path d="M -4.1322 5.9182 C -4.1179 6.418, -3.6142 6.8151, -3.1249 6.7124" stroke-width="0.305"/>
    <path d="M -5.3037 3.1909 C -5.614 3.583, -5.4834 4.2109, -5.0425 4.4468" stroke-width="0.305"/>
    <path d="M -4.4481 0.3487 C -4.9378 0.4496, -5.2414 1.0146, -5.0553 1.4786" stroke-width="0.305"/>
    <path d="M -1.9657 -1.2786 C -2.4057 -1.5161, -3.0014 -1.2785, -3.1571 -0.8033" stroke-width="0.305"/>
    <path d="M 0.9819 -0.9295 C 0.7975 -1.3943, 0.1884 -1.5952, -0.2363 -1.3313" stroke-width="0.305"/>
    <path d="M 3.0156 1.2326 C 3.1731 0.758, 2.8356 0.2126, 2.3406 0.1417" stroke-width="0.305"/>
    <path d="M 0.3507 0.0 C 0.1754 0.0, -0.141 -0.1043, -0.2819 -0.2087" stroke-width="0.2076"/>
    <path d="M -3.6423 1.1317 C -3.6727 1.3044, -3.8304 1.5978, -3.9576 1.7185" stroke-width="0.2076"/>
    <path d="M -3.2211 5.2606 C -3.0563 5.3206, -2.7948 5.5268, -2.698 5.6731" stroke-width="0.2076"/>
    <path d="M 0.9182 5.5628 C 1.0058 5.4109, 1.2544 5.1892, 1.4152 5.1193" stroke-width="0.2076"/>
    <path d="M 1.9346 1.5389 C 1.8002 1.4262, 1.625 1.1429, 1.584 0.9724" stroke-width="0.2076"/>
    <path d="M -1.8517 -0.1608 C -1.9861 -0.0481, -2.2954 0.0753, -2.4705 0.086" stroke-width="0.2076"/>
    <path d="M -4.1831 3.2728 C -4.0954 3.4247, -4.0276 3.7508, -4.0475 3.925" stroke-width="0.2076"/>
    <path d="M -1.2065 6.165 C -1.0417 6.105, -0.7088 6.0949, -0.5406 6.1447" stroke-width="0.2076"/>
    <path d="M 2.1586 3.7358 C 2.1282 3.5631, 2.176 3.2335, 2.2543 3.0766" stroke-width="0.2076"/>
  </g>
</svg>
