<?xml version="1.0" encoding="utf-8" ?>
<svg xmlns="http://www.w3.org/2000/svg" xmlns:ev="http://www.w3.org/2001/xml-events" xmlns:xlink="http://www.w3.org/1999/xlink" baseProfile="full" version="1.1" viewBox="-5.256975444726093 -4.621997439752981 8.159232136705803 7.88080965505427">
  <defs/>
  <g stroke="none">
    <path d="M -1.952722 1.944614 C -1.319222 1.713692 -0.818272 1.271609 -0.429138 0.732658  L -0.590225 0.635616  C -0.975629 1.099735 -1.447148 1.473543 -2.030428 1.654852  Z" fill="black" stroke="black" stroke-width="0.005"/>
    <path d="M 0.015331 1.619767 C -0.566640 1.413449 -1.079517 1.062553 -1.548539 0.667221  L -1.833243 0.920854  C -1.365198 1.430829 -0.824257 1.871848 -0.200099 2.179758  Z" fill="white" stroke="white" stroke-width="0"/>
    <path d="M -0.038527 1.759765 C -0.630619 1.528137 -1.151487 1.154700 -1.619715 0.730629  L -1.762067 0.857446  C -1.293991 1.339109 -0.759345 1.756424 -0.146242 2.039760  Z" fill="black" stroke="black" stroke-width="0.005"/>
    <path d="M -2.077384 0.391741 C -2.633789 0.084451 -3.113269 -0.338475 -3.523057 -0.820409  L -3.759446 -0.635691  C -3.293982 -0.152493 -2.769454 0.279495 -2.157153 0.564898  Z" fill="black" stroke="black" stroke-width="0.005"/>
    <path d="M -2.691661 1.049120 C -2.723361 0.461618 -2.491091 -0.056628 -2.216948 -0.557798  L -2.496583 -0.809331  C -2.934320 -0.265597 -3.237683 0.363459 -3.291313 1.069545  Z" fill="white" stroke="white" stroke-width="0"/>
    <path d="M -2.841574 1.054226 C -2.838324 0.443425 -2.618344 -0.116638 -2.286857 -0.620681  L -2.426675 -0.746448  C -2.828649 -0.217005 -3.105347 0.391128 -3.141400 1.064439  Z" fill="black" stroke="black" stroke-width="0.005"/>
    <path d="M -1.984231 -3.435861 C -2.564203 -3.139680 -2.706100 -2.616609 -2.530602 -2.025702  L -2.382702 -2.094772  C -2.434466 -2.574081 -2.372323 -2.934756 -1.885877 -3.152441  Z" fill="black" stroke="black" stroke-width="0.005"/>
    <path d="M -3.350837 -2.034580 C -3.017612 -2.348442 -2.730364 -2.291061 -2.353153 -2.100681  L -2.105226 -2.313079  C -2.612558 -2.783886 -3.204993 -2.886653 -3.785924 -2.447737  Z" fill="white" stroke="white" stroke-width="0"/>
    <path d="M -3.459609 -2.137869 C -3.060532 -2.491074 -2.706368 -2.398788 -2.291171 -2.153781  L -2.167208 -2.259980  C -2.632973 -2.663753 -3.167973 -2.750434 -3.677152 -2.344447  Z" fill="black" stroke="black" stroke-width="0.005"/>
    <path d="M -0.988102 -1.457978 C -0.370818 -1.603657 0.267162 -1.607409 0.891762 -1.517569  L 0.947215 -1.812400  C 0.278789 -1.865532 -0.400010 -1.838122 -1.044937 -1.637244  Z" fill="black" stroke="black" stroke-width="0.005"/>
    <path d="M -0.792627 -2.596855 C -0.492889 -2.059164 -0.345244 -1.457592 -0.262289 -0.851948  L 0.113807 -0.847825  C 0.110340 -1.540326 0.002911 -2.230325 -0.260976 -2.874968  Z" fill="white" stroke="white" stroke-width="0"/>
    <path d="M -0.659714 -2.666384 C -0.369181 -2.102384 -0.230877 -1.477896 -0.168265 -0.850917  L 0.019783 -0.848856  C -0.003160 -1.519747 -0.122009 -2.187264 -0.393889 -2.805440  Z" fill="black" stroke="black" stroke-width="0.005"/>
    <path d="M 1.464166 1.462519 C 1.703938 0.857045 1.464942 0.370610 0.942848 0.042909  L 0.877436 0.192462  C 1.232917 0.518115 1.424515 0.829947 1.203106 1.314709  Z" fill="black" stroke="black" stroke-width="0.005"/>
    <path d="M 1.564514 -0.492251 C 1.521670 -0.036496 1.268111 0.110172 0.859155 0.216418  L 0.813326 0.539651  C 1.505213 0.557986 2.017876 0.243793 2.164081 -0.469476  Z" fill="white" stroke="white" stroke-width="0"/>
    <path d="M 1.714405 -0.486557 C 1.648111 0.042234 1.321257 0.206901 0.847698 0.297226  L 0.824783 0.458843  C 1.441184 0.454309 1.900100 0.165980 2.014189 -0.475170  Z" fill="black" stroke="black" stroke-width="0.005"/>
    <path d="M 0.311957 0.156011 C 0.124262 0.033768 0.082349 -0.163697 0.000201 -0.350312  L -0.089225 -0.338759  C 0.003138 -0.128516 0.068304 0.078872 0.279225 0.209022  Z" fill="black" stroke="black" stroke-width="0.005"/>
    <path d="M 0.347399 -0.062302 C 0.086261 -0.067912 -0.087751 0.078881 -0.288905 0.212956  L -0.148866 0.326582  C 0.007044 0.214226 0.136568 0.073451 0.347399 0.062302  Z" fill="white" stroke="white" stroke-width="0"/>
    <path d="M 0.347399 -0.031151 C 0.099556 -0.031224 -0.064850 0.110999 -0.253896 0.241362  L -0.183876 0.298175  C -0.015934 0.182549 0.123471 0.036552 0.347399 0.031151  Z" fill="black" stroke="black" stroke-width="0.005"/>
    <path d="M 0.707922 0.285159 C 0.636746 0.196240 0.553861 0.117858 0.476403 0.034747  L 0.451480 0.060245  C 0.527284 0.143035 0.608484 0.221202 0.677997 0.309692  Z" fill="black" stroke="black" stroke-width="0.005"/>
    <path d="M 0.427517 0.238122 C 0.539927 0.215915 0.648331 0.178222 0.758451 0.147593  L 0.733306 0.074400  C 0.626358 0.106169 0.521186 0.144747 0.411897 0.168543  Z" fill="white" stroke="white" stroke-width="0"/>
    <path d="M 0.423612 0.220727 C 0.535242 0.198124 0.642838 0.160210 0.752165 0.129295  L 0.739592 0.092698  C 0.631851 0.124183 0.525872 0.162540 0.415802 0.185938  Z" fill="black" stroke="black" stroke-width="0.005"/>
    <path d="M -1.982241 -1.693866 C -1.922076 -1.478104 -2.021050 -1.302169 -2.082649 -1.107800  L -2.007880 -1.057402  C -1.938342 -1.276256 -1.850271 -1.475003 -1.922649 -1.712042  Z" fill="black" stroke="black" stroke-width="0.005"/>
    <path d="M -2.153061 -1.553377 C -1.960714 -1.376665 -1.733105 -1.371923 -1.493519 -1.339705  L -1.523598 -1.517517  C -1.714868 -1.536155 -1.905102 -1.516026 -2.070750 -1.646925  Z" fill="white" stroke="white" stroke-width="0"/>
    <path d="M -2.132483 -1.576764 C -1.946460 -1.412990 -1.729082 -1.411164 -1.501039 -1.384158  L -1.516078 -1.473064  C -1.718541 -1.497194 -1.919644 -1.479672 -2.091328 -1.623538  Z" fill="black" stroke="black" stroke-width="0.005"/>
    <path d="M -2.194204 -2.052389 C -2.199505 -1.938615 -2.189056 -1.825017 -2.185804 -1.711454  L -2.150249 -1.714134  C -2.152471 -1.826363 -2.161799 -1.938686 -2.155532 -2.051040  Z" fill="black" stroke="black" stroke-width="0.005"/>
    <path d="M -2.014758 -1.831847 C -2.113821 -1.889430 -2.220105 -1.932741 -2.323012 -1.982488  L -2.352483 -1.910927  C -2.251204 -1.864131 -2.146762 -1.823620 -2.048993 -1.769292  Z" fill="white" stroke="white" stroke-width="0"/>
    <path d="M -2.023317 -1.816208 C -2.122056 -1.872979 -2.227879 -1.915589 -2.330380 -1.964598  L -2.345115 -1.928817  C -2.243429 -1.881284 -2.138527 -1.840074 -2.040434 -1.784931  Z" fill="black" stroke="black" stroke-width="0.005"/>
  </g>
  <g fill="none" stroke="black">
    <path d="M -0.0924 1.8998 C 0.3743 2.0793, 1.0873 1.8237, 1.3336 1.3886" stroke-width="0.305"/>
    <path d="M -2.9915 1.0593 C -2.9745 1.559, -2.4745 1.9292, -1.9916 1.7997" stroke-width="0.305"/>
    <path d="M -3.5684 -2.2412 C -3.9127 -1.8786, -3.9491 -1.122, -3.6413 -0.7281" stroke-width="0.305"/>
    <path d="M -0.5268 -2.7359 C -0.7586 -3.179, -1.4627 -3.4581, -1.9351 -3.2942" stroke-width="0.305"/>
    <path d="M 1.8643 -0.4809 C 1.8833 -0.9805, 1.4109 -1.5726, 0.9195 -1.665" stroke-width="0.305"/>
    <path d="M 0.347399 0.031151 C 0.385903 0.022519 0.417842 0.049830 0.451480 0.060245  L 0.476403 0.034747  C 0.435260 0.011898 0.401254 -0.032910 0.347399 -0.031151  Z" fill="black" stroke="black" stroke-width="0.005"/>
    <path d="M 0.677997 0.309692 C 0.696102 0.386362 0.775510 0.412146 0.824783 0.458843  L 0.847698 0.297226  C 0.805904 0.294676 0.750941 0.315639 0.707922 0.285159  Z" fill="black" stroke="black" stroke-width="0.005"/>
    <path d="M -1.044937 -1.637244 C -1.196867 -1.568740 -1.358114 -1.524891 -1.516078 -1.473064  L -1.501039 -1.384158  C -1.329901 -1.406483 -1.157066 -1.419592 -0.988102 -1.457978  Z" fill="black" stroke="black" stroke-width="0.005"/>
    <path d="M -2.091328 -1.623538 C -2.125937 -1.642492 -2.131875 -1.684095 -2.150249 -1.714134  L -2.185804 -1.711454  C -2.170009 -1.667122 -2.174077 -1.611019 -2.132483 -1.576764  Z" fill="black" stroke="black" stroke-width="0.005"/>
    <path d="M -2.155532 -2.051040 C -2.118478 -2.120561 -2.161062 -2.192373 -2.167208 -2.259980  L -2.291171 -2.153781  C -2.261479 -2.124258 -2.206367 -2.103690 -2.194204 -2.052389  Z" fill="black" stroke="black" stroke-width="0.005"/>
    <path d="M -2.1173 0.4783 C -1.9942 0.535, -1.781 0.6929, -1.6909 0.794" stroke-width="0.1956"/>
    <path d="M 0.942848 0.042909 C 0.867008 0.019959 0.804667 0.073869 0.739592 0.092698  L 0.752165 0.129295  C 0.793678 0.148129 0.853542 0.146627 0.877436 0.192462  Z" fill="black" stroke="black" stroke-width="0.005"/>
    <path d="M 0.415802 0.185938 C 0.376990 0.193514 0.345141 0.166477 0.311957 0.156011  L 0.279225 0.209022  C 0.326052 0.214382 0.374683 0.243091 0.423612 0.220727  Z" fill="black" stroke="black" stroke-width="0.005"/>
    <path d="M 0.000201 -0.350312 C -0.006391 -0.516991 0.011203 -0.682940 0.019783 -0.848856  L -0.168265 -0.850917  C -0.145793 -0.679694 -0.130028 -0.506968 -0.089225 -0.338759  Z" fill="black" stroke="black" stroke-width="0.005"/>
    <path d="M -2.530602 -2.025702 C -2.488824 -1.958375 -2.406409 -1.957668 -2.345115 -1.928817  L -2.330380 -1.964598  C -2.349105 -2.006160 -2.395041 -2.044577 -2.382702 -2.094772  Z" fill="black" stroke="black" stroke-width="0.005"/>
    <path d="M -2.040434 -1.784931 C -2.006291 -1.764981 -2.000240 -1.723644 -1.982241 -1.693866  L -1.922649 -1.712042  C -1.954264 -1.746999 -1.971810 -1.800677 -2.023317 -1.816208  Z" fill="black" stroke="black" stroke-width="0.005"/>
    <path d="M -2.082649 -1.107800 C -2.187804 -0.978310 -2.310634 -0.865344 -2.426675 -0.746448  L -2.286857 -0.620681  C -2.190623 -0.764073 -2.088361 -0.904163 -2.007880 -1.057402  Z" fill="black" stroke="black" stroke-width="0.005"/>
    <path d="M -0.429138 0.732658 C -0.360326 0.580867 -0.268234 0.441432 -0.183876 0.298175  L -0.253896 0.241362  C -0.367632 0.371172 -0.488730 0.495184 -0.590225 0.635616  Z" fill="black" stroke="black" stroke-width="0.005"/>
  </g>
</svg>
