<?xml version="1.0" encoding="utf-8" ?>
<svg xmlns="http://www.w3.org/2000/svg" xmlns:ev="http://www.w3.org/2001/xml-events" xmlns:xlink="http://www.w3.org/1999/xlink" baseProfile="full" version="1.1" viewBox="-4.878672227831435 -5.149438082188519 10.266477213816795 10.529574331071306">
  <defs/>
  <g stroke="none">
    <path d="M 0.484984 4.187924 C 1.103881 3.917264 1.624394 3.484535 2.061894 2.977223  L 1.907731 2.859422  C 1.473679 3.303301 0.972206 3.687031 0.384899 3.905112  Z" fill="black" stroke="black" stroke-width="0.005"/>
    <path d="M 0.536943 3.137700 C 1.021513 3.644559 1.641135 3.976614 2.291381 4.217970  L 2.418509 3.631592  C 1.840730 3.469617 1.283309 3.253659 0.813043 2.865043  Z" fill="white" stroke="white" stroke-width="0"/>
    <path d="M 0.605968 3.069536 C 1.087134 3.544000 1.690288 3.854173 2.323163 4.071375  L 2.386727 3.778187  C 1.787485 3.612019 1.218814 3.341470 0.744018 2.933207  Z" fill="black" stroke="black" stroke-width="0.005"/>
    <path d="M 0.219146 2.610343 C -0.405190 2.384317 -1.024884 2.145697 -1.637383 1.889377  L -1.747648 2.168378  C -1.115891 2.389115 -0.482532 2.606558 0.159725 2.795039  Z" fill="black" stroke="black" stroke-width="0.005"/>
    <path d="M -0.573759 1.393345 C -0.847899 2.036395 -0.932426 2.733528 -0.932696 3.426493  L -0.337583 3.350070  C -0.382250 2.744793 -0.378113 2.135565 -0.195206 1.547920  Z" fill="white" stroke="white" stroke-width="0"/>
    <path d="M -0.479121 1.431989 C -0.727576 2.060832 -0.798924 2.736731 -0.783917 3.407387  L -0.486361 3.369175  C -0.534305 2.743100 -0.485583 2.109643 -0.289844 1.509276  Z" fill="black" stroke="black" stroke-width="0.005"/>
    <path d="M -1.409208 -0.300645 C -2.017194 -0.430320 -2.566270 -0.728531 -3.044078 -1.118407  L -3.248316 -0.898665  C -2.706967 -0.506853 -2.102925 -0.200945 -1.433983 -0.104370  Z" fill="black" stroke="black" stroke-width="0.005"/>
    <path d="M -2.219760 0.698113 C -2.179343 0.070362 -2.000817 -0.538633 -1.782581 -1.125327  L -2.110993 -1.298740  C -2.434267 -0.690183 -2.683929 -0.043060 -2.816482 0.635474  Z" fill="white" stroke="white" stroke-width="0"/>
    <path d="M -2.368941 0.682453 C -2.304166 0.041960 -2.109602 -0.576333 -1.864684 -1.168680  L -2.028890 -1.255387  C -2.326316 -0.652141 -2.556525 -0.014667 -2.667301 0.651134  Z" fill="black" stroke="black" stroke-width="0.005"/>
    <path d="M -2.054759 -2.382997 C -2.219659 -2.898936 -2.023785 -3.230569 -1.642526 -3.554772  L -1.781008 -3.820897  C -2.253947 -3.420278 -2.476127 -2.904386 -2.203337 -2.303924  Z" fill="black" stroke="black" stroke-width="0.005"/>
    <path d="M -3.008228 -2.265808 C -2.684550 -2.611634 -2.362717 -2.589614 -1.945263 -2.450894  L -1.727470 -2.707560  C -2.305761 -3.093444 -2.919624 -3.128271 -3.469298 -2.649753  Z" fill="white" stroke="white" stroke-width="0"/>
    <path d="M -3.123495 -2.361794 C -2.740735 -2.749123 -2.351791 -2.700513 -1.890815 -2.515060  L -1.781918 -2.643394  C -2.311560 -2.972467 -2.870250 -2.996197 -3.354030 -2.553767  Z" fill="black" stroke="black" stroke-width="0.005"/>
    <path d="M 1.204164 -2.467481 C 0.530044 -2.501018 -0.141830 -2.411829 -0.794573 -2.249676  L -0.744821 -2.070773  C -0.113906 -2.183942 0.531636 -2.242388 1.171234 -2.169294  Z" fill="black" stroke="black" stroke-width="0.005"/>
    <path d="M -0.573662 -3.136033 C -0.252717 -2.624552 -0.155021 -2.037881 -0.092205 -1.449700  L 0.301894 -1.414527  C 0.335729 -2.109983 0.241108 -2.804958 -0.057277 -3.441560  Z" fill="white" stroke="white" stroke-width="0"/>
    <path d="M -0.444566 -3.212415 C -0.138840 -2.670706 -0.017254 -2.056083 0.006320 -1.440907  L 0.203369 -1.423321  C 0.218374 -2.092225 0.113496 -2.759809 -0.186373 -3.365178  Z" fill="black" stroke="black" stroke-width="0.005"/>
    <path d="M 3.496167 -0.040386 C 2.846076 -0.225691 2.167818 -0.243637 1.501170 -0.163211  L 1.536381 0.038181  C 2.162177 -0.001886 2.797679 0.038154 3.395471 0.242210  Z" fill="black" stroke="black" stroke-width="0.005"/>
    <path d="M 2.793483 0.741859 C 2.766245 0.069677 2.700728 -0.600314 2.638826 -1.270006  L 2.046662 -1.173353  C 2.186280 -0.526161 2.299043 0.126180 2.407258 0.779320  Z" fill="white" stroke="white" stroke-width="0"/>
    <path d="M 2.696927 0.751224 C 2.649528 0.083563 2.571937 -0.581572 2.490785 -1.245843  L 2.194703 -1.197517  C 2.314722 -0.544485 2.415915 0.111809 2.503814 0.769955  Z" fill="black" stroke="black" stroke-width="0.005"/>
    <path d="M 2.707510 1.351538 C 3.005309 1.902380 3.148563 2.515618 3.183320 3.136500  L 3.483320 3.136824  C 3.405860 2.472214 3.231233 1.816845 2.870108 1.245683  Z" fill="black" stroke="black" stroke-width="0.005"/>
    <path d="M 2.511030 2.736419 C 3.150822 2.449398 3.671081 1.976616 4.116117 1.444625  L 3.606087 1.128603  C 3.260105 1.618870 2.870065 2.071886 2.346485 2.384996  Z" fill="white" stroke="white" stroke-width="0"/>
    <path d="M 2.469894 2.648563 C 3.078019 2.353910 3.572147 1.889323 3.988609 1.365619  L 3.733595 1.207608  C 3.376480 1.716698 2.931231 2.162048 2.387621 2.472852  Z" fill="black" stroke="black" stroke-width="0.005"/>
    <path d="M -0.084878 0.798469 C 0.025466 0.274248 0.085891 -0.258178 0.138248 -0.790620  L -0.028926 -0.802094  C -0.082864 -0.278182 -0.144246 0.245792 -0.255065 0.761379  Z" fill="black" stroke="black" stroke-width="0.005"/>
    <path d="M 0.798230 -0.174182 C 0.275038 -0.174526 -0.245963 -0.224778 -0.765347 -0.281949  L -0.814118 0.049618  C -0.278742 0.113510 0.258370 0.169232 0.798230 0.174182  Z" fill="white" stroke="white" stroke-width="0"/>
    <path d="M 0.798230 -0.087091 C 0.270870 -0.088600 -0.254157 -0.140198 -0.777540 -0.199057  L -0.801925 -0.033274  C -0.270547 0.028946 0.262536 0.083279 0.798230 0.087091  Z" fill="black" stroke="black" stroke-width="0.005"/>
    <path d="M -1.708529 -1.628963 C -1.616646 -1.880477 -1.656520 -2.134959 -1.676062 -2.391472  L -1.749975 -2.372545  C -1.737848 -2.133078 -1.706216 -1.894081 -1.796287 -1.661747  Z" fill="black" stroke="black" stroke-width="0.005"/>
    <path d="M -1.247816 -2.155299 C -1.484441 -2.115507 -1.704531 -2.191704 -1.928386 -2.249134  L -1.996849 -2.112759  C -1.742841 -2.033581 -1.496009 -1.934698 -1.221125 -1.969847  Z" fill="white" stroke="white" stroke-width="0"/>
    <path d="M -1.241144 -2.108936 C -1.487329 -2.070403 -1.714109 -2.152201 -1.945502 -2.215040  L -1.979733 -2.146853  C -1.733264 -2.073138 -1.493110 -1.979991 -1.227798 -2.016210  Z" fill="black" stroke="black" stroke-width="0.005"/>
  </g>
  <g fill="none" stroke="black">
    <path d="M 3.3333 3.1367 C 3.3328 3.6367, 2.8436 4.0307, 2.3549 3.9248" stroke-width="0.305"/>
    <path d="M 0.4349 4.0465 C -0.0364 4.2133, -0.5715 3.8842, -0.6351 3.3883" stroke-width="0.305"/>
    <path d="M -1.6925 2.0289 C -2.1575 1.8451, -2.5703 1.1641, -2.5181 0.6668" stroke-width="0.305"/>
    <path d="M -3.2388 -2.4578 C -3.5587 -2.0736, -3.5124 -1.3489, -3.1462 -1.0085" stroke-width="0.305"/>
    <path d="M -0.3155 -3.2888 C -0.5701 -3.7191, -1.2682 -3.9186, -1.7118 -3.6878" stroke-width="0.305"/>
    <path d="M 1.1877 -2.3184 C 1.6847 -2.2635, 2.2622 -1.7151, 2.3427 -1.2217" stroke-width="0.305"/>
    <path d="M 3.4458 0.1009 C 3.9168 0.2687, 4.1245 0.8616, 3.8611 1.2866" stroke-width="0.305"/>
    <path d="M -1.433983 -0.104370 C -1.223011 -0.083325 -1.012516 -0.057781 -0.801925 -0.033274  L -0.777540 -0.199057  C -0.987963 -0.233730 -1.198327 -0.268776 -1.409208 -0.300645  Z" fill="black" stroke="black" stroke-width="0.005"/>
    <path d="M 0.798230 0.087091 C 1.045537 0.094057 1.291025 0.062529 1.536381 0.038181  L 1.501170 -0.163211  C 1.267823 -0.130279 1.034693 -0.091258 0.798230 -0.087091  Z" fill="black" stroke="black" stroke-width="0.005"/>
    <path d="M 2.4288 2.5607 C 2.2959 2.6229, 2.0739 2.8017, 1.9848 2.9183" stroke-width="0.199"/>
    <path d="M -0.289844 1.509276 C -0.199758 1.278791 -0.145383 1.037499 -0.084878 0.798469  L -0.255065 0.761379  C -0.322492 0.987177 -0.383621 1.215708 -0.479121 1.431989  Z" fill="black" stroke="black" stroke-width="0.005"/>
    <path d="M 0.138248 -0.790620 C 0.157972 -1.001728 0.180852 -1.212506 0.203369 -1.423321  L 0.006320 -1.440907  C -0.006248 -1.228019 -0.019853 -1.015167 -0.028926 -0.802094  Z" fill="black" stroke="black" stroke-width="0.005"/>
    <path d="M -2.203337 -2.303924 C -2.152851 -2.219895 -2.054271 -2.196108 -1.979733 -2.146853  L -1.945502 -2.215040  C -1.982885 -2.269315 -2.044194 -2.312994 -2.054759 -2.382997  Z" fill="black" stroke="black" stroke-width="0.005"/>
    <path d="M -1.227798 -2.016210 C -1.065550 -2.021241 -0.905435 -2.049878 -0.744821 -2.070773  L -0.794573 -2.249676  C -0.942759 -2.201150 -1.088905 -2.145088 -1.241144 -2.108936  Z" fill="black" stroke="black" stroke-width="0.005"/>
    <path d="M 2.6004 0.7606 C 2.6145 0.9066, 2.7088 1.1756, 2.7888 1.2986" stroke-width="0.199"/>
    <path d="M 0.675 3.0014 C 0.5719 2.897, 0.3291 2.7476, 0.1894 2.7027" stroke-width="0.199"/>
    <path d="M -1.864684 -1.168680 C -1.801303 -1.318243 -1.758706 -1.475048 -1.708529 -1.628963  L -1.796287 -1.661747  C -1.871473 -1.525033 -1.940415 -1.384287 -2.028890 -1.255387  Z" fill="black" stroke="black" stroke-width="0.005"/>
    <path d="M -1.676062 -2.391472 C -1.673404 -2.489295 -1.744972 -2.561779 -1.781918 -2.643394  L -1.890815 -2.515060  C -1.844715 -2.469999 -1.777140 -2.438264 -1.749975 -2.372545  Z" fill="black" stroke="black" stroke-width="0.005"/>
  </g>
</svg>
