<?xml version="1.0" encoding="utf-8" ?>
<svg xmlns="http://www.w3.org/2000/svg" xmlns:ev="http://www.w3.org/2001/xml-events" xmlns:xlink="http://www.w3.org/1999/xlink" baseProfile="full" version="1.1" viewBox="-3.3566124169012497 -3.570605393428478 9.38168225818799 8.894748158815277">
  <defs/>
  <g stroke="none">
    <path d="M -0.672763 0.096706 C -1.248821 0.035666 -1.584946 -0.299693 -1.871648 -0.764423  L -2.153325 -0.661186  C -1.817140 -0.114582 -1.334040 0.264870 -0.665579 0.275013  Z" fill="black" stroke="black" stroke-width="0.005"/>
    <path d="M -1.218579 1.168295 C -1.310154 0.611993 -1.092679 0.139658 -0.813705 -0.321625  L -1.049765 -0.578740  C -1.528434 -0.069470 -1.828617 0.545931 -1.811484 1.260293  Z" fill="white" stroke="white" stroke-width="0"/>
    <path d="M -1.366805 1.191295 C -1.438823 0.589298 -1.195327 0.096043 -0.872720 -0.385904  L -0.990750 -0.514462  C -1.424883 -0.022284 -1.695136 0.567077 -1.663257 1.237293  Z" fill="black" stroke="black" stroke-width="0.005"/>
    <path d="M 0.505251 -2.585618 C -0.135757 -2.414026 -0.509429 -1.940068 -0.672571 -1.321409  L -0.507319 -1.300722  C -0.289324 -1.792652 -0.019884 -2.173893 0.545343 -2.288309  Z" fill="black" stroke="black" stroke-width="0.005"/>
    <path d="M -0.060218 -1.373612 C -0.260900 -2.084338 -0.824981 -2.316065 -1.508911 -2.261156  L -1.313434 -1.693892  C -0.902272 -1.728548 -0.606089 -1.715069 -0.389643 -1.291881  Z" fill="white" stroke="white" stroke-width="0"/>
    <path d="M -0.142574 -1.353179 C -0.341063 -1.979748 -0.849409 -2.184660 -1.460042 -2.119340  L -1.362303 -1.835708  C -0.877452 -1.886175 -0.527303 -1.794779 -0.307287 -1.312314  Z" fill="black" stroke="black" stroke-width="0.005"/>
    <path d="M 1.851179 -0.173657 C 2.370986 -0.521176 2.968000 -0.718652 3.582341 -0.808147  L 3.556860 -1.107063  C 2.901175 -0.973083 2.263639 -0.741564 1.727311 -0.330082  Z" fill="black" stroke="black" stroke-width="0.005"/>
    <path d="M 1.790080 -1.563104 C 2.175362 -1.020476 2.539587 -0.463288 2.913161 0.087397  L 3.246184 -0.108206  C 2.940037 -0.703891 2.616375 -1.290177 2.299461 -1.880170  Z" fill="white" stroke="white" stroke-width="0"/>
    <path d="M 1.917425 -1.642371 C 2.285676 -1.087660 2.639620 -0.523609 2.996417 0.038497  L 3.162929 -0.059305  C 2.839855 -0.643915 2.506168 -1.222508 2.172116 -1.800904  Z" fill="black" stroke="black" stroke-width="0.005"/>
    <path d="M 4.804377 1.818837 C 4.513879 1.209188 4.054045 0.714378 3.518732 0.313402  L 3.413312 0.475198  C 3.881733 0.874854 4.289189 1.351051 4.524561 1.927018  Z" fill="black" stroke="black" stroke-width="0.005"/>
    <path d="M 4.137515 -0.090485 C 4.075792 0.510670 3.790605 1.033156 3.477436 1.535440  L 3.758483 1.800351  C 4.216241 1.276177 4.572178 0.672320 4.732340 -0.011849  Z" fill="white" stroke="white" stroke-width="0"/>
    <path d="M 4.286221 -0.070826 C 4.192950 0.544347 3.908954 1.103033 3.547698 1.601668  L 3.688222 1.734123  C 4.114182 1.218469 4.444708 0.629371 4.583634 -0.031508  Z" fill="black" stroke="black" stroke-width="0.005"/>
    <path d="M 3.245237 2.124188 C 3.014777 2.701724 2.628172 3.192735 2.162756 3.597582  L 2.344977 3.835900  C 2.821466 3.367749 3.223853 2.823477 3.430083 2.180073  Z" fill="black" stroke="black" stroke-width="0.005"/>
    <path d="M 3.991112 2.660972 C 3.396729 2.770089 2.815281 2.642651 2.245387 2.482694  L 2.069793 2.826688  C 2.701196 3.119316 3.380575 3.291882 4.082219 3.254015  Z" fill="white" stroke="white" stroke-width="0"/>
    <path d="M 4.013889 2.809233 C 3.397213 2.891990 2.781347 2.775835 2.201489 2.568693  L 2.113692 2.740690  C 2.728010 3.005180 3.386104 3.157485 4.059443 3.105754  Z" fill="black" stroke="black" stroke-width="0.005"/>
    <path d="M -0.396890 2.505187 C 0.270488 2.581329 0.941861 2.615954 1.613291 2.617782  L 1.615169 2.424682  C 0.957274 2.382787 0.299063 2.323975 -0.350534 2.208790  Z" fill="black" stroke="black" stroke-width="0.005"/>
    <path d="M 1.308770 3.291046 C 1.036733 2.748658 0.987036 2.151419 0.970210 1.556404  L 0.580861 1.492786  C 0.493814 2.182997 0.529872 2.883244 0.764979 3.544604  Z" fill="white" stroke="white" stroke-width="0"/>
    <path d="M 1.172822 3.354436 C 0.919253 2.783808 0.849260 2.158506 0.872873 1.540500  L 0.678198 1.508691  C 0.611981 2.175017 0.660637 2.849786 0.900927 3.481215  Z" fill="black" stroke="black" stroke-width="0.005"/>
    <path d="M 0.230367 0.227283 C 0.093724 0.066929 0.021270 -0.130277 -0.068178 -0.316700  L -0.135468 -0.294271  C -0.043425 -0.099496 0.038578 0.102098 0.180790 0.268406  Z" fill="black" stroke="black" stroke-width="0.005"/>
    <path d="M 0.322009 -0.064958 C 0.098979 -0.071518 -0.114369 -0.009563 -0.328578 0.040211  L -0.275111 0.184104  C -0.078503 0.134194 0.115614 0.065564 0.322009 0.064958  Z" fill="white" stroke="white" stroke-width="0"/>
    <path d="M 0.322009 -0.032479 C 0.103230 -0.036696 -0.105527 0.025630 -0.315211 0.076184  L -0.288478 0.148131  C -0.087365 0.099026 0.111374 0.030697 0.322009 0.032479  Z" fill="black" stroke="black" stroke-width="0.005"/>
    <path d="M 0.899380 0.901409 C 0.896129 0.562615 0.725583 0.310479 0.543780 0.045441  L 0.481513 0.109438  C 0.636630 0.355046 0.785410 0.590809 0.779596 0.896405  Z" fill="black" stroke="black" stroke-width="0.005"/>
    <path d="M 0.367767 0.433705 C 0.714494 0.488213 1.015906 0.365293 1.327764 0.241027  L 1.189164 0.039821  C 0.935219 0.161606 0.685961 0.277699 0.393146 0.258041  Z" fill="white" stroke="white" stroke-width="0"/>
    <path d="M 0.374111 0.389789 C 0.707308 0.435653 0.995752 0.314225 1.293114 0.190725  L 1.223814 0.090123  C 0.955397 0.212369 0.693045 0.330407 0.386801 0.301957  Z" fill="black" stroke="black" stroke-width="0.005"/>
    <path d="M -0.288464 -1.108795 C -0.388254 -0.932891 -0.550368 -0.814507 -0.695193 -0.681200  L -0.655658 -0.622101  C -0.504139 -0.763342 -0.334310 -0.888814 -0.231327 -1.075191  Z" fill="black" stroke="black" stroke-width="0.005"/>
    <path d="M -0.611412 -1.074807 C -0.522128 -0.884085 -0.403711 -0.709797 -0.293439 -0.531272  L -0.180723 -0.611611  C -0.290515 -0.782068 -0.407989 -0.948304 -0.498216 -1.130704  Z" fill="white" stroke="white" stroke-width="0"/>
    <path d="M -0.583113 -1.088781 C -0.493596 -0.900137 -0.375413 -0.727864 -0.265260 -0.551357  L -0.208902 -0.591526  C -0.318815 -0.763999 -0.436527 -0.932247 -0.526515 -1.116730  Z" fill="black" stroke="black" stroke-width="0.005"/>
  </g>
  <g fill="none" stroke="black">
    <path d="M -0.3737 2.357 C -0.8677 2.2797, -1.4384 1.7084, -1.515 1.2143" stroke-width="0.305"/>
    <path d="M -1.4112 -1.9775 C -1.8839 -1.8146, -2.1845 -1.1823, -2.0125 -0.7128" stroke-width="0.305"/>
    <path d="M 0.5253 -2.437 C 1.0208 -2.5038, 1.7805 -2.1461, 2.0448 -1.7216" stroke-width="0.305"/>
    <path d="M 4.4349 -0.0512 C 4.5005 -0.5469, 4.0678 -1.0001, 3.5696 -0.9576" stroke-width="0.305"/>
    <path d="M 4.6645 1.8729 C 4.8448 2.3393, 4.5309 2.8816, 4.0367 2.9575" stroke-width="0.305"/>
    <path d="M 1.0369 3.4178 C 1.2482 3.871, 1.8567 4.0204, 2.2539 3.7167" stroke-width="0.305"/>
    <path d="M -0.665579 0.275013 C -0.531774 0.257846 -0.412655 0.193040 -0.288478 0.148131  L -0.315211 0.076184  C -0.433898 0.084720 -0.553058 0.115780 -0.672763 0.096706  Z" fill="black" stroke="black" stroke-width="0.005"/>
    <path d="M 0.322009 0.032479 C 0.386621 0.031146 0.430557 0.083257 0.481513 0.109438  L 0.543780 0.045441  C 0.472480 0.017723 0.407934 -0.046821 0.322009 -0.032479  Z" fill="black" stroke="black" stroke-width="0.005"/>
    <path d="M 0.779596 0.896405 C 0.759009 1.102679 0.715339 1.305253 0.678198 1.508691  L 0.872873 1.540500  C 0.886553 1.327758 0.905219 1.114830 0.899380 0.901409  Z" fill="black" stroke="black" stroke-width="0.005"/>
    <path d="M 3.3377 2.1521 C 3.3792 2.0146, 3.5194 1.7725, 3.618 1.6679" stroke-width="0.1981"/>
    <path d="M 1.727311 -0.330082 C 1.565144 -0.183395 1.393370 -0.047823 1.223814 0.090123  L 1.293114 0.190725  C 1.480644 0.071623 1.669063 -0.046174 1.851179 -0.173657  Z" fill="black" stroke="black" stroke-width="0.005"/>
    <path d="M 0.386801 0.301957 C 0.324157 0.302834 0.280771 0.252934 0.230367 0.227283  L 0.180790 0.268406  C 0.242470 0.309938 0.290591 0.382864 0.374111 0.389789  Z" fill="black" stroke="black" stroke-width="0.005"/>
    <path d="M -0.068178 -0.316700 C -0.096979 -0.417057 -0.161160 -0.500844 -0.208902 -0.591526  L -0.265260 -0.551357  C -0.221269 -0.466482 -0.162105 -0.387872 -0.135468 -0.294271  Z" fill="black" stroke="black" stroke-width="0.005"/>
    <path d="M -0.526515 -1.116730 C -0.544162 -1.179756 -0.514424 -1.241847 -0.507319 -1.300722  L -0.672571 -1.321409  C -0.645239 -1.244296 -0.645479 -1.151953 -0.583113 -1.088781  Z" fill="black" stroke="black" stroke-width="0.005"/>
    <path d="M 3.0797 -0.0104 C 3.1525 0.1135, 3.3456 0.3159, 3.466 0.3943" stroke-width="0.1981"/>
    <path d="M 2.1576 2.6547 C 2.0296 2.5894, 1.7579 2.5226, 1.6142 2.5212" stroke-width="0.1981"/>
    <path d="M -0.872720 -0.385904 C -0.809392 -0.472486 -0.728685 -0.544087 -0.655658 -0.622101  L -0.695193 -0.681200  C -0.793684 -0.626108 -0.897697 -0.579574 -0.990750 -0.514462  Z" fill="black" stroke="black" stroke-width="0.005"/>
    <path d="M -0.231327 -1.075191 C -0.150257 -1.148297 -0.168326 -1.261913 -0.142574 -1.353179  L -0.307287 -1.312314  C -0.299778 -1.248245 -0.259308 -1.178354 -0.288464 -1.108795  Z" fill="black" stroke="black" stroke-width="0.005"/>
  </g>
</svg>
