<?xml version="1.0" encoding="utf-8" ?>
<svg xmlns="http://www.w3.org/2000/svg" xmlns:ev="http://www.w3.org/2001/xml-events" xmlns:xlink="http://www.w3.org/1999/xlink" baseProfile="full" version="1.1" viewBox="-7.131635100659714 -4.540988662924592 9.91872650630435 7.7554127565664706">
  <defs/>
  <g stroke="none">
    <path d="M -0.569485 0.520478 C -0.996416 0.991061 -1.518875 1.359136 -2.083298 1.644201  L -1.958922 1.917203  C -1.381603 1.576106 -0.840770 1.165073 -0.424402 0.633384  Z" fill="black" stroke="black" stroke-width="0.005"/>
    <path d="M -0.078264 1.518593 C -0.630469 1.277788 -1.036307 0.846328 -1.413597 0.393273  L -1.756560 0.577884  C -1.401682 1.177027 -0.937351 1.702352 -0.332757 2.061946  Z" fill="white" stroke="white" stroke-width="0"/>
    <path d="M -0.141887 1.654431 C -0.698403 1.379525 -1.140409 0.937603 -1.499338 0.439426  L -1.670819 0.531731  C -1.314721 1.097569 -0.857095 1.593829 -0.269134 1.926108  Z" fill="black" stroke="black" stroke-width="0.005"/>
    <path d="M -5.174171 0.590058 C -4.502298 0.652035 -3.863361 0.459548 -3.286649 0.129176  L -3.399164 -0.032332  C -3.937877 0.232873 -4.518198 0.376069 -5.120892 0.294827  Z" fill="black" stroke="black" stroke-width="0.005"/>
    <path d="M -4.640430 -0.278953 C -4.459135 0.387547 -4.142187 1.005957 -3.783561 1.592510  L -3.310986 1.222817  C -3.704592 0.731344 -4.033130 0.189743 -4.279457 -0.391027  Z" fill="white" stroke="white" stroke-width="0"/>
    <path d="M -4.550187 -0.306971 C -4.353017 0.338570 -4.031911 0.936588 -3.665418 1.500087  L -3.429130 1.315240  C -3.813084 0.799169 -4.140030 0.239732 -4.369700 -0.363009  Z" fill="black" stroke="black" stroke-width="0.005"/>
    <path d="M -4.626047 -0.845028 C -4.966066 -1.359052 -5.031351 -1.933189 -5.021168 -2.529836  L -5.317472 -2.576782  C -5.320613 -1.915216 -5.179072 -1.265647 -4.773411 -0.726708  Z" fill="black" stroke="black" stroke-width="0.005"/>
    <path d="M -4.437234 -2.061767 C -5.112751 -1.835622 -5.614634 -1.350175 -6.003292 -0.771265  L -5.454150 -0.529517  C -5.175893 -1.018869 -4.837740 -1.446717 -4.317457 -1.703276  Z" fill="white" stroke="white" stroke-width="0"/>
    <path d="M -4.407289 -1.972144 C -5.040074 -1.738478 -5.510627 -1.268846 -5.866007 -0.710828  L -5.591435 -0.589954  C -5.277109 -1.097192 -4.911503 -1.544659 -4.347401 -1.792899  Z" fill="black" stroke="black" stroke-width="0.005"/>
    <path d="M -2.270484 -3.245065 C -2.893922 -2.986498 -3.465943 -2.623174 -3.992428 -2.204303  L -3.870981 -2.059506  C -3.343597 -2.426558 -2.781922 -2.752230 -2.171821 -2.961753  Z" fill="black" stroke="black" stroke-width="0.005"/>
    <path d="M -2.602864 -1.924734 C -2.874395 -2.582029 -3.383232 -3.064066 -3.974211 -3.434856  L -4.204148 -2.880664  C -3.703055 -2.611519 -3.255049 -2.283619 -2.966901 -1.774886  Z" fill="white" stroke="white" stroke-width="0"/>
    <path d="M -2.693873 -1.887272 C -2.969535 -2.503761 -3.461682 -2.956424 -4.031695 -3.296308  L -4.146663 -3.019212  C -3.629993 -2.718364 -3.153486 -2.363614 -2.875892 -1.812348  Z" fill="black" stroke="black" stroke-width="0.005"/>
    <path d="M -1.023005 -1.180919 C -0.456156 -1.432839 0.162318 -1.509920 0.776019 -1.468015  L 0.816040 -1.765334  C 0.148350 -1.770984 -0.520111 -1.667555 -1.117252 -1.351341  Z" fill="black" stroke="black" stroke-width="0.005"/>
    <path d="M -0.988237 -2.428920 C -0.638673 -1.920010 -0.432876 -1.333676 -0.288769 -0.737651  L 0.077438 -0.770509  C 0.007336 -1.458933 -0.164477 -2.135121 -0.483575 -2.753445  Z" fill="white" stroke="white" stroke-width="0"/>
    <path d="M -0.862071 -2.510051 C -0.520471 -1.974083 -0.322356 -1.364720 -0.197217 -0.745866  L -0.014114 -0.762295  C -0.102360 -1.427790 -0.284006 -2.080926 -0.609740 -2.672314  Z" fill="black" stroke="black" stroke-width="0.005"/>
    <path d="M 1.355880 1.444732 C 1.619799 0.851141 1.393629 0.366191 0.875221 0.037867  L 0.809465 0.186645  C 1.158338 0.510142 1.339906 0.815485 1.101192 1.286195  Z" fill="black" stroke="black" stroke-width="0.005"/>
    <path d="M 1.472076 -0.487898 C 1.440433 -0.038460 1.197032 0.101058 0.794306 0.200762  L 0.743866 0.522150  C 1.434409 0.550654 1.941703 0.237532 2.072008 -0.478868  Z" fill="white" stroke="white" stroke-width="0"/>
    <path d="M 1.622059 -0.485641 C 1.568060 0.039371 1.250134 0.197878 0.781696 0.281109  L 0.756476 0.441803  C 1.370091 0.446261 1.822722 0.160858 1.922025 -0.481126  Z" fill="black" stroke="black" stroke-width="0.005"/>
    <path d="M 0.276411 0.144542 C 0.109905 0.032979 0.066963 -0.145832 -0.009830 -0.313097  L -0.089239 -0.300271  C 0.002422 -0.118068 0.055623 0.076845 0.246063 0.191699  Z" fill="black" stroke="black" stroke-width="0.005"/>
    <path d="M 0.310659 -0.056078 C 0.079167 -0.061912 -0.083631 0.064098 -0.267458 0.177328  L -0.147789 0.284847  C -0.001308 0.193944 0.119743 0.060061 0.310659 0.056078  Z" fill="white" stroke="white" stroke-width="0"/>
    <path d="M 0.310659 -0.028039 C 0.088361 -0.034518 -0.061858 0.100595 -0.237541 0.204208  L -0.177706 0.257967  C -0.022610 0.158871 0.110268 0.031745 0.310659 0.028039  Z" fill="black" stroke="black" stroke-width="0.005"/>
    <path d="M 0.647524 0.270881 C 0.581570 0.185726 0.503253 0.111479 0.430672 0.032348  L 0.407156 0.056265  C 0.478009 0.135046 0.554562 0.209065 0.618784 0.293741  Z" fill="black" stroke="black" stroke-width="0.005"/>
    <path d="M 0.383079 0.222285 C 0.489820 0.203239 0.592563 0.167920 0.697001 0.140024  L 0.673410 0.070471  C 0.572279 0.099588 0.472917 0.135838 0.369415 0.156610  Z" fill="white" stroke="white" stroke-width="0"/>
    <path d="M 0.379663 0.205866 C 0.485595 0.186389 0.587492 0.150838 0.691103 0.122636  L 0.679308 0.087859  C 0.577350 0.116672 0.477144 0.152689 0.372831 0.173028  Z" fill="black" stroke="black" stroke-width="0.005"/>
    <path d="M -2.595650 -1.247482 C -2.385971 -0.826875 -2.162816 -0.413235 -1.937618 -0.000810  L -1.806500 -0.074125  C -2.029833 -0.484703 -2.251291 -0.896408 -2.459171 -1.315102  Z" fill="black" stroke="black" stroke-width="0.005"/>
    <path d="M -2.740556 -0.159593 C -2.340436 -0.398862 -1.932642 -0.624865 -1.523929 -0.848993  L -1.665094 -1.114209  C -2.078943 -0.888996 -2.491685 -0.661574 -2.896902 -0.421035  Z" fill="white" stroke="white" stroke-width="0"/>
    <path d="M -2.779642 -0.224954 C -2.378248 -0.464539 -1.969218 -0.690898 -1.559221 -0.915297  L -1.629803 -1.047905  C -2.042368 -0.822964 -2.453872 -0.595895 -2.857815 -0.355674  Z" fill="black" stroke="black" stroke-width="0.005"/>
  </g>
  <g fill="none" stroke="black">
    <path d="M 1.2285 1.3655 C 0.9643 1.7899, 0.2473 2.0023, -0.2055 1.7903" stroke-width="0.305"/>
    <path d="M -3.5473 1.4077 C -3.2392 1.8015, -2.4761 1.988, -2.0211 1.7807" stroke-width="0.305"/>
    <path d="M -5.1475 0.4424 C -5.6396 0.3536, -5.9302 -0.1928, -5.7287 -0.6504" stroke-width="0.305"/>
    <path d="M -4.0892 -3.1578 C -4.551 -3.3494, -5.0911 -3.0471, -5.1693 -2.5533" stroke-width="0.305"/>
    <path d="M -2.2212 -3.1034 C -1.749 -3.2678, -1.0063 -3.0117, -0.7359 -2.5912" stroke-width="0.305"/>
    <path d="M 1.772 -0.4834 C 1.7796 -0.9833, 1.2916 -1.55, 0.796 -1.6167" stroke-width="0.305"/>
    <path d="M -0.424402 0.633384 C -0.348267 0.504405 -0.261328 0.382146 -0.177706 0.257967  L -0.237541 0.204208  C -0.348641 0.309043 -0.462861 0.410818 -0.569485 0.520478  Z" fill="black" stroke="black" stroke-width="0.005"/>
    <path d="M 0.310659 0.028039 C 0.346596 0.020460 0.375990 0.046209 0.407156 0.056265  L 0.430672 0.032348  C 0.392386 0.011391 0.360609 -0.030024 0.310659 -0.028039  Z" fill="black" stroke="black" stroke-width="0.005"/>
    <path d="M 0.618784 0.293741 C 0.633823 0.368544 0.710175 0.395398 0.756476 0.441803  L 0.781696 0.281109  C 0.742043 0.279105 0.688971 0.300266 0.647524 0.270881  Z" fill="black" stroke="black" stroke-width="0.005"/>
    <path d="M -1.117252 -1.351341 C -1.286973 -1.248315 -1.458644 -1.148519 -1.629803 -1.047905  L -1.559221 -0.915297  C -1.380342 -1.003541 -1.201107 -1.091088 -1.023005 -1.180919  Z" fill="black" stroke="black" stroke-width="0.005"/>
    <path d="M -2.857815 -0.355674 C -3.042655 -0.255385 -3.219918 -0.142074 -3.399164 -0.032332  L -3.286649 0.129176  C -3.118794 0.009550 -2.953056 -0.113234 -2.779642 -0.224954  Z" fill="black" stroke="black" stroke-width="0.005"/>
    <path d="M -4.3773 -1.8825 C -4.2541 -1.9237, -4.0313 -2.0484, -3.9317 -2.1319" stroke-width="0.194"/>
    <path d="M -0.197217 -0.745866 C -0.166902 -0.595949 -0.125931 -0.448553 -0.089239 -0.300271  L -0.009830 -0.313097  C -0.012947 -0.462774 -0.019892 -0.612633 -0.014114 -0.762295  Z" fill="black" stroke="black" stroke-width="0.005"/>
    <path d="M 0.246063 0.191699 C 0.286992 0.220400 0.336126 0.202769 0.379663 0.205866  L 0.372831 0.173028  C 0.341182 0.164618 0.302529 0.170364 0.276411 0.144542  Z" fill="black" stroke="black" stroke-width="0.005"/>
    <path d="M 0.691103 0.122636 C 0.741859 0.120356 0.775036 0.166871 0.809465 0.186645  L 0.875221 0.037867  C 0.811173 0.051833 0.732435 0.033096 0.679308 0.087859  Z" fill="black" stroke="black" stroke-width="0.005"/>
    <path d="M -1.499338 0.439426 C -1.600492 0.267502 -1.703834 0.096885 -1.806500 -0.074125  L -1.937618 -0.000810  C -1.848137 0.176424 -1.757784 0.353247 -1.670819 0.531731  Z" fill="black" stroke="black" stroke-width="0.005"/>
    <path d="M -2.459171 -1.315102 C -2.544537 -1.502895 -2.617461 -1.695838 -2.693873 -1.887272  L -2.875892 -1.812348  C -2.784552 -1.623062 -2.696810 -1.431847 -2.595650 -1.247482  Z" fill="black" stroke="black" stroke-width="0.005"/>
    <path d="M -4.6997 -0.7859 C -4.6184 -0.6845, -4.4985 -0.4591, -4.4599 -0.335" stroke-width="0.194"/>
  </g>
</svg>
