<?xml version="1.0" encoding="utf-8" ?>
<svg xmlns="http://www.w3.org/2000/svg" xmlns:ev="http://www.w3.org/2001/xml-events" xmlns:xlink="http://www.w3.org/1999/xlink" baseProfile="full" version="1.1" viewBox="-3.9352250814315797 -5.987099799063597 9.260398274537923 11.319295602551207">
  <defs/>
  <g stroke="none">
    <path d="M -0.788481 3.214490 C -0.800673 2.584096 -0.641175 1.968816 -0.406658 1.388727  L -0.584653 1.292396  C -0.871495 1.899184 -1.066029 2.548916 -1.088315 3.224456  Z" fill="black" stroke="black" stroke-width="0.005"/>
    <path d="M 0.023659 2.436917 C -0.559802 2.134316 -1.133468 1.813229 -1.688155 1.460697  L -1.987807 1.980514  C -1.377860 2.271971 -0.764067 2.558669 -0.129606 2.793292  Z" fill="white" stroke="white" stroke-width="0"/>
    <path d="M -0.014658 2.526011 C -0.611167 2.240468 -1.194227 1.927685 -1.763068 1.590652  L -1.912894 1.850560  C -1.316442 2.157045 -0.713291 2.452656 -0.091290 2.704198  Z" fill="black" stroke="black" stroke-width="0.005"/>
    <path d="M -2.279190 0.303719 C -2.087262 -0.282876 -1.713052 -0.767257 -1.257132 -1.173247  L -1.359781 -1.328084  C -1.886679 -0.919841 -2.324147 -0.409944 -2.567084 0.219358  Z" fill="black" stroke="black" stroke-width="0.005"/>
    <path d="M -1.143232 -0.502094 C -1.655292 -0.788181 -1.988687 -1.234599 -2.263187 -1.735075  L -2.813970 -1.497087  C -2.433302 -0.913650 -1.943960 -0.412540 -1.283949 -0.150671  Z" fill="white" stroke="white" stroke-width="0"/>
    <path d="M -1.178411 -0.414238 C -1.732722 -0.687924 -2.093572 -1.161349 -2.400883 -1.675578  L -2.676274 -1.556584  C -2.327507 -0.992383 -1.868135 -0.506539 -1.248769 -0.238527  Z" fill="black" stroke="black" stroke-width="0.005"/>
    <path d="M -2.012188 -2.946973 C -1.485562 -3.269007 -0.903770 -3.298937 -0.307825 -3.267926  L -0.261273 -3.442875  C -0.913958 -3.555508 -1.575382 -3.507828 -2.173961 -3.199618  Z" fill="black" stroke="black" stroke-width="0.005"/>
    <path d="M -0.730717 -4.517736 C -1.184131 -3.952564 -1.241186 -3.289981 -1.040829 -2.617372  L -0.697509 -2.759176  C -0.733731 -3.255169 -0.695887 -3.711369 -0.318348 -4.081901  Z" fill="white" stroke="white" stroke-width="0"/>
    <path d="M -0.627625 -4.408777 C -1.056287 -3.895919 -1.122187 -3.278191 -0.954999 -2.652823  L -0.783339 -2.723725  C -0.849318 -3.270492 -0.820632 -3.763145 -0.421440 -4.190860  Z" fill="black" stroke="black" stroke-width="0.005"/>
    <path d="M 0.527005 -4.029613 C 0.763678 -3.492477 0.633824 -3.009886 0.399808 -2.508098  L 0.545378 -2.384847  C 0.897223 -2.930257 1.030856 -3.541104 0.793621 -4.167150  Z" fill="black" stroke="black" stroke-width="0.005"/>
    <path d="M 0.107830 -3.105828 C 0.715192 -2.997168 1.257873 -2.719254 1.773126 -2.396144  L 2.112876 -2.890685  C 1.493472 -3.197885 0.832601 -3.432401 0.135590 -3.466836  Z" fill="white" stroke="white" stroke-width="0"/>
    <path d="M 0.114770 -3.196080 C 0.738705 -3.097254 1.324683 -2.851523 1.858064 -2.519779  L 2.027938 -2.767050  C 1.436721 -3.081491 0.801600 -3.321068 0.128650 -3.376584  Z" fill="black" stroke="black" stroke-width="0.005"/>
    <path d="M 2.488535 -1.105144 C 2.428541 -0.436262 2.408223 0.235509 2.419635 0.906730  L 2.613594 0.904922  C 2.642191 0.245965 2.686782 -0.413605 2.785990 -1.066152  Z" fill="black" stroke="black" stroke-width="0.005"/>
    <path d="M 3.541309 0.050111 C 2.884755 -0.187392 2.188779 -0.261827 1.495474 -0.233947  L 1.523714 0.181363  C 2.131010 0.222774 2.737469 0.332802 3.291155 0.595476  Z" fill="white" stroke="white" stroke-width="0"/>
    <path d="M 3.478770 0.186452 C 2.847867 -0.056618 2.174330 -0.141129 1.502534 -0.130119  L 1.516654 0.077536  C 2.144953 0.101113 2.774913 0.202718 3.353693 0.459134  Z" fill="black" stroke="black" stroke-width="0.005"/>
    <path d="M 3.605738 1.450289 C 3.222607 1.945667 2.706561 2.309113 2.153139 2.589830  L 2.219156 2.772217  C 2.834336 2.507171 3.403002 2.140135 3.845881 1.630098  Z" fill="black" stroke="black" stroke-width="0.005"/>
    <path d="M 2.485699 1.548795 C 2.716021 2.113391 2.754822 2.709459 2.735756 3.308845  L 3.333213 3.364021  C 3.298408 2.671251 3.167375 1.980549 2.828222 1.366665  Z" fill="white" stroke="white" stroke-width="0"/>
    <path d="M 2.571330 1.503262 C 2.819096 2.078081 2.906709 2.701439 2.885120 3.322639  L 3.183849 3.350227  C 3.166859 2.681394 3.051776 2.013060 2.742591 1.412198  Z" fill="black" stroke="black" stroke-width="0.005"/>
    <path d="M 2.033605 3.889063 C 1.439216 3.691858 0.925224 3.325512 0.476889 2.896475  L 0.326709 3.019231  C 0.780736 3.511729 1.315562 3.926528 1.943592 4.175241  Z" fill="black" stroke="black" stroke-width="0.005"/>
    <path d="M 0.137771 4.266492 C 0.798194 4.031895 1.367719 3.623710 1.854697 3.127804  L 1.569300 2.865046  C 1.088970 3.221511 0.587039 3.555323 -0.008273 3.684537  Z" fill="white" stroke="white" stroke-width="0"/>
    <path d="M 0.101260 4.121003 C 0.742834 3.909667 1.301135 3.527050 1.783348 3.062114  L 1.640650 2.930735  C 1.167852 3.332655 0.633198 3.668129 0.028238 3.830026  Z" fill="black" stroke="black" stroke-width="0.005"/>
    <path d="M 0.735359 -0.084219 C 0.252674 -0.084990 -0.224675 -0.158245 -0.698517 -0.241701  L -0.732875 -0.096123  C -0.248144 -0.003677 0.240337 0.076781 0.735359 0.084219  Z" fill="black" stroke="black" stroke-width="0.005"/>
    <path d="M -0.068329 0.750035 C 0.073640 0.261574 0.082826 -0.243934 0.067859 -0.747120  L -0.227313 -0.714928  C -0.224129 -0.255085 -0.241477 0.207494 -0.378347 0.651211  Z" fill="white" stroke="white" stroke-width="0"/>
    <path d="M -0.145834 0.725329 C -0.005215 0.248038 0.006128 -0.246713 -0.005934 -0.739072  L -0.153520 -0.722976  C -0.147347 -0.252288 -0.162777 0.220996 -0.300843 0.675917  Z" fill="black" stroke="black" stroke-width="0.005"/>
    <path d="M -0.718096 -2.229838 C -0.538866 -1.898192 -0.396955 -1.548953 -0.253503 -1.201076  L -0.137485 -1.243956  C -0.281389 -1.597978 -0.430396 -1.950533 -0.611480 -2.287600  Z" fill="black" stroke="black" stroke-width="0.005"/>
    <path d="M 0.002118 -2.187279 C -0.304059 -1.971332 -0.630108 -1.786653 -0.954629 -1.600480  L -0.842152 -1.385524  C -0.505499 -1.571665 -0.171015 -1.762584 0.146668 -1.980199  Z" fill="white" stroke="white" stroke-width="0"/>
    <path d="M 0.038256 -2.135509 C -0.270571 -1.918750 -0.599271 -1.733451 -0.926510 -1.546741  L -0.870271 -1.439263  C -0.536353 -1.624907 -0.204497 -1.815144 0.110531 -2.031969  Z" fill="black" stroke="black" stroke-width="0.005"/>
  </g>
  <g fill="none" stroke="black">
    <path d="M 0.0647 3.9755 C -0.4202 4.0972, -0.9218 3.7192, -0.9384 3.2195" stroke-width="0.305"/>
    <path d="M -2.4231 0.2615 C -2.5637 0.7414, -2.2712 1.4709, -1.838 1.7206" stroke-width="0.305"/>
    <path d="M -2.0931 -3.0733 C -2.5141 -2.8037, -2.7369 -2.0751, -2.5386 -1.6161" stroke-width="0.305"/>
    <path d="M -0.5245 -4.2998 C -0.1613 -4.6435, 0.4311 -4.5427, 0.6603 -4.0984" stroke-width="0.305"/>
    <path d="M 2.6373 -1.0856 C 2.7022 -1.5814, 2.3551 -2.3603, 1.943 -2.6434" stroke-width="0.305"/>
    <path d="M 3.4162 0.3228 C 3.8707 0.5313, 4.0255 1.14, 3.7258 1.5402" stroke-width="0.305"/>
    <path d="M 1.9886 4.0322 C 2.4656 4.1822, 2.9885 3.8343, 3.0345 3.3364" stroke-width="0.305"/>
    <path d="M -0.053 2.6151 C 0.0817 2.673, 0.309 2.8444, 0.4018 2.9579" stroke-width="0.199"/>
    <path d="M 2.657 1.4577 C 2.5882 1.3283, 2.518 1.0524, 2.5166 0.9058" stroke-width="0.199"/>
    <path d="M 0.1217 -3.2863 C 0.0186 -3.2943, -0.1846 -3.3288, -0.2845 -3.3554" stroke-width="0.186"/>
    <path d="M -1.248769 -0.238527 C -1.080837 -0.176744 -0.905764 -0.139845 -0.732875 -0.096123  L -0.698517 -0.241701  C -0.859384 -0.296412 -1.023819 -0.342398 -1.178411 -0.414238  Z" fill="black" stroke="black" stroke-width="0.005"/>
    <path d="M 0.735359 0.084219 C 0.995800 0.091935 1.256284 0.083090 1.516654 0.077536  L 1.502534 -0.130119  C 1.247032 -0.111568 0.991606 -0.090669 0.735359 -0.084219  Z" fill="black" stroke="black" stroke-width="0.005"/>
    <path d="M 2.1861 2.681 C 2.0483 2.7309, 1.8113 2.8886, 1.712 2.9964" stroke-width="0.199"/>
    <path d="M -0.406658 1.388727 C -0.297790 1.176395 -0.224839 0.949402 -0.145834 0.725329  L -0.300843 0.675917  C -0.388197 0.884557 -0.469295 1.096830 -0.584653 1.292396  Z" fill="black" stroke="black" stroke-width="0.005"/>
    <path d="M -0.005934 -0.739072 C -0.026401 -0.913212 -0.087559 -1.077470 -0.137485 -1.243956  L -0.253503 -1.201076  C -0.215898 -1.042852 -0.163601 -0.886804 -0.153520 -0.722976  Z" fill="black" stroke="black" stroke-width="0.005"/>
    <path d="M -0.611480 -2.287600 C -0.677361 -2.429574 -0.727447 -2.577901 -0.783339 -2.723725  L -0.954999 -2.652823  C -0.877948 -2.510810 -0.806266 -2.365519 -0.718096 -2.229838  Z" fill="black" stroke="black" stroke-width="0.005"/>
    <path d="M 0.399808 -2.508098 C 0.298132 -2.366374 0.163458 -2.254849 0.038256 -2.135509  L 0.110531 -2.031969  C 0.259775 -2.143876 0.417704 -2.246249 0.545378 -2.384847  Z" fill="black" stroke="black" stroke-width="0.005"/>
    <path d="M -0.926510 -1.546741 C -1.075539 -1.483286 -1.216366 -1.402864 -1.359781 -1.328084  L -1.257132 -1.173247  C -1.129069 -1.263054 -1.004384 -1.358115 -0.870271 -1.439263  Z" fill="black" stroke="black" stroke-width="0.005"/>
  </g>
</svg>
