<?xml version="1.0" encoding="utf-8" ?>
<svg xmlns="http://www.w3.org/2000/svg" xmlns:ev="http://www.w3.org/2001/xml-events" xmlns:xlink="http://www.w3.org/1999/xlink" baseProfile="full" version="1.1" viewBox="-4.774717666729826 -4.744680151247884 8.302068546671359 8.128212141191318">
  <defs/>
  <g stroke="none">
    <path d="M 0.494307 0.559358 C 1.146689 0.699029 1.694443 0.431072 2.132368 -0.034650  L 1.876640 -0.191505  C 1.505359 0.205510 1.112747 0.460720 0.538978 0.394946  Z" fill="black" stroke="black" stroke-width="0.005"/>
    <path d="M 1.158929 1.732247 C 1.476074 1.076499 1.306715 0.470559 0.826531 -0.035619  L 0.604726 0.228704  C 0.820481 0.619563 0.934779 0.983808 0.665674 1.390634  Z" fill="white" stroke="white" stroke-width="0"/>
    <path d="M 1.035615 1.646844 C 1.336497 1.059809 1.190526 0.501412 0.771079 0.030461  L 0.660177 0.162623  C 0.933356 0.596278 1.067964 0.994290 0.788987 1.476037  Z" fill="black" stroke="black" stroke-width="0.005"/>
    <path d="M -0.455454 1.763002 C -1.008729 1.448448 -1.472774 1.005489 -1.878719 0.520450  L -2.037492 0.627025  C -1.639831 1.168450 -1.168554 1.656274 -0.602380 2.024561  Z" fill="black" stroke="black" stroke-width="0.005"/>
    <path d="M -0.887915 0.524663 C -1.328505 0.922195 -1.865260 1.112908 -2.431255 1.236336  L -2.353394 1.831263  C -1.687036 1.630506 -1.061368 1.311791 -0.600436 0.774930  Z" fill="white" stroke="white" stroke-width="0"/>
    <path d="M -0.816045 0.587230 C -1.257814 1.025907 -1.824970 1.234867 -2.411789 1.385068  L -2.372859 1.682531  C -1.731471 1.506339 -1.127510 1.211064 -0.672306 0.712363  Z" fill="black" stroke="black" stroke-width="0.005"/>
    <path d="M -3.139629 0.682320 C -3.059781 0.072555 -2.779098 -0.467642 -2.400616 -0.943545  L -2.531746 -1.082729  C -2.979649 -0.589468 -3.318572 -0.010230 -3.438274 0.653844  Z" fill="black" stroke="black" stroke-width="0.005"/>
    <path d="M -3.771453 -1.197224 C -3.496355 -0.546429 -3.018884 -0.034649 -2.445649 0.362877  L -2.243765 0.038051  C -2.656092 -0.366861 -3.037528 -0.799923 -3.197299 -1.371429  Z" fill="white" stroke="white" stroke-width="0"/>
    <path d="M -3.627914 -1.240775 C -3.378966 -0.613600 -2.931960 -0.113029 -2.395178 0.281670  L -2.294236 0.119257  C -2.759534 -0.272188 -3.141717 -0.746036 -3.340837 -1.327878  Z" fill="black" stroke="black" stroke-width="0.005"/>
    <path d="M -2.766724 -2.160943 C -2.152821 -2.181634 -1.575972 -1.991005 -1.047363 -1.692205  L -0.931018 -1.842289  C -1.487810 -2.207646 -2.112956 -2.450173 -2.787524 -2.460221  Z" fill="black" stroke="black" stroke-width="0.005"/>
    <path d="M -1.984486 -1.382639 C -1.696312 -1.939089 -1.284924 -2.406608 -0.843820 -2.842999  L -1.253250 -3.281597  C -1.695835 -2.752682 -2.091917 -2.177558 -2.337980 -1.528622  Z" fill="white" stroke="white" stroke-width="0"/>
    <path d="M -2.072860 -1.419135 C -1.788912 -1.992311 -1.396648 -2.502006 -0.946178 -2.952649  L -1.150892 -3.171947  C -1.595517 -2.668571 -1.991172 -2.116147 -2.249607 -1.492126  Z" fill="black" stroke="black" stroke-width="0.005"/>
    <path d="M 0.375621 -3.008454 C 0.776422 -2.635333 0.743366 -2.238911 0.578250 -1.766510  L 0.709139 -1.665595  C 1.014335 -2.210377 1.016704 -2.772562 0.561122 -3.244227  Z" fill="black" stroke="black" stroke-width="0.005"/>
    <path d="M 2.122191 -1.927713 C 1.578686 -2.407637 0.944478 -2.426013 0.314063 -2.129893  L 0.484404 -1.849013  C 0.936692 -1.930700 1.336307 -1.927136 1.659442 -1.545792  Z" fill="white" stroke="white" stroke-width="0"/>
    <path d="M 2.006504 -1.832233 C 1.522700 -2.281224 0.938300 -2.309256 0.356649 -2.059673  L 0.441819 -1.919233  C 0.948837 -2.042099 1.384629 -2.048727 1.775129 -1.641272  Z" fill="black" stroke="black" stroke-width="0.005"/>
    <path d="M 0.450391 -0.045043 C 0.139333 -0.042846 -0.121722 0.096448 -0.387396 0.236007  L -0.320531 0.320991  C -0.077219 0.187333 0.163202 0.054962 0.450391 0.045043  Z" fill="black" stroke="black" stroke-width="0.005"/>
    <path d="M 0.362482 0.281409 C 0.184465 0.063316 0.101231 -0.199506 0.017269 -0.461564  L -0.184007 -0.423652  C -0.080729 -0.132249 0.019335 0.160547 0.230019 0.397083  Z" fill="white" stroke="white" stroke-width="0"/>
    <path d="M 0.329366 0.310327 C 0.143144 0.087660 0.055767 -0.182716 -0.033050 -0.452086  L -0.133688 -0.433130  C -0.035216 -0.149088 0.060582 0.136274 0.263135 0.368165  Z" fill="black" stroke="black" stroke-width="0.005"/>
    <path d="M -0.110413 -0.907325 C -0.145165 -1.154672 -0.045091 -1.368344 0.035579 -1.591588  L -0.022787 -1.629985  C -0.118387 -1.391162 -0.233161 -1.164756 -0.202726 -0.895224  Z" fill="black" stroke="black" stroke-width="0.005"/>
    <path d="M 0.147178 -1.460478 C -0.084119 -1.409544 -0.286181 -1.493712 -0.498789 -1.560826  L -0.594172 -1.389250  C -0.333073 -1.325666 -0.087147 -1.238588 0.185789 -1.324793  Z" fill="white" stroke="white" stroke-width="0"/>
    <path d="M 0.156830 -1.426556 C -0.084807 -1.366805 -0.297939 -1.451753 -0.522635 -1.517932  L -0.570326 -1.432144  C -0.321392 -1.367726 -0.086322 -1.281331 0.176136 -1.358714  Z" fill="black" stroke="black" stroke-width="0.005"/>
    <path d="M 0.327772 -1.664517 C 0.361007 -1.597850 0.304103 -1.541720 0.289528 -1.485474  L 0.311344 -1.465559  C 0.325897 -1.530712 0.389729 -1.596770 0.347443 -1.671893  Z" fill="black" stroke="black" stroke-width="0.005"/>
    <path d="M 0.474723 -1.630758 C 0.414729 -1.596020 0.352340 -1.636695 0.294579 -1.642403  L 0.271144 -1.607935  C 0.343309 -1.592592 0.415797 -1.531724 0.497201 -1.569702  Z" fill="white" stroke="white" stroke-width="0"/>
    <path d="M 0.480343 -1.615494 C 0.415009 -1.580146 0.350056 -1.625708 0.288721 -1.633786  L 0.277003 -1.616552  C 0.345540 -1.603654 0.415559 -1.547973 0.491582 -1.584966  Z" fill="black" stroke="black" stroke-width="0.005"/>
    <path d="M 0.256749 -1.865996 C 0.209717 -1.801024 0.246313 -1.724631 0.245069 -1.657204  L 0.263776 -1.664505  C 0.268034 -1.724644 0.239279 -1.794629 0.283281 -1.850460  Z" fill="black" stroke="black" stroke-width="0.005"/>
    <path d="M 0.130473 -1.686914 C 0.183065 -1.726765 0.243830 -1.689489 0.296880 -1.687748  L 0.318387 -1.722065  C 0.250101 -1.729910 0.176453 -1.785240 0.104112 -1.736565  Z" fill="white" stroke="white" stroke-width="0"/>
    <path d="M 0.123883 -1.699327 C 0.181396 -1.741275 0.245432 -1.699568 0.302257 -1.696327  L 0.313010 -1.713486  C 0.248566 -1.719780 0.178084 -1.770527 0.110702 -1.724152  Z" fill="black" stroke="black" stroke-width="0.005"/>
  </g>
  <g fill="none" stroke="black">
    <path d="M 2.0045 -0.1131 C 2.2659 -0.5393, 2.2091 -1.3511, 1.8908 -1.7368" stroke-width="0.305"/>
    <path d="M 0.9123 1.5614 C 0.6276 1.9725, -0.093 2.1387, -0.5289 1.8938" stroke-width="0.305"/>
    <path d="M -3.289 0.6681 C -3.3364 1.1658, -2.8881 1.5987, -2.3923 1.5338" stroke-width="0.305"/>
    <path d="M -3.4844 -1.2843 C -3.6295 -1.7628, -3.2759 -2.2759, -2.7771 -2.3106" stroke-width="0.305"/>
    <path d="M 0.4684 -3.1263 C 0.0754 -3.4355, -0.683 -3.4035, -1.0485 -3.0623" stroke-width="0.305"/>
    <path d="M -2.1612 -1.4556 C -2.2137 -1.3286, -2.3662 -1.1074, -2.4662 -1.0131" stroke-width="0.1962"/>
    <path d="M -0.672306 0.712363 C -0.569769 0.569219 -0.441496 0.447920 -0.320531 0.320991  L -0.387396 0.236007  C -0.533309 0.349098 -0.685443 0.455278 -0.816045 0.587230  Z" fill="black" stroke="black" stroke-width="0.005"/>
    <path d="M 0.450391 0.045043 C 0.536680 0.052049 0.593439 0.123354 0.660177 0.162623  L 0.771079 0.030461  C 0.667130 0.002648 0.567131 -0.073290 0.450391 -0.045043  Z" fill="black" stroke="black" stroke-width="0.005"/>
    <path d="M -1.9581 0.5737 C -2.0347 0.4596, -2.228 0.273, -2.3447 0.2005" stroke-width="0.1962"/>
    <path d="M -1.047363 -1.692205 C -0.895608 -1.592241 -0.731078 -1.515357 -0.570326 -1.432144  L -0.522635 -1.517932  C -0.661295 -1.622689 -0.805032 -1.721927 -0.931018 -1.842289  Z" fill="black" stroke="black" stroke-width="0.005"/>
    <path d="M 0.176136 -1.358714 C 0.234026 -1.376881 0.267802 -1.429509 0.311344 -1.465559  L 0.289528 -1.485474  C 0.246239 -1.465096 0.207529 -1.429169 0.156830 -1.426556  Z" fill="black" stroke="black" stroke-width="0.005"/>
    <path d="M 0.347443 -1.671893 C 0.342365 -1.690618 0.324655 -1.700190 0.313010 -1.713486  L 0.302257 -1.696327  C 0.310824 -1.686099 0.323843 -1.678443 0.327772 -1.664517  Z" fill="black" stroke="black" stroke-width="0.005"/>
    <path d="M 0.110702 -1.724152 C 0.055945 -1.708707 0.020562 -1.661985 -0.022787 -1.629985  L 0.035579 -1.591588  C 0.063955 -1.627322 0.083135 -1.673270 0.123883 -1.699327  Z" fill="black" stroke="black" stroke-width="0.005"/>
    <path d="M -0.202726 -0.895224 C -0.184905 -0.740442 -0.157685 -0.587000 -0.133688 -0.433130  L -0.033050 -0.452086  C -0.059712 -0.603666 -0.089586 -0.754750 -0.110413 -0.907325  Z" fill="black" stroke="black" stroke-width="0.005"/>
    <path d="M 0.263135 0.368165 C 0.312307 0.462658 0.416801 0.498533 0.494307 0.559358  L 0.538978 0.394946  C 0.470537 0.368634 0.387715 0.364485 0.329366 0.310327  Z" fill="black" stroke="black" stroke-width="0.005"/>
    <path d="M 0.356649 -2.059673 C 0.299512 -2.008375 0.287912 -1.930120 0.256749 -1.865996  L 0.283281 -1.850460  C 0.334896 -1.874724 0.381656 -1.919253 0.441819 -1.919233  Z" fill="black" stroke="black" stroke-width="0.005"/>
    <path d="M 0.245069 -1.657204 C 0.249983 -1.639515 0.266188 -1.629621 0.277003 -1.616552  L 0.288721 -1.633786  C 0.280350 -1.643697 0.268053 -1.651267 0.263776 -1.664505  Z" fill="black" stroke="black" stroke-width="0.005"/>
    <path d="M 0.491582 -1.584966 C 0.574068 -1.579722 0.638461 -1.637195 0.709139 -1.665595  L 0.578250 -1.766510  C 0.547987 -1.718036 0.532951 -1.651909 0.480343 -1.615494  Z" fill="black" stroke="black" stroke-width="0.005"/>
  </g>
</svg>
