<?xml version="1.0" encoding="utf-8" ?>
<svg xmlns="http://www.w3.org/2000/svg" xmlns:ev="http://www.w3.org/2001/xml-events" xmlns:xlink="http://www.w3.org/1999/xlink" baseProfile="full" version="1.1" viewBox="-4.7465557358506185 -4.6269978430150855 10.255071852943889 8.861473424510997">
  <defs/>
  <g stroke="none">
    <path d="M 0.959202 -1.520810 C 1.105198 -2.119169 1.482638 -2.554939 1.928777 -2.950287  L 1.763299 -3.200520  C 1.274078 -2.755680 0.892700 -2.211907 0.773713 -1.548083  Z" fill="black" stroke="black" stroke-width="0.005"/>
    <path d="M 1.977769 -2.203051 C 1.384767 -2.559440 0.724283 -2.779425 0.055754 -2.943017  L -0.017103 -2.347457  C 0.605561 -2.276490 1.216762 -2.120028 1.794019 -1.872602  Z" fill="white" stroke="white" stroke-width="0"/>
    <path d="M 1.931832 -2.120438 C 1.342718 -2.450220 0.694460 -2.652506 0.037540 -2.794127  L 0.001111 -2.496347  C 0.635160 -2.400925 1.258682 -2.230579 1.839956 -1.955214  Z" fill="black" stroke="black" stroke-width="0.005"/>
    <path d="M 4.058731 -1.013367 C 3.623752 -1.528016 3.030367 -1.825111 2.383850 -1.971127  L 2.359232 -1.783686  C 2.921873 -1.586848 3.447976 -1.338583 3.812811 -0.841544  Z" fill="black" stroke="black" stroke-width="0.005"/>
    <path d="M 3.067072 -0.773458 C 3.396929 -1.404695 3.423114 -2.102608 3.303560 -2.789525  L 2.739617 -2.584662  C 2.877166 -2.038278 2.929299 -1.494663 2.732033 -0.948698  Z" fill="white" stroke="white" stroke-width="0"/>
    <path d="M 2.983312 -0.817268 C 3.277247 -1.424436 3.291753 -2.089352 3.162574 -2.738309  L 2.880603 -2.635878  C 3.004457 -2.051776 3.050313 -1.475091 2.815793 -0.904888  Z" fill="black" stroke="black" stroke-width="0.005"/>
    <path d="M 2.657600 -0.381396 C 2.548724 0.252522 2.329632 0.860630 2.043184 1.434277  L 2.307775 1.575669  C 2.569571 0.956748 2.776752 0.310037 2.845609 -0.361580  Z" fill="black" stroke="black" stroke-width="0.005"/>
    <path d="M 1.669318 0.340677 C 2.305771 0.660940 3.003443 0.672611 3.687260 0.536900  L 3.468042 -0.021619  C 2.926511 0.129160 2.386371 0.193027 1.837969 0.005779  Z" fill="white" stroke="white" stroke-width="0"/>
    <path d="M 1.711481 0.256952 C 2.323038 0.541238 2.987221 0.541813 3.632455 0.397271  L 3.522846 0.118011  C 2.942876 0.255757 2.369327 0.314053 1.795806 0.089503  Z" fill="black" stroke="black" stroke-width="0.005"/>
    <path d="M -0.239322 1.085401 C -0.374493 1.686500 -0.743085 2.132026 -1.179386 2.539016  L -1.007644 2.784993  C -0.527733 2.328873 -0.156437 1.776739 -0.046506 1.110815  Z" fill="black" stroke="black" stroke-width="0.005"/>
    <path d="M -1.248710 1.798661 C -0.649076 2.137729 0.007474 2.358744 0.670680 2.534902  L 0.759903 1.941573  C 0.131218 1.857803 -0.486093 1.699141 -1.076111 1.463893  Z" fill="white" stroke="white" stroke-width="0"/>
    <path d="M -1.205560 1.714969 C -0.608252 2.028646 0.038511 2.232474 0.692986 2.386570  L 0.737597 2.089906  C 0.100329 1.981921 -0.526730 1.809396 -1.119260 1.547585  Z" fill="black" stroke="black" stroke-width="0.005"/>
    <path d="M -3.316374 0.621175 C -2.891344 1.143575 -2.300927 1.439725 -1.654095 1.578355  L -1.632436 1.391283  C -2.192813 1.200315 -2.712460 0.955978 -3.066811 0.454686  Z" fill="black" stroke="black" stroke-width="0.005"/>
    <path d="M -2.325153 0.401070 C -2.663900 1.029368 -2.685921 1.725491 -2.554735 2.410619  L -1.995334 2.193662  C -2.140133 1.654977 -2.195157 1.120378 -1.994119 0.580726  Z" fill="white" stroke="white" stroke-width="0"/>
    <path d="M -2.242395 0.445984 C -2.543955 1.049072 -2.554666 1.710990 -2.414885 2.356379  L -2.135184 2.247901  C -2.267025 1.669651 -2.316487 1.100924 -2.076877 0.535812  Z" fill="black" stroke="black" stroke-width="0.005"/>
    <path d="M -1.909734 0.026065 C -1.783297 -0.609270 -1.563954 -1.221526 -1.285934 -1.805029  L -1.554316 -1.939084  C -1.804500 -1.314991 -2.009558 -0.668618 -2.096304 0.000445  Z" fill="black" stroke="black" stroke-width="0.005"/>
    <path d="M -0.890592 -0.686759 C -1.523525 -1.014808 -2.222021 -1.039420 -2.909291 -0.917633  L -2.704240 -0.353759  C -2.158321 -0.489306 -1.615237 -0.540445 -1.070708 -0.342008  Z" fill="white" stroke="white" stroke-width="0"/>
    <path d="M -0.935621 -0.600571 C -1.543689 -0.893474 -2.208917 -0.907105 -2.858028 -0.776665  L -2.755503 -0.494728  C -2.171662 -0.617731 -1.595219 -0.663178 -1.025679 -0.428196  Z" fill="black" stroke="black" stroke-width="0.005"/>
    <path d="M 0.514259 -0.049422 C 0.181973 -0.056670 -0.122743 -0.176026 -0.426989 -0.292986  L -0.483548 -0.185315  C -0.160053 -0.068975 0.163525 0.051467 0.514259 0.049422  Z" fill="black" stroke="black" stroke-width="0.005"/>
    <path d="M 0.054550 0.525622 C 0.091224 0.204661 0.236189 -0.079723 0.376530 -0.363947  L 0.214780 -0.477600  C 0.043178 -0.169269 -0.130836 0.138573 -0.186679 0.494374  Z" fill="white" stroke="white" stroke-width="0"/>
    <path d="M -0.005757 0.517810 C 0.035844 0.188161 0.187924 -0.102101 0.336093 -0.392360  L 0.255217 -0.449187  C 0.091420 -0.146875 -0.075194 0.155120 -0.126372 0.502186  Z" fill="black" stroke="black" stroke-width="0.005"/>
    <path d="M 1.323309 -0.084543 C 1.153406 -0.157687 1.022020 -0.287306 0.880848 -0.401128  L 0.842633 -0.366927  C 0.984071 -0.240410 1.114380 -0.098209 1.288276 -0.012601  Z" fill="black" stroke="black" stroke-width="0.005"/>
    <path d="M 0.981275 -0.452985 C 0.993478 -0.283508 0.848522 -0.223204 0.765456 -0.117142  L 0.817273 0.000425  C 0.950398 -0.144724 1.096218 -0.229638 1.090223 -0.458794  Z" fill="white" stroke="white" stroke-width="0"/>
    <path d="M 1.008512 -0.454437 C 1.014870 -0.269835 0.877721 -0.204087 0.778410 -0.087750  L 0.804319 -0.028966  C 0.919164 -0.166417 1.074972 -0.241202 1.062986 -0.457342  Z" fill="black" stroke="black" stroke-width="0.005"/>
    <path d="M 0.519317 -0.586457 C 0.677258 -0.682079 0.801584 -0.593905 0.951635 -0.563916  L 0.985329 -0.606817  C 0.810661 -0.646456 0.673146 -0.750584 0.486115 -0.641451  Z" fill="black" stroke="black" stroke-width="0.005"/>
    <path d="M 0.711456 -1.053187 C 0.685304 -0.856487 0.732314 -0.664914 0.759689 -0.472699  L 0.859597 -0.495910  C 0.852686 -0.673094 0.827494 -0.851990 0.869466 -1.027797  Z" fill="white" stroke="white" stroke-width="0"/>
    <path d="M 0.750959 -1.046840 C 0.721029 -0.855339 0.762464 -0.666965 0.784666 -0.478502  L 0.834620 -0.490107  C 0.822652 -0.671054 0.792131 -0.853076 0.829964 -1.034145  Z" fill="black" stroke="black" stroke-width="0.005"/>
  </g>
  <g fill="none" stroke="black">
    <path d="M -1.4201 -1.8721 C -1.1967 -2.3194, -0.477 -2.706, 0.0193 -2.6452" stroke-width="0.305"/>
    <path d="M 1.846 -3.0754 C 2.2631 -3.3512, 2.8509 -3.157, 3.0216 -2.6871" stroke-width="0.305"/>
    <path d="M 3.9358 -0.9275 C 4.2221 -0.5176, 4.0431 0.075, 3.5777 0.2576" stroke-width="0.305"/>
    <path d="M 2.1755 1.505 C 1.9398 1.946, 1.2097 2.3126, 0.7153 2.2382" stroke-width="0.305"/>
    <path d="M -1.0935 2.662 C -1.5035 2.9482, -2.0942 2.7683, -2.275 2.3021" stroke-width="0.305"/>
    <path d="M -3.1916 0.5379 C -3.4691 0.122, -3.2767 -0.4648, -2.8068 -0.6357" stroke-width="0.305"/>
    <path d="M -1.1624 1.6313 C -1.2759 1.5727, -1.5164 1.4995, -1.6433 1.4848" stroke-width="0.1933"/>
    <path d="M -1.025679 -0.428196 C -0.844621 -0.348042 -0.664124 -0.266547 -0.483548 -0.185315  L -0.426989 -0.292986  C -0.596612 -0.395361 -0.766277 -0.497728 -0.935621 -0.600571  Z" fill="black" stroke="black" stroke-width="0.005"/>
    <path d="M 0.514259 0.049422 C 0.617361 0.050077 0.708910 -0.001540 0.804319 -0.028966  L 0.778410 -0.087750  C 0.691183 -0.073680 0.604899 -0.038092 0.514259 -0.049422  Z" fill="black" stroke="black" stroke-width="0.005"/>
    <path d="M 1.062986 -0.457342 C 1.067455 -0.521128 1.012272 -0.559356 0.985329 -0.606817  L 0.951635 -0.563916  C 0.970996 -0.529087 1.010318 -0.500248 1.008512 -0.454437  Z" fill="black" stroke="black" stroke-width="0.005"/>
    <path d="M 0.486115 -0.641451 C 0.391991 -0.599452 0.330515 -0.514088 0.255217 -0.449187  L 0.336093 -0.392360  C 0.395718 -0.457247 0.441586 -0.538386 0.519317 -0.586457  Z" fill="black" stroke="black" stroke-width="0.005"/>
    <path d="M -0.126372 0.502186 C -0.164389 0.696511 -0.201844 0.890974 -0.239322 1.085401  L -0.046506 1.110815  C -0.032622 0.913178 -0.018465 0.715527 -0.005757 0.517810  Z" fill="black" stroke="black" stroke-width="0.005"/>
    <path d="M -2.1596 0.4909 C -2.0987 0.3786, -2.0204 0.1398, -2.003 0.0133" stroke-width="0.1933"/>
    <path d="M 1.8859 -2.0378 C 1.9997 -1.9746, 2.2425 -1.8944, 2.3715 -1.8774" stroke-width="0.1941"/>
    <path d="M 1.795806 0.089503 C 1.638520 0.030960 1.480680 -0.026292 1.323309 -0.084543  L 1.288276 -0.012601  C 1.429732 0.076584 1.571607 0.165311 1.711481 0.256952  Z" fill="black" stroke="black" stroke-width="0.005"/>
    <path d="M 0.880848 -0.401128 C 0.856192 -0.425530 0.849368 -0.460540 0.834620 -0.490107  L 0.784666 -0.478502  C 0.803002 -0.441342 0.810957 -0.397131 0.842633 -0.366927  Z" fill="black" stroke="black" stroke-width="0.005"/>
    <path d="M 0.829964 -1.034145 C 0.875105 -1.195773 0.916870 -1.358420 0.959202 -1.520810  L 0.773713 -1.548083  C 0.765857 -1.381054 0.759093 -1.213878 0.750959 -1.046840  Z" fill="black" stroke="black" stroke-width="0.005"/>
    <path d="M 2.8996 -0.8611 C 2.8392 -0.7457, 2.7652 -0.5009, 2.7516 -0.3715" stroke-width="0.1941"/>
  </g>
</svg>
