<?xml version="1.0" encoding="utf-8" ?>
<svg xmlns="http://www.w3.org/2000/svg" xmlns:ev="http://www.w3.org/2001/xml-events" xmlns:xlink="http://www.w3.org/1999/xlink" baseProfile="full" version="1.1" viewBox="-5.6075932252646075 -3.8245541021373004 9.771726271226175 9.930013441025707">
  <defs/>
  <g stroke="none">
    <path d="M 2.892948 0.524806 C 2.580118 -0.073195 2.161547 -0.606194 1.689140 -1.084771  L 1.562957 -0.953160  C 1.981027 -0.467712 2.359046 0.058608 2.619070 0.647244  Z" fill="black" stroke="black" stroke-width="0.005"/>
    <path d="M 1.428650 0.112993 C 2.126478 -0.084350 2.573583 -0.596913 2.862687 -1.235185  L 2.277702 -1.368571  C 2.090022 -0.885294 1.825548 -0.488057 1.330580 -0.266984  Z" fill="white" stroke="white" stroke-width="0"/>
    <path d="M 1.404132 0.017999 C 2.046141 -0.183241 2.460107 -0.669102 2.716441 -1.268531  L 2.423948 -1.335224  C 2.198851 -0.816408 1.907887 -0.388788 1.355097 -0.171989  Z" fill="black" stroke="black" stroke-width="0.005"/>
    <path d="M 1.036994 2.739891 C 1.529936 3.070929 1.721710 3.551285 1.829480 4.106465  L 2.129474 4.104497  C 2.008608 3.463861 1.709309 2.900081 1.125893 2.564971  Z" fill="black" stroke="black" stroke-width="0.005"/>
    <path d="M 1.213474 3.781142 C 1.817255 3.443939 2.335654 2.979601 2.809508 2.480909  L 2.327543 2.123545  C 1.960207 2.632008 1.523030 3.087571 1.023894 3.469641  Z" fill="white" stroke="white" stroke-width="0"/>
    <path d="M 1.166079 3.703267 C 1.744302 3.355098 2.240751 2.891948 2.689017 2.391568  L 2.448034 2.212886  C 2.052886 2.718154 1.597265 3.176913 1.071289 3.547516  Z" fill="black" stroke="black" stroke-width="0.005"/>
    <path d="M -0.920391 4.838325 C -0.258164 4.709526 0.330308 4.381225 0.842000 3.952353  L 0.715879 3.820682  C 0.219614 4.180750 -0.338678 4.460294 -0.953694 4.540180  Z" fill="black" stroke="black" stroke-width="0.005"/>
    <path d="M -0.316069 3.630843 C -0.166329 4.340586 0.319227 4.812660 0.942324 5.131239  L 1.100489 4.552461  C 0.628303 4.345890 0.249805 4.065149 0.059835 3.560121  Z" fill="white" stroke="white" stroke-width="0"/>
    <path d="M -0.222093 3.613163 C -0.064155 4.266392 0.396397 4.703419 0.981865 4.986544  L 1.060948 4.697156  C 0.554874 4.450307 0.147305 4.141375 -0.034141 3.577802  Z" fill="black" stroke="black" stroke-width="0.005"/>
    <path d="M -1.732431 2.491634 C -2.339555 2.663347 -2.973964 2.685184 -3.596693 2.609574  L -3.648251 2.905111  C -2.979051 2.949463 -2.300850 2.906638 -1.662861 2.682794  Z" fill="black" stroke="black" stroke-width="0.005"/>
    <path d="M -3.087754 2.015542 C -2.945325 2.675237 -2.755790 3.323747 -2.564765 3.970706  L -2.003447 3.758760  C -2.264721 3.153380 -2.495667 2.535749 -2.713431 1.913402  Z" fill="white" stroke="white" stroke-width="0"/>
    <path d="M -2.994174 1.990007 C -2.832995 2.640631 -2.632799 3.280895 -2.424435 3.917720  L -2.143776 3.811746  C -2.387275 3.195696 -2.608154 2.570894 -2.807012 1.938937  Z" fill="black" stroke="black" stroke-width="0.005"/>
    <path d="M -3.105824 1.400239 C -3.492150 0.907516 -3.736471 0.327174 -3.874997 -0.278973  L -4.170795 -0.228935  C -3.982808 0.413206 -3.700460 1.029857 -3.248237 1.531982  Z" fill="black" stroke="black" stroke-width="0.005"/>
    <path d="M -3.145164 0.002514 C -3.727663 0.392969 -4.160886 0.946615 -4.509864 1.546037  L -3.953831 1.771484  C -3.695491 1.230003 -3.387394 0.717876 -2.923944 0.321281  Z" fill="white" stroke="white" stroke-width="0"/>
    <path d="M -3.089859 0.082206 C -3.639829 0.474848 -4.048659 1.015992 -4.370856 1.602399  L -4.092839 1.715122  C -3.826707 1.153181 -3.462847 0.639280 -2.979249 0.241589  Z" fill="black" stroke="black" stroke-width="0.005"/>
    <path d="M -1.770383 -2.069394 C -2.115567 -1.494805 -2.439880 -0.907963 -2.742895 -0.310162  L -2.571175 -0.219886  C -2.236720 -0.791479 -1.894711 -1.359511 -1.519225 -1.905323  Z" fill="black" stroke="black" stroke-width="0.005"/>
    <path d="M -1.238804 -0.784979 C -1.822941 -1.169397 -2.494695 -1.374489 -3.177231 -1.494751  L -3.204166 -0.895356  C -2.601056 -0.835094 -2.002675 -0.725405 -1.457208 -0.441718  Z" fill="white" stroke="white" stroke-width="0"/>
    <path d="M -1.293405 -0.699164 C -1.868015 -1.055476 -2.520974 -1.243721 -3.183965 -1.344903  L -3.197433 -1.045205  C -2.573068 -0.984578 -1.958336 -0.826281 -1.402607 -0.527533  Z" fill="black" stroke="black" stroke-width="0.005"/>
    <path d="M 0.490140 -1.221405 C 0.788988 -1.732509 1.253645 -1.946156 1.801079 -2.077916  L 1.786344 -2.377554  C 1.153555 -2.227515 0.609508 -1.900234 0.314256 -1.296512  Z" fill="black" stroke="black" stroke-width="0.005"/>
    <path d="M 1.502272 -1.448621 C 1.121145 -2.040021 0.558806 -2.461107 -0.054601 -2.785508  L -0.248382 -2.217663  C 0.297034 -1.990070 0.807996 -1.705037 1.199123 -1.245953  Z" fill="white" stroke="white" stroke-width="0"/>
    <path d="M 1.426485 -1.397954 C 1.042525 -1.953162 0.494501 -2.347903 -0.103046 -2.643547  L -0.199937 -2.359624  C 0.367754 -2.124640 0.884663 -1.778013 1.274910 -1.296620  Z" fill="black" stroke="black" stroke-width="0.005"/>
    <path d="M 0.773199 -0.081097 C 0.272054 -0.091132 -0.211042 -0.219358 -0.685490 -0.367580  L -0.748813 -0.210454  C -0.253479 -0.058048 0.250438 0.074638 0.773199 0.081097  Z" fill="black" stroke="black" stroke-width="0.005"/>
    <path d="M 0.068510 0.789135 C 0.132651 0.286764 0.247325 -0.206841 0.367927 -0.697988  L 0.066110 -0.786249  C -0.069034 -0.281540 -0.195565 0.226209 -0.272519 0.743748  Z" fill="white" stroke="white" stroke-width="0"/>
    <path d="M -0.016747 0.777788 C 0.050631 0.271626 0.168219 -0.225515 0.292473 -0.720054  L 0.141564 -0.764184  C 0.010040 -0.262865 -0.113478 0.241349 -0.187261 0.755095  Z" fill="black" stroke="black" stroke-width="0.005"/>
    <path d="M -0.118899 3.045597 C -0.147476 2.535752 -0.126668 2.025420 -0.097427 1.516321  L -0.268819 1.501664  C -0.293271 2.019344 -0.310600 2.538274 -0.275777 3.056104  Z" fill="black" stroke="black" stroke-width="0.005"/>
    <path d="M -0.983741 2.573831 C -0.498988 2.499357 -0.011431 2.542119 0.470936 2.604690  L 0.540974 2.287952  C 0.017288 2.213819 -0.511670 2.161619 -1.039549 2.239648  Z" fill="white" stroke="white" stroke-width="0"/>
    <path d="M -0.997693 2.490285 C -0.502157 2.414958 -0.004251 2.460020 0.488445 2.525505  L 0.523465 2.367137  C 0.010109 2.295871 -0.508498 2.246087 -1.025597 2.323194  Z" fill="black" stroke="black" stroke-width="0.005"/>
  </g>
  <g fill="none" stroke="black">
    <path d="M 2.5702 -1.3019 C 2.6813 -1.7894, 2.2931 -2.2523, 1.7937 -2.2277" stroke-width="0.305"/>
    <path d="M 2.756 0.586 C 2.9601 1.0425, 2.8663 1.9006, 2.5685 2.3022" stroke-width="0.305"/>
    <path d="M 1.0214 4.8419 C 1.5037 4.9737, 1.9828 4.6055, 1.9795 4.1055" stroke-width="0.305"/>
    <path d="M -0.937 4.6893 C -1.434 4.7448, -2.1075 4.3325, -2.2841 3.8647" stroke-width="0.305"/>
    <path d="M -3.6225 2.7573 C -4.115 2.6714, -4.4197 2.1221, -4.2318 1.6588" stroke-width="0.305"/>
    <path d="M -4.0229 -0.254 C -4.1063 -0.7469, -3.6902 -1.2175, -3.1907 -1.1951" stroke-width="0.305"/>
    <path d="M -1.6448 -1.9874 C -1.3714 -2.406, -0.6247 -2.6631, -0.1515 -2.5016" stroke-width="0.305"/>
    <path d="M -3.0346 0.1619 C -2.914 0.0783, -2.7253 -0.1352, -2.657 -0.265" stroke-width="0.199"/>
    <path d="M 1.3507 -1.3473 C 1.4106 -1.2577, 1.5483 -1.0935, 1.626 -1.019" stroke-width="0.1873"/>
    <path d="M 1.1187 3.6254 C 1.0266 3.6814, 0.8568 3.812, 0.7789 3.8865" stroke-width="0.1873"/>
    <path d="M -2.9006 1.9645 C -2.9392 1.823, -3.0774 1.5738, -3.177 1.4661" stroke-width="0.199"/>
    <path d="M -1.402607 -0.527533 C -1.195144 -0.400659 -0.970278 -0.308483 -0.748813 -0.210454  L -0.685490 -0.367580  C -0.891760 -0.471098 -1.102017 -0.568675 -1.293405 -0.699164  Z" fill="black" stroke="black" stroke-width="0.005"/>
    <path d="M 0.773199 0.081097 C 0.985976 0.089061 1.195065 0.049118 1.404132 0.017999  L 1.355097 -0.171989  C 1.162498 -0.134713 0.971133 -0.084364 0.773199 -0.081097  Z" fill="black" stroke="black" stroke-width="0.005"/>
    <path d="M 0.314256 -1.296512 C 0.244923 -1.122943 0.196059 -0.942545 0.141564 -0.764184  L 0.292473 -0.720054  C 0.355323 -0.888301 0.412794 -1.058954 0.490140 -1.221405  Z" fill="black" stroke="black" stroke-width="0.005"/>
    <path d="M -0.187261 0.755095 C -0.220733 1.003245 -0.243832 1.252581 -0.268819 1.501664  L -0.097427 1.516321  C -0.072700 1.269920 -0.049837 1.023270 -0.016747 0.777788  Z" fill="black" stroke="black" stroke-width="0.005"/>
    <path d="M -0.275777 3.056104 C -0.270762 3.242896 -0.243366 3.427869 -0.222093 3.613163  L -0.034141 3.577802  C -0.065358 3.400947 -0.102246 3.224802 -0.118899 3.045597  Z" fill="black" stroke="black" stroke-width="0.005"/>
    <path d="M 1.125893 2.564971 C 0.934208 2.472063 0.727245 2.423318 0.523465 2.367137  L 0.488445 2.525505  C 0.673730 2.590063 0.864761 2.642527 1.036994 2.739891  Z" fill="black" stroke="black" stroke-width="0.005"/>
    <path d="M -1.025597 2.323194 C -1.266535 2.355631 -1.498940 2.427342 -1.732431 2.491634  L -1.662861 2.682794  C -1.443492 2.611065 -1.225412 2.533193 -0.997693 2.490285  Z" fill="black" stroke="black" stroke-width="0.005"/>
  </g>
</svg>
