<?xml version="1.0" encoding="utf-8" ?>
<svg xmlns="http://www.w3.org/2000/svg" xmlns:ev="http://www.w3.org/2001/xml-events" xmlns:xlink="http://www.w3.org/1999/xlink" baseProfile="full" version="1.1" viewBox="-4.406861687496159 -6.884942411501754 8.544762726105143 10.245254422360997">
  <defs/>
  <g stroke="none">
    <path d="M -2.782521 -1.958394 C -2.632542 -1.300118 -2.352144 -0.682723 -2.001456 -0.109235  L -1.845897 -0.211804  C -2.141798 -0.776094 -2.383862 -1.374270 -2.486402 -2.006489  Z" fill="black" stroke="black" stroke-width="0.005"/>
    <path d="M -1.512984 -1.331118 C -2.221610 -1.219170 -2.770565 -0.797248 -3.205882 -0.250687  L -2.675125 0.029128  C -2.364339 -0.419605 -1.998109 -0.787870 -1.456920 -0.952871  Z" fill="white" stroke="white" stroke-width="0"/>
    <path d="M -1.498968 -1.236557 C -2.161212 -1.111523 -2.675254 -0.704698 -3.073193 -0.180733  L -2.807814 -0.040826  C -2.456667 -0.508429 -2.059797 -0.896445 -1.470936 -1.047433  Z" fill="black" stroke="black" stroke-width="0.005"/>
    <path d="M -0.453809 -3.164039 C -0.727393 -3.715692 -0.720407 -4.292861 -0.635929 -4.882981  L -0.923905 -4.967064  C -1.011563 -4.311018 -0.953470 -3.648625 -0.619021 -3.062456  Z" fill="black" stroke="black" stroke-width="0.005"/>
    <path d="M -0.118129 -4.349765 C -0.797554 -4.238466 -1.448209 -4.001980 -2.076825 -3.727493  L -1.778146 -3.207117  C -1.233016 -3.533059 -0.650853 -3.794424 -0.042744 -3.980837  Z" fill="white" stroke="white" stroke-width="0"/>
    <path d="M -0.099283 -4.257533 C -0.761289 -4.127838 -1.393851 -3.883896 -2.002155 -3.597399  L -1.852815 -3.337211  C -1.286165 -3.649407 -0.687988 -3.905831 -0.061591 -4.073069  Z" fill="black" stroke="black" stroke-width="0.005"/>
    <path d="M 2.230531 -4.724064 C 1.572367 -4.866675 0.926637 -4.728611 0.335480 -4.431904  L 0.435697 -4.272517  C 0.992056 -4.474141 1.549871 -4.608387 2.139522 -4.438202  Z" fill="black" stroke="black" stroke-width="0.005"/>
    <path d="M 1.593962 -3.933424 C 1.465927 -4.635745 1.047646 -5.192459 0.516322 -5.644489  L 0.216188 -5.124951  C 0.666104 -4.795820 1.043142 -4.413627 1.223321 -3.866967  Z" fill="white" stroke="white" stroke-width="0"/>
    <path d="M 1.501302 -3.916810 C 1.359996 -4.576098 0.954347 -5.099004 0.441288 -5.514605  L 0.291222 -5.254836  C 0.755879 -4.886666 1.149995 -4.474342 1.315981 -3.883581  Z" fill="black" stroke="black" stroke-width="0.005"/>
    <path d="M 1.503367 -3.381624 C 1.812198 -2.801465 2.073556 -2.197382 2.296157 -1.579460  L 2.578153 -1.681823  C 2.310853 -2.298164 2.019659 -2.906341 1.665127 -3.477964  Z" fill="black" stroke="black" stroke-width="0.005"/>
    <path d="M 1.154926 -2.179494 C 1.852936 -2.323742 2.412869 -2.742892 2.872994 -3.267905  L 2.360852 -3.580492  C 2.018433 -3.133116 1.625799 -2.752178 1.076896 -2.564095  Z" fill="white" stroke="white" stroke-width="0"/>
    <path d="M 1.135419 -2.275644 C 1.792327 -2.431284 2.319684 -2.838112 2.744958 -3.346051  L 2.488887 -3.502345  C 2.109437 -3.040995 1.687388 -2.643620 1.096404 -2.467945  Z" fill="black" stroke="black" stroke-width="0.005"/>
    <path d="M 0.933833 1.670275 C 1.272308 1.104172 1.160589 0.539269 0.769066 0.045357  L 0.650005 0.171958  C 0.897287 0.619153 1.007409 1.021955 0.698847 1.483777  Z" fill="black" stroke="black" stroke-width="0.005"/>
    <path d="M 0.434564 0.645203 C 1.124652 0.860733 1.763461 0.655062 2.330842 0.252597  L 1.885524 -0.149512  C 1.492637 0.183043 1.075614 0.388653 0.540151 0.321709  Z" fill="white" stroke="white" stroke-width="0"/>
    <path d="M 0.460961 0.564330 C 1.106602 0.741729 1.702370 0.540035 2.219513 0.152070  L 1.996854 -0.048985  C 1.550563 0.291351 1.095504 0.508312 0.513754 0.402582  Z" fill="black" stroke="black" stroke-width="0.005"/>
    <path d="M -0.781143 0.501245 C -1.272772 0.855441 -1.819174 0.903169 -2.399429 0.860870  L -2.469307 1.152618  C -1.814381 1.195879 -1.174488 1.069764 -0.656518 0.639613  Z" fill="black" stroke="black" stroke-width="0.005"/>
    <path d="M -0.465501 1.551509 C -0.967386 1.230924 -1.274455 0.738553 -1.546607 0.225996  L -1.906003 0.324540  C -1.691018 0.987463 -1.340411 1.592917 -0.801693 2.048475  Z" fill="white" stroke="white" stroke-width="0"/>
    <path d="M -0.549549 1.675751 C -1.048705 1.314082 -1.393065 0.809535 -1.636456 0.250632  L -1.816154 0.299904  C -1.592292 0.927524 -1.242762 1.500831 -0.717645 1.924234  Z" fill="black" stroke="black" stroke-width="0.005"/>
    <path d="M 0.308027 0.310661 C 0.131623 0.088203 0.019410 -0.171127 -0.094149 -0.428030  L -0.188872 -0.395475  C -0.066452 -0.130646 0.053800 0.137289 0.241759 0.364614  Z" fill="black" stroke="black" stroke-width="0.005"/>
    <path d="M 0.435391 -0.089099 C 0.124029 -0.089254 -0.139850 0.046603 -0.408314 0.182078  L -0.285663 0.343903  C -0.054881 0.228818 0.166254 0.095180 0.435391 0.089099  Z" fill="white" stroke="white" stroke-width="0"/>
    <path d="M 0.435391 -0.044550 C 0.135147 -0.041952 -0.119338 0.090369 -0.377652 0.222534  L -0.316326 0.303447  C -0.075384 0.185310 0.155122 0.047630 0.435391 0.044550  Z" fill="black" stroke="black" stroke-width="0.005"/>
    <path d="M -0.301387 -1.856961 C -0.062518 -2.053007 0.226399 -2.132006 0.516016 -2.212090  L 0.500753 -2.329572  C 0.193560 -2.235271 -0.113366 -2.144236 -0.361348 -1.925315  Z" fill="black" stroke="black" stroke-width="0.005"/>
    <path d="M -0.324747 -2.553948 C -0.167185 -2.305924 -0.146849 -2.025956 -0.123995 -1.743510  L 0.057733 -1.719202  C 0.050797 -2.052244 0.044002 -2.377447 -0.128274 -2.678057  Z" fill="white" stroke="white" stroke-width="0"/>
    <path d="M -0.275629 -2.584975 C -0.114565 -2.323739 -0.097444 -2.032529 -0.078563 -1.737433  L 0.012301 -1.725279  C 0.001380 -2.045671 -0.008960 -2.359513 -0.177392 -2.647029  Z" fill="black" stroke="black" stroke-width="0.005"/>
    <path d="M -0.935031 -1.152970 C -0.632522 -1.187344 -0.379628 -1.338333 -0.124761 -1.488703  L -0.178326 -1.555888  C -0.420489 -1.421970 -0.661358 -1.285996 -0.944579 -1.260238  Z" fill="black" stroke="black" stroke-width="0.005"/>
    <path d="M -0.221552 -0.884948 C -0.342482 -1.134833 -0.339202 -1.406344 -0.356557 -1.674576  L -0.525492 -1.696547  C -0.526110 -1.391958 -0.528456 -1.088384 -0.405880 -0.800596  Z" fill="white" stroke="white" stroke-width="0"/>
    <path d="M -0.267634 -0.863860 C -0.385382 -1.123641 -0.390869 -1.402064 -0.398791 -1.680069  L -0.483258 -1.691054  C -0.481034 -1.395324 -0.480709 -1.100152 -0.359798 -0.821684  Z" fill="black" stroke="black" stroke-width="0.005"/>
  </g>
  <g fill="none" stroke="black">
    <path d="M -2.9405 -0.1108 C -3.1737 0.3315, -2.9206 0.8903, -2.4344 1.0067" stroke-width="0.305"/>
    <path d="M -2.6345 -1.9824 C -2.7146 -2.476, -2.3611 -3.2184, -1.9275 -3.4673" stroke-width="0.305"/>
    <path d="M 0.3663 -5.3847 C -0.0667 -5.6348, -0.6398 -5.405, -0.7799 -4.925" stroke-width="0.305"/>
    <path d="M 2.185 -4.5811 C 2.6615 -4.4295, 2.8774 -3.851, 2.6169 -3.4242" stroke-width="0.305"/>
    <path d="M 2.1082 0.0515 C 2.4433 -0.3196, 2.6078 -1.1606, 2.4372 -1.6306" stroke-width="0.305"/>
    <path d="M 0.8163 1.577 C 0.5055 1.9687, -0.2195 2.0802, -0.6336 1.8" stroke-width="0.305"/>
    <path d="M -0.656518 0.639613 C -0.549374 0.521430 -0.431037 0.414119 -0.316326 0.303447  L -0.377652 0.222534  C -0.512742 0.314441 -0.651056 0.401955 -0.781143 0.501245  Z" fill="black" stroke="black" stroke-width="0.005"/>
    <path d="M 0.435391 0.044550 C 0.526191 0.051095 0.582175 0.129509 0.650005 0.171958  L 0.769066 0.045357  C 0.661424 0.012554 0.559644 -0.074998 0.435391 -0.044550  Z" fill="black" stroke="black" stroke-width="0.005"/>
    <path d="M -1.7263 0.2753 C -1.7583 0.1585, -1.857 -0.0594, -1.9237 -0.1605" stroke-width="0.1913"/>
    <path d="M -0.0804 -4.1653 C 0.0446 -4.1908, 0.2776 -4.2843, 0.3856 -4.3522" stroke-width="0.1933"/>
    <path d="M 1.096404 -2.467945 C 0.899982 -2.413158 0.699810 -2.373358 0.500753 -2.329572  L 0.516016 -2.212090  C 0.722638 -2.231332 0.929734 -2.246721 1.135419 -2.275644  Z" fill="black" stroke="black" stroke-width="0.005"/>
    <path d="M -0.361348 -1.925315 C -0.439774 -1.869080 -0.445869 -1.768651 -0.483258 -1.691054  L -0.398791 -1.680069  C -0.368438 -1.738473 -0.360457 -1.814501 -0.301387 -1.856961  Z" fill="black" stroke="black" stroke-width="0.005"/>
    <path d="M -0.359798 -0.821684 C -0.294579 -0.682984 -0.244311 -0.538112 -0.188872 -0.395475  L -0.094149 -0.428030  C -0.150397 -0.573884 -0.201339 -0.722016 -0.267634 -0.863860  Z" fill="black" stroke="black" stroke-width="0.005"/>
    <path d="M 0.241759 0.364614 C 0.286583 0.459512 0.387298 0.500515 0.460961 0.564330  L 0.513754 0.402582  C 0.446500 0.373824 0.364517 0.366110 0.308027 0.310661  Z" fill="black" stroke="black" stroke-width="0.005"/>
    <path d="M 1.5842 -3.4298 C 1.519 -3.5394, 1.4312 -3.7746, 1.4086 -3.9002" stroke-width="0.1933"/>
    <path d="M -0.619021 -3.062456 C -0.505121 -2.902893 -0.390166 -2.744065 -0.275629 -2.584975  L -0.177392 -2.647029  C -0.270059 -2.819069 -0.363465 -2.990770 -0.453809 -3.164039  Z" fill="black" stroke="black" stroke-width="0.005"/>
    <path d="M -0.078563 -1.737433 C -0.081026 -1.662108 -0.144399 -1.614058 -0.178326 -1.555888  L -0.124761 -1.488703  C -0.077647 -1.564186 0.009321 -1.624221 0.012301 -1.725279  Z" fill="black" stroke="black" stroke-width="0.005"/>
    <path d="M -0.944579 -1.260238 C -1.129580 -1.259221 -1.314279 -1.246318 -1.498968 -1.236557  L -1.470936 -1.047433  C -1.292590 -1.083876 -1.114711 -1.123010 -0.935031 -1.152970  Z" fill="black" stroke="black" stroke-width="0.005"/>
  </g>
</svg>
