<?xml version="1.0" encoding="utf-8" ?>
<svg xmlns="http://www.w3.org/2000/svg" xmlns:ev="http://www.w3.org/2001/xml-events" xmlns:xlink="http://www.w3.org/1999/xlink" baseProfile="full" version="1.1" viewBox="-5.355183026805986 -7.013227322034235 9.062304574029739 10.238299268538633">
  <defs/>
  <g stroke="none">
    <path d="M -2.452211 -3.350607 C -2.434127 -3.970539 -2.235649 -4.561184 -1.931483 -5.095697  L -2.181980 -5.260776  C -2.476234 -4.661579 -2.672220 -4.014351 -2.644658 -3.339318  Z" fill="black" stroke="black" stroke-width="0.005"/>
    <path d="M -3.335362 -3.595261 C -2.817162 -3.902473 -2.229840 -3.978393 -1.641730 -4.018553  L -1.590202 -4.400650  C -2.283375 -4.465896 -2.981057 -4.398479 -3.626816 -4.119717  Z" fill="white" stroke="white" stroke-width="0"/>
    <path d="M -3.408226 -3.726375 C -2.859731 -4.016741 -2.242700 -4.115665 -1.628848 -4.114077  L -1.603084 -4.305125  C -2.270030 -4.349459 -2.940219 -4.270182 -3.553953 -3.988603  Z" fill="black" stroke="black" stroke-width="0.005"/>
    <path d="M 0.888572 -4.709292 C 0.214184 -4.684296 -0.449930 -4.550707 -1.093223 -4.353054  L -1.032307 -4.170153  C -0.405759 -4.321058 0.236557 -4.424424 0.883089 -4.409343  Z" fill="black" stroke="black" stroke-width="0.005"/>
    <path d="M 0.217235 -3.614232 C 0.127955 -4.312231 -0.190408 -4.939472 -0.594890 -5.504280  L -1.025580 -5.086541  C -0.643836 -4.633464 -0.314858 -4.146053 -0.167770 -3.560297  Z" fill="white" stroke="white" stroke-width="0"/>
    <path d="M 0.120984 -3.600749 C 0.015585 -4.268174 -0.300601 -4.866451 -0.702562 -5.399846  L -0.917907 -5.190976  C -0.518350 -4.722071 -0.210395 -4.179168 -0.071519 -3.573781  Z" fill="black" stroke="black" stroke-width="0.005"/>
    <path d="M 2.548404 -1.644822 C 2.275791 -2.256126 1.760139 -2.630870 1.137869 -2.826194  L 1.105362 -2.656940  C 1.619030 -2.412240 2.056724 -2.116687 2.262385 -1.554304  Z" fill="black" stroke="black" stroke-width="0.005"/>
    <path d="M 1.196185 -2.097441 C 1.891729 -2.327529 2.205514 -2.890519 2.292878 -3.579700  L 1.696453 -3.514298  C 1.673244 -3.045475 1.530301 -2.677741 1.095164 -2.434892  Z" fill="white" stroke="white" stroke-width="0"/>
    <path d="M 1.170930 -2.181804 C 1.795890 -2.410749 2.079685 -2.932768 2.143772 -3.563349  L 1.845559 -3.530649  C 1.790103 -3.005372 1.628802 -2.596910 1.120419 -2.350530  Z" fill="black" stroke="black" stroke-width="0.005"/>
    <path d="M 0.734232 1.621910 C 1.130630 1.098666 1.056725 0.542807 0.682710 0.042746  L 0.561635 0.165157  C 0.787544 0.608251 0.870997 0.992556 0.521546 1.410332  Z" fill="black" stroke="black" stroke-width="0.005"/>
    <path d="M 0.340611 0.599308 C 1.018321 0.853862 1.660584 0.673350 2.238135 0.286597  L 1.802133 -0.125596  C 1.405358 0.193413 0.989773 0.379569 0.463354 0.285831  Z" fill="white" stroke="white" stroke-width="0"/>
    <path d="M 0.371297 0.520939 C 1.005223 0.734128 1.603466 0.556447 2.129135 0.183549  L 1.911134 -0.022548  C 1.459270 0.303168 1.004899 0.499896 0.432668 0.364200  Z" fill="black" stroke="black" stroke-width="0.005"/>
    <path d="M -0.681658 0.307514 C -1.252427 0.535863 -1.820914 0.475531 -2.397377 0.331985  L -2.510495 0.609841  C -1.867830 0.758552 -1.206258 0.758063 -0.599337 0.465850  Z" fill="black" stroke="black" stroke-width="0.005"/>
    <path d="M -0.595993 1.318965 C -0.993201 0.937327 -1.079684 0.446928 -1.103644 -0.076477  L -1.463739 -0.167101  C -1.574427 0.525239 -1.462842 1.195865 -1.009123 1.754079  Z" fill="white" stroke="white" stroke-width="0"/>
    <path d="M -0.699275 1.427744 C -1.113742 0.995634 -1.192752 0.470625 -1.193668 -0.099133  L -1.373715 -0.144445  C -1.458505 0.504063 -1.339651 1.133474 -0.905840 1.645301  Z" fill="black" stroke="black" stroke-width="0.005"/>
    <path d="M -3.804145 -2.523878 C -3.320520 -2.052016 -2.720195 -1.740180 -2.081910 -1.537838  L -2.034027 -1.731026  C -2.610796 -1.952653 -3.156961 -2.263933 -3.579637 -2.722865  Z" fill="black" stroke="black" stroke-width="0.005"/>
    <path d="M -2.909032 -0.837850 C -2.825890 -1.479313 -2.654192 -2.105715 -2.464201 -2.722725  L -2.819777 -2.871784  C -3.098836 -2.248945 -3.329316 -1.604820 -3.499691 -0.943308  Z" fill="white" stroke="white" stroke-width="0"/>
    <path d="M -3.056697 -0.864214 C -2.951007 -1.510780 -2.765619 -2.141372 -2.553095 -2.759990  L -2.730883 -2.834520  C -2.987942 -2.213004 -3.202738 -1.573489 -3.352027 -0.916943  Z" fill="black" stroke="black" stroke-width="0.005"/>
    <path d="M 0.246420 0.277458 C 0.104269 0.079455 -0.006227 -0.137739 -0.122142 -0.351171  L -0.200411 -0.313169  C -0.078407 -0.097773 0.037883 0.121792 0.186716 0.320691  Z" fill="black" stroke="black" stroke-width="0.005"/>
    <path d="M 0.369252 -0.077561 C 0.106532 -0.081923 -0.121664 0.031643 -0.356789 0.126803  L -0.267038 0.268454  C -0.061496 0.182085 0.138736 0.079901 0.369252 0.077561  Z" fill="white" stroke="white" stroke-width="0"/>
    <path d="M 0.369252 -0.038781 C 0.114590 -0.041493 -0.106631 0.069258 -0.334351 0.162216  L -0.289476 0.233041  C -0.076547 0.144479 0.130691 0.039417 0.369252 0.038781  Z" fill="black" stroke="black" stroke-width="0.005"/>
    <path d="M -0.469220 -1.705055 C -0.752139 -1.365242 -0.973862 -0.982806 -1.183894 -0.595806  L -1.062840 -0.538102  C -0.855131 -0.912360 -0.636690 -1.282624 -0.358982 -1.610654  Z" fill="black" stroke="black" stroke-width="0.005"/>
    <path d="M -0.300562 -0.764936 C -0.608417 -1.098209 -0.991523 -1.337288 -1.382078 -1.558942  L -1.501003 -1.289029  C -1.138110 -1.095928 -0.783962 -0.883282 -0.491835 -0.588647  Z" fill="white" stroke="white" stroke-width="0"/>
    <path d="M -0.348380 -0.720864 C -0.652254 -1.044534 -1.028210 -1.276898 -1.411809 -1.491464  L -1.471272 -1.356508  C -1.101505 -1.156214 -0.740025 -0.937075 -0.444017 -0.632720  Z" fill="black" stroke="black" stroke-width="0.005"/>
    <path d="M 0.844678 -2.339120 C 0.549996 -2.497138 0.389246 -2.762875 0.224732 -3.037152  L 0.108638 -2.995036  C 0.293447 -2.697275 0.471293 -2.409483 0.799068 -2.244278  Z" fill="black" stroke="black" stroke-width="0.005"/>
    <path d="M 0.799416 -2.809052 C 0.454131 -2.680109 0.178718 -2.442799 -0.098366 -2.210349  L 0.089431 -2.042894  C 0.329630 -2.263887 0.570074 -2.486608 0.874232 -2.620425  Z" fill="white" stroke="white" stroke-width="0"/>
    <path d="M 0.818120 -2.761895 C 0.483093 -2.631786 0.216471 -2.398020 -0.051417 -2.168485  L 0.042482 -2.084758  C 0.291931 -2.308562 0.541061 -2.535038 0.855528 -2.667582  Z" fill="black" stroke="black" stroke-width="0.005"/>
  </g>
  <g fill="none" stroke="black">
    <path d="M -3.6919 -2.6234 C -4.0235 -2.9976, -3.9181 -3.6146, -3.4811 -3.8575" stroke-width="0.305"/>
    <path d="M -0.8102 -5.2954 C -1.1584 -5.6543, -1.7816 -5.5957, -2.0567 -5.1782" stroke-width="0.305"/>
    <path d="M 0.8858 -4.5593 C 1.3857 -4.5502, 1.9402 -4.044, 1.9947 -3.547" stroke-width="0.305"/>
    <path d="M 2.4054 -1.5996 C 2.5563 -1.1229, 2.3636 -0.2828, 2.0201 0.0805" stroke-width="0.305"/>
    <path d="M 0.6279 1.5161 C 0.2753 1.8706, -0.44 1.8808, -0.8026 1.5365" stroke-width="0.305"/>
    <path d="M -3.2044 -0.8906 C -3.2922 -0.3984, -2.917 0.2824, -2.4539 0.4709" stroke-width="0.305"/>
    <path d="M -2.5484 -3.345 C -2.5401 -3.2026, -2.5869 -2.9288, -2.642 -2.7973" stroke-width="0.1978"/>
    <path d="M -0.599337 0.465850 C -0.492217 0.393361 -0.392431 0.310909 -0.289476 0.233041  L -0.334351 0.162216  C -0.449816 0.211306 -0.562957 0.266465 -0.681658 0.307514  Z" fill="black" stroke="black" stroke-width="0.005"/>
    <path d="M 0.369252 0.038781 C 0.453551 0.047031 0.501416 0.123447 0.561635 0.165157  L 0.682710 0.042746  C 0.581773 0.012807 0.485884 -0.070982 0.369252 -0.038781  Z" fill="black" stroke="black" stroke-width="0.005"/>
    <path d="M -1.193668 -0.099133 C -1.167696 -0.250363 -1.109791 -0.392928 -1.062840 -0.538102  L -1.183894 -0.595806  C -1.250240 -0.446880 -1.328132 -0.302173 -1.373715 -0.144445  Z" fill="black" stroke="black" stroke-width="0.005"/>
    <path d="M -0.358982 -1.610654 C -0.227088 -1.770310 -0.091852 -1.927161 0.042482 -2.084758  L -0.051417 -2.168485  C -0.191092 -2.014380 -0.331585 -1.861005 -0.469220 -1.705055  Z" fill="black" stroke="black" stroke-width="0.005"/>
    <path d="M 0.855528 -2.667582 C 0.939064 -2.694023 1.023976 -2.661740 1.105362 -2.656940  L 1.137869 -2.826194  C 1.032258 -2.807629 0.914420 -2.825055 0.818120 -2.761895  Z" fill="black" stroke="black" stroke-width="0.005"/>
    <path d="M 0.432668 0.364200 C 0.360708 0.361517 0.307059 0.307585 0.246420 0.277458  L 0.186716 0.320691  C 0.245465 0.387822 0.283781 0.479895 0.371297 0.520939  Z" fill="black" stroke="black" stroke-width="0.005"/>
    <path d="M -0.122142 -0.351171 C -0.174357 -0.487934 -0.270312 -0.599695 -0.348380 -0.720864  L -0.444017 -0.632720  C -0.361050 -0.528156 -0.262483 -0.433838 -0.200411 -0.313169  Z" fill="black" stroke="black" stroke-width="0.005"/>
    <path d="M -1.411809 -1.491464 C -1.611330 -1.590952 -1.824160 -1.657981 -2.034027 -1.731026  L -2.081910 -1.537838  C -1.876543 -1.483992 -1.669382 -1.434982 -1.471272 -1.356508  Z" fill="black" stroke="black" stroke-width="0.005"/>
    <path d="M -1.616 -4.2096 C -1.4747 -4.1905, -1.1981 -4.2165, -1.0628 -4.2616" stroke-width="0.1978"/>
    <path d="M 1.120419 -2.350530 C 1.033448 -2.301474 0.934800 -2.340462 0.844678 -2.339120  L 0.799068 -2.244278  C 0.920024 -2.219800 1.038204 -2.139230 1.170930 -2.181804  Z" fill="black" stroke="black" stroke-width="0.005"/>
    <path d="M 0.224732 -3.037152 C 0.168747 -3.220981 0.149998 -3.412087 0.120984 -3.600749  L -0.071519 -3.573781  C -0.017737 -3.379113 0.025167 -3.180220 0.108638 -2.995036  Z" fill="black" stroke="black" stroke-width="0.005"/>
  </g>
</svg>
