<?xml version="1.0" encoding="utf-8" ?>
<svg xmlns="http://www.w3.org/2000/svg" xmlns:ev="http://www.w3.org/2001/xml-events" xmlns:xlink="http://www.w3.org/1999/xlink" baseProfile="full" version="1.1" viewBox="-4.486475391166874 -8.136635031179182 11.067522922495007 11.394418248526627">
  <defs/>
  <g stroke="none">
    <path d="M 1.827443 1.431533 C 2.110845 0.830619 2.418067 0.241264 2.727043 -0.346797  L 2.552829 -0.446747  C 2.208805 0.127023 1.879190 0.709246 1.559367 1.296865  Z" fill="black" stroke="black" stroke-width="0.005"/>
    <path d="M 1.135061 0.309106 C 1.765591 0.573299 2.428583 0.749900 3.094404 0.898980  L 3.172974 0.304147  C 2.531524 0.234348 1.896872 0.109661 1.276245 -0.068426  Z" fill="white" stroke="white" stroke-width="0"/>
    <path d="M 1.170357 0.214723 C 1.798510 0.457783 2.454312 0.620371 3.114047 0.750272  L 3.153332 0.452855  C 2.505752 0.362564 1.864171 0.225981 1.240949 0.025957  Z" fill="black" stroke="black" stroke-width="0.005"/>
    <path d="M -0.155482 0.759582 C -0.547439 1.163926 -0.980804 1.184752 -1.492894 1.065018  L -1.621884 1.335872  C -1.006709 1.480900 -0.424712 1.380219 -0.014057 0.857636  Z" fill="black" stroke="black" stroke-width="0.005"/>
    <path d="M -0.667861 0.615798 C -0.762875 1.341948 -0.387415 1.862046 0.200877 2.228955  L 0.389089 1.659239  C -0.025970 1.445566 -0.295383 1.164630 -0.327927 0.669714  Z" fill="white" stroke="white" stroke-width="0"/>
    <path d="M -0.582878 0.629277 C -0.647573 1.290749 -0.296756 1.765918 0.247930 2.086526  L 0.342036 1.801668  C -0.110691 1.534067 -0.409354 1.219362 -0.412911 0.656235  Z" fill="black" stroke="black" stroke-width="0.005"/>
    <path d="M -2.768385 -1.611285 C -2.207724 -1.238030 -1.609889 -0.924720 -0.993943 -0.654155  L -0.914412 -0.839333  C -1.496954 -1.135389 -2.067574 -1.460463 -2.591108 -1.853304  Z" fill="black" stroke="black" stroke-width="0.005"/>
    <path d="M -1.879848 -0.097364 C -1.722207 -0.750567 -1.568414 -1.404654 -1.437770 -2.063815  L -1.827701 -2.160336  C -2.028728 -1.528998 -2.224778 -0.895560 -2.453404 -0.273529  Z" fill="white" stroke="white" stroke-width="0"/>
    <path d="M -2.023237 -0.141406 C -1.847955 -0.787051 -1.683477 -1.435570 -1.535253 -2.087945  L -1.730218 -2.136206  C -1.913643 -1.497741 -2.099228 -0.859554 -2.310015 -0.229488  Z" fill="black" stroke="black" stroke-width="0.005"/>
    <path d="M -1.578257 -2.793667 C -1.781873 -3.415417 -1.920812 -4.056245 -2.012619 -4.703287  L -2.309960 -4.663438  C -2.178208 -4.004042 -2.012998 -3.348752 -1.765920 -2.722090  Z" fill="black" stroke="black" stroke-width="0.005"/>
    <path d="M -2.552115 -2.789018 C -2.100737 -3.250048 -1.586474 -3.644293 -1.061737 -4.017484  L -1.262298 -4.365531  C -1.860298 -4.035139 -2.432061 -3.657742 -2.962817 -3.226423  Z" fill="white" stroke="white" stroke-width="0"/>
    <path d="M -2.654790 -2.898369 C -2.182966 -3.351594 -1.655223 -3.742077 -1.111877 -4.104495  L -1.212158 -4.278519  C -1.792122 -3.937512 -2.348667 -3.555422 -2.860142 -3.117072  Z" fill="black" stroke="black" stroke-width="0.005"/>
    <path d="M 0.208521 -6.447545 C -0.186582 -5.901971 -0.521930 -5.316073 -0.814421 -4.710190  L -0.632787 -4.624461  C -0.315966 -5.195596 0.030101 -5.753474 0.443268 -6.260746  Z" fill="black" stroke="black" stroke-width="0.005"/>
    <path d="M -1.310873 -5.323475 C -0.665695 -5.317415 -0.025106 -5.219739 0.607559 -5.099922  L 0.719573 -5.485687  C 0.067011 -5.687986 -0.601269 -5.838798 -1.280019 -5.922681  Z" fill="white" stroke="white" stroke-width="0"/>
    <path d="M -1.303159 -5.473277 C -0.649443 -5.447066 -0.002227 -5.337062 0.635562 -5.196363  L 0.691569 -5.389246  C 0.043848 -5.571184 -0.617271 -5.707771 -1.287732 -5.772880  Z" fill="black" stroke="black" stroke-width="0.005"/>
    <path d="M 1.342438 -5.211153 C 1.971822 -5.389781 2.617688 -5.503021 3.267880 -5.568918  L 3.239934 -5.867614  C 2.575803 -5.762297 1.914440 -5.623383 1.278412 -5.401524  Z" fill="black" stroke="black" stroke-width="0.005"/>
    <path d="M 1.376678 -6.184420 C 1.819317 -5.714993 2.192714 -5.185399 2.544654 -4.646179  L 2.900432 -4.832683  C 2.594182 -5.443398 2.239916 -6.029774 1.830134 -6.577330  Z" fill="white" stroke="white" stroke-width="0"/>
    <path d="M 1.490042 -6.282648 C 1.924066 -5.793102 2.293165 -5.250188 2.633599 -4.692805  L 2.811488 -4.786057  C 2.493910 -5.379175 2.134348 -5.950532 1.716770 -6.479102  Z" fill="black" stroke="black" stroke-width="0.005"/>
    <path d="M 4.922056 -3.279902 C 4.392694 -3.696474 3.820654 -4.054950 3.226933 -4.371400  L 3.134020 -4.193334  C 3.692049 -3.853960 4.235663 -3.485894 4.726033 -3.052801  Z" fill="black" stroke="black" stroke-width="0.005"/>
    <path d="M 3.940559 -2.807665 C 4.182429 -3.447372 4.333939 -4.116887 4.457048 -4.788212  L 3.859552 -4.842968  C 3.815293 -4.199738 3.714974 -3.561206 3.559575 -2.934993  Z" fill="white" stroke="white" stroke-width="0"/>
    <path d="M 3.845313 -2.839497 C 4.065963 -3.475945 4.203619 -4.137571 4.307674 -4.801901  L 4.008926 -4.829279  C 3.944264 -4.178963 3.832252 -3.532883 3.654821 -2.903161  Z" fill="black" stroke="black" stroke-width="0.005"/>
    <path d="M 3.641374 -2.196258 C 3.794728 -1.560243 3.882088 -0.910371 3.921971 -0.258066  L 4.221544 -0.274063  C 4.142830 -0.941869 4.030435 -1.608252 3.834150 -2.252632  Z" fill="black" stroke="black" stroke-width="0.005"/>
    <path d="M 3.200995 -0.654619 C 3.829857 -0.923428 4.417608 -1.278048 4.986987 -1.654400  L 4.612498 -2.123183  C 4.118009 -1.709438 3.588067 -1.339372 3.028846 -1.017560  Z" fill="white" stroke="white" stroke-width="0"/>
    <path d="M 3.157958 -0.745354 C 3.769767 -1.027207 4.342232 -1.386350 4.893365 -1.771595  L 4.706120 -2.005987  C 4.192386 -1.602045 3.648900 -1.235182 3.071883 -0.926825  Z" fill="black" stroke="black" stroke-width="0.005"/>
    <path d="M 0.540301 -0.066289 C 0.163468 -0.049155 -0.117390 0.147796 -0.410415 0.355167  L -0.335821 0.426390  C -0.063927 0.247108 0.198782 0.073669 0.540301 0.066289  Z" fill="black" stroke="black" stroke-width="0.005"/>
    <path d="M 0.102464 0.540429 C 0.093448 0.151023 -0.080973 -0.161667 -0.298639 -0.469379  L -0.481989 -0.277829  C -0.300236 -0.027377 -0.127822 0.216805 -0.103809 0.540172  Z" fill="white" stroke="white" stroke-width="0"/>
    <path d="M 0.050896 0.540364 C 0.044961 0.163255 -0.145766 -0.122659 -0.344476 -0.421492  L -0.436151 -0.325716  C -0.248843 -0.059140 -0.070144 0.198984 -0.052241 0.540236  Z" fill="black" stroke="black" stroke-width="0.005"/>
  </g>
  <g fill="none" stroke="black">
    <path d="M 3.1337 0.6016 C 3.6294 0.667, 4.0984 0.2332, 4.0718 -0.2661" stroke-width="0.305"/>
    <path d="M 1.6934 1.3642 C 1.469 1.811, 0.7697 2.1009, 0.295 1.9441" stroke-width="0.305"/>
    <path d="M -2.1666 -0.1854 C -2.3134 0.2925, -2.0088 0.9855, -1.5574 1.2004" stroke-width="0.305"/>
    <path d="M -2.6797 -1.7323 C -3.0831 -2.0278, -3.122 -2.6655, -2.7575 -3.0077" stroke-width="0.305"/>
    <path d="M -1.2954 -5.6231 C -1.7948 -5.6488, -2.2277 -5.1789, -2.1613 -4.6834" stroke-width="0.305"/>
    <path d="M 0.3259 -6.3541 C 0.6372 -6.7454, 1.276 -6.7588, 1.6034 -6.3809" stroke-width="0.305"/>
    <path d="M 4.1583 -4.8156 C 4.2039 -5.3135, 3.7517 -5.7648, 3.2539 -5.7183" stroke-width="0.305"/>
    <path d="M 4.824 -3.1664 C 5.2025 -2.8396, 5.1904 -2.2009, 4.7997 -1.8888" stroke-width="0.305"/>
    <path d="M 3.1149 -0.8361 C 2.9618 -0.7635, 2.7243 -0.5438, 2.6399 -0.3968" stroke-width="0.2058"/>
    <path d="M -0.412911 0.656235 C -0.418931 0.571129 -0.362911 0.501402 -0.335821 0.426390  L -0.410415 0.355167  C -0.469273 0.443426 -0.564451 0.515330 -0.582878 0.629277  Z" fill="black" stroke="black" stroke-width="0.005"/>
    <path d="M 0.540301 0.066289 C 0.759223 0.077147 0.963983 0.151155 1.170357 0.214723  L 1.240949 0.025957  C 1.009799 -0.020763 0.779111 -0.081197 0.540301 -0.066289  Z" fill="black" stroke="black" stroke-width="0.005"/>
    <path d="M 3.7378 -2.2244 C 3.6902 -2.3871, 3.6963 -2.7106, 3.7501 -2.8713" stroke-width="0.2058"/>
    <path d="M 1.3104 -5.3063 C 1.1498 -5.2523, 0.8263 -5.2455, 0.6636 -5.2928" stroke-width="0.2058"/>
    <path d="M -1.6721 -2.7579 C -1.6117 -2.5995, -1.592 -2.2766, -1.6327 -2.1121" stroke-width="0.2058"/>
    <path d="M -0.014057 0.857636 C 0.051423 0.762578 0.032386 0.644822 0.050896 0.540364  L -0.052241 0.540236  C -0.084539 0.613157 -0.092285 0.702264 -0.155482 0.759582  Z" fill="black" stroke="black" stroke-width="0.005"/>
    <path d="M -0.344476 -0.421492 C -0.506685 -0.597392 -0.715123 -0.713250 -0.914412 -0.839333  L -0.993943 -0.654155  C -0.800903 -0.557375 -0.601808 -0.469252 -0.436151 -0.325716  Z" fill="black" stroke="black" stroke-width="0.005"/>
    <path d="M -1.162 -4.1915 C -1.0152 -4.2761, -0.796 -4.514, -0.7236 -4.6673" stroke-width="0.2058"/>
    <path d="M 2.7225 -4.7394 C 2.8012 -4.5893, 3.0302 -4.3608, 3.1805 -4.2824" stroke-width="0.2058"/>
  </g>
</svg>
