<?xml version="1.0" encoding="utf-8" ?>
<svg xmlns="http://www.w3.org/2000/svg" xmlns:ev="http://www.w3.org/2001/xml-events" xmlns:xlink="http://www.w3.org/1999/xlink" baseProfile="full" version="1.1" viewBox="-4.920887438462106 -5.030095259082528 9.747201565020328 9.958968702180876">
  <defs/>
  <g stroke="none">
    <path d="M -0.324985 3.235037 C 0.045197 2.670730 0.180521 2.016121 0.168127 1.351062  L -0.028512 1.371794  C -0.054669 1.973403 -0.205350 2.554527 -0.560929 3.049752  Z" fill="black" stroke="black" stroke-width="0.005"/>
    <path d="M -0.843087 2.354684 C -0.171252 2.508940 0.521674 2.530988 1.207777 2.506481  L 1.120050 1.912929  C 0.495173 2.014949 -0.140751 2.040699 -0.772266 1.982899  Z" fill="white" stroke="white" stroke-width="0"/>
    <path d="M -0.825381 2.261738 C -0.163395 2.392407 0.514850 2.400944 1.185845 2.358093  L 1.141982 2.061317  C 0.501523 2.142858 -0.148101 2.158323 -0.789971 2.075845  Z" fill="black" stroke="black" stroke-width="0.005"/>
    <path d="M -1.339471 2.077075 C -1.953486 2.140003 -2.496101 1.934036 -3.023697 1.652333  L -3.200029 1.895040  C -2.612079 2.199314 -1.969006 2.371817 -1.303228 2.262807  Z" fill="black" stroke="black" stroke-width="0.005"/>
    <path d="M -2.339666 1.344380 C -2.446782 2.048099 -2.248144 2.718121 -1.916818 3.331507  L -1.446595 2.958828  C -1.751306 2.483222 -1.975382 1.982833 -1.965493 1.401249  Z" fill="white" stroke="white" stroke-width="0"/>
    <path d="M -2.246123 1.358597 C -2.327162 2.028356 -2.127886 2.663642 -1.799262 3.238337  L -1.564150 3.051998  C -1.867697 2.536659 -2.096201 2.003143 -2.059036 1.387032  Z" fill="black" stroke="black" stroke-width="0.005"/>
    <path d="M -2.080814 0.837962 C -2.199917 0.191735 -2.265922 -0.463039 -2.290571 -1.119234  L -2.590338 -1.107405  C -2.522973 -0.438949 -2.429988 0.228969 -2.265061 0.881125  Z" fill="black" stroke="black" stroke-width="0.005"/>
    <path d="M -1.392674 -0.267444 C -2.102016 -0.300301 -2.759910 -0.054598 -3.355958 0.307928  L -2.965956 0.763887  C -2.496555 0.435054 -1.998199 0.175394 -1.411603 0.133556  Z" fill="white" stroke="white" stroke-width="0"/>
    <path d="M -1.397406 -0.167194 C -2.072979 -0.179716 -2.698109 0.064009 -3.258458 0.421918  L -3.063456 0.649897  C -2.559849 0.321105 -2.026152 0.048804 -1.406871 0.033306  Z" fill="black" stroke="black" stroke-width="0.005"/>
    <path d="M -0.233559 -2.022403 C -0.342239 -2.583039 -0.114656 -2.975686 0.262467 -3.356167  L 0.097915 -3.607012  C -0.351649 -3.155683 -0.588753 -2.601841 -0.399267 -1.962584  Z" fill="black" stroke="black" stroke-width="0.005"/>
    <path d="M 0.259025 -2.494431 C -0.329815 -2.906816 -1.010928 -2.944991 -1.691001 -2.796402  L -1.444838 -2.249224  C -0.935593 -2.407340 -0.442230 -2.452092 0.059791 -2.213840  Z" fill="white" stroke="white" stroke-width="0"/>
    <path d="M 0.209216 -2.424283 C -0.353649 -2.790175 -0.996421 -2.815776 -1.629460 -2.659607  L -1.506379 -2.386018  C -0.949991 -2.530176 -0.419274 -2.570020 0.109600 -2.283987  Z" fill="black" stroke="black" stroke-width="0.005"/>
    <path d="M 1.237997 -2.003532 C 1.837297 -2.128247 2.377692 -1.963284 2.911713 -1.711434  L 3.078503 -1.960796  C 2.479022 -2.233990 1.831796 -2.358389 1.183098 -2.176920  Z" fill="black" stroke="black" stroke-width="0.005"/>
    <path d="M 1.344417 -3.038953 C 1.696763 -2.560724 1.803418 -1.992777 1.869259 -1.418025  L 2.244432 -1.377628  C 2.285302 -2.073736 2.177200 -2.765029 1.835822 -3.383222  Z" fill="white" stroke="white" stroke-width="0"/>
    <path d="M 1.467269 -3.125020 C 1.802927 -2.609318 1.940809 -2.015920 1.963053 -1.407926  L 2.150639 -1.387727  C 2.170801 -2.053613 2.052416 -2.714142 1.712971 -3.297155  Z" fill="black" stroke="black" stroke-width="0.005"/>
    <path d="M 2.402891 1.083628 C 2.431628 0.409323 2.344026 -0.262621 2.186971 -0.916815  L 2.004702 -0.868082  C 2.114320 -0.234867 2.172112 0.411889 2.104410 1.053483  Z" fill="black" stroke="black" stroke-width="0.005"/>
    <path d="M 2.887159 -0.824094 C 2.462316 -0.425133 1.922627 -0.279064 1.366747 -0.179240  L 1.344661 0.214457  C 2.044203 0.208905 2.721709 0.039874 3.293289 -0.382440  Z" fill="white" stroke="white" stroke-width="0"/>
    <path d="M 2.988692 -0.713680 C 2.524280 -0.305696 1.954118 -0.165377 1.361225 -0.080816  L 1.350183 0.116032  C 2.014073 0.093514 2.657189 -0.081261 3.191757 -0.492853  Z" fill="black" stroke="black" stroke-width="0.005"/>
    <path d="M 0.727426 -0.078136 C 0.243801 -0.079579 -0.239571 -0.095898 -0.722768 -0.114642  L -0.730417 0.045012  C -0.244654 0.062579 0.241277 0.078042 0.727426 0.078136  Z" fill="black" stroke="black" stroke-width="0.005"/>
    <path d="M 0.182102 0.721518 C 0.162108 0.241140 0.168220 -0.239728 0.176955 -0.720254  L -0.112102 -0.733152  C -0.129805 -0.244860 -0.142664 0.243781 -0.131394 0.732451  Z" fill="white" stroke="white" stroke-width="0"/>
    <path d="M 0.103728 0.724251 C 0.085929 0.241797 0.093708 -0.241009 0.104691 -0.723478  L -0.039838 -0.729928  C -0.055305 -0.243575 -0.066457 0.243117 -0.053020 0.729717  Z" fill="black" stroke="black" stroke-width="0.005"/>
    <path d="M 0.348754 -2.135689 C 0.465853 -2.010710 0.410180 -1.857215 0.424067 -1.714540  L 0.472134 -1.696841  C 0.467137 -1.864542 0.521211 -2.024815 0.396296 -2.174608  Z" fill="black" stroke="black" stroke-width="0.005"/>
    <path d="M 0.330847 -1.784697 C 0.480909 -1.861848 0.648614 -1.882392 0.809206 -1.922580  L 0.786987 -2.063332  C 0.616547 -2.007545 0.439176 -1.966605 0.284883 -1.869752  Z" fill="white" stroke="white" stroke-width="0"/>
    <path d="M 0.319356 -1.805961 C 0.470316 -1.888413 0.640822 -1.913170 0.803651 -1.957768  L 0.792542 -2.028144  C 0.624369 -1.976779 0.449780 -1.939990 0.296374 -1.848488  Z" fill="black" stroke="black" stroke-width="0.005"/>
    <path d="M 0.096163 -1.197963 C 0.098385 -1.389611 0.184181 -1.559055 0.247370 -1.733876  L 0.201743 -1.761231  C 0.126402 -1.579669 0.027820 -1.405160 0.016497 -1.202452  Z" fill="black" stroke="black" stroke-width="0.005"/>
    <path d="M -0.184512 -1.654784 C -0.008314 -1.496071 0.162713 -1.547717 0.367861 -1.550464  L 0.326779 -1.654831  C 0.185890 -1.675938 0.030003 -1.619326 -0.084394 -1.753809  Z" fill="white" stroke="white" stroke-width="0"/>
    <path d="M -0.159483 -1.679541 C 0.003482 -1.530036 0.166163 -1.576670 0.357591 -1.576556  L 0.337049 -1.628739  C 0.177113 -1.641970 0.023685 -1.591201 -0.109424 -1.729053  Z" fill="black" stroke="black" stroke-width="0.005"/>
  </g>
  <g fill="none" stroke="black">
    <path d="M 2.2537 1.0686 C 2.2034 1.566, 1.6585 2.1366, 1.1639 2.2097" stroke-width="0.305"/>
    <path d="M -0.443 3.1424 C -0.7518 3.5356, -1.3711 3.537, -1.6817 3.1452" stroke-width="0.305"/>
    <path d="M -3.1119 1.7737 C -3.5164 1.4798, -3.5409 0.8609, -3.161 0.5359" stroke-width="0.305"/>
    <path d="M -2.4405 -1.1133 C -2.4602 -1.6129, -2.0239 -2.3177, -1.5679 -2.5228" stroke-width="0.305"/>
    <path d="M 0.1802 -3.4816 C 0.5983 -3.7558, 1.3032 -3.6206, 1.5901 -3.2111" stroke-width="0.305"/>
    <path d="M 3.0902 -0.6033 C 3.4583 -0.9417, 3.4107 -1.5581, 2.9951 -1.8361" stroke-width="0.305"/>
    <path d="M -1.406871 0.033306 C -1.181380 0.036671 -0.955899 0.041080 -0.730417 0.045012  L -0.722768 -0.114642  C -0.947643 -0.132189 -1.172557 -0.149314 -1.397406 -0.167194  Z" fill="black" stroke="black" stroke-width="0.005"/>
    <path d="M 0.727426 0.078136 C 0.935390 0.084546 1.142716 0.101829 1.350183 0.116032  L 1.361225 -0.080816  C 1.149970 -0.082151 0.938611 -0.085844 0.727426 -0.078136  Z" fill="black" stroke="black" stroke-width="0.005"/>
    <path d="M 1.183098 -2.176920 C 1.058276 -2.114217 0.923396 -2.075734 0.792542 -2.028144  L 0.803651 -1.957768  C 0.948317 -1.971801 1.094663 -1.975081 1.237997 -2.003532  Z" fill="black" stroke="black" stroke-width="0.005"/>
    <path d="M 0.296374 -1.848488 C 0.254718 -1.831243 0.232242 -1.790640 0.201743 -1.761231  L 0.247370 -1.733876  C 0.270627 -1.757975 0.287544 -1.790359 0.319356 -1.805961  Z" fill="black" stroke="black" stroke-width="0.005"/>
    <path d="M 0.016497 -1.202452 C -0.003858 -1.045151 -0.021574 -0.887486 -0.039838 -0.729928  L 0.104691 -0.723478  C 0.101961 -0.881626 0.098383 -1.039796 0.096163 -1.197963  Z" fill="black" stroke="black" stroke-width="0.005"/>
    <path d="M -0.053020 0.729717 C -0.053382 0.943996 -0.039509 1.157907 -0.028512 1.371794  L 0.168127 1.351062  C 0.144648 1.142366 0.117263 0.933995 0.103728 0.724251  Z" fill="black" stroke="black" stroke-width="0.005"/>
    <path d="M -2.1526 1.3728 C -2.1329 1.2435, -2.1431 0.9869, -2.1729 0.8595" stroke-width="0.1942"/>
    <path d="M 0.109600 -2.283987 C 0.198260 -2.250405 0.269930 -2.186151 0.348754 -2.135689  L 0.396296 -2.174608  C 0.335025 -2.257910 0.286248 -2.352412 0.209216 -2.424283  Z" fill="black" stroke="black" stroke-width="0.005"/>
    <path d="M 0.424067 -1.714540 C 0.411535 -1.670983 0.365903 -1.655649 0.337049 -1.628739  L 0.357591 -1.576556  C 0.396122 -1.614165 0.458618 -1.635443 0.472134 -1.696841  Z" fill="black" stroke="black" stroke-width="0.005"/>
    <path d="M -0.109424 -1.729053 C -0.177765 -1.814613 -0.193997 -1.925535 -0.233559 -2.022403  L -0.399267 -1.962584  C -0.321714 -1.867402 -0.266982 -1.748748 -0.159483 -1.679541  Z" fill="black" stroke="black" stroke-width="0.005"/>
    <path d="M 2.0568 -1.3978 C 2.043 -1.2697, 2.0625 -1.017, 2.0958 -0.8924" stroke-width="0.1937"/>
    <path d="M -0.8077 2.1688 C -0.9361 2.1443, -1.193 2.1449, -1.3213 2.1699" stroke-width="0.1942"/>
  </g>
</svg>
