<?xml version="1.0" encoding="utf-8" ?>
<svg xmlns="http://www.w3.org/2000/svg" xmlns:ev="http://www.w3.org/2001/xml-events" xmlns:xlink="http://www.w3.org/1999/xlink" baseProfile="full" version="1.1" viewBox="-4.500319557025243 -2.7923016949618966 7.890016361546316 8.734636174912445">
  <defs/>
  <g stroke="none">
    <path d="M -1.833424 2.758735 C -1.764788 3.429545 -1.419990 3.995059 -0.957441 4.466550  L -0.778579 4.225701  C -1.198870 3.806643 -1.544970 3.351630 -1.645471 2.745809  Z" fill="black" stroke="black" stroke-width="0.005"/>
    <path d="M -2.706792 3.620296 C -2.026507 3.830933 -1.337317 3.746676 -0.687767 3.487117  L -0.850788 3.147413  C -1.396217 3.255326 -1.939635 3.309812 -2.464367 3.071451  Z" fill="white" stroke="white" stroke-width="0"/>
    <path d="M -2.646186 3.483085 C -2.007202 3.695943 -1.349606 3.630326 -0.728522 3.402191  L -0.810033 3.232339  C -1.386198 3.370291 -1.956760 3.441771 -2.524973 3.208662  Z" fill="black" stroke="black" stroke-width="0.005"/>
    <path d="M -1.295838 1.162678 C -1.965391 1.248862 -2.532980 1.597729 -3.010047 2.057448  L -2.772147 2.240215  C -2.345590 1.821539 -1.883426 1.470646 -1.277099 1.357504  Z" fill="black" stroke="black" stroke-width="0.005"/>
    <path d="M -1.692825 2.185600 C -1.903501 1.583800 -2.042036 0.959432 -2.109173 0.326185  L -2.704471 0.401153  C -2.546453 1.068104 -2.347419 1.730270 -2.035143 2.343059  Z" fill="white" stroke="white" stroke-width="0"/>
    <path d="M -1.778404 2.224964 C -2.015052 1.620282 -2.167092 0.986601 -2.257997 0.344927  L -2.555646 0.382411  C -2.419370 1.040883 -2.236973 1.693547 -1.949563 2.303694  Z" fill="black" stroke="black" stroke-width="0.005"/>
    <path d="M -1.572883 -0.949490 C -1.056336 -1.165131 -0.674399 -0.979867 -0.274463 -0.654458  L -0.138126 -0.742868  C -0.552099 -1.217989 -1.087901 -1.434673 -1.709263 -1.216699  Z" fill="black" stroke="black" stroke-width="0.005"/>
    <path d="M -0.350265 -0.606670 C -0.353670 -1.079153 -0.101789 -1.219583 0.279678 -1.367439  L 0.203296 -1.962557  C -0.430540 -1.707199 -0.825595 -1.248315 -0.668602 -0.527641  Z" fill="white" stroke="white" stroke-width="0"/>
    <path d="M -0.429850 -0.586913 C -0.458965 -1.113468 -0.193505 -1.348368 0.260583 -1.516219  L 0.222391 -1.813778  C -0.350538 -1.601232 -0.707355 -1.192197 -0.589018 -0.547398  Z" fill="black" stroke="black" stroke-width="0.005"/>
    <path d="M 0.823871 0.819845 C 1.355067 0.410203 1.555993 -0.187621 1.561010 -0.835672  L 1.265916 -0.781639  C 1.262127 -0.220975 1.156946 0.272971 0.720109 0.670308  Z" fill="black" stroke="black" stroke-width="0.005"/>
    <path d="M 2.266844 0.972931 C 1.898417 0.359302 1.312299 0.009714 0.631105 -0.148058  L 0.578608 0.198461  C 1.061863 0.425840 1.496724 0.696938 1.716428 1.211768  Z" fill="white" stroke="white" stroke-width="0"/>
    <path d="M 2.129240 1.032640 C 1.797462 0.449838 1.251289 0.106350 0.617981 -0.061429  L 0.591733 0.111831  C 1.124125 0.332832 1.592660 0.607702 1.854032 1.152059  Z" fill="black" stroke="black" stroke-width="0.005"/>
    <path d="M -0.275436 3.278647 C 0.397326 3.217917 1.035301 2.984392 1.633095 2.680569  L 1.469563 2.429059  C 0.926141 2.750060 0.334820 2.989866 -0.291425 3.090929  Z" fill="black" stroke="black" stroke-width="0.005"/>
    <path d="M 0.112921 2.277178 C 0.287044 2.829082 0.210267 3.367121 0.047528 3.904405  L 0.600253 4.137848  C 0.755233 3.457482 0.762785 2.759262 0.460727 2.113344  Z" fill="white" stroke="white" stroke-width="0"/>
    <path d="M 0.199873 2.236219 C 0.409979 2.814821 0.337408 3.386617 0.185709 3.962766  L 0.462072 4.079488  C 0.624055 3.438025 0.641230 2.773759 0.373776 2.154303  Z" fill="black" stroke="black" stroke-width="0.005"/>
    <path d="M 0.270262 -0.032888 C 0.094718 -0.023746 -0.052229 -0.116453 -0.208296 -0.174063  L -0.237044 -0.132270  C -0.072671 -0.061388 0.082377 0.034460 0.270262 0.032888  Z" fill="black" stroke="black" stroke-width="0.005"/>
    <path d="M -0.008245 0.278030 C 0.040905 0.095381 0.014270 -0.090404 0.007811 -0.274720  L -0.090813 -0.259394  C -0.097771 -0.091683 -0.078892 0.080094 -0.135092 0.243143  Z" fill="white" stroke="white" stroke-width="0"/>
    <path d="M -0.039957 0.269308 C 0.010359 0.091453 -0.013105 -0.090615 -0.016845 -0.270889  L -0.066157 -0.263225  C -0.067805 -0.091033 -0.050594 0.083623 -0.103380 0.251865  Z" fill="black" stroke="black" stroke-width="0.005"/>
    <path d="M 0.129305 1.654497 C 0.002242 1.312569 -0.028612 0.950636 -0.063093 0.591528  L -0.172271 0.590623  C -0.142622 0.964276 -0.116246 1.340644 0.010821 1.697873  Z" fill="black" stroke="black" stroke-width="0.005"/>
    <path d="M 0.355587 0.837272 C 0.018055 0.964277 -0.337776 1.017916 -0.691559 1.073507  L -0.667490 1.331722  C -0.291376 1.268501 0.084808 1.195112 0.440769 1.052967  Z" fill="white" stroke="white" stroke-width="0"/>
    <path d="M 0.376883 0.891195 C 0.034928 1.022928 -0.326442 1.079263 -0.685542 1.138060  L -0.673507 1.267168  C -0.302703 1.207133 0.067893 1.136399 0.419474 0.999043  Z" fill="black" stroke="black" stroke-width="0.005"/>
    <path d="M -0.246757 -0.376347 C -0.308841 -0.357934 -0.356750 -0.407487 -0.407874 -0.424905  L -0.427309 -0.403324  C -0.368575 -0.386652 -0.311998 -0.332929 -0.243062 -0.358645  Z" fill="black" stroke="black" stroke-width="0.005"/>
    <path d="M -0.281344 -0.264049 C -0.312975 -0.314528 -0.269206 -0.362254 -0.260812 -0.407203  L -0.287359 -0.432368  C -0.303396 -0.373427 -0.367284 -0.315930 -0.327949 -0.244714  Z" fill="white" stroke="white" stroke-width="0"/>
    <path d="M -0.292995 -0.259216 C -0.326457 -0.314842 -0.277723 -0.365081 -0.267449 -0.413494  L -0.280722 -0.426077  C -0.294820 -0.370666 -0.353626 -0.315540 -0.316298 -0.249548  Z" fill="black" stroke="black" stroke-width="0.005"/>
    <path d="M -0.079585 -0.385511 C -0.114972 -0.445537 -0.187332 -0.429920 -0.239087 -0.447279  L -0.236495 -0.430216  C -0.191714 -0.413304 -0.127632 -0.424200 -0.098190 -0.371358  Z" fill="black" stroke="black" stroke-width="0.005"/>
    <path d="M -0.180058 -0.543492 C -0.165898 -0.488481 -0.207688 -0.444645 -0.223037 -0.398050  L -0.198696 -0.374163  C -0.173511 -0.429517 -0.115609 -0.477529 -0.127256 -0.548153  Z" fill="white" stroke="white" stroke-width="0"/>
    <path d="M -0.166857 -0.544657 C -0.153470 -0.485782 -0.199174 -0.440854 -0.216952 -0.392078  L -0.204781 -0.380135  C -0.182084 -0.433289 -0.128306 -0.480314 -0.140456 -0.546988  Z" fill="black" stroke="black" stroke-width="0.005"/>
  </g>
  <g fill="none" stroke="black">
    <path d="M -0.868 4.3461 C -0.4666 4.6442, 0.1294 4.4817, 0.3239 4.0211" stroke-width="0.305"/>
    <path d="M -2.5856 3.3459 C -3.0429 3.1439, -3.1957 2.5453, -2.8911 2.1488" stroke-width="0.305"/>
    <path d="M -1.6411 -1.0831 C -2.0864 -0.8558, -2.4693 -0.1324, -2.4068 0.3637" stroke-width="0.305"/>
    <path d="M 1.4135 -0.8087 C 1.3234 -1.3005, 0.7374 -1.7286, 0.2415 -1.665" stroke-width="0.305"/>
    <path d="M 1.9916 1.0923 C 2.1907 1.551, 1.9705 2.2823, 1.5513 2.5548" stroke-width="0.305"/>
    <path d="M 0.270262 0.032888 C 0.379775 0.049348 0.484944 0.085349 0.591733 0.111831  L 0.617981 -0.061429  C 0.502073 -0.052916 0.384840 -0.055036 0.270262 -0.032888  Z" fill="black" stroke="black" stroke-width="0.005"/>
    <path d="M -0.2834 3.1848 C -0.411 3.1957, -0.6539 3.2619, -0.7693 3.3173" stroke-width="0.19340000000000002"/>
    <path d="M -1.277099 1.357504 C -1.076047 1.326494 -0.874741 1.296978 -0.673507 1.267168  L -0.685542 1.138060  C -0.888960 1.146393 -1.092403 1.154698 -1.295838 1.162678  Z" fill="black" stroke="black" stroke-width="0.005"/>
    <path d="M 0.419474 0.999043 C 0.562390 0.958614 0.690895 0.883236 0.823871 0.819845  L 0.720109 0.670308  C 0.607054 0.745330 0.501347 0.833531 0.376883 0.891195  Z" fill="black" stroke="black" stroke-width="0.005"/>
    <path d="M -0.589018 -0.547398 C -0.557965 -0.475502 -0.481357 -0.448575 -0.427309 -0.403324  L -0.407874 -0.424905  C -0.416938 -0.477811 -0.450344 -0.532493 -0.429850 -0.586913  Z" fill="black" stroke="black" stroke-width="0.005"/>
    <path d="M -0.243062 -0.358645 C -0.227633 -0.360585 -0.217169 -0.372770 -0.204781 -0.380135  L -0.216952 -0.392078  C -0.226636 -0.386725 -0.235024 -0.377780 -0.246757 -0.376347  Z" fill="black" stroke="black" stroke-width="0.005"/>
    <path d="M -0.140456 -0.546988 C -0.113734 -0.610566 -0.137233 -0.678388 -0.138126 -0.742868  L -0.274463 -0.654458  C -0.239925 -0.620187 -0.188648 -0.594225 -0.166857 -0.544657  Z" fill="black" stroke="black" stroke-width="0.005"/>
    <path d="M -1.864 2.2643 C -1.8105 2.3806, -1.7482 2.6246, -1.7394 2.7523" stroke-width="0.19340000000000002"/>
    <path d="M 0.373776 2.154303 C 0.283367 1.992209 0.208389 1.822227 0.129305 1.654497  L 0.010821 1.697873  C 0.071626 1.878041 0.128205 2.059808 0.199873 2.236219  Z" fill="black" stroke="black" stroke-width="0.005"/>
    <path d="M -0.063093 0.591528 C -0.073936 0.483270 -0.048796 0.376346 -0.039957 0.269308  L -0.103380 0.251865  C -0.127283 0.364142 -0.168427 0.474155 -0.172271 0.590623  Z" fill="black" stroke="black" stroke-width="0.005"/>
    <path d="M -0.016845 -0.270889 C -0.024785 -0.315660 -0.058202 -0.348213 -0.079585 -0.385511  L -0.098190 -0.371358  C -0.086909 -0.335864 -0.064662 -0.302247 -0.066157 -0.263225  Z" fill="black" stroke="black" stroke-width="0.005"/>
    <path d="M -0.239087 -0.447279 C -0.255899 -0.446638 -0.267299 -0.433396 -0.280722 -0.426077  L -0.267449 -0.413494  C -0.257454 -0.419170 -0.248952 -0.429083 -0.236495 -0.430216  Z" fill="black" stroke="black" stroke-width="0.005"/>
    <path d="M -0.316298 -0.249548 C -0.305758 -0.200717 -0.264013 -0.170186 -0.237044 -0.132270  L -0.208296 -0.174063  C -0.236509 -0.201382 -0.275646 -0.220759 -0.292995 -0.259216  Z" fill="black" stroke="black" stroke-width="0.005"/>
  </g>
</svg>
