<?xml version="1.0" encoding="utf-8" ?>
<svg xmlns="http://www.w3.org/2000/svg" xmlns:ev="http://www.w3.org/2001/xml-events" xmlns:xlink="http://www.w3.org/1999/xlink" baseProfile="full" version="1.1" viewBox="-4.273986572119013 -5.359692250607769 7.657642148314489 8.59437329878296">
  <defs/>
  <g stroke="none">
    <path d="M -1.242588 -3.692350 C -1.613537 -3.135245 -1.639948 -2.503364 -1.449781 -1.880938  L -1.285822 -1.953620  C -1.373946 -2.509434 -1.372919 -3.025903 -1.013356 -3.498823  Z" fill="black" stroke="black" stroke-width="0.005"/>
    <path d="M -2.325250 -1.945428 C -1.899351 -2.328360 -1.369906 -2.427948 -0.820798 -2.475084  L -0.756307 -2.837217  C -1.451661 -2.912020 -2.134201 -2.799368 -2.721798 -2.395705  Z" fill="white" stroke="white" stroke-width="0"/>
    <path d="M -2.424387 -2.057997 C -1.953661 -2.448988 -1.392960 -2.539711 -0.804675 -2.565617  L -0.772429 -2.746684  C -1.430565 -2.798059 -2.076633 -2.676225 -2.622661 -2.283136  Z" fill="black" stroke="black" stroke-width="0.005"/>
    <path d="M -0.333151 -2.543147 C 0.290647 -2.539178 0.892314 -2.362609 1.444308 -2.082254  L 1.595477 -2.341383  C 0.981340 -2.603889 0.325643 -2.772452 -0.348032 -2.726459  Z" fill="black" stroke="black" stroke-width="0.005"/>
    <path d="M -0.159972 -3.366853 C 0.148202 -2.914967 0.124100 -2.425184 0.029698 -1.914800  L 0.355954 -1.744234  C 0.623479 -2.392259 0.662300 -3.068001 0.333220 -3.708556  Z" fill="white" stroke="white" stroke-width="0"/>
    <path d="M -0.036674 -3.452279 C 0.278302 -2.945950 0.239304 -2.423681 0.111262 -1.872159  L 0.274390 -1.786875  C 0.505890 -2.397048 0.528570 -3.033393 0.209922 -3.623130  Z" fill="black" stroke="black" stroke-width="0.005"/>
    <path d="M 2.314280 1.223498 C 2.136847 0.578956 1.665731 0.175188 1.055373 -0.040050  L 1.016713 0.143661  C 1.504366 0.397172 1.892842 0.698297 2.017738 1.268918  Z" fill="black" stroke="black" stroke-width="0.005"/>
    <path d="M 1.904284 -0.780449 C 1.813046 -0.187342 1.490221 0.303526 1.137946 0.771637  L 1.373158 1.045881  C 1.883542 0.572904 2.290230 0.003717 2.493981 -0.669735  Z" fill="white" stroke="white" stroke-width="0"/>
    <path d="M 2.051708 -0.752771 C 1.921051 -0.146962 1.601939 0.379816 1.196749 0.840198  L 1.314355 0.977320  C 1.789438 0.509220 2.167554 -0.047191 2.346557 -0.697414  Z" fill="black" stroke="black" stroke-width="0.005"/>
    <path d="M 0.900848 1.142063 C 0.465460 1.576868 -0.082037 1.748132 -0.668713 1.847168  L -0.660991 2.147068  C -0.011860 2.026831 0.596178 1.763678 1.040288 1.256910  Z" fill="black" stroke="black" stroke-width="0.005"/>
    <path d="M 1.365608 1.805642 C 0.845827 1.726415 0.556726 1.379290 0.305194 0.954874  L -0.056192 1.032619  C 0.161525 1.699665 0.587903 2.206621 1.286618 2.400419  Z" fill="white" stroke="white" stroke-width="0"/>
    <path d="M 1.345860 1.954336 C 0.774068 1.840771 0.471239 1.458436 0.214848 0.974310  L 0.034154 1.013183  C 0.252053 1.621483 0.659318 2.086296 1.306365 2.251725  Z" fill="black" stroke="black" stroke-width="0.005"/>
    <path d="M -2.769576 -0.633257 C -2.301516 -0.149783 -1.686526 0.080040 -1.029278 0.139232  L -1.031303 -0.047746  C -1.605516 -0.170620 -2.140115 -0.353653 -2.534642 -0.819820  Z" fill="black" stroke="black" stroke-width="0.005"/>
    <path d="M -1.552434 0.984859 C -1.674759 0.408870 -1.521358 -0.137686 -1.324238 -0.673870  L -1.621142 -0.873275  C -1.979966 -0.275502 -2.190880 0.388906 -2.142318 1.094572  Z" fill="white" stroke="white" stroke-width="0"/>
    <path d="M -1.699905 1.012287 C -1.789080 0.408135 -1.653467 -0.177340 -1.398464 -0.723721  L -1.546916 -0.823424  C -1.870901 -0.243876 -2.057487 0.396469 -1.994847 1.067144  Z" fill="black" stroke="black" stroke-width="0.005"/>
    <path d="M 0.110374 0.530023 C 0.074092 0.172601 0.032179 -0.184202 -0.009573 -0.541012  L -0.118654 -0.527927  C -0.078942 -0.171680 -0.038784 0.184536 -0.004640 0.541374  Z" fill="black" stroke="black" stroke-width="0.005"/>
    <path d="M 0.538301 -0.118480 C 0.177307 -0.118306 -0.183358 -0.102780 -0.543950 -0.088017  L -0.531029 0.147096  C -0.174735 0.133033 0.181633 0.118154 0.538301 0.118480  Z" fill="white" stroke="white" stroke-width="0"/>
    <path d="M 0.538301 -0.059240 C 0.178388 -0.059191 -0.181202 -0.043827 -0.540720 -0.029239  L -0.534259 0.088318  C -0.176891 0.074079 0.180551 0.059039 0.538301 0.059240  Z" fill="black" stroke="black" stroke-width="0.005"/>
    <path d="M -0.070035 -1.460067 C -0.164588 -1.298418 -0.337903 -1.265297 -0.487132 -1.187299  L -0.480778 -1.136402  C -0.305791 -1.209620 -0.122794 -1.245799 -0.005454 -1.417355  Z" fill="black" stroke="black" stroke-width="0.005"/>
    <path d="M -0.483546 -1.262121 C -0.322553 -1.190104 -0.283827 -1.031859 -0.201974 -0.899737  L -0.060839 -0.932719  C -0.170295 -1.099197 -0.236600 -1.278400 -0.443785 -1.356864  Z" fill="white" stroke="white" stroke-width="0"/>
    <path d="M -0.473606 -1.285807 C -0.300179 -1.213634 -0.256512 -1.047021 -0.166690 -0.907982  L -0.096123 -0.924473  C -0.197654 -1.083632 -0.259052 -1.255219 -0.453725 -1.333178  Z" fill="black" stroke="black" stroke-width="0.005"/>
    <path d="M -0.775241 -1.203168 C -0.702463 -1.234443 -0.629721 -1.265802 -0.556963 -1.297124  L -0.567208 -1.320852  C -0.639917 -1.289436 -0.712611 -1.257984 -0.785338 -1.226608  Z" fill="black" stroke="black" stroke-width="0.005"/>
    <path d="M -0.781497 -1.312875 C -0.718235 -1.265555 -0.656451 -1.216311 -0.593994 -1.167949  L -0.562014 -1.208352  C -0.624868 -1.256885 -0.687046 -1.306308 -0.750714 -1.353784  Z" fill="white" stroke="white" stroke-width="0"/>
    <path d="M -0.773801 -1.323102 C -0.710438 -1.275743 -0.648555 -1.226455 -0.585999 -1.178050  L -0.570009 -1.198251  C -0.632764 -1.246742 -0.694843 -1.296120 -0.758410 -1.343557  Z" fill="black" stroke="black" stroke-width="0.005"/>
    <path d="M -0.862500 -1.379365 C -1.050082 -1.359562 -1.154319 -1.216602 -1.289159 -1.112699  L -1.232063 -1.075483  C -1.113748 -1.173688 -1.023037 -1.306885 -0.854886 -1.332879  Z" fill="black" stroke="black" stroke-width="0.005"/>
    <path d="M -1.279110 -1.531282 C -1.201620 -1.351446 -1.039420 -1.275850 -0.892795 -1.170591  L -0.857046 -1.257591  C -0.965235 -1.357679 -1.103491 -1.428691 -1.151707 -1.582604  Z" fill="white" stroke="white" stroke-width="0"/>
    <path d="M -1.247260 -1.544112 C -1.180224 -1.368638 -1.017014 -1.298929 -0.883858 -1.192341  L -0.865983 -1.235841  C -0.982417 -1.338123 -1.128973 -1.408765 -1.183558 -1.569774  Z" fill="black" stroke="black" stroke-width="0.005"/>
  </g>
  <g fill="none" stroke="black">
    <path d="M -2.5235 -2.1706 C -2.8988 -1.8401, -2.963 -1.1181, -2.6521 -0.7265" stroke-width="0.305"/>
    <path d="M -1.128 -3.5956 C -0.8054 -3.9776, -0.1981 -3.9487, 0.0866 -3.5377" stroke-width="0.305"/>
    <path d="M 2.1991 -0.7251 C 2.2914 -1.2165, 1.9518 -1.9599, 1.5199 -2.2118" stroke-width="0.305"/>
    <path d="M 2.166 1.2462 C 2.2417 1.7404, 1.8218 2.1689, 1.3261 2.103" stroke-width="0.305"/>
    <path d="M -1.8474 1.0397 C -1.7559 1.5313, -1.1647 2.01, -0.6649 1.9971" stroke-width="0.305"/>
    <path d="M 0.9706 1.1995 C 1.0355 1.1206, 1.178 0.9753, 1.2556 0.9088" stroke-width="0.18560000000000001"/>
    <path d="M -0.3406 -2.6348 C -0.4533 -2.6257, -0.6773 -2.6363, -0.7886 -2.6562" stroke-width="0.1889"/>
    <path d="M -1.029278 0.139232 C -0.863870 0.126130 -0.699183 0.105766 -0.534259 0.088318  L -0.540720 -0.029239  C -0.704275 -0.034274 -0.868015 -0.036740 -1.031303 -0.047746  Z" fill="black" stroke="black" stroke-width="0.005"/>
    <path d="M 0.538301 0.059240 C 0.701012 0.068342 0.858086 0.112324 1.016713 0.143661  L 1.055373 -0.040050  C 0.883385 -0.051992 0.711062 -0.073877 0.538301 -0.059240  Z" fill="black" stroke="black" stroke-width="0.005"/>
    <path d="M 0.214848 0.974310 C 0.169496 0.828869 0.143008 0.678579 0.110374 0.530023  L -0.004640 0.541374  C 0.006597 0.698683 0.010940 0.856781 0.034154 1.013183  Z" fill="black" stroke="black" stroke-width="0.005"/>
    <path d="M -0.009573 -0.541012 C -0.029856 -0.670720 -0.066415 -0.796935 -0.096123 -0.924473  L -0.166690 -0.907982  C -0.149487 -0.781494 -0.125689 -0.655635 -0.118654 -0.527927  Z" fill="black" stroke="black" stroke-width="0.005"/>
    <path d="M -0.453725 -1.333178 C -0.492953 -1.350597 -0.530587 -1.326201 -0.567208 -1.320852  L -0.556963 -1.297124  C -0.529751 -1.294238 -0.498199 -1.304654 -0.473606 -1.285807  Z" fill="black" stroke="black" stroke-width="0.005"/>
    <path d="M -0.785338 -1.226608 C -0.813164 -1.215696 -0.840171 -1.232204 -0.865983 -1.235841  L -0.883858 -1.192341  C -0.848464 -1.194655 -0.808371 -1.179329 -0.775241 -1.203168  Z" fill="black" stroke="black" stroke-width="0.005"/>
    <path d="M -1.183558 -1.569774 C -1.214039 -1.698604 -1.250906 -1.825923 -1.285822 -1.953620  L -1.449781 -1.880938  C -1.382487 -1.768621 -1.313004 -1.657428 -1.247260 -1.544112  Z" fill="black" stroke="black" stroke-width="0.005"/>
    <path d="M 0.111262 -1.872159 C 0.060215 -1.730901 -0.007573 -1.596476 -0.070035 -1.460067  L -0.005454 -1.417355  C 0.088802 -1.539643 0.188225 -1.658306 0.274390 -1.786875  Z" fill="black" stroke="black" stroke-width="0.005"/>
    <path d="M -0.487132 -1.187299 C -0.515634 -1.175878 -0.543145 -1.193906 -0.570009 -1.198251  L -0.585999 -1.178050  C -0.552378 -1.163310 -0.522756 -1.130379 -0.480778 -1.136402  Z" fill="black" stroke="black" stroke-width="0.005"/>
    <path d="M -0.758410 -1.343557 C -0.785281 -1.374910 -0.828316 -1.368911 -0.862500 -1.379365  L -0.854886 -1.332879  C -0.828792 -1.330431 -0.798448 -1.340479 -0.773801 -1.323102  Z" fill="black" stroke="black" stroke-width="0.005"/>
    <path d="M -1.289159 -1.112699 C -1.374820 -1.016083 -1.461334 -0.920075 -1.546916 -0.823424  L -1.398464 -0.723721  C -1.342414 -0.840657 -1.285742 -0.957442 -1.232063 -1.075483  Z" fill="black" stroke="black" stroke-width="0.005"/>
  </g>
</svg>
