<?xml version="1.0" encoding="utf-8" ?>
<svg xmlns="http://www.w3.org/2000/svg" xmlns:ev="http://www.w3.org/2001/xml-events" xmlns:xlink="http://www.w3.org/1999/xlink" baseProfile="full" version="1.1" viewBox="-7.177828766184614 -5.343562880996361 10.048995861210368 8.608925773698578">
  <defs/>
  <g stroke="none">
    <path d="M -4.464685 -1.520195 C -4.668948 -2.105547 -4.693159 -2.727835 -4.597182 -3.335017  L -4.889873 -3.400836  C -4.951702 -2.736585 -4.903932 -2.062446 -4.635459 -1.442786  Z" fill="black" stroke="black" stroke-width="0.005"/>
    <path d="M -5.332069 -1.415699 C -4.988478 -1.871338 -4.490019 -2.066976 -3.961261 -2.213904  L -3.964665 -2.588834  C -4.662299 -2.531939 -5.310824 -2.291766 -5.808682 -1.780171  Z" fill="white" stroke="white" stroke-width="0"/>
    <path d="M -5.451222 -1.506817 C -5.065243 -1.980190 -4.533966 -2.173572 -3.962112 -2.307637  L -3.963814 -2.495102  C -4.619848 -2.422861 -5.230470 -2.181160 -5.689528 -1.689053  Z" fill="black" stroke="black" stroke-width="0.005"/>
    <path d="M -1.532060 -4.075239 C -2.198089 -4.088184 -2.714717 -3.750904 -3.086822 -3.224259  L -2.936371 -3.144502  C -2.555018 -3.540430 -2.157525 -3.826643 -1.574411 -3.778243  Z" fill="black" stroke="black" stroke-width="0.005"/>
    <path d="M -2.421213 -3.060390 C -2.406150 -3.795067 -2.849774 -4.245666 -3.492330 -4.502873  L -3.575025 -3.908600  C -3.143134 -3.775853 -2.853079 -3.552146 -2.767070 -3.078025  Z" fill="white" stroke="white" stroke-width="0"/>
    <path d="M -2.507677 -3.064799 C -2.515195 -3.727630 -2.924886 -4.136061 -3.513004 -4.354305  L -3.554351 -4.057168  C -3.072591 -3.876196 -2.746527 -3.623366 -2.680606 -3.073616  Z" fill="black" stroke="black" stroke-width="0.005"/>
    <path d="M -0.956155 -1.415651 C -0.356974 -1.578539 0.266849 -1.562766 0.868638 -1.431907  L 0.951499 -1.720237  C 0.291545 -1.824601 -0.385346 -1.822585 -1.024422 -1.602477  Z" fill="black" stroke="black" stroke-width="0.005"/>
    <path d="M 0.120677 -0.849832 C 0.160519 -1.534576 0.088274 -2.219953 -0.017146 -2.895757  L -0.597135 -2.742091  C -0.416876 -2.127002 -0.300753 -1.494473 -0.250119 -0.854908  Z" fill="white" stroke="white" stroke-width="0"/>
    <path d="M 0.027978 -0.851101 C 0.045605 -1.524865 -0.038867 -2.196384 -0.162143 -2.857340  L -0.452138 -2.780508  C -0.291473 -2.149839 -0.185017 -1.504851 -0.157420 -0.853639  Z" fill="black" stroke="black" stroke-width="0.005"/>
    <path d="M 0.952975 1.545329 C 1.263614 0.968170 1.103164 0.433134 0.653315 0.001691  L 0.556012 0.138933  C 0.849465 0.539213 0.992194 0.903225 0.710472 1.368715  Z" fill="black" stroke="black" stroke-width="0.005"/>
    <path d="M 0.409115 0.574335 C 1.129270 0.727738 1.622135 0.353305 1.938085 -0.257984  L 1.353520 -0.393202  C 1.157989 -0.011192 0.979296 0.256281 0.489113 0.247513  Z" fill="white" stroke="white" stroke-width="0"/>
    <path d="M 0.429114 0.492629 C 1.078174 0.608990 1.522198 0.265955 1.791944 -0.291788  L 1.499662 -0.359398  C 1.281157 0.090253 1.009325 0.361700 0.469113 0.329218  Z" fill="black" stroke="black" stroke-width="0.005"/>
    <path d="M -0.748220 0.440054 C -1.254104 0.829464 -1.831496 1.110110 -2.435533 1.308406  L -2.352116 1.596576  C -1.729375 1.346219 -1.129459 1.027319 -0.624890 0.578505  Z" fill="black" stroke="black" stroke-width="0.005"/>
    <path d="M -0.431487 1.468459 C -0.943604 1.153480 -1.281687 0.669397 -1.587897 0.167317  L -1.955706 0.299650  C -1.692132 0.944471 -1.308025 1.531074 -0.758765 1.971339  Z" fill="white" stroke="white" stroke-width="0"/>
    <path d="M -0.513306 1.594179 C -1.025240 1.244876 -1.398411 0.744847 -1.679849 0.200400  L -1.863754 0.266567  C -1.594408 0.878257 -1.213030 1.434857 -0.676945 1.845619  Z" fill="black" stroke="black" stroke-width="0.005"/>
    <path d="M -5.319982 -0.268231 C -4.679449 -0.058304 -4.021631 -0.127383 -3.400981 -0.358118  L -3.486540 -0.533809  C -4.061194 -0.391369 -4.630853 -0.315710 -5.200665 -0.543482  Z" fill="black" stroke="black" stroke-width="0.005"/>
    <path d="M -3.587802 0.712943 C -3.913168 0.181705 -4.103541 -0.415910 -4.239203 -1.020269  L -4.612901 -0.989057  C -4.550834 -0.301023 -4.396528 0.377783 -4.109406 1.009471  Z" fill="white" stroke="white" stroke-width="0"/>
    <path d="M -3.718203 0.787075 C -4.033618 0.230802 -4.215771 -0.387291 -4.332628 -1.012466  L -4.519477 -0.996860  C -4.439346 -0.329544 -4.274781 0.328351 -3.979005 0.935339  Z" fill="black" stroke="black" stroke-width="0.005"/>
    <path d="M 0.280070 0.265318 C 0.120291 0.076168 0.071123 -0.158048 0.004145 -0.386705  L -0.088299 -0.376512  C -0.011460 -0.132834 0.045533 0.116948 0.222767 0.314972  Z" fill="black" stroke="black" stroke-width="0.005"/>
    <path d="M 0.383921 -0.075824 C 0.109116 -0.083744 -0.125394 0.038850 -0.368787 0.141567  L -0.263117 0.294643  C -0.055344 0.196693 0.145395 0.082669 0.383921 0.075824  Z" fill="white" stroke="white" stroke-width="0"/>
    <path d="M 0.383921 -0.037912 C 0.118201 -0.042174 -0.107893 0.078329 -0.342370 0.179836  L -0.289535 0.256374  C -0.072867 0.157251 0.136339 0.041029 0.383921 0.037912  Z" fill="black" stroke="black" stroke-width="0.005"/>
    <path d="M -2.627290 -1.594652 C -2.421342 -1.171902 -2.237238 -0.739141 -2.056867 -0.305058  L -1.915883 -0.361152  C -2.099681 -0.798080 -2.286739 -1.233902 -2.496423 -1.659221  Z" fill="black" stroke="black" stroke-width="0.005"/>
    <path d="M -1.657334 -1.412085 C -2.092105 -1.225065 -2.524834 -1.033369 -2.957097 -0.840643  L -2.833209 -0.563679  C -2.401591 -0.753381 -1.969759 -0.942634 -1.535633 -1.126548  Z" fill="white" stroke="white" stroke-width="0"/>
    <path d="M -1.626908 -1.340701 C -2.061518 -1.154457 -2.494024 -0.963372 -2.926125 -0.771402  L -2.864181 -0.632920  C -2.432402 -0.823378 -2.000346 -1.013241 -1.566058 -1.197932  Z" fill="black" stroke="black" stroke-width="0.005"/>
    <path d="M -2.742159 -2.836257 C -2.945411 -2.633892 -3.211499 -2.570757 -3.471262 -2.485007  L -3.458918 -2.381344  C -3.175277 -2.469745 -2.895645 -2.555146 -2.677790 -2.773247  Z" fill="black" stroke="black" stroke-width="0.005"/>
    <path d="M -3.149484 -2.922301 C -3.127651 -2.612925 -3.011453 -2.328188 -2.899788 -2.043825  L -2.713191 -2.146807  C -2.826225 -2.401706 -2.940992 -2.657432 -2.975792 -2.938161  Z" fill="white" stroke="white" stroke-width="0"/>
    <path d="M -3.106061 -2.926266 C -3.081028 -2.624043 -2.965107 -2.346575 -2.853139 -2.069570  L -2.759841 -2.121062  C -2.872491 -2.383335 -2.987701 -2.646294 -3.019215 -2.934196  Z" fill="black" stroke="black" stroke-width="0.005"/>
  </g>
  <g fill="none" stroke="black">
    <path d="M -5.2603 -0.4059 C -5.7191 -0.6047, -5.8741 -1.2008, -5.5704 -1.5979" stroke-width="0.305"/>
    <path d="M -3.5337 -4.2057 C -4.0289 -4.2746, -4.6338 -3.8557, -4.7435 -3.3679" stroke-width="0.305"/>
    <path d="M -1.5532 -3.9267 C -1.0582 -3.8562, -0.4352 -3.3022, -0.3071 -2.8189" stroke-width="0.305"/>
    <path d="M 1.6458 -0.3256 C 1.7585 -0.8127, 1.3906 -1.438, 0.9101 -1.5761" stroke-width="0.305"/>
    <path d="M 0.8317 1.457 C 0.5374 1.8612, -0.1761 1.9926, -0.5951 1.7199" stroke-width="0.305"/>
    <path d="M -3.8486 0.8612 C -3.6015 1.2959, -2.8741 1.5915, -2.3938 1.4525" stroke-width="0.305"/>
    <path d="M -4.5501 -1.4815 C -4.4985 -1.3676, -4.4365 -1.1292, -4.4261 -1.0047" stroke-width="0.1925"/>
    <path d="M -0.624890 0.578505 C -0.521751 0.462473 -0.403052 0.361849 -0.289535 0.256374  L -0.342370 0.179836  C -0.478525 0.264968 -0.619103 0.343726 -0.748220 0.440054  Z" fill="black" stroke="black" stroke-width="0.005"/>
    <path d="M 0.383921 0.037912 C 0.454034 0.047995 0.501231 0.105487 0.556012 0.138933  L 0.653315 0.001691  C 0.565384 -0.013700 0.477664 -0.064813 0.383921 -0.037912  Z" fill="black" stroke="black" stroke-width="0.005"/>
    <path d="M -1.679849 0.200400 C -1.755323 0.011865 -1.836417 -0.174311 -1.915883 -0.361152  L -2.056867 -0.305058  C -1.991428 -0.114886 -1.924154 0.074714 -1.863754 0.266567  Z" fill="black" stroke="black" stroke-width="0.005"/>
    <path d="M -2.496423 -1.659221 C -2.580494 -1.815301 -2.671106 -1.967662 -2.759841 -2.121062  L -2.853139 -2.069570  C -2.776674 -1.911840 -2.698121 -1.755034 -2.627290 -1.594652  Z" fill="black" stroke="black" stroke-width="0.005"/>
    <path d="M -3.019215 -2.934196 C -3.017940 -3.013665 -2.964371 -3.076692 -2.936371 -3.144502  L -3.086822 -3.224259  C -3.095615 -3.126541 -3.140331 -3.026387 -3.106061 -2.926266  Z" fill="black" stroke="black" stroke-width="0.005"/>
    <path d="M -0.157420 -0.853639 C -0.145665 -0.692978 -0.113124 -0.535161 -0.088299 -0.376512  L 0.004145 -0.386705  C 0.009518 -0.541567 0.007831 -0.697169 0.027978 -0.851101  Z" fill="black" stroke="black" stroke-width="0.005"/>
    <path d="M 0.222767 0.314972 C 0.263827 0.403434 0.359899 0.436256 0.429114 0.492629  L 0.469113 0.329218  C 0.407962 0.309721 0.333606 0.311702 0.280070 0.265318  Z" fill="black" stroke="black" stroke-width="0.005"/>
    <path d="M -1.024422 -1.602477 C -1.227541 -1.520476 -1.426958 -1.429943 -1.626908 -1.340701  L -1.566058 -1.197932  C -1.363490 -1.272500 -1.161619 -1.349295 -0.956155 -1.415651  Z" fill="black" stroke="black" stroke-width="0.005"/>
    <path d="M -2.926125 -0.771402 C -3.114516 -0.696014 -3.300178 -0.614031 -3.486540 -0.533809  L -3.400981 -0.358118  C -3.222431 -0.450442 -3.044635 -0.544280 -2.864181 -0.632920  Z" fill="black" stroke="black" stroke-width="0.005"/>
    <path d="M -3.962112 -2.307637 C -3.792856 -2.321695 -3.626296 -2.355108 -3.458918 -2.381344  L -3.471262 -2.485007  C -3.635439 -2.485984 -3.800056 -2.480335 -3.963814 -2.495102  Z" fill="black" stroke="black" stroke-width="0.005"/>
    <path d="M -2.677790 -2.773247 C -2.572707 -2.838875 -2.560162 -2.968013 -2.507677 -3.064799  L -2.680606 -3.073616  C -2.698700 -2.996908 -2.685045 -2.904227 -2.742159 -2.836257  Z" fill="black" stroke="black" stroke-width="0.005"/>
  </g>
</svg>
