<?xml version="1.0" encoding="utf-8" ?>
<svg xmlns="http://www.w3.org/2000/svg" xmlns:ev="http://www.w3.org/2001/xml-events" xmlns:xlink="http://www.w3.org/1999/xlink" baseProfile="full" version="1.1" viewBox="-3.458757477225993 -5.253683420012984 7.766457706516036 8.82009201049474">
  <defs/>
  <g stroke="none">
    <path d="M -1.559871 -1.588040 C -1.037583 -1.969933 -0.451130 -2.252300 0.149304 -2.487280  L 0.096169 -2.667470  C -0.544942 -2.463173 -1.166569 -2.194389 -1.735317 -1.831389  Z" fill="black" stroke="black" stroke-width="0.005"/>
    <path d="M -0.072395 -1.621157 C -0.358995 -2.120726 -0.393393 -2.658146 -0.341478 -3.213785  L -0.929223 -3.334432  C -0.946474 -2.636511 -0.811559 -1.952400 -0.377572 -1.385339  Z" fill="white" stroke="white" stroke-width="0"/>
    <path d="M -0.148690 -1.562202 C -0.476775 -2.081140 -0.521907 -2.651427 -0.488415 -3.243947  L -0.782287 -3.304270  C -0.813889 -2.644089 -0.695229 -1.991963 -0.301278 -1.444293  Z" fill="black" stroke="black" stroke-width="0.005"/>
    <path d="M 0.404121 -3.688354 C 0.948877 -3.409082 1.255639 -2.929457 1.513957 -2.399642  L 1.696612 -2.443564  C 1.479707 -3.067627 1.110224 -3.612636 0.533091 -3.959217  Z" fill="black" stroke="black" stroke-width="0.005"/>
    <path d="M 2.414751 -3.433788 C 1.708129 -3.530214 1.046256 -3.325734 0.455952 -2.949935  L 0.679488 -2.647942  C 1.192015 -2.852193 1.710930 -3.001034 2.264432 -2.852923  Z" fill="white" stroke="white" stroke-width="0"/>
    <path d="M 2.377172 -3.288572 C 1.712229 -3.393702 1.078958 -3.213369 0.511836 -2.874437  L 0.623604 -2.723441  C 1.161920 -2.963540 1.705121 -3.134055 2.302012 -2.998139  Z" fill="black" stroke="black" stroke-width="0.005"/>
    <path d="M 2.700552 -2.084201 C 2.393964 -1.553093 1.899358 -1.264169 1.358651 -1.025117  L 1.397039 -0.838328  C 2.028991 -1.033756 2.590008 -1.381769 2.964522 -1.941652  Z" fill="black" stroke="black" stroke-width="0.005"/>
    <path d="M 1.647507 -1.861988 C 1.943735 -1.313780 2.086067 -0.712222 2.182410 -0.103763  L 2.777871 -0.177423  C 2.605258 -0.845916 2.361614 -1.501771 1.960455 -2.069910  Z" fill="white" stroke="white" stroke-width="0"/>
    <path d="M 1.725744 -1.913969 C 2.038770 -1.359396 2.229155 -0.747857 2.331275 -0.122178  L 2.629006 -0.159008  C 2.479017 -0.813042 2.254448 -1.454332 1.882218 -2.017930  Z" fill="black" stroke="black" stroke-width="0.005"/>
    <path d="M -0.099519 1.024374 C 0.443990 1.418931 1.084736 1.477689 1.725216 1.353997  L 1.616512 1.074384  C 1.053671 1.188694 0.521946 1.200465 0.009452 0.886813  Z" fill="black" stroke="black" stroke-width="0.005"/>
    <path d="M 0.018372 2.332152 C 0.588647 1.888039 0.789378 1.258987 0.733795 0.561468  L 0.390607 0.623050  C 0.315360 1.112451 0.177463 1.544230 -0.278589 1.810794  Z" fill="white" stroke="white" stroke-width="0"/>
    <path d="M -0.055868 2.201813 C 0.479085 1.804234 0.679095 1.221056 0.647998 0.576863  L 0.476404 0.607654  C 0.420952 1.153344 0.284623 1.621800 -0.204349 1.941134  Z" fill="black" stroke="black" stroke-width="0.005"/>
    <path d="M -1.072430 0.339983 C -1.658696 0.636428 -1.776674 1.170387 -1.610307 1.760896  L -1.347069 1.617001  C -1.477850 1.148451 -1.445715 0.789967 -1.005833 0.495442  Z" fill="black" stroke="black" stroke-width="0.005"/>
    <path d="M -0.966531 0.601738 C -1.464837 0.512452 -1.731171 0.207904 -1.918090 -0.231766  L -2.499005 -0.081640  C -2.172329 0.529197 -1.681443 0.949871 -0.952042 0.934146  Z" fill="white" stroke="white" stroke-width="0"/>
    <path d="M -0.962908 0.684840 C -1.528617 0.618377 -1.825845 0.283618 -2.063319 -0.194235  L -2.353776 -0.119172  C -2.069819 0.447983 -1.620691 0.842481 -0.955664 0.851044  Z" fill="black" stroke="black" stroke-width="0.005"/>
    <path d="M 0.149041 0.096227 C 0.051943 0.035619 0.081917 -0.083534 0.056079 -0.168854  L 0.013913 -0.177378  C 0.045864 -0.080245 0.013455 0.056906 0.128360 0.122460  Z" fill="black" stroke="black" stroke-width="0.005"/>
    <path d="M 0.176618 -0.032155 C 0.048224 -0.048899 -0.055297 0.035391 -0.167196 0.072941  L -0.110958 0.144787  C -0.017979 0.105878 0.066405 0.027709 0.176618 0.032155  Z" fill="white" stroke="white" stroke-width="0"/>
    <path d="M 0.176618 -0.016077 C 0.052725 -0.029600 -0.045893 0.052967 -0.153137 0.090903  L -0.125017 0.126826  C -0.027377 0.088262 0.061940 0.008437 0.176618 0.016077  Z" fill="black" stroke="black" stroke-width="0.005"/>
    <path d="M 0.495230 0.272834 C 0.453382 0.151762 0.336104 0.091394 0.255160 0.005661  L 0.237955 0.033760  C 0.308605 0.116976 0.414724 0.179063 0.447549 0.292612  Z" fill="black" stroke="black" stroke-width="0.005"/>
    <path d="M 0.224206 0.167209 C 0.372376 0.172962 0.413539 0.028829 0.499605 -0.044643  L 0.417073 -0.071687  C 0.356489 -0.015166 0.325701 0.097884 0.217254 0.099167  Z" fill="white" stroke="white" stroke-width="0"/>
    <path d="M 0.222468 0.150199 C 0.359552 0.156933 0.400780 0.016565 0.478972 -0.051404  L 0.437706 -0.064926  C 0.371248 -0.004570 0.336972 0.117561 0.218992 0.116178  Z" fill="black" stroke="black" stroke-width="0.005"/>
    <path d="M -0.744066 0.723554 C -0.576409 0.604695 -0.440702 0.450264 -0.296672 0.305947  L -0.346288 0.264288  C -0.486190 0.405620 -0.617964 0.556733 -0.780809 0.673589  Z" fill="black" stroke="black" stroke-width="0.005"/>
    <path d="M -0.249921 0.680332 C -0.400300 0.529206 -0.596507 0.449604 -0.779857 0.351295  L -0.825076 0.472713  C -0.660514 0.565935 -0.483669 0.642586 -0.349468 0.782020  Z" fill="white" stroke="white" stroke-width="0"/>
    <path d="M -0.274808 0.705754 C -0.421152 0.557565 -0.612515 0.478693 -0.791162 0.381649  L -0.813771 0.442359  C -0.644518 0.536858 -0.462838 0.614255 -0.324582 0.756598  Z" fill="black" stroke="black" stroke-width="0.005"/>
    <path d="M 0.517811 -0.272813 C 0.476539 -0.576213 0.323263 -0.832844 0.172868 -1.090898  L 0.087735 -1.021348  C 0.236394 -0.782789 0.386139 -0.544721 0.435415 -0.261031  Z" fill="black" stroke="black" stroke-width="0.005"/>
    <path d="M 0.191568 -0.312343 C 0.376690 -0.519048 0.628987 -0.604357 0.873401 -0.709095  L 0.823184 -0.918741  C 0.542470 -0.790969 0.263624 -0.667490 0.062983 -0.419283  Z" fill="white" stroke="white" stroke-width="0"/>
    <path d="M 0.159422 -0.339078 C 0.350259 -0.552356 0.604514 -0.656329 0.860847 -0.761506  L 0.835738 -0.866329  C 0.563193 -0.746057 0.292463 -0.629130 0.095129 -0.392548  Z" fill="black" stroke="black" stroke-width="0.005"/>
  </g>
  <g fill="none" stroke="black">
    <path d="M -1.6476 -1.7097 C -2.0532 -1.4173, -2.3337 -0.6408, -2.2085 -0.1567" stroke-width="0.305"/>
    <path d="M 0.4686 -3.8238 C 0.0172 -4.0387, -0.5348 -3.7639, -0.6354 -3.2741" stroke-width="0.305"/>
    <path d="M 2.8325 -2.0129 C 3.0701 -2.4529, 2.8236 -3.0181, 2.3396 -3.1434" stroke-width="0.305"/>
    <path d="M 1.6709 1.2142 C 2.1369 1.033, 2.5415 0.3556, 2.4801 -0.1406" stroke-width="0.305"/>
    <path d="M -0.1301 2.0715 C -0.5646 2.3189, -1.2389 2.1277, -1.4787 1.6889" stroke-width="0.305"/>
    <path d="M 0.176618 0.016077 C 0.198827 0.014775 0.217898 0.027589 0.237955 0.033760  L 0.255160 0.005661  C 0.229498 -0.002080 0.205125 -0.018682 0.176618 -0.016077  Z" fill="black" stroke="black" stroke-width="0.005"/>
    <path d="M 0.447549 0.292612 C 0.471424 0.396176 0.467286 0.503169 0.476404 0.607654  L 0.647998 0.576863  C 0.598324 0.475100 0.561786 0.365744 0.495230 0.272834  Z" fill="black" stroke="black" stroke-width="0.005"/>
    <path d="M -1.005833 0.495442 C -0.955095 0.443177 -0.876935 0.457693 -0.813771 0.442359  L -0.791162 0.381649  C -0.881871 0.364740 -0.973118 0.301923 -1.072430 0.339983  Z" fill="black" stroke="black" stroke-width="0.005"/>
    <path d="M -0.324582 0.756598 C -0.256618 0.851556 -0.175119 0.935648 -0.099519 1.024374  L 0.009452 0.886813  C -0.085187 0.826640 -0.183805 0.771944 -0.274808 0.705754  Z" fill="black" stroke="black" stroke-width="0.005"/>
    <path d="M 1.804 -1.9659 C 1.7341 -2.0711, 1.6348 -2.2989, 1.6053 -2.4216" stroke-width="0.19290000000000002"/>
    <path d="M -0.301278 -1.444293 C -0.173274 -1.301770 -0.042294 -1.161973 0.087735 -1.021348  L 0.172868 -1.090898  C 0.064835 -1.247401 -0.044557 -1.403072 -0.148690 -1.562202  Z" fill="black" stroke="black" stroke-width="0.005"/>
    <path d="M 0.435415 -0.261031 C 0.456139 -0.196771 0.438122 -0.129773 0.437706 -0.064926  L 0.478972 -0.051404  C 0.493082 -0.124148 0.527599 -0.195736 0.517811 -0.272813  Z" fill="black" stroke="black" stroke-width="0.005"/>
    <path d="M 0.218992 0.116178 C 0.193007 0.121244 0.171595 0.103280 0.149041 0.096227  L 0.128360 0.122460  C 0.158667 0.132501 0.186945 0.157870 0.222468 0.150199  Z" fill="black" stroke="black" stroke-width="0.005"/>
    <path d="M 0.056079 -0.168854 C 0.072229 -0.235933 0.124596 -0.283703 0.159422 -0.339078  L 0.095129 -0.392548  C 0.066876 -0.322133 0.016432 -0.257262 0.013913 -0.177378  Z" fill="black" stroke="black" stroke-width="0.005"/>
    <path d="M 0.860847 -0.761506 C 1.039215 -0.789707 1.218248 -0.813312 1.397039 -0.838328  L 1.358651 -1.025117  C 1.184032 -0.973287 1.008809 -0.923148 0.835738 -0.866329  Z" fill="black" stroke="black" stroke-width="0.005"/>
    <path d="M 0.5677 -2.7989 C 0.4663 -2.7239, 0.2438 -2.6131, 0.1227 -2.5774" stroke-width="0.19290000000000002"/>
    <path d="M -0.955664 0.851044 C -0.868109 0.839231 -0.812055 0.767151 -0.744066 0.723554  L -0.780809 0.673589  C -0.840622 0.678981 -0.902991 0.708084 -0.962908 0.684840  Z" fill="black" stroke="black" stroke-width="0.005"/>
    <path d="M -0.296672 0.305947 C -0.247769 0.238575 -0.182625 0.185950 -0.125017 0.126826  L -0.153137 0.090903  C -0.217785 0.148090 -0.289816 0.197939 -0.346288 0.264288  Z" fill="black" stroke="black" stroke-width="0.005"/>
  </g>
</svg>
