<?xml version="1.0" encoding="utf-8" ?>
<svg xmlns="http://www.w3.org/2000/svg" xmlns:ev="http://www.w3.org/2001/xml-events" xmlns:xlink="http://www.w3.org/1999/xlink" baseProfile="full" version="1.1" viewBox="-3.3023790807830835 -4.552339430537883 8.497165902431618 8.19148919451311">
  <defs/>
  <g stroke="none">
    <path d="M 1.354151 2.351854 C 1.940603 2.018208 2.394161 1.519587 2.743469 0.950443  L 2.580991 0.864980  C 2.224774 1.364357 1.784450 1.807372 1.227191 2.080043  Z" fill="black" stroke="black" stroke-width="0.005"/>
    <path d="M 1.560691 1.000004 C 1.916070 1.630381 2.520645 1.932769 3.208887 2.048657  L 3.182606 1.449232  C 2.667162 1.400307 2.219104 1.249717 1.879926 0.827031  Z" fill="white" stroke="white" stroke-width="0"/>
    <path d="M 1.640500 0.956760 C 1.988499 1.530639 2.559560 1.806584 3.202317 1.898801  L 3.189176 1.599088  C 2.630520 1.520335 2.147133 1.351345 1.800117 0.870274  Z" fill="black" stroke="black" stroke-width="0.005"/>
    <path d="M -0.282024 0.556922 C -0.771189 0.805012 -1.148390 0.669692 -1.550629 0.358653  L -1.782137 0.549452  C -1.289716 0.933109 -0.732011 1.057316 -0.178974 0.694268  Z" fill="black" stroke="black" stroke-width="0.005"/>
    <path d="M -0.687522 0.271225 C -1.031433 0.913005 -0.900040 1.554186 -0.534887 2.144701  L -0.110865 1.720194  C -0.402211 1.327913 -0.545627 0.930220 -0.392430 0.437281  Z" fill="white" stroke="white" stroke-width="0"/>
    <path d="M -0.613749 0.312739 C -0.908517 0.910838 -0.778862 1.504637 -0.428881 2.038574  L -0.216870 1.826321  C -0.515339 1.373920 -0.669045 0.935180 -0.466203 0.395767  Z" fill="black" stroke="black" stroke-width="0.005"/>
    <path d="M -0.278719 -0.863830 C -0.523672 -1.425335 -0.475602 -1.990542 -0.343008 -2.566779  L -0.622215 -2.676523  C -0.763121 -2.032147 -0.750340 -1.371878 -0.441661 -0.772672  Z" fill="black" stroke="black" stroke-width="0.005"/>
    <path d="M -1.369404 -0.786208 C -0.944192 -1.213251 -0.393678 -1.431680 0.166347 -1.615841  L 0.124250 -1.989808  C -0.563826 -1.885628 -1.223642 -1.650408 -1.781401 -1.222394  Z" fill="white" stroke="white" stroke-width="0"/>
    <path d="M -1.472403 -0.895255 C -1.013188 -1.312652 -0.439489 -1.560219 0.155823 -1.709333  L 0.134775 -1.896316  C -0.522675 -1.777388 -1.152808 -1.536854 -1.678401 -1.113348  Z" fill="black" stroke="black" stroke-width="0.005"/>
    <path d="M 2.526910 -2.447704 C 1.851919 -2.466072 1.196010 -2.299136 0.582491 -2.030269  L 0.667596 -1.862452  C 1.252519 -2.074093 1.871661 -2.204085 2.496851 -2.149214  Z" fill="black" stroke="black" stroke-width="0.005"/>
    <path d="M 1.785014 -1.417063 C 1.725155 -2.128689 1.360824 -2.721721 0.873110 -3.220553  L 0.527004 -2.730440  C 0.944175 -2.362018 1.283099 -1.947435 1.409945 -1.386746  Z" fill="white" stroke="white" stroke-width="0"/>
    <path d="M 1.691247 -1.409484 C 1.614048 -2.079260 1.259257 -2.637323 0.786584 -3.098025  L 0.613531 -2.852968  C 1.041955 -2.444115 1.395223 -1.997856 1.503712 -1.394326  Z" fill="black" stroke="black" stroke-width="0.005"/>
    <path d="M 2.583812 -0.270504 C 3.154011 -0.101818 3.480015 0.299169 3.747308 0.798355  L 4.033052 0.706973  C 3.725120 0.133906 3.270515 -0.312189 2.613683 -0.452704  Z" fill="black" stroke="black" stroke-width="0.005"/>
    <path d="M 3.052708 0.666071 C 3.530857 0.142582 3.754000 -0.521148 3.845978 -1.210848  L 3.246443 -1.187231  C 3.218304 -0.614734 3.113525 -0.064678 2.779896 0.420336  Z" fill="white" stroke="white" stroke-width="0"/>
    <path d="M 2.984505 0.604637 C 3.423186 0.092192 3.625422 -0.545502 3.696094 -1.204944  L 3.396327 -1.193135  C 3.343559 -0.594835 3.225216 -0.009564 2.848099 0.481770  Z" fill="black" stroke="black" stroke-width="0.005"/>
    <path d="M 0.406120 -0.044241 C 0.129548 -0.041277 -0.125472 0.054709 -0.380280 0.148084  L -0.343965 0.219614  C -0.099263 0.138956 0.142233 0.041203 0.406120 0.044241  Z" fill="black" stroke="black" stroke-width="0.005"/>
    <path d="M -0.003788 0.414422 C 0.058849 0.132838 -0.001611 -0.139341 -0.059501 -0.413429  L -0.240906 -0.341215  C -0.188797 -0.103194 -0.118532 0.131731 -0.165412 0.379998  Z" fill="white" stroke="white" stroke-width="0"/>
    <path d="M -0.044194 0.405816 C 0.013034 0.132563 -0.046730 -0.130339 -0.104852 -0.395376  L -0.195555 -0.359269  C -0.143823 -0.112055 -0.072875 0.131850 -0.125006 0.388604  Z" fill="black" stroke="black" stroke-width="0.005"/>
    <path d="M 1.145726 0.192591 C 1.057315 0.065414 1.166260 -0.051011 1.184287 -0.165472  L 1.143306 -0.200397  C 1.115658 -0.059393 1.008647 0.060802 1.105874 0.214876  Z" fill="black" stroke="black" stroke-width="0.005"/>
    <path d="M 1.245716 0.046250 C 1.097544 -0.027466 0.931984 -0.034615 0.773225 -0.064293  L 0.774070 0.061830  C 0.920960 0.076963 1.072345 0.071201 1.213693 0.125479  Z" fill="white" stroke="white" stroke-width="0"/>
    <path d="M 1.237710 0.066057 C 1.091228 -0.002769 0.929233 -0.006729 0.773437 -0.032762  L 0.773859 0.030299  C 0.923724 0.049060 1.078628 0.046566 1.221698 0.105672  Z" fill="black" stroke="black" stroke-width="0.005"/>
    <path d="M 1.571247 0.521443 C 1.511679 0.375542 1.408771 0.255860 1.321302 0.127667  L 1.288963 0.154442  C 1.366860 0.282385 1.460008 0.403001 1.509880 0.546529  Z" fill="black" stroke="black" stroke-width="0.005"/>
    <path d="M 1.216884 0.319783 C 1.402069 0.358584 1.486583 0.232293 1.619373 0.150258  L 1.531459 0.095483  C 1.440064 0.142443 1.365664 0.271768 1.233882 0.231574  Z" fill="white" stroke="white" stroke-width="0"/>
    <path d="M 1.221134 0.297731 C 1.393767 0.340636 1.474309 0.204960 1.597395 0.136564  L 1.553438 0.109176  C 1.451591 0.160642 1.375030 0.296930 1.229633 0.253626  Z" fill="black" stroke="black" stroke-width="0.005"/>
    <path d="M 1.612684 -0.889290 C 1.665117 -0.624714 1.634117 -0.357835 1.617801 -0.092476  L 1.695429 -0.077773  C 1.724317 -0.353209 1.755593 -0.629976 1.711290 -0.906619  Z" fill="black" stroke="black" stroke-width="0.005"/>
    <path d="M 1.387390 -0.251580 C 1.626531 -0.350114 1.878305 -0.334166 2.128581 -0.336362  L 2.156209 -0.527584  C 1.872227 -0.521712 1.588536 -0.519064 1.322881 -0.398692  Z" fill="white" stroke="white" stroke-width="0"/>
    <path d="M 1.371262 -0.288358 C 1.616897 -0.393611 1.877008 -0.379315 2.135488 -0.384167  L 2.149302 -0.479778  C 1.873616 -0.476420 1.598088 -0.475710 1.339008 -0.361914  Z" fill="black" stroke="black" stroke-width="0.005"/>
  </g>
  <g fill="none" stroke="black">
    <path d="M 3.1957 1.7489 C 3.6953 1.727, 4.0425 1.2289, 3.8902 0.7527" stroke-width="0.305"/>
    <path d="M 1.2907 2.2159 C 0.8377 2.4275, 0.0309 2.2858, -0.3229 1.9324" stroke-width="0.305"/>
    <path d="M -1.6664 0.4541 C -1.9844 0.0682, -1.9389 -0.661, -1.5754 -1.0043" stroke-width="0.305"/>
    <path d="M 0.7001 -2.9755 C 0.2916 -3.2639, -0.2997 -3.087, -0.4826 -2.6217" stroke-width="0.305"/>
    <path d="M 2.5119 -2.2985 C 3.0094 -2.2484, 3.5265 -1.6987, 3.5462 -1.199" stroke-width="0.305"/>
    <path d="M 2.9163 0.5432 C 2.8414 0.6264, 2.7143 0.8086, 2.6622 0.9077" stroke-width="0.18860000000000002"/>
    <path d="M -0.466203 0.395767 C -0.450920 0.321989 -0.385649 0.276608 -0.343965 0.219614  L -0.380280 0.148084  C -0.458128 0.199958 -0.559721 0.226578 -0.613749 0.312739  Z" fill="black" stroke="black" stroke-width="0.005"/>
    <path d="M 0.406120 0.044241 C 0.528710 0.039909 0.651281 0.034894 0.773859 0.030299  L 0.773437 -0.032762  C 0.650995 -0.036475 0.528532 -0.039663 0.406120 -0.044241  Z" fill="black" stroke="black" stroke-width="0.005"/>
    <path d="M 1.221698 0.105672 C 1.248961 0.114691 1.267055 0.138004 1.288963 0.154442  L 1.321302 0.127667  C 1.294168 0.106799 1.272099 0.077056 1.237710 0.066057  Z" fill="black" stroke="black" stroke-width="0.005"/>
    <path d="M 1.509880 0.546529 C 1.543075 0.686343 1.595358 0.820580 1.640500 0.956760  L 1.800117 0.870274  C 1.723473 0.754459 1.640238 0.642490 1.571247 0.521443  Z" fill="black" stroke="black" stroke-width="0.005"/>
    <path d="M 2.613683 -0.452704 C 2.458963 -0.462864 2.304060 -0.470663 2.149302 -0.479778  L 2.135488 -0.384167  C 2.285094 -0.347016 2.435007 -0.310735 2.583812 -0.270504  Z" fill="black" stroke="black" stroke-width="0.005"/>
    <path d="M 1.339008 -0.361914 C 1.258233 -0.328153 1.206930 -0.254819 1.143306 -0.200397  L 1.184287 -0.165472  C 1.245397 -0.207134 1.297550 -0.266289 1.371262 -0.288358  Z" fill="black" stroke="black" stroke-width="0.005"/>
    <path d="M 1.105874 0.214876 C 1.126350 0.265068 1.182835 0.272355 1.221134 0.297731  L 1.229633 0.253626  C 1.202003 0.234727 1.161243 0.228104 1.145726 0.192591  Z" fill="black" stroke="black" stroke-width="0.005"/>
    <path d="M 1.597395 0.136564 C 1.647564 0.073787 1.664029 -0.006264 1.695429 -0.077773  L 1.617801 -0.092476  C 1.597304 -0.025533 1.590576 0.047399 1.553438 0.109176  Z" fill="black" stroke="black" stroke-width="0.005"/>
    <path d="M 1.711290 -0.906619 C 1.695922 -1.073896 1.696644 -1.241912 1.691247 -1.409484  L 1.503712 -1.394326  C 1.537414 -1.225465 1.566661 -1.055382 1.612684 -0.889290  Z" fill="black" stroke="black" stroke-width="0.005"/>
    <path d="M -0.441661 -0.772672 C -0.348314 -0.641902 -0.275182 -0.498415 -0.195555 -0.359269  L -0.104852 -0.395376  C -0.160824 -0.552109 -0.208945 -0.712094 -0.278719 -0.863830  Z" fill="black" stroke="black" stroke-width="0.005"/>
    <path d="M -0.125006 0.388604 C -0.150158 0.468054 -0.230526 0.504072 -0.282024 0.556922  L -0.178974 0.694268  C -0.132094 0.601582 -0.038782 0.522468 -0.044194 0.405816  Z" fill="black" stroke="black" stroke-width="0.005"/>
    <path d="M 0.1453 -1.8028 C 0.2717 -1.8171, 0.5116 -1.8888, 0.625 -1.9464" stroke-width="0.1932"/>
  </g>
</svg>
