<?xml version="1.0" encoding="utf-8" ?>
<svg xmlns="http://www.w3.org/2000/svg" xmlns:ev="http://www.w3.org/2001/xml-events" xmlns:xlink="http://www.w3.org/1999/xlink" baseProfile="full" version="1.1" viewBox="-4.481387087480593 -6.18046879261514 8.191839481137622 9.357187265274659">
  <defs/>
  <g stroke="none">
    <path d="M -0.285268 2.132297 C 0.355276 1.933493 0.805633 1.472539 1.101646 0.888272  L 0.935772 0.826043  C 0.609573 1.299926 0.243990 1.698881 -0.342761 1.837858  Z" fill="black" stroke="black" stroke-width="0.005"/>
    <path d="M 1.670298 1.503095 C 1.129884 1.492772 0.763000 1.186837 0.420822 0.807511  L 0.090376 0.956860  C 0.437389 1.565773 0.950773 1.998764 1.664511 2.103067  Z" fill="white" stroke="white" stroke-width="0"/>
    <path d="M 1.668851 1.653088 C 1.077871 1.615628 0.693447 1.278021 0.338211 0.844848  L 0.172988 0.919523  C 0.511453 1.474639 1.001892 1.870386 1.665957 1.953074  Z" fill="black" stroke="black" stroke-width="0.005"/>
    <path d="M -0.942446 0.084236 C -1.560684 0.099238 -2.099671 -0.152997 -2.610022 -0.466912  L -2.798900 -0.233834  C -2.228125 0.103117 -1.595864 0.319153 -0.923412 0.266741  Z" fill="black" stroke="black" stroke-width="0.005"/>
    <path d="M -1.326882 1.133160 C -1.514773 0.588824 -1.407855 0.054366 -1.247201 -0.477186  L -1.566667 -0.671978  C -1.889820 -0.051705 -2.041006 0.625476 -1.896132 1.322777  Z" fill="white" stroke="white" stroke-width="0"/>
    <path d="M -1.469195 1.180564 C -1.647509 0.593178 -1.520927 0.033376 -1.327068 -0.525884  L -1.486801 -0.623280  C -1.775558 -0.028270 -1.904964 0.619206 -1.753820 1.275373  Z" fill="black" stroke="black" stroke-width="0.005"/>
    <path d="M -1.669197 -2.311979 C -2.165782 -2.678431 -2.434605 -3.207910 -2.643317 -3.768036  L -2.935908 -3.701779  C -2.697439 -3.082597 -2.334444 -2.521259 -1.773013 -2.146115  Z" fill="black" stroke="black" stroke-width="0.005"/>
    <path d="M -2.758126 -1.732888 C -2.492855 -2.301037 -2.103067 -2.799484 -1.682804 -3.260443  L -1.926839 -3.549346  C -2.453007 -3.103426 -2.923660 -2.592726 -3.292017 -2.006678  Z" fill="white" stroke="white" stroke-width="0"/>
    <path d="M -2.891599 -1.801336 C -2.599313 -2.373502 -2.191023 -2.875474 -1.743813 -3.332669  L -1.865830 -3.477120  C -2.365967 -3.027470 -2.814812 -2.519297 -3.158544 -1.938230  Z" fill="black" stroke="black" stroke-width="0.005"/>
    <path d="M -0.079106 -5.077707 C -0.713857 -4.851463 -1.201161 -4.400789 -1.566072 -3.847406  L -1.399381 -3.758140  C -1.016506 -4.215267 -0.598407 -4.620307 -0.004684 -4.787085  Z" fill="black" stroke="black" stroke-width="0.005"/>
    <path d="M -2.014436 -4.397294 C -1.433838 -4.397507 -0.949541 -4.128336 -0.485189 -3.812739  L -0.203231 -4.064766  C -0.701150 -4.555480 -1.301502 -4.907852 -2.006669 -4.997243  Z" fill="white" stroke="white" stroke-width="0"/>
    <path d="M -2.012495 -4.547281 C -1.396194 -4.525023 -0.894464 -4.229843 -0.414700 -3.875746  L -0.273721 -4.001759  C -0.758695 -4.453635 -1.338432 -4.776867 -2.008611 -4.847256  Z" fill="black" stroke="black" stroke-width="0.005"/>
    <path d="M 0.020246 -3.543360 C 0.603202 -3.224520 1.181234 -2.896779 1.750162 -2.553548  L 1.899257 -2.813876  C 1.305864 -3.122684 0.711339 -3.430090 0.104812 -3.712485  Z" fill="black" stroke="black" stroke-width="0.005"/>
    <path d="M 0.641932 -4.176067 C 0.657429 -3.588507 0.416955 -3.073458 0.134630 -2.576724  L 0.434326 -2.304422  C 0.872333 -2.849572 1.180614 -3.478464 1.241864 -4.185098  Z" fill="white" stroke="white" stroke-width="0"/>
    <path d="M 0.791915 -4.178324 C 0.775161 -3.567498 0.547010 -3.009401 0.209554 -2.508648  L 0.359402 -2.372497  C 0.763584 -2.901789 1.046375 -3.509067 1.091881 -4.182840  Z" fill="black" stroke="black" stroke-width="0.005"/>
    <path d="M 2.838870 0.816191 C 2.764738 0.164646 2.326714 -0.180199 1.710465 -0.272915  L 1.710440 -0.100999  C 2.179537 0.055023 2.503477 0.268625 2.538940 0.809727  Z" fill="black" stroke="black" stroke-width="0.005"/>
    <path d="M 2.401473 -1.184071 C 2.404949 -0.646349 2.102720 -0.287773 1.723966 0.047800  L 1.854703 0.357149  C 2.471163 0.028450 2.904219 -0.476180 3.001449 -1.189466  Z" fill="white" stroke="white" stroke-width="0"/>
    <path d="M 2.551467 -1.185420 C 2.525198 -0.596208 2.191422 -0.221405 1.756650 0.125137  L 1.822019 0.279812  C 2.382443 -0.043269 2.777294 -0.525397 2.851455 -1.188117  Z" fill="black" stroke="black" stroke-width="0.005"/>
    <path d="M 0.171813 0.476470 C 0.092597 0.149442 0.003212 -0.174964 -0.085527 -0.499488  L -0.192810 -0.468644  C -0.102879 -0.145942 -0.012542 0.176696 0.068021 0.501913  Z" fill="black" stroke="black" stroke-width="0.005"/>
    <path d="M 0.503674 -0.104179 C 0.160798 -0.106195 -0.177679 -0.052140 -0.515342 -0.001089  L -0.469645 0.212162  C -0.147267 0.160301 0.175872 0.106215 0.503674 0.104179  Z" fill="white" stroke="white" stroke-width="0"/>
    <path d="M 0.503674 -0.052090 C 0.164566 -0.053101 -0.170076 0.000974 -0.503918 0.052224  L -0.481069 0.158849  C -0.154870 0.107194 0.172103 0.053104 0.503674 0.052090  Z" fill="black" stroke="black" stroke-width="0.005"/>
    <path d="M 1.567581 0.193708 C 1.336984 0.153204 1.113304 0.084118 0.888662 0.020201  L 0.863370 0.097921  C 1.092482 0.159410 1.320678 0.226435 1.555526 0.263702  Z" fill="black" stroke="black" stroke-width="0.005"/>
    <path d="M 1.204276 0.531531 C 1.256140 0.315983 1.392537 0.146628 1.514949 -0.030345  L 1.408270 -0.135850  C 1.266262 0.061376 1.109266 0.248966 1.048578 0.492427  Z" fill="white" stroke="white" stroke-width="0"/>
    <path d="M 1.165352 0.521755 C 1.219434 0.299238 1.360974 0.125312 1.488279 -0.056722  L 1.434940 -0.109474  C 1.297836 0.082686 1.145996 0.265729 1.087503 0.502203  Z" fill="black" stroke="black" stroke-width="0.005"/>
    <path d="M -1.066212 -0.930120 C -0.777716 -1.263908 -0.466759 -1.576947 -0.152175 -1.885814  L -0.257001 -1.996423  C -0.571463 -1.679951 -0.883313 -1.360244 -1.170792 -1.018636  Z" fill="black" stroke="black" stroke-width="0.005"/>
    <path d="M -0.218465 -0.991222 C -0.464586 -1.378337 -0.793581 -1.696368 -1.132223 -2.000329  L -1.307610 -1.767866  C -0.990337 -1.491180 -0.683624 -1.199605 -0.448761 -0.846474  Z" fill="white" stroke="white" stroke-width="0"/>
    <path d="M -0.276039 -0.955035 C -0.519312 -1.333678 -0.842793 -1.645054 -1.176070 -1.942213  L -1.263764 -1.825982  C -0.941172 -1.542459 -0.628830 -1.244314 -0.391187 -0.882661  Z" fill="black" stroke="black" stroke-width="0.005"/>
  </g>
  <g fill="none" stroke="black">
    <path d="M 1.6674 1.8031 C 2.1674 1.8079, 2.6781 1.3128, 2.6889 0.813" stroke-width="0.305"/>
    <path d="M -0.314 1.9851 C -0.8047 2.0809, -1.4535 1.7023, -1.6115 1.228" stroke-width="0.305"/>
    <path d="M -3.0251 -1.8698 C -3.2532 -1.4249, -3.0929 -0.6652, -2.7045 -0.3504" stroke-width="0.305"/>
    <path d="M -2.0106 -4.6973 C -2.5105 -4.7037, -2.9 -4.2226, -2.7896 -3.7349" stroke-width="0.305"/>
    <path d="M 0.9419 -4.1806 C 0.9344 -4.6805, 0.4425 -5.0564, -0.0419 -4.9324" stroke-width="0.305"/>
    <path d="M 2.7015 -1.1868 C 2.697 -1.6867, 2.2586 -2.4352, 1.8247 -2.6837" stroke-width="0.305"/>
    <path d="M -0.923412 0.266741 C -0.773770 0.239825 -0.628073 0.196236 -0.481069 0.158849  L -0.503918 0.052224  C -0.649893 0.064983 -0.795711 0.083539 -0.942446 0.084236  Z" fill="black" stroke="black" stroke-width="0.005"/>
    <path d="M 0.503674 0.052090 C 0.626054 0.042812 0.744155 0.081300 0.863370 0.097921  L 0.888662 0.020201  C 0.761339 -0.006780 0.636305 -0.053258 0.503674 -0.052090  Z" fill="black" stroke="black" stroke-width="0.005"/>
    <path d="M 1.555526 0.263702 C 1.640432 0.305520 1.734348 0.276755 1.822019 0.279812  L 1.756650 0.125137  C 1.695986 0.148228 1.638389 0.194714 1.567581 0.193708  Z" fill="black" stroke="black" stroke-width="0.005"/>
    <path d="M 0.0625 -3.6279 C -0.054 -3.6862, -0.2574 -3.8416, -0.3442 -3.9388" stroke-width="0.1941"/>
    <path d="M -1.773013 -2.146115 C -1.597857 -2.048211 -1.432025 -1.934982 -1.263764 -1.825982  L -1.176070 -1.942213  C -1.338905 -2.067440 -1.498959 -2.196565 -1.669197 -2.311979  Z" fill="black" stroke="black" stroke-width="0.005"/>
    <path d="M -0.391187 -0.882661 C -0.302327 -0.756052 -0.254535 -0.608446 -0.192810 -0.468644  L -0.085527 -0.499488  C -0.144195 -0.652991 -0.187281 -0.814126 -0.276039 -0.955035  Z" fill="black" stroke="black" stroke-width="0.005"/>
    <path d="M 0.068021 0.501913 C 0.086231 0.644999 0.135806 0.781017 0.172988 0.919523  L 0.338211 0.844848  C 0.281578 0.722894 0.213709 0.605281 0.171813 0.476470  Z" fill="black" stroke="black" stroke-width="0.005"/>
    <path d="M 1.710465 -0.272915 C 1.589986 -0.271653 1.522224 -0.165807 1.434940 -0.109474  L 1.488279 -0.056722  C 1.560164 -0.073338 1.631755 -0.128204 1.710440 -0.100999  Z" fill="black" stroke="black" stroke-width="0.005"/>
    <path d="M 1.087503 0.502203 C 1.044218 0.613528 0.986420 0.718347 0.935772 0.826043  L 1.101646 0.888272  C 1.123688 0.766285 1.154129 0.645478 1.165352 0.521755  Z" fill="black" stroke="black" stroke-width="0.005"/>
    <path d="M -1.327068 -0.525884 C -1.252935 -0.668623 -1.155584 -0.797053 -1.066212 -0.930120  L -1.170792 -1.018636  C -1.278145 -0.888654 -1.393511 -0.764577 -1.486801 -0.623280  Z" fill="black" stroke="black" stroke-width="0.005"/>
    <path d="M -0.152175 -1.885814 C 0.025181 -2.040727 0.191187 -2.207897 0.359402 -2.372497  L 0.209554 -2.508648  C 0.056448 -2.335751 -0.095069 -2.161325 -0.257001 -1.996423  Z" fill="black" stroke="black" stroke-width="0.005"/>
    <path d="M -1.4827 -3.8028 C -1.5442 -3.6879, -1.7053 -3.489, -1.8048 -3.4049" stroke-width="0.1941"/>
  </g>
</svg>
