<?xml version="1.0" encoding="utf-8" ?>
<svg xmlns="http://www.w3.org/2000/svg" xmlns:ev="http://www.w3.org/2001/xml-events" xmlns:xlink="http://www.w3.org/1999/xlink" baseProfile="full" version="1.1" viewBox="-6.45520271133824 -3.5612854752252128 8.9063965135858 7.351985816744883">
  <defs/>
  <g stroke="none">
    <path d="M -1.317492 2.285527 C -0.821694 1.827529 -0.462578 1.253738 -0.201529 0.636712  L -0.371514 0.574892  C -0.654404 1.131635 -1.014902 1.654341 -1.504260 2.050755  Z" fill="black" stroke="black" stroke-width="0.005"/>
    <path d="M 0.379063 1.271331 C -0.210082 1.266830 -0.716873 1.006326 -1.204111 0.705648  L -1.474743 0.979382  C -0.951714 1.442044 -0.338256 1.777618 0.363673 1.871134  Z" fill="white" stroke="white" stroke-width="0"/>
    <path d="M 0.375216 1.421282 C -0.235163 1.381529 -0.784144 1.131082 -1.271769 0.774082  L -1.407085 0.910949  C -0.896872 1.338031 -0.302972 1.646417 0.367520 1.721183  Z" fill="black" stroke="black" stroke-width="0.005"/>
    <path d="M -4.654263 1.128810 C -4.036270 1.383293 -3.428696 1.258306 -2.884921 0.907635  L -3.005478 0.765654  C -3.504825 0.995573 -3.980940 1.118000 -4.508412 0.866651  Z" fill="black" stroke="black" stroke-width="0.005"/>
    <path d="M -3.935605 0.493621 C -3.905744 1.203363 -3.584481 1.823600 -3.146481 2.364403  L -2.754440 1.910196  C -3.147895 1.500790 -3.466922 1.050862 -3.574382 0.476436  Z" fill="white" stroke="white" stroke-width="0"/>
    <path d="M -3.845299 0.489325 C -3.794861 1.161594 -3.478284 1.747683 -3.048471 2.250852  L -2.852450 2.023748  C -3.247923 1.577536 -3.584656 1.092081 -3.664688 0.480733  Z" fill="black" stroke="black" stroke-width="0.005"/>
    <path d="M -3.722448 0.059397 C -3.809892 -0.550935 -3.616226 -1.109102 -3.355426 -1.645280  L -3.605332 -1.811253  C -3.883877 -1.210977 -4.031049 -0.561314 -3.898708 0.099727  Z" fill="black" stroke="black" stroke-width="0.005"/>
    <path d="M -3.047384 -0.646197 C -3.716359 -0.934117 -4.364678 -0.778241 -4.955434 -0.405080  L -4.533391 0.021395  C -4.128796 -0.272140 -3.713803 -0.433816 -3.203184 -0.307824  Z" fill="white" stroke="white" stroke-width="0"/>
    <path d="M -3.086334 -0.561604 C -3.709629 -0.807894 -4.312505 -0.655461 -4.849923 -0.298461  L -4.638902 -0.085224  C -4.178197 -0.388393 -3.722643 -0.561171 -3.164234 -0.392418  Z" fill="black" stroke="black" stroke-width="0.005"/>
    <path d="M -1.496754 -0.867103 C -1.150161 -1.378233 -0.631791 -1.668882 -0.080297 -1.900680  L -0.158936 -2.190190  C -0.767106 -1.925289 -1.312577 -1.538910 -1.663911 -0.962505  Z" fill="black" stroke="black" stroke-width="0.005"/>
    <path d="M -2.122589 -1.895924 C -1.549595 -1.682645 -1.099711 -1.277436 -0.673596 -0.854662  L -0.379736 -1.052250  C -0.779811 -1.619051 -1.276740 -2.111006 -1.889196 -2.448669  Z" fill="white" stroke="white" stroke-width="0"/>
    <path d="M -2.064241 -2.034110 C -1.488803 -1.784259 -1.009406 -1.371824 -0.600131 -0.904059  L -0.453201 -1.002853  C -0.856325 -1.537003 -1.348008 -2.001002 -1.947544 -2.310483  Z" fill="black" stroke="black" stroke-width="0.005"/>
    <path d="M 1.560996 0.603698 C 1.498961 -0.051303 1.074661 -0.435936 0.466400 -0.594041  L 0.448135 -0.429071  C 0.912704 -0.218783 1.239165 0.037018 1.261237 0.591675  Z" fill="black" stroke="black" stroke-width="0.005"/>
    <path d="M 0.862398 -1.263669 C 0.999381 -0.801469 0.781226 -0.501083 0.455922 -0.205825  L 0.576375 0.111862  C 1.195481 -0.207448 1.543069 -0.725277 1.434213 -1.445402  Z" fill="white" stroke="white" stroke-width="0"/>
    <path d="M 1.005351 -1.309103 C 1.128878 -0.770618 0.881037 -0.444170 0.486035 -0.126403  L 0.546262 0.032440  C 1.094820 -0.273175 1.405103 -0.751865 1.291259 -1.399969  Z" fill="black" stroke="black" stroke-width="0.005"/>
    <path d="M 0.259719 -0.029418 C 0.090637 -0.018145 -0.000723 -0.153711 -0.123211 -0.230076  L -0.165952 -0.201434  C -0.030028 -0.105233 0.068782 0.032882 0.259719 0.029418  Z" fill="black" stroke="black" stroke-width="0.005"/>
    <path d="M -0.058736 0.262452 C 0.017725 0.103632 0.070602 -0.064485 0.129940 -0.229825  L 0.040308 -0.260920  C -0.031226 -0.106869 -0.094477 0.051663 -0.182440 0.197602  Z" fill="white" stroke="white" stroke-width="0"/>
    <path d="M -0.089662 0.246240 C -0.010515 0.090530 0.045329 -0.074989 0.107532 -0.237599  L 0.062716 -0.253147  C -0.006028 -0.096385 -0.066285 0.064695 -0.151514 0.213815  Z" fill="black" stroke="black" stroke-width="0.005"/>
    <path d="M -2.733596 -0.195020 C -2.403781 0.014521 -2.097778 0.257700 -1.796618 0.505676  L -1.709849 0.407122  C -2.017818 0.156367 -2.330330 -0.090032 -2.667458 -0.301210  Z" fill="black" stroke="black" stroke-width="0.005"/>
    <path d="M -2.505436 0.586358 C -2.234286 0.290465 -1.996896 -0.033360 -1.764872 -0.360003  L -1.985054 -0.503138  C -2.205455 -0.185513 -2.432043 0.128605 -2.689988 0.417411  Z" fill="white" stroke="white" stroke-width="0"/>
    <path d="M -2.551574 0.544121 C -2.283715 0.250008 -2.049043 -0.071403 -1.819917 -0.395787  L -1.930008 -0.467354  C -2.153323 -0.147480 -2.382593 0.169078 -2.643850 0.459648  Z" fill="black" stroke="black" stroke-width="0.005"/>
    <path d="M 0.029512 -0.540363 C 0.095182 -0.498163 0.079201 -0.416114 0.099025 -0.356651  L 0.125237 -0.352674  C 0.102403 -0.419765 0.120611 -0.512536 0.044822 -0.559052  Z" fill="black" stroke="black" stroke-width="0.005"/>
    <path d="M 0.012519 -0.440165 C 0.093993 -0.442010 0.174225 -0.457415 0.254924 -0.466721  L 0.239997 -0.533087  C 0.162944 -0.516702 0.086851 -0.494595 0.008396 -0.484732  Z" fill="white" stroke="white" stroke-width="0"/>
    <path d="M 0.011489 -0.451307 C 0.092216 -0.455167 0.171405 -0.472234 0.251192 -0.483312  L 0.243729 -0.516496  C 0.165764 -0.501877 0.088645 -0.481460 0.009427 -0.473590  Z" fill="black" stroke="black" stroke-width="0.005"/>
    <path d="M -0.329630 -0.649090 C -0.257371 -0.557167 -0.143896 -0.518982 -0.050847 -0.457411  L -0.039270 -0.484744  C -0.123064 -0.548710 -0.227408 -0.591984 -0.289607 -0.682903  Z" fill="black" stroke="black" stroke-width="0.005"/>
    <path d="M -0.040364 -0.598994 C -0.185313 -0.595946 -0.176948 -0.443246 -0.231937 -0.366715  L -0.156330 -0.369613  C -0.120139 -0.423413 -0.126787 -0.529581 -0.028776 -0.537141  Z" fill="white" stroke="white" stroke-width="0"/>
    <path d="M -0.037467 -0.583531 C -0.170660 -0.579366 -0.162755 -0.438291 -0.213035 -0.367440  L -0.175232 -0.368888  C -0.134351 -0.428378 -0.141395 -0.546185 -0.031673 -0.552604  Z" fill="black" stroke="black" stroke-width="0.005"/>
  </g>
  <g fill="none" stroke="black">
    <path d="M 0.3714 1.5712 C 0.8712 1.5841, 1.3911 1.0973, 1.4111 0.5977" stroke-width="0.305"/>
    <path d="M -2.9505 2.1373 C -2.572 2.464, -1.8022 2.4794, -1.4109 2.1681" stroke-width="0.305"/>
    <path d="M -4.5813 0.9977 C -5.0183 0.7546, -5.0998 0.1599, -4.7444 -0.1918" stroke-width="0.305"/>
    <path d="M -2.0059 -2.1723 C -2.4665 -2.3668, -3.2038 -2.1448, -3.4804 -1.7283" stroke-width="0.305"/>
    <path d="M 1.1483 -1.3545 C 0.9969 -1.831, 0.3629 -2.1765, -0.1196 -2.0454" stroke-width="0.305"/>
    <path d="M 0.259719 0.029418 C 0.354008 0.055426 0.451263 0.033087 0.546262 0.032440  L 0.486035 -0.126403  C 0.411936 -0.093852 0.342422 -0.043841 0.259719 -0.029418  Z" fill="black" stroke="black" stroke-width="0.005"/>
    <path d="M -1.663911 -0.962505 C -1.746679 -0.794349 -1.839735 -0.631533 -1.930008 -0.467354  L -1.819917 -0.395787  C -1.711023 -0.552054 -1.599716 -0.706725 -1.496754 -0.867103  Z" fill="black" stroke="black" stroke-width="0.005"/>
    <path d="M -2.643850 0.459648 C -2.757077 0.570248 -2.883832 0.665139 -3.005478 0.765654  L -2.884921 0.907635  C -2.771963 0.788246 -2.653124 0.673825 -2.551574 0.544121  Z" fill="black" stroke="black" stroke-width="0.005"/>
    <path d="M -3.164234 -0.392418 C -3.015744 -0.337857 -2.876055 -0.263035 -2.733596 -0.195020  L -2.667458 -0.301210  C -2.805916 -0.389675 -2.940413 -0.485013 -3.086334 -0.561604  Z" fill="black" stroke="black" stroke-width="0.005"/>
    <path d="M -1.796618 0.505676 C -1.662726 0.636889 -1.535906 0.774915 -1.407085 0.910949  L -1.271769 0.774082  C -1.416608 0.650377 -1.559515 0.524193 -1.709849 0.407122  Z" fill="black" stroke="black" stroke-width="0.005"/>
    <path d="M 0.466400 -0.594041 C 0.386370 -0.586005 0.316867 -0.543017 0.243729 -0.516496  L 0.251192 -0.483312  C 0.316950 -0.466688 0.388514 -0.464391 0.448135 -0.429071  Z" fill="black" stroke="black" stroke-width="0.005"/>
    <path d="M 0.009427 -0.473590 C -0.007794 -0.472245 -0.023316 -0.480840 -0.039270 -0.484744  L -0.050847 -0.457411  C -0.030334 -0.454972 -0.009712 -0.446342 0.011489 -0.451307  Z" fill="black" stroke="black" stroke-width="0.005"/>
    <path d="M -0.289607 -0.682903 C -0.351028 -0.785995 -0.398854 -0.896378 -0.453201 -1.002853  L -0.600131 -0.904059  C -0.510615 -0.818440 -0.426649 -0.726486 -0.329630 -0.649090  Z" fill="black" stroke="black" stroke-width="0.005"/>
    <path d="M -3.8106 0.0796 C -3.7877 0.1797, -3.7599 0.3824, -3.755 0.485" stroke-width="0.1858"/>
    <path d="M -0.201529 0.636712 C -0.176277 0.503416 -0.128769 0.375802 -0.089662 0.246240  L -0.151514 0.213815  C -0.225565 0.333491 -0.307925 0.448639 -0.371514 0.574892  Z" fill="black" stroke="black" stroke-width="0.005"/>
    <path d="M 0.107532 -0.237599 C 0.117936 -0.275214 0.119566 -0.314372 0.125237 -0.352674  L 0.099025 -0.356651  C 0.087235 -0.322084 0.079101 -0.286036 0.062716 -0.253147  Z" fill="black" stroke="black" stroke-width="0.005"/>
    <path d="M 0.044822 -0.559052 C 0.023233 -0.583748 -0.010552 -0.576618 -0.037467 -0.583531  L -0.031673 -0.552604  C -0.011905 -0.549236 0.012042 -0.555839 0.029512 -0.540363  Z" fill="black" stroke="black" stroke-width="0.005"/>
    <path d="M -0.213035 -0.367440 C -0.218194 -0.307092 -0.182666 -0.255682 -0.165952 -0.201434  L -0.123211 -0.230076  C -0.141130 -0.275320 -0.174502 -0.317095 -0.175232 -0.368888  Z" fill="black" stroke="black" stroke-width="0.005"/>
  </g>
</svg>
