<?xml version="1.0" encoding="utf-8" ?>
<svg xmlns="http://www.w3.org/2000/svg" xmlns:ev="http://www.w3.org/2001/xml-events" xmlns:xlink="http://www.w3.org/1999/xlink" baseProfile="full" version="1.1" viewBox="-5.007171259759518 -5.972082816214645 8.861263076494197 9.383458960417995">
  <defs/>
  <g stroke="none">
    <path d="M -1.653181 1.424210 C -1.876212 0.831755 -1.936154 0.196313 -1.917993 -0.431868  L -2.102711 -0.458350  C -2.166489 0.209562 -2.131469 0.886445 -1.933172 1.531936  Z" fill="black" stroke="black" stroke-width="0.005"/>
    <path d="M -1.236869 0.098287 C -1.832099 0.190474 -2.405489 0.073388 -2.967536 -0.107406  L -3.191901 0.449065  C -2.515640 0.608812 -1.814353 0.662154 -1.136445 0.471254  Z" fill="white" stroke="white" stroke-width="0"/>
    <path d="M -1.211763 0.191529 C -1.821994 0.299361 -2.439855 0.223316 -3.023627 0.031711  L -3.135810 0.309947  C -2.490199 0.479257 -1.817018 0.541723 -1.161551 0.378013  Z" fill="black" stroke="black" stroke-width="0.005"/>
    <path d="M -2.409497 -1.958872 C -3.061855 -2.073560 -3.533364 -1.743222 -3.847488 -1.201611  L -3.561557 -1.110816  C -3.302851 -1.552905 -3.000448 -1.826723 -2.449940 -1.791090  Z" fill="black" stroke="black" stroke-width="0.005"/>
    <path d="M -3.339388 -3.151475 C -3.485731 -2.443900 -3.225037 -1.841378 -2.719767 -1.358579  L -2.510070 -1.626034  C -2.774578 -2.039940 -2.952188 -2.449967 -2.776042 -2.944979  Z" fill="white" stroke="white" stroke-width="0"/>
    <path d="M -3.198552 -3.099851 C -3.348549 -2.451607 -3.117669 -1.884596 -2.667343 -1.425443  L -2.562494 -1.559170  C -2.880202 -2.002430 -3.083024 -2.438893 -2.916878 -2.996603  Z" fill="black" stroke="black" stroke-width="0.005"/>
    <path d="M 0.190974 -3.599781 C -0.391662 -3.941080 -1.051492 -4.097760 -1.717398 -4.160833  L -1.710277 -3.860918  C -1.086271 -3.843879 -0.466703 -3.719745 0.097676 -3.443629  Z" fill="black" stroke="black" stroke-width="0.005"/>
    <path d="M 0.028599 -4.768349 C -0.560967 -4.349133 -0.820322 -3.727784 -0.853058 -3.025939  L -0.470304 -3.046038  C -0.344149 -3.538987 -0.160974 -3.977979 0.309840 -4.238346  Z" fill="white" stroke="white" stroke-width="0"/>
    <path d="M 0.098909 -4.635848 C -0.454670 -4.257814 -0.709591 -3.680351 -0.757369 -3.030964  L -0.565992 -3.041013  C -0.451220 -3.588418 -0.265905 -4.064509 0.239530 -4.370847  Z" fill="black" stroke="black" stroke-width="0.005"/>
    <path d="M 0.738671 -2.331327 C 1.249667 -2.767905 1.427525 -3.376175 1.409495 -4.025988  L 1.116204 -3.962900  C 1.128987 -3.401464 1.040816 -2.900432 0.621070 -2.484543  Z" fill="black" stroke="black" stroke-width="0.005"/>
    <path d="M 0.468537 -3.171272 C 1.034746 -2.912962 1.507620 -2.516894 1.946609 -2.086307  L 2.380623 -2.500592  C 1.841315 -2.931547 1.251558 -3.308343 0.587283 -3.515147  Z" fill="white" stroke="white" stroke-width="0"/>
    <path d="M 0.498224 -3.257240 C 1.081999 -3.004895 1.600630 -2.630477 2.055113 -2.189878  L 2.272120 -2.397021  C 1.760446 -2.830457 1.195406 -3.207475 0.557597 -3.429178  Z" fill="black" stroke="black" stroke-width="0.005"/>
    <path d="M 1.485876 1.042489 C 1.989055 0.592184 2.359276 0.022835 2.654636 -0.578773  L 2.372562 -0.680921  C 2.133213 -0.097117 1.805308 0.450068 1.365292 0.906786  Z" fill="black" stroke="black" stroke-width="0.005"/>
    <path d="M 2.645900 1.241241 C 2.425672 0.551506 1.910759 0.119470 1.249379 -0.118270  L 1.156259 0.255155  C 1.588179 0.519457 1.950290 0.822280 2.055434 1.347778  Z" fill="white" stroke="white" stroke-width="0"/>
    <path d="M 2.498283 1.267876 C 2.306432 0.625700 1.832315 0.211392 1.226099 -0.024914  L 1.179539 0.161799  C 1.667457 0.431693 2.064522 0.747905 2.203050 1.321144  Z" fill="black" stroke="black" stroke-width="0.005"/>
    <path d="M 0.152513 1.152009 C 0.384996 1.781447 0.897728 2.143512 1.518260 2.328275  L 1.548140 2.029767  C 1.015174 1.868940 0.578538 1.629480 0.332031 1.096399  Z" fill="black" stroke="black" stroke-width="0.005"/>
    <path d="M 0.996781 1.172431 C 0.582204 1.593633 0.060147 1.806447 -0.497750 1.949560  L -0.398164 2.541238  C 0.257898 2.310830 0.864362 1.960080 1.286319 1.391503  Z" fill="white" stroke="white" stroke-width="0"/>
    <path d="M 1.069165 1.227199 C 0.657241 1.691633 0.104590 1.924872 -0.472854 2.097480  L -0.423061 2.393319  C 0.208638 2.190037 0.794445 1.864963 1.213934 1.336735  Z" fill="black" stroke="black" stroke-width="0.005"/>
    <path d="M 0.645485 -0.069627 C 0.211016 -0.066377 -0.218370 0.000586 -0.644670 0.077124  L -0.613166 0.213480  C -0.197283 0.138679 0.221648 0.073450 0.645485 0.069627  Z" fill="black" stroke="black" stroke-width="0.005"/>
    <path d="M 0.252702 0.609058 C 0.174854 0.186297 0.099141 -0.236850 0.024359 -0.660162  L -0.252341 -0.610517  C -0.173303 -0.187052 -0.094370 0.236440 -0.012089 0.659290  Z" fill="white" stroke="white" stroke-width="0"/>
    <path d="M 0.186504 0.621616 C 0.107547 0.198832 0.031030 -0.224400 -0.044816 -0.647751  L -0.183166 -0.622929  C -0.105192 -0.199501 -0.027065 0.223904 0.054109 0.646732  Z" fill="black" stroke="black" stroke-width="0.005"/>
    <path d="M -0.648184 -2.472309 C -0.540390 -2.041941 -0.426426 -1.613161 -0.311654 -1.184616  L -0.173298 -1.222495  C -0.288528 -1.649854 -0.402767 -2.077496 -0.511074 -2.506676  Z" fill="black" stroke="black" stroke-width="0.005"/>
    <path d="M 0.130815 -2.246045 C -0.267787 -2.068360 -0.680648 -1.926410 -1.094613 -1.789767  L -1.017209 -1.525686  C -0.590073 -1.662564 -0.164371 -1.805686 0.247246 -1.985133  Z" fill="white" stroke="white" stroke-width="0"/>
    <path d="M 0.159923 -2.180817 C -0.241937 -2.002700 -0.658001 -1.860444 -1.075262 -1.723746  L -1.036560 -1.591706  C -0.612714 -1.728520 -0.190229 -1.871363 0.218138 -2.050361  Z" fill="black" stroke="black" stroke-width="0.005"/>
    <path d="M -2.381491 -1.356952 C -2.088348 -1.330112 -1.803766 -1.394758 -1.520275 -1.455726  L -1.553807 -1.552946  C -1.823339 -1.489159 -2.093950 -1.423020 -2.374413 -1.441543  Z" fill="black" stroke="black" stroke-width="0.005"/>
    <path d="M -2.267887 -1.666202 C -2.119100 -1.443877 -2.103246 -1.188215 -2.066626 -0.934898  L -1.863689 -0.926108  C -1.906093 -1.222239 -1.945521 -1.514402 -2.124921 -1.767276  Z" fill="white" stroke="white" stroke-width="0"/>
    <path d="M -2.232146 -1.691471 C -2.074182 -1.461863 -2.056079 -1.196148 -2.015892 -0.932700  L -1.914423 -0.928305  C -1.953480 -1.214154 -1.990229 -1.496554 -2.160663 -1.742008  Z" fill="black" stroke="black" stroke-width="0.005"/>
  </g>
  <g fill="none" stroke="black">
    <path d="M -0.448 2.2454 C -0.941 2.3284, -1.6136 1.9447, -1.7932 1.4781" stroke-width="0.305"/>
    <path d="M -3.7045 -1.1562 C -3.8558 -0.6797, -3.5434 -0.0161, -3.0797 0.1708" stroke-width="0.305"/>
    <path d="M -3.0577 -3.0482 C -2.8856 -3.5177, -2.2137 -3.999, -1.7138 -4.0109" stroke-width="0.305"/>
    <path d="M 0.1692 -4.5033 C 0.6109 -4.7377, 1.1577 -4.4833, 1.2628 -3.9944" stroke-width="0.305"/>
    <path d="M 2.1636 -2.2934 C 2.5089 -1.9318, 2.6838 -1.1, 2.5136 -0.6298" stroke-width="0.305"/>
    <path d="M 2.3507 1.2945 C 2.4394 1.7866, 2.0307 2.2288, 1.5332 2.179" stroke-width="0.305"/>
    <path d="M -1.161551 0.378013 C -0.980045 0.318998 -0.796292 0.267184 -0.613166 0.213480  L -0.644670 0.077124  C -0.833856 0.114417 -1.023419 0.149959 -1.211763 0.191529  Z" fill="black" stroke="black" stroke-width="0.005"/>
    <path d="M 0.645485 0.069627 C 0.827455 0.076497 1.002840 0.124937 1.179539 0.161799  L 1.226099 -0.024914  C 1.033343 -0.047032 0.840682 -0.082142 0.645485 -0.069627  Z" fill="black" stroke="black" stroke-width="0.005"/>
    <path d="M 0.332031 1.096399 C 0.272551 0.941660 0.232797 0.780498 0.186504 0.621616  L 0.054109 0.646732  C 0.085013 0.815433 0.108671 0.985773 0.152513 1.152009  Z" fill="black" stroke="black" stroke-width="0.005"/>
    <path d="M -0.044816 -0.647751 C -0.077846 -0.841462 -0.127931 -1.031523 -0.173298 -1.222495  L -0.311654 -1.184616  C -0.266384 -0.997987 -0.216532 -0.812269 -0.183166 -0.622929  Z" fill="black" stroke="black" stroke-width="0.005"/>
    <path d="M -0.511074 -2.506676 C -0.548207 -2.682751 -0.552565 -2.862577 -0.565992 -3.041013  L -0.757369 -3.030964  C -0.726514 -2.843823 -0.705423 -2.654127 -0.648184 -2.472309  Z" fill="black" stroke="black" stroke-width="0.005"/>
    <path d="M 0.621070 -2.484543 C 0.481310 -2.362928 0.317021 -2.276548 0.159923 -2.180817  L 0.218138 -2.050361  C 0.394683 -2.137885 0.577725 -2.214834 0.738671 -2.331327  Z" fill="black" stroke="black" stroke-width="0.005"/>
    <path d="M -1.075262 -1.723746 C -1.236286 -1.671050 -1.394550 -1.610541 -1.553807 -1.552946  L -1.520275 -1.455726  C -1.359326 -1.502042 -1.199104 -1.551150 -1.036560 -1.591706  Z" fill="black" stroke="black" stroke-width="0.005"/>
    <path d="M -2.374413 -1.441543 C -2.450973 -1.456828 -2.502145 -1.520038 -2.562494 -1.559170  L -2.667343 -1.425443  C -2.574043 -1.400559 -2.484389 -1.340132 -2.381491 -1.356952  Z" fill="black" stroke="black" stroke-width="0.005"/>
    <path d="M 0.1443 -3.5217 C 0.2356 -3.4672, 0.4274 -3.3779, 0.5279 -3.3432" stroke-width="0.1869"/>
    <path d="M 1.4256 0.9746 C 1.347 1.0445, 1.205 1.1981, 1.1415 1.282" stroke-width="0.1865"/>
    <path d="M -1.917993 -0.431868 C -1.907489 -0.597274 -1.914164 -0.762912 -1.914423 -0.928305  L -2.015892 -0.932700  C -2.042682 -0.774239 -2.063753 -0.614459 -2.102711 -0.458350  Z" fill="black" stroke="black" stroke-width="0.005"/>
    <path d="M -2.160663 -1.742008 C -2.204609 -1.854777 -2.326154 -1.890682 -2.409497 -1.958872  L -2.449940 -1.791090  C -2.379300 -1.760628 -2.287888 -1.757815 -2.232146 -1.691471  Z" fill="black" stroke="black" stroke-width="0.005"/>
  </g>
</svg>
