<?xml version="1.0" encoding="utf-8" ?>
<svg xmlns="http://www.w3.org/2000/svg" xmlns:ev="http://www.w3.org/2001/xml-events" xmlns:xlink="http://www.w3.org/1999/xlink" baseProfile="full" version="1.1" viewBox="-3.1893739482356223 -4.179177021376109 7.887966505867623 8.45645997236868">
  <defs/>
  <g stroke="none">
    <path d="M -0.025327 2.346192 C -0.322074 1.818414 -0.286689 1.270294 -0.173428 0.702243  L -0.338631 0.625889  C -0.548669 1.248224 -0.570402 1.896728 -0.281149 2.502892  Z" fill="black" stroke="black" stroke-width="0.005"/>
    <path d="M -1.628532 1.145342 C -1.045173 1.546100 -0.365350 1.705999 0.332465 1.708540  L 0.313921 1.335709  C -0.248785 1.232081 -0.798774 1.085617 -1.236414 0.691201  Z" fill="white" stroke="white" stroke-width="0"/>
    <path d="M -1.530503 1.031807 C -0.983596 1.426090 -0.336633 1.593760 0.327829 1.615332  L 0.318557 1.428917  C -0.282247 1.368103 -0.856712 1.186230 -1.334444 0.804736  Z" fill="black" stroke="black" stroke-width="0.005"/>
    <path d="M -1.464506 -0.440288 C -1.080512 -0.900396 -0.566901 -1.036524 -0.000263 -1.100216  L 0.024533 -1.279093  C -0.628898 -1.293884 -1.241370 -1.107867 -1.703261 -0.621935  Z" fill="black" stroke="black" stroke-width="0.005"/>
    <path d="M -0.260024 -0.609060 C -0.501366 -1.115042 -0.465718 -1.619874 -0.323299 -2.139892  L -0.878963 -2.366249  C -1.008007 -1.681412 -0.958331 -0.996769 -0.550650 -0.405836  Z" fill="white" stroke="white" stroke-width="0"/>
    <path d="M -0.332680 -0.558254 C -0.619964 -1.090024 -0.590155 -1.631472 -0.462215 -2.196481  L -0.740047 -2.309660  C -0.877783 -1.669937 -0.841115 -1.022423 -0.477993 -0.456642  Z" fill="black" stroke="black" stroke-width="0.005"/>
    <path d="M 0.698061 -2.763792 C 1.283290 -2.577003 1.761705 -2.202757 2.158110 -1.742813  L 2.314598 -1.841925  C 1.915816 -2.374872 1.410411 -2.814864 0.779360 -3.052566  Z" fill="black" stroke="black" stroke-width="0.005"/>
    <path d="M 2.684365 -2.988699 C 1.977888 -2.860842 1.446848 -2.431717 1.063244 -1.845254  L 1.388925 -1.669359  C 1.762154 -2.045658 2.160565 -2.359341 2.715518 -2.389509  Z" fill="white" stroke="white" stroke-width="0"/>
    <path d="M 2.692153 -2.838902 C 2.029159 -2.733168 1.519042 -2.339238 1.144664 -1.801280  L 1.307505 -1.713333  C 1.693566 -2.138126 2.108681 -2.482344 2.707730 -2.539306  Z" fill="black" stroke="black" stroke-width="0.005"/>
    <path d="M 3.348910 -1.792227 C 3.201934 -1.207839 2.799366 -0.844853 2.322938 -0.522304  L 2.388051 -0.346888  C 2.973739 -0.642526 3.438374 -1.091473 3.642676 -1.731387  Z" fill="black" stroke="black" stroke-width="0.005"/>
    <path d="M 2.417414 -1.299959 C 2.820811 -0.855344 3.030869 -0.313863 3.177977 0.255090  L 3.768169 0.147041  C 3.536698 -0.507784 3.198394 -1.123543 2.660817 -1.579246  Z" fill="white" stroke="white" stroke-width="0"/>
    <path d="M 2.478265 -1.369781 C 2.920854 -0.925936 3.150472 -0.358302 3.325525 0.228077  L 3.620621 0.174053  C 3.415074 -0.459745 3.100810 -1.056719 2.599967 -1.509424  Z" fill="black" stroke="black" stroke-width="0.005"/>
    <path d="M 2.659743 1.373490 C 2.067622 1.570347 1.438925 1.574849 0.827615 1.485979  L 0.777300 1.665715  C 1.431307 1.806079 2.106519 1.830305 2.758848 1.656647  Z" fill="black" stroke="black" stroke-width="0.005"/>
    <path d="M 1.282046 2.770803 C 1.716234 2.202352 1.847452 1.525457 1.782864 0.828005  L 1.411729 0.891309  C 1.357930 1.431874 1.249008 1.947747 0.852487 2.351900  Z" fill="white" stroke="white" stroke-width="0"/>
    <path d="M 1.174657 2.666077 C 1.593954 2.140055 1.732418 1.501318 1.690080 0.843831  L 1.504512 0.875483  C 1.470647 1.457987 1.368959 2.006648 0.959877 2.456626  Z" fill="black" stroke="black" stroke-width="0.005"/>
    <path d="M 0.285768 -0.026831 C 0.100244 -0.024480 -0.015300 -0.154434 -0.156968 -0.241362  L -0.210700 -0.196215  C -0.052095 -0.096705 0.080455 0.031066 0.285768 0.026831  Z" fill="black" stroke="black" stroke-width="0.005"/>
    <path d="M -0.024797 0.294368 C 0.024187 0.122445 0.151666 0.000981 0.257926 -0.133795  L 0.193427 -0.216825  C 0.059813 -0.073494 -0.095109 0.052109 -0.165933 0.244405  Z" fill="white" stroke="white" stroke-width="0"/>
    <path d="M -0.060081 0.281877 C -0.005388 0.104928 0.128727 -0.017567 0.241801 -0.154552  L 0.209552 -0.196067  C 0.082819 -0.054832 -0.065122 0.069766 -0.130649 0.256896  Z" fill="black" stroke="black" stroke-width="0.005"/>
    <path d="M 0.770468 -0.163313 C 0.632496 -0.213385 0.484896 -0.213851 0.341999 -0.234335  L 0.340884 -0.192239  C 0.478711 -0.169233 0.621511 -0.165391 0.753853 -0.113963  Z" fill="black" stroke="black" stroke-width="0.005"/>
    <path d="M 0.548579 -0.428993 C 0.532870 -0.293835 0.438247 -0.194321 0.376500 -0.081820  L 0.438771 -0.021920  C 0.513164 -0.147770 0.624084 -0.256797 0.645515 -0.410901  Z" fill="white" stroke="white" stroke-width="0"/>
    <path d="M 0.572813 -0.424470 C 0.555733 -0.284604 0.456938 -0.182647 0.392068 -0.066845  L 0.423204 -0.036895  C 0.494358 -0.159304 0.601499 -0.266115 0.621281 -0.415424  Z" fill="black" stroke="black" stroke-width="0.005"/>
    <path d="M 0.955535 -1.374137 C 0.821349 -1.143340 0.724414 -0.894682 0.621074 -0.649599  L 0.692715 -0.623025  C 0.799633 -0.861041 0.900046 -1.102955 1.037027 -1.326122  Z" fill="black" stroke="black" stroke-width="0.005"/>
    <path d="M 1.138777 -0.794069 C 0.938116 -0.987234 0.685305 -1.090728 0.434275 -1.196708  L 0.388268 -1.022481  C 0.611581 -0.926843 0.843237 -0.845730 1.025422 -0.675116  Z" fill="white" stroke="white" stroke-width="0"/>
    <path d="M 1.110438 -0.764331 C 0.915903 -0.954777 0.664709 -1.045751 0.422773 -1.153151  L 0.399770 -1.066037  C 0.629285 -0.966480 0.867473 -0.882090 1.053760 -0.704854  Z" fill="black" stroke="black" stroke-width="0.005"/>
    <path d="M 1.220992 -0.475641 C 1.353900 -0.212105 1.411761 0.075742 1.471507 0.361401  L 1.576972 0.348828  C 1.509730 0.052679 1.445389 -0.246181 1.301340 -0.517524  Z" fill="black" stroke="black" stroke-width="0.005"/>
    <path d="M 1.017208 -0.008727 C 1.330544 -0.001661 1.631295 -0.083518 1.930995 -0.160954  L 1.854883 -0.356838  C 1.581344 -0.274833 1.306724 -0.190923 1.017812 -0.183985  Z" fill="white" stroke="white" stroke-width="0"/>
    <path d="M 1.017359 -0.052542 C 1.324594 -0.048939 1.618804 -0.131378 1.911967 -0.209925  L 1.873911 -0.307867  C 1.593828 -0.227036 1.312685 -0.143569 1.017661 -0.140171  Z" fill="black" stroke="black" stroke-width="0.005"/>
  </g>
  <g fill="none" stroke="black">
    <path d="M -0.1532 2.4245 C 0.1079 2.8509, 0.7182 2.9193, 1.0673 2.5614" stroke-width="0.305"/>
    <path d="M -1.5839 -0.5311 C -1.8866 -0.1332, -1.8109 0.5915, -1.4325 0.9183" stroke-width="0.305"/>
    <path d="M 0.7387 -2.9082 C 0.2574 -3.0437, -0.4125 -2.7161, -0.6011 -2.2531" stroke-width="0.305"/>
    <path d="M 2.6999 -2.6891 C 3.1993 -2.7151, 3.5972 -2.2514, 3.4958 -1.7618" stroke-width="0.305"/>
    <path d="M 2.7093 1.5151 C 3.1812 1.3499, 3.5631 0.6929, 3.4731 0.2011" stroke-width="0.305"/>
    <path d="M 2.5391 -1.4396 C 2.4506 -1.5168, 2.2992 -1.6931, 2.2364 -1.7924" stroke-width="0.1902"/>
    <path d="M -0.477993 -0.456642 C -0.393488 -0.365147 -0.299773 -0.282845 -0.210700 -0.196215  L -0.156968 -0.241362  C -0.216199 -0.346592 -0.281291 -0.448836 -0.332680 -0.558254  Z" fill="black" stroke="black" stroke-width="0.005"/>
    <path d="M 0.285768 0.026831 C 0.342263 0.031702 0.379337 -0.014649 0.423204 -0.036895  L 0.392068 -0.066845  C 0.357927 -0.052918 0.327105 -0.021130 0.285768 -0.026831  Z" fill="black" stroke="black" stroke-width="0.005"/>
    <path d="M 0.621281 -0.415424 C 0.637650 -0.487098 0.668611 -0.554078 0.692715 -0.623025  L 0.621074 -0.649599  C 0.604445 -0.574763 0.580251 -0.501211 0.572813 -0.424470  Z" fill="black" stroke="black" stroke-width="0.005"/>
    <path d="M 1.037027 -1.326122 C 1.130591 -1.452738 1.218243 -1.583662 1.307505 -1.713333  L 1.144664 -1.801280  C 1.081819 -1.658861 1.021147 -1.515381 0.955535 -1.374137  Z" fill="black" stroke="black" stroke-width="0.005"/>
    <path d="M 2.322938 -0.522304 C 2.172876 -0.451651 2.023614 -0.379232 1.873911 -0.307867  L 1.911967 -0.209925  C 2.070457 -0.256224 2.228801 -0.303279 2.388051 -0.346888  Z" fill="black" stroke="black" stroke-width="0.005"/>
    <path d="M 1.017661 -0.140171 C 0.934165 -0.130329 0.852427 -0.154572 0.770468 -0.163313  L 0.753853 -0.113963  C 0.840943 -0.092583 0.925626 -0.054431 1.017359 -0.052542  Z" fill="black" stroke="black" stroke-width="0.005"/>
    <path d="M 0.341999 -0.234335 C 0.292769 -0.242699 0.252462 -0.209828 0.209552 -0.196067  L 0.241801 -0.154552  C 0.273790 -0.167534 0.303010 -0.194389 0.340884 -0.192239  Z" fill="black" stroke="black" stroke-width="0.005"/>
    <path d="M -0.130649 0.256896 C -0.193458 0.383555 -0.268997 0.503236 -0.338631 0.625889  L -0.173428 0.702243  C -0.134207 0.562549 -0.088802 0.424269 -0.060081 0.281877  Z" fill="black" stroke="black" stroke-width="0.005"/>
    <path d="M 1.690080 0.843831 C 1.646807 0.680182 1.613361 0.514107 1.576972 0.348828  L 1.471507 0.361401  C 1.481933 0.532754 1.488910 0.704413 1.504512 0.875483  Z" fill="black" stroke="black" stroke-width="0.005"/>
    <path d="M 1.301340 -0.517524 C 1.255867 -0.613131 1.174765 -0.683302 1.110438 -0.764331  L 1.053760 -0.704854  C 1.110130 -0.629487 1.181778 -0.563437 1.220992 -0.475641  Z" fill="black" stroke="black" stroke-width="0.005"/>
    <path d="M 0.422773 -1.153151 C 0.293617 -1.205829 0.157727 -1.238713 0.024533 -1.279093  L -0.000263 -1.100216  C 0.132967 -1.089561 0.267254 -1.086830 0.399770 -1.066037  Z" fill="black" stroke="black" stroke-width="0.005"/>
    <path d="M 0.3232 1.5221 C 0.4452 1.5161, 0.6848 1.5429, 0.8025 1.5758" stroke-width="0.1916"/>
  </g>
</svg>
