<?xml version="1.0" encoding="utf-8" ?>
<svg xmlns="http://www.w3.org/2000/svg" xmlns:ev="http://www.w3.org/2001/xml-events" xmlns:xlink="http://www.w3.org/1999/xlink" baseProfile="full" version="1.1" viewBox="-7.10766075801741 -5.351989571360188 10.256212447616944 9.835038332774921">
  <defs/>
  <g stroke="none">
    <path d="M -5.645487 -0.713653 C -5.222591 -0.187574 -4.718789 0.265490 -4.176459 0.664173  L -4.062756 0.501173  C -4.558842 0.089847 -5.026116 -0.362635 -5.401949 -0.888836  Z" fill="black" stroke="black" stroke-width="0.005"/>
    <path d="M -4.849515 1.050671 C -4.742657 0.426599 -4.514809 -0.169146 -4.252899 -0.742908  L -4.593201 -0.948295  C -4.949919 -0.359989 -5.243906 0.266370 -5.436964 0.928593  Z" fill="white" stroke="white" stroke-width="0"/>
    <path d="M -4.996377 1.020152 C -4.866938 0.386604 -4.623984 -0.216769 -4.337974 -0.794255  L -4.508125 -0.896948  C -4.841525 -0.312213 -5.117614 0.306542 -5.290102 0.959113  Z" fill="black" stroke="black" stroke-width="0.005"/>
    <path d="M -4.164462 -1.451248 C -4.144221 -2.097526 -4.024403 -2.735711 -3.841121 -3.354144  L -4.126682 -3.446095  C -4.280477 -2.791316 -4.383591 -2.120665 -4.363131 -1.445960  Z" fill="black" stroke="black" stroke-width="0.005"/>
    <path d="M -5.073751 -1.758056 C -4.508142 -2.042612 -3.893490 -2.212991 -3.276302 -2.342912  L -3.313088 -2.738685  C -3.998271 -2.676417 -4.676826 -2.541079 -5.324314 -2.303233  Z" fill="white" stroke="white" stroke-width="0"/>
    <path d="M -5.136391 -1.894350 C -4.549750 -2.166361 -3.919992 -2.329116 -3.285499 -2.441855  L -3.303892 -2.639741  C -3.972355 -2.560831 -4.634165 -2.415606 -5.261673 -2.166939  Z" fill="black" stroke="black" stroke-width="0.005"/>
    <path d="M -1.026229 -3.846349 C -1.653635 -3.597426 -2.235136 -3.249661 -2.776037 -2.849043  L -2.653824 -2.692323  C -2.114480 -3.045026 -1.544309 -3.358059 -0.930668 -3.561976  Z" fill="black" stroke="black" stroke-width="0.005"/>
    <path d="M -2.946834 -3.606151 C -2.382038 -3.319985 -1.879996 -2.926564 -1.409004 -2.507080  L -1.112385 -2.771668  C -1.569311 -3.286032 -2.081099 -3.751679 -2.656924 -4.131463  Z" fill="white" stroke="white" stroke-width="0"/>
    <path d="M -2.874356 -3.737479 C -2.307167 -3.426941 -1.802291 -3.016837 -1.334849 -2.573227  L -1.186540 -2.705521  C -1.646931 -3.196550 -2.156733 -3.642853 -2.729402 -4.000135  Z" fill="black" stroke="black" stroke-width="0.005"/>
    <path d="M -0.758257 -2.213661 C -0.122527 -2.014504 0.513923 -1.817689 1.147285 -1.611098  L 1.232807 -1.898650  C 0.587333 -2.068828 -0.057027 -2.243432 -0.704715 -2.405052  Z" fill="black" stroke="black" stroke-width="0.005"/>
    <path d="M -0.196913 -2.992012 C -0.091882 -2.368305 -0.112399 -1.731356 -0.173108 -1.104321  L 0.213610 -1.020724  C 0.360086 -1.693172 0.433638 -2.381488 0.397914 -3.070635  Z" fill="white" stroke="white" stroke-width="0"/>
    <path d="M -0.048206 -3.011668 C 0.038475 -2.371314 0.006075 -1.722028 -0.076429 -1.083422  L 0.116931 -1.041623  C 0.242310 -1.702909 0.301269 -2.377975 0.249207 -3.050979  Z" fill="black" stroke="black" stroke-width="0.005"/>
    <path d="M 1.697964 1.493955 C 1.888493 0.868028 1.623681 0.379637 1.094248 0.053490  L 1.029452 0.204591  C 1.398280 0.533966 1.610740 0.857861 1.425586 1.368214  Z" fill="black" stroke="black" stroke-width="0.005"/>
    <path d="M 1.765786 -0.498467 C 1.700331 -0.031189 1.426369 0.129484 1.005358 0.248698  L 0.968835 0.575479  C 1.662785 0.573995 2.186229 0.257628 2.363675 -0.448174  Z" fill="white" stroke="white" stroke-width="0"/>
    <path d="M 1.915258 -0.485894 C 1.824274 0.049330 1.479592 0.226083 0.996227 0.330393  L 0.977966 0.493784  C 1.599398 0.471582 2.070827 0.177633 2.214202 -0.460747  Z" fill="black" stroke="black" stroke-width="0.005"/>
    <path d="M -0.601415 0.904402 C -0.830404 1.508615 -1.152504 2.071989 -1.528968 2.595134  L -1.289749 2.776171  C -0.929185 2.208444 -0.612137 1.608425 -0.412632 0.963528  Z" fill="black" stroke="black" stroke-width="0.005"/>
    <path d="M 0.235982 1.821351 C -0.420664 1.709064 -1.073458 1.575655 -1.728430 1.454158  L -1.824313 1.839899  C -1.184958 2.036527 -0.540707 2.216351 0.100756 2.405914  Z" fill="white" stroke="white" stroke-width="0"/>
    <path d="M 0.202175 1.967492 C -0.450871 1.835795 -1.101173 1.690923 -1.752401 1.550593  L -1.800342 1.743464  C -1.156926 1.921368 -0.510887 2.089428 0.134563 2.259773  Z" fill="black" stroke="black" stroke-width="0.005"/>
    <path d="M -4.348596 2.130829 C -3.674192 2.102899 -3.010503 1.966517 -2.367696 1.766843  L -2.431344 1.578572  C -3.056867 1.733528 -3.698400 1.840864 -4.344958 1.830851  Z" fill="black" stroke="black" stroke-width="0.005"/>
    <path d="M -2.456320 2.537902 C -2.895037 2.081380 -3.239122 1.544321 -3.545295 0.992907  L -3.912613 1.144785  C -3.651029 1.781123 -3.321580 2.389577 -2.903345 2.938112  Z" fill="white" stroke="white" stroke-width="0"/>
    <path d="M -2.568076 2.637954 C -3.001010 2.157636 -3.342265 1.603893 -3.637125 1.030876  L -3.820784 1.106815  C -3.548228 1.722269 -3.214270 2.311807 -2.791589 2.838060  Z" fill="black" stroke="black" stroke-width="0.005"/>
    <path d="M 0.395942 0.180681 C 0.165538 0.029361 0.112767 -0.198126 0.029167 -0.436206  L -0.083465 -0.429139  C 0.009978 -0.157727 0.095804 0.087160 0.358039 0.247434  Z" fill="black" stroke="black" stroke-width="0.005"/>
    <path d="M 0.433524 -0.076764 C 0.107451 -0.073528 -0.100339 0.103697 -0.331701 0.301086  L -0.142791 0.424605  C 0.031237 0.265527 0.177234 0.101497 0.433524 0.076764  Z" fill="white" stroke="white" stroke-width="0"/>
    <path d="M 0.433524 -0.038382 C 0.126347 -0.028490 -0.069203 0.142086 -0.284474 0.331966  L -0.190018 0.393725  C 0.000234 0.227969 0.158448 0.056204 0.433524 0.038382  Z" fill="black" stroke="black" stroke-width="0.005"/>
    <path d="M 0.844760 0.314894 C 0.762340 0.218357 0.669822 0.131269 0.581971 0.039921  L 0.554071 0.068798  C 0.640462 0.159886 0.731503 0.246787 0.812446 0.342999  Z" fill="black" stroke="black" stroke-width="0.005"/>
    <path d="M 0.530794 0.272084 C 0.654928 0.242823 0.775225 0.200076 0.897194 0.163478  L 0.868750 0.082687  C 0.749588 0.120239 0.632135 0.163758 0.510787 0.194309  Z" fill="white" stroke="white" stroke-width="0"/>
    <path d="M 0.525792 0.252640 C 0.649231 0.223058 0.768816 0.180118 0.890083 0.143280  L 0.875861 0.102885  C 0.755998 0.140199 0.637834 0.183525 0.515789 0.213753  Z" fill="black" stroke="black" stroke-width="0.005"/>
  </g>
  <g fill="none" stroke="black">
    <path d="M -5.1432 0.9896 C -5.245 1.4792, -4.8467 1.9748, -4.3468 1.9808" stroke-width="0.305"/>
    <path d="M -5.199 -2.0306 C -5.6533 -1.8218, -5.8157 -1.2071, -5.5237 -0.8012" stroke-width="0.305"/>
    <path d="M -2.8019 -3.8688 C -3.2396 -4.1104, -3.8306 -3.8761, -3.9839 -3.4001" stroke-width="0.305"/>
    <path d="M 0.1005 -3.0313 C 0.035 -3.527, -0.5045 -3.8634, -0.9784 -3.7042" stroke-width="0.305"/>
    <path d="M 2.0647 -0.4733 C 2.1066 -0.9716, 1.6693 -1.6123, 1.19 -1.7549" stroke-width="0.305"/>
    <path d="M 0.1684 2.1136 C 0.6555 2.2263, 1.3522 1.885, 1.5618 1.4311" stroke-width="0.305"/>
    <path d="M -2.6798 2.738 C -2.3463 3.1105, -1.7111 3.0844, -1.4094 2.6857" stroke-width="0.305"/>
    <path d="M -0.412632 0.963528 C -0.368836 0.762484 -0.272032 0.580305 -0.190018 0.393725  L -0.284474 0.331966  C -0.400137 0.516941 -0.523587 0.698375 -0.601415 0.904402  Z" fill="black" stroke="black" stroke-width="0.005"/>
    <path d="M 0.433524 0.038382 C 0.477490 0.027232 0.515061 0.057783 0.554071 0.068798  L 0.581971 0.039921  C 0.534661 0.012819 0.495916 -0.039505 0.433524 -0.038382  Z" fill="black" stroke="black" stroke-width="0.005"/>
    <path d="M 0.812446 0.342999 C 0.836898 0.423302 0.922572 0.446693 0.977966 0.493784  L 0.996227 0.330393  C 0.950072 0.326811 0.891138 0.347658 0.844760 0.314894  Z" fill="black" stroke="black" stroke-width="0.005"/>
    <path d="M -0.7315 -2.3094 C -0.8879 -2.3531, -1.1525 -2.5181, -1.2607 -2.6394" stroke-width="0.2037"/>
    <path d="M -4.2638 -1.4486 C -4.2595 -1.2862, -4.3391 -0.9847, -4.423 -0.8456" stroke-width="0.2037"/>
    <path d="M -2.3995 1.6727 C -2.2456 1.6207, -1.934 1.6078, -1.7764 1.647" stroke-width="0.2037"/>
    <path d="M 1.094248 0.053490 C 1.013720 0.028307 0.945912 0.084066 0.875861 0.102885  L 0.890083 0.143280  C 0.936173 0.161487 0.999612 0.157315 1.029452 0.204591  Z" fill="black" stroke="black" stroke-width="0.005"/>
    <path d="M 0.515789 0.213753 C 0.471237 0.222891 0.434175 0.192251 0.395942 0.180681  L 0.358039 0.247434  C 0.412546 0.250925 0.470483 0.281282 0.525792 0.252640  Z" fill="black" stroke="black" stroke-width="0.005"/>
    <path d="M 0.029167 -0.436206 C 0.027996 -0.642262 0.079814 -0.841324 0.116931 -1.041623  L -0.076429 -1.083422  C -0.090232 -0.865728 -0.114433 -0.646944 -0.083465 -0.429139  Z" fill="black" stroke="black" stroke-width="0.005"/>
    <path d="M -2.7149 -2.7707 C -2.843 -2.6708, -3.1329 -2.5558, -3.2947 -2.5408" stroke-width="0.2037"/>
    <path d="M -4.1196 0.5827 C -3.9864 0.6756, -3.791 0.9187, -3.729 1.0688" stroke-width="0.2037"/>
  </g>
</svg>
