<?xml version="1.0" encoding="utf-8" ?>
<svg xmlns="http://www.w3.org/2000/svg" xmlns:ev="http://www.w3.org/2001/xml-events" xmlns:xlink="http://www.w3.org/1999/xlink" baseProfile="full" version="1.1" viewBox="-4.160230068974452 -3.1539635755933437 8.481766793438904 8.503517942036616">
  <defs/>
  <g stroke="none">
    <path d="M -2.911646 1.546040 C -2.592701 2.138563 -2.069834 2.541892 -1.461776 2.801507  L -1.406614 2.629500  C -1.919828 2.332286 -2.383522 1.991045 -2.635010 1.429970  Z" fill="black" stroke="black" stroke-width="0.005"/>
    <path d="M -1.657616 1.700950 C -2.253036 2.120949 -2.452463 2.755054 -2.433098 3.453113  L -1.851270 3.306567  C -1.897816 2.811516 -1.823941 2.376964 -1.452412 2.007990  Z" fill="white" stroke="white" stroke-width="0"/>
    <path d="M -1.606315 1.777710 C -2.141603 2.180235 -2.320483 2.773184 -2.287641 3.416477  L -1.996727 3.343204  C -2.022545 2.794331 -1.937429 2.319040 -1.503713 1.931230  Z" fill="black" stroke="black" stroke-width="0.005"/>
    <path d="M -1.012551 0.422999 C -1.167487 -0.165148 -1.021474 -0.700326 -0.782815 -1.234406  L -1.034101 -1.398282  C -1.297142 -0.795833 -1.401240 -0.149216 -1.186012 0.488959  Z" fill="black" stroke="black" stroke-width="0.005"/>
    <path d="M -0.448072 -0.346010 C -1.125792 -0.563140 -1.814037 -0.459931 -2.464162 -0.212248  L -2.150780 0.299408  C -1.645302 0.053676 -1.126263 -0.102323 -0.553771 -0.010491  Z" fill="white" stroke="white" stroke-width="0"/>
    <path d="M -0.474497 -0.262130 C -1.122523 -0.445667 -1.775754 -0.335825 -2.385816 -0.084334  L -2.229125 0.171494  C -1.682896 -0.065757 -1.130039 -0.220883 -0.527346 -0.094371  Z" fill="black" stroke="black" stroke-width="0.005"/>
    <path d="M 0.843053 -0.469034 C 1.287137 -0.852393 1.779443 -0.885730 2.328815 -0.803781  L 2.428943 -1.086578  C 1.790591 -1.180249 1.177165 -1.065465 0.710309 -0.585508  Z" fill="black" stroke="black" stroke-width="0.005"/>
    <path d="M 1.810674 -0.333873 C 1.668321 -1.035012 1.226461 -1.568373 0.668262 -1.986216  L 0.405755 -1.446688  C 0.870555 -1.152087 1.258066 -0.798181 1.452376 -0.262522  Z" fill="white" stroke="white" stroke-width="0"/>
    <path d="M 1.721100 -0.316035 C 1.565959 -0.971368 1.139031 -1.470399 0.602635 -1.851334  L 0.471382 -1.581570  C 0.954205 -1.246822 1.361186 -0.863045 1.541951 -0.280360  Z" fill="black" stroke="black" stroke-width="0.005"/>
    <path d="M 2.132235 2.036479 C 2.207474 1.365844 2.083247 0.701996 1.846644 0.076580  L 1.680033 0.151466  C 1.858034 0.742949 1.946178 1.365475 1.837606 1.979966  Z" fill="black" stroke="black" stroke-width="0.005"/>
    <path d="M 1.156231 1.037738 C 1.872815 1.147796 2.481514 0.855652 2.993049 0.379590  L 2.501786 0.035118  C 2.149394 0.409723 1.758779 0.667907 1.220014 0.671429  Z" fill="white" stroke="white" stroke-width="0"/>
    <path d="M 1.172176 0.946161 C 1.838570 1.027734 2.405481 0.746667 2.870234 0.293472  L 2.624602 0.121236  C 2.221963 0.513252 1.794875 0.788835 1.204068 0.763006  Z" fill="black" stroke="black" stroke-width="0.005"/>
    <path d="M -0.435753 2.367567 C -0.416288 2.950476 -0.700394 3.346444 -1.111496 3.713941  L -0.959620 3.972656  C -0.476136 3.545080 -0.173482 3.001558 -0.250520 2.335619  Z" fill="black" stroke="black" stroke-width="0.005"/>
    <path d="M -1.142709 3.032688 C -0.525330 3.370202 0.169965 3.469690 0.863693 3.459139  L 0.759675 2.868224  C 0.172527 2.931902 -0.411846 2.927929 -0.974957 2.712725  Z" fill="white" stroke="white" stroke-width="0"/>
    <path d="M -1.100771 2.952697 C -0.498185 3.256728 0.171823 3.339784 0.837688 3.311410  L 0.785679 3.015953  C 0.175419 3.083709 -0.444052 3.028225 -1.016895 2.792716  Z" fill="black" stroke="black" stroke-width="0.005"/>
    <path d="M 0.186703 -0.016915 C 0.064345 -0.014328 -0.049010 -0.064928 -0.165289 -0.090905  L -0.184248 -0.040458  C -0.061555 -0.019715 0.059336 0.027161 0.186703 0.016915  Z" fill="black" stroke="black" stroke-width="0.005"/>
    <path d="M 0.096802 0.165137 C 0.048207 0.065391 0.141761 -0.010618 0.167602 -0.089792  L 0.122223 -0.145653  C 0.081822 -0.038153 -0.044818 0.049792 0.016328 0.190720  Z" fill="white" stroke="white" stroke-width="0"/>
    <path d="M 0.076684 0.171533 C 0.024183 0.062309 0.127076 -0.018245 0.156257 -0.103757  L 0.133568 -0.131687  C 0.097621 -0.033383 -0.023938 0.056015 0.036447 0.184324  Z" fill="black" stroke="black" stroke-width="0.005"/>
    <path d="M 0.482205 0.072443 C 0.474594 -0.072246 0.321583 -0.090906 0.241710 -0.160328  L 0.235587 -0.124351  C 0.302955 -0.063104 0.434530 -0.042911 0.439909 0.080367  Z" fill="black" stroke="black" stroke-width="0.005"/>
    <path d="M 0.504421 -0.292192 C 0.438035 -0.190149 0.330805 -0.128218 0.242973 -0.048810  L 0.276105 0.011347  C 0.382226 -0.063178 0.503824 -0.119927 0.589483 -0.222089  Z" fill="white" stroke="white" stroke-width="0"/>
    <path d="M 0.525686 -0.274666 C 0.454636 -0.172431 0.343314 -0.112290 0.251256 -0.033770  L 0.267822 -0.003692  C 0.368370 -0.080399 0.488102 -0.136794 0.568217 -0.239615  Z" fill="black" stroke="black" stroke-width="0.005"/>
    <path d="M 0.119158 0.363242 C 0.275420 0.560590 0.498084 0.662750 0.710805 0.780898  L 0.739458 0.694856  C 0.536784 0.589668 0.325414 0.498928 0.172296 0.319235  Z" fill="black" stroke="black" stroke-width="0.005"/>
    <path d="M 0.390237 0.250975 C 0.334241 0.470467 0.183124 0.626548 0.045145 0.793979  L 0.155597 0.923959  C 0.307348 0.724073 0.475207 0.538730 0.525526 0.281043  Z" fill="white" stroke="white" stroke-width="0"/>
    <path d="M 0.424059 0.258492 C 0.369521 0.487524 0.214159 0.650937 0.072758 0.826474  L 0.127984 0.891464  C 0.276271 0.699701 0.440001 0.521654 0.491704 0.273526  Z" fill="black" stroke="black" stroke-width="0.005"/>
    <path d="M -1.131499 1.670647 C -0.814883 1.505667 -0.507389 1.324248 -0.199587 1.143656  L -0.257083 1.049222  C -0.563390 1.227281 -0.869308 1.406341 -1.184319 1.568830  Z" fill="black" stroke="black" stroke-width="0.005"/>
    <path d="M -1.017636 0.941548 C -0.866630 1.261296 -0.729222 1.587119 -0.591258 1.912602  L -0.372804 1.823195  C -0.513947 1.494410 -0.654299 1.165165 -0.808748 0.842308  Z" fill="white" stroke="white" stroke-width="0"/>
    <path d="M -0.965414 0.916738 C -0.813546 1.237263 -0.675404 1.563942 -0.536645 1.890250  L -0.427418 1.845547  C -0.567767 1.517588 -0.707381 1.189197 -0.860970 0.867118  Z" fill="black" stroke="black" stroke-width="0.005"/>
  </g>
  <g fill="none" stroke="black">
    <path d="M -2.1422 3.3798 C -2.0201 3.8647, -1.4667 4.0964, -1.0356 3.8433" stroke-width="0.305"/>
    <path d="M -2.7733 1.488 C -2.9668 1.0269, -2.7339 0.3047, -2.3075 0.0436" stroke-width="0.305"/>
    <path d="M -0.9085 -1.3163 C -0.6353 -1.7352, 0.0874 -1.9352, 0.537 -1.7165" stroke-width="0.305"/>
    <path d="M 2.3789 -0.9452 C 2.8502 -0.7783, 3.0345 -0.202, 2.7474 0.2074" stroke-width="0.305"/>
    <path d="M 1.9849 2.0082 C 1.8907 2.4993, 1.3041 3.077, 0.8117 3.1637" stroke-width="0.305"/>
    <path d="M 1.6315 -0.2982 C 1.6528 -0.1914, 1.7187 0.0147, 1.7633 0.114" stroke-width="0.1877"/>
    <path d="M -1.0588 2.8727 C -1.1493 2.8253, -1.337 2.7467, -1.4342 2.7155" stroke-width="0.18560000000000001"/>
    <path d="M -0.527346 -0.094371 C -0.412273 -0.081695 -0.298483 -0.059068 -0.184248 -0.040458  L -0.165289 -0.090905  C -0.268323 -0.147822 -0.369809 -0.208008 -0.474497 -0.262130  Z" fill="black" stroke="black" stroke-width="0.005"/>
    <path d="M 0.186703 0.016915 C 0.215747 0.019315 0.241237 0.003655 0.267822 -0.003692  L 0.251256 -0.033770  C 0.230083 -0.027868 0.209754 -0.015605 0.186703 -0.016915  Z" fill="black" stroke="black" stroke-width="0.005"/>
    <path d="M 0.568217 -0.239615 C 0.658880 -0.317186 0.751669 -0.392419 0.843053 -0.469034  L 0.710309 -0.585508  C 0.648328 -0.482190 0.584146 -0.380021 0.525686 -0.274666  Z" fill="black" stroke="black" stroke-width="0.005"/>
    <path d="M 1.204068 0.763006 C 1.047366 0.754945 0.893794 0.720570 0.739458 0.694856  L 0.710805 0.780898  C 0.863642 0.838124 1.013656 0.904391 1.172176 0.946161  Z" fill="black" stroke="black" stroke-width="0.005"/>
    <path d="M 0.172296 0.319235 C 0.128248 0.278521 0.107630 0.220954 0.076684 0.171533  L 0.036447 0.184324  C 0.062938 0.243889 0.076645 0.310997 0.119158 0.363242  Z" fill="black" stroke="black" stroke-width="0.005"/>
    <path d="M 0.156257 -0.103757 C 0.178080 -0.124993 0.209789 -0.118424 0.235587 -0.124351  L 0.241710 -0.160328  C 0.206350 -0.152354 0.162916 -0.162362 0.133568 -0.131687  Z" fill="black" stroke="black" stroke-width="0.005"/>
    <path d="M 0.439909 0.080367 C 0.449920 0.140691 0.430050 0.199744 0.424059 0.258492  L 0.491704 0.273526  C 0.489671 0.206925 0.503586 0.137995 0.482205 0.072443  Z" fill="black" stroke="black" stroke-width="0.005"/>
    <path d="M 0.072758 0.826474 C -0.029979 0.911200 -0.146490 0.976197 -0.257083 1.049222  L -0.199587 1.143656  C -0.089440 1.061021 0.027316 0.986301 0.127984 0.891464  Z" fill="black" stroke="black" stroke-width="0.005"/>
    <path d="M -1.184319 1.568830 C -1.329695 1.628588 -1.466691 1.706096 -1.606315 1.777710  L -1.503713 1.931230  C -1.380575 1.843219 -1.260973 1.749772 -1.131499 1.670647  Z" fill="black" stroke="black" stroke-width="0.005"/>
    <path d="M -0.250520 2.335619 C -0.289540 2.165185 -0.363324 2.006836 -0.427418 1.845547  L -0.536645 1.890250  C -0.498955 2.048312 -0.448212 2.204447 -0.435753 2.367567  Z" fill="black" stroke="black" stroke-width="0.005"/>
    <path d="M -0.860970 0.867118 C -0.918068 0.721320 -0.963014 0.571304 -1.012551 0.422999  L -1.186012 0.488959  C -1.114046 0.632326 -1.046209 0.778007 -0.965414 0.916738  Z" fill="black" stroke="black" stroke-width="0.005"/>
  </g>
</svg>
