<?xml version="1.0" encoding="utf-8" ?>
<svg xmlns="http://www.w3.org/2000/svg" xmlns:ev="http://www.w3.org/2001/xml-events" xmlns:xlink="http://www.w3.org/1999/xlink" baseProfile="full" version="1.1" viewBox="-3.9685727270229654 -3.7046393155132895 10.12157638916636 8.560119632011144">
  <defs/>
  <g stroke="none">
    <path d="M 1.358043 3.308393 C 2.015317 3.154964 2.632994 2.875772 3.208148 2.527819  L 3.109650 2.375747  C 2.541867 2.667982 1.941774 2.908428 1.308534 3.012507  Z" fill="black" stroke="black" stroke-width="0.005"/>
    <path d="M 2.163451 1.989061 C 2.155527 2.716541 2.537626 3.270422 3.093381 3.696293  L 3.351400 3.154605  C 2.931918 2.869717 2.624210 2.529891 2.548567 2.003101  Z" fill="white" stroke="white" stroke-width="0"/>
    <path d="M 2.259730 1.992571 C 2.271713 2.664045 2.634804 3.177788 3.157886 3.560871  L 3.286895 3.290027  C 2.839443 2.958035 2.507410 2.584541 2.452288 1.999591  Z" fill="black" stroke="black" stroke-width="0.005"/>
    <path d="M -0.510483 0.989900 C -0.911341 1.419455 -1.402354 1.512461 -1.959422 1.502120  L -2.022655 1.795380  C -1.374497 1.811447 -0.773245 1.626345 -0.353711 1.101929  Z" fill="black" stroke="black" stroke-width="0.005"/>
    <path d="M -1.517043 0.976761 C -1.310463 1.637828 -0.954599 2.237194 -0.553145 2.796581  L -0.113359 2.388429  C -0.542678 1.935040 -0.903682 1.420058 -1.175314 0.856210  Z" fill="white" stroke="white" stroke-width="0"/>
    <path d="M -1.431611 0.946623 C -1.209152 1.583947 -0.850611 2.160729 -0.443199 2.694543  L -0.223305 2.490467  C -0.644619 2.009497 -1.005779 1.475145 -1.260746 0.886348  Z" fill="black" stroke="black" stroke-width="0.005"/>
    <path d="M -1.441463 0.495159 C -1.700633 -0.065423 -1.681418 -0.645126 -1.584617 -1.235556  L -1.871338 -1.323824  C -1.967034 -0.669480 -1.920057 -0.006056 -1.598120 0.586188  Z" fill="black" stroke="black" stroke-width="0.005"/>
    <path d="M -1.007171 -0.389144 C -1.731510 -0.458599 -2.304947 -0.115420 -2.759677 0.415054  L -2.231099 0.698964  C -1.929515 0.296970 -1.578644 0.015977 -1.051529 -0.020094  Z" fill="white" stroke="white" stroke-width="0"/>
    <path d="M -1.018261 -0.296882 C -1.687210 -0.340629 -2.218624 -0.013913 -2.627533 0.486031  L -2.363244 0.627986  C -2.011352 0.200832 -1.625212 -0.102485 -1.040440 -0.112356  Z" fill="black" stroke="black" stroke-width="0.005"/>
    <path d="M 0.315320 -0.980243 C 0.566701 -1.540890 1.017170 -1.893292 1.530469 -2.191907  L 1.418391 -2.470185  C 0.852110 -2.130724 0.375766 -1.670769 0.140158 -1.039220  Z" fill="black" stroke="black" stroke-width="0.005"/>
    <path d="M 1.249336 -1.222303 C 0.858943 -1.818383 0.259610 -2.174089 -0.401761 -2.393528  L -0.485153 -1.799351  C 0.059676 -1.665185 0.559026 -1.454835 0.941187 -1.020203  Z" fill="white" stroke="white" stroke-width="0"/>
    <path d="M 1.172299 -1.171778 C 0.785172 -1.723651 0.209435 -2.052766 -0.422609 -2.244984  L -0.464305 -1.947895  C 0.107569 -1.782757 0.633212 -1.550819 1.018224 -1.070728  Z" fill="black" stroke="black" stroke-width="0.005"/>
    <path d="M 4.358126 -0.615744 C 3.744111 -0.892018 3.082503 -0.897602 2.439767 -0.739834  L 2.500069 -0.565726  C 3.089799 -0.638145 3.667701 -0.646565 4.209724 -0.355020  Z" fill="black" stroke="black" stroke-width="0.005"/>
    <path d="M 3.263523 0.025559 C 3.495656 -0.648765 3.405449 -1.339246 3.167122 -1.994271  L 2.649747 -1.690424  C 2.881107 -1.181450 3.023064 -0.661643 2.914075 -0.094964  Z" fill="white" stroke="white" stroke-width="0"/>
    <path d="M 3.176161 -0.004572 C 3.375249 -0.648567 3.278914 -1.303686 3.037778 -1.918310  L 2.779091 -1.766386  C 3.003214 -1.216462 3.144737 -0.662314 3.001437 -0.064834  Z" fill="black" stroke="black" stroke-width="0.005"/>
    <path d="M 3.545063 1.450350 C 4.002111 1.815266 4.122667 2.291261 4.140479 2.844408  L 4.436454 2.893387  C 4.417941 2.247781 4.196632 1.664542 3.640183 1.290682  Z" fill="black" stroke="black" stroke-width="0.005"/>
    <path d="M 3.594343 2.427951 C 4.253778 2.162062 4.726799 1.648898 5.083319 1.050995  L 4.521413 0.840612  C 4.273349 1.348959 3.961085 1.799663 3.457409 2.092450  Z" fill="white" stroke="white" stroke-width="0"/>
    <path d="M 3.560110 2.344076 C 4.176710 2.071679 4.619039 1.575007 4.942843 0.998399  L 4.661889 0.893208  C 4.377991 1.419877 4.039203 1.890672 3.491643 2.176325  Z" fill="black" stroke="black" stroke-width="0.005"/>
    <path d="M 0.572352 -0.060875 C 0.195787 -0.061048 -0.175326 -0.123836 -0.545503 -0.183622  L -0.571917 -0.064817  C -0.193596 0.000689 0.187289 0.057993 0.572352 0.060875  Z" fill="black" stroke="black" stroke-width="0.005"/>
    <path d="M -0.055938 0.583935 C 0.060081 0.215333 0.146594 -0.161334 0.227770 -0.538768  L -0.009141 -0.584865  C -0.095791 -0.219303 -0.180455 0.147322 -0.300253 0.503942  Z" fill="white" stroke="white" stroke-width="0"/>
    <path d="M -0.117017 0.563937 C -0.000462 0.198227 0.086546 -0.175689 0.168542 -0.550292  L 0.050087 -0.573340  C -0.033564 -0.204402 -0.121530 0.164021 -0.239174 0.523940  Z" fill="black" stroke="black" stroke-width="0.005"/>
    <path d="M 1.921013 0.178410 C 1.714412 -0.116832 1.544427 -0.434566 1.372956 -0.750626  L 1.268676 -0.699639  C 1.442478 -0.377979 1.614791 -0.054644 1.824502 0.245815  Z" fill="black" stroke="black" stroke-width="0.005"/>
    <path d="M 1.997966 -0.580890 C 1.677356 -0.423117 1.340369 -0.304344 1.004726 -0.184002  L 1.075254 0.040624  C 1.421899 -0.084764 1.770059 -0.208288 2.100850 -0.372778  Z" fill="white" stroke="white" stroke-width="0"/>
    <path d="M 2.023687 -0.528862 C 1.700533 -0.369408 1.360751 -0.249450 1.022358 -0.127846  L 1.057622 -0.015533  C 1.401516 -0.139660 1.746884 -0.261993 2.075129 -0.424806  Z" fill="black" stroke="black" stroke-width="0.005"/>
    <path d="M 2.521986 1.464924 C 2.648614 1.108066 2.803937 0.762598 2.962992 0.419357  L 2.855113 0.365272  C 2.691289 0.711989 2.531853 1.061221 2.400826 1.422000  Z" fill="black" stroke="black" stroke-width="0.005"/>
    <path d="M 3.222463 1.036570 C 2.885662 0.878388 2.579848 0.666696 2.273645 0.458038  L 2.124949 0.650864  C 2.443372 0.873240 2.767620 1.089266 3.119197 1.256992  Z" fill="white" stroke="white" stroke-width="0"/>
    <path d="M 3.196647 1.091676 C 2.855728 0.931750 2.546312 0.717441 2.236471 0.506245  L 2.162123 0.602657  C 2.476930 0.822463 2.797536 1.035932 3.145014 1.201887  Z" fill="black" stroke="black" stroke-width="0.005"/>
  </g>
  <g fill="none" stroke="black">
    <path d="M 4.2885 2.8689 C 4.2068 3.3622, 3.6738 3.6405, 3.2224 3.4254" stroke-width="0.305"/>
    <path d="M 1.3333 3.1605 C 0.8401 3.243, 0.0069 2.959, -0.3333 2.5925" stroke-width="0.305"/>
    <path d="M -1.991 1.6487 C -2.4798 1.5434, -2.732 0.9975, -2.4954 0.557" stroke-width="0.305"/>
    <path d="M -1.728 -1.2797 C -1.5809 -1.7576, -0.9386 -2.1659, -0.4435 -2.0964" stroke-width="0.305"/>
    <path d="M 2.9084 -1.8423 C 2.6552 -2.2735, 1.9382 -2.5178, 1.4744 -2.331" stroke-width="0.305"/>
    <path d="M 4.2839 -0.4854 C 4.7185 -0.238, 4.9777 0.4775, 4.8024 0.9458" stroke-width="0.305"/>
    <path d="M -1.040440 -0.112356 C -0.883416 -0.106257 -0.727844 -0.082671 -0.571917 -0.064817  L -0.545503 -0.183622  C -0.702662 -0.222814 -0.858543 -0.268094 -1.018261 -0.296882  Z" fill="black" stroke="black" stroke-width="0.005"/>
    <path d="M 0.572352 0.060875 C 0.738303 0.064835 0.897083 0.015386 1.057622 -0.015533  L 1.022358 -0.127846  C 0.873419 -0.100652 0.725901 -0.056415 0.572352 -0.060875  Z" fill="black" stroke="black" stroke-width="0.005"/>
    <path d="M 2.075129 -0.424806 C 2.213410 -0.481862 2.358003 -0.520406 2.500069 -0.565726  L 2.439767 -0.739834  C 2.300011 -0.671749 2.156683 -0.610018 2.023687 -0.528862  Z" fill="black" stroke="black" stroke-width="0.005"/>
    <path d="M 3.5259 2.2602 C 3.4296 2.2995, 3.2461 2.3953, 3.1589 2.4518" stroke-width="0.1862"/>
    <path d="M -1.3462 0.9165 C -1.3808 0.8185, -1.4676 0.6306, -1.5198 0.5407" stroke-width="0.1862"/>
    <path d="M 1.018224 -1.070728 C 1.111321 -0.953757 1.187211 -0.824622 1.268676 -0.699639  L 1.372956 -0.750626  C 1.307822 -0.891719 1.249391 -1.036292 1.172299 -1.171778  Z" fill="black" stroke="black" stroke-width="0.005"/>
    <path d="M 1.824502 0.245815 C 1.915104 0.384896 2.045755 0.487811 2.162123 0.602657  L 2.236471 0.506245  C 2.128000 0.400637 2.006466 0.306076 1.921013 0.178410  Z" fill="black" stroke="black" stroke-width="0.005"/>
    <path d="M 3.145014 1.201887 C 3.282980 1.277256 3.412512 1.366405 3.545063 1.450350  L 3.640183 1.290682  C 3.493225 1.222474 3.348508 1.148744 3.196647 1.091676  Z" fill="black" stroke="black" stroke-width="0.005"/>
    <path d="M 2.452288 1.999591 C 2.444569 1.818007 2.490695 1.641818 2.521986 1.464924  L 2.400826 1.422000  C 2.345239 1.609736 2.274114 1.794585 2.259730 1.992571  Z" fill="black" stroke="black" stroke-width="0.005"/>
    <path d="M 2.962992 0.419357 C 3.045625 0.284082 3.107474 0.137847 3.176161 -0.004572  L 3.001437 -0.064834  C 2.954466 0.079012 2.914694 0.225612 2.855113 0.365272  Z" fill="black" stroke="black" stroke-width="0.005"/>
    <path d="M 0.140158 -1.039220 C 0.098168 -0.886285 0.078061 -0.728907 0.050087 -0.573340  L 0.168542 -0.550292  C 0.215068 -0.694355 0.254663 -0.841148 0.315320 -0.980243  Z" fill="black" stroke="black" stroke-width="0.005"/>
    <path d="M -0.239174 0.523940 C -0.303726 0.694109 -0.413489 0.838802 -0.510483 0.989900  L -0.353711 1.101929  C -0.266567 0.926538 -0.164129 0.756588 -0.117017 0.563937  Z" fill="black" stroke="black" stroke-width="0.005"/>
  </g>
</svg>
