<?xml version="1.0" encoding="utf-8" ?>
<svg xmlns="http://www.w3.org/2000/svg" xmlns:ev="http://www.w3.org/2001/xml-events" xmlns:xlink="http://www.w3.org/1999/xlink" baseProfile="full" version="1.1" viewBox="-3.9042246808224643 -4.85080641993247 8.747068613311594 7.667032594839762">
  <defs/>
  <g stroke="none">
    <path d="M -0.467448 1.882342 C 0.188964 1.753968 0.651390 1.325907 0.951355 0.749332  L 0.784769 0.687040  C 0.458496 1.143143 0.096890 1.506216 -0.490835 1.583255  Z" fill="black" stroke="black" stroke-width="0.005"/>
    <path d="M 1.538762 1.436513 C 0.997056 1.389810 0.645724 1.058856 0.323344 0.658023  L -0.007664 0.785739  C 0.301986 1.413683 0.787280 1.879275 1.490347 2.034556  Z" fill="white" stroke="white" stroke-width="0"/>
    <path d="M 1.526658 1.586024 C 0.937776 1.508105 0.571719 1.144693 0.240592 0.689952  L 0.075088 0.753810  C 0.380512 1.328155 0.846123 1.755260 1.502450 1.885045  Z" fill="black" stroke="black" stroke-width="0.005"/>
    <path d="M -0.801219 -0.163555 C -1.401871 -0.279783 -1.835439 -0.640822 -2.229472 -1.079911  L -2.480135 -0.915084  C -2.034125 -0.430314 -1.486025 -0.064794 -0.817551 0.018426  Z" fill="black" stroke="black" stroke-width="0.005"/>
    <path d="M -1.344834 0.775009 C -1.448938 0.206119 -1.263705 -0.310532 -1.027474 -0.816142  L -1.307761 -1.048224  C -1.718587 -0.483156 -1.969918 0.163602 -1.936646 0.873794  Z" fill="white" stroke="white" stroke-width="0"/>
    <path d="M -1.492787 0.799705 C -1.579562 0.190652 -1.370919 -0.347197 -1.097545 -0.874162  L -1.237689 -0.990204  C -1.610513 -0.443823 -1.835547 0.177657 -1.788693 0.849098  Z" fill="black" stroke="black" stroke-width="0.005"/>
    <path d="M -0.974454 -2.039107 C -1.010630 -2.608429 -0.734691 -2.964284 -0.308893 -3.287764  L -0.437124 -3.558977  C -0.942103 -3.173753 -1.248440 -2.658408 -1.138663 -2.001986  Z" fill="black" stroke="black" stroke-width="0.005"/>
    <path d="M -1.916206 -2.170413 C -1.514785 -2.422567 -1.206944 -2.320590 -0.836551 -2.082115  L -0.558468 -2.279874  C -1.024878 -2.796324 -1.612022 -2.983471 -2.265073 -2.658564  Z" fill="white" stroke="white" stroke-width="0"/>
    <path d="M -2.003423 -2.292451 C -1.534531 -2.570277 -1.168350 -2.425872 -0.767030 -2.131554  L -0.627989 -2.230434  C -1.060957 -2.680198 -1.597522 -2.842822 -2.177856 -2.536526  Z" fill="black" stroke="black" stroke-width="0.005"/>
    <path d="M 1.224771 -1.660412 C 1.716243 -2.012082 2.259497 -2.053670 2.837050 -2.003711  L 2.911916 -2.294219  C 2.258037 -2.348302 1.618010 -2.229856 1.097886 -1.802034  Z" fill="black" stroke="black" stroke-width="0.005"/>
    <path d="M 1.000736 -2.918400 C 1.435741 -2.483656 1.739906 -1.944784 1.982172 -1.384311  L 2.340818 -1.479040  C 2.153548 -2.145775 1.865164 -2.781781 1.436423 -3.330925  Z" fill="white" stroke="white" stroke-width="0"/>
    <path d="M 1.109658 -3.021531 C 1.542731 -2.558554 1.843875 -1.994768 2.071833 -1.407993  L 2.251156 -1.455358  C 2.050486 -2.095734 1.756914 -2.706708 1.327501 -3.227794  Z" fill="black" stroke="black" stroke-width="0.005"/>
    <path d="M 2.839022 0.859621 C 2.903145 0.188345 2.729492 -0.458711 2.425059 -1.050566  L 2.267260 -0.953100  C 2.507079 -0.395600 2.633429 0.198077 2.543932 0.805566  Z" fill="black" stroke="black" stroke-width="0.005"/>
    <path d="M 3.094997 -1.170903 C 2.823784 -0.684228 2.365979 -0.460324 1.863691 -0.285965  L 1.882111 0.083478  C 2.576626 -0.009262 3.194664 -0.301272 3.619508 -0.879548  Z" fill="white" stroke="white" stroke-width="0"/>
    <path d="M 3.226124 -1.098064 C 2.911778 -0.583972 2.419378 -0.358434 1.868296 -0.193604  L 1.877506 -0.008883  C 2.524762 -0.114354 3.102250 -0.403016 3.488380 -0.952387  Z" fill="black" stroke="black" stroke-width="0.005"/>
    <path d="M 0.103371 0.364426 C 0.060679 0.123530 0.109594 -0.113508 0.142958 -0.350511  L 0.067069 -0.372554  C 0.030054 -0.123754 -0.023257 0.124720 0.020649 0.378240  Z" fill="black" stroke="black" stroke-width="0.005"/>
    <path d="M 0.376475 -0.075184 C 0.127949 -0.079401 -0.119492 -0.102539 -0.367012 -0.122432  L -0.382933 0.055222  C -0.129961 0.066133 0.123110 0.081006 0.376475 0.075184  Z" fill="white" stroke="white" stroke-width="0"/>
    <path d="M 0.376475 -0.037592 C 0.126734 -0.039295 -0.122109 -0.060373 -0.370992 -0.078018  L -0.378953 0.010809  C -0.127343 0.023963 0.124315 0.040908 0.376475 0.037592  Z" fill="black" stroke="black" stroke-width="0.005"/>
    <path d="M 1.403679 -0.113248 C 1.144289 -0.084095 0.883883 -0.065803 0.623717 -0.045417  L 0.627871 0.032061  C 0.889706 0.016990 1.151694 0.003672 1.412971 -0.019881  Z" fill="black" stroke="black" stroke-width="0.005"/>
    <path d="M 1.046073 0.373289 C 1.087856 0.099512 1.012611 -0.161015 0.956306 -0.424070  L 0.801739 -0.365674  C 0.848699 -0.130154 0.912724 0.104074 0.874485 0.347895  Z" fill="white" stroke="white" stroke-width="0"/>
    <path d="M 1.003176 0.366940 C 1.044064 0.100656 0.971630 -0.153304 0.917664 -0.409471  L 0.840380 -0.380273  C 0.889674 -0.137874 0.956497 0.102937 0.917382 0.354243  Z" fill="black" stroke="black" stroke-width="0.005"/>
    <path d="M 0.019616 -1.205629 C 0.283289 -1.066212 0.486540 -0.852001 0.690588 -0.641089  L 0.764512 -0.697070  C 0.552497 -0.919896 0.341467 -1.145853 0.065659 -1.293352  Z" fill="black" stroke="black" stroke-width="0.005"/>
    <path d="M 0.301063 -0.591025 C 0.454639 -0.845628 0.653805 -1.065621 0.851123 -1.285657  L 0.696061 -1.439284  C 0.496311 -1.198362 0.292706 -0.958449 0.142120 -0.681904  Z" fill="white" stroke="white" stroke-width="0"/>
    <path d="M 0.261328 -0.613745 C 0.414136 -0.873854 0.614450 -1.098791 0.812357 -1.324064  L 0.734826 -1.400877  C 0.535703 -1.165163 0.333169 -0.930263 0.181856 -0.659184  Z" fill="black" stroke="black" stroke-width="0.005"/>
    <path d="M -0.865540 -1.236530 C -0.705972 -1.440426 -0.658676 -1.687191 -0.593188 -1.928424  L -0.669705 -1.936027  C -0.735019 -1.711111 -0.783339 -1.480006 -0.934935 -1.291015  Z" fill="black" stroke="black" stroke-width="0.005"/>
    <path d="M -0.288377 -1.498035 C -0.512621 -1.582663 -0.698048 -1.732995 -0.889449 -1.871183  L -0.992150 -1.762871  C -0.789603 -1.606082 -0.594024 -1.436926 -0.353231 -1.337953  Z" fill="white" stroke="white" stroke-width="0"/>
    <path d="M -0.304591 -1.458015 C -0.532956 -1.546269 -0.720931 -1.701271 -0.915124 -1.844105  L -0.966474 -1.789949  C -0.766709 -1.637814 -0.573657 -1.473398 -0.337018 -1.377974  Z" fill="black" stroke="black" stroke-width="0.005"/>
  </g>
  <g fill="none" stroke="black">
    <path d="M 1.5146 1.7355 C 2.0129 1.7759, 2.6014 1.3244, 2.6915 0.8326" stroke-width="0.305"/>
    <path d="M -0.4791 1.7328 C -0.9776 1.7718, -1.5584 1.3176, -1.6407 0.8244" stroke-width="0.305"/>
    <path d="M -2.0906 -2.4145 C -2.4974 -2.1238, -2.6295 -1.4153, -2.3548 -0.9975" stroke-width="0.305"/>
    <path d="M 1.2186 -3.1247 C 0.8748 -3.4877, 0.079 -3.6371, -0.373 -3.4234" stroke-width="0.305"/>
    <path d="M 3.3573 -1.0252 C 3.6 -1.4623, 3.3587 -2.0242, 2.8745 -2.149" stroke-width="0.305"/>
    <path d="M -0.817551 0.018426 C -0.671389 0.015207 -0.525131 0.012897 -0.378953 0.010809  L -0.370992 -0.078018  C -0.514461 -0.106081 -0.657973 -0.134358 -0.801219 -0.163555  Z" fill="black" stroke="black" stroke-width="0.005"/>
    <path d="M 0.376475 0.037592 C 0.460325 0.038683 0.544087 0.034078 0.627871 0.032061  L 0.623717 -0.045417  C 0.541321 -0.042656 0.458967 -0.037368 0.376475 -0.037592  Z" fill="black" stroke="black" stroke-width="0.005"/>
    <path d="M 1.412971 -0.019881 C 1.567913 -0.020128 1.722726 -0.012944 1.877506 -0.008883  L 1.868296 -0.193604  C 1.713227 -0.168096 1.557562 -0.145289 1.403679 -0.113248  Z" fill="black" stroke="black" stroke-width="0.005"/>
    <path d="M 1.097886 -1.802034 C 0.972794 -1.671979 0.854825 -1.535472 0.734826 -1.400877  L 0.812357 -1.324064  C 0.948650 -1.437580 1.083114 -1.553577 1.224771 -1.660412  Z" fill="black" stroke="black" stroke-width="0.005"/>
    <path d="M 0.181856 -0.659184 C 0.128942 -0.569814 0.104386 -0.468153 0.067069 -0.372554  L 0.142958 -0.350511  C 0.181539 -0.438384 0.208521 -0.532335 0.261328 -0.613745  Z" fill="black" stroke="black" stroke-width="0.005"/>
    <path d="M 0.020649 0.378240 C 0.021032 0.505579 0.055732 0.628983 0.075088 0.753810  L 0.240592 0.689952  C 0.194515 0.582061 0.135373 0.478567 0.103371 0.364426  Z" fill="black" stroke="black" stroke-width="0.005"/>
    <path d="M 2.3462 -1.0018 C 2.284 -1.1024, 2.1917 -1.3174, 2.1615 -1.4317" stroke-width="0.1905"/>
    <path d="M -1.138663 -2.001986 C -1.111553 -1.908472 -1.024677 -1.857810 -0.966474 -1.789949  L -0.915124 -1.844105  C -0.936307 -1.907795 -0.982676 -1.967905 -0.974454 -2.039107  Z" fill="black" stroke="black" stroke-width="0.005"/>
    <path d="M -0.337018 -1.377974 C -0.214724 -1.327703 -0.098829 -1.263841 0.019616 -1.205629  L 0.065659 -1.293352  C -0.057295 -1.349167 -0.177833 -1.410809 -0.304591 -1.458015  Z" fill="black" stroke="black" stroke-width="0.005"/>
    <path d="M 0.690588 -0.641089 C 0.756420 -0.563796 0.791547 -0.467407 0.840380 -0.380273  L 0.917664 -0.409471  C 0.867861 -0.505491 0.833389 -0.611201 0.764512 -0.697070  Z" fill="black" stroke="black" stroke-width="0.005"/>
    <path d="M 0.917382 0.354243 C 0.887813 0.470829 0.829363 0.576758 0.784769 0.687040  L 0.951355 0.749332  C 0.971017 0.622359 1.003762 0.496408 1.003176 0.366940  Z" fill="black" stroke="black" stroke-width="0.005"/>
    <path d="M -1.097545 -0.874162 C -1.018798 -0.994036 -0.942991 -1.115868 -0.865540 -1.236530  L -0.934935 -1.291015  C -1.035319 -1.190240 -1.134663 -1.088277 -1.237689 -0.990204  Z" fill="black" stroke="black" stroke-width="0.005"/>
    <path d="M -0.593188 -1.928424 C -0.552649 -2.032422 -0.613559 -2.132332 -0.627989 -2.230434  L -0.767030 -2.131554  C -0.734578 -2.069757 -0.670876 -2.015201 -0.669705 -1.936027  Z" fill="black" stroke="black" stroke-width="0.005"/>
  </g>
</svg>
