<?xml version="1.0" encoding="utf-8" ?>
<svg xmlns="http://www.w3.org/2000/svg" xmlns:ev="http://www.w3.org/2001/xml-events" xmlns:xlink="http://www.w3.org/1999/xlink" baseProfile="full" version="1.1" viewBox="-3.583097114610089 -2.807088692160826 9.112614403145967 7.281279797767698">
  <defs/>
  <g stroke="none">
    <path d="M -0.057523 1.453759 C -0.483060 1.874704 -1.000430 1.980286 -1.571925 1.992641  L -1.618032 2.289076  C -0.965418 2.273391 -0.353698 2.076437 0.088513 1.569873  Z" fill="black" stroke="black" stroke-width="0.005"/>
    <path d="M -1.137315 1.427024 C -0.900720 2.086090 -0.470108 2.640934 0.023729 3.126632  L 0.377621 2.642111  C -0.088952 2.261827 -0.514614 1.839649 -0.793097 1.294901  Z" fill="white" stroke="white" stroke-width="0"/>
    <path d="M -1.051260 1.393993 C -0.802831 2.021969 -0.377155 2.549697 0.112202 3.005501  L 0.289148 2.763241  C -0.193571 2.369528 -0.606148 1.892533 -0.879151 1.327932  Z" fill="black" stroke="black" stroke-width="0.005"/>
    <path d="M -1.108786 0.908079 C -1.427432 0.379196 -1.471834 -0.199286 -1.440699 -0.796710  L -1.735364 -0.853037  C -1.759517 -0.191888 -1.640919 0.462833 -1.257259 1.017356  Z" fill="black" stroke="black" stroke-width="0.005"/>
    <path d="M -0.792881 -0.101947 C -1.511991 -0.035573 -2.047313 0.383714 -2.453916 0.951158  L -1.904969 1.193350  C -1.630985 0.746181 -1.295275 0.398061 -0.764672 0.262136  Z" fill="white" stroke="white" stroke-width="0"/>
    <path d="M -0.785828 -0.010926 C -1.452471 0.071966 -1.950271 0.473231 -2.316679 1.011706  L -2.042206 1.132802  C -1.723791 0.661181 -1.356535 0.289989 -0.771724 0.171115  Z" fill="black" stroke="black" stroke-width="0.005"/>
    <path d="M 1.563099 -1.839920 C 0.909271 -1.691844 0.427681 -1.265783 0.092569 -0.703713  L 0.252618 -0.630937  C 0.610477 -1.079774 1.002032 -1.449467 1.597074 -1.541851  Z" fill="black" stroke="black" stroke-width="0.005"/>
    <path d="M 1.011235 -0.655175 C 0.813596 -1.353800 0.285559 -1.761111 -0.372459 -1.990381  L -0.441295 -1.394343  C 0.046402 -1.265053 0.438215 -1.043037 0.668872 -0.565442  Z" fill="white" stroke="white" stroke-width="0"/>
    <path d="M 0.925644 -0.632742 C 0.722533 -1.270640 0.224329 -1.644521 -0.389668 -1.841371  L -0.424086 -1.543352  C 0.104037 -1.375089 0.528693 -1.128368 0.754463 -0.587875  Z" fill="black" stroke="black" stroke-width="0.005"/>
    <path d="M 2.428513 0.433362 C 2.999428 0.335944 3.415528 0.567277 3.819416 0.934844  L 4.061885 0.758184  C 3.588622 0.323232 3.019384 0.088612 2.371807 0.257739  Z" fill="black" stroke="black" stroke-width="0.005"/>
    <path d="M 2.686355 -0.766206 C 2.928332 -0.229965 2.894332 0.335896 2.815051 0.901039  L 3.149736 1.034078  C 3.373410 0.373552 3.437974 -0.320578 3.239081 -0.999646  Z" fill="white" stroke="white" stroke-width="0"/>
    <path d="M 2.824537 -0.824566 C 3.040439 -0.253682 3.032339 0.346713 2.898722 0.934299  L 3.066064 1.000818  C 3.259726 0.365742 3.305772 -0.299538 3.100900 -0.941286  Z" fill="black" stroke="black" stroke-width="0.005"/>
    <path d="M 1.912906 3.022500 C 2.428534 2.588492 2.756888 2.005123 2.952233 1.369283  L 2.776531 1.329824  C 2.557042 1.895616 2.231126 2.407487 1.740565 2.776942  Z" fill="black" stroke="black" stroke-width="0.005"/>
    <path d="M 3.486813 1.707359 C 2.991450 1.871921 2.584692 1.691397 2.176242 1.422866  L 1.884266 1.650593  C 2.371823 2.155304 2.976857 2.418502 3.687965 2.272636  Z" fill="white" stroke="white" stroke-width="0"/>
    <path d="M 3.537101 1.848679 C 2.978464 2.006572 2.543284 1.800611 2.103248 1.479798  L 1.957260 1.593661  C 2.418365 2.044664 2.986721 2.278583 3.637677 2.131317  Z" fill="black" stroke="black" stroke-width="0.005"/>
    <path d="M 0.348481 -0.033995 C 0.114800 -0.037950 -0.118154 -0.018354 -0.351041 -0.003164  L -0.341544 0.081163  C -0.111932 0.060611 0.117614 0.036100 0.348481 0.033995  Z" fill="black" stroke="black" stroke-width="0.005"/>
    <path d="M 0.196735 0.296537 C 0.114052 0.094404 0.144218 -0.117398 0.144437 -0.326612  L -0.008756 -0.357016  C -0.011595 -0.117770 -0.033269 0.121427 0.062901 0.350260  Z" fill="white" stroke="white" stroke-width="0"/>
    <path d="M 0.163277 0.309967 C 0.080113 0.100770 0.101470 -0.116954 0.106139 -0.334213  L 0.029542 -0.349415  C 0.026094 -0.117505 0.004512 0.114552 0.096360 0.336829  Z" fill="black" stroke="black" stroke-width="0.005"/>
    <path d="M 0.764137 0.323788 C 0.848680 0.140591 0.870408 -0.059734 0.908966 -0.254644  L 0.837650 -0.259544  C 0.804064 -0.071122 0.786640 0.122141 0.709260 0.300424  Z" fill="black" stroke="black" stroke-width="0.005"/>
    <path d="M 1.138977 0.142467 C 0.964393 0.027738 0.759692 0.000488 0.563413 -0.049774  L 0.551708 0.070135  C 0.727663 0.119650 0.912067 0.148709 1.067632 0.254477  Z" fill="white" stroke="white" stroke-width="0"/>
    <path d="M 1.121140 0.170470 C 0.951306 0.057996 0.751680 0.030286 0.560487 -0.019797  L 0.554634 0.040158  C 0.735665 0.089867 0.925142 0.118483 1.085468 0.226474  Z" fill="black" stroke="black" stroke-width="0.005"/>
    <path d="M 1.829685 1.119005 C 1.697044 0.850848 1.522980 0.607789 1.351074 0.364433  L 1.281367 0.418981  C 1.445624 0.659437 1.612566 0.899402 1.738119 1.163433  Z" fill="black" stroke="black" stroke-width="0.005"/>
    <path d="M 1.179718 0.934192 C 1.476104 0.866256 1.752092 0.739342 2.027955 0.616024  L 1.930386 0.438729  C 1.672862 0.561778 1.414944 0.686901 1.137095 0.759430  Z" fill="white" stroke="white" stroke-width="0"/>
    <path d="M 1.169062 0.890501 C 1.460822 0.821437 1.732280 0.694939 2.003563 0.571701  L 1.954779 0.483053  C 1.692665 0.606156 1.430242 0.731760 1.147751 0.803121  Z" fill="black" stroke="black" stroke-width="0.005"/>
    <path d="M 0.237233 0.570433 C 0.400691 0.760337 0.625985 0.820261 0.848424 0.902054  L 0.858222 0.825667  C 0.653477 0.750782 0.445016 0.695371 0.293063 0.522565  Z" fill="black" stroke="black" stroke-width="0.005"/>
    <path d="M 0.591466 0.465848 C 0.483533 0.674848 0.352731 0.870214 0.225902 1.067703  L 0.376704 1.166993  C 0.494978 0.956120 0.618455 0.747521 0.715500 0.525551  Z" fill="white" stroke="white" stroke-width="0"/>
    <path d="M 0.622475 0.480774 C 0.517261 0.693028 0.388287 0.891686 0.263603 1.092526  L 0.339003 1.142171  C 0.459411 0.934639 0.584723 0.729364 0.684492 0.510625  Z" fill="black" stroke="black" stroke-width="0.005"/>
  </g>
  <g fill="none" stroke="black">
    <path d="M 1.8267 2.8997 C 1.4175 3.187, 0.6044 3.1793, 0.2007 2.8844" stroke-width="0.305"/>
    <path d="M -1.595 2.1409 C -2.089 2.064, -2.3813 1.5297, -2.1794 1.0723" stroke-width="0.305"/>
    <path d="M -1.588 -0.8249 C -1.4942 -1.316, -0.9036 -1.7497, -0.4069 -1.6924" stroke-width="0.305"/>
    <path d="M 1.5801 -1.6909 C 2.0769 -1.7475, 2.7682 -1.3435, 2.9627 -0.8829" stroke-width="0.305"/>
    <path d="M 3.5874 1.99 C 4.0585 1.8224, 4.2351 1.2506, 3.9407 0.8465" stroke-width="0.305"/>
    <path d="M -0.771724 0.171115 C -0.627842 0.143476 -0.484869 0.111245 -0.341544 0.081163  L -0.351041 -0.003164  C -0.495961 -0.004895 -0.641037 -0.004405 -0.785828 -0.010926  Z" fill="black" stroke="black" stroke-width="0.005"/>
    <path d="M 0.348481 0.033995 C 0.417290 0.031661 0.485952 0.037836 0.554634 0.040158  L 0.560487 -0.019797  C 0.489872 -0.024761 0.419415 -0.033681 0.348481 -0.033995  Z" fill="black" stroke="black" stroke-width="0.005"/>
    <path d="M 1.085468 0.226474 C 1.164319 0.276171 1.217189 0.354480 1.281367 0.418981  L 1.351074 0.364433  C 1.275709 0.299073 1.211911 0.217391 1.121140 0.170470  Z" fill="black" stroke="black" stroke-width="0.005"/>
    <path d="M 1.738119 1.163433 C 1.792225 1.316025 1.880594 1.452288 1.957260 1.593661  L 2.103248 1.479798  C 2.009808 1.361610 1.906295 1.250216 1.829685 1.119005  Z" fill="black" stroke="black" stroke-width="0.005"/>
    <path d="M 2.371807 0.257739 C 2.224461 0.317214 2.092128 0.405361 1.954779 0.483053  L 2.003563 0.571701  C 2.143996 0.522278 2.281779 0.462577 2.428513 0.433362  Z" fill="black" stroke="black" stroke-width="0.005"/>
    <path d="M 1.147751 0.803121 C 1.053713 0.833475 0.954249 0.819476 0.858222 0.825667  L 0.848424 0.902054  C 0.954645 0.899726 1.063816 0.920174 1.169062 0.890501  Z" fill="black" stroke="black" stroke-width="0.005"/>
    <path d="M 0.293063 0.522565 C 0.235136 0.461182 0.205503 0.380973 0.163277 0.309967  L 0.096360 0.336829  C 0.142094 0.414884 0.173747 0.503110 0.237233 0.570433  Z" fill="black" stroke="black" stroke-width="0.005"/>
    <path d="M 0.106139 -0.334213 C 0.140580 -0.440012 0.203499 -0.532781 0.252618 -0.630937  L 0.092569 -0.703713  C 0.070282 -0.586077 0.031372 -0.470411 0.029542 -0.349415  Z" fill="black" stroke="black" stroke-width="0.005"/>
    <path d="M 2.9824 0.9676 C 2.9454 1.0607, 2.8864 1.2517, 2.8644 1.3496" stroke-width="0.18510000000000001"/>
    <path d="M -0.9652 1.361 C -1.0062 1.2541, -1.1151 1.0549, -1.183 0.9627" stroke-width="0.1894"/>
    <path d="M 0.754463 -0.587875 C 0.806648 -0.485694 0.811677 -0.369004 0.837650 -0.259544  L 0.908966 -0.254644  C 0.915948 -0.379762 0.947266 -0.506029 0.925644 -0.632742  Z" fill="black" stroke="black" stroke-width="0.005"/>
    <path d="M 0.709260 0.300424 C 0.682054 0.361364 0.651472 0.420702 0.622475 0.480774  L 0.684492 0.510625  C 0.711171 0.448408 0.739530 0.386882 0.764137 0.323788  Z" fill="black" stroke="black" stroke-width="0.005"/>
    <path d="M 0.263603 1.092526 C 0.162479 1.218206 0.050281 1.334164 -0.057523 1.453759  L 0.088513 1.569873  C 0.173792 1.428398 0.263890 1.289469 0.339003 1.142171  Z" fill="black" stroke="black" stroke-width="0.005"/>
  </g>
</svg>
