<?xml version="1.0" encoding="utf-8" ?>
<svg xmlns="http://www.w3.org/2000/svg" xmlns:ev="http://www.w3.org/2001/xml-events" xmlns:xlink="http://www.w3.org/1999/xlink" baseProfile="full" version="1.1" viewBox="-2.7675937427403343 -2.8701420039909165 6.205901353920874 6.4289184946601035">
  <defs/>
  <g stroke="none">
    <path d="M 0.155312 -0.647266 C 0.357207 -1.191886 0.766602 -1.439253 1.287975 -1.607889  L 1.254010 -1.905961  C 0.643014 -1.708227 0.157207 -1.329467 -0.017515 -0.684115  Z" fill="black" stroke="black" stroke-width="0.005"/>
    <path d="M -0.685631 -1.240561 C -0.148981 -1.294262 0.243864 -1.029957 0.620954 -0.688664  L 0.922680 -0.860276  C 0.522843 -1.434338 -0.028539 -1.811661 -0.748511 -1.837257  Z" fill="white" stroke="white" stroke-width="0"/>
    <path d="M -0.701351 -1.389735 C -0.111060 -1.420276 0.301753 -1.126299 0.696385 -0.731567  L 0.847248 -0.817373  C 0.460021 -1.337488 -0.064919 -1.679619 -0.732791 -1.688083  Z" fill="black" stroke="black" stroke-width="0.005"/>
    <path d="M 2.464075 1.133156 C 2.460904 0.470110 2.091538 -0.000424 1.526302 -0.296576  L 1.468738 -0.136822  C 1.895137 0.182104 2.196922 0.524762 2.166357 1.096229  Z" fill="black" stroke="black" stroke-width="0.005"/>
    <path d="M 2.052570 -0.847861 C 2.085694 -0.360377 1.805448 -0.100341 1.424020 0.132847  L 1.484465 0.467369  C 2.152300 0.267428 2.599748 -0.174058 2.650301 -0.899984  Z" fill="white" stroke="white" stroke-width="0"/>
    <path d="M 2.202002 -0.860892 C 2.205930 -0.303850 1.891540 -0.024905 1.439132 0.216477  L 1.469354 0.383739  C 2.067068 0.183647 2.470665 -0.228403 2.500868 -0.886953  Z" fill="black" stroke="black" stroke-width="0.005"/>
    <path d="M -0.757678 2.508073 C -0.122433 2.300464 0.272050 1.815298 0.479575 1.201079  L 0.303928 1.165442  C 0.052852 1.661375 -0.247004 2.065044 -0.817001 2.213997  Z" fill="black" stroke="black" stroke-width="0.005"/>
    <path d="M -0.613592 1.544484 C -0.135494 2.073292 0.512570 2.327486 1.200950 2.435072  L 1.184089 1.835309  C 0.626193 1.793462 0.102003 1.667652 -0.342688 1.299287  Z" fill="white" stroke="white" stroke-width="0"/>
    <path d="M -0.545866 1.483185 C -0.078015 1.968242 0.542205 2.199807 1.196735 2.285131  L 1.188304 1.985250  C 0.598237 1.916924 0.044350 1.774011 -0.410414 1.360586  Z" fill="black" stroke="black" stroke-width="0.005"/>
    <path d="M -0.751023 1.060718 C -1.212896 0.661755 -1.402823 0.134852 -1.517780 -0.441665  L -1.817490 -0.428486  C -1.681438 0.215318 -1.393945 0.806119 -0.855471 1.210612  Z" fill="black" stroke="black" stroke-width="0.005"/>
    <path d="M -0.738313 0.065363 C -1.418761 0.316461 -1.797035 0.870785 -1.994872 1.539785  L -1.396427 1.582951  C -1.287664 1.084750 -1.083945 0.672483 -0.619924 0.406034  Z" fill="white" stroke="white" stroke-width="0"/>
    <path d="M -0.708716 0.150531 C -1.329901 0.402528 -1.676994 0.925894 -1.845261 1.550576  L -1.546038 1.572159  C -1.401438 1.032770 -1.174871 0.586860 -0.649521 0.320866  Z" fill="black" stroke="black" stroke-width="0.005"/>
    <path d="M 0.314479 -0.029705 C 0.101159 -0.034954 -0.104018 0.021248 -0.309810 0.066454  L -0.284411 0.139674  C -0.086928 0.093323 0.108477 0.029233 0.314479 0.029705  Z" fill="black" stroke="black" stroke-width="0.005"/>
    <path d="M 0.217627 0.235445 C 0.115951 0.067477 0.118787 -0.123650 0.094010 -0.309059  L -0.053448 -0.318589  C -0.023401 -0.104443 -0.011208 0.111538 0.111163 0.300730  Z" fill="white" stroke="white" stroke-width="0"/>
    <path d="M 0.191011 0.251766 C 0.083142 0.078837 0.084532 -0.119285 0.057146 -0.311441  L -0.016584 -0.316206  C 0.016038 -0.110541 0.017552 0.101513 0.137779 0.284409  Z" fill="black" stroke="black" stroke-width="0.005"/>
    <path d="M 0.593716 0.208098 C 0.615674 0.112406 0.680345 0.036236 0.724976 -0.047858  L 0.698824 -0.068350  C 0.652754 0.019651 0.585556 0.099432 0.563588 0.199547  Z" fill="black" stroke="black" stroke-width="0.005"/>
    <path d="M 0.765894 0.103667 C 0.678005 0.050852 0.577971 0.025324 0.483844 -0.012443  L 0.465913 0.054600  C 0.556374 0.087996 0.652068 0.109755 0.737219 0.157226  Z" fill="white" stroke="white" stroke-width="0"/>
    <path d="M 0.758725 0.117057 C 0.671520 0.065575 0.572573 0.040991 0.479361 0.004318  L 0.470396 0.037839  C 0.561775 0.072326 0.658552 0.095027 0.744388 0.143836  Z" fill="black" stroke="black" stroke-width="0.005"/>
    <path d="M 1.196553 0.276352 C 1.075222 0.261712 0.966686 0.202644 0.853096 0.164078  L 0.836418 0.195765  C 0.952598 0.239443 1.062877 0.304240 1.187966 0.323439  Z" fill="black" stroke="black" stroke-width="0.005"/>
    <path d="M 0.904078 0.425192 C 1.010481 0.339066 1.015550 0.198030 1.065062 0.085125  L 0.989642 0.077775  C 0.945577 0.173106 0.937988 0.294316 0.847301 0.366528  Z" fill="white" stroke="white" stroke-width="0"/>
    <path d="M 0.889884 0.410526 C 0.992298 0.327740 0.998023 0.191858 1.046207 0.083287  L 1.008497 0.079612  C 0.963120 0.179210 0.956168 0.305721 0.861495 0.381194  Z" fill="black" stroke="black" stroke-width="0.005"/>
    <path d="M 0.724135 0.458727 C 0.575012 0.516681 0.449648 0.424804 0.315387 0.393389  L 0.284941 0.435561  C 0.436711 0.476983 0.571322 0.566372 0.739445 0.505977  Z" fill="black" stroke="black" stroke-width="0.005"/>
    <path d="M 0.525908 0.810080 C 0.543232 0.648605 0.570619 0.488458 0.594730 0.327919  L 0.505560 0.308790  C 0.468113 0.468852 0.427214 0.628184 0.395571 0.789598  Z" fill="white" stroke="white" stroke-width="0"/>
    <path d="M 0.493323 0.804959 C 0.514246 0.643490 0.544998 0.483555 0.572437 0.323137  L 0.527852 0.313573  C 0.493745 0.473752 0.456238 0.633280 0.428155 0.794718  Z" fill="black" stroke="black" stroke-width="0.005"/>
    <path d="M 0.887359 -0.482765 C 0.955897 -0.346808 0.972004 -0.195020 1.006036 -0.049451  L 1.050740 -0.053103  C 1.019832 -0.205316 1.007821 -0.363412 0.940618 -0.506765  Z" fill="black" stroke="black" stroke-width="0.005"/>
    <path d="M 1.244666 -0.323803 C 1.076379 -0.337935 0.938742 -0.247593 0.790660 -0.192281  L 0.841155 -0.116287  C 0.970988 -0.154935 1.094110 -0.234455 1.238237 -0.214658  Z" fill="white" stroke="white" stroke-width="0"/>
    <path d="M 1.243059 -0.296517 C 1.080816 -0.311257 0.946800 -0.225250 0.803284 -0.173282  L 0.828531 -0.135285  C 0.962935 -0.177048 1.089681 -0.261223 1.239844 -0.241945  Z" fill="black" stroke="black" stroke-width="0.005"/>
  </g>
  <g fill="none" stroke="black">
    <path d="M -0.7171 -1.5389 C -1.2143 -1.4865, -1.6896 -0.9346, -1.6676 -0.4351" stroke-width="0.305"/>
    <path d="M 2.3514 -0.8739 C 2.308 -1.372, 1.7678 -1.8135, 1.271 -1.7569" stroke-width="0.305"/>
    <path d="M 1.1925 2.1352 C 1.6923 2.1211, 2.2537 1.6109, 2.3152 1.1147" stroke-width="0.305"/>
    <path d="M -0.7873 2.361 C -1.2775 2.4599, -1.7316 2.0601, -1.6956 1.5614" stroke-width="0.305"/>
    <path d="M -0.649521 0.320866 C -0.528207 0.259761 -0.406303 0.199606 -0.284411 0.139674  L -0.309810 0.066454  C -0.442640 0.094951 -0.575633 0.123206 -0.708716 0.150531  Z" fill="black" stroke="black" stroke-width="0.005"/>
    <path d="M 0.314479 0.029705 C 0.366678 0.023347 0.418589 0.034564 0.470396 0.037839  L 0.479361 0.004318  C 0.424727 -0.007476 0.371204 -0.027744 0.314479 -0.029705  Z" fill="black" stroke="black" stroke-width="0.005"/>
    <path d="M 0.744388 0.143836 C 0.774962 0.161327 0.805728 0.178479 0.836418 0.195765  L 0.853096 0.164078  C 0.821643 0.148397 0.790131 0.132833 0.758725 0.117057  Z" fill="black" stroke="black" stroke-width="0.005"/>
    <path d="M 1.187966 0.323439 C 1.275497 0.367980 1.375719 0.365393 1.469354 0.383739  L 1.439132 0.216477  C 1.359627 0.236860 1.281756 0.275564 1.196553 0.276352  Z" fill="black" stroke="black" stroke-width="0.005"/>
    <path d="M -0.017515 -0.684115 C -0.028451 -0.561523 -0.017313 -0.438589 -0.016584 -0.316206  L 0.057146 -0.311441  C 0.088892 -0.423594 0.110898 -0.539062 0.155312 -0.647266  Z" fill="black" stroke="black" stroke-width="0.005"/>
    <path d="M 0.137779 0.284409 C 0.173293 0.347236 0.235500 0.386312 0.284941 0.435561  L 0.315387 0.393389  C 0.273541 0.347099 0.220045 0.309188 0.191011 0.251766  Z" fill="black" stroke="black" stroke-width="0.005"/>
    <path d="M 0.739445 0.505977 C 0.798724 0.489645 0.840803 0.442912 0.889884 0.410526  L 0.861495 0.381194  C 0.816547 0.407549 0.777055 0.446677 0.724135 0.458727  Z" fill="black" stroke="black" stroke-width="0.005"/>
    <path d="M 1.046207 0.083287 C 1.053085 0.038087 1.049558 -0.007694 1.050740 -0.053103  L 1.006036 -0.049451  C 1.007105 -0.006511 1.012563 0.036561 1.008497 0.079612  Z" fill="black" stroke="black" stroke-width="0.005"/>
    <path d="M 0.940618 -0.506765 C 0.917057 -0.612396 0.879076 -0.714080 0.847248 -0.817373  L 0.696385 -0.731567  C 0.759920 -0.648778 0.828185 -0.569112 0.887359 -0.482765  Z" fill="black" stroke="black" stroke-width="0.005"/>
    <path d="M -0.8032 1.1357 C -0.7138 1.198, -0.5513 1.3411, -0.4781 1.4219" stroke-width="0.1877"/>
    <path d="M 1.526302 -0.296576 C 1.432193 -0.314947 1.336833 -0.297464 1.243059 -0.296517  L 1.239844 -0.241945  C 1.316496 -0.208225 1.400688 -0.187770 1.468738 -0.136822  Z" fill="black" stroke="black" stroke-width="0.005"/>
    <path d="M 0.803284 -0.173282 C 0.761301 -0.145771 0.733042 -0.103551 0.698824 -0.068350  L 0.724976 -0.047858  C 0.758990 -0.077295 0.788134 -0.113524 0.828531 -0.135285  Z" fill="black" stroke="black" stroke-width="0.005"/>
    <path d="M 0.563588 0.199547 C 0.549948 0.236996 0.539628 0.275526 0.527852 0.313573  L 0.572437 0.323137  C 0.579483 0.284799 0.585124 0.246163 0.593716 0.208098  Z" fill="black" stroke="black" stroke-width="0.005"/>
    <path d="M 0.428155 0.794718 C 0.389450 0.919184 0.345194 1.041913 0.303928 1.165442  L 0.479575 1.201079  C 0.485130 1.069103 0.493315 0.937065 0.493323 0.804959  Z" fill="black" stroke="black" stroke-width="0.005"/>
  </g>
</svg>
