<?xml version="1.0" encoding="utf-8" ?>
<svg xmlns="http://www.w3.org/2000/svg" xmlns:ev="http://www.w3.org/2001/xml-events" xmlns:xlink="http://www.w3.org/1999/xlink" baseProfile="full" version="1.1" viewBox="-3.389595857035056 -4.733800279045244 8.152897393061785 9.886345853028848">
  <defs/>
  <g stroke="none">
    <path d="M 3.505108 0.169495 C 3.201433 -0.433541 2.788564 -0.971425 2.320977 -1.454958  L 2.187453 -1.317531  C 2.602477 -0.830700 2.975791 -0.302097 3.229625 0.288275  Z" fill="black" stroke="black" stroke-width="0.005"/>
    <path d="M 2.220384 -0.002103 C 2.824993 -0.368085 3.247911 -0.929100 3.564842 -1.548383  L 2.994010 -1.733180  C 2.770312 -1.195792 2.486812 -0.697140 2.020024 -0.327089  Z" fill="white" stroke="white" stroke-width="0"/>
    <path d="M 2.170294 -0.083349 C 2.737141 -0.450396 3.133514 -0.994681 3.422134 -1.594582  L 3.136718 -1.686981  C 2.883299 -1.134410 2.576730 -0.610149 2.070114 -0.245842  Z" fill="black" stroke="black" stroke-width="0.005"/>
    <path d="M 1.580973 1.358800 C 1.798224 1.943762 1.760218 2.549889 1.662308 3.149863  L 1.950734 3.232388  C 2.045831 2.573495 2.020472 1.900654 1.754761 1.279820  Z" fill="black" stroke="black" stroke-width="0.005"/>
    <path d="M 1.131785 2.596524 C 1.816583 2.494755 2.466002 2.242729 3.084835 1.940689  L 2.760072 1.436180  C 2.236017 1.777766 1.665846 2.045564 1.063465 2.219441  Z" fill="white" stroke="white" stroke-width="0"/>
    <path d="M 1.114705 2.502253 C 1.779329 2.382927 2.407875 2.125494 3.003644 1.814562  L 2.841263 1.562307  C 2.292764 1.892961 1.704028 2.158361 1.080545 2.313712  Z" fill="black" stroke="black" stroke-width="0.005"/>
    <path d="M -1.231175 3.249902 C -0.556288 3.255279 0.078841 3.035236 0.652363 2.695027  L 0.542464 2.538065  C -0.001370 2.814602 -0.588520 2.986024 -1.204298 2.951108  Z" fill="black" stroke="black" stroke-width="0.005"/>
    <path d="M -0.760465 2.326087 C -0.511496 2.987382 -0.038663 3.507203 0.510472 3.934299  L 0.799207 3.408341  C 0.312791 3.087545 -0.124989 2.715520 -0.402928 2.188151  Z" fill="white" stroke="white" stroke-width="0"/>
    <path d="M -0.671081 2.291603 C -0.414191 2.916201 0.047182 3.406973 0.582655 3.802810  L 0.727023 3.539831  C 0.231257 3.187181 -0.227204 2.787858 -0.492312 2.222635  Z" fill="black" stroke="black" stroke-width="0.005"/>
    <path d="M -0.813747 1.736276 C -1.244554 1.259547 -1.585135 0.710865 -1.855919 0.130470  L -2.131402 0.249251  C -1.810384 0.839646 -1.432319 1.403923 -0.947272 1.873703  Z" fill="black" stroke="black" stroke-width="0.005"/>
    <path d="M -0.846679 0.420848 C -1.451287 0.786831 -1.874205 1.347845 -2.191137 1.967128  L -1.620304 2.151925  C -1.396607 1.614537 -1.113106 1.115886 -0.646318 0.745834  Z" fill="white" stroke="white" stroke-width="0"/>
    <path d="M -0.796589 0.502095 C -1.363435 0.869141 -1.759808 1.413426 -2.048429 2.013328  L -1.763012 2.105726  C -1.509593 1.553156 -1.203024 1.028895 -0.696408 0.664588  Z" fill="black" stroke="black" stroke-width="0.005"/>
    <path d="M -0.577028 -2.813643 C -0.708710 -2.151775 -0.610091 -1.487168 -0.381055 -0.861075  L -0.207267 -0.940054  C -0.378829 -1.525071 -0.438297 -2.133189 -0.288602 -2.731118  Z" fill="black" stroke="black" stroke-width="0.005"/>
    <path d="M 0.241921 -2.177779 C -0.442878 -2.076010 -1.092296 -1.823984 -1.711129 -1.521944  L -1.386366 -1.017435  C -0.862311 -1.359021 -0.292140 -1.626819 0.310241 -1.800695  Z" fill="white" stroke="white" stroke-width="0"/>
    <path d="M 0.259001 -2.083508 C -0.405623 -1.964181 -1.034169 -1.706748 -1.629938 -1.395816  L -1.467557 -1.143562  C -0.919059 -1.474216 -0.330323 -1.739615 0.293161 -1.894966  Z" fill="black" stroke="black" stroke-width="0.005"/>
    <path d="M 0.831241 -2.119319 C 1.366565 -2.440547 1.969821 -2.516228 2.578004 -2.532363  L 2.604881 -2.831156  C 1.939653 -2.801328 1.282966 -2.651373 0.721343 -2.276282  Z" fill="black" stroke="black" stroke-width="0.005"/>
    <path d="M 2.134171 -1.907342 C 1.885201 -2.568636 1.412369 -3.088458 0.863234 -3.515554  L 0.574499 -2.989596  C 1.060914 -2.668800 1.498695 -2.296775 1.776633 -1.769405  Z" fill="white" stroke="white" stroke-width="0"/>
    <path d="M 2.044787 -1.872858 C 1.787897 -2.497456 1.326523 -2.988228 0.791050 -3.384064  L 0.646683 -3.121085  C 1.142449 -2.768435 1.600910 -2.369112 1.866018 -1.803890  Z" fill="black" stroke="black" stroke-width="0.005"/>
    <path d="M 0.404495 -0.036836 C 0.121876 -0.041257 -0.101873 0.101459 -0.340335 0.224427  L -0.274295 0.301592  C -0.058486 0.181284 0.144583 0.043829 0.404495 0.036836  Z" fill="black" stroke="black" stroke-width="0.005"/>
    <path d="M 0.376811 0.164492 C 0.177575 0.015259 0.092831 -0.204059 -0.010490 -0.416920  L -0.206202 -0.362510  C -0.075454 -0.115047 0.050108 0.128095 0.294618 0.286783  Z" fill="white" stroke="white" stroke-width="0"/>
    <path d="M 0.356263 0.195065 C 0.144447 0.044276 0.052584 -0.183083 -0.059418 -0.403318  L -0.157274 -0.376112  C -0.027954 -0.141034 0.078138 0.102227 0.315166 0.256210  Z" fill="black" stroke="black" stroke-width="0.005"/>
    <path d="M 0.496902 0.275384 C 0.626766 0.245337 0.756630 0.215291 0.886494 0.185245  L 0.876804 0.143362  C 0.746940 0.173408 0.617076 0.203454 0.487212 0.233501  Z" fill="black" stroke="black" stroke-width="0.005"/>
    <path d="M 0.854790 0.326085 C 0.763769 0.228706 0.672748 0.131328 0.581727 0.033949  L 0.518915 0.092660  C 0.609936 0.190039 0.700958 0.287417 0.791979 0.384796  Z" fill="white" stroke="white" stroke-width="0"/>
    <path d="M 0.839088 0.340763 C 0.748066 0.243384 0.657045 0.146006 0.566024 0.048627  L 0.534618 0.077983  C 0.625639 0.175361 0.716660 0.272740 0.807682 0.370118  Z" fill="black" stroke="black" stroke-width="0.005"/>
    <path d="M 1.648000 0.117153 C 1.452656 0.288494 1.209427 0.324055 0.969210 0.381909  L 0.969210 0.455581  C 1.232303 0.402916 1.495613 0.373897 1.714041 0.194319  Z" fill="black" stroke="black" stroke-width="0.005"/>
    <path d="M 1.579907 0.781255 C 1.487099 0.504806 1.286015 0.320663 1.079087 0.131963  L 0.996895 0.254253  C 1.153123 0.432003 1.325127 0.594249 1.384195 0.835665  Z" fill="white" stroke="white" stroke-width="0"/>
    <path d="M 1.530979 0.794858 C 1.449866 0.523970 1.247517 0.353006 1.058539 0.162535  L 1.017443 0.223680  C 1.184540 0.405696 1.366574 0.570889 1.433123 0.822063  Z" fill="black" stroke="black" stroke-width="0.005"/>
  </g>
  <g fill="none" stroke="black">
    <path d="M 3.2794 -1.6408 C 3.4334 -2.1165, 3.0894 -2.637, 2.5914 -2.6818" stroke-width="0.305"/>
    <path d="M 3.3674 0.2289 C 3.5653 0.688, 3.3429 1.4178, 2.9225 1.6884" stroke-width="0.305"/>
    <path d="M 0.6548 3.6713 C 1.0931 3.9119, 1.669 3.6718, 1.8065 3.1911" stroke-width="0.305"/>
    <path d="M -1.2177 3.1005 C -1.7157 3.0557, -2.0597 2.5352, -1.9057 2.0595" stroke-width="0.305"/>
    <path d="M -1.5487 -1.2697 C -1.9692 -0.9991, -2.1916 -0.2693, -1.9937 0.1899" stroke-width="0.305"/>
    <path d="M -0.4328 -2.7724 C -0.2953 -3.2531, 0.2806 -3.4932, 0.7189 -3.2526" stroke-width="0.305"/>
    <path d="M 1.9554 -1.8384 C 2.0053 -1.709, 2.1547 -1.4829, 2.2542 -1.3862" stroke-width="0.1966"/>
    <path d="M 1.0976 2.408 C 0.9611 2.4327, 0.711 2.537, 0.5974 2.6165" stroke-width="0.1966"/>
    <path d="M -0.696408 0.664588 C -0.545371 0.555645 -0.412231 0.425594 -0.274295 0.301592  L -0.340335 0.224427  C -0.490048 0.320662 -0.636183 0.423851 -0.796589 0.502095  Z" fill="black" stroke="black" stroke-width="0.005"/>
    <path d="M 0.404495 0.036836 C 0.453770 0.026249 0.492755 0.063399 0.534618 0.077983  L 0.566024 0.048627  C 0.514719 0.019018 0.473281 -0.039912 0.404495 -0.036836  Z" fill="black" stroke="black" stroke-width="0.005"/>
    <path d="M 0.807682 0.370118 C 0.843514 0.428778 0.915846 0.429694 0.969210 0.455581  L 0.969210 0.381909  C 0.927065 0.369826 0.874042 0.377214 0.839088 0.340763  Z" fill="black" stroke="black" stroke-width="0.005"/>
    <path d="M 1.714041 0.194319 C 1.858383 0.089045 2.016366 0.005890 2.170294 -0.083349  L 2.070114 -0.245842  C 1.926510 -0.128389 1.777215 -0.016738 1.648000 0.117153  Z" fill="black" stroke="black" stroke-width="0.005"/>
    <path d="M 0.7763 -2.1978 C 0.6627 -2.1182, 0.4126 -2.014, 0.2761 -1.9892" stroke-width="0.1966"/>
    <path d="M -0.8805 1.805 C -0.781 1.9016, -0.6316 2.1277, -0.5817 2.2571" stroke-width="0.1966"/>
    <path d="M 1.754761 1.279820 C 1.665277 1.125403 1.601552 0.958243 1.530979 0.794858  L 1.433123 0.822063  C 1.478434 1.001924 1.516388 1.184129 1.580973 1.358800  Z" fill="black" stroke="black" stroke-width="0.005"/>
    <path d="M 1.058539 0.162535 C 1.003166 0.121612 0.935901 0.147407 0.876804 0.143362  L 0.886494 0.185245  C 0.929374 0.196493 0.982453 0.187406 1.017443 0.223680  Z" fill="black" stroke="black" stroke-width="0.005"/>
    <path d="M 0.487212 0.233501 C 0.437868 0.244255 0.397982 0.208546 0.356263 0.195065  L 0.315166 0.256210  C 0.373897 0.264492 0.434441 0.304080 0.496902 0.275384  Z" fill="black" stroke="black" stroke-width="0.005"/>
    <path d="M -0.059418 -0.403318 C -0.091973 -0.586520 -0.153600 -0.762467 -0.207267 -0.940054  L -0.381055 -0.861075  C -0.303081 -0.701145 -0.218347 -0.544003 -0.157274 -0.376112  Z" fill="black" stroke="black" stroke-width="0.005"/>
  </g>
</svg>
