<?xml version="1.0" encoding="utf-8" ?>
<svg xmlns="http://www.w3.org/2000/svg" xmlns:ev="http://www.w3.org/2001/xml-events" xmlns:xlink="http://www.w3.org/1999/xlink" baseProfile="full" version="1.1" viewBox="-7.1130540128035715 -3.2989422721888606 10.04051869530716 8.471529474944793">
  <defs/>
  <g stroke="none">
    <path d="M 0.760705 -1.389219 C 1.031119 -0.913176 0.881809 -0.543686 0.584063 -0.141263  L 0.681423 -0.003361  C 1.133769 -0.434883 1.302946 -0.972197 1.008187 -1.558784  Z" fill="black" stroke="black" stroke-width="0.005"/>
    <path d="M 1.979878 0.250314 C 1.695776 -0.420627 1.128672 -0.666368 0.437340 -0.588290  L 0.513384 -0.259352  C 0.952615 -0.191713 1.256683 -0.063057 1.397252 0.393654  Z" fill="white" stroke="white" stroke-width="0"/>
    <path d="M 1.834221 0.286149 C 1.592984 -0.324401 1.079509 -0.556071 0.456351 -0.506055  L 0.494373 -0.341586  C 0.992857 -0.295661 1.367916 -0.160947 1.542908 0.357819  Z" fill="black" stroke="black" stroke-width="0.005"/>
    <path d="M 0.929154 1.453886 C 0.329570 1.635506 -0.301873 1.632363 -0.915807 1.540485  L -0.966961 1.724215  C -0.312372 1.865807 0.363583 1.897248 1.020285 1.739710  Z" fill="black" stroke="black" stroke-width="0.005"/>
    <path d="M -0.100819 2.937353 C 0.115840 2.276158 0.179551 1.581338 0.142544 0.890294  L -0.231815 0.915285  C -0.279555 1.527089 -0.389316 2.139078 -0.651248 2.698548  Z" fill="white" stroke="white" stroke-width="0"/>
    <path d="M -0.238427 2.877652 C -0.011431 2.241650 0.065163 1.567881 0.048954 0.896542  L -0.138225 0.909037  C -0.164349 1.540324 -0.263297 2.173691 -0.513641 2.758249  Z" fill="black" stroke="black" stroke-width="0.005"/>
    <path d="M -3.579273 2.752145 C -3.037494 3.155256 -2.417880 3.433749 -1.781578 3.649476  L -1.712046 3.357645  C -2.329119 3.190250 -2.926235 2.946548 -3.465538 2.598997  Z" fill="black" stroke="black" stroke-width="0.005"/>
    <path d="M -2.540607 2.269426 C -2.817768 2.792142 -3.256958 3.150283 -3.747529 3.454339  L -3.477289 3.990036  C -2.914982 3.579403 -2.432664 3.069387 -2.182558 2.406706  Z" fill="white" stroke="white" stroke-width="0"/>
    <path d="M -2.451095 2.303746 C -2.715512 2.866175 -3.178128 3.251913 -3.679969 3.588263  L -3.544849 3.856111  C -2.998619 3.477117 -2.529385 2.996661 -2.272070 2.372386  Z" fill="black" stroke="black" stroke-width="0.005"/>
    <path d="M -4.580972 1.308043 C -4.892034 1.907257 -4.954381 2.575521 -4.888455 3.236829  L -4.597039 3.165576  C -4.666691 2.566129 -4.672672 1.964754 -4.413917 1.400145  Z" fill="black" stroke="black" stroke-width="0.005"/>
    <path d="M -3.962904 2.266971 C -4.518567 2.065538 -4.932426 1.680208 -5.299416 1.235766  L -5.793896 1.575605  C -5.310743 2.076949 -4.739477 2.484462 -4.048024 2.638878  Z" fill="white" stroke="white" stroke-width="0"/>
    <path d="M -3.984184 2.359948 C -4.577679 2.176919 -5.022280 1.771927 -5.423036 1.320726  L -5.670276 1.490645  C -5.220894 1.980269 -4.680891 2.378842 -4.026744 2.545901  Z" fill="black" stroke="black" stroke-width="0.005"/>
    <path d="M -3.282888 0.114743 C -3.919931 -0.109100 -4.590839 -0.079079 -5.237345 0.075952  L -5.127542 0.355135  C -4.542410 0.204814 -3.946563 0.116645 -3.350922 0.293999  Z" fill="black" stroke="black" stroke-width="0.005"/>
    <path d="M -4.040827 -1.172952 C -4.315714 -0.537103 -4.466953 0.141282 -4.531784 0.828317  L -4.151808 0.862640  C -4.015487 0.255373 -3.829271 -0.348126 -3.512836 -0.887952  Z" fill="white" stroke="white" stroke-width="0"/>
    <path d="M -3.908829 -1.101702 C -4.193027 -0.489209 -4.354378 0.169458 -4.436790 0.836897  L -4.246802 0.854059  C -4.128640 0.226466 -3.949789 -0.394613 -3.644833 -0.959202  Z" fill="black" stroke="black" stroke-width="0.005"/>
    <path d="M -0.636153 -0.633634 C -1.110654 -1.114333 -1.693865 -1.462890 -2.305327 -1.738734  L -2.399560 -1.453918  C -1.807387 -1.231030 -1.247376 -0.922344 -0.770140 -0.502334  Z" fill="black" stroke="black" stroke-width="0.005"/>
    <path d="M -1.673485 -0.300765 C -1.349073 -0.817637 -0.887629 -1.197586 -0.389406 -1.532236  L -0.694424 -2.048921  C -1.234788 -1.614483 -1.717451 -1.103620 -2.015724 -0.469187  Z" fill="white" stroke="white" stroke-width="0"/>
    <path d="M -1.759044 -0.342870 C -1.437126 -0.879957 -0.982521 -1.315680 -0.465661 -1.661407  L -0.618170 -1.919750  C -1.150037 -1.514101 -1.624290 -1.029475 -1.930164 -0.427081  Z" fill="black" stroke="black" stroke-width="0.005"/>
    <path d="M 0.011070 0.407763 C 0.032593 0.147934 0.175044 -0.058564 0.299367 -0.275566  L 0.240030 -0.328547  C 0.100054 -0.098537 -0.057983 0.118874 -0.086835 0.398563  Z" fill="black" stroke="black" stroke-width="0.005"/>
    <path d="M 0.404939 -0.079548 C 0.154254 -0.087553 -0.052386 -0.211932 -0.267617 -0.319416  L -0.384308 -0.161100  C -0.132341 -0.039835 0.115774 0.082613 0.404939 0.079548  Z" fill="white" stroke="white" stroke-width="0"/>
    <path d="M 0.404939 -0.039774 C 0.144140 -0.043699 -0.071733 -0.170778 -0.296790 -0.279837  L -0.355135 -0.200679  C -0.110403 -0.088424 0.123876 0.043924 0.404939 0.039774  Z" fill="black" stroke="black" stroke-width="0.005"/>
    <path d="M -2.287020 0.913667 C -2.290012 0.626171 -2.176765 0.372279 -2.063739 0.116939  L -2.155054 0.059278  C -2.269623 0.335543 -2.385970 0.609288 -2.373048 0.917282  Z" fill="black" stroke="black" stroke-width="0.005"/>
    <path d="M -2.810419 0.472163 C -2.537762 0.531417 -2.314961 0.689247 -2.090877 0.844131  L -1.970088 0.722396  C -2.213395 0.532361 -2.455003 0.341801 -2.761141 0.259785  Z" fill="white" stroke="white" stroke-width="0"/>
    <path d="M -2.798099 0.419069 C -2.517145 0.483931 -2.289485 0.650083 -2.060680 0.813697  L -2.000285 0.752830  C -2.238763 0.571597 -2.475752 0.389270 -2.773461 0.312880  Z" fill="black" stroke="black" stroke-width="0.005"/>
    <path d="M -2.080576 1.860425 C -1.939277 1.587477 -1.917441 1.289265 -1.893796 0.990672  L -1.979423 0.995183  C -2.009767 1.274827 -2.037457 1.555307 -2.176196 1.808079  Z" fill="black" stroke="black" stroke-width="0.005"/>
    <path d="M -1.452823 1.408264 C -1.728941 1.369506 -1.946519 1.208262 -2.174744 1.066554  L -2.294731 1.190080  C -2.046379 1.374270 -1.800896 1.557665 -1.488437 1.621300  Z" fill="white" stroke="white" stroke-width="0"/>
    <path d="M -1.461727 1.461523 C -1.745030 1.413117 -1.973967 1.254527 -2.204741 1.097436  L -2.264735 1.159199  C -2.022239 1.334358 -1.782242 1.509395 -1.479534 1.568041  Z" fill="black" stroke="black" stroke-width="0.005"/>
  </g>
  <g fill="none" stroke="black">
    <path d="M 0.8844 -1.474 C 0.6018 -1.8865, -0.1113 -2.0448, -0.5419 -1.7906" stroke-width="0.305"/>
    <path d="M 0.9747 1.5968 C 1.4511 1.4449, 1.808 0.8075, 1.6886 0.322" stroke-width="0.305"/>
    <path d="M -0.376 2.818 C -0.575 3.2766, -1.2604 3.6194, -1.7468 3.5036" stroke-width="0.305"/>
    <path d="M -3.6124 3.7222 C -4.0588 3.9474, -4.624 3.6869, -4.7427 3.2012" stroke-width="0.305"/>
    <path d="M -5.5467 1.4057 C -5.8299 0.9936, -5.6477 0.3985, -5.1824 0.2155" stroke-width="0.305"/>
    <path d="M -3.7768 -1.0305 C -3.5393 -1.4704, -2.8271 -1.7534, -2.3524 -1.5963" stroke-width="0.305"/>
    <path d="M -4.4974 1.3541 C -4.4318 1.2351, -4.354 0.9808, -4.3418 0.8455" stroke-width="0.1958"/>
    <path d="M -0.770140 -0.502334 C -0.641256 -0.388884 -0.494902 -0.298930 -0.355135 -0.200679  L -0.296790 -0.279837  C -0.412230 -0.395395 -0.535088 -0.504603 -0.636153 -0.633634  Z" fill="black" stroke="black" stroke-width="0.005"/>
    <path d="M 0.404939 0.039774 C 0.501502 0.066209 0.591177 0.013234 0.681423 -0.003361  L 0.584063 -0.141263  C 0.526900 -0.107556 0.477303 -0.049305 0.404939 -0.039774  Z" fill="black" stroke="black" stroke-width="0.005"/>
    <path d="M -1.930164 -0.427081 C -1.994593 -0.260301 -2.077332 -0.101498 -2.155054 0.059278  L -2.063739 0.116939  C -1.959996 -0.034796 -1.851853 -0.183792 -1.759044 -0.342870  Z" fill="black" stroke="black" stroke-width="0.005"/>
    <path d="M -2.373048 0.917282 C -2.379952 1.014850 -2.302539 1.081620 -2.264735 1.159199  L -2.204741 1.097436  C -2.232978 1.038397 -2.290215 0.986742 -2.287020 0.913667  Z" fill="black" stroke="black" stroke-width="0.005"/>
    <path d="M -1.479534 1.568041 C -1.305745 1.610526 -1.137006 1.669772 -0.966961 1.724215  L -0.915807 1.540485  C -1.097269 1.511049 -1.278235 1.476105 -1.461727 1.461523  Z" fill="black" stroke="black" stroke-width="0.005"/>
    <path d="M 0.456351 -0.506055 C 0.359770 -0.479074 0.309116 -0.388566 0.240030 -0.328547  L 0.299367 -0.275566  C 0.362931 -0.298934 0.422005 -0.348485 0.494373 -0.341586  Z" fill="black" stroke="black" stroke-width="0.005"/>
    <path d="M -0.086835 0.398563 C -0.121021 0.566694 -0.124541 0.738645 -0.138225 0.909037  L 0.048954 0.896542  C 0.033927 0.734013 0.008805 0.571803 0.011070 0.407763  Z" fill="black" stroke="black" stroke-width="0.005"/>
    <path d="M -3.5224 2.6756 C -3.6315 2.5946, -3.873 2.4832, -4.0055 2.4529" stroke-width="0.1958"/>
    <path d="M -3.350922 0.293999 C -3.169742 0.349292 -2.983053 0.380888 -2.798099 0.419069  L -2.773461 0.312880  C -2.944597 0.250495 -3.118655 0.194398 -3.282888 0.114743  Z" fill="black" stroke="black" stroke-width="0.005"/>
    <path d="M -2.060680 0.813697 C -2.005593 0.859882 -2.004419 0.935489 -1.979423 0.995183  L -1.893796 0.990672  C -1.926050 0.912095 -1.925427 0.812299 -2.000285 0.752830  Z" fill="black" stroke="black" stroke-width="0.005"/>
    <path d="M -2.176196 1.808079 C -2.281050 1.965689 -2.363045 2.136639 -2.451095 2.303746  L -2.272070 2.372386  C -2.211415 2.200670 -2.156750 2.026461 -2.080576 1.860425  Z" fill="black" stroke="black" stroke-width="0.005"/>
  </g>
</svg>
