<?xml version="1.0" encoding="utf-8" ?>
<svg xmlns="http://www.w3.org/2000/svg" xmlns:ev="http://www.w3.org/2001/xml-events" xmlns:xlink="http://www.w3.org/1999/xlink" baseProfile="full" version="1.1" viewBox="-2.9361785875276984 -3.3101504483786552 7.704846855417192 8.59334031575195">
  <defs/>
  <g stroke="none">
    <path d="M 0.229323 3.354430 C -0.045243 2.840618 0.058634 2.364783 0.271006 1.860264  L 0.125497 1.744158  C -0.207194 2.298107 -0.308547 2.907550 -0.025575 3.512629  Z" fill="black" stroke="black" stroke-width="0.005"/>
    <path d="M 0.575191 2.407054 C -0.016508 2.330779 -0.516343 2.049480 -0.984225 1.701952  L -1.377410 2.155169  C -0.784757 2.517429 -0.132026 2.774807 0.573884 2.767930  Z" fill="white" stroke="white" stroke-width="0"/>
    <path d="M 0.574864 2.497273 C -0.047543 2.448613 -0.580621 2.158405 -1.082521 1.815256  L -1.279114 2.041865  C -0.721351 2.403837 -0.100310 2.661991 0.574211 2.677711  Z" fill="black" stroke="black" stroke-width="0.005"/>
    <path d="M -1.423027 0.401945 C -1.174816 -0.096223 -0.769759 -0.199054 -0.258029 -0.205024  L -0.208855 -0.362708  C -0.829995 -0.462302 -1.375476 -0.282153 -1.701251 0.289733  Z" fill="black" stroke="black" stroke-width="0.005"/>
    <path d="M -0.273013 -0.145798 C -0.594128 -0.507067 -0.591395 -0.872944 -0.425816 -1.294963  L -0.944389 -1.596761  C -1.135229 -0.933905 -1.052256 -0.309117 -0.461752 0.125323  Z" fill="white" stroke="white" stroke-width="0"/>
    <path d="M -0.320198 -0.078018 C -0.713579 -0.468293 -0.711809 -0.879751 -0.555459 -1.370413  L -0.814746 -1.521311  C -1.004099 -0.924916 -0.933950 -0.352444 -0.414568 0.057543  Z" fill="black" stroke="black" stroke-width="0.005"/>
    <path d="M 0.769592 -1.968434 C 1.370441 -1.829986 1.883625 -1.498585 2.324884 -1.077849  L 2.466986 -1.189048  C 2.019069 -1.681891 1.475618 -2.075432 0.827967 -2.262700  Z" fill="black" stroke="black" stroke-width="0.005"/>
    <path d="M 2.742749 -2.324060 C 2.038580 -2.149574 1.599020 -1.654027 1.363978 -0.992622  L 1.725884 -0.905228  C 1.987396 -1.322734 2.284627 -1.661715 2.805585 -1.727359  Z" fill="white" stroke="white" stroke-width="0"/>
    <path d="M 2.758458 -2.174885 C 2.107011 -2.027203 1.687866 -1.573319 1.454454 -0.970773  L 1.635407 -0.927076  C 1.903586 -1.404278 2.215663 -1.778199 2.789876 -1.876534  Z" fill="black" stroke="black" stroke-width="0.005"/>
    <path d="M 3.441611 -1.173600 C 3.300214 -0.608266 2.903745 -0.324405 2.407848 -0.091977  L 2.438261 0.092124  C 3.056433 -0.096586 3.540432 -0.481165 3.736739 -1.119752  Z" fill="black" stroke="black" stroke-width="0.005"/>
    <path d="M 2.549302 -0.703568 C 2.940541 -0.248659 3.133805 0.297683 3.261909 0.870603  L 3.855222 0.781273  C 3.642328 0.120553 3.320461 -0.503444 2.792518 -0.970175  Z" fill="white" stroke="white" stroke-width="0"/>
    <path d="M 2.610106 -0.770220 C 3.041334 -0.315791 3.253812 0.257347 3.410237 0.848271  L 3.706894 0.803606  C 3.520037 0.164594 3.222251 -0.440087 2.731714 -0.903523  Z" fill="black" stroke="black" stroke-width="0.005"/>
    <path d="M 2.761812 2.172942 C 2.213557 2.460849 1.605239 2.552126 0.992777 2.533828  L 0.962095 2.711640  C 1.625478 2.778949 2.294809 2.714169 2.908510 2.434629  Z" fill="black" stroke="black" stroke-width="0.005"/>
    <path d="M 1.519600 3.738034 C 1.924626 3.136128 1.918698 2.473416 1.650439 1.824685  L 1.322335 2.002505  C 1.408012 2.487987 1.414634 2.939327 1.072477 3.337933  Z" fill="white" stroke="white" stroke-width="0"/>
    <path d="M 1.407819 3.638009 C 1.791735 3.091257 1.798571 2.473106 1.568413 1.869140  L 1.404361 1.958050  C 1.524987 2.492265 1.544003 2.979506 1.184257 3.437959  Z" fill="black" stroke="black" stroke-width="0.005"/>
    <path d="M 0.187155 -0.019101 C 0.061203 -0.023082 -0.063277 -0.000777 -0.188158 0.009544  L -0.181025 0.052198  C -0.058533 0.040456 0.063419 0.017015 0.187155 0.019101  Z" fill="black" stroke="black" stroke-width="0.005"/>
    <path d="M 0.144974 0.124374 C 0.068855 0.028226 0.013785 -0.081818 -0.050787 -0.185251  L -0.126912 -0.144189  C -0.057165 -0.038725 0.002802 0.073918 0.084632 0.171242  Z" fill="white" stroke="white" stroke-width="0"/>
    <path d="M 0.129888 0.136091 C 0.052340 0.039649 -0.003954 -0.071044 -0.069818 -0.174986  L -0.107881 -0.154455  C -0.039429 -0.049497 0.019313 0.062495 0.099718 0.159525  Z" fill="black" stroke="black" stroke-width="0.005"/>
    <path d="M 0.221042 0.231776 C 0.394223 0.258027 0.555443 0.192234 0.719863 0.157985  L 0.695414 0.102691  C 0.540911 0.138466 0.389910 0.203859 0.225802 0.183849  Z" fill="black" stroke="black" stroke-width="0.005"/>
    <path d="M 0.595676 0.464307 C 0.554980 0.288702 0.431251 0.159888 0.336103 0.015817  L 0.266241 0.082134  C 0.344433 0.214885 0.449136 0.335862 0.478344 0.493526  Z" fill="white" stroke="white" stroke-width="0"/>
    <path d="M 0.566343 0.471611 C 0.528584 0.300525 0.409490 0.173600 0.318638 0.032396  L 0.283707 0.065555  C 0.366099 0.201128 0.475581 0.324098 0.507677 0.486221  Z" fill="black" stroke="black" stroke-width="0.005"/>
    <path d="M 1.250923 1.479517 C 1.043540 1.244531 0.868038 0.984813 0.691117 0.727034  L 0.611262 0.775921  C 0.787225 1.041065 0.962218 1.307692 1.169510 1.550181  Z" fill="black" stroke="black" stroke-width="0.005"/>
    <path d="M 0.602575 1.542325 C 0.850091 1.332558 1.053857 1.080644 1.258576 0.831229  L 1.100390 0.715412  C 0.901397 0.947677 0.703689 1.182983 0.465336 1.377186  Z" fill="white" stroke="white" stroke-width="0"/>
    <path d="M 0.568265 1.501040 C 0.813475 1.295144 1.015744 1.047407 1.219030 0.802275  L 1.139937 0.744366  C 0.939514 0.980924 0.740274 1.220356 0.499646 1.418471  Z" fill="black" stroke="black" stroke-width="0.005"/>
    <path d="M 1.426745 -0.475504 C 1.417885 -0.163939 1.351007 0.140284 1.287123 0.443678  L 1.381374 0.470621  C 1.450273 0.159706 1.521852 -0.152003 1.534047 -0.471960  Z" fill="black" stroke="black" stroke-width="0.005"/>
    <path d="M 1.944601 -0.081084 C 1.623008 -0.093741 1.302512 -0.066040 0.982562 -0.039733  L 1.003311 0.146375  C 1.312803 0.130618 1.623011 0.112195 1.932865 0.134202  Z" fill="white" stroke="white" stroke-width="0"/>
    <path d="M 1.941667 -0.027262 C 1.623003 -0.042228 1.305088 -0.016879 0.987749 0.006794  L 0.998124 0.099848  C 1.310234 0.081449 1.623004 0.060740 1.935799 0.080380  Z" fill="black" stroke="black" stroke-width="0.005"/>
  </g>
  <g fill="none" stroke="black">
    <path d="M 1.296 3.538 C 0.9626 3.9106, 0.3655 3.8584, 0.1019 3.4335" stroke-width="0.305"/>
    <path d="M -1.5621 0.3458 C -1.7492 0.8095, -1.5585 1.6009, -1.1808 1.9286" stroke-width="0.305"/>
    <path d="M 0.7988 -2.1156 C 0.3083 -2.2129, -0.4336 -1.878, -0.6851 -1.4459" stroke-width="0.305"/>
    <path d="M 2.7742 -2.0257 C 3.2714 -2.0781, 3.6789 -1.6386, 3.5892 -1.1467" stroke-width="0.305"/>
    <path d="M 2.8352 2.3038 C 3.2713 2.0593, 3.633 1.3204, 3.5586 0.8259" stroke-width="0.305"/>
    <path d="M 0.5745 2.5875 C 0.676 2.5879, 0.8774 2.6055, 0.9774 2.6227" stroke-width="0.1854"/>
    <path d="M 2.6709 -0.8369 C 2.596 -0.9053, 2.4585 -1.0535, 2.3959 -1.1334" stroke-width="0.1854"/>
    <path d="M -0.414568 0.057543 C -0.337470 0.101522 -0.256454 0.057054 -0.181025 0.052198  L -0.188158 0.009544  C -0.232110 -0.017254 -0.298412 -0.023599 -0.320198 -0.078018  Z" fill="black" stroke="black" stroke-width="0.005"/>
    <path d="M 0.187155 0.019101 C 0.226593 0.017275 0.252926 0.049709 0.283707 0.065555  L 0.318638 0.032396  C 0.276548 0.014205 0.239450 -0.027130 0.187155 -0.019101  Z" fill="black" stroke="black" stroke-width="0.005"/>
    <path d="M 0.507677 0.486221 C 0.522314 0.589306 0.575667 0.680180 0.611262 0.775921  L 0.691117 0.727034  C 0.648924 0.642758 0.591248 0.564480 0.566343 0.471611  Z" fill="black" stroke="black" stroke-width="0.005"/>
    <path d="M 1.169510 1.550181 C 1.264777 1.676233 1.329115 1.820699 1.404361 1.958050  L 1.568413 1.869140  C 1.466130 1.736621 1.373976 1.594798 1.250923 1.479517  Z" fill="black" stroke="black" stroke-width="0.005"/>
    <path d="M 0.271006 1.860264 C 0.354797 1.728421 0.466315 1.618211 0.568265 1.501040  L 0.499646 1.418471  C 0.372833 1.524234 0.237073 1.620696 0.125497 1.744158  Z" fill="black" stroke="black" stroke-width="0.005"/>
    <path d="M 1.219030 0.802275 C 1.298558 0.704978 1.329082 0.581284 1.381374 0.470621  L 1.287123 0.443678  C 1.239591 0.543918 1.211454 0.655907 1.139937 0.744366  Z" fill="black" stroke="black" stroke-width="0.005"/>
    <path d="M 1.534047 -0.471960 C 1.550068 -0.627530 1.598699 -0.776305 1.635407 -0.927076  L 1.454454 -0.970773  C 1.441129 -0.806080 1.415123 -0.641367 1.426745 -0.475504  Z" fill="black" stroke="black" stroke-width="0.005"/>
    <path d="M 2.407848 -0.091977 C 2.255807 -0.049684 2.097453 -0.044733 1.941667 -0.027262  L 1.935799 0.080380  C 2.102911 0.088105 2.270424 0.109785 2.438261 0.092124  Z" fill="black" stroke="black" stroke-width="0.005"/>
    <path d="M 0.987749 0.006794 C 0.884344 0.019177 0.792007 0.069810 0.695414 0.102691  L 0.719863 0.157985  C 0.812029 0.137566 0.902010 0.100491 0.998124 0.099848  Z" fill="black" stroke="black" stroke-width="0.005"/>
    <path d="M 0.225802 0.183849 C 0.186383 0.185421 0.160569 0.152446 0.129888 0.136091  L 0.099718 0.159525  C 0.138237 0.184349 0.168103 0.231067 0.221042 0.231776  Z" fill="black" stroke="black" stroke-width="0.005"/>
    <path d="M -0.069818 -0.174986 C -0.077348 -0.262944 -0.161658 -0.303474 -0.208855 -0.362708  L -0.258029 -0.205024  C -0.211968 -0.190835 -0.147053 -0.199232 -0.107881 -0.154455  Z" fill="black" stroke="black" stroke-width="0.005"/>
  </g>
</svg>
