<?xml version="1.0" encoding="utf-8" ?>
<svg xmlns="http://www.w3.org/2000/svg" xmlns:ev="http://www.w3.org/2001/xml-events" xmlns:xlink="http://www.w3.org/1999/xlink" baseProfile="full" version="1.1" viewBox="-3.9399211724640137 -3.2225637488947294 7.989064657929217 7.265480390096604">
  <defs/>
  <g stroke="none">
    <path d="M 2.405400 -0.529370 C 1.859824 -0.904568 1.270250 -0.856771 0.718242 -0.541183  L 0.823472 -0.405438  C 1.315976 -0.589913 1.756060 -0.652843 2.204938 -0.306178  Z" fill="black" stroke="black" stroke-width="0.005"/>
    <path d="M 1.437885 -0.079046 C 1.632962 -0.779336 1.376555 -1.386981 0.908854 -1.901121  L 0.567880 -1.407425  C 0.930923 -1.069722 1.155699 -0.697718 1.110898 -0.176939  Z" fill="white" stroke="white" stroke-width="0"/>
    <path d="M 1.356138 -0.103519 C 1.513425 -0.752494 1.267178 -1.315045 0.823611 -1.777697  L 0.653123 -1.530849  C 1.033361 -1.137039 1.275400 -0.727103 1.192645 -0.152466  Z" fill="black" stroke="black" stroke-width="0.005"/>
    <path d="M 1.212959 0.767680 C 1.341752 1.342220 1.140630 1.797624 0.812590 2.249078  L 1.017936 2.467786  C 1.394201 1.943363 1.577540 1.344966 1.373670 0.707443  Z" fill="black" stroke="black" stroke-width="0.005"/>
    <path d="M 0.686204 1.337203 C 1.330947 1.679439 1.971691 1.544451 2.560244 1.172918  L 2.133190 0.751462  C 1.743536 1.040493 1.349035 1.183184 0.859982 1.028822  Z" fill="white" stroke="white" stroke-width="0"/>
    <path d="M 0.729649 1.260108 C 1.328937 1.554056 1.921761 1.421903 2.453480 1.067554  L 2.239953 0.856826  C 1.789986 1.155395 1.353852 1.309297 0.816538 1.105917  Z" fill="black" stroke="black" stroke-width="0.005"/>
    <path d="M -2.197264 1.250979 C -1.604542 1.561112 -0.978154 1.511013 -0.387432 1.240924  L -0.482736 1.086582  C -1.018065 1.245556 -1.522390 1.307676 -2.028599 1.002882  Z" fill="black" stroke="black" stroke-width="0.005"/>
    <path d="M -1.406384 0.679726 C -1.449647 1.392479 -1.169857 2.028298 -0.752918 2.586859  L -0.346788 2.145206  C -0.712983 1.727709 -0.992772 1.274383 -1.041363 0.702426  Z" fill="white" stroke="white" stroke-width="0"/>
    <path d="M -1.315129 0.685401 C -1.334297 1.358856 -1.058847 1.958351 -0.651386 2.476446  L -0.448320 2.255619  C -0.819673 1.795734 -1.109182 1.308880 -1.132619 0.696751  Z" fill="black" stroke="black" stroke-width="0.005"/>
    <path d="M -1.156935 0.241083 C -1.198216 -0.369539 -0.960560 -0.881972 -0.637742 -1.376171  L -0.861722 -1.575753  C -1.215125 -1.019695 -1.427578 -0.395787 -1.337201 0.271793  Z" fill="black" stroke="black" stroke-width="0.005"/>
    <path d="M -0.442605 -0.435906 C -1.095326 -0.751938 -1.755241 -0.636837 -2.371573 -0.311061  L -1.983351 0.146414  C -1.552511 -0.124653 -1.117108 -0.266021 -0.603559 -0.118432  Z" fill="white" stroke="white" stroke-width="0"/>
    <path d="M -0.482843 -0.356537 C -1.095019 -0.628798 -1.710854 -0.512821 -2.274518 -0.196692  L -2.080407 0.032045  C -1.594681 -0.241822 -1.119236 -0.390260 -0.563321 -0.197801  Z" fill="black" stroke="black" stroke-width="0.005"/>
    <path d="M 0.219066 -0.019992 C 0.076211 -0.016491 -0.048016 -0.089519 -0.178250 -0.130928  L -0.207177 -0.077414  C -0.067130 -0.039767 0.067888 0.031851 0.219066 0.019992  Z" fill="black" stroke="black" stroke-width="0.005"/>
    <path d="M 0.079768 0.210165 C 0.043528 0.082905 0.156784 -0.003841 0.198343 -0.101799  L 0.147531 -0.167146  C 0.079101 -0.040249 -0.051226 0.052927 -0.020136 0.223890  Z" fill="white" stroke="white" stroke-width="0"/>
    <path d="M 0.054792 0.213596 C 0.018840 0.075083 0.139049 -0.012668 0.185640 -0.118136  L 0.160234 -0.150809  C 0.097101 -0.030465 -0.025540 0.059784 0.004840 0.220459  Z" fill="black" stroke="black" stroke-width="0.005"/>
    <path d="M 0.561662 0.011413 C 0.507021 -0.106098 0.370980 -0.120020 0.276770 -0.177956  L 0.271181 -0.142893  C 0.356154 -0.089288 0.479349 -0.074613 0.528687 0.031510  Z" fill="black" stroke="black" stroke-width="0.005"/>
    <path d="M 0.527013 -0.302492 C 0.461318 -0.206279 0.366558 -0.136644 0.285400 -0.055353  L 0.325033 0.000152  C 0.418020 -0.079060 0.524527 -0.144749 0.602714 -0.241099  Z" fill="white" stroke="white" stroke-width="0"/>
    <path d="M 0.545939 -0.287144 C 0.477065 -0.190935 0.379414 -0.122255 0.295308 -0.041477  L 0.315125 -0.013725  C 0.405145 -0.093463 0.508674 -0.160172 0.583789 -0.256447  Z" fill="black" stroke="black" stroke-width="0.005"/>
    <path d="M 0.055944 0.454651 C 0.137901 0.675580 0.301890 0.838247 0.452503 1.010639  L 0.502381 0.950045  C 0.358112 0.788943 0.201499 0.636782 0.120317 0.429655  Z" fill="black" stroke="black" stroke-width="0.005"/>
    <path d="M 0.419668 0.480770 C 0.251977 0.629459 0.062472 0.748777 -0.122948 0.872921  L -0.035463 1.013738  C 0.151074 0.874811 0.342824 0.741284 0.508759 0.576925  Z" fill="white" stroke="white" stroke-width="0"/>
    <path d="M 0.441941 0.504809 C 0.274688 0.657426 0.084619 0.780280 -0.101077 0.908125  L -0.057334 0.978534  C 0.128920 0.843297 0.320112 0.713337 0.486486 0.552887  Z" fill="black" stroke="black" stroke-width="0.005"/>
    <path d="M 0.608932 0.407577 C 0.667411 0.330625 0.761637 0.299437 0.838165 0.248285  L 0.828360 0.221315  C 0.746153 0.273196 0.645642 0.303358 0.581954 0.383380  Z" fill="black" stroke="black" stroke-width="0.005"/>
    <path d="M 0.840074 0.323418 C 0.754024 0.288242 0.712659 0.200983 0.652585 0.139410  L 0.593297 0.172010  C 0.664297 0.240523 0.714108 0.339755 0.815027 0.375503  Z" fill="white" stroke="white" stroke-width="0"/>
    <path d="M 0.833812 0.336439 C 0.744040 0.301123 0.700569 0.210876 0.637763 0.147560  L 0.608119 0.163860  C 0.676388 0.230645 0.724083 0.326880 0.821289 0.362482  Z" fill="black" stroke="black" stroke-width="0.005"/>
    <path d="M 1.153687 0.117960 C 1.115080 0.235932 0.988147 0.270089 0.905648 0.339125  L 0.915737 0.373077  C 1.010437 0.299984 1.150166 0.268948 1.198327 0.139065  Z" fill="black" stroke="black" stroke-width="0.005"/>
    <path d="M 1.224045 0.450961 C 1.168192 0.318733 1.027024 0.280629 0.926931 0.202028  L 0.902453 0.268078  C 0.979739 0.340051 1.096694 0.383248 1.133754 0.495516  Z" fill="white" stroke="white" stroke-width="0"/>
    <path d="M 1.201472 0.462100 C 1.150720 0.334948 1.014928 0.295320 0.920812 0.218541  L 0.908573 0.251566  C 0.991285 0.325018 1.114967 0.367228 1.156327 0.484377  Z" fill="black" stroke="black" stroke-width="0.005"/>
  </g>
  <g fill="none" stroke="black">
    <path d="M 0.7384 -1.6543 C 0.327 -1.9384, -0.4171 -1.8493, -0.7497 -1.476" stroke-width="0.305"/>
    <path d="M 2.3052 -0.4178 C 2.6772 -0.0837, 2.6979 0.6063, 2.3467 0.9622" stroke-width="0.305"/>
    <path d="M -0.5499 2.366 C -0.1818 2.7045, 0.5507 2.7007, 0.9153 2.3584" stroke-width="0.305"/>
    <path d="M -2.1129 1.1269 C -2.5264 0.8458, -2.5587 0.2412, -2.1775 -0.0823" stroke-width="0.305"/>
    <path d="M -0.563321 -0.197801 C -0.443637 -0.160758 -0.325698 -0.118019 -0.207177 -0.077414  L -0.178250 -0.130928  C -0.279871 -0.205898 -0.380575 -0.282364 -0.482843 -0.356537  Z" fill="black" stroke="black" stroke-width="0.005"/>
    <path d="M 0.219066 0.019992 C 0.255285 0.022455 0.283945 -0.001855 0.315125 -0.013725  L 0.295308 -0.041477  C 0.270452 -0.033905 0.246844 -0.016882 0.219066 -0.019992  Z" fill="black" stroke="black" stroke-width="0.005"/>
    <path d="M 0.583789 -0.256447 C 0.656296 -0.317718 0.743891 -0.356458 0.823472 -0.405438  L 0.718242 -0.541183  C 0.659864 -0.457379 0.588747 -0.381088 0.545939 -0.287144  Z" fill="black" stroke="black" stroke-width="0.005"/>
    <path d="M 0.816538 1.105917 C 0.705699 1.067167 0.606510 1.002948 0.502381 0.950045  L 0.452503 1.010639  C 0.544244 1.094027 0.628026 1.187402 0.729649 1.260108  Z" fill="black" stroke="black" stroke-width="0.005"/>
    <path d="M 0.120317 0.429655 C 0.087507 0.361223 0.075921 0.285651 0.054792 0.213596  L 0.004840 0.220459  C 0.021174 0.298429 0.027099 0.379373 0.055944 0.454651  Z" fill="black" stroke="black" stroke-width="0.005"/>
    <path d="M 0.185640 -0.118136 C 0.208857 -0.141339 0.243240 -0.135634 0.271181 -0.142893  L 0.276770 -0.177956  C 0.238666 -0.170506 0.192903 -0.181717 0.160234 -0.150809  Z" fill="black" stroke="black" stroke-width="0.005"/>
    <path d="M 0.528687 0.031510 C 0.556470 0.074834 0.581729 0.119695 0.608119 0.163860  L 0.637763 0.147560  C 0.612461 0.102149 0.588305 0.056077 0.561662 0.011413  Z" fill="black" stroke="black" stroke-width="0.005"/>
    <path d="M 0.821289 0.362482 C 0.850225 0.381957 0.884851 0.370591 0.915737 0.373077  L 0.905648 0.339125  C 0.882309 0.338808 0.856791 0.348605 0.833812 0.336439  Z" fill="black" stroke="black" stroke-width="0.005"/>
    <path d="M 1.198327 0.139065 C 1.260052 0.064498 1.304350 -0.022207 1.356138 -0.103519  L 1.192645 -0.152466  C 1.179833 -0.062656 1.174991 0.029069 1.153687 0.117960  Z" fill="black" stroke="black" stroke-width="0.005"/>
    <path d="M -1.2471 0.2564 C -1.2287 0.3644, -1.2171 0.5817, -1.2239 0.6911" stroke-width="0.1879"/>
    <path d="M 1.373670 0.707443 C 1.321194 0.622231 1.258816 0.543698 1.201472 0.462100  L 1.156327 0.484377  C 1.175977 0.578616 1.201720 0.671952 1.212959 0.767680  Z" fill="black" stroke="black" stroke-width="0.005"/>
    <path d="M 0.920812 0.218541 C 0.890188 0.204565 0.858492 0.219498 0.828360 0.221315  L 0.838165 0.248285  C 0.861182 0.248807 0.886182 0.239808 0.908573 0.251566  Z" fill="black" stroke="black" stroke-width="0.005"/>
    <path d="M 0.581954 0.383380 C 0.537561 0.426461 0.488646 0.464450 0.441941 0.504809  L 0.486486 0.552887  C 0.527528 0.504662 0.571272 0.458604 0.608932 0.407577  Z" fill="black" stroke="black" stroke-width="0.005"/>
    <path d="M -0.101077 0.908125 C -0.228477 0.967160 -0.355738 1.026706 -0.482736 1.086582  L -0.387432 1.240924  C -0.277112 1.153874 -0.166738 1.066737 -0.057334 0.978534  Z" fill="black" stroke="black" stroke-width="0.005"/>
  </g>
</svg>
