<?xml version="1.0" encoding="utf-8" ?>
<svg xmlns="http://www.w3.org/2000/svg" xmlns:ev="http://www.w3.org/2001/xml-events" xmlns:xlink="http://www.w3.org/1999/xlink" baseProfile="full" version="1.1" viewBox="-3.2909650198627327 -3.349419923761121 8.311471907497987 8.458566250671016">
  <defs/>
  <g stroke="none">
    <path d="M 3.495880 -0.125403 C 3.239813 0.419752 2.775374 0.697654 2.245812 0.921502  L 2.275546 1.106210  C 2.907363 0.929985 3.449608 0.579411 3.772595 -0.009523  Z" fill="black" stroke="black" stroke-width="0.005"/>
    <path d="M 2.487974 0.179132 C 2.797910 0.692576 2.898140 1.263596 2.930756 1.849597  L 3.530667 1.859951  C 3.432255 1.172348 3.220423 0.502535 2.780320 -0.048177  Z" fill="white" stroke="white" stroke-width="0"/>
    <path d="M 2.561061 0.122305 C 2.909830 0.642652 3.024095 1.243448 3.080734 1.852186  L 3.380689 1.857363  C 3.303581 1.195695 3.111699 0.549172 2.707234 0.008650  Z" fill="black" stroke="black" stroke-width="0.005"/>
    <path d="M 0.327653 2.687347 C 0.912076 3.025290 1.576708 3.139638 2.242852 3.138227  L 2.202360 2.840972  C 1.591189 2.856472 0.981114 2.813811 0.423289 2.528798  Z" fill="black" stroke="black" stroke-width="0.005"/>
    <path d="M 0.509009 3.877991 C 1.084779 3.449076 1.372297 2.828669 1.460149 2.133193  L 1.086300 2.117677  C 0.916874 2.621094 0.697265 3.080281 0.213637 3.355730  Z" fill="white" stroke="white" stroke-width="0"/>
    <path d="M 0.435166 3.747425 C 0.981930 3.357280 1.266154 2.777496 1.366687 2.129314  L 1.179762 2.121556  C 1.019886 2.673809 0.798658 3.167764 0.287480 3.486295  Z" fill="black" stroke="black" stroke-width="0.005"/>
    <path d="M -0.395205 1.388834 C -0.838791 1.894589 -0.963631 2.528712 -0.909414 3.180568  L -0.619353 3.103986  C -0.669541 2.530672 -0.624058 1.996815 -0.260933 1.517398  Z" fill="black" stroke="black" stroke-width="0.005"/>
    <path d="M -0.005302 2.248676 C -0.570681 2.031432 -1.017610 1.646643 -1.423719 1.212738  L -1.886903 1.594131  C -1.369543 2.056309 -0.781671 2.441407 -0.098781 2.607001  Z" fill="white" stroke="white" stroke-width="0"/>
    <path d="M -0.028672 2.338257 C -0.614311 2.128560 -1.118957 1.759685 -1.539515 1.308086  L -1.771107 1.498783  C -1.285284 1.956546 -0.726254 2.337481 -0.075412 2.517420  Z" fill="black" stroke="black" stroke-width="0.005"/>
    <path d="M -1.569001 -0.076542 C -1.198660 -0.494708 -0.775398 -0.494346 -0.274849 -0.375112  L -0.187818 -0.518718  C -0.768301 -0.765284 -1.345169 -0.726161 -1.808501 -0.257206  Z" fill="black" stroke="black" stroke-width="0.005"/>
    <path d="M -0.338717 -0.280400 C -0.541760 -0.722216 -0.433804 -1.077802 -0.157108 -1.440775  L -0.572372 -1.873853  C -0.940672 -1.289173 -1.038861 -0.663562 -0.603412 -0.073700  Z" fill="white" stroke="white" stroke-width="0"/>
    <path d="M -0.404891 -0.228725 C -0.667854 -0.718944 -0.548142 -1.118449 -0.260924 -1.549045  L -0.468556 -1.765584  C -0.816972 -1.243689 -0.912781 -0.671264 -0.537238 -0.125375  Z" fill="black" stroke="black" stroke-width="0.005"/>
    <path d="M 1.117529 -1.682951 C 1.635660 -1.337981 2.020668 -0.843107 2.318582 -0.304049  L 2.490988 -0.371579  C 2.208194 -0.977238 1.817336 -1.527555 1.279602 -1.935404  Z" fill="black" stroke="black" stroke-width="0.005"/>
    <path d="M 3.072154 -1.426457 C 2.354187 -1.436099 1.750395 -1.116793 1.260831 -0.615225  L 1.547816 -0.378857  C 1.986402 -0.676695 2.437812 -0.908348 2.988428 -0.832327  Z" fill="white" stroke="white" stroke-width="0"/>
    <path d="M 3.051222 -1.277925 C 2.380137 -1.300850 1.803663 -1.012005 1.332577 -0.556133  L 1.476070 -0.437949  C 1.936637 -0.780792 2.410375 -1.039186 3.009359 -0.980860  Z" fill="black" stroke="black" stroke-width="0.005"/>
    <path d="M 0.286623 -0.031421 C 0.097677 -0.028727 -0.088122 -0.063727 -0.274371 -0.088322  L -0.286805 -0.028692  C -0.096452 -0.002857 0.093394 0.033636 0.286623 0.031421  Z" fill="black" stroke="black" stroke-width="0.005"/>
    <path d="M 0.096185 0.277219 C 0.075123 0.082976 0.015528 -0.103167 -0.033419 -0.291112  L -0.148918 -0.252362  C -0.103400 -0.072274 -0.047724 0.106184 -0.028625 0.292032  Z" fill="white" stroke="white" stroke-width="0"/>
    <path d="M 0.064983 0.280922 C 0.044409 0.088779 -0.014205 -0.095443 -0.062293 -0.281425  L -0.120043 -0.262050  C -0.073669 -0.079997 -0.017015 0.100382 0.002578 0.288329  Z" fill="black" stroke="black" stroke-width="0.005"/>
    <path d="M 0.677463 0.455946 C 0.836249 0.275749 0.987610 0.089237 1.140405 -0.096003  L 1.069594 -0.151234  C 0.922632 0.037193 0.776805 0.226554 0.624081 0.410416  Z" fill="black" stroke="black" stroke-width="0.005"/>
    <path d="M 1.142010 0.421346 C 1.002205 0.203213 0.781059 0.098072 0.568063 -0.026761  L 0.520138 0.112747  C 0.701991 0.222698 0.892728 0.316774 1.012955 0.503812  Z" fill="white" stroke="white" stroke-width="0"/>
    <path d="M 1.109746 0.441962 C 0.974847 0.231611 0.761278 0.129224 0.556082 0.008116  L 0.532119 0.077870  C 0.721744 0.191536 0.920109 0.288392 1.045219 0.483195  Z" fill="black" stroke="black" stroke-width="0.005"/>
    <path d="M 1.350125 1.634537 C 1.364654 1.325544 1.302668 1.023738 1.243600 0.723135  L 1.155784 0.747774  C 1.207812 1.038657 1.263272 1.330884 1.244670 1.628590  Z" fill="black" stroke="black" stroke-width="0.005"/>
    <path d="M 0.857602 1.194761 C 1.167769 1.248575 1.480479 1.222365 1.791432 1.200085  L 1.754764 0.992048  C 1.466136 1.021875 1.176125 1.053590 0.885838 1.014545  Z" fill="white" stroke="white" stroke-width="0"/>
    <path d="M 0.864661 1.149707 C 1.169857 1.199860 1.476895 1.172221 1.782265 1.148076  L 1.763931 1.044057  C 1.469723 1.071975 1.174035 1.102369 0.878779 1.059599  Z" fill="black" stroke="black" stroke-width="0.005"/>
    <path d="M 0.603013 0.980987 C 0.394822 0.879708 0.275263 0.694140 0.140040 0.519233  L 0.073597 0.551250  C 0.218044 0.740743 0.344888 0.940756 0.569672 1.049924  Z" fill="black" stroke="black" stroke-width="0.005"/>
    <path d="M 0.455356 0.547539 C 0.288604 0.718067 0.116001 0.882625 -0.055717 1.048060  L 0.070665 1.175675  C 0.234682 0.999408 0.400318 0.824530 0.558363 0.642828  Z" fill="white" stroke="white" stroke-width="0"/>
    <path d="M 0.481108 0.571361 C 0.316526 0.744691 0.145671 0.911819 -0.024122 1.079964  L 0.039069 1.143771  C 0.205011 0.970210 0.372384 0.797922 0.532611 0.619006  Z" fill="black" stroke="black" stroke-width="0.005"/>
  </g>
  <g fill="none" stroke="black">
    <path d="M 3.0303 -1.1294 C 3.5254 -1.0596, 3.8274 -0.5287, 3.6342 -0.0675" stroke-width="0.305"/>
    <path d="M 2.2226 2.9896 C 2.718 2.9221, 3.2221 2.3547, 3.2307 1.8548" stroke-width="0.305"/>
    <path d="M 0.3613 3.6169 C -0.0739 3.863, -0.6367 3.6257, -0.7644 3.1423" stroke-width="0.305"/>
    <path d="M -1.6888 -0.1669 C -1.9899 0.2323, -1.9731 1.0174, -1.6553 1.4034" stroke-width="0.305"/>
    <path d="M 1.1986 -1.8092 C 0.7778 -2.0793, -0.0038 -2.0034, -0.3647 -1.6573" stroke-width="0.305"/>
    <path d="M 2.6341 0.0655 C 2.5622 -0.027, 2.4475 -0.2287, 2.4048 -0.3378" stroke-width="0.1902"/>
    <path d="M -0.537238 -0.125375 C -0.471825 -0.051313 -0.369294 -0.057337 -0.286805 -0.028692  L -0.274371 -0.088322  C -0.318483 -0.132936 -0.387928 -0.161677 -0.404891 -0.228725  Z" fill="black" stroke="black" stroke-width="0.005"/>
    <path d="M 0.286623 0.031421 C 0.371307 0.029504 0.450918 0.061555 0.532119 0.077870  L 0.556082 0.008116  C 0.466891 -0.006165 0.378806 -0.037994 0.286623 -0.031421  Z" fill="black" stroke="black" stroke-width="0.005"/>
    <path d="M 1.045219 0.483195 C 1.098529 0.564088 1.119969 0.659618 1.155784 0.747774  L 1.243600 0.723135  C 1.200255 0.629268 1.172457 0.526528 1.109746 0.441962  Z" fill="black" stroke="black" stroke-width="0.005"/>
    <path d="M 1.244670 1.628590 C 1.220977 1.792610 1.200738 1.957164 1.179762 2.121556  L 1.366687 2.129314  C 1.361294 1.964409 1.354783 1.799484 1.350125 1.634537  Z" fill="black" stroke="black" stroke-width="0.005"/>
    <path d="M -0.260933 1.517398 C -0.163529 1.390842 -0.061650 1.267705 0.039069 1.143771  L -0.024122 1.079964  C -0.147799 1.182881 -0.272722 1.284429 -0.395205 1.388834  Z" fill="black" stroke="black" stroke-width="0.005"/>
    <path d="M 0.5069 0.5952 C 0.5437 0.5554, 0.6156 0.4744, 0.6508 0.4332" stroke-width="0.0752"/>
    <path d="M 1.140405 -0.096003 C 1.250977 -0.211270 1.364210 -0.323997 1.476070 -0.437949  L 1.332577 -0.556133  C 1.244146 -0.421694 1.154471 -0.287945 1.069594 -0.151234  Z" fill="black" stroke="black" stroke-width="0.005"/>
    <path d="M 2.245812 0.921502 C 2.084974 0.961497 1.924564 1.003326 1.763931 1.044057  L 1.782265 1.148076  C 1.946618 1.133457 2.110974 1.118088 2.275546 1.106210  Z" fill="black" stroke="black" stroke-width="0.005"/>
    <path d="M 0.878779 1.059599 C 0.782287 1.051104 0.694292 1.008093 0.603013 0.980987  L 0.569672 1.049924  C 0.667196 1.084122 0.760319 1.135601 0.864661 1.149707  Z" fill="black" stroke="black" stroke-width="0.005"/>
    <path d="M 0.140040 0.519233 C 0.098152 0.445624 0.088919 0.360270 0.064983 0.280922  L 0.002578 0.288329  C 0.025025 0.375784 0.030997 0.469227 0.073597 0.551250  Z" fill="black" stroke="black" stroke-width="0.005"/>
    <path d="M -0.062293 -0.281425 C -0.062192 -0.379947 -0.144473 -0.442633 -0.187818 -0.518718  L -0.274849 -0.375112  C -0.225099 -0.340383 -0.152748 -0.323537 -0.120043 -0.262050  Z" fill="black" stroke="black" stroke-width="0.005"/>
    <path d="M -0.052 2.4278 C 0.0614 2.4574, 0.2751 2.5475, 0.3755 2.6081" stroke-width="0.1902"/>
  </g>
</svg>
