<?xml version="1.0" encoding="utf-8" ?>
<svg xmlns="http://www.w3.org/2000/svg" xmlns:ev="http://www.w3.org/2001/xml-events" xmlns:xlink="http://www.w3.org/1999/xlink" baseProfile="full" version="1.1" viewBox="-2.4813755874215415 -5.202139346534512 9.476198575867162 8.60920451857083">
  <defs/>
  <g stroke="none">
    <path d="M 5.439919 -1.301763 C 4.958049 -1.775311 4.377873 -2.126975 3.761202 -2.393416  L 3.691685 -2.210180  C 4.254892 -1.925110 4.789197 -1.572062 5.216322 -1.101752  Z" fill="black" stroke="black" stroke-width="0.005"/>
    <path d="M 4.435742 -0.953362 C 4.732237 -1.583824 4.853803 -2.273780 4.899319 -2.963645  L 4.300456 -2.926727  C 4.312616 -2.313744 4.277982 -1.699325 4.077345 -1.112056  Z" fill="white" stroke="white" stroke-width="0"/>
    <path d="M 4.346143 -0.993035 C 4.615907 -1.612599 4.722262 -2.283884 4.749603 -2.954416  L 4.450171 -2.935957  C 4.461679 -2.303976 4.381916 -1.670052 4.166944 -1.072382  Z" fill="black" stroke="black" stroke-width="0.005"/>
    <path d="M 4.066048 -0.437534 C 4.085131 0.197334 3.964428 0.824752 3.757554 1.422025  L 4.036508 1.532407  C 4.218400 0.886438 4.325405 0.215256 4.261016 -0.457415  Z" fill="black" stroke="black" stroke-width="0.005"/>
    <path d="M 3.275378 0.790495 C 3.971868 0.773334 4.643233 0.573119 5.280468 0.304944  L 4.979328 -0.214011  C 4.436662 0.071313 3.871761 0.315440 3.256812 0.398975  Z" fill="white" stroke="white" stroke-width="0"/>
    <path d="M 3.270736 0.692615 C 3.945513 0.656432 4.593373 0.450976 5.205183 0.175205  L 5.054613 -0.084272  C 4.494668 0.208975 3.892120 0.421481 3.261453 0.496855  Z" fill="black" stroke="black" stroke-width="0.005"/>
    <path d="M 0.998765 1.844424 C 1.603935 1.552203 2.188225 1.218833 2.753688 0.856311  L 2.648618 0.690877  C 2.074270 1.012770 1.489219 1.318724 0.879656 1.569082  Z" fill="black" stroke="black" stroke-width="0.005"/>
    <path d="M 1.208829 0.523918 C 1.527878 1.143846 2.004486 1.657831 2.528450 2.109204  L 2.857654 1.607581  C 2.361440 1.250357 1.893195 0.853822 1.549647 0.338559  Z" fill="white" stroke="white" stroke-width="0"/>
    <path d="M 1.294034 0.477579 C 1.620812 1.069009 2.091532 1.559097 2.610751 1.983798  L 2.775353 1.732987  C 2.263948 1.363639 1.807420 0.918189 1.464442 0.384899  Z" fill="black" stroke="black" stroke-width="0.005"/>
    <path d="M -0.201366 0.128406 C -0.728875 0.173915 -0.976327 -0.085049 -1.163915 -0.533892  L -1.459567 -0.483002  C -1.222298 0.080778 -0.798395 0.422823 -0.157533 0.284271  Z" fill="black" stroke="black" stroke-width="0.005"/>
    <path d="M -0.352959 -0.158126 C -0.983061 0.223690 -1.048103 0.826795 -0.804359 1.464950  L -0.316342 1.115896  C -0.469469 0.732895 -0.539801 0.448815 -0.192844 0.123344  Z" fill="white" stroke="white" stroke-width="0"/>
    <path d="M -0.312930 -0.087758 C -0.861937 0.270701 -0.916597 0.812642 -0.682355 1.377686  L -0.438346 1.203159  C -0.625754 0.754241 -0.636024 0.396205 -0.232873 0.052976  Z" fill="black" stroke="black" stroke-width="0.005"/>
    <path d="M 0.423994 -3.251416 C 0.334541 -2.581816 0.405964 -1.907319 0.569861 -1.256130  L 0.755562 -1.312198  C 0.639924 -1.931448 0.597925 -2.569453 0.718093 -3.192205  Z" fill="black" stroke="black" stroke-width="0.005"/>
    <path d="M 1.304533 -2.656097 C 0.636052 -2.535837 -0.018014 -2.347186 -0.665981 -2.145975  L -0.441723 -1.589461  C 0.154769 -1.855280 0.768259 -2.080742 1.392174 -2.274062  Z" fill="white" stroke="white" stroke-width="0"/>
    <path d="M 1.326444 -2.560588 C 0.668819 -2.422246 0.025488 -2.223814 -0.609916 -2.006847  L -0.497787 -1.728589  C 0.111909 -1.977864 0.734907 -2.194692 1.370264 -2.369570  Z" fill="black" stroke="black" stroke-width="0.005"/>
    <path d="M 1.939027 -2.669104 C 2.435930 -3.064717 3.010609 -3.343941 3.612775 -3.536109  L 3.534043 -3.825594  C 2.907853 -3.584249 2.306338 -3.267840 1.806309 -2.813304  Z" fill="black" stroke="black" stroke-width="0.005"/>
    <path d="M 3.395972 -2.771701 C 2.964982 -3.319095 2.402473 -3.736709 1.805997 -4.086282  L 1.570878 -3.534268  C 2.124433 -3.270690 2.658321 -2.964627 3.093607 -2.522286  Z" fill="white" stroke="white" stroke-width="0"/>
    <path d="M 3.320381 -2.709347 C 2.887168 -3.227959 2.334544 -3.623613 1.747217 -3.948279  L 1.629658 -3.672272  C 2.199908 -3.399604 2.731030 -3.044455 3.169198 -2.584639  Z" fill="black" stroke="black" stroke-width="0.005"/>
    <path d="M 0.132191 -0.012941 C 0.045199 -0.010593 -0.038448 -0.037331 -0.123115 -0.050685  L -0.131614 -0.020103  C -0.044098 -0.008219 0.042645 0.017581 0.132191 0.012941  Z" fill="black" stroke="black" stroke-width="0.005"/>
    <path d="M -0.036622 0.130923 C 0.000356 0.053599 0.061475 -0.007643 0.111326 -0.075835  L 0.074505 -0.112220  C 0.018483 -0.042295 -0.049262 0.019707 -0.092074 0.100022  Z" fill="white" stroke="white" stroke-width="0"/>
    <path d="M -0.050485 0.123198 C -0.012032 0.045135 0.050731 -0.016305 0.102121 -0.084931  L 0.083711 -0.103124  C 0.029235 -0.033631 -0.036842 0.028189 -0.078211 0.107747  Z" fill="black" stroke="black" stroke-width="0.005"/>
    <path d="M 0.389408 -0.105216 C 0.314614 -0.121490 0.237882 -0.123660 0.162173 -0.132254  L 0.161010 -0.109156  C 0.235419 -0.099814 0.310905 -0.096775 0.384311 -0.079866  Z" fill="black" stroke="black" stroke-width="0.005"/>
    <path d="M 0.316130 -0.224319 C 0.277278 -0.160489 0.227126 -0.104800 0.182191 -0.045506  L 0.216685 -0.014690  C 0.264511 -0.074781 0.317651 -0.131022 0.359358 -0.195935  Z" fill="white" stroke="white" stroke-width="0"/>
    <path d="M 0.326937 -0.217223 C 0.287368 -0.153124 0.236471 -0.097296 0.190815 -0.037802  L 0.208062 -0.022394  C 0.255164 -0.082286 0.307554 -0.138390 0.348551 -0.203031  Z" fill="black" stroke="black" stroke-width="0.005"/>
    <path d="M 1.085475 -0.081071 C 0.893057 -0.276903 0.670032 -0.274844 0.421936 -0.301413  L 0.433203 -0.236885  C 0.649255 -0.201393 0.848481 -0.193369 1.009297 -0.015209  Z" fill="black" stroke="black" stroke-width="0.005"/>
    <path d="M 0.529959 -0.061578 C 0.769254 -0.229128 0.801134 -0.463229 0.870830 -0.719060  L 0.670046 -0.703276  C 0.625616 -0.507421 0.627479 -0.313841 0.454000 -0.168319  Z" fill="white" stroke="white" stroke-width="0"/>
    <path d="M 0.510969 -0.088263 C 0.731976 -0.250958 0.759392 -0.473329 0.820634 -0.715114  L 0.720242 -0.707222  C 0.667023 -0.498067 0.664687 -0.291424 0.472990 -0.141634  Z" fill="black" stroke="black" stroke-width="0.005"/>
  </g>
  <g fill="none" stroke="black">
    <path d="M 4.5999 -2.9452 C 4.5691 -3.4442, 4.0559 -3.8121, 3.5734 -3.6809" stroke-width="0.305"/>
    <path d="M 5.3281 -1.2018 C 5.6615 -0.8291, 5.5624 -0.2055, 5.1299 0.0455" stroke-width="0.305"/>
    <path d="M 2.6931 1.8584 C 3.1111 2.1327, 3.7131 1.9421, 3.897 1.4772" stroke-width="0.305"/>
    <path d="M 0.9392 1.7068 C 0.4803 1.9053, -0.2695 1.6971, -0.5604 1.2904" stroke-width="0.305"/>
    <path d="M -0.5539 -1.8677 C -1.0176 -1.6808, -1.3966 -1.0012, -1.3117 -0.5084" stroke-width="0.305"/>
    <path d="M 0.571 -3.2218 C 0.6697 -3.712, 1.2284 -4.0062, 1.6884 -3.8103" stroke-width="0.305"/>
    <path d="M 3.2448 -2.647 C 3.3423 -2.5288, 3.5831 -2.3562, 3.7264 -2.3018" stroke-width="0.201"/>
    <path d="M 3.2661 0.5947 C 3.113 0.602, 2.8305 0.6914, 2.7012 0.7736" stroke-width="0.201"/>
    <path d="M -0.232873 0.052976 C -0.222161 0.007125 -0.165366 0.001877 -0.131614 -0.020103  L -0.123115 -0.050685  C -0.183737 -0.065513 -0.243321 -0.115922 -0.312930 -0.087758  Z" fill="black" stroke="black" stroke-width="0.005"/>
    <path d="M 0.132191 0.012941 C 0.163664 0.016280 0.183910 -0.010054 0.208062 -0.022394  L 0.190815 -0.037802  C 0.172085 -0.029217 0.155666 -0.010206 0.132191 -0.012941  Z" fill="black" stroke="black" stroke-width="0.005"/>
    <path d="M 0.348551 -0.203031 C 0.369911 -0.229426 0.406106 -0.226887 0.433203 -0.236885  L 0.421936 -0.301413  C 0.390179 -0.275217 0.340990 -0.263092 0.326937 -0.217223  Z" fill="black" stroke="black" stroke-width="0.005"/>
    <path d="M 1.009297 -0.015209 C 1.123373 0.137916 1.204194 0.310679 1.294034 0.477579  L 1.464442 0.384899  C 1.343451 0.225497 1.231180 0.057858 1.085475 -0.081071  Z" fill="black" stroke="black" stroke-width="0.005"/>
    <path d="M 4.1635 -0.4475 C 4.148 -0.5999, 4.1945 -0.8926, 4.2565 -1.0327" stroke-width="0.201"/>
    <path d="M 1.8727 -2.7412 C 1.7599 -2.6374, 1.4977 -2.4993, 1.3484 -2.4651" stroke-width="0.201"/>
    <path d="M -0.157533 0.284271 C -0.088572 0.254555 -0.082547 0.176740 -0.050485 0.123198  L -0.078211 0.107747  C -0.117569 0.116305 -0.161222 0.153015 -0.201366 0.128406  Z" fill="black" stroke="black" stroke-width="0.005"/>
    <path d="M 0.102121 -0.084931 C 0.116675 -0.103552 0.141739 -0.101868 0.161010 -0.109156  L 0.162173 -0.132254  C 0.136419 -0.123748 0.103457 -0.127857 0.083711 -0.103124  Z" fill="black" stroke="black" stroke-width="0.005"/>
    <path d="M 0.384311 -0.079866 C 0.426815 -0.057622 0.470015 -0.084087 0.510969 -0.088263  L 0.472990 -0.141634  C 0.446832 -0.129387 0.423197 -0.101856 0.389408 -0.105216  Z" fill="black" stroke="black" stroke-width="0.005"/>
    <path d="M 0.820634 -0.715114 C 0.824228 -0.916405 0.783901 -1.114095 0.755562 -1.312198  L 0.569861 -1.256130  C 0.625429 -1.074915 0.691507 -0.895995 0.720242 -0.707222  Z" fill="black" stroke="black" stroke-width="0.005"/>
  </g>
</svg>
