<?xml version="1.0" encoding="utf-8" ?>
<svg xmlns="http://www.w3.org/2000/svg" xmlns:ev="http://www.w3.org/2001/xml-events" xmlns:xlink="http://www.w3.org/1999/xlink" baseProfile="full" version="1.1" viewBox="-3.6945984376550345 -2.7075808752198722 6.253435099907825 6.243044857747277">
  <defs/>
  <g stroke="none">
    <path d="M -2.843094 -0.447375 C -2.760266 0.211364 -2.338495 0.639721 -1.744080 0.875334  L -1.702825 0.707339  C -2.162927 0.435273 -2.504038 0.125394 -2.543095 -0.446924  Z" fill="black" stroke="black" stroke-width="0.005"/>
    <path d="M -2.265639 1.504687 C -2.324801 0.995510 -2.058369 0.664666 -1.699969 0.351267  L -1.825482 0.028864  C -2.446783 0.349420 -2.847804 0.858472 -2.860423 1.583627  Z" fill="white" stroke="white" stroke-width="0"/>
    <path d="M -2.414335 1.524422 C -2.450055 0.951886 -2.152150 0.600269 -1.731347 0.270666  L -1.794104 0.109465  C -2.352821 0.420396 -2.715288 0.899976 -2.711727 1.563892  Z" fill="black" stroke="black" stroke-width="0.005"/>
    <path d="M 0.285236 -1.745769 C -0.366448 -1.595638 -0.815135 -1.152893 -1.096928 -0.567222  L -0.929714 -0.510477  C -0.617342 -0.976743 -0.266792 -1.351522 0.318502 -1.447619  Z" fill="black" stroke="black" stroke-width="0.005"/>
    <path d="M -0.091749 -0.666710 C -0.421058 -1.310761 -1.013845 -1.631307 -1.697576 -1.766422  L -1.685978 -1.166534  C -1.173050 -1.106157 -0.732607 -0.943862 -0.408573 -0.510683  Z" fill="white" stroke="white" stroke-width="0"/>
    <path d="M -0.170955 -0.627703 C -0.495711 -1.214280 -1.055865 -1.506954 -1.694677 -1.616450  L -1.688878 -1.316506  C -1.133585 -1.224070 -0.658514 -1.042198 -0.329367 -0.549689  Z" fill="black" stroke="black" stroke-width="0.005"/>
    <path d="M 1.707333 1.275258 C 1.624504 0.616519 1.202734 0.188162 0.608319 -0.047451  L 0.567064 0.120544  C 1.027165 0.392610 1.368277 0.702489 1.407333 1.274807  Z" fill="black" stroke="black" stroke-width="0.005"/>
    <path d="M 0.689720 0.799019 C 1.363369 0.517746 1.654699 -0.064524 1.724661 -0.755744  L 1.129877 -0.676803  C 1.119974 -0.195521 0.989119 0.195538 0.564207 0.476616  Z" fill="white" stroke="white" stroke-width="0"/>
    <path d="M 0.658342 0.718418 C 1.264615 0.441547 1.528034 -0.100883 1.575965 -0.736009  L 1.278573 -0.696539  C 1.237994 -0.161184 1.090177 0.269673 0.595585 0.557217  Z" fill="black" stroke="black" stroke-width="0.005"/>
    <path d="M -0.206048 1.338360 C -0.468335 1.869499 -0.915712 2.111621 -1.454264 2.275503  L -1.420998 2.573652  C -0.801856 2.381992 -0.284531 2.018942 -0.038834 1.395105  Z" fill="black" stroke="black" stroke-width="0.005"/>
    <path d="M -1.044013 1.494593 C -0.714704 2.138645 -0.121916 2.459190 0.561815 2.594305  L 0.550217 1.994417  C 0.037288 1.934041 -0.403155 1.771745 -0.727189 1.338566  Z" fill="white" stroke="white" stroke-width="0"/>
    <path d="M -0.964807 1.455586 C -0.640051 2.042163 -0.079897 2.334837 0.558915 2.444333  L 0.553116 2.144389  C -0.002177 2.051953 -0.477247 1.870081 -0.806395 1.377572  Z" fill="black" stroke="black" stroke-width="0.005"/>
    <path d="M 0.063820 0.279837 C 0.044923 0.087588 -0.020939 -0.094097 -0.073840 -0.278093  L -0.138300 -0.252312  C -0.082990 -0.074619 -0.015270 0.100535 0.007755 0.286917  Z" fill="black" stroke="black" stroke-width="0.005"/>
    <path d="M 0.285628 -0.065831 C 0.083153 -0.067961 -0.093501 0.023696 -0.276854 0.090726  L -0.220298 0.190651  C -0.054956 0.136323 0.105667 0.059607 0.285628 0.065831  Z" fill="white" stroke="white" stroke-width="0"/>
    <path d="M 0.285628 -0.032915 C 0.088788 -0.036041 -0.083865 0.051868 -0.262715 0.115707  L -0.234437 0.165670  C -0.064592 0.108182 0.100044 0.027745 0.285628 0.032915  Z" fill="black" stroke="black" stroke-width="0.005"/>
    <path d="M -1.199581 0.548046 C -1.180685 0.740295 -1.114823 0.921980 -1.061921 1.105976  L -0.997462 1.080195  C -1.052771 0.902502 -1.120491 0.727348 -1.143516 0.540966  Z" fill="black" stroke="black" stroke-width="0.005"/>
    <path d="M -0.915463 0.637232 C -1.072154 0.726156 -1.249807 0.733206 -1.421390 0.762053  L -1.421390 0.893714  C -1.229748 0.856373 -1.030981 0.843771 -0.858908 0.737157  Z" fill="white" stroke="white" stroke-width="0"/>
    <path d="M -0.901325 0.662214 C -1.061850 0.755572 -1.244794 0.764003 -1.421390 0.794968  L -1.421390 0.860798  C -1.234766 0.825587 -1.041264 0.814378 -0.873047 0.712176  Z" fill="black" stroke="black" stroke-width="0.005"/>
    <path d="M -0.909248 0.157936 C -1.089329 0.078483 -1.282645 0.092540 -1.472264 0.081903  L -1.463701 0.147174  C -1.284578 0.154905 -1.102091 0.139468 -0.930786 0.211152  Z" fill="black" stroke="black" stroke-width="0.005"/>
    <path d="M -1.181374 -0.216539 C -1.228641 -0.026356 -1.227732 0.169525 -1.239913 0.363282  L -1.126894 0.362737  C -1.107077 0.180322 -1.099582 -0.004788 -1.046843 -0.182184  Z" fill="white" stroke="white" stroke-width="0"/>
    <path d="M -1.147741 -0.207951 C -1.196343 -0.020953 -1.197557 0.172225 -1.211658 0.363146  L -1.155149 0.362873  C -1.137229 0.177624 -1.131812 -0.010167 -1.080476 -0.190773  Z" fill="black" stroke="black" stroke-width="0.005"/>
    <path d="M -0.226514 0.669947 C -0.046433 0.749400 0.146883 0.735343 0.336502 0.745981  L 0.327939 0.680709  C 0.148816 0.672979 -0.033670 0.688415 -0.204976 0.616731  Z" fill="black" stroke="black" stroke-width="0.005"/>
    <path d="M -0.008868 0.465146 C -0.009886 0.650297 -0.055591 0.829659 -0.088918 1.010067  L 0.045612 1.044422  C 0.072526 0.852139 0.112847 0.660311 0.104151 0.464601  Z" fill="white" stroke="white" stroke-width="0"/>
    <path d="M 0.019387 0.465010 C 0.020801 0.652804 -0.023560 0.835279 -0.055286 1.018656  L 0.011980 1.035834  C 0.040498 0.846519 0.082168 0.657811 0.075897 0.464738  Z" fill="black" stroke="black" stroke-width="0.005"/>
    <path d="M -0.420035 0.238157 C -0.529870 0.343607 -0.639705 0.449057 -0.749540 0.554507  L -0.715727 0.589727  C -0.605892 0.484277 -0.496056 0.378826 -0.386221 0.273376  Z" fill="black" stroke="black" stroke-width="0.005"/>
    <path d="M -0.780754 0.317860 C -0.658135 0.408127 -0.535517 0.498394 -0.412898 0.588661  L -0.355008 0.510023  C -0.477626 0.419756 -0.600245 0.329489 -0.722864 0.239222  Z" fill="white" stroke="white" stroke-width="0"/>
    <path d="M -0.766281 0.298200 C -0.643663 0.388467 -0.521044 0.478735 -0.398426 0.569002  L -0.369480 0.529683  C -0.492099 0.439416 -0.614718 0.349148 -0.737336 0.258881  Z" fill="black" stroke="black" stroke-width="0.005"/>
  </g>
  <g fill="none" stroke="black">
    <path d="M -2.563 1.5442 C -2.4972 2.0398, -1.9345 2.48, -1.4376 2.4246" stroke-width="0.305"/>
    <path d="M -1.6918 -1.4665 C -2.1917 -1.4568, -2.6923 -0.9471, -2.6931 -0.4471" stroke-width="0.305"/>
    <path d="M 0.3019 -1.5967 C 0.7988 -1.6521, 1.3615 -1.2119, 1.4273 -0.7163" stroke-width="0.305"/>
    <path d="M 1.5573 1.275 C 1.5566 1.775, 1.0559 2.2847, 0.556 2.2944" stroke-width="0.305"/>
    <path d="M 0.285628 0.032915 C 0.383706 0.047830 0.473980 0.091025 0.567064 0.120544  L 0.608319 -0.047451  C 0.500929 -0.043920 0.391814 -0.056257 0.285628 -0.032915  Z" fill="black" stroke="black" stroke-width="0.005"/>
    <path d="M -0.806395 1.377572 C -0.875935 1.282381 -0.934385 1.179683 -0.997462 1.080195  L -1.061921 1.105976  C -1.029624 1.222405 -1.002404 1.340516 -0.964807 1.455586  Z" fill="black" stroke="black" stroke-width="0.005"/>
    <path d="M -1.143516 0.540966 C -1.152013 0.481949 -1.151532 0.422211 -1.155149 0.362873  L -1.211658 0.363146  C -1.207915 0.424753 -1.208457 0.486777 -1.199581 0.548046  Z" fill="black" stroke="black" stroke-width="0.005"/>
    <path d="M -1.080476 -0.190773 C -1.034868 -0.299514 -0.979894 -0.404030 -0.929714 -0.510477  L -1.096928 -0.567222  C -1.114544 -0.447583 -1.137897 -0.328579 -1.147741 -0.207951  Z" fill="black" stroke="black" stroke-width="0.005"/>
    <path d="M 0.595585 0.557217 C 0.514088 0.613594 0.417523 0.640778 0.327939 0.680709  L 0.336502 0.745981  C 0.443348 0.737650 0.552753 0.744626 0.658342 0.718418  Z" fill="black" stroke="black" stroke-width="0.005"/>
    <path d="M -0.204976 0.616731 C -0.264326 0.596713 -0.315070 0.559130 -0.369480 0.529683  L -0.398426 0.569002  C -0.341618 0.603070 -0.289134 0.645755 -0.226514 0.669947  Z" fill="black" stroke="black" stroke-width="0.005"/>
    <path d="M -0.737336 0.258881 C -0.788887 0.215890 -0.851778 0.190922 -0.909248 0.157936  L -0.930786 0.211152  C -0.875888 0.239612 -0.816324 0.260520 -0.766281 0.298200  Z" fill="black" stroke="black" stroke-width="0.005"/>
    <path d="M -1.472264 0.081903 C -1.580584 0.072572 -1.687167 0.098996 -1.794104 0.109465  L -1.731347 0.270666  C -1.642894 0.229290 -1.559006 0.174720 -1.463701 0.147174  Z" fill="black" stroke="black" stroke-width="0.005"/>
    <path d="M -0.038834 1.395105 C -0.016524 1.276122 -0.004899 1.155475 0.011980 1.035834  L -0.055286 1.018656  C -0.104886 1.125503 -0.149480 1.234932 -0.206048 1.338360  Z" fill="black" stroke="black" stroke-width="0.005"/>
    <path d="M 0.075897 0.464738 C 0.076727 0.402835 0.068122 0.341408 0.063820 0.279837  L 0.007755 0.286917  C 0.011887 0.346222 0.020135 0.405389 0.019387 0.465010  Z" fill="black" stroke="black" stroke-width="0.005"/>
    <path d="M -0.073840 -0.278093 C -0.099292 -0.396416 -0.137926 -0.511372 -0.170955 -0.627703  L -0.329367 -0.549689  C -0.265767 -0.450674 -0.197665 -0.354196 -0.138300 -0.252312  Z" fill="black" stroke="black" stroke-width="0.005"/>
    <path d="M -1.744080 0.875334 C -1.635980 0.887584 -1.528412 0.866437 -1.421390 0.860798  L -1.421390 0.794968  C -1.515407 0.767029 -1.614687 0.752637 -1.702825 0.707339  Z" fill="black" stroke="black" stroke-width="0.005"/>
    <path d="M -0.873047 0.712176 C -0.814106 0.680044 -0.767620 0.630895 -0.715727 0.589727  L -0.749540 0.554507  C -0.799658 0.590781 -0.845082 0.634646 -0.901325 0.662214  Z" fill="black" stroke="black" stroke-width="0.005"/>
    <path d="M -0.386221 0.273376 C -0.341505 0.229506 -0.285167 0.201028 -0.234437 0.165670  L -0.262715 0.115707  C -0.315406 0.155888 -0.374514 0.188825 -0.420035 0.238157  Z" fill="black" stroke="black" stroke-width="0.005"/>
  </g>
</svg>
