<?xml version="1.0" encoding="utf-8" ?>
<svg xmlns="http://www.w3.org/2000/svg" xmlns:ev="http://www.w3.org/2001/xml-events" xmlns:xlink="http://www.w3.org/1999/xlink" baseProfile="full" version="1.1" viewBox="-5.386040018605215 -4.1098952684631405 8.837511711116024 7.6497631446631384">
  <defs/>
  <g stroke="none">
    <path d="M -1.930342 1.641825 C -2.288784 1.130805 -2.473261 0.529522 -2.563571 -0.081777  L -2.747459 -0.078583  C -2.695305 0.588176 -2.525707 1.242064 -2.173372 1.817712  Z" fill="black" stroke="black" stroke-width="0.005"/>
    <path d="M -3.657902 0.695829 C -2.988124 0.960408 -2.319462 0.855410 -1.700843 0.525536  L -1.902627 0.217607  C -2.401272 0.361679 -2.886320 0.433766 -3.366287 0.171461  Z" fill="white" stroke="white" stroke-width="0"/>
    <path d="M -3.584998 0.564737 C -2.966818 0.823926 -2.335776 0.738859 -1.751289 0.448554  L -1.852181 0.294590  C -2.388462 0.476178 -2.904376 0.566279 -3.439191 0.302553  Z" fill="black" stroke="black" stroke-width="0.005"/>
    <path d="M -3.581430 -0.664836 C -3.146110 -1.069106 -2.632239 -1.120851 -2.070457 -1.087740  L -2.014228 -1.258045  C -2.652322 -1.386164 -3.278554 -1.297823 -3.796535 -0.873953  Z" fill="black" stroke="black" stroke-width="0.005"/>
    <path d="M -2.543730 -0.573751 C -2.616334 -1.141772 -2.436788 -1.640850 -2.164387 -2.122948  L -2.651433 -2.473357  C -2.946610 -1.841669 -3.089694 -1.162351 -2.897778 -0.474006  Z" fill="white" stroke="white" stroke-width="0"/>
    <path d="M -2.632242 -0.548815 C -2.737842 -1.151422 -2.555366 -1.685543 -2.286148 -2.210550  L -2.529671 -2.385755  C -2.823385 -1.795965 -2.969429 -1.153360 -2.809266 -0.498942  Z" fill="black" stroke="black" stroke-width="0.005"/>
    <path d="M 0.866070 -2.090008 C 0.192485 -2.086478 -0.426439 -1.837905 -0.971367 -1.458569  L -0.857567 -1.320626  C -0.338870 -1.628057 0.230455 -1.820515 0.840445 -1.791105  Z" fill="black" stroke="black" stroke-width="0.005"/>
    <path d="M -1.146079 -2.315813 C -0.664454 -2.009926 -0.430109 -1.528785 -0.241937 -1.013455  L 0.130609 -1.046149  C 0.019267 -1.737143 -0.271285 -2.364535 -0.820903 -2.820055  Z" fill="white" stroke="white" stroke-width="0"/>
    <path d="M -1.064785 -2.441874 C -0.562125 -2.095037 -0.327473 -1.580998 -0.148800 -1.021629  L 0.037473 -1.037976  C -0.085981 -1.686233 -0.375092 -2.275680 -0.902197 -2.693995  Z" fill="black" stroke="black" stroke-width="0.005"/>
    <path d="M 2.369138 1.078907 C 2.140962 0.451235 1.638398 0.091588 1.011639 -0.065516  L 0.990701 0.118121  C 1.497666 0.325727 1.907893 0.589543 2.077066 1.147418  Z" fill="black" stroke="black" stroke-width="0.005"/>
    <path d="M 1.416994 0.975561 C 1.920797 0.472000 2.144444 -0.187429 2.221377 -0.879545  L 1.622959 -0.836006  C 1.607357 -0.275264 1.506591 0.256328 1.161021 0.720586  Z" fill="white" stroke="white" stroke-width="0"/>
    <path d="M 1.353001 0.911818 C 1.813703 0.420085 2.015868 -0.210859 2.071772 -0.868660  L 1.772563 -0.846891  C 1.731624 -0.253325 1.614958 0.308345 1.225014 0.784330  Z" fill="black" stroke="black" stroke-width="0.005"/>
    <path d="M 0.953670 1.108447 C 0.558481 1.595049 0.017765 1.881792 -0.547632 2.115720  L -0.463586 2.403706  C 0.144964 2.133257 0.705369 1.758263 1.101679 1.212018  Z" fill="black" stroke="black" stroke-width="0.005"/>
    <path d="M -0.025721 1.082462 C 0.211494 1.771343 0.763035 2.146481 1.436832 2.332716  L 1.468985 1.733578  C 0.980158 1.630788 0.581740 1.432073 0.332331 0.969431  Z" fill="white" stroke="white" stroke-width="0"/>
    <path d="M 0.063792 1.054204 C 0.300799 1.681254 0.819090 2.025136 1.444870 2.182932  L 1.460947 1.883363  C 0.927035 1.745760 0.492984 1.524504 0.242818 0.997689  Z" fill="black" stroke="black" stroke-width="0.005"/>
    <path d="M 0.111820 0.529881 C 0.076486 0.173880 0.056349 -0.183311 0.035421 -0.540350  L -0.082202 -0.535234  C -0.061411 -0.176022 -0.041385 0.183339 -0.006087 0.541516  Z" fill="black" stroke="black" stroke-width="0.005"/>
    <path d="M 0.538301 -0.115572 C 0.180231 -0.113471 -0.177829 -0.117606 -0.535873 -0.121151  L -0.540491 0.098525  C -0.180926 0.106020 0.178649 0.113535 0.538301 0.115572  Z" fill="white" stroke="white" stroke-width="0"/>
    <path d="M 0.538301 -0.057786 C 0.179835 -0.056720 -0.178603 -0.061699 -0.537028 -0.066232  L -0.539336 0.043606  C -0.180151 0.050114 0.179044 0.056783 0.538301 0.057786  Z" fill="black" stroke="black" stroke-width="0.005"/>
    <path d="M -1.410394 -0.719851 C -1.401040 -0.889742 -1.277396 -0.993095 -1.191285 -1.120484  L -1.233929 -1.173648  C -1.324087 -1.029256 -1.456118 -0.911482 -1.457403 -0.722863  Z" fill="black" stroke="black" stroke-width="0.005"/>
    <path d="M -1.688063 -0.990711 C -1.530159 -0.957843 -1.445912 -0.827231 -1.335683 -0.729394  L -1.252614 -0.773514  C -1.371764 -0.909093 -1.462924 -1.063085 -1.649501 -1.122539  Z" fill="white" stroke="white" stroke-width="0"/>
    <path d="M -1.678423 -1.023668 C -1.512831 -0.985159 -1.428138 -0.846250 -1.314915 -0.740424  L -1.273381 -0.762484  C -1.392531 -0.884529 -1.477932 -1.040104 -1.659141 -1.089582  Z" fill="black" stroke="black" stroke-width="0.005"/>
    <path d="M -1.345553 -0.426880 C -1.321491 -0.502350 -1.297508 -0.577846 -1.273488 -0.653330  L -1.297807 -0.661075  C -1.321925 -0.585631 -1.346005 -0.510174 -1.370172 -0.434745  Z" fill="black" stroke="black" stroke-width="0.005"/>
    <path d="M -1.220639 -0.476418 C -1.275763 -0.533010 -1.329120 -0.591279 -1.383279 -0.648781  L -1.420968 -0.614129  C -1.366600 -0.556248 -1.313040 -0.497596 -1.257706 -0.440625  Z" fill="white" stroke="white" stroke-width="0"/>
    <path d="M -1.229906 -0.467469 C -1.285082 -0.524157 -1.338490 -0.582521 -1.392702 -0.640118  L -1.411546 -0.622792  C -1.357230 -0.565005 -1.303720 -0.506450 -1.248439 -0.449573  Z" fill="black" stroke="black" stroke-width="0.005"/>
    <path d="M -1.411039 0.133772 C -1.251836 0.000151 -1.233804 -0.185516 -1.178125 -0.366847  L -1.229401 -0.368172  C -1.292366 -0.212004 -1.308305 -0.036274 -1.459887 0.073698  Z" fill="black" stroke="black" stroke-width="0.005"/>
    <path d="M -1.393889 -0.308382 C -1.295456 -0.109904 -1.110608 -0.061519 -0.934185 0.031058  L -0.915223 -0.112634  C -1.054745 -0.181116 -1.216028 -0.204113 -1.303509 -0.357255  Z" fill="white" stroke="white" stroke-width="0"/>
    <path d="M -1.371294 -0.320600 C -1.274593 -0.134524 -1.097805 -0.090275 -0.929444 -0.004865  L -0.919964 -0.076711  C -1.067152 -0.152444 -1.237248 -0.179536 -1.326104 -0.345036  Z" fill="black" stroke="black" stroke-width="0.005"/>
  </g>
  <g fill="none" stroke="black">
    <path d="M -2.0519 1.7298 C -1.7587 2.1348, -0.9856 2.3998, -0.5056 2.2597" stroke-width="0.305"/>
    <path d="M -3.5121 0.4336 C -3.9491 0.1906, -4.0375 -0.4109, -3.689 -0.7694" stroke-width="0.305"/>
    <path d="M -0.9835 -2.5679 C -1.4037 -2.8389, -2.1159 -2.704, -2.4079 -2.2982" stroke-width="0.305"/>
    <path d="M 1.9222 -0.8578 C 1.8859 -1.3565, 1.3514 -1.8978, 0.8533 -1.9406" stroke-width="0.305"/>
    <path d="M 2.2231 1.1132 C 2.3373 1.5999, 1.9522 2.0599, 1.4529 2.0331" stroke-width="0.305"/>
    <path d="M 0.538301 0.057786 C 0.690376 0.068235 0.840211 0.096501 0.990701 0.118121  L 1.011639 -0.065516  C 0.853876 -0.065241 0.695735 -0.071620 0.538301 -0.057786  Z" fill="black" stroke="black" stroke-width="0.005"/>
    <path d="M 0.242818 0.997689 C 0.179550 0.847676 0.151599 0.686732 0.111820 0.529881  L -0.006087 0.541517  C 0.013459 0.712662 0.019616 0.886310 0.063792 1.054204  Z" fill="black" stroke="black" stroke-width="0.005"/>
    <path d="M 0.035421 -0.540350 C 0.040992 -0.706152 0.037923 -0.872111 0.037473 -1.037976  L -0.148800 -1.021629  C -0.126161 -0.859593 -0.100653 -0.697883 -0.082202 -0.535234  Z" fill="black" stroke="black" stroke-width="0.005"/>
    <path d="M -2.7208 -0.5239 C -2.6901 -0.4151, -2.6575 -0.1932, -2.6555 -0.0802" stroke-width="0.1889"/>
    <path d="M 1.0277 1.1602 C 1.0862 1.0765, 1.2169 0.9205, 1.289 0.8481" stroke-width="0.18560000000000001"/>
    <path d="M -0.971367 -1.458569 C -1.057406 -1.362306 -1.145942 -1.268138 -1.233929 -1.173648  L -1.191285 -1.120484  C -1.080293 -1.187506 -0.968607 -1.253634 -0.857567 -1.320626  Z" fill="black" stroke="black" stroke-width="0.005"/>
    <path d="M -1.457403 -0.722863 C -1.461374 -0.681682 -1.427592 -0.654676 -1.411546 -0.622792  L -1.392702 -0.640118  C -1.399202 -0.665868 -1.419195 -0.691084 -1.410394 -0.719851  Z" fill="black" stroke="black" stroke-width="0.005"/>
    <path d="M -1.248439 -0.449573 C -1.228194 -0.426369 -1.234827 -0.394408 -1.229401 -0.368172  L -1.178125 -0.366847  C -1.193829 -0.400099 -1.194289 -0.444619 -1.229906 -0.467469  Z" fill="black" stroke="black" stroke-width="0.005"/>
    <path d="M -1.459887 0.073698 C -1.586497 0.154726 -1.720954 0.222051 -1.852181 0.294590  L -1.751289 0.448554  C -1.636374 0.345324 -1.517250 0.246201 -1.411039 0.133772  Z" fill="black" stroke="black" stroke-width="0.005"/>
    <path d="M -2.070457 -1.087740 C -1.940135 -1.064290 -1.809005 -1.045187 -1.678423 -1.023668  L -1.659141 -1.089582  C -1.777850 -1.144925 -1.897532 -1.198571 -2.014228 -1.258045  Z" fill="black" stroke="black" stroke-width="0.005"/>
    <path d="M -1.314915 -0.740424 C -1.295224 -0.718034 -1.302633 -0.687045 -1.297807 -0.661075  L -1.273488 -0.653330  C -1.272179 -0.688720 -1.253123 -0.726964 -1.273381 -0.762484  Z" fill="black" stroke="black" stroke-width="0.005"/>
    <path d="M -1.370172 -0.434745 C -1.392251 -0.398048 -1.372209 -0.357659 -1.371294 -0.320600  L -1.326104 -0.345036  C -1.333019 -0.371072 -1.353568 -0.396856 -1.345553 -0.426880  Z" fill="black" stroke="black" stroke-width="0.005"/>
    <path d="M -0.929444 -0.004865 C -0.800661 0.020503 -0.669477 0.028681 -0.539336 0.043606  L -0.537028 -0.066232  C -0.664574 -0.069335 -0.792614 -0.064446 -0.919964 -0.076711  Z" fill="black" stroke="black" stroke-width="0.005"/>
  </g>
</svg>
