<?xml version="1.0" encoding="utf-8" ?>
<svg xmlns="http://www.w3.org/2000/svg" xmlns:ev="http://www.w3.org/2001/xml-events" xmlns:xlink="http://www.w3.org/1999/xlink" baseProfile="full" version="1.1" viewBox="-4.704278379997698 -3.6176707237327608 7.836267372439291 8.726962186527789">
  <defs/>
  <g stroke="none">
    <path d="M -1.791629 1.388178 C -2.085735 1.993974 -2.062376 2.647929 -1.874839 3.277727  L -1.605539 3.145524  C -1.777071 2.586879 -1.855821 2.038990 -1.628233 1.475405  Z" fill="black" stroke="black" stroke-width="0.005"/>
    <path d="M -3.136949 1.894549 C -2.556397 2.292321 -1.883201 2.485173 -1.189296 2.541440  L -1.174089 2.167813  C -1.742497 2.021945 -2.302527 1.840107 -2.748195 1.437525  Z" fill="white" stroke="white" stroke-width="0"/>
    <path d="M -3.039760 1.780293 C -2.492285 2.174840 -1.849041 2.374834 -1.185494 2.448033  L -1.177891 2.261220  C -1.779866 2.153419 -2.365983 1.943004 -2.845384 1.551781  Z" fill="black" stroke="black" stroke-width="0.005"/>
    <path d="M -1.679355 -1.052784 C -2.316189 -0.828307 -2.838707 -0.400841 -3.276538 0.101852  L -3.026533 0.267675  C -2.654579 -0.219325 -2.186775 -0.627445 -1.620369 -0.875364  Z" fill="black" stroke="black" stroke-width="0.005"/>
    <path d="M -1.769308 -0.060148 C -2.096802 -0.521624 -2.160113 -1.035798 -2.128277 -1.580584  L -2.719001 -1.685676  C -2.708386 -0.987892 -2.530901 -0.319924 -2.035087 0.197900  Z" fill="white" stroke="white" stroke-width="0"/>
    <path d="M -1.835753 0.004364 C -2.210367 -0.474268 -2.286255 -1.022561 -2.275958 -1.606857  L -2.571320 -1.659403  C -2.577315 -1.002303 -2.418856 -0.367406 -1.968642 0.133388  Z" fill="black" stroke="black" stroke-width="0.005"/>
    <path d="M -0.131871 -0.836516 C -0.292952 -1.490420 -0.728619 -1.978947 -1.274967 -2.344246  L -1.398034 -2.070650  C -0.909361 -1.749840 -0.498689 -1.378129 -0.313552 -0.799082  Z" fill="black" stroke="black" stroke-width="0.005"/>
    <path d="M 0.583506 -2.069057 C -0.118776 -2.014868 -0.761918 -1.738179 -1.333262 -1.339911  L -1.106643 -1.042467  C -0.577038 -1.290040 -0.031218 -1.503141 0.566677 -1.469294  Z" fill="white" stroke="white" stroke-width="0"/>
    <path d="M 0.579299 -1.919116 C -0.094492 -1.883081 -0.718476 -1.631089 -1.276607 -1.265550  L -1.163298 -1.116828  C -0.629342 -1.417167 -0.048169 -1.618538 0.570884 -1.619235  Z" fill="black" stroke="black" stroke-width="0.005"/>
    <path d="M 2.067830 1.200178 C 1.852400 0.567173 1.365470 0.168673 0.752910 -0.047468  L 0.714770 0.125617  C 1.211168 0.384828 1.619371 0.691895 1.774571 1.263414  Z" fill="black" stroke="black" stroke-width="0.005"/>
    <path d="M 0.916012 0.886990 C 1.546619 0.531645 1.839737 -0.074243 1.941864 -0.763788  L 1.343247 -0.723074  C 1.307180 -0.209605 1.165475 0.235131 0.746947 0.575430  Z" fill="white" stroke="white" stroke-width="0"/>
    <path d="M 0.873746 0.809100 C 1.446707 0.461022 1.713461 -0.110660 1.792209 -0.753610  L 1.492901 -0.733252  C 1.426856 -0.175431 1.267249 0.305075 0.789213 0.653320  Z" fill="black" stroke="black" stroke-width="0.005"/>
    <path d="M -0.739605 2.541081 C -0.105749 2.773686 0.568677 2.772013 1.224674 2.655734  L 1.133629 2.369883  C 0.534384 2.489852 -0.073753 2.552366 -0.671859 2.366818  Z" fill="black" stroke="black" stroke-width="0.005"/>
    <path d="M -0.035648 1.833546 C -0.078599 2.397976 -0.358329 2.834524 -0.730549 3.233917  L -0.342649 3.691664  C 0.094480 3.147629 0.384473 2.520091 0.334245 1.804973  Z" fill="white" stroke="white" stroke-width="0"/>
    <path d="M 0.056825 1.826403 C 0.039098 2.434068 -0.252719 2.904879 -0.633574 3.348353  L -0.439624 3.577227  C -0.015652 3.075045 0.267870 2.485063 0.241772 1.812116  Z" fill="black" stroke="black" stroke-width="0.005"/>
    <path d="M 0.107689 0.361015 C 0.063801 0.113599 -0.001809 -0.129025 -0.063305 -0.372380  L -0.151208 -0.346137  C -0.084615 -0.106932 -0.014384 0.131507 0.035340 0.375073  Z" fill="black" stroke="black" stroke-width="0.005"/>
    <path d="M 0.374928 -0.083477 C 0.107581 -0.082639 -0.118834 0.040602 -0.353723 0.145594  L -0.269374 0.271579  C -0.061175 0.184793 0.141157 0.081058 0.374928 0.083477  Z" fill="white" stroke="white" stroke-width="0"/>
    <path d="M 0.374928 -0.041738 C 0.115985 -0.041692 -0.104424 0.076659 -0.332636 0.177090  L -0.290462 0.240082  C -0.075594 0.148754 0.132773 0.040158 0.374928 0.041738  Z" fill="black" stroke="black" stroke-width="0.005"/>
    <path d="M -0.231557 0.893605 C 0.014205 0.975064 0.260717 0.931751 0.508930 0.908157  L 0.485837 0.827938  C 0.253605 0.851948 0.022587 0.894084 -0.208454 0.821404  Z" fill="black" stroke="black" stroke-width="0.005"/>
    <path d="M 0.030582 0.604806 C 0.046836 0.851571 0.042515 1.098771 0.041668 1.345773  L 0.225132 1.347577  C 0.213888 1.095418 0.207012 0.842733 0.177412 0.591796  Z" fill="white" stroke="white" stroke-width="0"/>
    <path d="M 0.067289 0.601553 C 0.086885 0.849369 0.085355 1.097932 0.087534 1.346224  L 0.179266 1.347126  C 0.171042 1.096256 0.166973 0.844950 0.140704 0.595048  Z" fill="black" stroke="black" stroke-width="0.005"/>
    <path d="M -0.898210 0.537873 C -0.739106 0.582694 -0.606607 0.682039 -0.465654 0.762046  L -0.431071 0.716241  C -0.578527 0.634940 -0.717413 0.533383 -0.883462 0.489482  Z" fill="black" stroke="black" stroke-width="0.005"/>
    <path d="M -0.544156 0.351050 C -0.635861 0.484638 -0.769898 0.576448 -0.888644 0.682148  L -0.833526 0.766993  C -0.702266 0.656593 -0.554883 0.561806 -0.452347 0.419950  Z" fill="white" stroke="white" stroke-width="0"/>
    <path d="M -0.521204 0.368275 C -0.615631 0.503918 -0.752997 0.596479 -0.874865 0.703360  L -0.847306 0.745782  C -0.719181 0.636551 -0.575141 0.542502 -0.475299 0.402725  Z" fill="black" stroke="black" stroke-width="0.005"/>
    <path d="M -1.621732 0.445691 C -1.460940 0.631530 -1.239178 0.699493 -1.022203 0.786935  L -1.009716 0.722521  C -1.207075 0.634643 -1.411056 0.564710 -1.554183 0.389176  Z" fill="black" stroke="black" stroke-width="0.005"/>
    <path d="M -1.423831 1.045530 C -1.345551 0.841780 -1.169524 0.726053 -1.018189 0.585987  L -1.077828 0.469094  C -1.271675 0.615623 -1.474860 0.743728 -1.584925 0.974284  Z" fill="white" stroke="white" stroke-width="0"/>
    <path d="M -1.464104 1.027718 C -1.375121 0.819441 -1.198446 0.695809 -1.033099 0.556764  L -1.062919 0.498317  C -1.247237 0.642371 -1.441543 0.769028 -1.544651 0.992095  Z" fill="black" stroke="black" stroke-width="0.005"/>
  </g>
  <g fill="none" stroke="black">
    <path d="M -1.7402 3.2116 C -1.5199 3.6605, -0.9181 3.786, -0.5366 3.4628" stroke-width="0.305"/>
    <path d="M -2.9426 1.666 C -3.3234 1.3421, -3.4279 0.6014, -3.1515 0.1848" stroke-width="0.305"/>
    <path d="M -1.3365 -2.2074 C -1.7925 -2.4126, -2.3361 -2.1254, -2.4236 -1.6331" stroke-width="0.305"/>
    <path d="M 0.5751 -1.7692 C 1.0749 -1.7552, 1.6086 -1.2423, 1.6426 -0.7434" stroke-width="0.305"/>
    <path d="M 1.9212 1.2318 C 2.0266 1.7206, 1.6556 2.3611, 1.1792 2.5128" stroke-width="0.305"/>
    <path d="M 0.374928 0.041738 C 0.491825 0.054337 0.602104 0.097191 0.714770 0.125617  L 0.752910 -0.047468  C 0.627111 -0.046874 0.500167 -0.062665 0.374928 -0.041738  Z" fill="black" stroke="black" stroke-width="0.005"/>
    <path d="M -0.7057 2.4539 C -0.8206 2.4093, -1.0586 2.3596, -1.1817 2.3546" stroke-width="0.192"/>
    <path d="M -1.6499 -0.9641 C -1.5329 -1.003, -1.318 -1.1165, -1.22 -1.1912" stroke-width="0.192"/>
    <path d="M 0.789213 0.653320 C 0.697323 0.726541 0.587441 0.770912 0.485837 0.827938  L 0.508930 0.908157  C 0.630340 0.876074 0.756986 0.859143 0.873746 0.809100  Z" fill="black" stroke="black" stroke-width="0.005"/>
    <path d="M -0.208454 0.821404 C -0.289877 0.802856 -0.357673 0.752059 -0.431071 0.716241  L -0.465654 0.762046  C -0.388631 0.806625 -0.318867 0.867252 -0.231557 0.893605  Z" fill="black" stroke="black" stroke-width="0.005"/>
    <path d="M -0.883462 0.489482 C -0.943318 0.460528 -1.004631 0.493533 -1.062919 0.498317  L -1.033099 0.556764  C -0.989579 0.549552 -0.945191 0.521836 -0.898210 0.537873  Z" fill="black" stroke="black" stroke-width="0.005"/>
    <path d="M -1.544651 0.992095 C -1.621731 1.127403 -1.708677 1.256641 -1.791629 1.388178  L -1.628233 1.475405  C -1.571881 1.326814 -1.511437 1.179518 -1.464104 1.027718  Z" fill="black" stroke="black" stroke-width="0.005"/>
    <path d="M 0.241772 1.812116 C 0.212124 1.658464 0.198145 1.502343 0.179266 1.347126  L 0.087534 1.346224  C 0.076171 1.506123 0.059287 1.665842 0.056825 1.826403  Z" fill="black" stroke="black" stroke-width="0.005"/>
    <path d="M 0.104 0.5983 C 0.0989 0.5403, 0.0826 0.4252, 0.0715 0.368" stroke-width="0.0787"/>
    <path d="M -0.063305 -0.372380 C -0.093531 -0.526010 -0.110052 -0.681750 -0.131871 -0.836516  L -0.313552 -0.799082  C -0.261319 -0.647468 -0.213838 -0.493912 -0.151208 -0.346137  Z" fill="black" stroke="black" stroke-width="0.005"/>
    <path d="M -1.968642 0.133388 C -1.847961 0.231682 -1.736166 0.340310 -1.621732 0.445691  L -1.554183 0.389176  C -1.647292 0.260454 -1.736692 0.128836 -1.835753 0.004364  Z" fill="black" stroke="black" stroke-width="0.005"/>
    <path d="M -1.022203 0.786935 C -0.958014 0.804455 -0.903714 0.761058 -0.847306 0.745782  L -0.874865 0.703360  C -0.918578 0.710746 -0.962881 0.738851 -1.009716 0.722521  Z" fill="black" stroke="black" stroke-width="0.005"/>
    <path d="M -0.475299 0.402725 C -0.425664 0.335542 -0.352306 0.293280 -0.290462 0.240082  L -0.332636 0.177090  C -0.396025 0.239645 -0.473014 0.290864 -0.521204 0.368275  Z" fill="black" stroke="black" stroke-width="0.005"/>
  </g>
</svg>
