<?xml version="1.0" encoding="utf-8" ?>
<svg xmlns="http://www.w3.org/2000/svg" xmlns:ev="http://www.w3.org/2001/xml-events" xmlns:xlink="http://www.w3.org/1999/xlink" baseProfile="full" version="1.1" viewBox="-6.54293638321812 -6.336121472483583 11.701046254961977 11.397417403337396">
  <defs/>
  <g stroke="none">
    <path d="M -0.343565 -2.944337 C 0.262051 -2.653177 0.892596 -2.417481 1.528124 -2.200967  L 1.609623 -2.489685  C 0.974695 -2.665480 0.348947 -2.874556 -0.261228 -3.123769  Z" fill="black" stroke="black" stroke-width="0.005"/>
    <path d="M 0.323109 -3.621829 C 0.330830 -2.988018 0.220694 -2.359451 0.073032 -1.745301  L 0.470183 -1.604156  C 0.698938 -2.252887 0.862406 -2.924977 0.923027 -3.611878  Z" fill="white" stroke="white" stroke-width="0"/>
    <path d="M 0.473088 -3.619341 C 0.462864 -2.972164 0.340617 -2.332922 0.172320 -1.710014  L 0.370895 -1.639442  C 0.579726 -2.279620 0.728688 -2.940688 0.773047 -3.614366  Z" fill="black" stroke="black" stroke-width="0.005"/>
    <path d="M 3.465995 0.427233 C 2.903848 0.052804 2.250523 -0.102680 1.583988 -0.120099  L 1.595158 0.081700  C 2.199987 0.133383 2.783767 0.301566 3.280159 0.662743  Z" fill="black" stroke="black" stroke-width="0.005"/>
    <path d="M 2.580453 0.943350 C 2.743398 0.279852 2.814243 -0.402213 2.859534 -1.082581  L 2.259776 -1.065547  C 2.297764 -0.420368 2.279042 0.227044 2.208121 0.869815  Z" fill="white" stroke="white" stroke-width="0"/>
    <path d="M 2.487370 0.924967 C 2.627693 0.266438 2.684407 -0.406610 2.709594 -1.078322  L 2.409715 -1.069805  C 2.426141 -0.415642 2.395526 0.240008 2.301204 0.888199  Z" fill="black" stroke="black" stroke-width="0.005"/>
    <path d="M 2.301879 1.445183 C 2.375008 2.058022 2.172167 2.615461 1.904894 3.149909  L 2.153016 3.318538  C 2.441180 2.721508 2.601351 2.073199 2.487955 1.407964  Z" fill="black" stroke="black" stroke-width="0.005"/>
    <path d="M 1.575268 2.471916 C 2.280326 2.561099 2.949090 2.354337 3.560987 2.020855  L 3.188174 1.550738  C 2.710557 1.859740 2.207090 2.091729 1.622155 2.095299  Z" fill="white" stroke="white" stroke-width="0"/>
    <path d="M 1.586989 2.377761 C 2.258759 2.441964 2.893544 2.234584 3.467783 1.903326  L 3.281377 1.668267  C 2.768015 1.974092 2.226989 2.217349 1.610433 2.189453  Z" fill="black" stroke="black" stroke-width="0.005"/>
    <path d="M -0.876287 2.781511 C -0.205888 2.718886 0.456007 2.588257 1.105255 2.412672  L 1.054905 2.229711  C 0.414148 2.360360 -0.235108 2.462268 -0.889830 2.481817  Z" fill="black" stroke="black" stroke-width="0.005"/>
    <path d="M -0.104409 1.590376 C -0.092012 2.299032 0.185118 2.945259 0.570174 3.526548  L 1.012607 3.121267  C 0.663086 2.661314 0.377519 2.169630 0.299740 1.582996  Z" fill="white" stroke="white" stroke-width="0"/>
    <path d="M -0.003372 1.588531 C 0.026965 2.263726 0.301003 2.878251 0.680783 3.425228  L 0.901999 3.222587  C 0.551490 2.729430 0.253022 2.204291 0.198703 1.584841  Z" fill="black" stroke="black" stroke-width="0.005"/>
    <path d="M -1.692728 0.297517 C -2.298047 0.526632 -2.933318 0.663626 -3.574790 0.737783  L -3.547784 1.036565  C -2.884049 0.925600 -2.225245 0.763401 -1.607753 0.490369  Z" fill="black" stroke="black" stroke-width="0.005"/>
    <path d="M -1.941745 1.634486 C -2.217246 1.013794 -2.528409 0.409696 -2.875176 -0.173916  L -3.220967 0.016684  C -2.955267 0.612807 -2.698166 1.215146 -2.505641 1.839478  Z" fill="white" stroke="white" stroke-width="0"/>
    <path d="M -2.082719 1.685734 C -2.337987 1.064125 -2.634906 0.460570 -2.961624 -0.126266  L -3.134519 -0.030966  C -2.848337 0.562138 -2.578456 1.164772 -2.364667 1.788230  Z" fill="black" stroke="black" stroke-width="0.005"/>
    <path d="M -5.062337 -1.720693 C -4.625760 -1.205339 -4.095264 -0.782538 -3.523972 -0.427394  L -3.425617 -0.598571  C -3.946783 -0.967212 -4.436348 -1.388685 -4.822459 -1.900854  Z" fill="black" stroke="black" stroke-width="0.005"/>
    <path d="M -4.151288 0.015313 C -4.103224 -0.607957 -3.913244 -1.209524 -3.679059 -1.785562  L -4.023075 -1.979347  C -4.357274 -1.375231 -4.616082 -0.729748 -4.747799 -0.049298  Z" fill="white" stroke="white" stroke-width="0"/>
    <path d="M -4.300415 -0.000840 C -4.230198 -0.638389 -4.024710 -1.250833 -3.765063 -1.834008  L -3.937071 -1.930901  C -4.246704 -1.333716 -4.486699 -0.699217 -4.598671 -0.033145  Z" fill="black" stroke="black" stroke-width="0.005"/>
    <path d="M -3.607528 -2.477083 C -3.587101 -3.118074 -3.447821 -3.747544 -3.234963 -4.350129  L -3.514380 -4.459337  C -3.701027 -3.813683 -3.826130 -3.145821 -3.804845 -2.470664  Z" fill="black" stroke="black" stroke-width="0.005"/>
    <path d="M -4.511371 -2.771221 C -3.956050 -3.058263 -3.344520 -3.213201 -2.731442 -3.317113  L -2.747639 -3.711623  C -3.437214 -3.677989 -4.122303 -3.558480 -4.770264 -3.312493  Z" fill="white" stroke="white" stroke-width="0"/>
    <path d="M -4.576094 -2.906539 C -3.996974 -3.182255 -3.368034 -3.329726 -2.735491 -3.415741  L -2.743590 -3.612996  C -3.414346 -3.562118 -4.080196 -3.432388 -4.705541 -3.177175  Z" fill="black" stroke="black" stroke-width="0.005"/>
    <path d="M -0.370997 -4.583801 C -1.027040 -4.423185 -1.642187 -4.137211 -2.215003 -3.784530  L -2.105732 -3.620107  C -1.543215 -3.921908 -0.947527 -4.171847 -0.316862 -4.288726  Z" fill="black" stroke="black" stroke-width="0.005"/>
    <path d="M -2.331125 -4.543497 C -1.794856 -4.222265 -1.341356 -3.783731 -0.930434 -3.317034  L -0.603461 -3.538369  C -0.994864 -4.107095 -1.456937 -4.626824 -2.007032 -5.048436  Z" fill="white" stroke="white" stroke-width="0"/>
    <path d="M -2.250102 -4.669732 C -1.710943 -4.322302 -1.254633 -3.865034 -0.848690 -3.372368  L -0.685204 -3.483036  C -1.081370 -4.026684 -1.542012 -4.524676 -2.088056 -4.922201  Z" fill="black" stroke="black" stroke-width="0.005"/>
    <path d="M 0.158747 0.886063 C 0.120840 0.297093 0.150259 -0.292542 0.190631 -0.880223  L -0.003343 -0.900623  C -0.047646 -0.301823 -0.064982 0.299975 -0.027157 0.899762  Z" fill="black" stroke="black" stroke-width="0.005"/>
    <path d="M 0.895333 -0.186408 C 0.288684 -0.181805 -0.315982 -0.120603 -0.915733 -0.033125  L -0.846534 0.350775  C -0.269221 0.266618 0.310865 0.193654 0.895333 0.186408  Z" fill="white" stroke="white" stroke-width="0"/>
    <path d="M 0.895333 -0.093204 C 0.294388 -0.086850 -0.304509 -0.025337 -0.898433 0.062850  L -0.863834 0.254800  C -0.280709 0.171351 0.305170 0.098681 0.895333 0.093204  Z" fill="black" stroke="black" stroke-width="0.005"/>
  </g>
  <g fill="none" stroke="black">
    <path d="M -0.3439 -4.4363 C 0.1479 -4.5265, 0.6314 -4.1168, 0.6231 -3.6169" stroke-width="0.305"/>
    <path d="M 2.5597 -1.0741 C 2.5455 -1.5739, 2.0501 -2.2095, 1.5689 -2.3453" stroke-width="0.305"/>
    <path d="M 3.3731 0.545 C 3.7656 0.8547, 3.7663 1.4751, 3.3746 1.7858" stroke-width="0.305"/>
    <path d="M 0.7914 3.3239 C 1.1291 3.6926, 1.7479 3.6478, 2.029 3.2342" stroke-width="0.305"/>
    <path d="M -0.8831 2.6317 C -1.3825 2.6542, -2.0529 2.2069, -2.2237 1.737" stroke-width="0.305"/>
    <path d="M -4.4495 -0.017 C -4.5034 0.4801, -4.0593 0.9322, -3.5613 0.8872" stroke-width="0.305"/>
    <path d="M -4.9424 -1.8108 C -5.2427 -2.2106, -5.0919 -2.8261, -4.6408 -3.0419" stroke-width="0.305"/>
    <path d="M -2.1691 -4.796 C -2.5899 -5.066, -3.1927 -4.8704, -3.3747 -4.4047" stroke-width="0.305"/>
    <path d="M -0.3024 -3.0341 C -0.4461 -3.1, -0.6783 -3.2968, -0.7669 -3.4277" stroke-width="0.2024"/>
    <path d="M -3.7062 -2.4739 C -3.701 -2.3159, -3.7735 -2.0202, -3.8511 -1.8825" stroke-width="0.2024"/>
    <path d="M -1.607753 0.490369 C -1.370079 0.380787 -1.115011 0.322315 -0.863834 0.254800  L -0.898433 0.062850  C -1.167283 0.126219 -1.437634 0.187933 -1.692728 0.297517  Z" fill="black" stroke="black" stroke-width="0.005"/>
    <path d="M 0.895333 0.093204 C 1.128690 0.096478 1.361942 0.087960 1.595158 0.081700  L 1.583988 -0.120099  C 1.354546 -0.108759 1.125130 -0.095550 0.895333 -0.093204  Z" fill="black" stroke="black" stroke-width="0.005"/>
    <path d="M 1.5987 2.2836 C 1.4672 2.2672, 1.2079 2.286, 1.0801 2.3212" stroke-width="0.1948"/>
    <path d="M -3.0481 -0.0786 C -3.1244 -0.217, -3.3377 -0.4342, -3.4748 -0.513" stroke-width="0.2024"/>
    <path d="M -2.7395 -3.5144 C -2.5816 -3.5209, -2.292 -3.6148, -2.1604 -3.7023" stroke-width="0.2024"/>
    <path d="M 0.172320 -1.710014 C 0.081777 -1.447558 0.040098 -1.173402 -0.003343 -0.900623  L 0.190631 -0.880223  C 0.239505 -1.135682 0.279074 -1.394357 0.370895 -1.639442  Z" fill="black" stroke="black" stroke-width="0.005"/>
    <path d="M -0.027157 0.899762 C -0.012610 1.129110 -0.008924 1.358876 -0.003372 1.588531  L 0.198703 1.584841  C 0.187807 1.351795 0.179161 1.118548 0.158747 0.886063  Z" fill="black" stroke="black" stroke-width="0.005"/>
    <path d="M 2.3949 1.4266 C 2.3689 1.2966, 2.3686 1.0366, 2.3943 0.9066" stroke-width="0.1948"/>
  </g>
</svg>
