<?xml version="1.0" encoding="utf-8" ?>
<svg xmlns="http://www.w3.org/2000/svg" xmlns:ev="http://www.w3.org/2001/xml-events" xmlns:xlink="http://www.w3.org/1999/xlink" baseProfile="full" version="1.1" viewBox="-6.532085225629416 -3.985660062347561 11.385716434154354 9.095855741116706">
  <defs/>
  <g stroke="none">
    <path d="M -0.200195 3.217950 C -0.011038 2.569386 0.048316 1.893427 0.028903 1.220892  L -0.173366 1.234093  C -0.190964 1.871928 -0.270629 2.512674 -0.482919 3.117615  Z" fill="black" stroke="black" stroke-width="0.005"/>
    <path d="M -0.988675 2.499578 C -0.328634 2.492718 0.331451 2.497487 0.990592 2.532941  L 0.995140 1.932958  C 0.322528 1.975791 -0.350961 2.019284 -1.019416 2.107489  Z" fill="white" stroke="white" stroke-width="0"/>
    <path d="M -0.996360 2.401556 C -0.333996 2.374214 0.329045 2.367323 0.991729 2.382946  L 0.994003 2.082954  C 0.324598 2.106480 -0.345169 2.137489 -1.011731 2.205511  Z" fill="black" stroke="black" stroke-width="0.005"/>
    <path d="M -1.625350 2.425179 C -2.172260 2.753811 -2.777910 2.965826 -3.400189 3.094169  L -3.350978 3.390105  C -2.702288 3.216166 -2.068344 2.971014 -1.512810 2.586438  Z" fill="black" stroke="black" stroke-width="0.005"/>
    <path d="M -3.104582 2.352295 C -2.735888 2.941573 -2.230865 3.425236 -1.687382 3.851117  L -1.377754 3.337181  C -1.895251 2.999848 -2.389542 2.625375 -2.776483 2.135432  Z" fill="white" stroke="white" stroke-width="0"/>
    <path d="M -3.022558 2.298080 C -2.647866 2.860326 -2.148897 3.321863 -1.609975 3.722633  L -1.455161 3.465665  C -1.986336 3.117015 -2.471214 2.696711 -2.858508 2.189648  Z" fill="black" stroke="black" stroke-width="0.005"/>
    <path d="M -5.028162 0.717255 C -4.576507 1.219630 -4.025727 1.615902 -3.434515 1.935874  L -3.347974 1.759294  C -3.886917 1.424254 -4.394101 1.028867 -4.793124 0.530822  Z" fill="black" stroke="black" stroke-width="0.005"/>
    <path d="M -4.000919 0.429970 C -4.337776 1.038009 -4.516188 1.714135 -4.625420 2.395910  L -4.025818 2.417761  C -3.981457 1.801621 -3.893362 1.187786 -3.652244 0.611914  Z" fill="white" stroke="white" stroke-width="0"/>
    <path d="M -3.913750 0.475456 C -4.224054 1.075645 -4.386045 1.735754 -4.475520 2.401373  L -4.175719 2.412298  C -4.128084 1.778710 -3.995336 1.150904 -3.739413 0.566428  Z" fill="black" stroke="black" stroke-width="0.005"/>
    <path d="M -3.600096 -0.070261 C -3.588536 -0.708207 -3.446961 -1.334082 -3.225635 -1.929664  L -3.502602 -2.044943  C -3.699288 -1.402784 -3.827783 -0.735346 -3.796495 -0.060411  Z" fill="black" stroke="black" stroke-width="0.005"/>
    <path d="M -2.753580 -1.285519 C -3.448694 -1.285595 -4.126603 -1.114078 -4.775933 -0.879306  L -4.504536 -0.344196  C -3.944052 -0.603915 -3.364395 -0.824259 -2.743805 -0.892348  Z" fill="white" stroke="white" stroke-width="0"/>
    <path d="M -2.751136 -1.187226 C -3.426519 -1.167878 -4.082459 -0.989756 -4.708084 -0.745529  L -4.572385 -0.477973  C -3.995052 -0.743283 -3.381538 -0.931335 -2.746249 -0.990641  Z" fill="black" stroke="black" stroke-width="0.005"/>
    <path d="M -2.121783 -1.177251 C -1.544515 -1.517390 -0.986597 -1.889245 -0.433404 -2.266914  L -0.612980 -2.507232  C -1.137564 -2.102008 -1.675774 -1.714709 -2.225556 -1.344286  Z" fill="black" stroke="black" stroke-width="0.005"/>
    <path d="M -0.614710 -1.055247 C -0.973931 -1.648518 -1.460534 -2.148537 -1.983746 -2.597847  L -2.320358 -2.101166  C -1.805938 -1.750208 -1.341763 -1.327918 -0.956238 -0.836828  Z" fill="white" stroke="white" stroke-width="0"/>
    <path d="M -0.700092 -1.000642 C -1.065585 -1.568908 -1.547509 -2.048097 -2.067899 -2.473677  L -2.236205 -2.225336  C -1.720222 -1.848815 -1.249494 -1.408681 -0.870856 -0.891432  Z" fill="black" stroke="black" stroke-width="0.005"/>
    <path d="M 2.952877 -1.724068 C 2.299796 -1.857534 1.744155 -1.605443 1.305525 -1.134814  L 1.455592 -1.028966  C 1.878203 -1.366210 2.298568 -1.584821 2.857702 -1.439565  Z" fill="black" stroke="black" stroke-width="0.005"/>
    <path d="M 2.373653 -0.972452 C 2.209436 -1.660758 1.790972 -2.222620 1.280396 -2.694225  L 0.954417 -2.190501  C 1.411415 -1.838272 1.808293 -1.436094 2.025164 -0.885358  Z" fill="white" stroke="white" stroke-width="0"/>
    <path d="M 2.286531 -0.950678 C 2.108305 -1.601150 1.698322 -2.131281 1.198901 -2.568294  L 1.035912 -2.316432  C 1.498729 -1.929285 1.915148 -1.496329 2.112286 -0.907131  Z" fill="black" stroke="black" stroke-width="0.005"/>
    <path d="M 2.239072 -0.520764 C 2.429361 0.070680 2.350431 0.666185 2.206982 1.252278  L 2.487509 1.358601  C 2.630900 0.710649 2.647070 0.040677 2.405240 -0.588924  Z" fill="black" stroke="black" stroke-width="0.005"/>
    <path d="M 1.694982 0.227746 C 2.393838 0.440028 3.004459 0.192751 3.522880 -0.274313  L 3.032405 -0.619906  C 2.692379 -0.269774 2.322833 -0.057755 1.811332 -0.120620  Z" fill="white" stroke="white" stroke-width="0"/>
    <path d="M 1.724070 0.140654 C 2.369542 0.315471 2.934006 0.079523 3.400261 -0.360711  L 3.155024 -0.533507  C 2.758482 -0.163019 2.349834 0.067329 1.782244 -0.033528  Z" fill="black" stroke="black" stroke-width="0.005"/>
    <path d="M 0.530725 -0.048831 C 0.195943 -0.068661 -0.052514 -0.247277 -0.309967 -0.435851  L -0.407476 -0.346423  C -0.116884 -0.147302 0.159804 0.042753 0.530725 0.048831  Z" fill="black" stroke="black" stroke-width="0.005"/>
    <path d="M 0.074308 0.541898 C 0.109252 0.226289 0.295030 -0.000704 0.485402 -0.235780  L 0.369673 -0.393127  C 0.116524 -0.126279 -0.125133 0.130303 -0.188765 0.513364  Z" fill="white" stroke="white" stroke-width="0"/>
    <path d="M 0.008540 0.534764 C 0.051570 0.202309 0.250196 -0.031806 0.456470 -0.275117  L 0.398605 -0.353790  C 0.160430 -0.094058 -0.064426 0.154105 -0.122996 0.520498  Z" fill="black" stroke="black" stroke-width="0.005"/>
    <path d="M 1.373541 -0.174049 C 1.151020 -0.311129 0.896652 -0.353479 0.647979 -0.411396  L 0.640544 -0.336389  C 0.875635 -0.276147 1.116900 -0.230790 1.325734 -0.096664  Z" fill="black" stroke="black" stroke-width="0.005"/>
    <path d="M 1.083066 -0.724631 C 0.999012 -0.498064 0.837639 -0.321267 0.690099 -0.136544  L 0.790960 -0.024507  C 0.963137 -0.221580 1.149175 -0.409058 1.251792 -0.656604  Z" fill="white" stroke="white" stroke-width="0"/>
    <path d="M 1.125247 -0.707624 C 1.036486 -0.475842 0.869004 -0.296355 0.715314 -0.108535  L 0.765745 -0.052517  C 0.931753 -0.246511 1.111573 -0.431339 1.209610 -0.673611  Z" fill="black" stroke="black" stroke-width="0.005"/>
  </g>
  <g fill="none" stroke="black">
    <path d="M 2.3472 1.3054 C 2.17 1.773, 1.4929 2.2367, 0.9929 2.2329" stroke-width="0.305"/>
    <path d="M -0.3416 3.1678 C -0.5088 3.639, -1.1043 3.8522, -1.5326 3.5941" stroke-width="0.305"/>
    <path d="M -3.3756 3.2421 C -3.8688 3.3242, -4.3438 2.9065, -4.3256 2.4068" stroke-width="0.305"/>
    <path d="M -4.9106 0.624 C -5.2214 0.2323, -5.0862 -0.3856, -4.6402 -0.6118" stroke-width="0.305"/>
    <path d="M -3.3641 -1.9873 C -3.172 -2.4489, -2.566 -2.63, -2.1521 -2.3495" stroke-width="0.305"/>
    <path d="M -0.5232 -2.3871 C -0.1227 -2.6864, 0.6976 -2.714, 1.1174 -2.4424" stroke-width="0.305"/>
    <path d="M 2.9053 -1.5818 C 3.3795 -1.4232, 3.5656 -0.8558, 3.2776 -0.4471" stroke-width="0.305"/>
    <path d="M -0.870856 -0.891432 C -0.732918 -0.695829 -0.567831 -0.522887 -0.407476 -0.346423  L -0.309967 -0.435851  C -0.446007 -0.619771 -0.588357 -0.800195 -0.700092 -1.000642  Z" fill="black" stroke="black" stroke-width="0.005"/>
    <path d="M 0.530725 0.048831 C 0.624393 0.055339 0.690253 -0.017079 0.765745 -0.052517  L 0.715314 -0.108535  C 0.655610 -0.087558 0.600077 -0.038830 0.530725 -0.048831  Z" fill="black" stroke="black" stroke-width="0.005"/>
    <path d="M 1.209610 -0.673611 C 1.275024 -0.803332 1.372260 -0.912002 1.455592 -1.028966  L 1.305525 -1.134814  C 1.241452 -0.994306 1.164627 -0.858241 1.125247 -0.707624  Z" fill="black" stroke="black" stroke-width="0.005"/>
    <path d="M 1.782244 -0.033528 C 1.639518 -0.059747 1.508643 -0.124545 1.373541 -0.174049  L 1.325734 -0.096664  C 1.456345 -0.014528 1.580592 0.079769 1.724070 0.140654  Z" fill="black" stroke="black" stroke-width="0.005"/>
    <path d="M 0.647979 -0.411396 C 0.557103 -0.434769 0.479302 -0.375102 0.398605 -0.353790  L 0.456470 -0.275117  C 0.515726 -0.296408 0.570969 -0.345184 0.640544 -0.336389  Z" fill="black" stroke="black" stroke-width="0.005"/>
    <path d="M -0.122996 0.520498 C -0.162727 0.756380 -0.164389 0.995844 -0.173366 1.234093  L 0.028903 1.220892  C 0.014677 0.992549 -0.004979 0.764019 0.008540 0.534764  Z" fill="black" stroke="black" stroke-width="0.005"/>
    <path d="M -2.9405 2.2439 C -3.0263 2.1142, -3.2516 1.916, -3.3912 1.8476" stroke-width="0.2016"/>
    <path d="M -2.7487 -1.0889 C -2.5933 -1.0928, -2.3057 -1.1787, -2.1737 -1.2608" stroke-width="0.2016"/>
    <path d="M 2.1994 -0.9289 C 2.2233 -0.8332, 2.2847 -0.6461, 2.3222 -0.5548" stroke-width="0.18460000000000001"/>
    <path d="M -1.004 2.3035 C -1.1591 2.3157, -1.4416 2.4168, -1.5691 2.5058" stroke-width="0.2016"/>
    <path d="M -3.8266 0.5209 C -3.7547 0.3831, -3.6905 0.09, -3.6983 -0.0653" stroke-width="0.2016"/>
  </g>
</svg>
