<?xml version="1.0" encoding="utf-8" ?>
<svg xmlns="http://www.w3.org/2000/svg" xmlns:ev="http://www.w3.org/2001/xml-events" xmlns:xlink="http://www.w3.org/1999/xlink" baseProfile="full" version="1.1" viewBox="-2.742477735546568 -5.602914788363238 9.322641830812818 8.75733388810587">
  <defs/>
  <g stroke="none">
    <path d="M -0.215922 -3.190457 C -0.119220 -2.523277 0.062365 -1.872045 0.295647 -1.240803  L 0.476255 -1.310314  C 0.288551 -1.932588 0.136981 -2.569221 0.082769 -3.218458  Z" fill="black" stroke="black" stroke-width="0.005"/>
    <path d="M 0.940703 -2.658848 C 0.274390 -2.508427 -0.368022 -2.269208 -0.997753 -2.007895  L -0.717964 -1.477123  C -0.154828 -1.794543 0.434583 -2.063336 1.042746 -2.283565  Z" fill="white" stroke="white" stroke-width="0"/>
    <path d="M 0.966214 -2.565027 C 0.314102 -2.397404 -0.314313 -2.150000 -0.927805 -1.875202  L -0.787911 -1.609816  C -0.207668 -1.912663 0.394171 -2.174857 1.017235 -2.377385  Z" fill="black" stroke="black" stroke-width="0.005"/>
    <path d="M 1.758672 -3.600102 C 1.920496 -4.130566 2.286617 -4.323673 2.793398 -4.418872  L 2.803636 -4.718698  C 2.186976 -4.604277 1.712541 -4.272537 1.589515 -3.621415  Z" fill="black" stroke="black" stroke-width="0.005"/>
    <path d="M 2.252057 -3.695227 C 2.019167 -4.391388 1.450075 -4.667165 0.759169 -4.695355  L 0.880016 -4.107651  C 1.333064 -4.128170 1.683098 -4.014614 1.925700 -3.596416  Z" fill="white" stroke="white" stroke-width="0"/>
    <path d="M 2.170468 -3.670524 C 1.939888 -4.291755 1.416499 -4.539147 0.789381 -4.548429  L 0.849805 -4.254577  C 1.365374 -4.245799 1.758716 -4.116891 2.007289 -3.621118  Z" fill="black" stroke="black" stroke-width="0.005"/>
    <path d="M 4.850876 -2.084649 C 4.274439 -2.436963 3.626006 -2.635027 2.962254 -2.733756  L 2.943455 -2.540212  C 3.556819 -2.409775 4.158097 -2.199598 4.677459 -1.839850  Z" fill="black" stroke="black" stroke-width="0.005"/>
    <path d="M 3.573900 -3.514945 C 3.649749 -2.877312 3.623554 -2.232322 3.570440 -1.594022  L 3.954195 -1.521435  C 4.092246 -2.191990 4.171394 -2.874443 4.172205 -3.560016  Z" fill="white" stroke="white" stroke-width="0"/>
    <path d="M 3.723476 -3.526213 C 3.779352 -2.876338 3.740996 -2.222445 3.666379 -1.575875  L 3.858256 -1.539582  C 3.975343 -2.202259 4.040189 -2.874958 4.022629 -3.548748  Z" fill="black" stroke="black" stroke-width="0.005"/>
    <path d="M 3.707886 -0.943864 C 3.859966 -0.330406 3.864041 0.305411 3.771589 0.927097  L 4.065850 0.985498  C 4.124953 0.317652 4.099127 -0.361240 3.893368 -1.004940  Z" fill="black" stroke="black" stroke-width="0.005"/>
    <path d="M 4.642834 -0.924398 C 4.202205 -0.499469 3.659707 -0.208465 3.095342 0.016816  L 3.185705 0.396778  C 3.856502 0.220791 4.497900 -0.058218 5.050720 -0.484366  Z" fill="white" stroke="white" stroke-width="0"/>
    <path d="M 4.744805 -0.814390 C 4.276712 -0.389410 3.708544 -0.100516 3.117933 0.111806  L 3.163114 0.301787  C 3.807455 0.113889 4.423582 -0.169345 4.948749 -0.594374  Z" fill="black" stroke="black" stroke-width="0.005"/>
    <path d="M 1.093641 1.783579 C 1.660379 1.420202 2.190005 1.002557 2.689362 0.552054  L 2.557901 0.407652  C 2.046595 0.816235 1.515508 1.203893 0.943436 1.523890  Z" fill="black" stroke="black" stroke-width="0.005"/>
    <path d="M 1.130303 0.468113 C 1.537236 1.036160 2.091938 1.466282 2.686491 1.821090  L 2.921726 1.269126  C 2.376094 1.003965 1.853127 0.692786 1.440262 0.236318  Z" fill="white" stroke="white" stroke-width="0"/>
    <path d="M 1.207793 0.410164 C 1.617399 0.947595 2.161302 1.354369 2.745300 1.683099  L 2.862917 1.407117  C 2.298607 1.132914 1.778318 0.769181 1.362773 0.294266  Z" fill="black" stroke="black" stroke-width="0.005"/>
    <path d="M -0.238530 0.201026 C -0.765582 0.295799 -1.051460 0.059172 -1.300333 -0.366795  L -1.586608 -0.277093  C -1.275649 0.254008 -0.808281 0.549052 -0.180399 0.354284  Z" fill="black" stroke="black" stroke-width="0.005"/>
    <path d="M -0.445349 -0.101251 C -1.020020 0.359065 -1.023569 0.971528 -0.724094 1.587969  L -0.267460 1.198757  C -0.455589 0.821998 -0.556838 0.532035 -0.247746 0.160326  Z" fill="white" stroke="white" stroke-width="0"/>
    <path d="M -0.395948 -0.035857 C -0.895041 0.392019 -0.894034 0.944724 -0.609936 1.490666  L -0.381619 1.296060  C -0.609760 0.858639 -0.657916 0.490672 -0.297147 0.094931  Z" fill="black" stroke="black" stroke-width="0.005"/>
    <path d="M 0.181062 -0.019116 C 0.060961 -0.017918 -0.058553 -0.031214 -0.178242 -0.037878  L -0.182198 0.003003  C -0.061185 0.008812 0.059699 0.021351 0.181062 0.019116  Z" fill="black" stroke="black" stroke-width="0.005"/>
    <path d="M -0.044451 0.180262 C 0.006700 0.072297 0.070652 -0.028791 0.128740 -0.132932  L 0.064010 -0.173631  C 0.003046 -0.068201 -0.063864 0.034020 -0.117879 0.143439  Z" fill="white" stroke="white" stroke-width="0"/>
    <path d="M -0.062808 0.171056 C -0.010939 0.062729 0.053751 -0.038643 0.112558 -0.143107  L 0.080192 -0.163456  C 0.019948 -0.058348 -0.046221 0.043590 -0.099522 0.152645  Z" fill="black" stroke="black" stroke-width="0.005"/>
    <path d="M 0.924913 -0.108200 C 0.700566 -0.282574 0.460087 -0.261696 0.199052 -0.267425  L 0.215706 -0.199049  C 0.446948 -0.182632 0.665403 -0.192193 0.857915 -0.030197  Z" fill="black" stroke="black" stroke-width="0.005"/>
    <path d="M 0.431365 -0.702612 C 0.469164 -0.469882 0.355870 -0.296883 0.258814 -0.101909  L 0.356855 -0.000920  C 0.503098 -0.233960 0.661297 -0.433966 0.634756 -0.733012  Z" fill="white" stroke="white" stroke-width="0"/>
    <path d="M 0.482212 -0.710212 C 0.516884 -0.461011 0.392511 -0.281162 0.283324 -0.076661  L 0.332344 -0.026167  C 0.466438 -0.250201 0.612114 -0.442671 0.583908 -0.725412  Z" fill="black" stroke="black" stroke-width="0.005"/>
    <path d="M 1.562490 -2.649185 C 1.838366 -2.824557 1.982002 -3.094204 2.129429 -3.371025  L 2.042747 -3.399310  C 1.899866 -3.149461 1.760532 -2.903529 1.504259 -2.748515  Z" fill="black" stroke="black" stroke-width="0.005"/>
    <path d="M 1.639895 -3.311838 C 1.796808 -3.009542 2.065394 -2.839459 2.339947 -2.662778  L 2.421408 -2.878169  C 2.188999 -3.023127 1.946037 -3.146796 1.801303 -3.396706  Z" fill="white" stroke="white" stroke-width="0"/>
    <path d="M 1.680247 -3.333055 C 1.835067 -3.045218 2.094886 -2.883552 2.360312 -2.716626  L 2.401043 -2.824321  C 2.153705 -2.971678 1.911753 -3.116590 1.760951 -3.375489  Z" fill="black" stroke="black" stroke-width="0.005"/>
  </g>
  <g fill="none" stroke="black">
    <path d="M -0.8579 -1.7425 C -1.3002 -1.5094, -1.593 -0.7991, -1.4435 -0.3219" stroke-width="0.305"/>
    <path d="M -0.0666 -3.2045 C -0.1132 -3.7023, 0.3298 -4.3008, 0.8196 -4.4015" stroke-width="0.305"/>
    <path d="M 3.8731 -3.5375 C 3.8355 -4.0361, 3.2982 -4.5517, 2.7985 -4.5688" stroke-width="0.305"/>
    <path d="M 4.7642 -1.9622 C 5.1722 -1.6732, 5.2135 -1.0443, 4.8468 -0.7044" stroke-width="0.305"/>
    <path d="M 2.8041 1.5451 C 3.2641 1.7411, 3.8214 1.4467, 3.9187 0.9563" stroke-width="0.305"/>
    <path d="M 1.0185 1.6537 C 0.5857 1.9041, -0.1714 1.7739, -0.4958 1.3934" stroke-width="0.305"/>
    <path d="M -0.297147 0.094931 C -0.281611 0.043096 -0.220734 0.031409 -0.182198 0.003003  L -0.178242 -0.037878  C -0.248717 -0.040084 -0.325371 -0.077989 -0.395948 -0.035857  Z" fill="black" stroke="black" stroke-width="0.005"/>
    <path d="M 0.181062 0.019116 C 0.238290 0.031808 0.283629 -0.009816 0.332344 -0.026167  L 0.283324 -0.076661  C 0.250905 -0.057347 0.223955 -0.020847 0.181062 -0.019116  Z" fill="black" stroke="black" stroke-width="0.005"/>
    <path d="M 0.583908 -0.725412 C 0.573285 -0.924528 0.518756 -1.116770 0.476255 -1.310314  L 0.295647 -1.240803  C 0.363187 -1.066093 0.441127 -0.894430 0.482212 -0.710212  Z" fill="black" stroke="black" stroke-width="0.005"/>
    <path d="M 2.007289 -3.621118 C 2.049633 -3.554230 2.032852 -3.472546 2.042747 -3.399310  L 2.129429 -3.371025  C 2.145526 -3.468660 2.199362 -3.566466 2.170468 -3.670524  Z" fill="black" stroke="black" stroke-width="0.005"/>
    <path d="M 1.504259 -2.748515 C 1.333882 -2.661466 1.147555 -2.619349 0.966214 -2.565027  L 1.017235 -2.377385  C 1.202449 -2.460453 1.395243 -2.530804 1.562490 -2.649185  Z" fill="black" stroke="black" stroke-width="0.005"/>
    <path d="M -0.180399 0.354284 C -0.107165 0.316961 -0.098453 0.231893 -0.062808 0.171056  L -0.099522 0.152645  C -0.144082 0.170148 -0.186379 0.215464 -0.238530 0.201026  Z" fill="black" stroke="black" stroke-width="0.005"/>
    <path d="M 0.112558 -0.143107 C 0.136855 -0.178497 0.182099 -0.181884 0.215706 -0.199049  L 0.199052 -0.267425  C 0.159279 -0.234887 0.099909 -0.218660 0.080192 -0.163456  Z" fill="black" stroke="black" stroke-width="0.005"/>
    <path d="M 0.857915 -0.030197 C 0.992000 0.102639 1.095839 0.259993 1.207793 0.410164  L 1.362773 0.294266  C 1.221547 0.155267 1.087824 0.006779 0.924913 -0.108200  Z" fill="black" stroke="black" stroke-width="0.005"/>
    <path d="M 3.8006 -0.9744 C 3.7534 -1.1178, 3.7343 -1.4094, 3.7623 -1.5577" stroke-width="0.2003"/>
    <path d="M 1.589515 -3.621415 C 1.578499 -3.513983 1.647989 -3.426603 1.680247 -3.333055  L 1.760951 -3.375489  C 1.758412 -3.449347 1.728158 -3.527055 1.758672 -3.600102  Z" fill="black" stroke="black" stroke-width="0.005"/>
    <path d="M 2.360312 -2.716626 C 2.545058 -2.628000 2.746925 -2.591010 2.943455 -2.540212  L 2.962254 -2.733756  C 2.774368 -2.756866 2.583615 -2.767108 2.401043 -2.824321  Z" fill="black" stroke="black" stroke-width="0.005"/>
    <path d="M 3.1405 0.2068 C 2.9937 0.2417, 2.7352 0.3782, 2.6236 0.4799" stroke-width="0.2003"/>
  </g>
</svg>
