<?xml version="1.0" encoding="utf-8" ?>
<svg xmlns="http://www.w3.org/2000/svg" xmlns:ev="http://www.w3.org/2001/xml-events" xmlns:xlink="http://www.w3.org/1999/xlink" baseProfile="full" version="1.1" viewBox="-3.60584751104415 -4.128956396918621 9.557721736107286 10.636776928401666">
  <defs/>
  <g stroke="none">
    <path d="M -1.862156 2.516863 C -1.573880 1.946460 -1.161576 1.451842 -0.706557 1.007898  L -0.830845 0.852664  C -1.338920 1.293176 -1.792712 1.797691 -2.130514 2.382760  Z" fill="black" stroke="black" stroke-width="0.005"/>
    <path d="M -0.762618 2.203160 C -1.141319 1.667796 -1.498795 1.117743 -1.822861 0.547723  L -2.332310 0.864680  C -1.931126 1.409904 -1.521737 1.951124 -1.066430 2.452759  Z" fill="white" stroke="white" stroke-width="0"/>
    <path d="M -0.838571 2.265560 C -1.236730 1.738567 -1.606447 1.190713 -1.950223 0.626962  L -2.204948 0.785441  C -1.822627 1.336775 -1.426935 1.880245 -0.990477 2.390360  Z" fill="black" stroke="black" stroke-width="0.005"/>
    <path d="M -1.746861 -0.676399 C -1.286768 -1.012928 -0.839074 -0.945713 -0.342904 -0.759364  L -0.235600 -0.899019  C -0.790742 -1.213736 -1.385306 -1.267374 -1.941199 -0.904945  Z" fill="black" stroke="black" stroke-width="0.005"/>
    <path d="M -0.510588 -0.599896 C -0.641422 -1.128426 -0.490150 -1.578471 -0.215387 -2.020369  L -0.678847 -2.401426  C -0.996437 -1.781772 -1.116722 -1.117347 -0.825650 -0.456564  Z" fill="white" stroke="white" stroke-width="0"/>
    <path d="M -0.589353 -0.564063 C -0.763023 -1.132544 -0.606081 -1.621379 -0.331252 -2.115633  L -0.562982 -2.306162  C -0.873834 -1.736886 -0.996140 -1.114745 -0.746885 -0.492397  Z" fill="black" stroke="black" stroke-width="0.005"/>
    <path d="M 1.121250 -2.594098 C 1.739124 -2.437604 2.305563 -2.134378 2.828262 -1.776478  L 2.946740 -1.914957  C 2.419859 -2.331397 1.836621 -2.677028 1.194378 -2.885049  Z" fill="black" stroke="black" stroke-width="0.005"/>
    <path d="M 2.981248 -3.096956 C 2.330013 -2.783153 1.959568 -2.216675 1.791060 -1.534224  L 2.176630 -1.478194  C 2.395361 -1.943108 2.660202 -2.347558 3.171190 -2.527815  Z" fill="white" stroke="white" stroke-width="0"/>
    <path d="M 3.028734 -2.954671 C 2.418845 -2.674466 2.060399 -2.149690 1.887452 -1.520217  L 2.080237 -1.492202  C 2.298186 -2.011302 2.571837 -2.451644 3.123705 -2.670100  Z" fill="black" stroke="black" stroke-width="0.005"/>
    <path d="M 3.923223 -2.122883 C 3.918976 -1.530538 3.605730 -1.122446 3.196893 -0.738090  L 3.288189 -0.569985  C 3.817860 -0.949731 4.181133 -1.468128 4.222874 -2.137361  Z" fill="black" stroke="black" stroke-width="0.005"/>
    <path d="M 3.154044 -1.443717 C 3.649085 -1.098647 3.983191 -0.617668 4.263684 -0.097010  L 4.809499 -0.346179  C 4.426046 -0.924445 3.951822 -1.442773 3.326448 -1.764856  Z" fill="white" stroke="white" stroke-width="0"/>
    <path d="M 3.197145 -1.524002 C 3.714247 -1.181977 4.110051 -0.701270 4.400138 -0.159302  L 4.673045 -0.283887  C 4.319733 -0.849335 3.873085 -1.356093 3.283347 -1.684571  Z" fill="black" stroke="black" stroke-width="0.005"/>
    <path d="M 4.082276 1.204139 C 3.578615 1.643560 3.078290 2.086774 2.587439 2.540465  L 2.717501 2.687890  C 3.231631 2.265862 3.745264 1.842912 4.271952 1.436567  Z" fill="black" stroke="black" stroke-width="0.005"/>
    <path d="M 3.987318 2.817373 C 3.729889 2.174320 3.358682 1.586690 2.924186 1.050445  L 2.606231 1.313286  C 2.943829 1.837558 3.243572 2.393833 3.414701 2.996566  Z" fill="white" stroke="white" stroke-width="0"/>
    <path d="M 3.844163 2.862172 C 3.607328 2.229469 3.255390 1.649380 2.844697 1.116155  L 2.685720 1.247576  C 3.047989 1.774833 3.364100 2.339186 3.557855 2.951768  Z" fill="black" stroke="black" stroke-width="0.005"/>
    <path d="M 2.989594 3.813807 C 2.354613 3.875467 1.717788 3.787295 1.102261 3.633900  L 1.035748 3.818904  C 1.677057 4.020380 2.345084 4.139253 3.020104 4.112252  Z" fill="black" stroke="black" stroke-width="0.005"/>
    <path d="M 2.135710 3.053364 C 1.891313 3.627558 1.512398 4.118022 1.101204 4.578564  L 1.534132 4.993984  C 1.947598 4.440912 2.308453 3.841823 2.509220 3.176210  Z" fill="white" stroke="white" stroke-width="0"/>
    <path d="M 2.229087 3.084076 C 1.988817 3.674932 1.630997 4.207355 1.209436 4.682419  L 1.425900 4.890129  C 1.841454 4.362567 2.202202 3.786501 2.415843 3.145499  Z" fill="black" stroke="black" stroke-width="0.005"/>
    <path d="M 0.180256 4.599837 C -0.179732 4.073138 -0.409317 3.472628 -0.571487 2.859356  L -0.765647 2.890214  C -0.633186 3.549247 -0.415469 4.191890 -0.066559 4.770373  Z" fill="black" stroke="black" stroke-width="0.005"/>
    <path d="M -1.555183 3.893126 C -0.870872 4.014710 -0.174072 3.989597 0.507495 3.871687  L 0.435168 3.485202  C -0.180848 3.516413 -0.804787 3.489520 -1.399768 3.313603  Z" fill="white" stroke="white" stroke-width="0"/>
    <path d="M -1.516329 3.748245 C -0.854252 3.882536 -0.175817 3.871704 0.489413 3.775065  L 0.453250 3.581823  C -0.178860 3.635106 -0.821597 3.620606 -1.438622 3.458484  Z" fill="black" stroke="black" stroke-width="0.005"/>
    <path d="M 0.564615 -0.068327 C 0.202013 -0.068443 -0.121419 -0.211002 -0.445935 -0.350478  L -0.504173 -0.259812  C -0.166897 -0.091044 0.180839 0.052690 0.564615 0.068327  Z" fill="black" stroke="black" stroke-width="0.005"/>
    <path d="M -0.217218 0.537998 C -0.005149 0.191679 0.016154 -0.183871 -0.007081 -0.575342  L -0.224011 -0.529988  C -0.234806 -0.207899 -0.244794 0.104344 -0.435227 0.383671  Z" fill="white" stroke="white" stroke-width="0"/>
    <path d="M -0.271720 0.499416 C -0.056456 0.169872 -0.058831 -0.190604 -0.061313 -0.564004  L -0.169779 -0.541327  C -0.176147 -0.201665 -0.182627 0.125509 -0.380725 0.422253  Z" fill="black" stroke="black" stroke-width="0.005"/>
    <path d="M 2.439483 0.517786 C 2.225304 0.063535 2.124396 -0.427283 2.043969 -0.918879  L 1.883478 -0.906573  C 1.962815 -0.393520 2.064026 0.118407 2.284473 0.593280  Z" fill="black" stroke="black" stroke-width="0.005"/>
    <path d="M 2.686872 -0.569104 C 2.216818 -0.395242 1.725645 -0.295690 1.233598 -0.210255  L 1.275790 0.123315  C 1.792805 0.025934 2.309478 -0.083905 2.801473 -0.275799  Z" fill="white" stroke="white" stroke-width="0"/>
    <path d="M 2.715522 -0.495777 C 2.239991 -0.317377 1.742429 -0.215306 1.244146 -0.126863  L 1.265242 0.039922  C 1.776009 -0.054493 2.286321 -0.161709 2.772823 -0.349125  Z" fill="black" stroke="black" stroke-width="0.005"/>
  </g>
  <g fill="none" stroke="black">
    <path d="M -1.4775 3.6034 C -1.9604 3.4739, -2.2198 2.8971, -1.9963 2.4498" stroke-width="0.305"/>
    <path d="M -1.844 -0.7907 C -2.2249 -0.4668, -2.3417 0.2817, -2.0776 0.7062" stroke-width="0.305"/>
    <path d="M 1.1578 -2.7396 C 0.6729 -2.8615, -0.1296 -2.5971, -0.4471 -2.2109" stroke-width="0.305"/>
    <path d="M 4.073 -2.1301 C 4.0489 -2.6295, 3.5505 -2.9707, 3.0762 -2.8124" stroke-width="0.305"/>
    <path d="M 4.1771 1.3204 C 4.5645 1.0042, 4.7442 0.2333, 4.5366 -0.2216" stroke-width="0.305"/>
    <path d="M 3.701 2.907 C 3.8503 3.3842, 3.5023 3.9122, 3.0048 3.963" stroke-width="0.305"/>
    <path d="M 0.0568 4.6851 C 0.3411 5.0965, 0.9715 5.147, 1.3177 4.7863" stroke-width="0.305"/>
    <path d="M -0.9145 2.328 C -0.8159 2.448, -0.6929 2.7214, -0.6686 2.8748" stroke-width="0.2016"/>
    <path d="M 2.3225 3.1148 C 2.371 2.9672, 2.536 2.7169, 2.6525 2.6142" stroke-width="0.2016"/>
    <path d="M 3.2402 -1.6043 C 3.1455 -1.6551, 2.9692 -1.7758, 2.8875 -1.8457" stroke-width="0.1872"/>
    <path d="M -0.746885 -0.492397 C -0.697586 -0.384202 -0.585662 -0.334135 -0.504173 -0.259812  L -0.445935 -0.350478  C -0.494687 -0.419789 -0.569736 -0.476193 -0.589353 -0.564063  Z" fill="black" stroke="black" stroke-width="0.005"/>
    <path d="M 0.564615 0.068327 C 0.798644 0.075015 1.032014 0.054926 1.265242 0.039922  L 1.244146 -0.126863  C 1.018175 -0.102024 0.792338 -0.072982 0.564615 -0.068327  Z" fill="black" stroke="black" stroke-width="0.005"/>
    <path d="M 2.772823 -0.349125 C 2.949828 -0.410203 3.117874 -0.493111 3.288189 -0.569985  L 3.196893 -0.738090  C 3.037932 -0.654525 2.881481 -0.565508 2.715522 -0.495777  Z" fill="black" stroke="black" stroke-width="0.005"/>
    <path d="M 1.887452 -1.520217 C 1.860638 -1.316062 1.878120 -1.110941 1.883478 -0.906573  L 2.043969 -0.918879  C 2.049796 -1.110186 2.044246 -1.302980 2.080237 -1.492202  Z" fill="black" stroke="black" stroke-width="0.005"/>
    <path d="M 2.284473 0.593280 C 2.389805 0.828254 2.542272 1.035733 2.685720 1.247576  L 2.844697 1.116155  C 2.700913 0.922895 2.549703 0.733758 2.439483 0.517786  Z" fill="black" stroke="black" stroke-width="0.005"/>
    <path d="M 1.069 3.7264 C 0.9228 3.6739, 0.624 3.6499, 0.4713 3.6784" stroke-width="0.2016"/>
    <path d="M -0.706557 1.007898 C -0.536652 0.860050 -0.407387 0.676502 -0.271720 0.499416  L -0.380725 0.422253  C -0.524559 0.571792 -0.658413 0.733567 -0.830845 0.852664  Z" fill="black" stroke="black" stroke-width="0.005"/>
    <path d="M -0.061313 -0.564004 C -0.063709 -0.702200 -0.175094 -0.790881 -0.235600 -0.899019  L -0.342904 -0.759364  C -0.285371 -0.690059 -0.193469 -0.638713 -0.169779 -0.541327  Z" fill="black" stroke="black" stroke-width="0.005"/>
  </g>
</svg>
