<?xml version="1.0" encoding="utf-8" ?>
<svg xmlns="http://www.w3.org/2000/svg" xmlns:ev="http://www.w3.org/2001/xml-events" xmlns:xlink="http://www.w3.org/1999/xlink" baseProfile="full" version="1.1" viewBox="-4.6580055346650076 -5.294508772374203 11.338515062706314 9.300196047196046">
  <defs/>
  <g stroke="none">
    <path d="M 4.839647 0.495688 C 4.790770 -0.177916 4.546071 -0.807976 4.198650 -1.379849  L 4.040134 -1.269133  C 4.326592 -0.722524 4.529854 -0.128303 4.539648 0.494983  Z" fill="black" stroke="black" stroke-width="0.005"/>
    <path d="M 3.870678 0.097679 C 4.510071 -0.193867 5.019381 -0.678840 5.447050 -1.225702  L 4.925460 -1.522255  C 4.597827 -1.025204 4.223140 -0.567251 3.705341 -0.251899  Z" fill="white" stroke="white" stroke-width="0"/>
    <path d="M 3.829343 0.010285 C 4.435541 -0.288158 4.918090 -0.763396 5.316652 -1.299841  L 5.055857 -1.448117  C 4.717852 -0.930492 4.285263 -0.477640 3.746675 -0.164505  Z" fill="black" stroke="black" stroke-width="0.005"/>
    <path d="M 3.272846 0.215036 C 2.846462 0.726384 2.419728 1.237426 1.983546 1.740456  L 2.215273 1.930988  C 2.621487 1.400799 3.030321 0.872471 3.425371 0.333869  Z" fill="black" stroke="black" stroke-width="0.005"/>
    <path d="M 1.885115 0.498680 C 2.374597 1.000810 2.995380 1.331201 3.646100 1.572232  L 3.775711 0.986398  C 3.198201 0.820644 2.640081 0.602695 2.168731 0.214674  Z" fill="white" stroke="white" stroke-width="0"/>
    <path d="M 1.956019 0.427679 C 2.441161 0.898501 3.045283 1.207855 3.678503 1.425773  L 3.743308 1.132857  C 3.144068 0.963639 2.574761 0.692524 2.097827 0.285675  Z" fill="black" stroke="black" stroke-width="0.005"/>
    <path d="M -1.250843 2.649426 C -0.694127 2.269073 -0.338825 1.708355 -0.128492 1.079517  L -0.318048 1.035253  C -0.568521 1.575444 -0.866917 2.073787 -1.397018 2.387448  Z" fill="black" stroke="black" stroke-width="0.005"/>
    <path d="M -1.391851 1.644387 C -0.832277 2.042186 -0.211029 2.342315 0.420273 2.606912  L 0.593361 2.032421  C -0.023012 1.861992 -0.620095 1.626462 -1.186780 1.328635  Z" fill="white" stroke="white" stroke-width="0"/>
    <path d="M -1.340583 1.565449 C -0.779196 1.938770 -0.163845 2.221335 0.463545 2.463289  L 0.550089 2.176044  C -0.069876 1.981106 -0.673081 1.730943 -1.238048 1.407573  Z" fill="black" stroke="black" stroke-width="0.005"/>
    <path d="M -1.731960 1.200836 C -2.315604 1.011646 -2.711577 0.601477 -3.060573 0.122423  L -3.326228 0.261804  C -2.931773 0.791234 -2.425643 1.217460 -1.772458 1.384679  Z" fill="black" stroke="black" stroke-width="0.005"/>
    <path d="M -2.317891 0.146720 C -2.720291 0.736465 -2.813370 1.426483 -2.752203 2.121400  L -2.173786 1.961919  C -2.263184 1.411881 -2.263292 0.875314 -2.007524 0.359853  Z" fill="white" stroke="white" stroke-width="0"/>
    <path d="M -2.240300 0.200003 C -2.602982 0.768400 -2.681318 1.425438 -2.607598 2.081530  L -2.318390 2.001789  C -2.390884 1.413541 -2.382009 0.843494 -2.085116 0.306570  Z" fill="black" stroke="black" stroke-width="0.005"/>
    <path d="M -1.865731 -0.181857 C -1.674156 -0.803993 -1.404640 -1.398803 -1.085152 -1.964741  L -1.344609 -2.115348  C -1.637392 -1.510006 -1.893639 -0.883238 -2.048470 -0.227074  Z" fill="black" stroke="black" stroke-width="0.005"/>
    <path d="M -0.777334 -0.781357 C -1.371536 -1.175467 -2.063387 -1.274083 -2.759721 -1.225462  L -2.615186 -0.643131  C -2.058366 -0.720116 -1.513467 -0.713268 -0.993662 -0.457683  Z" fill="white" stroke="white" stroke-width="0"/>
    <path d="M -0.831416 -0.700439 C -1.404545 -1.056895 -2.064397 -1.141087 -2.723588 -1.079880  L -2.651320 -0.788714  C -2.058003 -0.849261 -1.480457 -0.833254 -0.939580 -0.538601  Z" fill="black" stroke="black" stroke-width="0.005"/>
    <path d="M 1.711759 -3.554447 C 1.369290 -2.971827 1.198463 -2.316242 1.136012 -1.648756  L 1.336582 -1.641962  C 1.430685 -2.256530 1.613285 -2.861724 1.959217 -3.384847  Z" fill="black" stroke="black" stroke-width="0.005"/>
    <path d="M 2.288076 -2.679706 C 1.633963 -2.823619 0.974701 -2.942680 0.317664 -3.072295  L 0.239630 -2.477391  C 0.903304 -2.428371 1.565106 -2.359059 2.227725 -2.297739  Z" fill="white" stroke="white" stroke-width="0"/>
    <path d="M 2.272988 -2.584214 C 1.616526 -2.707562 0.957020 -2.813991 0.298155 -2.923569  L 0.259138 -2.626117  C 0.921328 -2.556846 1.582093 -2.475269 2.242813 -2.393230  Z" fill="black" stroke="black" stroke-width="0.005"/>
    <path d="M 2.848116 -2.439851 C 3.455332 -2.579206 4.080613 -2.544119 4.681089 -2.397111  L 4.770202 -2.683570  C 4.112651 -2.802943 3.435594 -2.820240 2.789051 -2.623962  Z" fill="black" stroke="black" stroke-width="0.005"/>
    <path d="M 4.104231 -1.874993 C 4.014132 -2.571919 3.700855 -3.201564 3.304371 -3.771441  L 2.867234 -3.360453  C 3.245611 -2.900851 3.572755 -2.407812 3.721447 -1.820059  Z" fill="white" stroke="white" stroke-width="0"/>
    <path d="M 4.008535 -1.861260 C 3.902061 -2.528498 3.590196 -3.129702 3.195087 -3.668694  L 2.976518 -3.463200  C 3.371496 -2.987621 3.676698 -2.440757 3.817143 -1.833793  Z" fill="black" stroke="black" stroke-width="0.005"/>
    <path d="M 0.485385 -0.046509 C 0.174699 -0.056812 -0.092406 -0.192968 -0.361388 -0.329312  L -0.429502 -0.233614  C -0.137400 -0.094387 0.151459 0.046303 0.485385 0.046509  Z" fill="black" stroke="black" stroke-width="0.005"/>
    <path d="M 0.018693 0.499046 C 0.075441 0.205275 0.247888 -0.028227 0.417970 -0.263727  L 0.290859 -0.399564  C 0.079456 -0.139917 -0.130419 0.116308 -0.211551 0.452374  Z" fill="white" stroke="white" stroke-width="0"/>
    <path d="M -0.038868 0.487378 C 0.024145 0.183092 0.205776 -0.056142 0.386192 -0.297686  L 0.322636 -0.365605  C 0.121561 -0.111989 -0.078800 0.138610 -0.153990 0.464042  Z" fill="black" stroke="black" stroke-width="0.005"/>
    <path d="M 1.571148 -0.149479 C 1.279104 -0.376549 0.937211 -0.426485 0.586054 -0.477600  L 0.588884 -0.377416  C 0.909611 -0.319719 1.224772 -0.264430 1.487076 -0.049408  Z" fill="black" stroke="black" stroke-width="0.005"/>
    <path d="M 1.054698 -0.987802 C 1.017081 -0.666054 0.836088 -0.417591 0.654668 -0.164328  L 0.787439 -0.014157  C 1.021689 -0.298664 1.251250 -0.576859 1.314222 -0.956551  Z" fill="white" stroke="white" stroke-width="0"/>
    <path d="M 1.119579 -0.979989 C 1.074969 -0.643764 0.882624 -0.388054 0.687861 -0.126785  L 0.754247 -0.051700  C 0.975727 -0.328955 1.191248 -0.599020 1.249341 -0.964364  Z" fill="black" stroke="black" stroke-width="0.005"/>
  </g>
  <g fill="none" stroke="black">
    <path d="M 4.7256 -2.5403 C 5.2031 -2.3918, 5.4334 -1.8086, 5.1863 -1.374" stroke-width="0.305"/>
    <path d="M 4.6896 0.4953 C 4.6885 0.9953, 4.1991 1.3873, 3.7109 1.2793" stroke-width="0.305"/>
    <path d="M 2.0994 1.8357 C 1.7819 2.2219, 0.9856 2.4639, 0.5068 2.3197" stroke-width="0.305"/>
    <path d="M -1.3239 2.5184 C -1.7606 2.7621, -2.3301 2.5237, -2.463 2.0417" stroke-width="0.305"/>
    <path d="M -3.1934 0.1921 C -3.4257 -0.2506, -3.1727 -0.8139, -2.6875 -0.9343" stroke-width="0.305"/>
    <path d="M -1.2149 -2.04 C -0.9639 -2.4725, -0.2171 -2.8399, 0.2786 -2.7748" stroke-width="0.305"/>
    <path d="M 1.8355 -3.4696 C 2.1182 -3.8821, 2.7433 -3.9302, 3.0858 -3.5659" stroke-width="0.305"/>
    <path d="M -0.939580 -0.538601 C -0.767542 -0.440390 -0.598942 -0.336227 -0.429502 -0.233614  L -0.361388 -0.329312  C -0.517663 -0.453499 -0.673060 -0.578845 -0.831416 -0.700439  Z" fill="black" stroke="black" stroke-width="0.005"/>
    <path d="M 0.485385 0.046509 C 0.589283 0.059148 0.667574 -0.016974 0.754247 -0.051700  L 0.687861 -0.126785  C 0.622599 -0.099105 0.563733 -0.041356 0.485385 -0.046509  Z" fill="black" stroke="black" stroke-width="0.005"/>
    <path d="M 1.249341 -0.964364 C 1.289628 -1.188650 1.311174 -1.415675 1.336582 -1.641962  L 1.136012 -1.648756  C 1.134139 -1.425786 1.134547 -1.202694 1.119579 -0.979989  Z" fill="black" stroke="black" stroke-width="0.005"/>
    <path d="M 3.9128 -1.8475 C 3.9334 -1.7045, 4.0366 -1.443, 4.1194 -1.3245" stroke-width="0.1984"/>
    <path d="M 2.097827 0.285675 C 1.928532 0.133027 1.749037 -0.007310 1.571148 -0.149479  L 1.487076 -0.049408  C 1.645917 0.107064 1.807718 0.260971 1.956019 0.427679  Z" fill="black" stroke="black" stroke-width="0.005"/>
    <path d="M 0.586054 -0.477600 C 0.481617 -0.484777 0.407369 -0.404774 0.322636 -0.365605  L 0.386192 -0.297686  C 0.451609 -0.325257 0.510583 -0.382980 0.588884 -0.377416  Z" fill="black" stroke="black" stroke-width="0.005"/>
    <path d="M -0.153990 0.464042 C -0.206134 0.655183 -0.262784 0.845036 -0.318048 1.035253  L -0.128492 1.079517  C -0.097514 0.882319 -0.064776 0.685315 -0.038868 0.487378  Z" fill="black" stroke="black" stroke-width="0.005"/>
    <path d="M -2.1627 0.2533 C -2.0905 0.1482, -1.9877 -0.0807, -1.9571 -0.2045" stroke-width="0.1933"/>
    <path d="M 2.2579 -2.4887 C 2.4006 -2.4662, 2.681 -2.4878, 2.8186 -2.5319" stroke-width="0.1984"/>
    <path d="M 3.788 -0.0771 C 3.6574 -0.0153, 3.4379 0.1605, 3.3491 0.2745" stroke-width="0.1984"/>
    <path d="M -1.2893 1.4865 C -1.3962 1.4171, -1.6277 1.3202, -1.7522 1.2928" stroke-width="0.1933"/>
  </g>
</svg>
